<svg width="49" height="43" viewBox="0 0 49 43" fill="none" xmlns="http://www.w3.org/2000/svg">
<path d="M31.7266 9.21606V9.70636C33.0666 10.1898 33.2707 11.2603 33.2668 14.0927L33.2336 35.1238C33.2307 37.5333 35.1811 39.4896 37.5896 39.4935H37.8719L37.911 14.1005C37.9159 11.229 38.121 10.1644 39.503 9.69464V9.22876L31.7266 9.21704V9.21606Z" fill="white"/>
<path d="M15.8747 15.8116C14.8121 16.2072 13.8344 16.7981 12.9905 17.555C12.1975 18.2748 11.5567 19.147 11.1055 20.1179C10.1562 22.3125 10.2001 24.8099 11.2266 26.9703C11.7658 28.0515 12.55 28.9901 13.515 29.7158C14.5093 30.505 16.3435 31.6155 19.0196 33.0454C20.053 33.5796 21.057 34.1646 22.0298 34.8014C22.8073 35.2917 23.5407 35.8494 24.2225 36.4657C24.6874 36.8681 25.0634 37.3623 25.3281 37.9171C25.5254 38.381 25.627 38.8801 25.626 39.3841C25.626 39.9594 25.4902 40.5249 25.2295 41.0357C24.956 41.5689 24.5897 42.0475 24.1443 42.4489C23.9168 42.6531 23.6707 42.8367 23.4089 42.9939C29.4185 43.1961 30.7497 38.2599 28.6938 34.6715C27.4934 32.5756 24.7636 31.1369 22.7154 29.8887C22.023 29.4677 21.8911 29.3769 21.1449 28.9276C20.3987 28.4783 19.7141 28.072 19.0734 27.6941C18.4414 27.3141 17.9052 26.9879 17.4579 26.7242C17.0106 26.4507 16.7391 26.2837 16.6326 26.2222C15.8942 25.6704 15.274 24.9769 14.8081 24.1809C14.4321 23.5216 14.2309 22.7764 14.2231 22.0175C14.2241 21.4022 14.3608 20.7937 14.6216 20.2351C14.8921 19.6598 15.2789 19.1461 15.7575 18.7251C16.2937 18.2709 16.911 17.9232 17.578 17.7005C18.3565 17.4359 19.173 17.3069 19.9944 17.3177C21.4643 17.2981 22.9157 17.6439 24.2186 18.3256C24.8163 18.6343 25.3769 19.0132 25.8858 19.4527C26.3566 19.8649 26.7609 20.3454 27.0861 20.8787C27.4465 21.495 27.7288 22.1533 27.9271 22.8389C28.1966 23.7355 28.4057 24.6487 28.5551 25.5737L29.5249 25.5756L29.5415 15.1924L28.5717 15.1904C28.5424 15.6641 28.3812 16.1212 28.1039 16.507C27.8831 16.7326 27.5745 16.8498 27.26 16.8303C26.9445 16.8069 26.631 16.7473 26.3282 16.6545C25.8975 16.5305 25.3437 16.3615 24.66 16.1603C22.8141 15.6143 21.1293 15.1543 19.383 15.1524C18.2588 15.1504 17.1083 15.3379 15.8727 15.8126" fill="white"/>
<path d="M11.0356 0.0166051L0.550787 0V0.506903C0.936581 0.662197 1.2667 0.84484 1.51967 1.14566C1.93183 1.6467 2.13108 3.3481 2.12814 5.0954L2.09591 26.1255C2.09298 27.7498 1.92499 29.5313 1.59878 30.0059C1.33409 30.3966 0.960998 30.5763 0.503906 30.7638V31.217L8.05081 31.2287C7.90039 30.9943 7.76268 30.7502 7.63864 30.5001C7.36224 29.9444 7.15811 29.3564 7.02918 28.7489C6.83287 27.8914 6.7479 27.0124 6.78013 26.1333L6.79966 14.9375L6.82017 1.88697C8.06936 1.56564 9.35762 1.41132 10.6488 1.42695C11.8355 1.41132 13.0163 1.58029 14.1512 1.92604C15.0713 2.20342 15.9298 2.65465 16.6799 3.25629C17.3294 3.77882 17.8509 4.44395 18.2045 5.19991C19.1138 7.17087 18.9497 9.57744 17.3069 11.0757C20.1403 13.1639 22.0204 12.2887 22.7842 10.182C23.6095 7.80279 23.1143 5.16572 21.4823 3.2475C21.0037 2.68883 20.4499 2.20049 19.8346 1.79516C19.1626 1.36444 18.433 1.02943 17.6673 0.800889C16.7258 0.521555 15.7628 0.326215 14.787 0.216826C13.6199 0.0849723 12.4459 0.0185585 11.271 0.0166051C11.1928 0.0166051 11.1157 0.016606 11.0375 0.0175827" fill="white"/>
<path d="M41.5547 36.198C41.5518 38.1152 43.1037 39.6711 45.021 39.674C46.9372 39.6769 48.4941 38.125 48.497 36.2087C48.4999 34.2915 46.948 32.7356 45.0317 32.7327C43.1145 32.7297 41.5576 34.2807 41.5547 36.198Z" fill="#E0592A"/>
</svg>
