<svg width="62" height="50" viewBox="0 0 62 50" fill="none" xmlns="http://www.w3.org/2000/svg">
<path d="M39.0513 10.6674V11.2426C40.7326 11.7852 40.9895 13.044 40.9895 16.343V40.8139C40.9895 42.1609 41.5652 43.4527 42.5901 44.4051C43.6148 45.3575 45.0048 45.8926 46.454 45.8926H46.8043V16.343C46.8043 13.0005 47.0612 11.7634 48.7893 11.21V10.6674H39.0513Z" fill="#2C2D65"/>
<path d="M19.2194 18.3725C17.8888 18.8323 16.6645 19.5227 15.6114 20.4073C14.6291 21.2494 13.8355 22.2635 13.2761 23.3915C12.6884 24.6543 12.3978 26.0192 12.424 27.3949C12.4502 28.7705 12.7925 30.125 13.428 31.3677C14.1033 32.624 15.0848 33.7164 16.2945 34.5581C18.4836 36.0099 20.7908 37.3015 23.1951 38.4213C24.489 39.041 25.7477 39.722 26.9665 40.4615C27.9417 41.0301 28.8617 41.6764 29.7163 42.3931C30.3002 42.8602 30.7733 43.4348 31.1058 44.0806C31.3519 44.6195 31.479 45.1989 31.4794 45.7844C31.4851 46.4538 31.3168 47.1145 30.989 47.7106C30.645 48.325 30.1841 48.8765 29.6288 49.3384C29.3478 49.579 29.0406 49.7917 28.7121 49.9732C36.2317 50.2174 37.8897 44.493 35.3093 40.2988C33.7972 37.8625 30.3585 36.1913 27.8131 34.7263C26.9432 34.238 26.7797 34.1295 25.8456 33.6085L23.2477 32.1816L21.2219 31.053L20.1885 30.4724C19.2625 29.8324 18.4842 29.026 17.8999 28.1013C17.4285 27.3338 17.1752 26.4673 17.1643 25.5836C17.1647 24.8656 17.334 24.1563 17.6605 23.5055C17.9977 22.8346 18.4807 22.236 19.0793 21.7475C19.7509 21.2203 20.5233 20.8154 21.3561 20.5538C22.3293 20.2449 23.352 20.0925 24.3802 20.1034C26.2222 20.0776 28.042 20.4785 29.6755 21.27C30.4231 21.6283 31.1226 22.0672 31.7596 22.5777C32.3482 23.0456 32.8561 23.5945 33.2659 24.2054C33.7189 24.9212 34.0738 25.6867 34.3226 26.4843C34.6629 27.5284 34.9281 28.5925 35.1166 29.6693H36.3309V17.6292H35.1166C35.0797 18.1799 34.8774 18.71 34.5328 19.1593C34.3962 19.2891 34.2311 19.3903 34.0488 19.4558C33.8665 19.5213 33.6712 19.5498 33.476 19.5391C33.0798 19.5109 32.6882 19.4417 32.3085 19.3329L30.2184 18.7632C27.8832 18.1284 25.7989 17.5966 23.6097 17.5966C22.1068 17.5969 20.6174 17.8602 19.2194 18.3725Z" fill="#2C2D65"/>
<path d="M13.13 0H0V0.591427C0.466676 0.738313 0.884854 0.994297 1.21433 1.33478C1.75144 1.91535 1.98497 3.89582 1.98497 5.93055V30.3852C1.98497 32.2734 1.77479 34.3516 1.36612 34.8996C1.02692 35.331 0.548266 35.6504 0 35.8112V36.3537H9.45196C9.26073 36.0815 9.08717 35.7988 8.93233 35.5073C8.58232 34.8543 8.32706 34.1609 8.17338 33.4455C7.92053 32.4431 7.8106 31.4142 7.84645 30.3852V2.17037C9.41164 1.79488 11.0232 1.61245 12.6395 1.62778C14.1243 1.60673 15.6035 1.80077 17.024 2.20293C18.1803 2.52788 19.2585 3.05657 20.1999 3.76017C21.0112 4.37059 21.6655 5.14178 22.1148 6.01736C23.2532 8.3125 23.0547 11.1123 20.9998 12.8595C24.5493 15.2848 26.9021 14.2594 27.8538 11.8068C28.3589 10.4464 28.4732 8.98703 28.1855 7.5729C27.8978 6.1588 27.218 4.83897 26.2132 3.74389C25.6139 3.0932 24.918 2.52502 24.1465 2.05643C23.3036 1.5561 22.3899 1.16714 21.4318 0.900703C20.2525 0.57931 19.0453 0.354184 17.8238 0.227889C16.3642 0.0761582 14.8965 7.74302e-05 13.4277 0H13.1358" fill="#2C2D65"/>
<path d="M51.4106 42.0513C51.4095 42.851 51.6635 43.6331 52.1408 44.2986C52.618 44.9641 53.2969 45.483 54.0916 45.7898C54.8861 46.0966 55.7609 46.1774 56.605 46.022C57.449 45.8667 58.2246 45.4821 58.8334 44.917C59.4423 44.3519 59.8572 43.6316 60.0254 42.8473C60.1938 42.063 60.1079 41.25 59.7789 40.5111C59.4499 39.7721 58.8925 39.1405 58.1771 38.696C57.4617 38.2516 56.6205 38.0144 55.7601 38.0144C54.6075 38.0144 53.5021 38.4395 52.6866 39.1965C51.8711 39.9534 51.4122 40.9802 51.4106 42.0513Z" fill="#E0592A"/>
</svg>
