<svg width="16" height="16" viewBox="0 0 16 16" fill="none" xmlns="http://www.w3.org/2000/svg">
<path d="M13.7736 6.86611L13.7736 6.86614L10.9554 9.68432C10.8824 9.75733 10.7833 9.79834 10.6801 9.79834C10.5769 9.79834 10.4778 9.75733 10.4048 9.68432C10.3318 9.61131 10.2908 9.5123 10.2908 9.40905C10.2908 9.3058 10.3318 9.20678 10.4048 9.13378L12.4216 7.11761L12.5593 6.9799H12.3646H10.0343C10.0343 6.9799 10.0343 6.9799 10.0343 6.9799C8.87072 6.97958 7.74006 7.366 6.82009 8.07841C5.90012 8.79081 5.24302 9.78879 4.95213 10.9154L4.95213 10.9154C4.92633 11.0154 4.86188 11.101 4.77295 11.1534C4.68403 11.2059 4.57791 11.2208 4.47795 11.1951C4.37798 11.1693 4.29236 11.1048 4.23992 11.0159C4.18747 10.927 4.1725 10.8208 4.1983 10.7209L4.19831 10.7208C4.5318 9.42686 5.28621 8.28055 6.34275 7.46242C7.39929 6.64429 8.69794 6.20082 10.0342 6.20183H10.0343H12.3657H12.5606L12.4227 6.06411L10.4048 4.04796C10.4048 4.04795 10.4048 4.04794 10.4048 4.04793C10.3687 4.01179 10.34 3.96888 10.3204 3.92166C10.3009 3.87443 10.2908 3.82381 10.2908 3.77268C10.2908 3.72156 10.3009 3.67094 10.3204 3.62371C10.34 3.57648 10.3687 3.53356 10.4048 3.49741C10.4778 3.42441 10.5769 3.38339 10.6801 3.38339C10.7312 3.38339 10.7818 3.39346 10.8291 3.41302C10.8763 3.43259 10.9192 3.46126 10.9554 3.49741L13.7736 6.31559L13.7736 6.31563C13.8098 6.35176 13.8385 6.39466 13.858 6.44189C13.8776 6.48912 13.8877 6.53974 13.8877 6.59087C13.8877 6.64199 13.8776 6.69262 13.858 6.73984C13.8385 6.78707 13.8098 6.82998 13.7736 6.86611ZM2.61459 12.6969V12.7776H2.69525H11.6195C11.7227 12.7776 11.8216 12.8186 11.8946 12.8915C11.9675 12.9645 12.0085 13.0634 12.0085 13.1666C12.0085 13.2698 11.9675 13.3688 11.8946 13.4417C11.8216 13.5147 11.7227 13.5557 11.6195 13.5557H2.22556C2.12238 13.5557 2.02343 13.5147 1.95047 13.4417C1.87751 13.3688 1.83652 13.2698 1.83652 13.1666V5.65147C1.83652 5.54829 1.87751 5.44934 1.95047 5.37639C2.02343 5.30343 2.12238 5.26244 2.22556 5.26244C2.32873 5.26244 2.42769 5.30343 2.50064 5.37639C2.5736 5.44934 2.61459 5.54829 2.61459 5.65147V12.6969Z" fill="white" stroke="white" stroke-width="0.161329"/>
</svg>
