<svg width="35" height="33" viewBox="0 0 35 33" fill="none" xmlns="http://www.w3.org/2000/svg">
<g clip-path="url(#clip0_2457_4388)">
<mask id="mask0_2457_4388" style="mask-type:luminance" maskUnits="userSpaceOnUse" x="0" y="0" width="35" height="33">
<path d="M35 0H0V33H35V0Z" fill="white"/>
</mask>
<g mask="url(#mask0_2457_4388)">
<path d="M32.8804 33H2.13037V15.51H9.34986V16.214H2.80821V32.296H32.1918V16.214H25.5856V15.51H32.8804V33Z" fill="currentColor"/>
<path d="M34.5804 32.296H0.419678V33H34.5804V32.296Z" fill="currentColor"/>
<path d="M35 16.214H32.5361V15.51H34.3222V5.67597H0.688595V15.51H2.46388V16.214H0V4.98297H35V16.214Z" fill="currentColor"/>
<path d="M17.8497 0.35199H17.1611V5.33499H17.8497V0.35199Z" fill="currentColor"/>
<path d="M20.6578 33H14.342V25.201H20.6578V33ZM15.0306 32.296H19.9692V25.905H15.0306V32.296Z" fill="currentColor"/>
<path d="M17.5055 17.842C15.7625 17.842 14.353 16.39 14.353 14.619C14.353 12.848 15.7733 11.396 17.5055 11.396C19.2377 11.396 20.658 12.848 20.658 14.619C20.658 16.39 19.2377 17.842 17.5055 17.842ZM17.5055 12.089C16.1391 12.089 15.0309 13.222 15.0309 14.619C15.0309 16.016 16.1391 17.149 17.5055 17.149C18.8719 17.149 19.9801 16.016 19.9801 14.619C19.9801 13.222 18.8719 12.089 17.5055 12.089Z" fill="currentColor"/>
<path d="M19.0333 14.971H17.1611V13.002H17.8497V14.267H19.0333V14.971Z" fill="currentColor"/>
<path d="M27.3609 17.754L17.344 9.592L7.64987 17.754L7.20874 17.215L17.3332 8.69L27.7913 17.204L27.3609 17.754Z" fill="currentColor"/>
<path d="M21.3895 3.19H17.1611V0H21.3895V3.19ZM17.8497 2.486H20.7117V0.704H17.8497V2.486Z" fill="currentColor"/>
<path d="M7.71443 23.903H3.98096V20.471C3.98096 19.58 4.69107 18.843 5.57333 18.843H6.13282C7.00432 18.843 7.72519 19.569 7.72519 20.471V23.903H7.71443ZM4.65879 23.199H7.02584V20.46C7.02584 19.954 6.61698 19.536 6.12206 19.536H5.56257C5.06765 19.536 4.65879 19.954 4.65879 20.46V23.199Z" fill="currentColor"/>
<path d="M6.18664 19.184H5.49805V23.54H6.18664V19.184Z" fill="currentColor"/>
<path d="M12.9864 23.903H9.25293V20.471C9.25293 19.58 9.96304 18.843 10.8453 18.843H11.4048C12.2763 18.843 12.9972 19.569 12.9972 20.471V23.903H12.9864ZM9.93076 23.199H12.2978V20.46C12.2978 19.954 11.889 19.536 11.394 19.536H10.8345C10.3396 19.536 9.93076 19.954 9.93076 20.46V23.199Z" fill="currentColor"/>
<path d="M11.4586 19.184H10.77V23.54H11.4586V19.184Z" fill="currentColor"/>
<path d="M25.7579 23.903H22.0244V20.471C22.0244 19.58 22.7345 18.843 23.6168 18.843H24.1763C25.0478 18.843 25.7687 19.569 25.7687 20.471V23.903H25.7579ZM22.713 23.199H25.0801V20.46C25.0801 19.954 24.6712 19.536 24.1763 19.536H23.6168C23.1219 19.536 22.713 19.954 22.713 20.46V23.199Z" fill="currentColor"/>
<path d="M24.2301 19.184H23.5415V23.54H24.2301V19.184Z" fill="currentColor"/>
<path d="M31.0299 23.903H27.2964V20.471C27.2964 19.58 28.0065 18.843 28.8888 18.843H29.4482C30.3197 18.843 31.0406 19.569 31.0406 20.471V23.903H31.0299ZM27.985 23.199H30.352V20.46C30.352 19.954 29.9432 19.536 29.4482 19.536H28.8888C28.3938 19.536 27.985 19.954 27.985 20.46V23.199Z" fill="currentColor"/>
<path d="M29.5128 19.184H28.8242V23.54H29.5128V19.184Z" fill="currentColor"/>
<path d="M7.71443 30.261H3.98096V26.829C3.98096 25.938 4.69107 25.201 5.57333 25.201H6.13282C7.00432 25.201 7.72519 25.927 7.72519 26.829V30.261H7.71443ZM4.65879 29.557H7.02584V26.818C7.02584 26.312 6.61698 25.894 6.12206 25.894H5.56257C5.06765 25.894 4.65879 26.312 4.65879 26.818V29.557Z" fill="currentColor"/>
<path d="M6.18664 25.553H5.49805V29.909H6.18664V25.553Z" fill="currentColor"/>
<path d="M12.9864 30.261H9.25293V26.829C9.25293 25.938 9.96304 25.201 10.8453 25.201H11.4048C12.2763 25.201 12.9972 25.927 12.9972 26.829V30.261H12.9864ZM9.93076 29.557H12.2978V26.818C12.2978 26.312 11.889 25.894 11.394 25.894H10.8345C10.3396 25.894 9.93076 26.312 9.93076 26.818V29.557Z" fill="currentColor"/>
<path d="M11.4586 25.553H10.77V29.909H11.4586V25.553Z" fill="currentColor"/>
<path d="M25.7579 30.261H22.0244V26.829C22.0244 25.938 22.7345 25.201 23.6168 25.201H24.1763C25.0478 25.201 25.7687 25.927 25.7687 26.829V30.261H25.7579ZM22.713 29.557H25.0801V26.818C25.0801 26.312 24.6712 25.894 24.1763 25.894H23.6168C23.1219 25.894 22.713 26.312 22.713 26.818V29.557Z" fill="currentColor"/>
<path d="M24.2301 25.553H23.5415V29.909H24.2301V25.553Z" fill="currentColor"/>
<path d="M31.0299 30.261H27.2964V26.829C27.2964 25.938 28.0065 25.201 28.8888 25.201H29.4482C30.3197 25.201 31.0406 25.927 31.0406 26.829V30.261H31.0299ZM27.985 29.557H30.352V26.818C30.352 26.312 29.9432 25.894 29.4482 25.894H28.8888C28.3938 25.894 27.985 26.312 27.985 26.818V29.557Z" fill="currentColor"/>
<path d="M29.5128 25.553H28.8242V29.909H29.5128V25.553Z" fill="currentColor"/>
<path d="M20.3136 27.379H14.6865V28.083H20.3136V27.379Z" fill="currentColor"/>
<path d="M17.8497 27.731H17.1611V30.536H17.8497V27.731Z" fill="currentColor"/>
</g>
</g>
<defs>
<clipPath id="clip0_2457_4388">
<rect width="35" height="33" fill="white"/>
</clipPath>
</defs>
</svg>
