<svg width="309" height="200" viewBox="0 0 309 200" fill="none" xmlns="http://www.w3.org/2000/svg">
<g clip-path="url(#clip0_2471_1983)">
<mask id="mask0_2471_1983" style="mask-type:luminance" maskUnits="userSpaceOnUse" x="0" y="0" width="309" height="199">
<path d="M308.571 0H0V198.405H308.571V0Z" fill="white"/>
</mask>
<g mask="url(#mask0_2471_1983)">
<path d="M119.407 156.563H122.075C122.53 156.563 122.986 156.563 123.441 156.563C124.938 156.563 125.784 157.409 125.849 158.906V159.231C125.914 161.053 125.979 162.094 125.328 162.81C124.678 163.461 123.636 163.526 121.879 163.526H108.8C108.8 167.755 108.8 171.985 108.8 176.28C114.852 176.28 120.968 176.28 127.02 176.28C127.606 174.979 128.322 173.742 129.038 172.571C128.452 172.571 127.931 172.571 127.346 172.571C127.346 172.571 124.222 172.571 123.571 172.571C123.376 172.571 123.181 172.506 123.051 172.311C122.92 172.181 122.856 171.985 122.856 171.725L123.311 168.081C123.311 168.081 123.571 167.561 123.832 167.495L124.352 167.365C124.743 167.235 125.133 167.17 125.588 167.04C127.02 166.585 128.842 165.543 129.363 163.201C129.818 161.183 129.883 159.491 129.558 157.93C128.062 156.498 126.565 155.002 125.328 153.44C125.068 153.049 124.873 152.724 124.612 152.334C123.832 152.659 122.856 152.789 122.595 152.789C117.975 152.789 113.42 152.789 108.8 152.789C108.8 154.025 108.8 155.327 108.8 156.563H119.472H119.407ZM119.016 171.725C119.016 172.115 118.691 172.376 118.3 172.376H113.03C112.639 172.376 112.314 172.05 112.314 171.66V168.081C112.314 167.69 112.639 167.365 113.03 167.365H118.691C118.691 167.365 119.082 167.43 119.212 167.626C119.342 167.755 119.407 167.951 119.407 168.211L118.951 171.79L119.016 171.725Z" fill="currentColor"/>
<path d="M105.742 186.562C105.742 185.325 105.742 184.023 105.742 182.722H97.6731C97.6731 184.023 97.6731 185.26 97.6731 186.562H105.742Z" fill="currentColor"/>
<path d="M97.6731 172.376C97.6731 173.677 97.6731 174.914 97.6731 176.215C100.341 176.215 103.074 176.215 105.742 176.215C105.742 174.979 105.742 173.677 105.742 172.376H97.6731Z" fill="currentColor"/>
<path d="M100.342 156.563H105.807C105.807 155.327 105.807 154.09 105.807 152.789C103.139 152.789 100.406 152.789 97.7383 152.789C97.7383 154.025 97.7383 155.327 97.7383 156.563C98.6497 156.563 99.4954 156.563 100.406 156.563H100.342Z" fill="currentColor"/>
<path d="M94.7451 186.562C94.7451 185.26 94.7451 184.023 94.7451 182.722H87.1313C87.1313 184.023 87.1313 185.26 87.1313 186.562H94.7451Z" fill="currentColor"/>
<path d="M130.339 176.801C130.859 177.321 130.859 178.102 130.859 178.623C130.859 179.143 130.859 179.599 130.859 179.989C130.859 181.746 130.859 182.722 128.777 182.722H128.061C128.061 182.722 127.931 182.722 127.866 182.722C127.475 183.959 127.085 185.13 126.824 186.497H127.54C127.996 186.497 128.451 186.497 128.972 186.497C132.616 186.497 134.568 184.479 134.633 180.9C134.633 179.794 134.633 178.753 134.633 177.647C134.633 175.629 133.592 174.067 132.03 173.222C131.315 174.328 130.794 175.499 130.208 176.735C130.208 176.735 130.339 176.735 130.339 176.801Z" fill="currentColor"/>
<path d="M94.7451 156.563C94.7451 155.327 94.7451 154.09 94.7451 152.789H87.1313C87.1313 154.025 87.1313 155.327 87.1313 156.563C89.6696 156.563 92.2073 156.563 94.7451 156.563Z" fill="currentColor"/>
<path d="M84.1381 156.563C84.1381 155.327 84.1381 154.09 84.1381 152.789H76.0044C76.0044 154.025 76.0044 155.327 76.0044 156.563C78.7375 156.563 81.4701 156.563 84.1381 156.563Z" fill="currentColor"/>
<path d="M87.1313 172.376C87.1313 173.677 87.1313 174.914 87.1313 176.215C89.6696 176.215 92.2073 176.215 94.7451 176.215C94.7451 174.914 94.7451 173.677 94.7451 172.376H87.1313Z" fill="currentColor"/>
<path d="M87.1959 145.826C87.1959 145.826 87.5867 145.826 87.7816 145.826C88.8227 145.696 89.4084 145.175 89.4736 144.134C89.5387 143.093 89.0833 142.508 88.0422 142.182C87.7816 142.117 87.4564 142.117 87.0662 142.117C87.0662 143.354 87.0662 144.59 87.0662 145.891H87.1313L87.1959 145.826Z" fill="currentColor"/>
<path d="M76.0044 172.376C76.0044 173.677 76.0044 174.979 76.0044 176.215C78.7375 176.215 81.4055 176.215 84.1381 176.215C84.1381 174.979 84.1381 173.677 84.1381 172.376H76.0044Z" fill="currentColor"/>
<path d="M87.1313 163.461C87.1313 164.762 87.1313 166.064 87.1313 167.365H94.7451C94.7451 166.064 94.7451 164.762 94.7451 163.461H87.1313Z" fill="currentColor"/>
<path d="M84.1381 186.562C84.1381 185.325 84.1381 184.023 84.1381 182.722C81.4701 182.722 78.7375 182.722 76.0044 182.722C76.0044 184.023 76.0044 185.325 76.0044 186.562H84.1381Z" fill="currentColor"/>
<path d="M76.0044 163.461C76.0044 164.762 76.0044 166.064 76.0044 167.365H84.1381C84.1381 166.064 84.1381 164.762 84.1381 163.461H76.0044Z" fill="currentColor"/>
<path d="M97.6731 163.461C97.6731 164.762 97.6731 166.064 97.6731 167.365H105.742C105.742 166.064 105.742 164.762 105.742 163.461H97.6731Z" fill="currentColor"/>
<path d="M84.1381 145.826C84.1381 144.59 84.1381 143.354 84.1381 142.052H76.0044C76.0044 143.289 76.0044 144.525 76.0044 145.826H84.1381Z" fill="currentColor"/>
<path d="M108.93 145.826C112.965 145.826 117.064 145.826 121.098 145.826C120.643 144.59 120.318 143.354 120.057 142.052C118.495 142.052 116.803 141.922 114.786 141.922C113.094 141.922 111.403 141.922 109.646 141.922C109.321 141.922 109.06 141.922 108.735 141.922C108.735 143.158 108.735 144.46 108.735 145.696H108.93V145.826Z" fill="currentColor"/>
<path d="M125.328 146.933C125.458 147.518 125.458 147.974 125.523 148.494C126.435 150.121 127.54 151.748 128.907 153.31C129.688 151.487 129.623 149.601 129.493 147.518V146.737C129.363 145.631 129.493 144.72 129.883 144.069C130.794 142.378 131.77 140.49 133.072 138.863C134.568 136.977 135.87 136.131 137.302 136.131C138.733 136.131 140.035 137.042 141.531 138.929C142.767 140.555 143.939 142.443 144.915 144.525C147.843 150.772 149.86 157.865 151.162 166.845C152.008 172.441 152.594 178.427 151.552 184.544C150.576 190.335 147.583 193.003 141.791 193.134C140.946 193.134 140.035 193.134 139.188 193.134C135.935 193.134 133.007 193.003 130.208 192.743C128.582 192.613 127.28 192.027 126.239 191.117C126.109 192.158 125.914 193.069 125.849 194.175C125.784 195.411 125.394 196.062 124.808 196.453H123.767C123.051 195.802 122.855 195.021 122.92 193.459C123.181 189.49 123.831 185.976 124.743 182.657C119.407 182.657 114.071 182.657 108.8 182.657C108.8 183.958 108.8 185.195 108.8 186.497H111.663C112.054 186.497 112.379 186.822 112.379 187.212V193.003C112.379 193.394 112.054 193.719 111.663 193.719H108.735C108.735 195.021 108.475 195.802 107.889 196.453H106.652C106.002 195.867 105.872 194.955 105.807 193.719H97.7376C97.7376 195.151 97.4776 195.867 96.7616 196.453H95.7205C95.0045 195.867 94.7445 195.151 94.7445 193.785H87.1308C87.1308 195.151 86.8708 195.932 86.2199 196.518H85.1788C84.5279 196.062 84.2028 195.476 84.2028 194.11C84.2028 194.045 84.2028 193.914 84.2028 193.785H76.069C76.069 195.346 75.8085 196.062 75.0925 196.518H73.9862C73.401 195.932 73.1405 195.151 73.0753 193.785H64.7462C64.3559 193.785 64.0302 193.459 64.0302 193.069V187.277C64.0302 186.887 64.3559 186.561 64.7462 186.561H73.0753C73.0753 185.26 73.0753 184.023 73.0753 182.722C62.729 182.722 52.7079 182.722 47.5672 182.722C44.8342 182.722 44.5088 182.397 44.5088 179.664V179.273C44.5088 179.273 44.5088 178.818 44.5088 178.558C44.4438 177.842 44.5088 177.256 44.8993 176.866C45.4198 176.28 46.1356 176.215 46.8514 176.215C55.6361 176.215 64.3559 176.215 73.1405 176.215C73.1405 174.914 73.1405 173.677 73.1405 172.376H68.8456C68.4553 172.376 68.1302 172.05 68.1302 171.66V168.081C68.1302 167.69 68.4553 167.365 68.8456 167.365H73.1405C73.1405 166.064 73.1405 164.762 73.1405 163.461C66.373 163.461 59.6056 163.461 52.8381 163.461C52.2524 163.461 50.04 163.135 49.8448 162.029C49.6495 160.663 49.7146 159.166 50.105 157.605C50.3002 156.954 51.2764 156.629 52.9682 156.629C59.6708 156.629 66.4382 156.629 73.1405 156.629C73.1405 155.392 73.1405 154.09 73.1405 152.854H65.1365C60.9719 152.854 56.7424 152.854 52.5778 152.854C51.862 152.854 50.1701 152.724 50.04 151.878C49.7797 150.642 49.5194 149.015 49.7797 147.453C49.9749 146.347 52.1222 145.957 52.773 145.957C59.5405 145.957 66.3079 145.957 73.0753 145.957C73.0753 144.72 73.0753 143.484 73.0753 142.182H66.373C66.373 142.182 65.9176 142.052 65.7873 141.857C65.657 141.662 65.657 141.402 65.7222 141.206C69.5616 131.706 69.4313 121.685 65.2668 112.9C61.2325 104.375 53.5538 97.7383 44.8342 95.0703C41.5806 94.0943 38.1969 93.5737 34.8131 93.5737C19.9116 93.5737 6.89721 103.074 2.5374 117.195C-0.260697 126.11 0.520167 134.764 4.68478 142.768C10.281 153.375 19.391 159.622 31.8198 161.183C32.1452 161.183 32.4705 161.509 32.4705 161.899V176.475C32.4705 176.866 32.1452 177.191 31.7548 177.191C31.4944 177.191 31.2341 177.191 30.9738 177.191C30.7786 177.191 30.5834 177.191 30.3882 177.191C30.128 177.191 29.9978 177.191 29.8026 177.191C29.4121 177.321 29.0217 177.386 28.6313 177.386C27.1997 177.386 26.2236 176.541 25.4428 175.759C22.3844 172.766 19.0006 171.27 15.2915 171.27C13.5346 171.27 11.7125 171.595 9.82544 172.311C4.1642 174.393 0.455095 179.664 0.520167 185.52C0.520167 187.342 0.975672 189.165 1.30103 190.661C1.43118 191.182 1.56132 191.702 1.62639 192.093C1.62639 192.223 1.62639 192.418 1.62639 192.548L0.324951 195.216V196.582C0.975672 197.623 1.95175 197.819 3.38334 197.819C44.1835 197.819 84.9839 197.819 125.849 197.819H173.221C173.221 197.819 173.547 197.819 173.742 197.819C174.913 197.689 175.434 197.103 175.499 196.062C175.499 195.021 174.978 194.37 173.872 194.11C173.547 194.11 173.221 194.045 172.831 194.045C172.635 194.045 172.375 194.045 172.115 194.045C171.855 194.045 171.659 193.85 171.53 193.654C171.399 193.394 171.464 193.134 171.53 192.938C174.783 188.188 175.303 182.982 175.108 176.605C174.783 166.194 172.7 156.043 169.056 146.542C167.56 142.638 165.673 138.538 162.419 135.35C160.532 133.528 158.58 132.682 156.628 132.682C154.676 132.682 152.659 133.593 150.771 135.48C149.991 136.261 149.275 137.107 148.624 137.953C148.299 138.343 147.974 138.734 147.713 139.059C147.583 139.189 147.388 139.319 147.192 139.319C147.192 139.319 146.802 139.254 146.672 139.059C146.282 138.603 145.826 138.148 145.435 137.627C144.524 136.586 143.614 135.545 142.572 134.634C141.011 133.267 139.319 132.551 137.562 132.551C135.805 132.551 134.178 133.267 132.682 134.569C131.51 135.545 129.883 137.042 129.102 138.734C127.866 141.337 126.174 142.378 123.441 142.443C123.702 143.744 124.157 145.046 124.743 146.347C125.198 146.477 125.588 146.737 125.719 147.128L125.328 146.933ZM51.6668 167.235C52.9682 167.235 54.3347 167.235 55.6361 167.235H63.3799C63.7702 167.235 64.0953 167.561 64.0953 167.951V171.79C64.0953 172.181 63.7702 172.506 63.3799 172.506H47.0466C42.4916 172.506 40.7997 174.067 40.6045 178.558C40.6045 178.688 40.6045 178.883 40.5394 179.143C40.5394 179.403 40.2792 179.599 40.084 179.664C39.4983 179.859 38.9126 179.989 38.4572 179.989C37.416 179.989 36.1796 179.469 36.1796 176.996C36.1796 173.612 36.1796 161.899 36.1796 161.899C36.1796 161.574 36.4399 161.249 36.7653 161.183L44.7041 159.687C44.7041 159.687 44.7691 159.687 44.8342 159.687C44.9644 159.687 45.1596 159.687 45.2246 159.817C45.3548 159.947 45.4849 160.077 45.4849 160.273L45.6801 161.834C46.0706 165.087 48.3481 167.105 51.6017 167.17L51.6668 167.235ZM32.2102 156.889C32.2102 156.889 31.8849 157.084 31.7548 157.084C19.7164 156.433 8.45892 146.607 5.53071 134.309C3.57855 126.175 4.94506 117.91 9.43504 111.013C13.925 103.985 21.0829 99.2349 29.4772 97.608C31.2341 97.2829 33.1212 97.0874 34.8782 97.0874C49.6496 97.0874 62.4039 108.215 64.4862 122.921C65.3319 128.907 64.4862 134.829 61.753 140.425C61.2325 141.597 60.4513 142.052 59.1502 142.052C57.9788 142.052 56.8074 142.052 55.6361 142.052C54.3998 142.052 53.1634 142.052 51.927 142.052C48.1529 142.052 45.8103 144.46 45.7452 148.169C45.7452 149.47 45.8753 150.902 46.0706 152.334C46.1356 153.049 46.2007 153.83 46.3309 154.611C46.3309 154.937 46.1356 155.262 45.8103 155.392C43.5328 155.913 37.1557 157.474 37.1557 157.474C37.1557 157.474 37.0256 157.474 36.9605 157.474C36.8304 157.474 36.6352 157.474 36.505 157.344C36.3098 157.214 36.2447 157.019 36.2447 156.758V150.251C36.2447 146.152 36.2447 142.052 36.2447 138.018C36.2447 136.456 36.7002 135.285 37.8715 134.178C39.8888 132.291 41.8409 130.274 43.728 128.387L44.9644 127.151C46.1356 125.979 46.2658 124.938 45.4849 124.093C45.0945 123.702 44.7041 123.507 44.2485 123.507C43.6629 123.507 43.0122 123.897 42.2964 124.548C41.2552 125.589 40.2141 126.63 39.1078 127.801L37.5461 129.428C37.5461 129.428 37.2208 129.623 37.0256 129.623C36.9605 129.623 36.8304 129.623 36.7653 129.623C36.505 129.493 36.3098 129.233 36.3098 128.973V127.216C36.3098 125.654 36.3098 124.287 36.3098 122.986C36.3098 120.643 35.3337 120.318 34.4227 120.318C33.9021 120.318 32.5356 120.318 32.5356 123.051C32.5356 126.175 32.5356 137.693 32.5356 137.693C32.5356 137.953 32.3404 138.213 32.0801 138.343C32.015 138.343 31.8849 138.343 31.8198 138.343C31.6246 138.343 31.4294 138.278 31.2992 138.148L30.4533 137.367C30.4533 137.367 28.6313 135.545 28.2408 135.154C27.7853 134.699 27.3298 134.243 26.8744 133.788C26.1585 133.072 25.5078 132.747 24.8571 132.747C24.4016 132.747 24.0112 132.942 23.6858 133.267C22.8398 134.113 23.0351 135.219 24.2714 136.456C24.792 136.977 25.3777 137.562 25.8982 138.148C27.46 139.71 29.0868 141.402 30.7136 142.898C32.0801 144.134 32.6006 145.436 32.5356 147.323C32.4705 149.47 32.5356 151.618 32.5356 153.7C32.5356 154.611 32.5356 155.522 32.5356 156.433C32.5356 156.629 32.4705 156.823 32.3404 156.954L32.2102 156.889ZM47.0466 190.921C46.8514 192.418 46.396 193.914 43.9232 193.914H43.728C41.2552 193.914 38.7174 193.85 36.2447 193.85C34.683 193.85 33.0562 193.85 31.4944 193.85C29.8676 193.85 28.3059 193.85 26.6791 193.85H17.569C14.7709 193.85 12.0379 193.85 9.17475 193.85C7.87332 193.85 6.89721 193.394 6.05127 192.288C4.29434 189.945 3.57855 187.017 4.03405 184.089C4.48956 181.161 6.05127 178.623 8.45892 176.866C10.3461 175.499 12.4934 174.849 14.7709 174.849C18.2848 174.849 21.6035 176.605 23.6858 179.469C24.9222 181.161 25.1825 181.486 25.7681 181.486C26.2236 181.486 26.8744 181.291 27.9805 181.03C28.7614 180.835 29.4772 180.705 30.193 180.705C32.2753 180.705 34.0973 181.486 35.594 183.047C36.3098 183.763 36.8954 184.089 37.6112 184.089C37.9366 184.089 38.327 184.023 38.7174 183.894C39.1078 183.763 39.4983 183.698 39.8888 183.698C40.6696 183.698 41.3854 184.023 42.1012 184.739C42.7519 185.455 43.8581 185.911 44.7692 186.236C46.5912 186.887 47.372 188.449 47.1117 190.856L47.0466 190.921ZM59.9959 193.003C59.9959 193.394 59.6708 193.719 59.2799 193.719H51.4716C51.0811 193.719 50.7557 193.394 50.7557 193.003V187.212C50.7557 186.822 51.0811 186.497 51.4716 186.497H59.2799C59.6708 186.497 59.9959 186.822 59.9959 187.212V193.003ZM122.205 193.394C122.205 193.394 121.879 193.719 121.619 193.719H117.064C116.674 193.719 116.348 193.394 116.348 193.003V187.277C116.348 187.277 116.543 186.691 116.804 186.626C117.259 186.497 117.65 186.366 118.04 186.366C119.602 186.366 120.058 187.863 120.252 188.383C120.578 189.359 121.034 190.27 121.554 191.247C121.814 191.702 122.075 192.158 122.27 192.678C122.4 192.873 122.335 193.134 122.27 193.394H122.205ZM149.34 143.354C149.6 142.963 149.86 142.507 150.186 142.117C151.227 140.49 152.333 138.863 153.635 137.432C154.48 136.521 155.456 136.001 156.432 136.001C157.409 136.001 158.385 136.521 159.231 137.497C161.183 139.71 162.744 141.987 163.851 144.069C166.779 149.991 168.731 156.629 170.163 165.673C171.009 170.879 171.724 176.996 170.879 183.178C170.748 184.089 170.618 184.935 170.423 185.65C169.317 190.141 166.779 192.418 162.224 193.003C161.248 193.134 160.272 193.134 159.296 193.134C159.296 193.134 157.409 193.134 156.628 193.134H153.179C153.179 193.134 152.659 193.003 152.528 192.809C152.398 192.613 152.398 192.288 152.528 192.093C156.303 185.52 156.042 178.623 155.391 170.944C154.611 161.964 152.594 153.31 149.34 145.241C149.21 144.981 148.884 143.939 149.34 143.289V143.354Z" fill="currentColor"/>
<path d="M100.797 142.052C99.9502 142.052 99.1697 142.052 98.3234 142.052C98.0634 142.052 97.868 142.052 97.6731 142.182C97.6731 143.354 97.6731 144.525 97.6731 145.761C97.868 145.761 98.1285 145.826 98.3234 145.826H98.7794H105.807C105.807 144.59 105.807 143.354 105.807 142.052C105.417 142.052 104.961 142.052 104.571 142.052H100.862H100.797Z" fill="currentColor"/>
<path d="M224.043 48.9993H253.846V52.9036C253.846 52.9036 253.846 78.2166 253.846 108.345C254.822 108.215 255.799 108.085 256.775 108.019C256.775 95.5257 256.775 83.032 256.775 70.5383V49.5849L257.751 49.2596C260.549 48.2834 260.484 47.6978 260.419 47.1772C260.354 46.4614 260.288 46.071 255.603 45.8107H254.172V44.3141C254.367 38.3274 254.172 33.9025 249.551 31.1695L248.706 30.2585L249.161 28.6968V28.5666C252.284 22.5149 251.829 19.9121 246.948 15.2269C246.363 14.6412 245.712 14.0556 245.127 13.535C244.02 12.5589 242.979 11.5828 241.938 10.4766C240.962 9.37041 240.572 7.87372 240.442 7.02778C240.246 5.59621 240.311 4.09955 240.442 2.86319C240.507 1.49667 240.246 0.650734 239.531 1.68435e-05H238.229C237.448 0.780883 237.253 1.82203 237.448 3.38376C238.099 7.48332 236.732 10.6068 233.283 13.0795C232.047 13.9905 231.006 15.0968 229.835 16.3331L229.054 17.179C226.321 20.1073 225.93 23.3609 227.818 27.2001L229.51 30.3236L228.338 31.0394C223.848 33.8375 223.198 38.0021 223.718 44.3141L223.848 45.8758H219.423C218.577 45.8758 217.536 46.1361 217.471 47.3074C217.471 47.5677 217.471 48.4787 219.228 48.8691L221.05 49.2596V57.2634H207.775C207.45 57.2634 207.059 57.2634 206.734 57.2634C205.758 57.4589 205.368 57.9143 205.368 58.8252C205.368 59.6057 205.954 60.1263 206.864 60.1263C208.621 60.1263 210.378 60.1263 212.135 60.1263H220.92V76.0692H213.371V73.5314C213.371 72.7503 213.371 71.9697 213.371 71.2537C213.371 70.4732 213.111 69.5623 211.94 69.4972C210.703 69.4972 210.508 70.668 210.508 71.1886C210.508 71.9046 210.508 72.6206 210.508 73.4012V76.004H203.351V73.4663C203.351 72.6857 203.351 71.9046 203.351 71.1886C203.351 70.6034 203.09 69.5623 201.919 69.4972C200.683 69.4972 200.487 70.6034 200.422 71.124C200.422 71.5143 200.422 71.9046 200.422 72.2297V76.004H193.199V73.4012C193.199 72.6206 193.199 71.8394 193.199 71.0589C193.199 70.0829 192.614 69.432 191.768 69.432C190.531 69.432 190.336 70.6034 190.336 71.0589C190.336 71.8394 190.336 72.5554 190.336 73.4012V76.004H184.089V59.9966H190.206C191.312 59.9966 192.418 59.9966 193.524 59.9314C194.175 59.9314 195.086 59.4109 195.412 58.9554C195.607 58.6297 195.672 58.3046 195.477 57.9794C195.282 57.5886 194.696 57.1333 193.785 57.0682C192.744 57.0682 191.703 57.0682 190.727 57.0682H185.651L184.479 56.873L184.154 55.8318C183.894 55.0509 183.243 52.9036 185.911 51.9926C186.562 51.7973 186.757 51.2768 186.627 50.4959C186.497 49.9753 186.236 49.3897 185.13 49.3246C184.805 49.3246 184.415 49.3246 184.024 49.3246H180.315L180.38 47.828C180.64 42.0365 180.51 37.4164 175.825 34.6184L175.109 33.9676V33.1868V32.536L175.304 32.2106C178.493 25.9637 178.103 23.426 172.767 18.2853C172.571 18.0901 172.376 17.8948 172.246 17.8297C167.561 14.6412 165.674 10.5417 166.52 5.27085C166.585 4.6852 166.52 4.2297 166.194 3.90434C165.934 3.57898 165.544 3.44883 165.023 3.44883C164.112 3.44883 163.656 4.2297 163.591 5.46607C164.567 10.4116 162.746 14.5111 158.255 17.6345C157.41 18.2202 156.694 19.0661 155.913 19.9121L155.197 20.6929C152.529 23.6212 152.139 26.8097 153.961 30.5838C154.156 30.9743 155.718 33.8374 155.718 33.8374L154.547 34.5533C150.056 37.2212 149.406 41.4509 149.926 47.828L150.056 49.3897H145.371C144.135 49.3897 143.875 50.0404 143.744 50.561C143.614 51.0816 143.614 51.6021 144.851 52.383C145.502 52.7734 145.827 53.3591 146.217 54.0098C146.347 54.2701 146.543 54.5304 146.738 54.7906L148.299 57.0682H109.191V49.4548L110.167 49.1294C112.9 48.2184 112.77 47.5677 112.705 47.2423C112.445 46.006 112.054 45.8107 110.232 45.8107H109.451C108.931 45.8107 108.41 45.8107 107.89 45.7457L106.588 45.5504V44.249C106.848 38.2624 106.588 33.8375 102.034 31.1045L101.318 30.4537V29.0872L101.513 28.7618C105.222 22.2546 103.725 19.1962 98.3895 14.2508C93.7038 11.1273 91.817 6.96275 92.5981 1.69189C92.5981 1.4316 92.1421 0.780883 91.8821 0.325377C91.817 0.195233 91.6867 1.68435e-05 91.6215 -0.130127H90.6455C90.0598 0.390449 89.5392 1.17131 89.7998 2.79811C90.5158 7.28807 89.0187 10.7369 85.245 13.3398C84.0084 14.1857 82.9021 15.4221 81.7958 16.7236L81.2101 17.3742C78.7375 20.1073 78.3472 23.2308 80.0392 26.8097L81.7958 30.3886L80.6244 31.1045C75.8095 34.0327 75.6793 38.6528 76.0044 44.3792V45.9409H71.7095C69.953 45.9409 69.8227 46.9169 69.7575 47.2423C69.7575 47.5677 69.6272 48.4787 71.5147 48.9342L73.4015 49.3897V76.3297C73.4015 98.2589 73.4015 120.188 73.4015 142.117H76.3301C76.3301 98.2589 76.3301 49.0643 76.3301 49.0643H106.133V53.1638C106.133 53.1638 106.133 99.9509 106.133 142.117C107.109 142.117 108.085 142.117 109.061 142.117C109.061 128.973 109.061 115.828 109.061 102.683V79.5183H221.44V95.1354C221.44 105.482 221.44 115.828 221.44 126.175C222.351 125.003 223.327 123.832 224.368 122.726C224.368 84.9189 224.368 49.0643 224.368 49.0643L224.043 48.9993ZM230.876 19.5867L237.643 12.1034H240.246L242.524 14.6412C243.89 16.2029 245.192 17.6996 246.623 19.1962C248.38 21.1484 248.706 23.426 247.274 26.159C246.428 27.7207 245.322 29.8681 242.459 29.8681C242.198 29.8681 241.938 29.8681 241.613 29.8681C240.702 29.738 239.791 29.6729 238.88 29.6729C237.969 29.6729 236.928 29.6729 236.016 29.8681C235.756 29.8681 235.561 29.8681 235.301 29.8681C232.633 29.8681 231.592 27.9159 230.616 26.0939C230.095 25.1829 228.534 22.2546 230.941 19.5867H230.876ZM226.776 38.1322C227.167 35.1389 229.51 32.9916 232.568 32.8614C234.78 32.7963 236.992 32.7313 239.14 32.7313C241.157 32.7313 243.239 32.7313 245.257 32.8614C248.575 32.9916 251.113 35.6595 251.243 39.1083C251.243 40.2796 251.243 41.4509 251.243 42.6873V45.8107H240.767L240.572 44.5744C240.507 44.0538 240.442 43.4681 240.442 42.8825C240.376 40.67 240.181 40.4748 238.88 40.4748C237.708 40.4748 237.578 40.605 237.513 42.8174C237.513 43.4681 237.513 44.0538 237.383 44.6394L237.188 45.8107H226.776V44.3792C226.776 43.7935 226.776 43.1428 226.776 42.5571C226.776 41.1256 226.711 39.6289 226.907 38.1322H226.776ZM82.837 19.6518C84.3335 18.025 85.8301 16.3982 87.5872 14.5761L90.9712 10.9972L94.2895 14.5761C95.9815 16.3982 97.5432 18.0901 99.105 19.7819C101.383 22.3197 99.8861 25.248 99.105 26.5494C98.3244 27.981 97.3484 29.8681 94.6152 29.8681H93.9644C92.9884 29.738 91.9472 29.6729 90.9712 29.6729C89.9952 29.6729 88.889 29.6729 87.913 29.8681H87.3272C84.6592 29.8681 83.6181 27.981 82.7067 26.2241C82.1215 25.1829 80.5598 22.3197 82.9021 19.7169L82.837 19.6518ZM103.27 45.8107H92.7278L92.4678 44.6394C92.3375 44.0538 92.3375 43.4681 92.3375 42.8174C92.2724 40.7351 92.1421 40.4748 90.6455 40.4097C90.0598 40.4097 89.6695 40.4097 89.2793 44.5093L89.149 45.8107H78.6072V42.6222C78.6072 41.2557 78.5421 39.9542 78.6072 38.5877C78.8678 35.4643 81.3404 32.9916 84.4638 32.8614C86.6764 32.7963 88.889 32.7313 91.1661 32.7313C93.1832 32.7313 95.201 32.7313 97.2181 32.8614C100.602 32.9916 103.075 35.6595 103.27 39.3035C103.27 40.4097 103.27 41.581 103.27 42.7524V45.8107ZM145.892 76.1994H139.71V73.7269C139.71 73.0109 139.71 72.2949 139.71 71.5794C139.71 70.7332 139.384 69.692 138.214 69.692C137.107 69.692 136.847 70.7332 136.782 71.5794C136.782 72.2949 136.782 76.1994 136.782 76.1994H129.559V73.6617C129.559 72.8806 129.559 72.1652 129.559 71.384C129.559 70.8634 129.363 69.692 127.997 69.692C126.891 69.692 126.631 70.668 126.631 71.4492C126.631 72.1652 126.631 72.8806 126.631 73.6617V76.1343C126.631 76.1343 123.702 76.3297 123.182 76.3297H119.407V73.6617C119.407 72.8806 119.407 72.1652 119.407 71.4492C119.407 70.2777 118.887 69.6269 117.911 69.6269C116.74 69.6269 116.479 70.6034 116.479 71.4492C116.479 72.1652 116.479 72.8806 116.479 73.6617V76.1994H108.866V60.2566H145.892V76.1343V76.1994ZM156.824 23.2958C158.32 21.604 159.882 19.9772 161.444 18.2202L164.567 14.8364L168.016 18.2202C169.773 19.9121 171.335 21.4738 172.897 23.0355C174.588 24.7925 174.719 27.0049 173.157 29.9332C172.376 31.4298 171.335 33.447 168.537 33.447C168.342 33.447 168.082 33.447 167.821 33.447C166.845 33.3169 165.869 33.2518 164.893 33.2518C163.917 33.2518 162.876 33.2518 161.899 33.447H161.249C158.581 33.447 157.605 31.56 156.629 29.803C156.043 28.7618 154.482 25.8987 156.759 23.2958H156.824ZM152.659 42.1667C152.92 38.9131 155.588 36.4404 158.906 36.3753C160.923 36.3753 163.006 36.3753 165.023 36.3753C167.04 36.3753 168.992 36.3753 171.01 36.4404C174.394 36.5054 176.996 39.0432 177.256 42.4921C177.322 43.7284 177.322 44.9648 177.256 46.2662V49.3897H166.78L166.585 48.2184C166.52 47.6978 166.455 47.1122 166.455 46.5916C166.324 44.5093 166.259 44.1839 164.698 44.1189C164.242 44.1189 163.787 44.1189 163.331 48.2184L163.201 49.5198H152.659V46.3313C152.659 44.9648 152.594 43.5983 152.659 42.2968V42.1667ZM169.513 76.2646H160.403V74.8326C160.403 74.312 160.403 73.7914 160.403 73.2709C160.403 72.0349 160.338 70.7332 160.533 69.432C160.858 67.2846 162.615 65.9177 164.893 65.9177H165.088C167.561 65.9829 169.252 67.5446 169.513 69.8874C169.643 70.9937 169.578 72.1 169.578 73.2709V76.2646H169.513ZM180.835 76.1994H172.506V73.2709C172.506 72.2297 172.506 71.2537 172.506 70.2777C172.311 66.1132 169.058 62.9897 164.893 62.9897H164.828C160.728 62.9897 157.54 66.1783 157.344 70.2777C157.344 71.2537 157.344 72.2297 157.344 73.2709V76.1994H149.015C149.015 76.1994 149.015 59.0852 149.015 56.873C149.015 53.8797 150.447 52.4481 153.31 52.4481H163.526H176.476C179.144 52.4481 180.771 53.8797 180.771 56.3524C180.771 60.7772 180.771 65.1372 180.771 69.6269V76.2646L180.835 76.1994Z" fill="currentColor"/>
<path d="M253.845 116.154C254.821 116.023 255.797 115.893 256.773 115.828C256.773 114.397 256.773 112.965 256.773 111.598C255.797 111.598 254.821 111.729 253.845 111.859C253.845 113.29 253.845 114.722 253.845 116.154Z" fill="currentColor"/>
<path d="M106.654 196.457H107.892C108.479 195.87 108.674 195.088 108.739 193.719H105.806C105.806 194.958 106.002 195.805 106.654 196.457Z" fill="currentColor"/>
<path d="M105.742 182.722C105.742 184.023 105.742 185.325 105.742 186.562H108.735C108.735 185.26 108.735 184.023 108.735 182.722H105.742Z" fill="currentColor"/>
<path d="M73.9234 196.457H75.0314C75.7485 196.001 76.0091 195.284 76.0091 193.719H73.0759C73.0759 195.088 73.3371 195.87 73.9885 196.457H73.9234Z" fill="currentColor"/>
<path d="M73.9222 145.826H76.0045C76.0045 144.59 76.0045 143.354 76.0045 142.052H73.0759C73.0759 143.289 73.0759 144.525 73.0759 145.826C73.4016 145.826 73.6616 145.826 73.9874 145.826H73.9222Z" fill="currentColor"/>
<path d="M105.806 145.826H108.735C108.735 144.59 108.735 143.289 108.735 142.052C107.758 142.052 106.782 142.052 105.806 142.052C105.806 143.289 105.806 144.59 105.806 145.826Z" fill="currentColor"/>
<path d="M76.0039 152.789H73.0107C73.0107 154.025 73.0107 155.327 73.0107 156.563C73.9867 156.563 74.9627 156.563 76.0039 156.563C76.0039 155.327 76.0039 154.09 76.0039 152.789Z" fill="currentColor"/>
<path d="M108.735 156.563C108.735 155.327 108.735 154.025 108.735 152.789H105.742C105.742 154.025 105.742 155.327 105.742 156.563H108.735Z" fill="currentColor"/>
<path d="M76.0039 172.376H73.0107C73.0107 173.677 73.0107 174.914 73.0107 176.215C73.9867 176.215 74.9627 176.215 76.0039 176.215C76.0039 174.979 76.0039 173.677 76.0039 172.376Z" fill="currentColor"/>
<path d="M76.0039 163.461H74.5725C74.0519 163.461 73.5313 163.461 73.0107 163.461C73.0107 164.762 73.0107 166.064 73.0107 167.365H76.0039C76.0039 166.064 76.0039 164.762 76.0039 163.461Z" fill="currentColor"/>
<path d="M105.806 163.461C105.806 164.762 105.806 166.064 105.806 167.365H107.694C108.084 167.365 108.409 167.69 108.409 168.081V171.66C108.409 172.05 108.084 172.376 107.694 172.376H105.806C105.806 173.677 105.806 174.979 105.806 176.215C106.782 176.215 107.758 176.215 108.799 176.215C108.799 171.985 108.799 167.755 108.799 163.461H105.806Z" fill="currentColor"/>
<path d="M76.0039 182.722C75.0279 182.722 73.9867 182.722 73.0107 182.722C73.0107 184.023 73.0107 185.26 73.0107 186.562H76.0039C76.0039 185.325 76.0039 184.023 76.0039 182.722Z" fill="currentColor"/>
<path d="M87.0663 142.117C87.0663 122.595 87.0663 103.139 87.0663 83.6177V69.4972C87.0663 68.9114 87.0663 68.2606 87.0663 67.6749C87.2611 65.6577 88.6931 64.2914 90.4497 64.2914H91.1657C92.5971 64.6166 93.6383 65.9177 94.3543 66.8943C94.8748 67.6749 94.8097 68.5212 94.7445 69.6269V110.427C94.7445 110.948 94.7445 111.534 94.7445 112.054C94.8097 112.9 95.3954 113.486 96.176 113.486C97.0874 113.421 97.5428 112.965 97.608 112.054C97.608 111.859 97.608 111.729 97.608 111.273V68.456C97.608 67.9354 97.608 67.2846 97.4777 66.6337C96.7617 63.5103 94.0286 61.2977 90.9703 61.2977C90.7754 61.2977 90.5148 61.2977 90.3194 61.2977C86.4805 61.7532 84.1377 64.4863 84.1377 68.5212C84.1377 68.5212 84.1377 106.718 84.1377 142.117H87.0011C87.0011 142.117 87.0011 142.117 87.1314 142.117H87.0663Z" fill="currentColor"/>
<path d="M87.1314 186.561H84.1377C84.1377 189.294 84.1377 191.702 84.1377 193.785H87.1314C87.1314 193.785 87.1314 193.654 87.1314 193.589C87.1314 191.246 87.1314 188.904 87.1314 186.561Z" fill="currentColor"/>
<path d="M84.1377 163.461C84.1377 164.762 84.1377 166.064 84.1377 167.365H87.1314C87.1314 166.064 87.1314 164.762 87.1314 163.461H84.1377Z" fill="currentColor"/>
<path d="M87.0669 156.563C87.0669 155.327 87.0669 154.09 87.0669 152.789H84.0737C84.0737 154.025 84.0737 155.327 84.0737 156.563C85.0497 156.563 86.0257 156.563 87.0669 156.563Z" fill="currentColor"/>
<path d="M87.1314 186.562C87.1314 185.26 87.1314 184.023 87.1314 182.722H84.1377C84.1377 184.089 84.1377 185.325 84.1377 186.562H87.1314Z" fill="currentColor"/>
<path d="M87.0669 145.826C87.0669 144.59 87.0669 143.354 87.0669 142.052C87.0669 142.052 87.0669 142.052 86.9366 142.052H84.0737C84.0737 143.289 84.0737 144.525 84.0737 145.826H86.2863H87.0669Z" fill="currentColor"/>
<path d="M84.1389 172.376C84.1389 173.677 84.1389 174.979 84.1389 176.215C84.5943 176.215 85.0497 176.215 85.44 176.215C85.9606 176.215 86.5463 176.215 87.0669 176.215C87.0669 174.914 87.0669 173.677 87.0669 172.376H84.0737H84.1389Z" fill="currentColor"/>
<path d="M84.1389 194.045C84.1389 195.414 84.5297 196.001 85.1166 196.457H86.1594C86.8114 195.935 87.072 195.088 87.072 193.719H84.0737C84.0737 193.719 84.0737 193.915 84.0737 194.045H84.1389Z" fill="currentColor"/>
<path d="M125.524 151.358C125.654 150.511 125.654 149.535 125.524 148.494C125.069 147.714 124.678 146.933 124.353 146.152C123.702 145.957 122.986 145.891 122.791 145.891C122.206 145.891 121.62 145.891 121.099 145.891C121.88 148.039 123.051 150.186 124.548 152.334C125.069 152.138 125.459 151.813 125.589 151.358H125.524Z" fill="currentColor"/>
<path d="M122.92 142.247C122.92 142.247 123.051 142.247 123.116 142.247C122.595 139.645 122.53 136.911 123.051 134.178C123.962 129.103 126.89 125.003 129.688 121.619C135.805 114.201 143.093 107.759 150.056 101.513C153.244 98.7143 156.433 95.8509 159.556 92.9229C160.923 91.6212 162.81 90.9057 164.762 90.9057C166.714 90.9057 168.731 91.6212 170.423 92.9229C171.009 93.3783 171.595 93.964 172.18 94.4846L176.019 97.9983C178.818 100.536 181.616 103.139 184.414 105.677C184.999 106.198 185.585 106.458 186.04 106.458C186.171 106.458 186.691 106.458 187.082 105.742C187.407 105.157 187.537 104.571 186.431 103.53C183.503 100.862 173.351 91.5566 173.351 91.5566C170.814 89.2137 167.886 87.9772 164.957 87.9772C162.029 87.9772 159.036 89.2138 156.433 91.6212L141.271 105.547C135.35 111.013 129.232 116.609 124.678 123.377C120.448 129.623 118.886 135.935 120.058 142.182C120.708 142.182 121.424 142.182 122.075 142.247C122.4 142.247 122.66 142.247 122.92 142.247Z" fill="currentColor"/>
<path d="M124.613 186.431C124.613 186.431 124.157 186.561 124.027 186.691C123.897 186.887 123.832 187.082 123.897 187.342C124.418 188.969 125.133 190.206 126.174 191.117C126.37 189.555 126.5 187.928 126.76 186.431H124.613Z" fill="currentColor"/>
<path d="M122.791 145.891C122.791 145.891 123.767 145.891 124.353 146.152C123.832 144.85 123.377 143.549 123.051 142.247C123.051 142.247 122.921 142.247 122.856 142.247C122.596 142.247 122.27 142.247 122.01 142.247C121.359 142.247 120.644 142.247 119.993 142.182C120.253 143.419 120.579 144.72 121.034 145.957C121.62 145.957 122.206 145.957 122.726 145.957L122.791 145.891Z" fill="currentColor"/>
<path d="M124.092 186.757C124.092 186.757 124.418 186.497 124.678 186.497H126.825C127.086 185.195 127.541 184.023 127.866 182.722C127.541 182.722 127.215 182.722 126.825 182.722C126.109 182.722 125.459 182.722 124.743 182.722C123.897 185.976 123.246 189.555 122.921 193.524C122.791 195.086 122.986 195.867 123.767 196.518H124.808C125.394 196.127 125.784 195.477 125.849 194.24C125.849 193.199 126.109 192.223 126.239 191.182C125.263 190.271 124.482 189.034 123.962 187.407C123.897 187.212 123.962 186.952 124.092 186.757Z" fill="currentColor"/>
<path d="M124.548 152.269C124.808 152.659 125.003 152.984 125.264 153.375C126.5 155.002 127.996 156.433 129.494 157.865C129.363 157.084 129.168 156.368 128.778 155.652C128.517 155.131 128.452 154.351 128.778 153.765C128.843 153.57 128.908 153.44 128.973 153.245C127.606 151.683 126.5 150.056 125.589 148.429C125.719 149.47 125.719 150.446 125.589 151.293C125.524 151.748 125.068 152.008 124.548 152.269Z" fill="currentColor"/>
<path d="M128.452 176.215C128.973 176.215 129.689 176.345 130.144 176.735C130.73 175.565 131.251 174.328 131.966 173.222C131.251 172.831 130.47 172.506 129.494 172.506C129.298 172.506 129.168 172.506 128.973 172.506C128.257 173.677 127.542 174.914 126.956 176.215C127.476 176.215 127.932 176.215 128.452 176.215Z" fill="currentColor"/>
<path d="M198.794 159.491C200.551 157.865 202.438 156.173 203.935 154.286C208.88 148.169 210.898 141.662 209.922 134.829C208.62 125.914 202.894 119.537 195.996 112.639C195.801 112.445 195.606 112.314 195.346 112.314C195.02 112.314 194.63 112.51 194.304 112.835C193.654 113.421 193.654 114.006 194.174 114.787C194.499 115.178 194.825 115.568 195.215 115.893C195.606 116.349 196.061 116.739 196.387 117.195C197.102 118.171 197.883 119.082 198.664 120.058C200.681 122.595 202.763 125.198 204.52 127.997C207.579 132.747 208.099 138.278 206.082 144.395C204.455 149.405 201.332 153.7 196.256 157.93C192.092 161.379 191.766 165.348 195.28 169.643C196.907 171.66 198.404 173.938 199.705 176.345C202.243 181.226 203.61 186.952 204 194.175C204.065 195.411 204.455 196.062 205.041 196.453H205.822C205.822 196.453 206.017 196.192 206.147 195.997C206.407 195.606 206.928 194.956 206.928 194.761C206.472 183.178 203.479 174.588 197.492 167.561C195.15 164.762 195.28 162.68 198.078 160.142L198.794 159.491Z" fill="currentColor"/>
<path d="M97.673 152.789C97.673 150.446 97.673 148.104 97.673 145.761C96.8918 145.631 96.1758 145.175 96.1758 144.005C96.1758 143.093 96.7615 142.443 97.673 142.247V125.784C97.673 125.459 97.673 125.134 97.673 124.938C97.4775 124.093 97.0872 123.702 96.1758 123.702C95.7204 123.702 95.0701 123.832 94.8095 124.873C94.7444 125.198 94.7444 125.654 94.7444 126.435V144.33C94.7444 147.193 94.7444 150.056 94.7444 152.919H95.0701C95.9158 152.919 96.8267 152.919 97.673 152.919V152.789Z" fill="currentColor"/>
<path d="M94.6787 193.785C94.6787 195.153 94.9399 195.87 95.657 196.457H96.6999C97.4164 195.935 97.6776 195.153 97.6776 193.85L94.6787 193.785Z" fill="currentColor"/>
<path d="M97.6724 186.562C97.6724 185.26 97.6724 184.023 97.6724 182.722H94.6787C94.6787 184.023 94.6787 185.26 94.6787 186.562H97.6724Z" fill="currentColor"/>
<path d="M97.673 156.563C97.673 155.327 97.673 154.025 97.673 152.789C96.8267 152.789 95.9158 152.789 95.0701 152.789H94.7444C94.7444 154.025 94.7444 155.262 94.7444 156.563C95.7204 156.563 96.697 156.563 97.673 156.563Z" fill="currentColor"/>
<path d="M94.7444 163.461C94.7444 164.762 94.7444 166.064 94.7444 167.365H97.7381C97.7381 166.064 97.7381 164.762 97.7381 163.461H94.7444Z" fill="currentColor"/>
<path d="M96.1758 144.005C96.1758 145.175 96.8918 145.631 97.6724 145.761C97.6724 144.59 97.6724 143.419 97.6724 142.182C96.7615 142.378 96.1758 143.029 96.1758 143.939V144.005Z" fill="currentColor"/>
<path d="M94.7444 172.376C94.7444 173.677 94.7444 174.914 94.7444 176.215C95.7204 176.215 96.7615 176.215 97.7381 176.215C97.7381 174.914 97.7381 173.677 97.7381 172.376H94.7444Z" fill="currentColor"/>
<path d="M209.921 113.095C210.311 113.095 210.767 113.03 211.158 112.835C212.068 112.51 213.305 111.729 213.305 109.256C213.305 103.009 213.305 96.8269 213.305 90.58C213.305 87.8475 212.068 86.676 209.335 86.676H199.835H194.108C192.742 86.676 191.376 86.676 190.009 86.8063C188.903 86.8709 187.602 87.4566 186.886 88.2377C186.365 88.7583 186.105 89.344 186.105 89.9943C186.105 90.9709 186.755 92.1417 187.862 93.1829C194.304 99.3652 200.746 105.612 207.188 111.794C208.099 112.705 208.945 113.095 209.856 113.095H209.921ZM210.247 89.7995V110.037L188.903 89.7995H210.247Z" fill="currentColor"/>
<path d="M139.124 86.7412H126.89C126.89 86.7412 121.424 86.7412 120.058 86.7412C117.78 86.7412 116.479 88.0424 116.479 90.3201C116.479 94.8749 116.479 99.4303 116.479 103.985V109.581C116.479 111.208 117.13 112.184 118.561 112.835C119.016 113.03 119.472 113.16 119.862 113.16C120.774 113.16 121.619 112.77 122.4 111.924C122.791 111.533 123.181 111.078 123.571 110.687C124.092 110.102 124.612 109.451 125.198 108.93C130.599 103.79 136 98.6492 141.466 93.5738C143.614 91.5566 143.809 90.3852 143.288 89.0184C142.768 87.5869 141.922 86.8064 139.059 86.8064L139.124 86.7412ZM119.602 110.037V89.7995H140.88L119.602 110.037Z" fill="currentColor"/>
<path d="M253.846 111.794C253.846 110.687 253.846 109.516 253.846 108.41C251.048 108.735 248.25 109.256 245.387 110.102C236.732 112.705 229.639 116.934 224.043 122.726C224.043 124.613 224.043 126.435 224.043 128.322C225.279 126.825 226.58 125.394 228.077 123.962C235.366 117.13 244.475 113.03 253.846 111.859V111.794Z" fill="currentColor"/>
<path d="M221.961 196.453C221.571 196.062 221.375 195.541 221.245 194.891C220.009 194.891 218.838 194.891 217.601 194.891C216.755 194.891 216.495 194.63 216.495 193.785C216.495 189.88 216.17 190.401 219.749 190.401H221.05C221.05 187.603 221.05 184.739 221.05 181.941C220.074 180.51 219.163 179.013 218.317 177.451C215.519 172.311 214.218 166.714 213.632 160.923C213.502 159.752 212.786 159.166 211.745 159.231C210.769 159.361 210.118 160.142 210.248 161.314C210.964 169.708 213.632 177.451 218.317 184.414C218.838 185.195 219.358 185.911 220.009 186.822C219.098 186.822 218.447 186.822 217.731 186.822C214.803 186.822 213.046 188.579 212.981 191.572C212.981 192.678 212.981 193.785 212.981 194.956C212.656 195.021 214.738 198.274 215.519 198.209C219.489 198.209 223.523 198.209 227.492 198.209C227.883 198.209 228.273 198.209 228.663 198.209C229.574 198.079 230.03 197.494 230.095 196.647C230.16 195.802 229.77 195.151 228.924 194.891C228.468 194.761 228.013 194.761 227.557 194.761C226.321 194.761 225.085 194.761 223.848 194.761C223.718 195.346 223.523 195.867 223.133 196.322H221.896L221.961 196.453Z" fill="currentColor"/>
<path d="M253.325 186.887C253.325 186.887 253.65 186.561 253.845 186.366V186.171H253.325C253.325 186.171 253.65 185.846 253.845 185.715C253.845 184.154 253.845 182.462 253.845 180.77C252.023 182.592 250.136 184.414 248.314 186.171C245.906 183.763 243.303 181.161 240.766 178.687C240.896 178.558 241.026 178.427 241.156 178.297C241.026 178.167 240.961 178.102 240.831 177.972C243.369 175.434 245.906 172.896 248.509 170.293C250.266 172.05 252.023 173.807 253.845 175.629C253.845 174.133 253.845 172.571 253.845 170.944C252.934 170.033 252.023 169.122 251.112 168.276C251.242 168.146 251.373 168.016 251.502 167.886C251.373 167.755 251.307 167.69 251.177 167.561C252.088 166.649 252.999 165.738 253.845 164.893C253.845 163.396 253.845 161.899 253.845 160.402C252.088 162.225 250.266 163.981 248.574 165.738C245.971 163.135 243.434 160.598 240.896 158.06C241.026 157.93 241.156 157.799 241.286 157.67C241.156 157.539 241.091 157.474 240.961 157.344C243.434 154.871 245.971 152.334 248.509 149.861C250.266 151.618 252.088 153.44 253.91 155.262C253.91 153.7 253.91 152.073 253.91 150.446C252.999 149.535 252.153 148.625 251.242 147.713C251.373 147.583 251.502 147.453 251.633 147.323C251.502 147.193 251.437 147.128 251.307 146.998C252.153 146.151 253.064 145.241 253.91 144.395C253.91 142.833 253.91 141.206 253.91 139.579C252.088 141.402 250.201 143.223 248.314 145.046C245.906 142.638 243.369 140.1 240.896 137.562C241.026 137.432 241.156 137.302 241.286 137.172C241.156 137.042 241.091 136.977 240.961 136.846C243.499 134.309 246.037 131.771 248.574 129.233C250.331 130.99 252.153 132.812 253.91 134.634C253.91 133.007 253.91 131.446 253.91 129.819C252.999 128.907 252.153 128.062 251.242 127.151C251.373 127.021 251.502 126.89 251.633 126.76C251.502 126.63 251.437 126.565 251.307 126.435C252.153 125.589 253.064 124.678 253.91 123.832C253.91 121.294 253.91 118.757 253.91 116.283C250.201 116.804 246.557 117.781 242.848 119.407C234.649 122.986 228.337 128.713 224.107 135.545C224.107 139.059 224.107 142.573 224.107 146.022C224.498 146.412 224.888 146.867 225.213 147.193C225.083 147.323 224.953 147.453 224.823 147.583C224.953 147.713 225.018 147.843 225.149 147.909C224.823 148.234 224.433 148.625 224.107 148.95C224.107 150.446 224.107 151.943 224.107 153.44C225.343 152.203 226.58 150.967 227.816 149.731C230.484 152.399 233.022 155.002 235.495 157.474C235.365 157.605 235.234 157.734 235.105 157.865C235.234 157.995 235.365 158.125 235.43 158.19C232.892 160.728 230.354 163.266 227.556 165.999C226.645 165.023 225.539 163.917 224.498 162.81C224.367 162.68 224.237 162.485 224.107 162.355C224.107 163.851 224.107 165.348 224.107 166.779C224.498 167.17 224.823 167.561 225.278 168.016C225.149 168.146 225.018 168.276 224.888 168.406C225.018 168.537 225.083 168.602 225.213 168.731C224.888 169.057 224.563 169.382 224.107 169.838C224.107 173.157 224.107 176.28 224.107 179.338C225.604 181.746 227.361 184.154 229.443 186.301C229.638 186.497 229.834 186.757 230.159 187.212C228.402 187.212 226.905 187.212 225.409 187.212C224.953 187.212 224.367 186.952 224.107 186.561C224.107 187.993 224.107 189.359 224.107 190.661C234.063 190.661 243.954 190.661 253.91 190.661C253.91 189.555 253.91 188.318 253.91 187.147H253.39L253.325 186.887ZM245.581 120.969C248.119 120.253 250.526 119.602 252.934 118.951C252.609 119.277 252.283 119.602 251.958 119.927C252.283 119.863 252.609 119.733 252.869 119.667C251.242 121.294 249.746 122.791 248.249 124.287C247.533 123.572 246.622 122.726 245.516 121.685C245.711 121.685 245.906 121.554 246.167 121.489C245.971 121.294 245.776 121.164 245.581 120.969ZM233.087 128.713C235.95 126.695 238.943 124.548 241.807 122.53C243.238 123.962 244.475 125.198 245.646 126.37C245.516 126.5 245.386 126.63 245.255 126.76C245.386 126.89 245.516 127.021 245.581 127.086C243.173 129.493 240.57 132.096 238.098 134.504C236.601 133.007 234.909 131.315 232.957 129.428C233.087 129.298 233.282 129.233 233.413 129.103C233.282 128.973 233.152 128.842 233.022 128.713H233.087ZM227.686 144.981C226.71 144.069 225.669 142.963 224.302 141.662C224.433 141.531 224.498 141.337 224.628 141.206C224.563 141.141 224.498 141.076 224.367 140.946C226.319 137.822 228.337 134.699 230.354 131.51C232.241 133.398 233.868 135.025 235.43 136.586C235.299 136.716 235.169 136.846 235.039 136.977C235.169 137.107 235.299 137.237 235.365 137.302C232.827 139.84 230.224 142.443 227.621 144.981H227.686ZM230.484 147.778C230.484 147.778 230.745 147.518 230.875 147.388C230.745 147.258 230.679 147.193 230.549 147.063C233.087 144.525 235.69 141.987 238.228 139.449C240.701 141.922 243.238 144.46 245.776 147.063C245.646 147.193 245.516 147.323 245.386 147.453C245.516 147.583 245.581 147.649 245.711 147.778C243.238 150.251 240.635 152.789 238.033 155.392C235.495 152.854 232.957 150.317 230.419 147.843L230.484 147.778ZM230.549 167.626C233.022 165.153 235.625 162.55 238.098 160.077C240.57 162.55 243.173 165.153 245.646 167.626C245.516 167.755 245.386 167.886 245.255 168.016C245.386 168.146 245.451 168.211 245.581 168.341C243.108 170.749 240.57 173.352 237.967 175.89C235.495 173.417 232.957 170.879 230.419 168.341C230.549 168.211 230.679 168.081 230.81 167.951C230.679 167.821 230.614 167.755 230.484 167.626H230.549ZM225.149 174.067C225.149 174.067 225.149 173.677 225.278 173.417C225.278 173.417 225.278 173.417 225.278 173.352C225.149 173.157 225.278 172.701 225.474 172.506C226.19 171.66 227.035 170.944 227.816 170.163C230.484 172.831 233.022 175.434 235.625 177.972C235.495 178.102 235.365 178.232 235.234 178.362C235.365 178.493 235.495 178.623 235.56 178.687C234.193 180.054 232.762 181.486 231.265 182.917C228.857 180.314 226.84 177.386 225.278 174.133L225.149 174.067ZM243.499 186.952C241.026 186.952 238.358 187.017 235.755 186.952C235.105 186.952 234.454 186.106 233.803 185.715C233.933 185.585 234.063 185.455 234.258 185.26C234.128 185.13 233.998 185.065 233.868 184.935C235.365 183.438 236.796 182.006 238.033 180.77C239.79 182.527 241.677 184.414 243.563 186.236C243.303 186.236 243.043 186.236 242.783 186.236C243.043 186.497 243.238 186.691 243.499 186.952Z" fill="currentColor"/>
<path d="M304.798 188.774C303.302 186.626 301.024 187.017 298.876 186.952C298.876 186.757 298.876 186.691 298.876 186.626C299.007 186.366 299.137 186.171 299.332 185.976C307.726 173.938 310.459 160.728 307.336 146.412C302.26 123.377 280.982 106.718 256.84 108.15C256.84 109.321 256.84 110.427 256.84 111.598C266.146 111.013 275.581 113.29 283.65 118.626C299.267 128.907 306.36 143.614 304.798 162.29C304.018 171.399 300.373 179.403 294.647 186.431C294.452 186.691 294.126 186.952 293.866 187.017C292.174 187.017 290.547 187.017 288.66 187.017C288.986 186.626 289.181 186.366 289.376 186.171C300.374 174.067 303.562 160.142 298.876 144.46C296.534 136.781 291.979 130.469 285.797 125.329C284.821 124.548 283.78 124.548 283.129 125.329C282.414 126.11 282.608 127.151 283.585 127.997C284.04 128.452 284.561 128.843 284.951 129.233C283.064 131.185 281.177 133.007 279.42 134.829C276.882 132.291 274.279 129.689 271.611 127.021C272.523 126.175 273.564 125.263 274.475 124.287C275.32 123.377 276.036 122.856 277.273 123.702C277.988 124.222 278.835 123.962 279.42 123.246C279.94 122.531 279.94 121.815 279.355 121.164C279.095 120.839 278.704 120.643 278.314 120.448C271.286 116.999 264.128 115.438 256.905 115.893C256.905 117.52 256.905 119.212 256.905 120.839C257.556 120.188 258.207 119.537 258.922 118.822C261.46 121.359 263.998 123.897 266.471 126.435C266.34 126.565 266.211 126.695 266.08 126.825C266.211 126.955 266.275 127.021 266.406 127.151C263.868 129.689 261.33 132.226 258.792 134.699C258.207 134.113 257.491 133.398 256.905 132.747C256.905 135.61 256.905 138.473 256.905 141.337C257.556 140.686 258.207 140.035 258.858 139.384C261.395 141.922 263.933 144.525 266.471 147.063C266.34 147.193 266.211 147.323 266.08 147.453C266.211 147.583 266.275 147.649 266.406 147.778C263.933 150.251 261.33 152.789 258.792 155.327C258.142 154.676 257.491 154.026 256.84 153.375C256.84 156.238 256.84 159.101 256.84 161.964C257.491 161.314 258.076 160.728 258.727 160.077C261.265 162.615 263.803 165.218 266.275 167.626C266.146 167.755 266.015 167.886 265.885 168.016C266.015 168.146 266.08 168.211 266.211 168.341C263.738 170.814 261.135 173.417 258.727 175.825C258.076 175.239 257.426 174.588 256.775 173.938C256.775 176.866 256.775 179.859 256.775 182.787C257.426 182.137 258.142 181.486 258.727 180.835C260.484 182.592 262.306 184.479 264.063 186.236H263.282C263.282 186.236 263.738 186.691 263.998 186.952H256.71C256.71 188.123 256.71 189.294 256.71 190.466C271.091 190.466 285.537 190.466 299.918 190.466C302.065 190.466 302.065 190.466 302.065 192.548C302.065 194.153 301.241 194.956 299.592 194.956C285.276 194.956 270.896 194.956 256.58 194.956C256.45 195.606 256.19 196.127 255.799 196.518H254.693C254.172 196.192 253.912 195.737 253.782 194.956H237.188C236.668 194.956 236.082 194.956 235.562 195.086C234.716 195.281 234.26 195.932 234.325 196.778C234.325 197.689 234.911 198.274 235.822 198.405C236.278 198.405 236.733 198.405 237.188 198.405C258.922 198.405 280.722 198.405 302.456 198.405C302.976 198.405 305.97 195.216 305.449 195.021C305.188 193.003 305.904 190.791 304.603 188.839L304.798 188.774ZM296.924 164.111C296.274 166.389 295.688 168.602 294.972 171.074C293.996 169.968 293.15 169.057 292.435 168.276C292.564 168.146 292.695 168.016 292.825 167.886C292.695 167.755 292.63 167.626 292.5 167.561C293.866 166.194 295.232 164.762 296.664 163.266C296.729 163.266 296.859 163.266 296.924 163.266C296.924 163.461 296.794 163.721 296.729 163.982C296.729 163.982 296.794 163.982 296.859 163.982L296.924 164.111ZM297.055 157.93C294.647 160.402 292.044 162.941 289.441 165.543C287.034 163.135 284.496 160.598 281.958 158.06C282.088 157.93 282.218 157.799 282.348 157.67C282.218 157.539 282.153 157.474 282.023 157.344C284.561 154.806 287.164 152.269 289.702 149.731C292.109 152.203 294.647 154.741 297.055 157.214C296.924 157.344 296.794 157.474 296.664 157.605C296.794 157.734 296.859 157.799 296.99 157.93H297.055ZM286.903 168.276C284.431 170.749 281.828 173.352 279.225 175.955C276.817 173.547 274.214 170.944 271.807 168.537C271.937 168.406 272.067 168.276 272.197 168.146C272.067 168.016 272.002 167.951 271.872 167.821C274.475 165.218 277.012 162.68 279.615 160.077C282.023 162.485 284.561 165.087 287.034 167.561C286.903 167.69 286.773 167.821 286.643 167.951C286.773 168.081 286.838 168.146 286.968 168.276H286.903ZM297.315 151.748C297.315 151.748 297.12 151.553 297.055 151.487C297.12 151.813 297.185 152.138 297.315 152.529C295.558 150.772 293.996 149.21 292.5 147.714C292.63 147.583 292.76 147.453 292.89 147.323C292.76 147.193 292.695 147.128 292.564 146.998C293.411 146.087 294.322 145.111 295.493 143.874C296.144 146.607 296.729 149.145 297.38 151.813L297.315 151.748ZM282.153 136.651C283.91 134.894 285.732 133.072 287.684 131.12C288.27 131.771 288.986 132.487 289.506 133.267C290.873 135.35 292.239 137.497 293.541 139.71C293.671 139.905 293.606 140.295 293.541 140.555C293.606 140.881 293.541 141.337 293.411 141.597C292.304 142.833 291.068 144.005 289.962 145.175C287.294 142.507 284.756 139.97 282.218 137.367C282.348 137.237 282.479 137.107 282.608 136.977C282.479 136.846 282.414 136.781 282.283 136.651H282.153ZM279.485 139.449C281.958 141.922 284.496 144.46 287.099 146.998C286.968 147.128 286.838 147.258 286.708 147.388C286.838 147.518 286.903 147.583 287.034 147.714C284.496 150.186 281.893 152.789 279.42 155.262C276.947 152.789 274.41 150.186 271.937 147.714C272.067 147.583 272.197 147.453 272.327 147.323C272.197 147.193 272.132 147.128 272.002 146.998C274.41 144.59 277.012 141.987 279.55 139.449H279.485ZM264.063 119.407C264.388 119.472 264.714 119.537 265.104 119.667C264.779 119.342 264.454 119.017 264.128 118.691C266.991 119.342 269.529 119.993 272.327 120.643C272.067 120.839 271.937 121.034 271.676 121.229C271.872 121.229 272.067 121.294 272.262 121.359C271.026 122.531 269.984 123.442 269.074 124.287C267.577 122.791 265.95 121.229 264.128 119.407H264.063ZM261.525 137.432C261.525 137.432 261.786 137.172 261.916 137.042C261.786 136.911 261.72 136.846 261.59 136.716C264.063 134.243 266.666 131.641 269.139 129.168C271.611 131.641 274.149 134.178 276.687 136.716C276.557 136.846 276.427 136.977 276.296 137.107C276.427 137.237 276.492 137.302 276.622 137.432C274.149 139.84 271.611 142.443 269.008 144.981C266.601 142.507 263.998 139.97 261.525 137.432ZM261.395 158.06C261.395 158.06 261.655 157.799 261.786 157.67C261.655 157.539 261.59 157.474 261.46 157.344C263.998 154.806 266.601 152.269 269.074 149.796C271.611 152.334 274.149 154.871 276.622 157.344C276.492 157.474 276.362 157.605 276.232 157.734C276.362 157.865 276.427 157.93 276.557 158.06C274.149 160.467 271.546 163.07 268.943 165.673C266.471 163.201 263.868 160.598 261.33 158.06H261.395ZM261.525 178.493C261.525 178.493 261.786 178.232 261.916 178.102C261.786 177.972 261.72 177.907 261.59 177.777C263.998 175.369 266.536 172.831 269.139 170.229C271.742 172.831 274.279 175.369 276.752 177.842C276.622 177.972 276.492 178.102 276.362 178.232C276.492 178.362 276.557 178.427 276.687 178.558C274.149 181.095 271.546 183.698 269.008 186.171C266.601 183.698 263.998 181.095 261.46 178.493H261.525ZM284.3 186.301C283.584 186.497 282.934 186.887 282.283 186.952C279.485 187.017 276.687 186.952 274.214 186.952C274.475 186.691 274.67 186.431 274.93 186.236C274.735 186.236 274.475 186.236 274.279 186.236C275.971 184.544 277.858 182.657 279.68 180.835C281.047 182.202 282.608 183.763 284.431 185.585C284.235 185.585 284.04 185.715 283.845 185.781C284.04 185.976 284.17 186.106 284.366 186.301H284.3ZM282.088 178.623C282.088 178.623 282.348 178.362 282.479 178.232C282.348 178.102 282.218 177.972 282.153 177.907C284.626 175.369 287.229 172.831 289.962 170.098C290.938 171.139 291.979 172.246 293.02 173.352C293.215 173.547 293.215 174.067 293.085 174.328C293.085 174.588 293.15 174.849 293.085 174.979C291.458 178.102 289.441 180.9 287.034 183.438C285.342 181.746 283.715 180.119 282.153 178.558L282.088 178.623Z" fill="currentColor"/>
<path d="M221.115 173.417C221.115 162.68 221.115 151.878 221.115 141.141C216.821 151.293 216.626 162.941 221.115 173.417Z" fill="currentColor"/>
<path d="M212.006 143.809C211.094 146.737 210.769 149.926 210.314 152.984C210.118 154.09 210.769 154.871 211.745 155.002C212.786 155.131 213.502 154.611 213.697 153.505C213.827 152.789 213.827 152.073 213.957 151.358C214.933 144.265 217.341 137.887 221.115 132.226C221.115 130.209 221.115 128.127 221.115 126.11C217.146 131.12 214.088 136.977 212.071 143.809H212.006Z" fill="currentColor"/>
<path d="M224.045 122.661C223.003 123.767 222.027 124.873 221.116 126.11C221.116 128.127 221.116 130.209 221.116 132.226C222.027 130.86 223.003 129.558 224.045 128.257C224.045 126.37 224.045 124.548 224.045 122.661Z" fill="currentColor"/>
<path d="M256.838 186.887H253.845C253.845 188.123 253.845 189.294 253.845 190.401H256.838C256.838 189.23 256.838 188.058 256.838 186.887Z" fill="currentColor"/>
<path d="M221.962 196.455H223.2C223.591 196.064 223.786 195.542 223.917 194.891C223.004 194.891 222.092 194.891 221.244 194.891C221.375 195.542 221.57 196.064 221.962 196.455Z" fill="currentColor"/>
<path d="M253.845 123.702C254.821 122.726 255.797 121.75 256.773 120.774C256.773 119.147 256.773 117.455 256.773 115.828C255.797 115.828 254.821 116.023 253.845 116.154C253.845 118.626 253.845 121.164 253.845 123.702Z" fill="currentColor"/>
<path d="M253.845 186.171V186.381C253.845 186.381 253.984 186.241 254.054 186.171H253.845Z" fill="currentColor"/>
<path d="M224.045 186.301C223.068 184.87 222.092 183.438 221.116 182.006C221.116 184.805 221.116 187.667 221.116 190.466H224.109C224.109 189.165 224.109 187.798 224.109 186.366L224.045 186.301Z" fill="currentColor"/>
<path d="M253.845 155.131C254.626 155.913 255.342 156.629 256.122 157.409C255.992 157.539 255.862 157.67 255.732 157.799C255.862 157.93 255.927 157.995 256.057 158.125C255.342 158.841 254.626 159.622 253.845 160.338C253.845 161.834 253.845 163.331 253.845 164.827C254.821 163.851 255.797 162.875 256.838 161.834C256.838 158.971 256.838 156.108 256.838 153.245C255.862 152.269 254.886 151.293 253.845 150.251C253.845 151.878 253.845 153.505 253.845 155.067V155.131Z" fill="currentColor"/>
<path d="M253.845 111.794C254.821 111.663 255.797 111.598 256.773 111.534C256.773 110.362 256.773 109.256 256.773 108.085C255.797 108.085 254.821 108.28 253.845 108.41C253.845 109.516 253.845 110.687 253.845 111.794Z" fill="currentColor"/>
<path d="M253.845 134.569C254.56 135.285 255.276 136.001 255.992 136.716C255.862 136.846 255.732 136.977 255.602 137.107C255.732 137.237 255.797 137.302 255.927 137.432C255.276 138.083 254.56 138.798 253.845 139.449C253.845 141.076 253.845 142.638 253.845 144.265C254.821 143.289 255.797 142.313 256.773 141.271C256.773 138.408 256.773 135.545 256.773 132.682C255.797 131.706 254.821 130.73 253.845 129.689C253.845 131.315 253.845 132.877 253.845 134.504V134.569Z" fill="currentColor"/>
<path d="M254.823 196.455H255.931C256.323 196.064 256.583 195.607 256.714 194.891H253.976C254.106 195.673 254.367 196.129 254.888 196.455H254.823Z" fill="currentColor"/>
<path d="M253.845 175.564C254.626 176.345 255.342 177.061 256.122 177.842C255.992 177.972 255.862 178.102 255.732 178.232C255.862 178.362 255.927 178.427 256.057 178.558C255.342 179.273 254.56 179.989 253.845 180.705C253.845 182.397 253.845 184.023 253.845 185.65C254.886 184.609 255.862 183.633 256.838 182.657C256.838 179.729 256.838 176.735 256.838 173.807C255.862 172.831 254.886 171.855 253.845 170.879C253.845 172.441 253.845 174.002 253.845 175.564Z" fill="currentColor"/>
<path d="M224.044 169.578C224.044 169.578 223.654 169.968 223.394 170.163C222.938 168.471 222.482 166.975 222.027 165.413H222.222C222.222 165.218 222.092 164.958 222.027 164.762H222.222C222.743 165.283 223.394 165.934 223.914 166.584C223.914 165.153 223.914 163.656 223.914 162.159C223.394 161.639 222.938 161.053 222.352 160.663C221.051 159.752 221.051 158.515 221.116 157.214C221.116 157.214 221.116 157.214 221.116 157.149C221.116 156.954 221.116 156.693 221.116 156.498C221.116 156.238 221.246 155.978 221.376 155.782C222.222 154.937 223.003 154.155 223.849 153.31C223.849 151.813 223.849 150.316 223.849 148.819C223.068 149.601 222.352 150.316 221.506 151.162C221.571 150.837 221.636 150.577 221.702 150.251C221.702 150.251 221.571 150.381 221.506 150.446C221.962 148.559 222.417 146.737 222.873 144.85C223.263 145.241 223.523 145.566 223.849 145.891C223.849 142.442 223.849 138.929 223.849 135.415C222.678 137.237 221.702 139.189 220.92 141.206C220.92 151.943 220.92 162.745 220.92 173.482C221.767 175.434 222.743 177.256 223.914 179.143C223.914 176.15 223.914 172.961 223.914 169.643L224.044 169.578Z" fill="currentColor"/>
<path d="M253.846 176.345C253.846 176.345 253.846 175.825 253.846 175.564C252.089 173.807 250.267 171.985 248.51 170.229C245.907 172.831 243.369 175.369 240.831 177.907C240.962 178.037 241.027 178.102 241.156 178.232C243.564 175.825 245.972 173.417 248.445 170.944C250.202 172.701 252.024 174.523 253.78 176.28L253.846 176.345Z" fill="currentColor"/>
<path d="M255.735 178.237C255.735 178.237 255.996 177.976 256.126 177.846C255.344 177.063 254.627 176.346 253.845 175.565C253.845 175.825 253.845 176.086 253.845 176.346C254.496 176.998 255.083 177.585 255.735 178.237Z" fill="currentColor"/>
<path d="M245.32 168.016C245.32 168.016 245.58 167.755 245.71 167.626C243.172 165.087 240.635 162.55 238.162 160.077C235.69 162.55 233.087 165.153 230.614 167.626C230.744 167.755 230.809 167.821 230.939 167.951C233.347 165.543 235.754 163.135 238.097 160.793C240.44 163.135 242.912 165.608 245.32 168.016Z" fill="currentColor"/>
<path d="M296.729 163.331C295.297 164.762 293.866 166.259 292.564 167.626C292.694 167.755 292.759 167.886 292.89 167.951C294.126 166.714 295.427 165.413 296.729 164.046C296.729 164.046 296.794 164.046 296.859 164.046C296.859 163.851 296.989 163.591 297.054 163.331C296.989 163.331 296.859 163.331 296.794 163.331H296.729Z" fill="currentColor"/>
<path d="M279.614 180.835C277.792 182.657 275.905 184.544 274.213 186.236C274.409 186.236 274.669 186.236 274.864 186.236C276.361 184.739 277.922 183.178 279.549 181.551C280.721 182.722 282.217 184.219 283.779 185.781C283.974 185.715 284.169 185.65 284.365 185.585C282.542 183.763 280.981 182.202 279.614 180.835Z" fill="currentColor"/>
<path d="M258.726 181.486C260.222 182.982 261.784 184.609 263.346 186.171H264.127C262.37 184.349 260.483 182.527 258.791 180.77C258.14 181.421 257.49 182.071 256.839 182.722V183.373C257.49 182.722 258.14 182.071 258.726 181.486Z" fill="currentColor"/>
<path d="M253.326 186.172H253.847C253.847 186.172 253.847 185.846 253.847 185.715C253.652 185.911 253.522 186.041 253.326 186.172Z" fill="currentColor"/>
<path d="M253.845 186.171H254.04C255.016 185.195 255.927 184.284 256.838 183.373V182.722C255.862 183.698 254.886 184.674 253.845 185.715C253.845 185.911 253.845 186.041 253.845 186.171Z" fill="currentColor"/>
<path d="M292.953 174.067C292.953 174.067 293.018 174.263 293.083 174.393C293.214 174.133 293.149 173.612 293.018 173.417C292.042 172.246 290.936 171.205 289.96 170.163C287.227 172.897 284.689 175.499 282.151 177.972C282.281 178.102 282.411 178.232 282.477 178.297C284.884 175.89 287.292 173.482 289.895 170.814C290.871 171.855 291.912 172.961 292.953 174.067Z" fill="currentColor"/>
<path d="M253.845 135.285V134.504C252.023 132.682 250.201 130.86 248.509 129.103C245.971 131.641 243.434 134.178 240.895 136.717C241.026 136.846 241.091 136.911 241.221 137.042C243.628 134.634 246.036 132.226 248.444 129.819C250.201 131.575 252.023 133.463 253.845 135.285Z" fill="currentColor"/>
<path d="M255.604 137.046C255.604 137.046 255.866 136.785 255.996 136.655C255.279 135.938 254.562 135.221 253.845 134.504V135.286C254.431 135.873 255.018 136.459 255.604 137.046Z" fill="currentColor"/>
<path d="M276.362 178.167C276.362 178.167 276.622 177.907 276.752 177.777C274.279 175.304 271.742 172.766 269.139 170.163C266.536 172.766 263.933 175.369 261.59 177.711C261.721 177.842 261.786 177.907 261.916 178.037C264.193 175.759 266.601 173.352 269.139 170.814C271.611 173.287 274.019 175.694 276.427 178.102L276.362 178.167Z" fill="currentColor"/>
<path d="M245.45 147.388C245.45 147.388 245.71 147.128 245.84 146.998C243.303 144.46 240.7 141.857 238.292 139.384C235.754 141.922 233.151 144.46 230.614 146.998C230.744 147.128 230.809 147.193 230.939 147.323C233.347 144.915 235.819 142.507 238.227 140.1C240.57 142.443 243.043 144.915 245.45 147.323V147.388Z" fill="currentColor"/>
<path d="M258.726 140.035C261.134 142.508 263.606 144.915 266.014 147.388C266.144 147.258 266.274 147.128 266.405 146.998C263.866 144.46 261.329 141.857 258.791 139.319C258.14 139.97 257.49 140.621 256.839 141.271C256.839 141.466 256.839 141.727 256.839 141.922C257.49 141.271 258.14 140.621 258.726 140.035Z" fill="currentColor"/>
<path d="M253.849 144.199C253.002 145.047 252.089 145.959 251.242 146.807C251.372 146.937 251.437 147.002 251.567 147.133C252.285 146.416 253.132 145.569 253.849 144.851C253.849 144.656 253.849 144.395 253.849 144.199Z" fill="currentColor"/>
<path d="M253.845 144.915C254.821 143.939 255.797 142.963 256.773 141.922C256.773 141.727 256.773 141.466 256.773 141.271C255.797 142.247 254.821 143.223 253.845 144.265C253.845 144.46 253.845 144.72 253.845 144.915Z" fill="currentColor"/>
<path d="M238.035 180.705C236.733 182.006 235.367 183.373 233.87 184.87C234 184.935 234.13 185.065 234.26 185.195C235.562 183.894 236.863 182.592 238.035 181.421C239.596 182.982 241.223 184.609 242.85 186.171C243.11 186.171 243.37 186.171 243.631 186.171C241.743 184.284 239.922 182.462 238.099 180.705H238.035Z" fill="currentColor"/>
<path d="M253.85 164.827C252.937 165.74 252.025 166.653 251.178 167.5C251.308 167.63 251.373 167.695 251.503 167.826C252.286 167.043 253.068 166.261 253.85 165.479V164.827Z" fill="currentColor"/>
<path d="M258.661 160.728C261.069 163.135 263.541 165.608 265.884 167.951C266.014 167.821 266.144 167.69 266.274 167.561C263.801 165.087 261.263 162.55 258.726 160.012C258.075 160.598 257.49 161.249 256.839 161.899C256.839 162.094 256.839 162.355 256.839 162.55C257.425 161.964 258.075 161.314 258.661 160.728Z" fill="currentColor"/>
<path d="M253.845 165.478C254.821 164.502 255.797 163.526 256.838 162.485C256.838 162.29 256.838 162.029 256.838 161.834C255.862 162.81 254.886 163.786 253.845 164.827V165.478Z" fill="currentColor"/>
<path d="M276.231 157.67C276.231 157.67 276.491 157.409 276.621 157.279C274.149 154.806 271.545 152.203 269.073 149.731C266.6 152.203 263.997 154.806 261.459 157.279C261.589 157.409 261.654 157.474 261.785 157.605C264.192 155.197 266.665 152.789 269.007 150.446C271.415 152.854 273.823 155.262 276.231 157.67Z" fill="currentColor"/>
<path d="M279.549 160.077C276.946 162.615 274.408 165.218 271.805 167.821C271.935 167.951 272.001 168.016 272.131 168.146C274.603 165.673 277.011 163.266 279.484 160.793C281.761 163.07 284.169 165.543 286.577 167.951C286.707 167.821 286.837 167.69 286.967 167.561C284.494 165.087 281.957 162.485 279.549 160.077Z" fill="currentColor"/>
<path d="M253.845 155.913C253.845 155.913 253.845 155.392 253.845 155.131C252.023 153.31 250.201 151.487 248.444 149.731C245.971 152.203 243.368 154.806 240.895 157.214C241.026 157.344 241.091 157.409 241.221 157.539C243.563 155.197 245.971 152.789 248.379 150.446C250.201 152.269 252.023 154.09 253.845 155.913Z" fill="currentColor"/>
<path d="M255.735 157.739C255.735 157.739 255.996 157.478 256.126 157.348C255.344 156.566 254.627 155.849 253.845 155.067C253.845 155.327 253.845 155.588 253.845 155.849C254.496 156.501 255.083 157.087 255.735 157.739Z" fill="currentColor"/>
<path d="M224.76 147.391C224.76 147.391 225.02 147.13 225.151 146.999C224.825 146.609 224.434 146.217 224.043 145.826V146.609C224.043 146.609 224.564 147.13 224.76 147.391Z" fill="currentColor"/>
<path d="M221.766 150.382C221.766 150.382 221.896 150.251 221.961 150.186C222.352 148.625 222.742 147.063 223.132 145.501C223.523 145.891 223.783 146.217 224.108 146.607V145.826C223.783 145.501 223.523 145.175 223.132 144.785C222.677 146.673 222.222 148.494 221.766 150.382Z" fill="currentColor"/>
<path d="M235.105 136.977C235.105 136.977 235.366 136.717 235.496 136.586C233.934 135.025 232.307 133.398 230.42 131.51C228.403 134.699 226.386 137.887 224.434 140.946C224.499 141.011 224.564 141.076 224.694 141.206C226.581 138.278 228.468 135.285 230.42 132.226C232.177 133.983 233.739 135.545 235.17 136.977H235.105Z" fill="currentColor"/>
<path d="M227.751 150.186C230.289 152.724 232.762 155.197 235.105 157.539C235.234 157.409 235.365 157.279 235.495 157.149C233.022 154.676 230.484 152.138 227.816 149.405C226.58 150.642 225.343 151.878 224.107 153.114V153.765C225.343 152.529 226.515 151.293 227.751 150.056V150.186Z" fill="currentColor"/>
<path d="M221.309 156.433C221.309 156.433 221.309 156.889 221.309 157.084C221.309 156.823 221.374 156.563 221.569 156.433C222.415 155.587 223.261 154.741 224.107 153.895V153.245C223.261 154.09 222.48 154.871 221.634 155.717C221.439 155.913 221.374 156.173 221.374 156.433H221.309Z" fill="currentColor"/>
<path d="M245.321 126.76C245.321 126.76 245.582 126.5 245.712 126.37C244.541 125.198 243.304 123.962 241.873 122.531C239.009 124.548 236.016 126.695 233.153 128.713C233.283 128.843 233.413 128.973 233.543 129.103C236.276 127.151 239.139 125.134 241.807 123.246C243.109 124.548 244.28 125.719 245.321 126.76Z" fill="currentColor"/>
<path d="M289.766 149.731C287.228 152.269 284.625 154.806 282.087 157.344C282.217 157.474 282.282 157.539 282.412 157.67C284.82 155.262 287.292 152.854 289.7 150.446C291.978 152.789 294.451 155.262 296.728 157.605C296.858 157.474 296.988 157.344 297.119 157.214C294.711 154.741 292.173 152.203 289.766 149.731Z" fill="currentColor"/>
<path d="M227.688 170.879C230.226 173.417 232.698 175.89 235.106 178.297C235.236 178.167 235.366 178.037 235.496 177.907C232.959 175.369 230.356 172.766 227.688 170.098C226.907 170.879 226.126 171.66 225.345 172.441C225.15 172.636 225.02 173.091 225.15 173.287C225.15 173.287 225.15 173.287 225.15 173.352C225.15 173.287 225.15 173.157 225.28 173.157C225.996 172.311 226.842 171.595 227.623 170.814L227.688 170.879Z" fill="currentColor"/>
<path d="M289.44 134.049C290.807 136.131 292.173 138.278 293.475 140.49C293.475 140.49 293.475 140.555 293.475 140.621C293.604 140.361 293.604 139.97 293.475 139.775C292.173 137.627 290.872 135.48 289.44 133.333C288.919 132.551 288.204 131.836 287.618 131.185C285.666 133.137 283.844 134.959 282.087 136.716C282.217 136.846 282.282 136.911 282.412 137.042C284.039 135.415 285.731 133.723 287.553 131.901C288.139 132.551 288.854 133.267 289.375 134.049H289.44Z" fill="currentColor"/>
<path d="M292.823 147.258C293.539 146.477 294.385 145.631 295.361 144.525C295.947 146.933 296.467 149.145 296.988 151.422C297.118 151.553 297.183 151.618 297.249 151.683C296.598 149.015 296.012 146.477 295.361 143.744C294.19 144.981 293.279 145.957 292.433 146.867C292.563 146.998 292.628 147.063 292.758 147.193L292.823 147.258Z" fill="currentColor"/>
<path d="M272.262 147.323C274.605 144.981 277.012 142.573 279.419 140.165C281.762 142.508 284.235 144.981 286.708 147.388C286.838 147.258 286.968 147.128 287.098 146.998C284.561 144.46 281.958 141.857 279.485 139.449C276.947 141.987 274.344 144.525 271.937 146.998C272.066 147.128 272.131 147.193 272.262 147.323Z" fill="currentColor"/>
<path d="M276.23 137.107C276.23 137.107 276.49 136.846 276.62 136.716C274.082 134.178 271.545 131.641 269.072 129.168C266.599 131.641 263.996 134.243 261.523 136.716C261.654 136.846 261.719 136.911 261.849 137.042C264.191 134.634 266.664 132.226 269.007 129.883C271.349 132.226 273.757 134.699 276.165 137.107H276.23Z" fill="currentColor"/>
<path d="M253.849 123.702C253.002 124.549 252.089 125.462 251.242 126.309C251.372 126.439 251.437 126.505 251.567 126.635C252.35 125.853 253.067 125.136 253.849 124.354V123.702Z" fill="currentColor"/>
<path d="M258.727 119.472C261.134 121.88 263.542 124.353 265.95 126.695C266.08 126.565 266.21 126.435 266.34 126.305C263.867 123.832 261.264 121.229 258.792 118.691C258.141 119.342 257.49 119.993 256.774 120.709C256.774 120.904 256.774 121.164 256.774 121.359C257.425 120.709 258.076 120.058 258.727 119.407V119.472Z" fill="currentColor"/>
<path d="M253.845 124.353C254.821 123.377 255.797 122.401 256.773 121.425C256.773 121.229 256.773 120.969 256.773 120.774C255.797 121.75 254.821 122.726 253.845 123.702V124.353Z" fill="currentColor"/>
<path d="M272.326 120.643C269.527 119.993 266.99 119.342 264.127 118.691C264.452 119.017 264.777 119.342 265.103 119.667C267.315 120.188 269.463 120.709 271.675 121.229C271.87 121.034 272.066 120.839 272.326 120.643Z" fill="currentColor"/>
<path d="M252.934 118.951C250.526 119.602 248.118 120.253 245.581 120.969C245.775 121.164 245.971 121.359 246.166 121.489C248.183 120.969 250.07 120.448 251.957 119.927C252.283 119.602 252.608 119.277 252.934 118.951Z" fill="currentColor"/>
</g>
</g>
<defs>
<clipPath id="clip0_2471_1983">
<rect width="308.571" height="200" fill="white"/>
</clipPath>
</defs>
</svg>
