<svg width="200" height="200" viewBox="0 0 200 200" fill="none" xmlns="http://www.w3.org/2000/svg">
<path d="M0 18.75C0 17.0924 0.65848 15.5027 1.83058 14.3306C3.00269 13.1585 4.5924 12.5 6.25 12.5H25C26.3941 12.5004 27.7481 12.9669 28.8466 13.8253C29.9452 14.6837 30.7251 15.8848 31.0625 17.2375L36.125 37.5H181.25C182.174 37.5006 183.087 37.7061 183.922 38.1019C184.758 38.4977 185.495 39.0738 186.081 39.7887C186.666 40.5037 187.086 41.3397 187.31 42.2365C187.534 43.1333 187.556 44.0686 187.375 44.975L174.875 107.475C174.602 108.838 173.882 110.071 172.829 110.979C171.776 111.886 170.451 112.417 169.062 112.487L51.6 118.387L55.1875 137.5H162.5C164.158 137.5 165.747 138.158 166.919 139.331C168.092 140.503 168.75 142.092 168.75 143.75C168.75 145.408 168.092 146.997 166.919 148.169C165.747 149.342 164.158 150 162.5 150H50C48.5429 149.999 47.1321 149.488 46.0114 148.557C44.8907 147.626 44.1306 146.332 43.8625 144.9L25.125 45.0875L20.125 25H6.25C4.5924 25 3.00269 24.3415 1.83058 23.1694C0.65848 21.9973 0 20.4076 0 18.75ZM38.775 50L49.275 105.988L163.575 100.25L173.625 50H38.775ZM62.5 150C55.8696 150 49.5107 152.634 44.8223 157.322C40.1339 162.011 37.5 168.37 37.5 175C37.5 181.63 40.1339 187.989 44.8223 192.678C49.5107 197.366 55.8696 200 62.5 200C69.1304 200 75.4893 197.366 80.1777 192.678C84.8661 187.989 87.5 181.63 87.5 175C87.5 168.37 84.8661 162.011 80.1777 157.322C75.4893 152.634 69.1304 150 62.5 150ZM150 150C143.37 150 137.011 152.634 132.322 157.322C127.634 162.011 125 168.37 125 175C125 181.63 127.634 187.989 132.322 192.678C137.011 197.366 143.37 200 150 200C156.63 200 162.989 197.366 167.678 192.678C172.366 187.989 175 181.63 175 175C175 168.37 172.366 162.011 167.678 157.322C162.989 152.634 156.63 150 150 150ZM62.5 162.5C65.8152 162.5 68.9946 163.817 71.3388 166.161C73.683 168.505 75 171.685 75 175C75 178.315 73.683 181.495 71.3388 183.839C68.9946 186.183 65.8152 187.5 62.5 187.5C59.1848 187.5 56.0054 186.183 53.6612 183.839C51.317 181.495 50 178.315 50 175C50 171.685 51.317 168.505 53.6612 166.161C56.0054 163.817 59.1848 162.5 62.5 162.5ZM150 162.5C153.315 162.5 156.495 163.817 158.839 166.161C161.183 168.505 162.5 171.685 162.5 175C162.5 178.315 161.183 181.495 158.839 183.839C156.495 186.183 153.315 187.5 150 187.5C146.685 187.5 143.505 186.183 141.161 183.839C138.817 181.495 137.5 178.315 137.5 175C137.5 171.685 138.817 168.505 141.161 166.161C143.505 163.817 146.685 162.5 150 162.5Z" fill="currentColor"/>
</svg>
