<svg width="32" height="32" viewBox="0 0 32 32" fill="none" xmlns="http://www.w3.org/2000/svg">
<g clip-path="url(#clip0_2457_4245)">
<mask id="mask0_2457_4245" style="mask-type:luminance" maskUnits="userSpaceOnUse" x="0" y="0" width="32" height="32">
<path d="M32 0H0V32H32V0Z" fill="white"/>
</mask>
<g mask="url(#mask0_2457_4245)">
<path d="M31.6295 31.6293H0.370605V5.7874C0.370605 5.38413 0.479597 6.17977 0.882867 6.17977H30.6921C31.0954 6.17977 31.6295 5.38413 31.6295 5.7874V31.6293Z" fill="white"/>
<path d="M32 32H0V5.78749C0 5.52591 0.0980926 5.36243 0.294278 5.31883C0.588556 5.25343 0.719346 5.51501 0.762943 5.60221C0.784741 5.64581 0.861035 5.79839 0.904632 5.82019H30.6812C30.7575 5.79839 30.9428 5.64581 31.0409 5.56951C31.2589 5.39512 31.4768 5.22074 31.7384 5.34063C31.8256 5.38422 31.9891 5.50412 31.9891 5.7766V31.9891L32 32ZM0.741144 31.2588H31.2698V6.34335C31.0954 6.46324 30.9101 6.56134 30.703 6.56134H0.882834C0.882834 6.56134 0.784741 6.56134 0.741144 6.55044V31.2697V31.2588Z" fill="currentColor"/>
<path d="M31.6295 29.8093H0.370605V31.6294H31.6295V29.8093Z" fill="white"/>
<path d="M32 32H0V29.4496H32V32ZM0.741144 31.2588H31.2698V30.1798H0.741144V31.2588Z" fill="currentColor"/>
<path d="M31.6295 31.6293H0.370605V5.7874C0.370605 5.38413 0.479597 6.17977 0.882867 6.17977H30.6921C31.0954 6.17977 31.6295 5.38413 31.6295 5.7874V31.6293Z" fill="white"/>
<path d="M32 32H0V5.78749C0 5.52591 0.0980926 5.36243 0.294278 5.31883C0.588556 5.25343 0.719346 5.51501 0.762943 5.60221C0.784741 5.64581 0.861035 5.79839 0.904632 5.82019H30.6812C30.7575 5.79839 30.9428 5.64581 31.0409 5.56951C31.2589 5.39512 31.4768 5.22074 31.7384 5.34063C31.8256 5.38422 31.9891 5.50412 31.9891 5.7766V31.9891L32 32ZM0.741144 31.2588H31.2698V6.34335C31.0954 6.46324 30.9101 6.56134 30.703 6.56134H0.882834C0.882834 6.56134 0.784741 6.56134 0.741144 6.55044V31.2697V31.2588Z" fill="currentColor"/>
<path d="M25.8202 12H22.9102V14.9101H25.8202V12Z" fill="white"/>
<path d="M26.1798 15.2806H22.5396V11.6403H26.1798V15.2806ZM23.2698 14.5395H25.4387V12.3706H23.2698V14.5395Z" fill="currentColor"/>
<path d="M21.8092 20.7303H20.3596V31.6403H21.8092V20.7303Z" fill="white"/>
<path d="M22.1797 32H19.989V20.3597H22.1797V32ZM20.7302 31.2589H21.4495V21.0899H20.7302V31.2589Z" fill="currentColor"/>
<path d="M11.6293 20.7303H10.1797V31.6403H11.6293V20.7303Z" fill="white"/>
<path d="M12.0108 32H9.82007V20.3597H12.0108V32ZM10.5503 31.2589H11.2697V21.0899H10.5503V31.2589Z" fill="currentColor"/>
<path d="M15.2697 7.64038H12.3596V10.5505H15.2697V7.64038Z" fill="white"/>
<path d="M15.6403 10.9101H12V7.26978H15.6403V10.9101ZM12.7302 10.1798H14.8992V8.01093H12.7302V10.1798Z" fill="currentColor"/>
<path d="M19.6403 7.64038H16.7302V10.5505H19.6403V7.64038Z" fill="white"/>
<path d="M19.9999 10.9101H16.3596V7.26978H19.9999V10.9101ZM17.0899 10.1798H19.2588V8.01093H17.0899V10.1798Z" fill="currentColor"/>
<path d="M15.2697 12H12.3596V14.9101H15.2697V12Z" fill="white"/>
<path d="M15.6403 15.2806H12V11.6403H15.6403V15.2806ZM12.7302 14.5395H14.8992V12.3706H12.7302V14.5395Z" fill="currentColor"/>
<path d="M19.6403 12H16.7302V14.9101H19.6403V12Z" fill="white"/>
<path d="M19.9999 15.2806H16.3596V11.6403H19.9999V15.2806ZM17.0899 14.5395H19.2588V12.3706H17.0899V14.5395Z" fill="currentColor"/>
<path d="M30.1689 20.7303H23.6294V25.8202H30.1689V20.7303Z" fill="white"/>
<path d="M30.5394 26.1798H23.2588V20.3488H30.5394V26.1798ZM23.9999 25.4496H29.8092V21.1008H23.9999V25.4496Z" fill="currentColor"/>
<path d="M8.00015 20.7303H1.82031V25.8202H8.00015V20.7303Z" fill="white"/>
<path d="M8.37069 26.1798H1.44971V20.3488H8.37069V26.1798ZM2.19085 25.4496H7.62954V21.1008H2.19085V25.4496Z" fill="currentColor"/>
<path d="M25.8202 16.3597H22.9102V19.2698H25.8202V16.3597Z" fill="white"/>
<path d="M26.1798 19.6403H22.5396V16H26.1798V19.6403ZM23.2698 18.8992H25.4387V16.7302H23.2698V18.8992Z" fill="currentColor"/>
<path d="M9.08977 16.3597H6.17969V19.2698H9.08977V16.3597Z" fill="white"/>
<path d="M9.4604 19.6403H5.82007V16H9.4604V19.6403ZM6.55031 18.8992H8.71925V16.7302H6.55031V18.8992Z" fill="currentColor"/>
<path fill-rule="evenodd" clip-rule="evenodd" d="M17.2427 24.3597H14.3326C13.9293 24.3597 13.8203 23.564 13.8203 23.9673V31.6294H18.18V23.9673C18.18 23.564 17.6459 24.3597 17.2427 24.3597Z" fill="white"/>
<path d="M18.5505 32H13.4497V23.9673C13.4497 23.7057 13.5478 23.5422 13.744 23.4986C14.0383 23.4332 14.1691 23.6948 14.2126 23.782C14.2344 23.8256 14.3107 23.9782 14.3543 24H17.2317C17.308 23.9782 17.5042 23.8256 17.5914 23.7493C17.8094 23.5749 18.0274 23.4005 18.2889 23.5204C18.3761 23.564 18.5396 23.6839 18.5396 23.9564V31.9891L18.5505 32ZM14.1909 31.2589H17.8203V24.5123C17.6459 24.6322 17.4606 24.7302 17.2535 24.7302H14.3434C14.3434 24.7302 14.2453 24.7302 14.2018 24.7193V31.2698L14.1909 31.2589Z" fill="currentColor"/>
<path fill-rule="evenodd" clip-rule="evenodd" d="M23.6296 20.3597V21.8093C23.6296 23.2589 21.2318 23.2589 21.2318 21.8093C21.2318 23.2589 19.052 23.2589 19.052 21.8093C19.052 23.2589 16.8721 23.2589 16.8721 21.8093C16.8721 23.2589 14.6923 23.2589 14.6923 21.8093C14.6923 23.2589 12.5125 23.2589 12.5125 21.8093C12.5125 23.2589 10.3326 23.2589 10.3326 21.8093C10.3326 23.2589 8.35986 23.2589 8.35986 21.8093V20.3597" fill="white"/>
<path d="M22.4415 23.2699C22.0055 23.2699 21.5587 23.1064 21.2535 22.8012C20.7085 23.4007 19.7058 23.4007 19.15 22.9102C19.1173 22.8775 19.0846 22.8557 19.0519 22.8121C18.5069 23.4007 17.5151 23.3898 16.9701 22.9102C16.9374 22.8775 16.9047 22.8557 16.872 22.8121C16.3271 23.4007 15.3352 23.3898 14.7903 22.9102C14.7576 22.8775 14.7249 22.8557 14.6922 22.8121C14.1472 23.4007 13.1554 23.3898 12.6104 22.9102C12.5777 22.8775 12.545 22.8557 12.5123 22.8121C11.9674 23.4007 10.9756 23.3898 10.4306 22.9102C10.4088 22.8884 10.3761 22.8557 10.3543 22.8339C9.84205 23.4116 8.92652 23.4007 8.42516 22.8993C8.23987 22.7141 8.01099 22.3762 8.01099 21.8203V20.3707H8.75213V21.8203C8.75213 22.3544 9.07911 22.5397 9.36249 22.5397C9.64586 22.5397 9.97284 22.3544 9.97284 21.8203H10.714C10.714 22.3544 11.1064 22.5397 11.4333 22.5397C11.7603 22.5397 12.1527 22.3544 12.1527 21.8203H12.8938C12.8938 22.3544 13.2862 22.5397 13.6132 22.5397C13.9401 22.5397 14.3325 22.3544 14.3325 21.8203H15.0737C15.0737 22.3544 15.466 22.5397 15.793 22.5397C16.12 22.5397 16.5123 22.3544 16.5123 21.8203H17.2535C17.2535 22.3544 17.6459 22.5397 17.9728 22.5397C18.2998 22.5397 18.6922 22.3544 18.6922 21.8203H19.4333C19.4333 22.3544 19.8257 22.5397 20.1527 22.5397C20.4797 22.5397 20.872 22.3544 20.872 21.8203H21.6132C21.6132 22.3871 22.1363 22.5397 22.4415 22.5397C22.7467 22.5397 23.2698 22.3871 23.2698 21.8203V20.3707H24.011V21.8203C24.011 22.7794 23.2262 23.2808 22.4415 23.2808V23.2699Z" fill="currentColor"/>
<path d="M9.08977 12H6.17969V14.9101H9.08977V12Z" fill="white"/>
<path d="M9.4604 15.2806H5.82007V11.6403H9.4604V15.2806ZM6.55031 14.5395H8.71925V12.3706H6.55031V14.5395Z" fill="currentColor"/>
<path fill-rule="evenodd" clip-rule="evenodd" d="M23.4223 20.7303H8.15259C8.15259 16.3706 11.5749 13.1008 15.782 13.1008C19.9891 13.1008 23.4114 16.3706 23.4114 20.7303H23.4223Z" fill="white"/>
<path d="M23.7929 21.0899H7.78198V20.7194C7.78198 16.2289 11.2915 12.7194 15.782 12.7194C20.2724 12.7194 23.782 16.2398 23.782 20.7194V21.0899H23.7929ZM8.53403 20.3597H23.0408C22.8556 16.4687 19.7384 13.4605 15.782 13.4605C11.8256 13.4605 8.70841 16.4578 8.52313 20.3597H8.53403Z" fill="currentColor"/>
<path d="M4.73039 7.64038H1.82031V10.5505H4.73039V7.64038Z" fill="white"/>
<path d="M5.10093 10.9101H1.44971V7.26978H5.09003V10.9101H5.10093ZM2.19085 10.1798H4.35979V8.01093H2.19085V10.1798Z" fill="currentColor"/>
<path d="M9.08977 7.64038H6.17969V10.5505H9.08977V7.64038Z" fill="white"/>
<path d="M9.4604 10.9101H5.82007V7.26978H9.4604V10.9101ZM6.55031 10.1798H8.71925V8.01093H6.55031V10.1798Z" fill="currentColor"/>
<path d="M4.73039 16.3597H1.82031V19.2698H4.73039V16.3597Z" fill="white"/>
<path d="M5.10093 19.6403H1.44971V16H5.09003V19.6403H5.10093ZM2.19085 18.8992H4.35979V16.7302H2.19085V18.8992Z" fill="currentColor"/>
<path d="M4.73039 12H1.82031V14.9101H4.73039V12Z" fill="white"/>
<path d="M5.10093 15.2806H1.44971V11.6403H5.09003V15.2806H5.10093ZM2.19085 14.5395H4.35979V12.3706H2.19085V14.5395Z" fill="currentColor"/>
<path d="M25.8202 7.64038H22.9102V10.5505H25.8202V7.64038Z" fill="white"/>
<path d="M26.1798 10.9101H22.5396V7.26978H26.1798V10.9101ZM23.2698 10.1798H25.4387V8.01093H23.2698V10.1798Z" fill="currentColor"/>
<path d="M30.1801 7.64038H27.27V10.5505H30.1801V7.64038Z" fill="white"/>
<path d="M30.5397 10.9101H26.8994V7.26978H30.5397V10.9101ZM27.6406 10.1798H29.8095V8.01093H27.6406V10.1798Z" fill="currentColor"/>
<path d="M30.1801 16.3597H27.27V19.2698H30.1801V16.3597Z" fill="white"/>
<path d="M30.5397 19.6403H26.8994V16H30.5397V19.6403ZM27.6406 18.8992H29.8095V16.7302H27.6406V18.8992Z" fill="currentColor"/>
<path d="M30.1801 12H27.27V14.9101H30.1801V12Z" fill="white"/>
<path d="M30.5397 15.2806H26.8994V11.6403H30.5397V15.2806ZM27.6406 14.5395H29.8095V12.3706H27.6406V14.5395Z" fill="currentColor"/>
<path d="M22.8011 0.370605H9.19896C8.33818 0.370605 7.64038 1.06841 7.64038 1.92919V3.1717C7.64038 4.03248 8.33818 4.73028 9.19896 4.73028H22.8011C23.6619 4.73028 24.3597 4.03248 24.3597 3.1717V1.92919C24.3597 1.06841 23.6619 0.370605 22.8011 0.370605Z" fill="white"/>
<path d="M23.6185 5.10082H8.37059C7.76024 5.10082 7.26978 4.59945 7.26978 4V1.10082C7.26978 0.490463 7.77114 0 8.37059 0H23.6185C24.2289 0 24.7194 0.501362 24.7194 1.10082V3.9891C24.7194 4.59945 24.218 5.08992 23.6185 5.08992V5.10082ZM8.37059 0.741144C8.16351 0.741144 8.00002 0.904632 8.00002 1.11172V4C8.00002 4.20708 8.16351 4.37057 8.37059 4.37057H23.6185C23.8256 4.37057 23.9891 4.20708 23.9891 4V1.10082C23.9891 0.893733 23.8256 0.730245 23.6185 0.730245H8.37059V0.741144Z" fill="currentColor"/>
<path d="M21.8639 1.63489L22.1582 2.26704L22.823 2.36513L22.3435 2.8556L22.4525 3.55314L21.8639 3.22617L21.2754 3.55314L21.3843 2.8556L20.9048 2.36513L21.5696 2.26704L21.8639 1.63489Z" fill="currentColor"/>
<path d="M22.8884 4.1635L21.8639 3.59674L20.8394 4.1635L21.0355 2.97549L20.229 2.14715L21.3407 1.97277L21.853 0.871948L22.3652 1.97277L23.477 2.14715L22.6704 2.97549L22.8666 4.1635H22.8884ZM21.5805 2.59402L21.7331 2.74661L21.7004 2.94279L21.8639 2.8556L22.0274 2.94279L21.9947 2.74661L22.1473 2.59402L21.9402 2.56132L21.8639 2.39783L21.7876 2.56132L21.5805 2.59402Z" fill="currentColor"/>
<path d="M18.692 1.63489L18.9863 2.26704L19.6512 2.36513L19.1716 2.8556L19.2806 3.55314L18.692 3.22617L18.1035 3.55314L18.2125 2.8556L17.7329 2.36513L18.3978 2.26704L18.692 1.63489Z" fill="currentColor"/>
<path d="M19.7165 4.1635L18.692 3.59674L17.6675 4.1635L17.8637 2.97549L17.0571 2.14715L18.1688 1.97277L18.6811 0.871948L19.1934 1.97277L20.3051 2.14715L19.4985 2.97549L19.6947 4.1635H19.7165ZM18.692 2.8556L18.8555 2.94279L18.8228 2.74661L18.9754 2.59402L18.7683 2.56132L18.692 2.39783L18.6157 2.56132L18.4086 2.59402L18.5612 2.74661L18.5285 2.94279L18.692 2.8556Z" fill="currentColor"/>
<path d="M15.7819 1.63489L16.0871 2.26704L16.741 2.36513L16.2614 2.8556L16.3813 3.55314L15.7819 3.22617L15.1933 3.55314L15.3023 2.8556L14.8228 2.36513L15.4876 2.26704L15.7819 1.63489Z" fill="currentColor"/>
<path d="M14.7683 4.1635L14.9645 2.97549L14.158 2.14715L15.2697 1.97277L15.7819 0.871948L16.2942 1.97277L17.4059 2.14715L16.5994 2.97549L16.7956 4.1635L15.771 3.59674L14.7465 4.1635H14.7683ZM15.7819 2.8556L15.9454 2.94279L15.9127 2.74661L16.0653 2.59402L15.8582 2.56132L15.7819 2.39783L15.7056 2.56132L15.4986 2.59402L15.6511 2.74661L15.6184 2.94279L15.7819 2.8556Z" fill="currentColor"/>
<path d="M12.8065 1.63489L13.1008 2.26704L13.7657 2.36513L13.2861 2.8556L13.406 3.55314L12.8065 3.22617L12.218 3.55314L12.327 2.8556L11.8474 2.36513L12.5123 2.26704L12.8065 1.63489Z" fill="currentColor"/>
<path d="M13.831 4.1635L12.8065 3.59674L11.782 4.1635L11.9782 2.97549L11.1716 2.14715L12.2833 1.97277L12.7956 0.871948L13.3079 1.97277L14.4196 2.14715L13.613 2.97549L13.8092 4.1635H13.831ZM12.5231 2.59402L12.6757 2.74661L12.643 2.94279L12.8065 2.8556L12.97 2.94279L12.9373 2.74661L13.0899 2.59402L12.8828 2.56132L12.8065 2.39783L12.7302 2.56132L12.5231 2.59402Z" fill="currentColor"/>
<path d="M9.80923 1.63489L10.1144 2.26704L10.7793 2.36513L10.2997 2.8556L10.4087 3.55314L9.80923 3.22617L9.22067 3.55314L9.32966 2.8556L8.8501 2.36513L9.51495 2.26704L9.80923 1.63489Z" fill="currentColor"/>
<path d="M8.79566 4.1635L8.99184 2.97549L8.1853 2.14715L9.29702 1.97277L9.80928 0.871948L10.3215 1.97277L11.4333 2.14715L10.6267 2.97549L10.8229 4.1635L9.79838 3.59674L8.77386 4.1635H8.79566ZM9.80928 2.8556L9.97277 2.94279L9.94007 2.74661L10.0927 2.59402L9.88557 2.56132L9.80928 2.39783L9.73299 2.56132L9.5259 2.59402L9.67849 2.74661L9.64579 2.94279L9.80928 2.8556Z" fill="currentColor"/>
<path fill-rule="evenodd" clip-rule="evenodd" d="M9.87476 19.0409C10.6486 16.5123 13.0028 14.6812 15.7821 14.6812C18.5614 14.6812 20.9156 16.5123 21.6895 19.0409" fill="white"/>
<path d="M10.2343 19.1498L9.52588 18.9318C10.376 16.1634 12.8937 14.3105 15.782 14.3105C18.6703 14.3105 21.188 16.1634 22.0381 18.9318L21.3297 19.1498C20.5777 16.6975 18.3433 15.0517 15.7711 15.0517C13.1989 15.0517 10.9646 16.6975 10.2125 19.1498H10.2343Z" fill="currentColor"/>
<path d="M17.2425 26.5068H16.5122V27.2371H17.2425V26.5068Z" fill="white"/>
<path d="M17.6021 26.1362H16.1416V27.5967H17.6021V26.1362Z" fill="currentColor"/>
<path d="M9.46038 4.37061H8.71924V5.82021H9.46038V4.37061Z" fill="currentColor"/>
<path d="M23.2807 4.37061H22.5396V5.82021H23.2807V4.37061Z" fill="currentColor"/>
<path d="M24.1523 27.2371C25.8526 28.2071 27.542 28.2071 29.2423 27.2371H24.1523Z" fill="white"/>
<path d="M26.6921 28.3271C25.7765 28.3271 24.8719 28.0655 23.9673 27.5532L24.3379 26.9102C25.9291 27.8148 27.4659 27.8148 29.0572 26.9102L29.4278 27.5532C28.5231 28.0655 27.6076 28.3271 26.703 28.3271H26.6921Z" fill="currentColor"/>
<path d="M24.7304 27.6294H23.9893V31.2698H24.7304V27.6294Z" fill="currentColor"/>
<path d="M29.8202 27.6294H29.0791V31.2698H29.8202V27.6294Z" fill="currentColor"/>
</g>
</g>
<defs>
<clipPath id="clip0_2457_4245">
<rect width="32" height="32" fill="white"/>
</clipPath>
</defs>
</svg>
