<svg width="200" height="200" viewBox="0 0 200 200" fill="none" xmlns="http://www.w3.org/2000/svg">
<g clip-path="url(#clip0_2471_1945)">
<path d="M73.3333 123.333C73.3333 125.173 74.8266 126.666 76.6665 126.666H90C91.8399 126.666 93.3333 125.173 93.3333 123.333V103.333C93.3333 101.493 91.8399 100 90 100H76.6668C74.827 100 73.3336 101.493 73.3336 103.333L73.3333 123.333ZM80 106.667H86.6668V120H80V106.667Z" fill="currentColor"/>
<path d="M76.6667 86.6668H89.9999C91.8397 86.6668 93.3331 85.1734 93.3331 83.3336V63.3336C93.3331 61.4937 91.8397 60.0004 89.9999 60.0004H76.6667C74.8269 60.0004 73.3335 61.4937 73.3335 63.3336V83.3336C73.3331 85.1734 74.8265 86.6668 76.6667 86.6668ZM79.9999 66.6668H86.6667V80H79.9999V66.6668Z" fill="currentColor"/>
<path d="M51.7168 62.8566L100 33.8867L148.283 62.8566C148.82 63.1801 149.413 63.3332 149.996 63.3332C151.13 63.3332 152.233 62.7566 152.857 61.7164C153.807 60.1363 153.293 58.0898 151.717 57.143L103.333 28.1133V6.6668H120V13.3336H110C108.16 13.3336 106.667 14.827 106.667 16.6668C106.667 18.5066 108.16 20 110 20H123.333C125.173 20 126.666 18.5066 126.666 16.6668V3.3332C126.666 1.49336 125.173 0 123.333 0H100C98.1602 0 96.6668 1.49336 96.6668 3.3332V28.1133L48.2836 57.1434C46.707 58.0898 46.1938 60.1367 47.1438 61.7168C48.0867 63.2934 50.1399 63.8066 51.7168 62.8566Z" fill="currentColor"/>
<path d="M36.6668 126.667C38.5066 126.667 40 125.173 40 123.334V103.334C40 101.494 38.5066 100 36.6668 100H23.3332C21.4934 100 20 101.494 20 103.334V110C20 111.84 21.4934 113.333 23.3332 113.333C25.173 113.333 26.6664 111.84 26.6664 110V106.667H33.3332V123.334C33.3332 125.173 34.8266 126.667 36.6668 126.667Z" fill="currentColor"/>
<path d="M59.9999 170V73.3332C59.9999 71.4934 58.5065 70 56.6667 70C54.8269 70 53.3335 71.4934 53.3335 73.3332V170C53.3335 171.84 54.8269 173.333 56.6667 173.333C58.5065 173.333 59.9999 171.84 59.9999 170Z" fill="currentColor"/>
<path d="M43.3332 186.667H156.666C158.506 186.667 160 185.173 160 183.334C160 181.494 158.506 180 156.666 180H126.666V146.667H130C131.839 146.667 133.333 145.174 133.333 143.334C133.333 141.494 131.839 140.001 130 140.001H70C68.1602 140.001 66.6668 141.494 66.6668 143.334C66.6668 145.174 68.1602 146.667 70 146.667H73.3332V180H43.3332C41.4934 180 40 181.493 40 183.333C40 185.173 41.4934 186.667 43.3332 186.667ZM103.333 166.667C105.173 166.667 106.666 165.173 106.666 163.334C106.666 161.494 105.173 160 103.333 160V146.667H120V180H103.333V166.667ZM80 146.667H96.6668V160C94.8269 160 93.3336 161.493 93.3336 163.333C93.3336 165.173 94.8269 166.666 96.6668 166.666V180H80V146.667Z" fill="currentColor"/>
<path d="M176.667 143.333H163.334C161.494 143.333 160 144.827 160 146.666V166.666C160 168.506 161.494 170 163.334 170H176.667C178.507 170 180 168.506 180 166.666V146.666C180 144.827 178.507 143.333 176.667 143.333ZM173.333 163.333H166.666V150H173.333V163.333Z" fill="currentColor"/>
<path d="M176.667 103.333H163.334C161.494 103.333 160 104.827 160 106.666V126.666C160 128.506 161.494 130 163.334 130H176.667C178.507 130 180 128.506 180 126.666V106.666C180 104.827 178.507 103.333 176.667 103.333ZM173.333 123.333H166.666V110H173.333V123.333Z" fill="currentColor"/>
<path d="M170 193.333H30C28.1601 193.333 26.6667 194.827 26.6667 196.666C26.6667 198.506 28.1601 200 30 200H170C171.84 200 173.333 198.507 173.333 196.667C173.333 194.827 171.84 193.333 170 193.333Z" fill="currentColor"/>
<path d="M196.667 73.3332C194.827 73.3332 193.333 74.8266 193.333 76.6664V79.9996H156.667C154.827 79.9996 153.333 81.493 153.333 83.3328C153.333 85.1726 154.827 86.666 156.667 86.666H193.333V196.666C193.333 198.506 194.827 199.999 196.667 199.999C198.507 199.999 200 198.506 200 196.666V76.666C200 74.8265 198.507 73.3332 196.667 73.3332Z" fill="currentColor"/>
<path d="M106.667 123.333C106.667 125.173 108.16 126.666 110 126.666H123.333C125.173 126.666 126.666 125.173 126.666 123.333V103.333C126.666 101.493 125.173 100 123.333 100H110C108.16 100 106.667 101.493 106.667 103.333V123.333ZM113.333 106.667H120V120H113.333V106.667Z" fill="currentColor"/>
<path d="M33.3332 163.333C33.3332 162.9 33.1434 120 16.6664 120C0.189844 120 0 162.9 0 163.333C0 171.383 5.73672 178.113 13.3332 179.663V196.667C13.3332 198.507 14.8266 200 16.6664 200C18.5063 200 19.9996 198.507 19.9996 196.667V179.663C27.5965 178.113 33.3332 171.383 33.3332 163.333ZM16.6668 173.333C11.1535 173.333 6.6668 168.846 6.6668 163.333C6.6668 146.727 11.127 126.666 16.6668 126.666C22.2066 126.666 26.6668 146.727 26.6668 163.333C26.6668 168.846 22.1801 173.333 16.6668 173.333Z" fill="currentColor"/>
<path d="M146.667 170V70C146.667 68.1602 145.174 66.6668 143.334 66.6668C141.494 66.6668 140 68.1602 140 70V170C140 171.84 141.494 173.333 143.334 173.333C145.174 173.333 146.667 171.84 146.667 170Z" fill="currentColor"/>
<path d="M110 86.6668H123.333C125.173 86.6668 126.666 85.1734 126.666 83.3336V63.3336C126.666 61.4937 125.173 60.0004 123.333 60.0004H110C108.16 60.0004 106.667 61.4937 106.667 63.3336V83.3336C106.667 85.1734 108.16 86.6668 110 86.6668ZM113.333 66.6668H120V80H113.333V66.6668Z" fill="currentColor"/>
<path d="M3.3332 116.667C5.17305 116.667 6.66641 115.173 6.66641 113.334V86.6668H43.3332C45.173 86.6668 46.6664 85.1734 46.6664 83.3336C46.6664 81.4937 45.173 80.0004 43.3332 80.0004H6.6668V76.6672C6.6668 74.8273 5.17344 73.334 3.33359 73.334C1.49375 73.334 0 74.8266 0 76.6668V113.334C0 115.173 1.49336 116.667 3.3332 116.667Z" fill="currentColor"/>
</g>
<defs>
<clipPath id="clip0_2471_1945">
<rect width="200" height="200" fill="white"/>
</clipPath>
</defs>
</svg>
