<?xml version="1.0" encoding="UTF-8"?>
<svg id="Capa_1" xmlns="http://www.w3.org/2000/svg" viewBox="0 0 100 100">
  <defs>
    <style>
      .cls-1 {
        fill: currentColor;
      }
    </style>
  </defs>
  <path class="cls-1" d="M96.8,52.1h-1.8v-2.2c0-2-1.6-3.5-3.5-3.5h-35.6c-2,0-3.5,1.6-3.5,3.5v2.2h-25.1c-.8,0-1.5.6-1.5,1.5s.6,1.5,1.5,1.5h69.4v3.2H3.4v-3.2h18c.8,0,1.5-.6,1.5-1.5s-.6-1.5-1.5-1.5H3.2c-1.5,0-2.7,1.2-2.7,2.7v41c0,2.1,1.7,3.9,3.9,3.9h91.2c2.1,0,3.9-1.7,3.9-3.9v-41c0-1.5-1.2-2.7-2.7-2.7h0ZM55.2,49.8c0-.4.3-.6.6-.6h35.6c.4,0,.6.3.6.6v2.2h-36.9v-2.2ZM50.4,61v35.7h-21.6v-35.7h21.6ZM3.4,95.7v-34.7h22.5v35.7H4.4c-.5,0-1-.4-1-1ZM95.6,96.7h-42.3v-35.7h43.3v34.7c0,.5-.4,1-1,1Z"/>
  <path class="cls-1" d="M3.2,32.7h39.4c1.5,0,2.7-1.2,2.7-2.7V3.6c0-1.5-1.2-2.7-2.7-2.7H3.2C1.7.9.5,2.1.5,3.6v26.5c0,1.5,1.2,2.7,2.7,2.7h0ZM42.3,29.8h-18V3.8h18v26ZM3.4,3.8h18v26H3.4V3.8Z"/>
  <path class="cls-1" d="M52.8,32.7h21.3c.8,0,1.5-.6,1.5-1.5s-.6-1.5-1.5-1.5h-21v-3.7h39.1v3.7h-12.2c-.8,0-1.5.6-1.5,1.5s.6,1.5,1.5,1.5h12.5c1.5,0,2.7-1.2,2.7-2.7v-4.2c0-1.4-1.1-2.6-2.5-2.6l-7.2-13.7-.3-7.6c0-.8-.7-1.4-1.4-1.4h-21.7c-.4,0-.8.2-1,.4-.3.3-.4.7-.4,1v7.6c.1,0-7,13.7-7,13.7h-.6c-1.5,0-2.7,1.2-2.7,2.7v4.2c0,1.5,1.2,2.7,2.7,2.7h0ZM82.2,3.3l.2,5.1h-18.9V3.3c0,0,18.7,0,18.7,0ZM62.9,11.3h20.1l6.2,11.9h-32.6l6.2-11.9Z"/>
  <path class="cls-1" d="M45.9,71.1c.8,0,1.5-.6,1.5-1.5v-3.4c0-.8-.6-1.5-1.5-1.5s-1.5.6-1.5,1.5v3.4c0,.8.6,1.5,1.5,1.5Z"/>
  <path class="cls-1" d="M92.2,64.8c-.8,0-1.5.6-1.5,1.5v3.4c0,.8.6,1.5,1.5,1.5s1.5-.6,1.5-1.5v-3.4c0-.8-.6-1.5-1.5-1.5Z"/>
  <path class="cls-1" d="M21.6,64.8c-.8,0-1.5.6-1.5,1.5v3.4c0,.8.6,1.5,1.5,1.5s1.5-.6,1.5-1.5v-3.4c0-.8-.6-1.5-1.5-1.5Z"/>
  <path class="cls-1" d="M17.1,19.8c-.8,0-1.5.6-1.5,1.5v3.4c0,.8.6,1.5,1.5,1.5s1.5-.6,1.5-1.5v-3.4c0-.8-.6-1.5-1.5-1.5Z"/>
  <path class="cls-1" d="M28.4,26c.8,0,1.5-.6,1.5-1.5v-3.4c0-.8-.6-1.5-1.5-1.5s-1.5.6-1.5,1.5v3.4c0,.8.6,1.5,1.5,1.5Z"/>
</svg>