<svg width="29" height="32" viewBox="0 0 29 32" fill="none" xmlns="http://www.w3.org/2000/svg">
<g clip-path="url(#clip0_1660_1405)">
<path d="M4.21991 31.775C4.13991 31.655 4.03991 31.555 3.97991 31.425C3.83991 31.135 3.70991 30.845 3.58991 30.555C3.52991 30.415 3.44991 30.355 3.28991 30.355C2.88991 30.345 2.86991 30.315 2.86991 29.895C2.86991 26.635 2.86991 23.385 2.86991 20.125C2.86991 19.705 2.91991 19.695 2.45991 19.705C2.20991 19.705 1.96991 19.705 1.71991 19.705C1.40991 19.705 1.33991 19.635 1.33991 19.315C1.33991 18.495 1.33991 17.675 1.33991 16.845C1.33991 16.635 1.28991 16.495 1.08991 16.375C0.749907 16.165 0.629907 15.735 0.749907 15.375C0.879907 15.005 1.19991 14.765 1.58991 14.765C1.99991 14.765 2.32991 14.985 2.45991 15.375C2.58991 15.745 2.45991 16.175 2.12991 16.375C1.91991 16.505 1.85991 16.655 1.87991 16.875C1.88991 17.075 1.87991 17.285 1.87991 17.495C1.87991 17.795 1.87991 17.795 2.19991 17.795C2.41991 17.795 2.62991 17.795 2.84991 17.795C3.75991 17.795 4.67991 17.795 5.58991 17.795C6.02991 17.795 6.01991 17.835 6.01991 17.355C6.01991 14.515 6.01991 11.665 6.01991 8.82498C6.01991 6.80498 6.62991 5.00498 7.88991 3.43498C9.23991 1.73498 11.0099 0.704976 13.1699 0.344976C13.4299 0.304976 13.6899 0.264976 13.9499 0.224976H15.0599C15.3099 0.264976 15.5599 0.304976 15.8099 0.344976C19.1699 0.964976 21.4199 2.90498 22.5799 6.10498C22.8899 6.94498 22.9999 7.83498 22.9999 8.73498C22.9999 11.615 22.9999 14.485 22.9999 17.365C22.9999 17.6516 23.1466 17.795 23.4399 17.795C24.5399 17.795 25.6399 17.795 26.7399 17.795C26.8199 17.795 26.8999 17.795 26.9899 17.795C27.0999 17.795 27.1599 17.735 27.1599 17.625C27.1599 17.295 27.1599 16.965 27.1599 16.635C27.1599 16.475 27.0299 16.445 26.9299 16.375C26.4699 16.075 26.3999 15.425 26.7899 15.035C27.0399 14.775 27.3499 14.705 27.6999 14.815C28.0499 14.925 28.2499 15.175 28.2899 15.525C28.3299 15.875 28.2099 16.185 27.8999 16.365C27.7299 16.465 27.6799 16.575 27.6799 16.765C27.6799 17.555 27.6799 18.345 27.6799 19.135C27.6799 19.215 27.6799 19.295 27.6799 19.385C27.6599 19.595 27.5799 19.675 27.3599 19.675C27.0999 19.675 26.8499 19.675 26.5899 19.675C26.2966 19.675 26.1499 19.8183 26.1499 20.105C26.1499 23.205 26.1499 26.305 26.1499 29.405C26.1499 29.605 26.1499 29.795 26.1499 29.995C26.1499 30.255 26.0799 30.345 25.8199 30.325C25.5699 30.315 25.4499 30.415 25.3699 30.645C25.2799 30.905 25.1599 31.155 25.0299 31.405C24.9699 31.535 24.8799 31.645 24.7999 31.765H4.21991V31.775ZM20.9299 13.135V8.88498C20.9299 8.79498 20.9299 8.70498 20.9299 8.60498C20.9299 8.47498 20.8699 8.41498 20.7399 8.41498C20.6699 8.41498 20.5999 8.41498 20.5199 8.41498C18.7199 8.41498 16.9199 8.41498 15.1299 8.41498C14.7499 8.41498 14.7499 8.41498 14.7499 8.78498V8.81498C14.7499 11.675 14.7499 14.525 14.7499 17.385C14.7499 17.465 14.7499 17.545 14.7499 17.635C14.7499 17.745 14.8099 17.805 14.9199 17.805C14.9899 17.805 15.0599 17.805 15.1399 17.805H20.5299C20.5899 17.805 20.6499 17.805 20.7099 17.805C20.8499 17.805 20.9199 17.755 20.9199 17.605C20.9199 17.525 20.9199 17.445 20.9199 17.355V13.135M14.2699 13.105V8.85498C14.2699 8.77498 14.2699 8.69498 14.2699 8.60498C14.2699 8.47498 14.2099 8.41498 14.0799 8.41498C13.9999 8.41498 13.9199 8.41498 13.8299 8.41498C12.0699 8.41498 10.2999 8.41498 8.53991 8.41498C8.07991 8.41498 8.09991 8.38498 8.09991 8.84498C8.09991 11.695 8.09991 14.555 8.09991 17.405C8.09991 17.465 8.09991 17.525 8.09991 17.585C8.09991 17.735 8.16991 17.785 8.30991 17.785C8.38991 17.785 8.46991 17.785 8.55991 17.785C10.0199 17.785 11.4699 17.785 12.9299 17.785C13.2999 17.785 13.6699 17.785 14.0399 17.785C14.2099 17.785 14.2899 17.725 14.2799 17.555C14.2799 17.475 14.2799 17.395 14.2799 17.305V13.085M21.4099 12.795V17.355C21.4099 17.435 21.4099 17.515 21.4099 17.605C21.4099 17.745 21.4699 17.815 21.6199 17.805C21.7799 17.805 21.9499 17.805 22.1099 17.805C22.5199 17.805 22.5199 17.805 22.5199 17.395C22.5199 14.535 22.5199 11.685 22.5199 8.82498C22.5199 8.46498 22.4999 8.10498 22.4499 7.75498C22.1899 5.95498 21.4599 4.37498 20.1399 3.09498C18.2299 1.23498 15.9399 0.484976 13.3199 0.854976C11.1899 1.15498 9.46991 2.21498 8.14991 3.91498C6.99991 5.40498 6.49991 7.10498 6.49991 8.97498C6.49991 11.775 6.49991 14.585 6.49991 17.385C6.49991 17.425 6.49991 17.465 6.49991 17.505C6.49991 17.775 6.50991 17.785 6.76991 17.795C6.92991 17.795 7.09991 17.795 7.25991 17.795C7.53991 17.795 7.53991 17.795 7.54991 17.495C7.54991 17.425 7.54991 17.355 7.54991 17.275C7.54991 14.485 7.54991 11.685 7.54991 8.89498C7.54991 8.52498 7.56991 8.15498 7.61991 7.79498C7.86991 6.12498 8.59991 4.70498 9.86991 3.59498C11.7899 1.91498 13.9999 1.44498 16.4499 2.11498C17.8799 2.50498 19.0399 3.33498 19.9499 4.50498C20.8599 5.67498 21.3699 6.99498 21.3899 8.48498C21.4099 9.92498 21.3899 11.365 21.3899 12.795M14.4999 19.195V19.215H26.6999C27.1599 19.215 27.1599 19.215 27.1599 18.765C27.1599 18.295 27.2399 18.275 26.6799 18.285C21.4999 18.295 16.3299 18.315 11.1499 18.325C8.21991 18.325 5.29991 18.325 2.36991 18.325C1.80991 18.325 1.86991 18.265 1.86991 18.815C1.86991 19.195 1.86991 19.195 2.23991 19.195H14.4999ZM25.6599 24.815C25.6599 23.225 25.6599 21.635 25.6599 20.045C25.6599 19.715 25.6399 19.695 25.3099 19.695C24.7599 19.695 24.1999 19.695 23.6499 19.695C23.3099 19.695 23.2999 19.695 23.2999 20.035C23.2999 21.175 23.2999 22.315 23.2999 23.455C23.2999 23.655 23.3599 23.765 23.5399 23.855C23.9099 24.035 24.0999 24.375 24.0999 24.775C24.0999 25.185 23.9199 25.525 23.5499 25.695C23.3399 25.795 23.2999 25.925 23.2999 26.125C23.2999 27.255 23.2999 28.385 23.2999 29.515C23.2999 29.855 23.2999 29.865 23.6399 29.865C24.1699 29.865 24.7099 29.865 25.2399 29.865C25.6499 29.865 25.6599 29.865 25.6599 29.455V24.805V24.815ZM3.39991 24.785C3.39991 26.365 3.39991 27.945 3.39991 29.525C3.39991 29.845 3.39991 29.855 3.71991 29.865C4.26991 29.865 4.82991 29.865 5.37991 29.865C5.69991 29.865 5.70991 29.865 5.70991 29.535C5.70991 28.395 5.70991 27.255 5.70991 26.115C5.70991 25.915 5.65991 25.805 5.46991 25.705C5.08991 25.515 4.89991 25.175 4.89991 24.755C4.89991 24.335 5.09991 24.015 5.45991 23.835C5.66991 23.735 5.69991 23.605 5.69991 23.405C5.69991 22.545 5.69991 21.685 5.69991 20.815C5.69991 20.515 5.69991 20.215 5.69991 19.925C5.69991 19.775 5.65991 19.695 5.48991 19.695C4.84991 19.695 4.21991 19.695 3.57991 19.695C3.45991 19.695 3.38991 19.755 3.38991 19.885C3.38991 19.965 3.38991 20.045 3.38991 20.135V24.785M14.2699 21.735C14.2699 21.155 14.2699 20.565 14.2699 19.985C14.2699 19.725 14.2499 19.705 13.9899 19.705C13.3899 19.705 12.7999 19.705 12.1999 19.705C11.9399 19.705 11.9199 19.725 11.9099 19.985C11.9099 21.155 11.9099 22.325 11.9099 23.495C11.9099 23.655 11.9499 23.755 12.1099 23.835C12.4899 24.025 12.7199 24.345 12.7199 24.795C12.7199 25.245 12.5099 25.555 12.1199 25.755C11.9699 25.825 11.9199 25.925 11.9199 26.095C11.9199 27.265 11.9199 28.435 11.9199 29.605C11.9199 29.875 11.9399 29.895 12.2199 29.895C12.7999 29.895 13.3699 29.895 13.9499 29.895C14.2699 29.895 14.2799 29.885 14.2799 29.565C14.2799 28.425 14.2799 27.285 14.2799 26.145C14.2799 25.955 14.2299 25.825 14.0399 25.735C13.6599 25.545 13.4599 25.235 13.4699 24.795C13.4699 24.365 13.6599 24.035 14.0499 23.855C14.2299 23.765 14.2799 23.665 14.2799 23.475C14.2799 22.905 14.2799 22.325 14.2799 21.745M17.1099 21.745C17.1099 21.165 17.1099 20.575 17.1099 19.985C17.1099 19.715 17.0899 19.695 16.8399 19.695C16.2399 19.695 15.6299 19.695 15.0199 19.695C14.7799 19.695 14.7599 19.725 14.7599 19.965C14.7599 21.145 14.7599 22.325 14.7599 23.505C14.7599 23.655 14.7999 23.745 14.9499 23.815C15.1099 23.895 15.2699 24.015 15.3699 24.155C15.7199 24.625 15.6399 25.385 14.9999 25.705C14.8399 25.785 14.7499 25.875 14.7499 26.075C14.7499 27.245 14.7499 28.415 14.7499 29.585C14.7499 29.845 14.7699 29.865 15.0299 29.865C15.6099 29.865 16.1999 29.865 16.7899 29.865C17.0899 29.865 17.1099 29.845 17.1099 29.555C17.1099 28.395 17.1099 27.235 17.1099 26.075C17.1099 25.895 17.0599 25.795 16.8899 25.715C16.5099 25.525 16.2999 25.215 16.2999 24.785C16.2999 24.335 16.5199 24.015 16.8999 23.825C17.0699 23.735 17.1099 23.635 17.1099 23.465C17.1099 22.885 17.1099 22.315 17.1099 21.735M19.9499 21.735C19.9499 21.165 19.9499 20.585 19.9499 20.005C19.9499 19.705 19.9399 19.695 19.6399 19.695C19.0899 19.695 18.5299 19.695 17.9799 19.695C17.5999 19.695 17.5999 19.695 17.5999 20.065C17.5999 21.115 17.5999 22.155 17.5999 23.205C17.5999 23.525 17.6299 23.755 17.9699 23.915C18.5699 24.215 18.5899 25.305 17.9699 25.625C17.6299 25.805 17.5599 26.035 17.5999 26.355C17.6199 26.495 17.5999 26.645 17.5999 26.785C17.5999 27.685 17.5999 28.595 17.5999 29.495C17.5999 29.835 17.6199 29.855 17.9699 29.855C18.5299 29.855 19.0999 29.855 19.6599 29.855C19.9299 29.855 19.9499 29.835 19.9499 29.585C19.9499 28.405 19.9499 27.225 19.9499 26.045C19.9499 25.895 19.9199 25.795 19.7699 25.725C19.0099 25.395 18.8899 24.265 19.7499 23.805C19.8999 23.725 19.9499 23.635 19.9499 23.465C19.9499 22.875 19.9499 22.295 19.9499 21.705M9.06991 27.825C9.06991 28.415 9.06991 29.015 9.06991 29.615C9.06991 29.845 9.08991 29.875 9.30991 29.875C9.92991 29.875 10.5399 29.875 11.1599 29.875C11.3899 29.875 11.4299 29.835 11.4299 29.595C11.4299 28.415 11.4299 27.235 11.4299 26.055C11.4299 25.905 11.3799 25.815 11.2299 25.745C10.9199 25.615 10.7099 25.375 10.6399 25.045C10.5299 24.495 10.6999 24.095 11.1999 23.835C11.3799 23.745 11.4299 23.635 11.4299 23.445C11.4299 22.295 11.4299 21.145 11.4299 19.995C11.4299 19.725 11.3999 19.695 11.1299 19.695C10.5499 19.695 9.95991 19.695 9.37991 19.695C9.09991 19.695 9.08991 19.705 9.08991 19.995C9.08991 21.155 9.08991 22.315 9.08991 23.475C9.08991 23.645 9.13991 23.745 9.30991 23.825C9.67991 24.015 9.89991 24.325 9.88991 24.765C9.88991 25.185 9.69991 25.525 9.30991 25.715C9.13991 25.805 9.07991 25.905 9.07991 26.095C9.07991 26.665 9.07991 27.245 9.07991 27.815M22.7799 21.735C22.7799 21.135 22.7799 20.545 22.7799 19.945C22.7799 19.785 22.7399 19.695 22.5599 19.695C21.9299 19.695 21.3099 19.695 20.6799 19.695C20.5499 19.695 20.4699 19.745 20.4599 19.895C20.4599 20.385 20.4399 20.875 20.4299 21.375C20.4299 21.785 20.4299 22.195 20.4299 22.605C20.4299 22.905 20.4299 23.195 20.4299 23.495C20.4299 23.655 20.4899 23.765 20.6399 23.835C21.0499 24.015 21.2499 24.355 21.2599 24.785C21.2599 25.215 21.0499 25.555 20.6499 25.745C20.4899 25.825 20.4299 25.925 20.4299 26.105C20.4299 27.265 20.4299 28.425 20.4299 29.585C20.4299 29.845 20.4699 29.885 20.7399 29.885C21.3199 29.885 21.9099 29.885 22.4899 29.885C22.7599 29.885 22.7799 29.865 22.7799 29.575C22.7799 28.415 22.7799 27.255 22.7799 26.095C22.7799 25.925 22.7399 25.815 22.5699 25.735C22.1599 25.545 21.9799 25.195 21.9799 24.765C21.9799 24.355 22.1799 24.035 22.5599 23.855C22.7299 23.775 22.7799 23.675 22.7799 23.495C22.7799 22.915 22.7799 22.325 22.7799 21.745M6.23991 27.835C6.23991 28.405 6.23991 28.985 6.23991 29.555C6.23991 29.855 6.24991 29.865 6.55991 29.865C7.11991 29.865 7.68991 29.865 8.24991 29.865C8.52991 29.865 8.54991 29.845 8.54991 29.575C8.54991 28.405 8.54991 27.235 8.54991 26.065C8.54991 25.905 8.50991 25.805 8.34991 25.725C7.93991 25.535 7.74991 25.195 7.74991 24.765C7.74991 24.345 7.94991 24.015 8.33991 23.835C8.50991 23.755 8.54991 23.645 8.54991 23.475C8.54991 22.315 8.54991 21.155 8.54991 19.995C8.54991 19.715 8.53991 19.705 8.24991 19.705C7.68991 19.705 7.11991 19.705 6.55991 19.705C6.24991 19.705 6.23991 19.705 6.23991 20.015C6.23991 21.165 6.23991 22.315 6.23991 23.465C6.23991 23.645 6.28991 23.755 6.45991 23.845C6.83991 24.035 7.03991 24.365 7.03991 24.795C7.03991 25.215 6.83991 25.545 6.45991 25.735C6.28991 25.815 6.23991 25.915 6.23991 26.095C6.23991 26.675 6.23991 27.265 6.23991 27.845M14.5399 30.355C11.2699 30.355 7.98991 30.355 4.71991 30.355C4.04991 30.355 4.05991 30.355 4.32991 30.965C4.41991 31.155 4.51991 31.265 4.73991 31.235C4.85991 31.215 4.98991 31.235 5.10991 31.235C11.4199 31.235 17.7399 31.235 24.0499 31.235C24.6999 31.235 24.5199 31.315 24.7899 30.755C24.9799 30.355 24.9699 30.345 24.5199 30.345H14.5399M17.9599 7.92498C18.8299 7.92498 19.6999 7.92498 20.5799 7.92498C20.8599 7.92498 20.8899 7.88498 20.8399 7.65498C20.5399 6.08498 19.7899 4.77498 18.5499 3.76498C18.3099 3.57498 18.3099 3.57498 18.1299 3.81498C17.1799 5.07498 16.2199 6.33498 15.2699 7.58498C15.2399 7.62498 15.1999 7.66498 15.1799 7.70498C15.1499 7.75498 15.1399 7.81498 15.1199 7.86498C15.1799 7.87498 15.2299 7.90498 15.2899 7.90498C15.3499 7.90498 15.4099 7.90498 15.4699 7.90498H17.9599V7.92498ZM11.0199 7.91498C11.7499 7.91498 12.4799 7.91498 13.2099 7.91498C13.3799 7.91498 13.5599 7.91498 13.7299 7.91498C13.8899 7.91498 13.9099 7.85498 13.8199 7.72498C13.7899 7.68498 13.7599 7.64498 13.7199 7.60498C12.9899 6.69498 12.2499 5.78498 11.5199 4.87498C11.2499 4.53498 10.9699 4.20498 10.7099 3.86498C10.6099 3.74498 10.5199 3.71498 10.4099 3.83498C10.3599 3.88498 10.2999 3.92498 10.2499 3.97498C9.56991 4.58498 9.03991 5.31498 8.65991 6.14498C8.43991 6.63498 8.27991 7.14498 8.19991 7.67498C8.15991 7.90498 8.16991 7.91498 8.40991 7.92498C8.47991 7.92498 8.54991 7.92498 8.62991 7.92498H11.0299L11.0199 7.91498ZM14.2599 4.89498V2.77498C14.2599 2.69498 14.2599 2.61498 14.2599 2.52498C14.2599 2.41498 14.1999 2.35498 14.0799 2.36498C14.0099 2.36498 13.9399 2.36498 13.8599 2.36498C12.9099 2.46498 12.0199 2.75498 11.1999 3.25498C11.0099 3.36498 11.0099 3.38498 11.1699 3.58498C11.9899 4.60498 12.8099 5.63498 13.6299 6.65498C13.7799 6.83498 13.9199 7.02498 14.0699 7.20498C14.0999 7.24498 14.1599 7.26498 14.2099 7.29498C14.2199 7.23498 14.2399 7.18498 14.2499 7.12498C14.2499 7.06498 14.2499 7.00498 14.2499 6.94498V4.88498L14.2599 4.89498ZM14.7599 4.88498V6.94498C14.7599 7.02498 14.7599 7.10498 14.7599 7.19498C14.7599 7.22498 14.7899 7.26498 14.7999 7.26498C14.8399 7.26498 14.8699 7.24498 14.8999 7.22498C14.9299 7.20498 14.9499 7.16498 14.9799 7.13498C15.8999 5.92498 16.8199 4.72498 17.7299 3.51498C17.8699 3.32498 17.8699 3.29498 17.6699 3.18498C16.8799 2.73498 16.0199 2.45498 15.1099 2.38498C14.7599 2.35498 14.7599 2.37498 14.7599 2.73498C14.7599 3.45498 14.7599 4.17498 14.7599 4.88498ZM14.4999 25.325C14.8299 25.325 15.0699 25.095 15.0699 24.775C15.0699 24.485 14.8199 24.235 14.5199 24.225C14.2199 24.225 13.9599 24.465 13.9499 24.755C13.9499 25.075 14.1799 25.325 14.4999 25.325ZM11.6699 25.325C11.9599 25.325 12.2299 25.065 12.2299 24.785C12.2299 24.495 11.9499 24.215 11.6599 24.215C11.3699 24.215 11.1199 24.475 11.1099 24.765C11.1099 25.095 11.3299 25.325 11.6699 25.325ZM17.3399 25.325C17.6799 25.325 17.9099 25.105 17.9099 24.775C17.9099 24.475 17.6499 24.215 17.3699 24.215C17.0699 24.215 16.7899 24.485 16.7899 24.785C16.7899 25.065 17.0499 25.325 17.3499 25.325M23.0699 25.325C23.3699 25.325 23.6199 25.065 23.6199 24.775C23.6199 24.485 23.3299 24.205 23.0399 24.215C22.7499 24.215 22.5099 24.485 22.5099 24.785C22.5099 25.125 22.7399 25.335 23.0799 25.335M20.1999 25.325C20.5399 25.325 20.7599 25.095 20.7499 24.765C20.7499 24.465 20.4899 24.215 20.1999 24.215C19.9099 24.215 19.6299 24.505 19.6299 24.795C19.6299 25.085 19.8899 25.325 20.1899 25.325M8.81991 24.225C8.49991 24.225 8.25991 24.475 8.26991 24.795C8.26991 25.105 8.50991 25.325 8.82991 25.315C9.12991 25.315 9.37991 25.055 9.37991 24.765C9.37991 24.475 9.10991 24.215 8.82991 24.215M5.42991 24.745C5.41991 25.065 5.62991 25.305 5.93991 25.315C6.25991 25.335 6.49991 25.115 6.50991 24.805C6.51991 24.485 6.30991 24.255 5.99991 24.235C5.66991 24.215 5.43991 24.425 5.42991 24.735M27.4199 16.015C27.6399 16.015 27.7899 15.865 27.7999 15.655C27.7999 15.465 27.6299 15.275 27.4299 15.265C27.2399 15.265 27.0299 15.465 27.0299 15.655C27.0299 15.855 27.2099 16.015 27.4199 16.015ZM1.60991 15.295C1.40991 15.295 1.24991 15.425 1.23991 15.625C1.23991 15.825 1.35991 15.985 1.55991 16.005C1.76991 16.025 1.93991 15.875 1.93991 15.655C1.93991 15.455 1.80991 15.305 1.59991 15.295" fill="currentColor"/>
<path d="M16.1501 13.9849C16.0601 13.9249 15.9701 13.8849 15.9301 13.8149C15.9001 13.7549 15.9101 13.6549 15.9301 13.5949C15.9701 13.5149 16.0401 13.4449 16.1101 13.3849C16.7801 12.7149 17.4401 12.0549 18.1101 11.3849C18.1701 11.3249 18.2301 11.2749 18.2901 11.2249C18.3901 11.1449 18.5001 11.1449 18.5901 11.2449C18.6801 11.3349 18.7001 11.4449 18.6301 11.5549C18.5801 11.6249 18.5301 11.6849 18.4701 11.7449C17.8001 12.4249 17.1301 13.0949 16.4501 13.7649C16.3701 13.8449 16.2601 13.9149 16.1401 14.0049" fill="currentColor"/>
<path d="M19.7901 12.575C19.7901 12.575 19.7301 12.705 19.6601 12.765C18.9401 13.495 18.2201 14.215 17.4901 14.935C17.3401 15.085 17.1801 15.095 17.0901 14.975C17.0001 14.875 17.0301 14.705 17.1601 14.565C17.2801 14.435 17.4101 14.315 17.5301 14.195C18.0901 13.635 18.6601 13.065 19.2201 12.505C19.2901 12.435 19.3701 12.355 19.4501 12.315C19.6101 12.225 19.7901 12.355 19.7901 12.585" fill="currentColor"/>
<path d="M13.1601 12.515C13.1001 12.615 13.0601 12.695 13.0001 12.765C12.2801 13.495 11.5501 14.215 10.8301 14.945C10.8001 14.975 10.7701 14.995 10.7301 15.015C10.6101 15.085 10.4901 15.085 10.4001 14.975C10.3101 14.875 10.3101 14.765 10.3801 14.665C10.4401 14.585 10.5101 14.505 10.5801 14.435C11.1201 13.905 11.6601 13.365 12.2001 12.835C12.3701 12.665 12.5401 12.485 12.7301 12.325C12.7801 12.275 12.9101 12.275 12.9801 12.305C13.0501 12.335 13.1001 12.435 13.1601 12.515Z" fill="currentColor"/>
<path d="M11.6999 11.155C11.9299 11.155 12.0599 11.345 11.9799 11.505C11.9399 11.575 11.8899 11.645 11.8299 11.695C11.1399 12.395 10.4399 13.085 9.73995 13.785C9.70995 13.815 9.67995 13.845 9.64995 13.875C9.53995 13.975 9.41995 14.005 9.28995 13.895C9.18995 13.805 9.17995 13.665 9.26995 13.535C9.30995 13.485 9.34995 13.445 9.39995 13.395C10.0799 12.715 10.7499 12.045 11.4299 11.375C11.5199 11.285 11.6299 11.215 11.6999 11.165" fill="currentColor"/>
</g>
<defs>
<clipPath id="clip0_1660_1405">
<rect width="27.6" height="31.55" fill="white" transform="translate(0.699951 0.224976)"/>
</clipPath>
</defs>
</svg>
