<?xml version="1.0" encoding="UTF-8"?>
<svg id="Bahan_copy" xmlns="http://www.w3.org/2000/svg" viewBox="0 0 100 100">
  <defs>
    <style>
      .cls-1 {
        fill: currentColor;
      }
    </style>
  </defs>
  <path class="cls-1" d="M87.4,51.5h-39.1V12.4c0-2.8-2.3-5-5-5H8.8c-4.6,0-8.3,3.7-8.3,8.3,0,18.8,0,56.5,0,75.3,0,4.6,3.7,8.3,8.3,8.3h75.3c4.6,0,8.3-3.7,8.3-8.3v-34.4c0-2.8-2.3-5-5-5ZM73.9,85.7v10h-3.7v-17.2c0-.8.7-1.5,1.5-1.5h17.2v3.7h-10c-2.8,0-5,2.3-5,5ZM88.9,56.5v16.9h-17.2c-2.8,0-5,2.3-5,5v17.2h-18.4v-17.8c.7-.3,1.3-.6,1.8-1.1.1-.4,22.4-21.7,21.1-21.7h16.3c.8,0,1.5.7,1.5,1.5ZM14.1,80.6H4.1v-3.7h17.2c.8,0,1.5.7,1.5,1.5v17.2h-3.7v-10c0-2.8-2.3-5-5-5ZM19.1,20.9v-10h3.7v17.2c0,.8-.7,1.5-1.5,1.5H4.1v-3.7h10c2.8,0,5-2.3,5-5ZM21.3,73.4H4.1v-18.4h17.8c-1.3,0,21,21.4,21.1,21.7.5.5,1.1.9,1.8,1.1v17.8h-18.4v-17.2c0-2.8-2.3-5-5-5ZM44.7,38.9c-.7.2-12.4,12-12.6,12.6h-5.9l18.5-18.5v5.9ZM60.9,55h5.9l-18.5,18.5v-5.9c.7-.2,12.4-12,12.6-12.6ZM44.7,63.3l-8.3-8.3h8.3v8.3ZM32.1,55c.2.7,12,12.4,12.6,12.6v5.9l-18.5-18.5h5.9ZM56.5,55l-8.3,8.3v-8.3h8.3ZM36.4,51.5l8.3-8.3v8.3h-8.3ZM44.7,12.4v16.3c0-1.3-21.4,20.9-21.7,21.1-.5.5-.9,1.1-1.1,1.8H4.1v-18.4h17.2c2.8,0,5-2.3,5-5V10.9h16.9c.8,0,1.5.7,1.5,1.5h0ZM8.8,10.9h6.7v10c0,.8-.7,1.5-1.5,1.5H4.1v-6.7c0-2.6,2.1-4.8,4.8-4.8ZM4.1,90.9v-6.7h10c.8,0,1.5.7,1.5,1.5v10h-6.7c-2.6,0-4.8-2.1-4.8-4.8ZM84.1,95.7h-6.7v-10c0-.8.7-1.5,1.5-1.5h10v6.7c0,2.6-2.1,4.8-4.8,4.8Z"/>
  <path class="cls-1" d="M91.2.8h-34.4c-2.8,0-5,2.3-5,5v37.6c0,2.8,2.3,5,5,5h37.6c2.8,0,5-2.3,5-5V9.1c0-4.6-3.7-8.3-8.3-8.3ZM77.2,4.3h3.7v10c0,2.8,2.3,5,5,5h10v3.7h-17.2c-.8,0-1.5-.7-1.5-1.5V4.3ZM95.9,9.1v6.7h-10c-.8,0-1.5-.7-1.5-1.5V4.3h6.7c2.6,0,4.8,2.1,4.8,4.8ZM55.3,32.3v-5.9l18.5,18.5h-5.9c-.2-.7-12-12.4-12.6-12.6ZM55.3,43.5v-6.8l8.3,8.3h-6.8c-.8,0-1.5-.7-1.5-1.5ZM94.4,45h-16.3c-.3-.7-.6-1.3-1.1-1.8-.4-.1-21.7-22.4-21.7-21.1V5.8c0-.8.7-1.5,1.5-1.5h16.9v17.2c0,2.8,2.3,5,5,5h17.2v16.9c0,.8-.7,1.5-1.5,1.5Z"/>
</svg>