<svg width="32" height="32" viewBox="0 0 32 32" fill="none" xmlns="http://www.w3.org/2000/svg">
<path d="M21.3333 29.3333V10.6667C21.3333 6.89599 21.3333 5.00932 20.1613 3.83866C18.9907 2.66666 17.104 2.66666 13.3333 2.66666H12C8.22933 2.66666 6.34267 2.66666 5.172 3.83866C4 5.00932 4 6.89599 4 10.6667V29.3333" stroke="#272A63" stroke-width="1.5"/>
<path d="M14.6667 8H10.6667C9.40933 8 8.78133 8 8.39067 8.39067C8 8.78133 8 9.40933 8 10.6667C8 11.924 8 12.552 8.39067 12.9427C8.78133 13.3333 9.40933 13.3333 10.6667 13.3333H14.6667C15.924 13.3333 16.552 13.3333 16.9427 12.9427C17.3333 12.552 17.3333 11.924 17.3333 10.6667C17.3333 9.40933 17.3333 8.78133 16.9427 8.39067C16.552 8 15.924 8 14.6667 8Z" stroke="#272A63" stroke-width="1.5"/>
<path d="M9.33333 22.6667H16M22.6667 29.3333H2.66667M26 5.33334L27.644 6.64801C27.828 6.79468 27.92 6.86934 28.004 6.94401C28.7921 7.65101 29.2677 8.6416 29.3267 9.69868C29.3333 9.81068 29.3333 9.92801 29.3333 10.1627V24.6667C29.3333 25.1971 29.1227 25.7059 28.7476 26.0809C28.3725 26.456 27.8637 26.6667 27.3333 26.6667C26.8029 26.6667 26.2941 26.456 25.9191 26.0809C25.544 25.7059 25.3333 25.1971 25.3333 24.6667V24.572C25.3333 23.5187 24.48 22.6667 23.428 22.6667H21.3333" stroke="#272A63" stroke-width="1.5" stroke-linecap="round"/>
<path d="M29.3333 10.6667H27.3333C26.8029 10.6667 26.2941 10.8774 25.9191 11.2524C25.544 11.6275 25.3333 12.1362 25.3333 12.6667V15.892C25.3333 16.3119 25.4655 16.7209 25.7111 17.0615C25.9565 17.402 26.3031 17.6567 26.7013 17.7893L29.3333 18.6667" stroke="#272A63" stroke-width="1.5" stroke-linecap="round"/>
</svg>
