<?xml version="1.0" encoding="UTF-8"?>
<svg id="Capa_1" xmlns="http://www.w3.org/2000/svg" viewBox="0 0 100 100">
  <defs>
    <style>
      .cls-1 {
        fill: currentColor;
      }
    </style>
  </defs>
  <path class="cls-1" d="M37.9,34h24.1l14.3,13.2c.6.5,1.5.5,2.1,0,.5-.6.5-1.5,0-2.1l-14.2-13.2V3.6c0-1.3-1.1-2.4-2.4-2.4h-23.3c-1.3,0-2.4,1.1-2.4,2.4v28.3c-2.7,2.5-27.1,25.1-27.3,25.2-.3.3-.5.7-.5,1.1v10.6c0,1.3,1.1,2.4,2.4,2.4h3.9c.8,0,1.5-.6,1.5-1.5s-.6-1.5-1.5-1.5h-3.4v-8.7h77.8v8.7H21.3c-.8,0-1.5.6-1.5,1.5s.6,1.5,1.5,1.5h68.1c1.3,0,2.4-1.1,2.4-2.4v-10.6c0-.4-.2-.8-.5-1.1,0,0,0,0,0,0l-8.1-7.5c-.6-.5-1.5-.5-2.1,0-.5.6-.5,1.5,0,2.1l5.4,5H13.3c.8-.8,23.8-22,24.6-22.8h0ZM38.8,4.1h22.4v27h-22.4V4.1Z"/>
  <path class="cls-1" d="M52.6,75.4c0-.8-.6-1.5-1.5-1.5s-1.5.6-1.5,1.5c0,3-2.3,3.2-2.3,7.3s2.3,4.3,2.3,7.3-2.3,3.2-2.3,7.3.6,1.5,1.5,1.5,1.5-.6,1.5-1.5c0-3,2.3-3.2,2.3-7.3s-2.3-4.3-2.3-7.3,2.3-3.2,2.3-7.3Z"/>
  <path class="cls-1" d="M36,75.4c0-.8-.6-1.5-1.5-1.5s-1.5.6-1.5,1.5c0,3-2.3,3.2-2.3,7.3s2.3,4.3,2.3,7.3-2.3,3.2-2.3,7.3.6,1.5,1.5,1.5,1.5-.6,1.5-1.5c0-3,2.3-3.2,2.3-7.3s-2.3-4.3-2.3-7.3,2.3-3.2,2.3-7.3Z"/>
  <path class="cls-1" d="M69.3,75.4c0-.8-.6-1.5-1.5-1.5s-1.5.6-1.5,1.5c0,3-2.3,3.2-2.3,7.3s2.3,4.3,2.3,7.3-2.3,3.2-2.3,7.3.6,1.5,1.5,1.5,1.5-.6,1.5-1.5c0-3,2.3-3.2,2.3-7.3s-2.3-4.3-2.3-7.3,2.3-3.2,2.3-7.3Z"/>
  <path class="cls-1" d="M84.5,65.4c.8,0,1.5-.6,1.5-1.5s-.6-1.5-1.5-1.5h-4.3c-.8,0-1.5.6-1.5,1.5s.6,1.5,1.5,1.5h4.3Z"/>
  <path class="cls-1" d="M72.8,65.4c.8,0,1.5-.6,1.5-1.5s-.6-1.5-1.5-1.5h-2.2c-.8,0-1.5.6-1.5,1.5s.6,1.5,1.5,1.5h2.2Z"/>
  <path class="cls-1" d="M65,65.4c.8,0,1.5-.6,1.5-1.5s-.6-1.5-1.5-1.5h-2.2c-.8,0-1.5.6-1.5,1.5s.6,1.5,1.5,1.5h2.2Z"/>
</svg>