<?xml version="1.0" encoding="UTF-8"?>
<svg id="svg3279" xmlns="http://www.w3.org/2000/svg" xmlns:xlink="http://www.w3.org/1999/xlink" viewBox="0 0 100 100">
  <defs>
    <style>
      .cls-1, .cls-2 {
        fill: none;
      }

      .cls-3 {
        fill: currentColor;
      }

      .cls-2 {
        stroke: currentColor;
        stroke-linecap: round;
        stroke-linejoin: round;
        stroke-width: 3.9px;
      }

      .cls-4 {
        clip-path: url(#clippath);
      }
    </style>
    <clipPath id="clippath">
      <rect class="cls-1" x="0" y="0" width="100" height="100"/>
    </clipPath>
  </defs>
  <g id="g3285">
    <path id="path3287" class="cls-2" d="M14.3,14.3h71.5v71.5H14.3V14.3Z"/>
    <path id="path3289" class="cls-2" d="M26.6,26.6h46.9v46.9H26.6V26.6Z"/>
    <g id="g3291">
      <path id="path3293" class="cls-2" d="M38.3,73.4V26.6"/>
    </g>
    <g id="g3295">
      <path id="path3297" class="cls-2" d="M61.7,26.6v46.9"/>
    </g>
    <g id="g3299">
      <path id="path3301" class="cls-2" d="M26.6,50h46.9"/>
    </g>
    <g id="g3303">
      <path id="path3305" class="cls-2" d="M26.6,38.3h46.9"/>
    </g>
    <g id="g3307">
      <path id="path3309" class="cls-2" d="M26.6,61.7h46.9"/>
    </g>
    <g id="g3311">
      <path id="path3313" class="cls-2" d="M50,73.4V26.6"/>
    </g>
    <g id="g3315">
      <g class="cls-4">
        <g id="g3317">
          <g id="g3323">
            <path id="path3325" class="cls-2" d="M1.9,98.1l24.6-24.6"/>
          </g>
          <g id="g3327">
            <path id="path3329" class="cls-2" d="M73.4,73.4l24.6,24.6"/>
          </g>
          <g id="g3331">
            <path id="path3333" class="cls-2" d="M1.9,1.9l24.6,24.6"/>
          </g>
          <g id="g3335">
            <path id="path3337" class="cls-2" d="M73.4,26.6L98.1,1.9"/>
          </g>
          <g id="g3339">
            <path id="path3341" class="cls-3" d="M50,100c-1.1,0-2-.9-2-2s.9-2,2-2,2,.9,2,2-.9,2-2,2"/>
          </g>
          <g id="g3343">
            <path id="path3345" class="cls-2" d="M41.2,98.1H1.9V1.9h96.1v96.1h-39.3"/>
          </g>
        </g>
      </g>
    </g>
  </g>
</svg>