<svg width="200" height="200" viewBox="0 0 200 200" fill="none" xmlns="http://www.w3.org/2000/svg">
<path d="M151.774 22.1842C154.948 22.1842 157.52 24.7559 157.52 27.9297C157.52 31.1035 154.948 33.6751 151.774 33.6751C148.6 33.6751 146.029 31.1035 146.029 27.9297C146.029 24.7559 148.6 22.1842 151.774 22.1842ZM125.863 146.68C127.327 143.359 128.206 138.835 128.174 133.854C128.125 123.665 124.268 115.413 119.58 115.43C114.893 115.446 111.117 123.73 111.182 133.919C111.214 138.9 112.142 143.424 113.639 146.745C117.741 154.248 121.81 153.451 125.863 146.68ZM68.3757 167.643C68.457 167.822 68.5384 168.001 68.5872 168.197H80.4362C79.0039 164.551 77.832 160.466 76.9531 156.071C75.8626 150.586 75.2604 144.564 75.2279 138.265V138.118C75.179 125.309 77.5553 113.656 81.429 105.16C82.194 103.499 83.0078 101.953 83.8867 100.521C83.2357 99.9675 82.5684 99.5117 81.8848 99.1699C80.957 98.6979 80.013 98.4212 79.0853 98.3887L78.8412 98.405V98.3887H78.8249C74.821 98.405 70.9798 102.458 68.0013 108.968C64.6322 116.374 62.5651 126.676 62.6139 138.102V138.216C62.6465 143.945 63.1999 149.398 64.1764 154.346C65.1693 159.375 66.6178 163.9 68.3757 167.643ZM60.1074 168.197C58.6914 164.583 57.5195 160.514 56.6406 156.12C55.5501 150.618 54.9316 144.596 54.8991 138.265V138.118C54.8503 125.309 57.2266 113.656 61.1003 105.16C65.3646 95.7845 71.582 89.9577 78.7272 89.9251V89.9089H78.7435C78.89 89.9089 79.0365 89.9089 79.1667 89.9251C81.2337 89.974 83.2194 90.5111 85.0912 91.4714C86.4421 92.155 87.7441 93.0664 88.9974 94.1895C92.0247 91.4714 95.4102 89.9414 99.056 89.9251V89.9089H99.0723C99.2188 89.9089 99.3652 89.9089 99.4954 89.9251C101.579 89.9902 103.597 90.5273 105.501 91.5202C106.836 92.2038 108.105 93.099 109.326 94.1895C112.354 91.4714 115.739 89.9414 119.385 89.9251V89.9089H119.401C119.548 89.9089 119.694 89.9089 119.841 89.9251C126.855 90.1204 132.992 95.8659 137.272 105.078C141.227 113.574 143.717 125.244 143.783 138.07C143.815 144.222 143.294 150.081 142.334 155.404C141.488 160.075 140.299 164.388 138.835 168.213H151.79C152.572 168.213 153.304 167.887 153.825 167.367C154.346 166.846 154.671 166.13 154.671 165.332V79.8177C154.671 79.0365 154.346 78.3203 153.825 77.7995C153.304 77.2786 152.588 76.9531 151.807 76.9531H48.7467C47.9655 76.9531 47.2494 77.2786 46.7285 77.7995C46.2077 78.3203 45.8822 79.0365 45.8822 79.8177V165.316C45.8822 166.097 46.2077 166.813 46.7285 167.334C47.2494 167.855 47.9655 168.18 48.7467 168.18H60.1074V168.197ZM88.6719 167.578C88.7695 167.773 88.8509 167.985 88.916 168.197H100.781C99.2839 164.421 98.0794 160.156 97.2005 155.583C96.1751 150.26 95.6055 144.417 95.5729 138.265V138.118C95.5241 125.309 97.9004 113.656 101.774 105.16C102.523 103.499 103.353 101.953 104.232 100.521C103.581 99.9675 102.93 99.528 102.262 99.1862C101.318 98.6979 100.374 98.4212 99.4303 98.3887L99.1862 98.405V98.3887H99.1699C95.166 98.405 91.3249 102.458 88.3464 108.968C84.9772 116.374 82.9102 126.676 82.959 138.102V138.216C82.9915 143.929 83.5449 149.365 84.5215 154.297C85.4818 159.342 86.9303 163.851 88.6719 167.578ZM108.724 166.943C108.903 167.35 109.017 167.773 109.082 168.197H130.583C130.632 167.741 130.745 167.285 130.941 166.846C132.568 163.119 133.887 158.675 134.782 153.727C135.661 148.877 136.133 143.604 136.1 138.118C136.035 126.644 133.87 116.309 130.42 108.903C127.441 102.523 123.665 98.5352 119.743 98.3887L119.499 98.405V98.3887H119.482C115.479 98.405 111.637 102.458 108.659 108.968C105.29 116.374 103.223 126.676 103.271 138.102V138.216C103.304 143.734 103.825 149.023 104.753 153.874C105.697 158.822 107.064 163.249 108.724 166.943ZM48.7467 68.9941H151.807C154.785 68.9941 157.487 70.2148 159.44 72.168C161.393 74.1211 162.614 76.8392 162.614 79.8177V165.316C162.614 168.278 161.393 170.98 159.44 172.933L159.424 172.965C157.471 174.919 154.769 176.139 151.807 176.139H48.7467C45.7682 176.139 43.0664 174.919 41.097 172.965C39.1439 171.012 37.9232 168.311 37.9232 165.332V79.8177C37.9232 76.8392 39.1439 74.1374 41.097 72.168C43.0501 70.2148 45.7682 68.9941 48.7467 68.9941ZM44.5638 22.1842C47.7376 22.1842 50.3092 24.7559 50.3092 27.9297C50.3092 31.1035 47.7376 33.6751 44.5638 33.6751C41.39 33.6751 38.8184 31.1035 38.8184 27.9297C38.8184 24.7559 41.39 22.1842 44.5638 22.1842ZM69.4336 21.5983H131.104V34.2611H69.4336V21.5983ZM25.3743 48.291H174.626V10.319C174.626 9.55404 174.316 8.87044 173.812 8.36589C173.307 7.86133 172.624 7.55208 171.859 7.55208H28.1413C27.3763 7.55208 26.6927 7.86133 26.1882 8.36589C25.6836 8.87044 25.3743 9.55404 25.3743 10.319V48.291ZM182.161 189.681C182.161 192.513 181.006 195.101 179.134 196.973C177.262 198.844 174.674 200 171.842 200H28.1413C25.3092 200 22.7214 198.844 20.8496 196.973C18.9779 195.085 17.8223 192.513 17.8223 189.665V10.319C17.8223 7.48698 18.9779 4.89909 20.8496 3.02734C22.7214 1.1556 25.293 0 28.1413 0H171.859C174.691 0 177.279 1.1556 179.15 3.02734C181.022 4.89909 182.178 7.48698 182.178 10.319C182.161 73.0306 182.161 126.774 182.161 189.681ZM174.626 55.8431H25.3743V189.665C25.3743 190.43 25.6836 191.113 26.1882 191.618C26.6927 192.122 27.3763 192.432 28.1413 192.432H171.859C172.624 192.432 173.307 192.122 173.812 191.618C174.316 191.113 174.626 190.43 174.626 189.665V55.8431Z" fill="currentColor"/>
</svg>
