<?xml version="1.0" encoding="UTF-8"?>
<svg id="svg2748" xmlns="http://www.w3.org/2000/svg" viewBox="0 0 100 100">
  <defs>
    <style>
      .cls-1 {
        fill: #fff;
      }

      .cls-2 {
        fill: currentColor;
      }
    </style>
  </defs>
  <path class="cls-1" d="M13.6,36.3v4.7h4.7v-4.7h-4.7ZM17.7,40.5h-3.7v-3.7h3.7v3.7ZM13.6,64.7v4.7h4.7v-4.7h-4.7ZM17.7,68.9h-3.7v-3.7h3.7v3.7ZM13.6,81.8v4.7h4.7v-4.7h-4.7ZM17.7,85.9h-3.7v-3.7h3.7v3.7ZM19.3,47.7v4.7h4.7v-4.7h-4.7ZM23.4,51.8h-3.7v-3.7h3.7v3.7ZM24.9,59v4.7h4.7v-4.7h-4.7ZM29.1,63.2h-3.7v-3.7h3.7v3.7ZM24.9,76.1v4.7h4.7v-4.7h-4.7ZM29.1,80.2h-3.7v-3.7h3.7v3.7ZM30.6,42v4.7h4.7v-4.7h-4.7ZM34.8,46.1h-3.7v-3.7h3.7v3.7ZM36.3,70.4v4.7h4.7v-4.7h-4.7ZM40.5,74.6h-3.7v-3.7h3.7v3.7ZM42,36.3v4.7h4.7v-4.7h-4.7ZM46.1,40.5h-3.7v-3.7h3.7v3.7ZM42,59v4.7h4.7v-4.7h-4.7ZM46.1,63.2h-3.7v-3.7h3.7v3.7ZM42,81.8v4.7h4.7v-4.7h-4.7ZM46.1,85.9h-3.7v-3.7h3.7v3.7ZM47.7,47.7v4.7h4.7v-4.7h-4.7ZM51.8,51.8h-3.7v-3.7h3.7v3.7ZM53.3,70.4v4.7h4.7v-4.7h-4.7ZM57.5,74.6h-3.7v-3.7h3.7v3.7ZM59,36.3v4.7h4.7v-4.7h-4.7ZM63.2,40.5h-3.7v-3.7h3.7v3.7ZM59,59v4.7h4.7v-4.7h-4.7ZM63.2,63.2h-3.7v-3.7h3.7v3.7ZM59,81.8v4.7h4.7v-4.7h-4.7ZM63.2,85.9h-3.7v-3.7h3.7v3.7ZM59,81.8v4.7h4.7v-4.7h-4.7ZM63.2,85.9h-3.7v-3.7h3.7v3.7ZM59,59v4.7h4.7v-4.7h-4.7ZM63.2,63.2h-3.7v-3.7h3.7v3.7ZM59,36.3v4.7h4.7v-4.7h-4.7ZM63.2,40.5h-3.7v-3.7h3.7v3.7ZM53.3,70.4v4.7h4.7v-4.7h-4.7ZM57.5,74.6h-3.7v-3.7h3.7v3.7ZM47.7,47.7v4.7h4.7v-4.7h-4.7ZM51.8,51.8h-3.7v-3.7h3.7v3.7ZM42,81.8v4.7h4.7v-4.7h-4.7ZM46.1,85.9h-3.7v-3.7h3.7v3.7ZM42,59v4.7h4.7v-4.7h-4.7ZM46.1,63.2h-3.7v-3.7h3.7v3.7ZM42,36.3v4.7h4.7v-4.7h-4.7ZM46.1,40.5h-3.7v-3.7h3.7v3.7ZM36.3,70.4v4.7h4.7v-4.7h-4.7ZM40.5,74.6h-3.7v-3.7h3.7v3.7ZM30.6,42v4.7h4.7v-4.7h-4.7ZM34.8,46.1h-3.7v-3.7h3.7v3.7ZM24.9,76.1v4.7h4.7v-4.7h-4.7ZM29.1,80.2h-3.7v-3.7h3.7v3.7ZM24.9,59v4.7h4.7v-4.7h-4.7ZM29.1,63.2h-3.7v-3.7h3.7v3.7ZM19.3,47.7v4.7h4.7v-4.7h-4.7ZM23.4,51.8h-3.7v-3.7h3.7v3.7ZM13.6,81.8v4.7h4.7v-4.7h-4.7ZM17.7,85.9h-3.7v-3.7h3.7v3.7ZM13.6,64.7v4.7h4.7v-4.7h-4.7ZM17.7,68.9h-3.7v-3.7h3.7v3.7ZM13.6,36.3v4.7h4.7v-4.7h-4.7ZM17.7,40.5h-3.7v-3.7h3.7v3.7ZM13.6,36.3v4.7h4.7v-4.7h-4.7ZM17.7,40.5h-3.7v-3.7h3.7v3.7ZM13.6,64.7v4.7h4.7v-4.7h-4.7ZM17.7,68.9h-3.7v-3.7h3.7v3.7ZM13.6,81.8v4.7h4.7v-4.7h-4.7ZM17.7,85.9h-3.7v-3.7h3.7v3.7ZM19.3,47.7v4.7h4.7v-4.7h-4.7ZM23.4,51.8h-3.7v-3.7h3.7v3.7ZM24.9,59v4.7h4.7v-4.7h-4.7ZM29.1,63.2h-3.7v-3.7h3.7v3.7ZM24.9,76.1v4.7h4.7v-4.7h-4.7ZM29.1,80.2h-3.7v-3.7h3.7v3.7ZM30.6,42v4.7h4.7v-4.7h-4.7ZM34.8,46.1h-3.7v-3.7h3.7v3.7ZM36.3,70.4v4.7h4.7v-4.7h-4.7ZM40.5,74.6h-3.7v-3.7h3.7v3.7ZM42,36.3v4.7h4.7v-4.7h-4.7ZM46.1,40.5h-3.7v-3.7h3.7v3.7ZM42,59v4.7h4.7v-4.7h-4.7ZM46.1,63.2h-3.7v-3.7h3.7v3.7ZM42,81.8v4.7h4.7v-4.7h-4.7ZM46.1,85.9h-3.7v-3.7h3.7v3.7ZM47.7,47.7v4.7h4.7v-4.7h-4.7ZM51.8,51.8h-3.7v-3.7h3.7v3.7ZM53.3,70.4v4.7h4.7v-4.7h-4.7ZM57.5,74.6h-3.7v-3.7h3.7v3.7ZM59,36.3v4.7h4.7v-4.7h-4.7ZM63.2,40.5h-3.7v-3.7h3.7v3.7ZM59,59v4.7h4.7v-4.7h-4.7ZM63.2,63.2h-3.7v-3.7h3.7v3.7ZM59,81.8v4.7h4.7v-4.7h-4.7ZM63.2,85.9h-3.7v-3.7h3.7v3.7ZM59,81.8v4.7h4.7v-4.7h-4.7ZM63.2,85.9h-3.7v-3.7h3.7v3.7ZM59,59v4.7h4.7v-4.7h-4.7ZM63.2,63.2h-3.7v-3.7h3.7v3.7ZM59,36.3v4.7h4.7v-4.7h-4.7ZM63.2,40.5h-3.7v-3.7h3.7v3.7ZM53.3,70.4v4.7h4.7v-4.7h-4.7ZM57.5,74.6h-3.7v-3.7h3.7v3.7ZM47.7,47.7v4.7h4.7v-4.7h-4.7ZM51.8,51.8h-3.7v-3.7h3.7v3.7ZM42,81.8v4.7h4.7v-4.7h-4.7ZM46.1,85.9h-3.7v-3.7h3.7v3.7ZM42,59v4.7h4.7v-4.7h-4.7ZM46.1,63.2h-3.7v-3.7h3.7v3.7ZM42,36.3v4.7h4.7v-4.7h-4.7ZM46.1,40.5h-3.7v-3.7h3.7v3.7ZM36.3,70.4v4.7h4.7v-4.7h-4.7ZM40.5,74.6h-3.7v-3.7h3.7v3.7ZM30.6,42v4.7h4.7v-4.7h-4.7ZM34.8,46.1h-3.7v-3.7h3.7v3.7ZM24.9,76.1v4.7h4.7v-4.7h-4.7ZM29.1,80.2h-3.7v-3.7h3.7v3.7ZM24.9,59v4.7h4.7v-4.7h-4.7ZM29.1,63.2h-3.7v-3.7h3.7v3.7ZM19.3,47.7v4.7h4.7v-4.7h-4.7ZM23.4,51.8h-3.7v-3.7h3.7v3.7ZM13.6,81.8v4.7h4.7v-4.7h-4.7ZM17.7,85.9h-3.7v-3.7h3.7v3.7ZM13.6,64.7v4.7h4.7v-4.7h-4.7ZM17.7,68.9h-3.7v-3.7h3.7v3.7ZM13.6,36.3v4.7h4.7v-4.7h-4.7ZM17.7,40.5h-3.7v-3.7h3.7v3.7ZM13.6,36.3v4.7h4.7v-4.7h-4.7ZM17.7,40.5h-3.7v-3.7h3.7v3.7ZM13.6,64.7v4.7h4.7v-4.7h-4.7ZM17.7,68.9h-3.7v-3.7h3.7v3.7ZM13.6,81.8v4.7h4.7v-4.7h-4.7ZM17.7,85.9h-3.7v-3.7h3.7v3.7ZM19.3,47.7v4.7h4.7v-4.7h-4.7ZM23.4,51.8h-3.7v-3.7h3.7v3.7ZM24.9,59v4.7h4.7v-4.7h-4.7ZM29.1,63.2h-3.7v-3.7h3.7v3.7ZM24.9,76.1v4.7h4.7v-4.7h-4.7ZM29.1,80.2h-3.7v-3.7h3.7v3.7ZM30.6,42v4.7h4.7v-4.7h-4.7ZM34.8,46.1h-3.7v-3.7h3.7v3.7ZM36.3,70.4v4.7h4.7v-4.7h-4.7ZM40.5,74.6h-3.7v-3.7h3.7v3.7ZM42,36.3v4.7h4.7v-4.7h-4.7ZM46.1,40.5h-3.7v-3.7h3.7v3.7ZM42,59v4.7h4.7v-4.7h-4.7ZM46.1,63.2h-3.7v-3.7h3.7v3.7ZM42,81.8v4.7h4.7v-4.7h-4.7ZM46.1,85.9h-3.7v-3.7h3.7v3.7ZM47.7,47.7v4.7h4.7v-4.7h-4.7ZM51.8,51.8h-3.7v-3.7h3.7v3.7ZM53.3,70.4v4.7h4.7v-4.7h-4.7ZM57.5,74.6h-3.7v-3.7h3.7v3.7ZM59,36.3v4.7h4.7v-4.7h-4.7ZM63.2,40.5h-3.7v-3.7h3.7v3.7ZM59,59v4.7h4.7v-4.7h-4.7ZM63.2,63.2h-3.7v-3.7h3.7v3.7ZM59,81.8v4.7h4.7v-4.7h-4.7ZM63.2,85.9h-3.7v-3.7h3.7v3.7ZM59,81.8v4.7h4.7v-4.7h-4.7ZM63.2,85.9h-3.7v-3.7h3.7v3.7ZM59,59v4.7h4.7v-4.7h-4.7ZM63.2,63.2h-3.7v-3.7h3.7v3.7ZM59,36.3v4.7h4.7v-4.7h-4.7ZM63.2,40.5h-3.7v-3.7h3.7v3.7ZM53.3,70.4v4.7h4.7v-4.7h-4.7ZM57.5,74.6h-3.7v-3.7h3.7v3.7ZM47.7,47.7v4.7h4.7v-4.7h-4.7ZM51.8,51.8h-3.7v-3.7h3.7v3.7ZM42,81.8v4.7h4.7v-4.7h-4.7ZM46.1,85.9h-3.7v-3.7h3.7v3.7ZM42,59v4.7h4.7v-4.7h-4.7ZM46.1,63.2h-3.7v-3.7h3.7v3.7ZM42,36.3v4.7h4.7v-4.7h-4.7ZM46.1,40.5h-3.7v-3.7h3.7v3.7ZM36.3,70.4v4.7h4.7v-4.7h-4.7ZM40.5,74.6h-3.7v-3.7h3.7v3.7ZM30.6,42v4.7h4.7v-4.7h-4.7ZM34.8,46.1h-3.7v-3.7h3.7v3.7ZM24.9,76.1v4.7h4.7v-4.7h-4.7ZM29.1,80.2h-3.7v-3.7h3.7v3.7ZM24.9,59v4.7h4.7v-4.7h-4.7ZM29.1,63.2h-3.7v-3.7h3.7v3.7ZM19.3,47.7v4.7h4.7v-4.7h-4.7ZM23.4,51.8h-3.7v-3.7h3.7v3.7ZM13.6,81.8v4.7h4.7v-4.7h-4.7ZM17.7,85.9h-3.7v-3.7h3.7v3.7ZM13.6,64.7v4.7h4.7v-4.7h-4.7ZM17.7,68.9h-3.7v-3.7h3.7v3.7ZM13.6,36.3v4.7h4.7v-4.7h-4.7ZM17.7,40.5h-3.7v-3.7h3.7v3.7ZM13.6,36.3v4.7h4.7v-4.7h-4.7ZM17.7,40.5h-3.7v-3.7h3.7v3.7ZM13.6,64.7v4.7h4.7v-4.7h-4.7ZM17.7,68.9h-3.7v-3.7h3.7v3.7ZM13.6,81.8v4.7h4.7v-4.7h-4.7ZM17.7,85.9h-3.7v-3.7h3.7v3.7ZM19.3,47.7v4.7h4.7v-4.7h-4.7ZM23.4,51.8h-3.7v-3.7h3.7v3.7ZM24.9,59v4.7h4.7v-4.7h-4.7ZM29.1,63.2h-3.7v-3.7h3.7v3.7ZM24.9,76.1v4.7h4.7v-4.7h-4.7ZM29.1,80.2h-3.7v-3.7h3.7v3.7ZM30.6,42v4.7h4.7v-4.7h-4.7ZM34.8,46.1h-3.7v-3.7h3.7v3.7ZM36.3,70.4v4.7h4.7v-4.7h-4.7ZM40.5,74.6h-3.7v-3.7h3.7v3.7ZM42,36.3v4.7h4.7v-4.7h-4.7ZM46.1,40.5h-3.7v-3.7h3.7v3.7ZM42,59v4.7h4.7v-4.7h-4.7ZM46.1,63.2h-3.7v-3.7h3.7v3.7ZM42,81.8v4.7h4.7v-4.7h-4.7ZM46.1,85.9h-3.7v-3.7h3.7v3.7ZM47.7,47.7v4.7h4.7v-4.7h-4.7ZM51.8,51.8h-3.7v-3.7h3.7v3.7ZM53.3,70.4v4.7h4.7v-4.7h-4.7ZM57.5,74.6h-3.7v-3.7h3.7v3.7ZM59,36.3v4.7h4.7v-4.7h-4.7ZM63.2,40.5h-3.7v-3.7h3.7v3.7ZM59,59v4.7h4.7v-4.7h-4.7ZM63.2,63.2h-3.7v-3.7h3.7v3.7ZM59,81.8v4.7h4.7v-4.7h-4.7ZM63.2,85.9h-3.7v-3.7h3.7v3.7ZM59,81.8v4.7h4.7v-4.7h-4.7ZM63.2,85.9h-3.7v-3.7h3.7v3.7ZM59,59v4.7h4.7v-4.7h-4.7ZM63.2,63.2h-3.7v-3.7h3.7v3.7ZM59,36.3v4.7h4.7v-4.7h-4.7ZM63.2,40.5h-3.7v-3.7h3.7v3.7ZM53.3,70.4v4.7h4.7v-4.7h-4.7ZM57.5,74.6h-3.7v-3.7h3.7v3.7ZM47.7,47.7v4.7h4.7v-4.7h-4.7ZM51.8,51.8h-3.7v-3.7h3.7v3.7ZM42,81.8v4.7h4.7v-4.7h-4.7ZM46.1,85.9h-3.7v-3.7h3.7v3.7ZM42,59v4.7h4.7v-4.7h-4.7ZM46.1,63.2h-3.7v-3.7h3.7v3.7ZM42,36.3v4.7h4.7v-4.7h-4.7ZM46.1,40.5h-3.7v-3.7h3.7v3.7ZM36.3,70.4v4.7h4.7v-4.7h-4.7ZM40.5,74.6h-3.7v-3.7h3.7v3.7ZM30.6,42v4.7h4.7v-4.7h-4.7ZM34.8,46.1h-3.7v-3.7h3.7v3.7ZM24.9,76.1v4.7h4.7v-4.7h-4.7ZM29.1,80.2h-3.7v-3.7h3.7v3.7ZM24.9,59v4.7h4.7v-4.7h-4.7ZM29.1,63.2h-3.7v-3.7h3.7v3.7ZM19.3,47.7v4.7h4.7v-4.7h-4.7ZM23.4,51.8h-3.7v-3.7h3.7v3.7ZM13.6,81.8v4.7h4.7v-4.7h-4.7ZM17.7,85.9h-3.7v-3.7h3.7v3.7ZM13.6,64.7v4.7h4.7v-4.7h-4.7ZM17.7,68.9h-3.7v-3.7h3.7v3.7ZM13.6,36.3v4.7h4.7v-4.7h-4.7ZM17.7,40.5h-3.7v-3.7h3.7v3.7ZM13.6,36.3v4.7h4.7v-4.7h-4.7ZM17.7,40.5h-3.7v-3.7h3.7v3.7ZM13.6,64.7v4.7h4.7v-4.7h-4.7ZM17.7,68.9h-3.7v-3.7h3.7v3.7ZM13.6,81.8v4.7h4.7v-4.7h-4.7ZM17.7,85.9h-3.7v-3.7h3.7v3.7ZM19.3,47.7v4.7h4.7v-4.7h-4.7ZM23.4,51.8h-3.7v-3.7h3.7v3.7ZM24.9,59v4.7h4.7v-4.7h-4.7ZM29.1,63.2h-3.7v-3.7h3.7v3.7ZM24.9,76.1v4.7h4.7v-4.7h-4.7ZM29.1,80.2h-3.7v-3.7h3.7v3.7ZM30.6,42v4.7h4.7v-4.7h-4.7ZM34.8,46.1h-3.7v-3.7h3.7v3.7ZM36.3,70.4v4.7h4.7v-4.7h-4.7ZM40.5,74.6h-3.7v-3.7h3.7v3.7ZM42,36.3v4.7h4.7v-4.7h-4.7ZM46.1,40.5h-3.7v-3.7h3.7v3.7ZM42,59v4.7h4.7v-4.7h-4.7ZM46.1,63.2h-3.7v-3.7h3.7v3.7ZM42,81.8v4.7h4.7v-4.7h-4.7ZM46.1,85.9h-3.7v-3.7h3.7v3.7ZM47.7,47.7v4.7h4.7v-4.7h-4.7ZM51.8,51.8h-3.7v-3.7h3.7v3.7ZM53.3,70.4v4.7h4.7v-4.7h-4.7ZM57.5,74.6h-3.7v-3.7h3.7v3.7ZM59,36.3v4.7h4.7v-4.7h-4.7ZM63.2,40.5h-3.7v-3.7h3.7v3.7ZM59,59v4.7h4.7v-4.7h-4.7ZM63.2,63.2h-3.7v-3.7h3.7v3.7ZM59,81.8v4.7h4.7v-4.7h-4.7ZM63.2,85.9h-3.7v-3.7h3.7v3.7ZM59,81.8v4.7h4.7v-4.7h-4.7ZM63.2,85.9h-3.7v-3.7h3.7v3.7ZM59,59v4.7h4.7v-4.7h-4.7ZM63.2,63.2h-3.7v-3.7h3.7v3.7ZM59,36.3v4.7h4.7v-4.7h-4.7ZM63.2,40.5h-3.7v-3.7h3.7v3.7ZM53.3,70.4v4.7h4.7v-4.7h-4.7ZM57.5,74.6h-3.7v-3.7h3.7v3.7ZM47.7,47.7v4.7h4.7v-4.7h-4.7ZM51.8,51.8h-3.7v-3.7h3.7v3.7ZM42,81.8v4.7h4.7v-4.7h-4.7ZM46.1,85.9h-3.7v-3.7h3.7v3.7ZM42,59v4.7h4.7v-4.7h-4.7ZM46.1,63.2h-3.7v-3.7h3.7v3.7ZM42,36.3v4.7h4.7v-4.7h-4.7ZM46.1,40.5h-3.7v-3.7h3.7v3.7ZM36.3,70.4v4.7h4.7v-4.7h-4.7ZM40.5,74.6h-3.7v-3.7h3.7v3.7ZM30.6,42v4.7h4.7v-4.7h-4.7ZM34.8,46.1h-3.7v-3.7h3.7v3.7ZM24.9,76.1v4.7h4.7v-4.7h-4.7ZM29.1,80.2h-3.7v-3.7h3.7v3.7ZM24.9,59v4.7h4.7v-4.7h-4.7ZM29.1,63.2h-3.7v-3.7h3.7v3.7ZM19.3,47.7v4.7h4.7v-4.7h-4.7ZM23.4,51.8h-3.7v-3.7h3.7v3.7ZM13.6,81.8v4.7h4.7v-4.7h-4.7ZM17.7,85.9h-3.7v-3.7h3.7v3.7ZM13.6,64.7v4.7h4.7v-4.7h-4.7ZM17.7,68.9h-3.7v-3.7h3.7v3.7ZM13.6,36.3v4.7h4.7v-4.7h-4.7ZM17.7,40.5h-3.7v-3.7h3.7v3.7ZM13.6,36.3v4.7h4.7v-4.7h-4.7ZM17.7,40.5h-3.7v-3.7h3.7v3.7ZM13.6,64.7v4.7h4.7v-4.7h-4.7ZM17.7,68.9h-3.7v-3.7h3.7v3.7ZM13.6,81.8v4.7h4.7v-4.7h-4.7ZM17.7,85.9h-3.7v-3.7h3.7v3.7ZM19.3,47.7v4.7h4.7v-4.7h-4.7ZM23.4,51.8h-3.7v-3.7h3.7v3.7ZM24.9,59v4.7h4.7v-4.7h-4.7ZM29.1,63.2h-3.7v-3.7h3.7v3.7ZM24.9,76.1v4.7h4.7v-4.7h-4.7ZM29.1,80.2h-3.7v-3.7h3.7v3.7ZM30.6,42v4.7h4.7v-4.7h-4.7ZM34.8,46.1h-3.7v-3.7h3.7v3.7ZM36.3,70.4v4.7h4.7v-4.7h-4.7ZM40.5,74.6h-3.7v-3.7h3.7v3.7ZM42,36.3v4.7h4.7v-4.7h-4.7ZM46.1,40.5h-3.7v-3.7h3.7v3.7ZM42,59v4.7h4.7v-4.7h-4.7ZM46.1,63.2h-3.7v-3.7h3.7v3.7ZM42,81.8v4.7h4.7v-4.7h-4.7ZM46.1,85.9h-3.7v-3.7h3.7v3.7ZM47.7,47.7v4.7h4.7v-4.7h-4.7ZM51.8,51.8h-3.7v-3.7h3.7v3.7ZM53.3,70.4v4.7h4.7v-4.7h-4.7ZM57.5,74.6h-3.7v-3.7h3.7v3.7ZM59,36.3v4.7h4.7v-4.7h-4.7ZM63.2,40.5h-3.7v-3.7h3.7v3.7ZM59,59v4.7h4.7v-4.7h-4.7ZM63.2,63.2h-3.7v-3.7h3.7v3.7ZM59,81.8v4.7h4.7v-4.7h-4.7ZM63.2,85.9h-3.7v-3.7h3.7v3.7ZM59,81.8v4.7h4.7v-4.7h-4.7ZM63.2,85.9h-3.7v-3.7h3.7v3.7ZM59,59v4.7h4.7v-4.7h-4.7ZM63.2,63.2h-3.7v-3.7h3.7v3.7ZM59,36.3v4.7h4.7v-4.7h-4.7ZM63.2,40.5h-3.7v-3.7h3.7v3.7ZM53.3,70.4v4.7h4.7v-4.7h-4.7ZM57.5,74.6h-3.7v-3.7h3.7v3.7ZM47.7,47.7v4.7h4.7v-4.7h-4.7ZM51.8,51.8h-3.7v-3.7h3.7v3.7ZM42,81.8v4.7h4.7v-4.7h-4.7ZM46.1,85.9h-3.7v-3.7h3.7v3.7ZM42,59v4.7h4.7v-4.7h-4.7ZM46.1,63.2h-3.7v-3.7h3.7v3.7ZM42,36.3v4.7h4.7v-4.7h-4.7ZM46.1,40.5h-3.7v-3.7h3.7v3.7ZM36.3,70.4v4.7h4.7v-4.7h-4.7ZM40.5,74.6h-3.7v-3.7h3.7v3.7ZM30.6,42v4.7h4.7v-4.7h-4.7ZM34.8,46.1h-3.7v-3.7h3.7v3.7ZM24.9,76.1v4.7h4.7v-4.7h-4.7ZM29.1,80.2h-3.7v-3.7h3.7v3.7ZM24.9,59v4.7h4.7v-4.7h-4.7ZM29.1,63.2h-3.7v-3.7h3.7v3.7ZM19.3,47.7v4.7h4.7v-4.7h-4.7ZM23.4,51.8h-3.7v-3.7h3.7v3.7ZM13.6,81.8v4.7h4.7v-4.7h-4.7ZM17.7,85.9h-3.7v-3.7h3.7v3.7ZM13.6,64.7v4.7h4.7v-4.7h-4.7ZM17.7,68.9h-3.7v-3.7h3.7v3.7ZM13.6,36.3v4.7h4.7v-4.7h-4.7ZM17.7,40.5h-3.7v-3.7h3.7v3.7ZM13.6,36.3v4.7h4.7v-4.7h-4.7ZM17.7,40.5h-3.7v-3.7h3.7v3.7ZM13.6,64.7v4.7h4.7v-4.7h-4.7ZM17.7,68.9h-3.7v-3.7h3.7v3.7ZM13.6,81.8v4.7h4.7v-4.7h-4.7ZM17.7,85.9h-3.7v-3.7h3.7v3.7ZM19.3,47.7v4.7h4.7v-4.7h-4.7ZM23.4,51.8h-3.7v-3.7h3.7v3.7ZM24.9,59v4.7h4.7v-4.7h-4.7ZM29.1,63.2h-3.7v-3.7h3.7v3.7ZM24.9,76.1v4.7h4.7v-4.7h-4.7ZM29.1,80.2h-3.7v-3.7h3.7v3.7ZM30.6,42v4.7h4.7v-4.7h-4.7ZM34.8,46.1h-3.7v-3.7h3.7v3.7ZM36.3,70.4v4.7h4.7v-4.7h-4.7ZM40.5,74.6h-3.7v-3.7h3.7v3.7ZM42,36.3v4.7h4.7v-4.7h-4.7ZM46.1,40.5h-3.7v-3.7h3.7v3.7ZM42,59v4.7h4.7v-4.7h-4.7ZM46.1,63.2h-3.7v-3.7h3.7v3.7ZM42,81.8v4.7h4.7v-4.7h-4.7ZM46.1,85.9h-3.7v-3.7h3.7v3.7ZM47.7,47.7v4.7h4.7v-4.7h-4.7ZM51.8,51.8h-3.7v-3.7h3.7v3.7ZM53.3,70.4v4.7h4.7v-4.7h-4.7ZM57.5,74.6h-3.7v-3.7h3.7v3.7ZM59,36.3v4.7h4.7v-4.7h-4.7ZM63.2,40.5h-3.7v-3.7h3.7v3.7ZM59,59v4.7h4.7v-4.7h-4.7ZM63.2,63.2h-3.7v-3.7h3.7v3.7ZM59,81.8v4.7h4.7v-4.7h-4.7ZM63.2,85.9h-3.7v-3.7h3.7v3.7ZM59,81.8v4.7h4.7v-4.7h-4.7ZM63.2,85.9h-3.7v-3.7h3.7v3.7ZM59,59v4.7h4.7v-4.7h-4.7ZM63.2,63.2h-3.7v-3.7h3.7v3.7ZM59,36.3v4.7h4.7v-4.7h-4.7ZM63.2,40.5h-3.7v-3.7h3.7v3.7ZM53.3,70.4v4.7h4.7v-4.7h-4.7ZM57.5,74.6h-3.7v-3.7h3.7v3.7ZM47.7,47.7v4.7h4.7v-4.7h-4.7ZM51.8,51.8h-3.7v-3.7h3.7v3.7ZM42,81.8v4.7h4.7v-4.7h-4.7ZM46.1,85.9h-3.7v-3.7h3.7v3.7ZM42,59v4.7h4.7v-4.7h-4.7ZM46.1,63.2h-3.7v-3.7h3.7v3.7ZM42,36.3v4.7h4.7v-4.7h-4.7ZM46.1,40.5h-3.7v-3.7h3.7v3.7ZM36.3,70.4v4.7h4.7v-4.7h-4.7ZM40.5,74.6h-3.7v-3.7h3.7v3.7ZM30.6,42v4.7h4.7v-4.7h-4.7ZM34.8,46.1h-3.7v-3.7h3.7v3.7ZM24.9,76.1v4.7h4.7v-4.7h-4.7ZM29.1,80.2h-3.7v-3.7h3.7v3.7ZM24.9,59v4.7h4.7v-4.7h-4.7ZM29.1,63.2h-3.7v-3.7h3.7v3.7ZM19.3,47.7v4.7h4.7v-4.7h-4.7ZM23.4,51.8h-3.7v-3.7h3.7v3.7ZM13.6,81.8v4.7h4.7v-4.7h-4.7ZM17.7,85.9h-3.7v-3.7h3.7v3.7ZM13.6,64.7v4.7h4.7v-4.7h-4.7ZM17.7,68.9h-3.7v-3.7h3.7v3.7ZM13.6,36.3v4.7h4.7v-4.7h-4.7ZM17.7,40.5h-3.7v-3.7h3.7v3.7ZM13.6,36.3v4.7h4.7v-4.7h-4.7ZM17.7,40.5h-3.7v-3.7h3.7v3.7ZM13.6,64.7v4.7h4.7v-4.7h-4.7ZM17.7,68.9h-3.7v-3.7h3.7v3.7ZM13.6,81.8v4.7h4.7v-4.7h-4.7ZM17.7,85.9h-3.7v-3.7h3.7v3.7ZM19.3,47.7v4.7h4.7v-4.7h-4.7ZM23.4,51.8h-3.7v-3.7h3.7v3.7ZM24.9,59v4.7h4.7v-4.7h-4.7ZM29.1,63.2h-3.7v-3.7h3.7v3.7ZM24.9,76.1v4.7h4.7v-4.7h-4.7ZM29.1,80.2h-3.7v-3.7h3.7v3.7ZM30.6,42v4.7h4.7v-4.7h-4.7ZM34.8,46.1h-3.7v-3.7h3.7v3.7ZM36.3,70.4v4.7h4.7v-4.7h-4.7ZM40.5,74.6h-3.7v-3.7h3.7v3.7ZM42,36.3v4.7h4.7v-4.7h-4.7ZM46.1,40.5h-3.7v-3.7h3.7v3.7ZM42,59v4.7h4.7v-4.7h-4.7ZM46.1,63.2h-3.7v-3.7h3.7v3.7ZM42,81.8v4.7h4.7v-4.7h-4.7ZM46.1,85.9h-3.7v-3.7h3.7v3.7ZM47.7,47.7v4.7h4.7v-4.7h-4.7ZM51.8,51.8h-3.7v-3.7h3.7v3.7ZM53.3,70.4v4.7h4.7v-4.7h-4.7ZM57.5,74.6h-3.7v-3.7h3.7v3.7ZM59,36.3v4.7h4.7v-4.7h-4.7ZM63.2,40.5h-3.7v-3.7h3.7v3.7ZM59,59v4.7h4.7v-4.7h-4.7ZM63.2,63.2h-3.7v-3.7h3.7v3.7ZM59,81.8v4.7h4.7v-4.7h-4.7ZM63.2,85.9h-3.7v-3.7h3.7v3.7ZM13.6,36.3v4.7h4.7v-4.7h-4.7ZM17.7,40.5h-3.7v-3.7h3.7v3.7ZM13.6,64.7v4.7h4.7v-4.7h-4.7ZM17.7,68.9h-3.7v-3.7h3.7v3.7ZM13.6,81.8v4.7h4.7v-4.7h-4.7ZM17.7,85.9h-3.7v-3.7h3.7v3.7ZM19.3,47.7v4.7h4.7v-4.7h-4.7ZM23.4,51.8h-3.7v-3.7h3.7v3.7ZM24.9,59v4.7h4.7v-4.7h-4.7ZM29.1,63.2h-3.7v-3.7h3.7v3.7ZM24.9,76.1v4.7h4.7v-4.7h-4.7ZM29.1,80.2h-3.7v-3.7h3.7v3.7ZM30.6,42v4.7h4.7v-4.7h-4.7ZM34.8,46.1h-3.7v-3.7h3.7v3.7ZM36.3,70.4v4.7h4.7v-4.7h-4.7ZM40.5,74.6h-3.7v-3.7h3.7v3.7ZM42,36.3v4.7h4.7v-4.7h-4.7ZM46.1,40.5h-3.7v-3.7h3.7v3.7ZM42,59v4.7h4.7v-4.7h-4.7ZM46.1,63.2h-3.7v-3.7h3.7v3.7ZM42,81.8v4.7h4.7v-4.7h-4.7ZM46.1,85.9h-3.7v-3.7h3.7v3.7ZM47.7,47.7v4.7h4.7v-4.7h-4.7ZM51.8,51.8h-3.7v-3.7h3.7v3.7ZM53.3,70.4v4.7h4.7v-4.7h-4.7ZM57.5,74.6h-3.7v-3.7h3.7v3.7ZM59,36.3v4.7h4.7v-4.7h-4.7ZM63.2,40.5h-3.7v-3.7h3.7v3.7ZM59,59v4.7h4.7v-4.7h-4.7ZM63.2,63.2h-3.7v-3.7h3.7v3.7ZM59,81.8v4.7h4.7v-4.7h-4.7ZM63.2,85.9h-3.7v-3.7h3.7v3.7ZM59,81.8v4.7h4.7v-4.7h-4.7ZM63.2,85.9h-3.7v-3.7h3.7v3.7ZM59,59v4.7h4.7v-4.7h-4.7ZM63.2,63.2h-3.7v-3.7h3.7v3.7ZM59,36.3v4.7h4.7v-4.7h-4.7ZM63.2,40.5h-3.7v-3.7h3.7v3.7ZM53.3,70.4v4.7h4.7v-4.7h-4.7ZM57.5,74.6h-3.7v-3.7h3.7v3.7ZM47.7,47.7v4.7h4.7v-4.7h-4.7ZM51.8,51.8h-3.7v-3.7h3.7v3.7ZM42,81.8v4.7h4.7v-4.7h-4.7ZM46.1,85.9h-3.7v-3.7h3.7v3.7ZM42,59v4.7h4.7v-4.7h-4.7ZM46.1,63.2h-3.7v-3.7h3.7v3.7ZM42,36.3v4.7h4.7v-4.7h-4.7ZM46.1,40.5h-3.7v-3.7h3.7v3.7ZM36.3,70.4v4.7h4.7v-4.7h-4.7ZM40.5,74.6h-3.7v-3.7h3.7v3.7ZM30.6,42v4.7h4.7v-4.7h-4.7ZM34.8,46.1h-3.7v-3.7h3.7v3.7ZM24.9,76.1v4.7h4.7v-4.7h-4.7ZM29.1,80.2h-3.7v-3.7h3.7v3.7ZM24.9,59v4.7h4.7v-4.7h-4.7ZM29.1,63.2h-3.7v-3.7h3.7v3.7ZM19.3,47.7v4.7h4.7v-4.7h-4.7ZM23.4,51.8h-3.7v-3.7h3.7v3.7ZM13.6,81.8v4.7h4.7v-4.7h-4.7ZM17.7,85.9h-3.7v-3.7h3.7v3.7ZM13.6,64.7v4.7h4.7v-4.7h-4.7ZM17.7,68.9h-3.7v-3.7h3.7v3.7ZM13.6,36.3v4.7h4.7v-4.7h-4.7ZM17.7,40.5h-3.7v-3.7h3.7v3.7ZM13.6,36.3v4.7h4.7v-4.7h-4.7ZM17.7,40.5h-3.7v-3.7h3.7v3.7ZM13.6,64.7v4.7h4.7v-4.7h-4.7ZM17.7,68.9h-3.7v-3.7h3.7v3.7ZM13.6,81.8v4.7h4.7v-4.7h-4.7ZM17.7,85.9h-3.7v-3.7h3.7v3.7ZM19.3,47.7v4.7h4.7v-4.7h-4.7ZM23.4,51.8h-3.7v-3.7h3.7v3.7ZM24.9,59v4.7h4.7v-4.7h-4.7ZM29.1,63.2h-3.7v-3.7h3.7v3.7ZM24.9,76.1v4.7h4.7v-4.7h-4.7ZM29.1,80.2h-3.7v-3.7h3.7v3.7ZM30.6,42v4.7h4.7v-4.7h-4.7ZM34.8,46.1h-3.7v-3.7h3.7v3.7ZM36.3,70.4v4.7h4.7v-4.7h-4.7ZM40.5,74.6h-3.7v-3.7h3.7v3.7ZM42,36.3v4.7h4.7v-4.7h-4.7ZM46.1,40.5h-3.7v-3.7h3.7v3.7ZM42,59v4.7h4.7v-4.7h-4.7ZM46.1,63.2h-3.7v-3.7h3.7v3.7ZM42,81.8v4.7h4.7v-4.7h-4.7ZM46.1,85.9h-3.7v-3.7h3.7v3.7ZM47.7,47.7v4.7h4.7v-4.7h-4.7ZM51.8,51.8h-3.7v-3.7h3.7v3.7ZM53.3,70.4v4.7h4.7v-4.7h-4.7ZM57.5,74.6h-3.7v-3.7h3.7v3.7ZM59,36.3v4.7h4.7v-4.7h-4.7ZM63.2,40.5h-3.7v-3.7h3.7v3.7ZM59,59v4.7h4.7v-4.7h-4.7ZM63.2,63.2h-3.7v-3.7h3.7v3.7ZM59,81.8v4.7h4.7v-4.7h-4.7ZM63.2,85.9h-3.7v-3.7h3.7v3.7ZM59,81.8v4.7h4.7v-4.7h-4.7ZM63.2,85.9h-3.7v-3.7h3.7v3.7ZM59,59v4.7h4.7v-4.7h-4.7ZM63.2,63.2h-3.7v-3.7h3.7v3.7ZM59,36.3v4.7h4.7v-4.7h-4.7ZM63.2,40.5h-3.7v-3.7h3.7v3.7ZM53.3,70.4v4.7h4.7v-4.7h-4.7ZM57.5,74.6h-3.7v-3.7h3.7v3.7ZM47.7,47.7v4.7h4.7v-4.7h-4.7ZM51.8,51.8h-3.7v-3.7h3.7v3.7ZM42,81.8v4.7h4.7v-4.7h-4.7ZM46.1,85.9h-3.7v-3.7h3.7v3.7ZM42,59v4.7h4.7v-4.7h-4.7ZM46.1,63.2h-3.7v-3.7h3.7v3.7ZM42,36.3v4.7h4.7v-4.7h-4.7ZM46.1,40.5h-3.7v-3.7h3.7v3.7ZM36.3,70.4v4.7h4.7v-4.7h-4.7ZM40.5,74.6h-3.7v-3.7h3.7v3.7ZM30.6,42v4.7h4.7v-4.7h-4.7ZM34.8,46.1h-3.7v-3.7h3.7v3.7ZM24.9,76.1v4.7h4.7v-4.7h-4.7ZM29.1,80.2h-3.7v-3.7h3.7v3.7ZM24.9,59v4.7h4.7v-4.7h-4.7ZM29.1,63.2h-3.7v-3.7h3.7v3.7ZM19.3,47.7v4.7h4.7v-4.7h-4.7ZM23.4,51.8h-3.7v-3.7h3.7v3.7ZM13.6,81.8v4.7h4.7v-4.7h-4.7ZM17.7,85.9h-3.7v-3.7h3.7v3.7ZM13.6,64.7v4.7h4.7v-4.7h-4.7ZM17.7,68.9h-3.7v-3.7h3.7v3.7ZM13.6,36.3v4.7h4.7v-4.7h-4.7ZM17.7,40.5h-3.7v-3.7h3.7v3.7ZM13.6,36.3v4.7h4.7v-4.7h-4.7ZM17.7,40.5h-3.7v-3.7h3.7v3.7ZM13.6,64.7v4.7h4.7v-4.7h-4.7ZM17.7,68.9h-3.7v-3.7h3.7v3.7ZM13.6,81.8v4.7h4.7v-4.7h-4.7ZM17.7,85.9h-3.7v-3.7h3.7v3.7ZM19.3,47.7v4.7h4.7v-4.7h-4.7ZM23.4,51.8h-3.7v-3.7h3.7v3.7ZM24.9,59v4.7h4.7v-4.7h-4.7ZM29.1,63.2h-3.7v-3.7h3.7v3.7ZM24.9,76.1v4.7h4.7v-4.7h-4.7ZM29.1,80.2h-3.7v-3.7h3.7v3.7ZM30.6,42v4.7h4.7v-4.7h-4.7ZM34.8,46.1h-3.7v-3.7h3.7v3.7ZM36.3,70.4v4.7h4.7v-4.7h-4.7ZM40.5,74.6h-3.7v-3.7h3.7v3.7ZM42,36.3v4.7h4.7v-4.7h-4.7ZM46.1,40.5h-3.7v-3.7h3.7v3.7ZM42,59v4.7h4.7v-4.7h-4.7ZM46.1,63.2h-3.7v-3.7h3.7v3.7ZM42,81.8v4.7h4.7v-4.7h-4.7ZM46.1,85.9h-3.7v-3.7h3.7v3.7ZM47.7,47.7v4.7h4.7v-4.7h-4.7ZM51.8,51.8h-3.7v-3.7h3.7v3.7ZM53.3,70.4v4.7h4.7v-4.7h-4.7ZM57.5,74.6h-3.7v-3.7h3.7v3.7ZM59,36.3v4.7h4.7v-4.7h-4.7ZM63.2,40.5h-3.7v-3.7h3.7v3.7ZM59,59v4.7h4.7v-4.7h-4.7ZM63.2,63.2h-3.7v-3.7h3.7v3.7ZM59,81.8v4.7h4.7v-4.7h-4.7ZM63.2,85.9h-3.7v-3.7h3.7v3.7ZM59,81.8v4.7h4.7v-4.7h-4.7ZM63.2,85.9h-3.7v-3.7h3.7v3.7ZM59,59v4.7h4.7v-4.7h-4.7ZM63.2,63.2h-3.7v-3.7h3.7v3.7ZM59,36.3v4.7h4.7v-4.7h-4.7ZM63.2,40.5h-3.7v-3.7h3.7v3.7ZM53.3,70.4v4.7h4.7v-4.7h-4.7ZM57.5,74.6h-3.7v-3.7h3.7v3.7ZM47.7,47.7v4.7h4.7v-4.7h-4.7ZM51.8,51.8h-3.7v-3.7h3.7v3.7ZM42,81.8v4.7h4.7v-4.7h-4.7ZM46.1,85.9h-3.7v-3.7h3.7v3.7ZM42,59v4.7h4.7v-4.7h-4.7ZM46.1,63.2h-3.7v-3.7h3.7v3.7ZM42,36.3v4.7h4.7v-4.7h-4.7ZM46.1,40.5h-3.7v-3.7h3.7v3.7ZM36.3,70.4v4.7h4.7v-4.7h-4.7ZM40.5,74.6h-3.7v-3.7h3.7v3.7ZM30.6,42v4.7h4.7v-4.7h-4.7ZM34.8,46.1h-3.7v-3.7h3.7v3.7ZM24.9,76.1v4.7h4.7v-4.7h-4.7ZM29.1,80.2h-3.7v-3.7h3.7v3.7ZM24.9,59v4.7h4.7v-4.7h-4.7ZM29.1,63.2h-3.7v-3.7h3.7v3.7ZM19.3,47.7v4.7h4.7v-4.7h-4.7ZM23.4,51.8h-3.7v-3.7h3.7v3.7ZM13.6,81.8v4.7h4.7v-4.7h-4.7ZM17.7,85.9h-3.7v-3.7h3.7v3.7ZM13.6,64.7v4.7h4.7v-4.7h-4.7ZM17.7,68.9h-3.7v-3.7h3.7v3.7ZM13.6,36.3v4.7h4.7v-4.7h-4.7ZM17.7,40.5h-3.7v-3.7h3.7v3.7ZM13.6,36.3v4.7h4.7v-4.7h-4.7ZM17.7,40.5h-3.7v-3.7h3.7v3.7ZM13.6,64.7v4.7h4.7v-4.7h-4.7ZM17.7,68.9h-3.7v-3.7h3.7v3.7ZM13.6,81.8v4.7h4.7v-4.7h-4.7ZM17.7,85.9h-3.7v-3.7h3.7v3.7ZM19.3,47.7v4.7h4.7v-4.7h-4.7ZM23.4,51.8h-3.7v-3.7h3.7v3.7ZM24.9,59v4.7h4.7v-4.7h-4.7ZM29.1,63.2h-3.7v-3.7h3.7v3.7ZM24.9,76.1v4.7h4.7v-4.7h-4.7ZM29.1,80.2h-3.7v-3.7h3.7v3.7ZM30.6,42v4.7h4.7v-4.7h-4.7ZM34.8,46.1h-3.7v-3.7h3.7v3.7ZM36.3,70.4v4.7h4.7v-4.7h-4.7ZM40.5,74.6h-3.7v-3.7h3.7v3.7ZM42,36.3v4.7h4.7v-4.7h-4.7ZM46.1,40.5h-3.7v-3.7h3.7v3.7ZM42,59v4.7h4.7v-4.7h-4.7ZM46.1,63.2h-3.7v-3.7h3.7v3.7ZM42,81.8v4.7h4.7v-4.7h-4.7ZM46.1,85.9h-3.7v-3.7h3.7v3.7ZM47.7,47.7v4.7h4.7v-4.7h-4.7ZM51.8,51.8h-3.7v-3.7h3.7v3.7ZM53.3,70.4v4.7h4.7v-4.7h-4.7ZM57.5,74.6h-3.7v-3.7h3.7v3.7ZM59,36.3v4.7h4.7v-4.7h-4.7ZM63.2,40.5h-3.7v-3.7h3.7v3.7ZM59,59v4.7h4.7v-4.7h-4.7ZM63.2,63.2h-3.7v-3.7h3.7v3.7ZM59,81.8v4.7h4.7v-4.7h-4.7ZM63.2,85.9h-3.7v-3.7h3.7v3.7ZM59,81.8v4.7h4.7v-4.7h-4.7ZM63.2,85.9h-3.7v-3.7h3.7v3.7ZM59,59v4.7h4.7v-4.7h-4.7ZM63.2,63.2h-3.7v-3.7h3.7v3.7ZM59,36.3v4.7h4.7v-4.7h-4.7ZM63.2,40.5h-3.7v-3.7h3.7v3.7ZM53.3,70.4v4.7h4.7v-4.7h-4.7ZM57.5,74.6h-3.7v-3.7h3.7v3.7ZM47.7,47.7v4.7h4.7v-4.7h-4.7ZM51.8,51.8h-3.7v-3.7h3.7v3.7ZM42,81.8v4.7h4.7v-4.7h-4.7ZM46.1,85.9h-3.7v-3.7h3.7v3.7ZM42,59v4.7h4.7v-4.7h-4.7ZM46.1,63.2h-3.7v-3.7h3.7v3.7ZM42,36.3v4.7h4.7v-4.7h-4.7ZM46.1,40.5h-3.7v-3.7h3.7v3.7ZM36.3,70.4v4.7h4.7v-4.7h-4.7ZM40.5,74.6h-3.7v-3.7h3.7v3.7ZM30.6,42v4.7h4.7v-4.7h-4.7ZM34.8,46.1h-3.7v-3.7h3.7v3.7ZM24.9,76.1v4.7h4.7v-4.7h-4.7ZM29.1,80.2h-3.7v-3.7h3.7v3.7ZM24.9,59v4.7h4.7v-4.7h-4.7ZM29.1,63.2h-3.7v-3.7h3.7v3.7ZM19.3,47.7v4.7h4.7v-4.7h-4.7ZM23.4,51.8h-3.7v-3.7h3.7v3.7ZM13.6,81.8v4.7h4.7v-4.7h-4.7ZM17.7,85.9h-3.7v-3.7h3.7v3.7ZM13.6,64.7v4.7h4.7v-4.7h-4.7ZM17.7,68.9h-3.7v-3.7h3.7v3.7ZM13.6,36.3v4.7h4.7v-4.7h-4.7ZM17.7,40.5h-3.7v-3.7h3.7v3.7ZM13.6,36.3v4.7h4.7v-4.7h-4.7ZM17.7,40.5h-3.7v-3.7h3.7v3.7ZM13.6,64.7v4.7h4.7v-4.7h-4.7ZM17.7,68.9h-3.7v-3.7h3.7v3.7ZM13.6,81.8v4.7h4.7v-4.7h-4.7ZM17.7,85.9h-3.7v-3.7h3.7v3.7ZM19.3,47.7v4.7h4.7v-4.7h-4.7ZM23.4,51.8h-3.7v-3.7h3.7v3.7ZM24.9,59v4.7h4.7v-4.7h-4.7ZM29.1,63.2h-3.7v-3.7h3.7v3.7ZM24.9,76.1v4.7h4.7v-4.7h-4.7ZM29.1,80.2h-3.7v-3.7h3.7v3.7ZM30.6,42v4.7h4.7v-4.7h-4.7ZM34.8,46.1h-3.7v-3.7h3.7v3.7ZM36.3,70.4v4.7h4.7v-4.7h-4.7ZM40.5,74.6h-3.7v-3.7h3.7v3.7ZM42,36.3v4.7h4.7v-4.7h-4.7ZM46.1,40.5h-3.7v-3.7h3.7v3.7ZM42,59v4.7h4.7v-4.7h-4.7ZM46.1,63.2h-3.7v-3.7h3.7v3.7ZM42,81.8v4.7h4.7v-4.7h-4.7ZM46.1,85.9h-3.7v-3.7h3.7v3.7ZM47.7,47.7v4.7h4.7v-4.7h-4.7ZM51.8,51.8h-3.7v-3.7h3.7v3.7ZM53.3,70.4v4.7h4.7v-4.7h-4.7ZM57.5,74.6h-3.7v-3.7h3.7v3.7ZM59,36.3v4.7h4.7v-4.7h-4.7ZM63.2,40.5h-3.7v-3.7h3.7v3.7ZM59,59v4.7h4.7v-4.7h-4.7ZM63.2,63.2h-3.7v-3.7h3.7v3.7ZM59,81.8v4.7h4.7v-4.7h-4.7ZM63.2,85.9h-3.7v-3.7h3.7v3.7ZM59,81.8v4.7h4.7v-4.7h-4.7ZM63.2,85.9h-3.7v-3.7h3.7v3.7ZM59,59v4.7h4.7v-4.7h-4.7ZM63.2,63.2h-3.7v-3.7h3.7v3.7ZM59,36.3v4.7h4.7v-4.7h-4.7ZM63.2,40.5h-3.7v-3.7h3.7v3.7ZM53.3,70.4v4.7h4.7v-4.7h-4.7ZM57.5,74.6h-3.7v-3.7h3.7v3.7ZM47.7,47.7v4.7h4.7v-4.7h-4.7ZM51.8,51.8h-3.7v-3.7h3.7v3.7ZM42,81.8v4.7h4.7v-4.7h-4.7ZM46.1,85.9h-3.7v-3.7h3.7v3.7ZM42,59v4.7h4.7v-4.7h-4.7ZM46.1,63.2h-3.7v-3.7h3.7v3.7ZM42,36.3v4.7h4.7v-4.7h-4.7ZM46.1,40.5h-3.7v-3.7h3.7v3.7ZM36.3,70.4v4.7h4.7v-4.7h-4.7ZM40.5,74.6h-3.7v-3.7h3.7v3.7ZM30.6,42v4.7h4.7v-4.7h-4.7ZM34.8,46.1h-3.7v-3.7h3.7v3.7ZM24.9,76.1v4.7h4.7v-4.7h-4.7ZM29.1,80.2h-3.7v-3.7h3.7v3.7ZM24.9,59v4.7h4.7v-4.7h-4.7ZM29.1,63.2h-3.7v-3.7h3.7v3.7ZM19.3,47.7v4.7h4.7v-4.7h-4.7ZM23.4,51.8h-3.7v-3.7h3.7v3.7ZM13.6,81.8v4.7h4.7v-4.7h-4.7ZM17.7,85.9h-3.7v-3.7h3.7v3.7ZM13.6,64.7v4.7h4.7v-4.7h-4.7ZM17.7,68.9h-3.7v-3.7h3.7v3.7ZM13.6,36.3v4.7h4.7v-4.7h-4.7ZM17.7,40.5h-3.7v-3.7h3.7v3.7ZM13.6,36.3v4.7h4.7v-4.7h-4.7ZM17.7,40.5h-3.7v-3.7h3.7v3.7ZM13.6,64.7v4.7h4.7v-4.7h-4.7ZM17.7,68.9h-3.7v-3.7h3.7v3.7ZM13.6,81.8v4.7h4.7v-4.7h-4.7ZM17.7,85.9h-3.7v-3.7h3.7v3.7ZM19.3,47.7v4.7h4.7v-4.7h-4.7ZM23.4,51.8h-3.7v-3.7h3.7v3.7ZM24.9,59v4.7h4.7v-4.7h-4.7ZM29.1,63.2h-3.7v-3.7h3.7v3.7ZM24.9,76.1v4.7h4.7v-4.7h-4.7ZM29.1,80.2h-3.7v-3.7h3.7v3.7ZM30.6,42v4.7h4.7v-4.7h-4.7ZM34.8,46.1h-3.7v-3.7h3.7v3.7ZM36.3,70.4v4.7h4.7v-4.7h-4.7ZM40.5,74.6h-3.7v-3.7h3.7v3.7ZM42,36.3v4.7h4.7v-4.7h-4.7ZM46.1,40.5h-3.7v-3.7h3.7v3.7ZM42,59v4.7h4.7v-4.7h-4.7ZM46.1,63.2h-3.7v-3.7h3.7v3.7ZM42,81.8v4.7h4.7v-4.7h-4.7ZM46.1,85.9h-3.7v-3.7h3.7v3.7ZM47.7,47.7v4.7h4.7v-4.7h-4.7ZM51.8,51.8h-3.7v-3.7h3.7v3.7ZM53.3,70.4v4.7h4.7v-4.7h-4.7ZM57.5,74.6h-3.7v-3.7h3.7v3.7ZM59,36.3v4.7h4.7v-4.7h-4.7ZM63.2,40.5h-3.7v-3.7h3.7v3.7ZM59,59v4.7h4.7v-4.7h-4.7ZM63.2,63.2h-3.7v-3.7h3.7v3.7ZM59,81.8v4.7h4.7v-4.7h-4.7ZM63.2,85.9h-3.7v-3.7h3.7v3.7ZM59,81.8v4.7h4.7v-4.7h-4.7ZM63.2,85.9h-3.7v-3.7h3.7v3.7ZM59,59v4.7h4.7v-4.7h-4.7ZM63.2,63.2h-3.7v-3.7h3.7v3.7ZM59,36.3v4.7h4.7v-4.7h-4.7ZM63.2,40.5h-3.7v-3.7h3.7v3.7ZM53.3,70.4v4.7h4.7v-4.7h-4.7ZM57.5,74.6h-3.7v-3.7h3.7v3.7ZM47.7,47.7v4.7h4.7v-4.7h-4.7ZM51.8,51.8h-3.7v-3.7h3.7v3.7ZM42,81.8v4.7h4.7v-4.7h-4.7ZM46.1,85.9h-3.7v-3.7h3.7v3.7ZM42,59v4.7h4.7v-4.7h-4.7ZM46.1,63.2h-3.7v-3.7h3.7v3.7ZM42,36.3v4.7h4.7v-4.7h-4.7ZM46.1,40.5h-3.7v-3.7h3.7v3.7ZM36.3,70.4v4.7h4.7v-4.7h-4.7ZM40.5,74.6h-3.7v-3.7h3.7v3.7ZM30.6,42v4.7h4.7v-4.7h-4.7ZM34.8,46.1h-3.7v-3.7h3.7v3.7ZM24.9,76.1v4.7h4.7v-4.7h-4.7ZM29.1,80.2h-3.7v-3.7h3.7v3.7ZM24.9,59v4.7h4.7v-4.7h-4.7ZM29.1,63.2h-3.7v-3.7h3.7v3.7ZM19.3,47.7v4.7h4.7v-4.7h-4.7ZM23.4,51.8h-3.7v-3.7h3.7v3.7ZM13.6,81.8v4.7h4.7v-4.7h-4.7ZM17.7,85.9h-3.7v-3.7h3.7v3.7ZM13.6,64.7v4.7h4.7v-4.7h-4.7ZM17.7,68.9h-3.7v-3.7h3.7v3.7ZM13.6,36.3v4.7h4.7v-4.7h-4.7ZM17.7,40.5h-3.7v-3.7h3.7v3.7ZM13.6,36.3v4.7h4.7v-4.7h-4.7ZM17.7,40.5h-3.7v-3.7h3.7v3.7ZM13.6,64.7v4.7h4.7v-4.7h-4.7ZM17.7,68.9h-3.7v-3.7h3.7v3.7ZM13.6,81.8v4.7h4.7v-4.7h-4.7ZM17.7,85.9h-3.7v-3.7h3.7v3.7ZM19.3,47.7v4.7h4.7v-4.7h-4.7ZM23.4,51.8h-3.7v-3.7h3.7v3.7ZM24.9,59v4.7h4.7v-4.7h-4.7ZM29.1,63.2h-3.7v-3.7h3.7v3.7ZM24.9,76.1v4.7h4.7v-4.7h-4.7ZM29.1,80.2h-3.7v-3.7h3.7v3.7ZM30.6,42v4.7h4.7v-4.7h-4.7ZM34.8,46.1h-3.7v-3.7h3.7v3.7ZM36.3,70.4v4.7h4.7v-4.7h-4.7ZM40.5,74.6h-3.7v-3.7h3.7v3.7ZM42,36.3v4.7h4.7v-4.7h-4.7ZM46.1,40.5h-3.7v-3.7h3.7v3.7ZM42,59v4.7h4.7v-4.7h-4.7ZM46.1,63.2h-3.7v-3.7h3.7v3.7ZM42,81.8v4.7h4.7v-4.7h-4.7ZM46.1,85.9h-3.7v-3.7h3.7v3.7ZM47.7,47.7v4.7h4.7v-4.7h-4.7ZM51.8,51.8h-3.7v-3.7h3.7v3.7ZM53.3,70.4v4.7h4.7v-4.7h-4.7ZM57.5,74.6h-3.7v-3.7h3.7v3.7ZM59,36.3v4.7h4.7v-4.7h-4.7ZM63.2,40.5h-3.7v-3.7h3.7v3.7ZM59,59v4.7h4.7v-4.7h-4.7ZM63.2,63.2h-3.7v-3.7h3.7v3.7ZM59,81.8v4.7h4.7v-4.7h-4.7ZM63.2,85.9h-3.7v-3.7h3.7v3.7ZM59,81.8v4.7h4.7v-4.7h-4.7ZM63.2,85.9h-3.7v-3.7h3.7v3.7ZM59,59v4.7h4.7v-4.7h-4.7ZM63.2,63.2h-3.7v-3.7h3.7v3.7ZM59,36.3v4.7h4.7v-4.7h-4.7ZM63.2,40.5h-3.7v-3.7h3.7v3.7ZM53.3,70.4v4.7h4.7v-4.7h-4.7ZM57.5,74.6h-3.7v-3.7h3.7v3.7ZM47.7,47.7v4.7h4.7v-4.7h-4.7ZM51.8,51.8h-3.7v-3.7h3.7v3.7ZM42,81.8v4.7h4.7v-4.7h-4.7ZM46.1,85.9h-3.7v-3.7h3.7v3.7ZM42,59v4.7h4.7v-4.7h-4.7ZM46.1,63.2h-3.7v-3.7h3.7v3.7ZM42,36.3v4.7h4.7v-4.7h-4.7ZM46.1,40.5h-3.7v-3.7h3.7v3.7ZM36.3,70.4v4.7h4.7v-4.7h-4.7ZM40.5,74.6h-3.7v-3.7h3.7v3.7ZM30.6,42v4.7h4.7v-4.7h-4.7ZM34.8,46.1h-3.7v-3.7h3.7v3.7ZM24.9,76.1v4.7h4.7v-4.7h-4.7ZM29.1,80.2h-3.7v-3.7h3.7v3.7ZM24.9,59v4.7h4.7v-4.7h-4.7ZM29.1,63.2h-3.7v-3.7h3.7v3.7ZM19.3,47.7v4.7h4.7v-4.7h-4.7ZM23.4,51.8h-3.7v-3.7h3.7v3.7ZM13.6,81.8v4.7h4.7v-4.7h-4.7ZM17.7,85.9h-3.7v-3.7h3.7v3.7ZM13.6,64.7v4.7h4.7v-4.7h-4.7ZM17.7,68.9h-3.7v-3.7h3.7v3.7ZM13.6,36.3v4.7h4.7v-4.7h-4.7ZM17.7,40.5h-3.7v-3.7h3.7v3.7ZM13.6,36.3v4.7h4.7v-4.7h-4.7ZM17.7,40.5h-3.7v-3.7h3.7v3.7ZM13.6,64.7v4.7h4.7v-4.7h-4.7ZM17.7,68.9h-3.7v-3.7h3.7v3.7ZM13.6,81.8v4.7h4.7v-4.7h-4.7ZM17.7,85.9h-3.7v-3.7h3.7v3.7ZM19.3,47.7v4.7h4.7v-4.7h-4.7ZM23.4,51.8h-3.7v-3.7h3.7v3.7ZM24.9,59v4.7h4.7v-4.7h-4.7ZM29.1,63.2h-3.7v-3.7h3.7v3.7ZM24.9,76.1v4.7h4.7v-4.7h-4.7ZM29.1,80.2h-3.7v-3.7h3.7v3.7ZM30.6,42v4.7h4.7v-4.7h-4.7ZM34.8,46.1h-3.7v-3.7h3.7v3.7ZM36.3,70.4v4.7h4.7v-4.7h-4.7ZM40.5,74.6h-3.7v-3.7h3.7v3.7ZM42,36.3v4.7h4.7v-4.7h-4.7ZM46.1,40.5h-3.7v-3.7h3.7v3.7ZM42,59v4.7h4.7v-4.7h-4.7ZM46.1,63.2h-3.7v-3.7h3.7v3.7ZM42,81.8v4.7h4.7v-4.7h-4.7ZM46.1,85.9h-3.7v-3.7h3.7v3.7ZM47.7,47.7v4.7h4.7v-4.7h-4.7ZM51.8,51.8h-3.7v-3.7h3.7v3.7ZM53.3,70.4v4.7h4.7v-4.7h-4.7ZM57.5,74.6h-3.7v-3.7h3.7v3.7ZM59,36.3v4.7h4.7v-4.7h-4.7ZM63.2,40.5h-3.7v-3.7h3.7v3.7ZM59,59v4.7h4.7v-4.7h-4.7ZM63.2,63.2h-3.7v-3.7h3.7v3.7ZM59,81.8v4.7h4.7v-4.7h-4.7ZM63.2,85.9h-3.7v-3.7h3.7v3.7ZM59,81.8v4.7h4.7v-4.7h-4.7ZM63.2,85.9h-3.7v-3.7h3.7v3.7ZM42,81.8v4.7h4.7v-4.7h-4.7ZM46.1,85.9h-3.7v-3.7h3.7v3.7ZM13.6,81.8v4.7h4.7v-4.7h-4.7ZM17.7,85.9h-3.7v-3.7h3.7v3.7ZM24.9,76.1v4.7h4.7v-4.7h-4.7ZM29.1,80.2h-3.7v-3.7h3.7v3.7ZM53.3,70.4v4.7h4.7v-4.7h-4.7ZM57.5,74.6h-3.7v-3.7h3.7v3.7ZM36.3,70.4v4.7h4.7v-4.7h-4.7ZM40.5,74.6h-3.7v-3.7h3.7v3.7ZM13.6,64.7v4.7h4.7v-4.7h-4.7ZM17.7,68.9h-3.7v-3.7h3.7v3.7ZM59,59v4.7h4.7v-4.7h-4.7ZM63.2,63.2h-3.7v-3.7h3.7v3.7ZM42,59v4.7h4.7v-4.7h-4.7ZM46.1,63.2h-3.7v-3.7h3.7v3.7ZM24.9,59v4.7h4.7v-4.7h-4.7ZM29.1,63.2h-3.7v-3.7h3.7v3.7ZM47.7,47.7v4.7h4.7v-4.7h-4.7ZM51.8,51.8h-3.7v-3.7h3.7v3.7ZM19.3,47.7v4.7h4.7v-4.7h-4.7ZM23.4,51.8h-3.7v-3.7h3.7v3.7ZM30.6,42v4.7h4.7v-4.7h-4.7ZM34.8,46.1h-3.7v-3.7h3.7v3.7ZM59,36.3v4.7h4.7v-4.7h-4.7ZM63.2,40.5h-3.7v-3.7h3.7v3.7ZM42,36.3v4.7h4.7v-4.7h-4.7ZM46.1,40.5h-3.7v-3.7h3.7v3.7ZM13.6,36.3v4.7h4.7v-4.7h-4.7ZM17.7,40.5h-3.7v-3.7h3.7v3.7Z"/>
  <path class="cls-2" d="M25.4,2.7v22.7H2.7v71.8h71.8v-22.7h22.7V2.7H25.4ZM50.7,6.4h31.5v8.8l-3.9,3.9-4.9-4.9h-22.7l-3.8-3.8,3.8-3.8ZM59.5,17.7v7.7h-19.1v-8.8l3.9-3.8,4.9,4.9h10.3ZM29.1,6.4h16.5l-7.7,7.7h-8.8v-7.7ZM29.1,17.7h7.7v7.7h-7.7v-7.7ZM70.9,93.6H6.4V29.1h64.5v64.5ZM63.2,25.5v-7.7h8.8l10.3,10.3v9.9l-7.7,7.7v-20.1h-11.4ZM78.4,46.9l3.9,3.9v8.8h-7.7v-8.8l3.9-3.9ZM74.5,70.9v-7.7h8.8l7.7,7.7h-16.5ZM93.6,68.3l-7.7-7.7v-11.4l-4.9-4.9,3.9-3.9h8.8v27.8ZM93.6,36.8h-7.7v-10.3l-4.9-4.9,4.9-4.9V6.4h7.7v30.4Z"/>
  <rect class="cls-2" x="13.6" y="36.3" width="4.7" height="4.7"/>
  <rect class="cls-2" x="19.3" y="47.7" width="4.7" height="4.7"/>
  <rect class="cls-2" x="30.6" y="42" width="4.7" height="4.7"/>
  <rect class="cls-2" x="24.9" y="59" width="4.7" height="4.7"/>
  <rect class="cls-2" x="42" y="59" width="4.7" height="4.7"/>
  <rect class="cls-2" x="59" y="59" width="4.7" height="4.7"/>
  <rect class="cls-2" x="53.3" y="70.4" width="4.7" height="4.7"/>
  <rect class="cls-2" x="47.7" y="47.7" width="4.7" height="4.7"/>
  <rect class="cls-2" x="42" y="36.3" width="4.7" height="4.7"/>
  <rect class="cls-2" x="59" y="36.3" width="4.7" height="4.7"/>
  <rect class="cls-2" x="24.9" y="76.1" width="4.7" height="4.7"/>
  <rect class="cls-2" x="36.3" y="70.4" width="4.7" height="4.7"/>
  <rect class="cls-2" x="42" y="81.8" width="4.7" height="4.7"/>
  <rect class="cls-2" x="59" y="81.8" width="4.7" height="4.7"/>
  <rect class="cls-2" x="13.6" y="81.8" width="4.7" height="4.7"/>
  <rect class="cls-2" x="13.6" y="64.7" width="4.7" height="4.7"/>
</svg>