<?xml version="1.0" encoding="UTF-8"?>
<svg id="Layer_1" xmlns="http://www.w3.org/2000/svg" viewBox="0 0 100 100">
  <defs>
    <style>
      .cls-1 {
        fill: currentColor;
      }
    </style>
  </defs>
  <path class="cls-1" d="M85.5,86.8H14.5c-1,0-1.9-.8-1.9-1.9s.8-1.9,1.9-1.9h71c1,0,1.9.8,1.9,1.9s-.8,1.9-1.9,1.9Z"/>
  <path class="cls-1" d="M50.1,78.9h-.1c-1,0-1.9-.8-1.9-1.9s.8-1.9,1.9-1.9h.1c1,0,1.9.8,1.9,1.9s-.8,1.9-1.9,1.9Z"/>
  <path class="cls-1" d="M16.9,86.8h-4.3c-4.4,0-7.9-3.5-7.9-7.9v-20c0-4.4,3.5-7.9,7.9-7.9h4.3c4.4,0,7.9,3.5,7.9,7.9v20c0,4.4-3.5,7.9-7.9,7.9ZM12.5,54.8c-2.3,0-4.1,1.8-4.1,4.1v20c0,2.3,1.8,4.1,4.1,4.1h4.3c2.3,0,4.1-1.8,4.1-4.1v-20c0-2.3-1.8-4.1-4.1-4.1h-4.3Z"/>
  <path class="cls-1" d="M87.5,86.8h-4.3c-4.4,0-7.9-3.5-7.9-7.9v-20c0-4.4,3.5-7.9,7.9-7.9h4.3c4.4,0,7.9,3.5,7.9,7.9v20c0,4.4-3.5,7.9-7.9,7.9ZM83.1,54.8c-2.3,0-4.1,1.8-4.1,4.1v20c0,2.3,1.8,4.1,4.1,4.1h4.3c2.3,0,4.1-1.8,4.1-4.1v-20c0-2.3-1.8-4.1-4.1-4.1h-4.3Z"/>
  <path class="cls-1" d="M20.2,98.9h-5.4c-1,0-1.9-.8-1.9-1.9v-12.1c0-1,.8-1.9,1.9-1.9s1.9.8,1.9,1.9v10.2h2.1l2.9-10.7c.3-1,1.3-1.6,2.3-1.4,1,.3,1.6,1.3,1.4,2.3,0,0,0,0,0,0l-3.3,12.1c-.2.8-1,1.4-1.8,1.4Z"/>
  <path class="cls-1" d="M85.4,98.9h-5.4c-.8,0-1.6-.6-1.8-1.4l-3.3-12.1c-.3-1,.4-2,1.4-2.3,1-.2,2,.3,2.3,1.3l2.9,10.7h2.1v-10.2c0-1,.8-1.9,1.9-1.9s1.9.8,1.9,1.9v12.1c0,1-.8,1.9-1.9,1.9Z"/>
  <path class="cls-1" d="M85.3,54.7c-1,0-1.9-.8-1.9-1.9v-14.3h0c-1-1-4.6-2-9.2-2H25.9c-5.3,0-8.5,1.2-9.2,1.9h0v14.3c0,1-.8,1.9-1.9,1.9s-1.9-.8-1.9-1.9v-14.5c0-.6.2-1.6,1.1-2.5,2.3-2.2,7.6-3,11.9-3h48.3c4.2,0,9.5.8,11.8,2.9,1,.9,1.2,1.9,1.2,2.6v14.5c0,1-.8,1.9-1.9,1.9Z"/>
  <path class="cls-1" d="M77.1,79H22.9c-1,0-1.9-.8-1.9-1.9s.8-1.9,1.9-1.9h54.2c1,0,1.9.8,1.9,1.9s-.8,1.9-1.9,1.9Z"/>
  <path class="cls-1" d="M50.1,78.9c-1,0-1.9-.8-1.9-1.9v-2.5c0-4.6-2.2-8.1-4.2-8.1h-15c-2,0-4.2,3.5-4.2,8.1v2.5c0,1-.8,1.9-1.9,1.9s-1.9-.8-1.9-1.9v-2.5c0-6.6,3.5-11.8,8-11.8h15c4.5,0,8,5.2,8,11.8v2.5c0,1-.8,1.9-1.9,1.9Z"/>
  <path class="cls-1" d="M77.1,78.9c-1,0-1.9-.8-1.9-1.9v-2.5c0-4.6-2.2-8.1-4.2-8.1h-14.9c-2,0-4.2,3.5-4.2,8.1v2.5c0,1-.8,1.9-1.9,1.9s-1.9-.8-1.9-1.9v-2.5c0-6.6,3.5-11.8,7.9-11.8h14.9c4.5,0,7.9,5.2,7.9,11.8v2.5c0,1-.8,1.9-1.9,1.9Z"/>
  <path class="cls-1" d="M71.7,36.5c-1,0-1.9-.8-1.9-1.9v-11.6c0-1,.8-1.9,1.9-1.9s1.9.8,1.9,1.9v11.6c0,1-.8,1.9-1.9,1.9Z"/>
  <path class="cls-1" d="M82.2,24.8h-21c-1,0-1.9-.8-1.9-1.9,0-.2,0-.3,0-.5l5.4-20c.2-.8,1-1.4,1.8-1.4h10.2c.9,0,1.6.6,1.8,1.4l5.4,20c.3,1-.3,2-1.3,2.3-.2,0-.3,0-.5,0ZM63.6,21.1h16.1l-4.4-16.2h-7.4l-4.4,16.2Z"/>
</svg>