<?xml version="1.0" encoding="UTF-8"?>
<svg id="_x30_2_Driver" xmlns="http://www.w3.org/2000/svg" viewBox="0 0 100 100">
  <defs>
    <style>
      .cls-1 {
        fill: #fff;
      }

      .cls-2 {
        fill: currentColor;
      }
    </style>
  </defs>
  <g>
    <path class="cls-2" d="M93.1,46.2c-2.8-1.4-6.5-2.2-10.9-2.2h-9.8c-.7.6-1.5,1.3-2.2,1.9-.6.5-1.4.8-2.2.8h-2.8c-.8,0-1.6-.3-2.2-.8-.7-.6-1.4-1.2-2.2-1.9h-26.3c-.3-1.7-1.1-3.3-2.2-4.5l-6.8-7.5c-1.7-1.9-4.1-3-6.8-3.2h-1.2c-.6-.1-1.3,0-1.9.2v-4c0-1.4-.6-2.7-1.5-3.5,1-1.1,1.5-2.6,1.5-4.2,0-3.6-2.9-6.6-6.6-6.6s-6.6,2.9-6.6,6.6.6,3.1,1.5,4.2c-.9.9-1.5,2.2-1.5,3.5v59.3c0,1,.8,1.9,1.9,1.9h6.4c1,0,1.8-.7,1.9-1.7.2-2.3,1.5-8.8,4.5-11.6h5c1,0,1.9-.8,1.9-1.9s-.8-1.9-1.9-1.9H6.1v-16.4h24.8v4.8c0,2.8,2.3,5.1,5,5.2,0,0,0,0,.1,0h2.9c.5-1.5,1.4-2.7,2.6-3.7h-5.5c-.8,0-1.5-.7-1.5-1.5v-9.8s47.5,0,47.5,0c3.8,0,6.9.6,9.2,1.8,1.5.8,2.5,2.3,2.5,4.1v4c0,.5-.2.9-.6,1.2-.3.2-.6.3-.9.3h-.9c1.9,1.6,3.1,4,3.1,6.6v20.5h1.1c.7,0,1.3-.4,1.6-.9.1-.2.2-.4.2-.6,0-.1,0-.2,0-.3v-30.7c0-3.1-1.7-6-4.5-7.4ZM12.4,72.8c-2,3.3-2.9,7.4-3.3,9.6h-2.9v-9.6h6.2ZM11.9,49h-5.7v-24c0-.6.5-1.2,1.2-1.2h3.4c.6,0,1.2.5,1.2,1.2v24ZM9,20c-1.6,0-2.9-1.3-2.9-2.9s1.3-2.9,2.9-2.9,2.9,1.3,2.9,2.9-1.3,2.9-2.9,2.9ZM15.6,49v-5.6l5.1,5.6h-5.1ZM30.9,46.7c0,.7,0,1.4-.6,1.9-.6.5-1.2.4-1.8.4-1.9,0-3.5-.8-4.6-2l-6.8-7.5c-1.1-1.2-1.6-2.8-1.5-4.5,0-.8,0-1.6.6-2.2.7-.6,1.4-.4,2.2-.3,1.8.1,3.2.8,4.3,2l6.8,7.5c1.1,1.2,1.6,2.9,1.5,4.8ZM75.4,59l-.6.9c-.4.6-1.2.8-1.8.4l-1.9-1.3h-9.2l-1.9,1.3c-.6.4-1.4.2-1.8-.4l-.6-.9h-3.4l1.5,2.5c.3.5.7.9,1.2,1.3h8.4l-1.5-1.5,2.7-1.8,2.7,1.8-1.5,1.5h8.3c.5-.3.9-.7,1.2-1.3l1.5-2.5h-3.4ZM70.9,69h-2.7v3.7h2.9v-3.7ZM62.2,69v3.7c-.1,0,2.7,0,2.7,0v-3.7c0,0-2.7,0-2.7,0ZM38.4,69c-1,0-1.9.8-1.9,1.9s.8,1.8,1.8,1.9c0,0,0,0,0,0h0v-3.7h0Z"/>
    <path class="cls-2" d="M31.9,70.2c-.4-.9-1.5-1.4-2.4-1-.9.4-1.4,1.5-1,2.4.4.9,1.5,1.4,2.4,1,.9-.4,1.4-1.5,1-2.4Z"/>
  </g>
  <g>
    <path class="cls-1" d="M93.3,58.7l-2-2.4-9.7-3.1-5.9-2.9v-2.6s-.1-3.7-.1-3.7v-3.6c-1,1.4-2.1,2.6-3.2,3.6-.7.6-1.5,1.3-2.2,1.9-.6.5-1.4.8-2.2.8h-2.8c-.8,0-1.6-.3-2.2-.8-.7-.6-1.4-1.2-2.2-1.9-.6-.6-1.3-1.2-1.9-1.9,0,.6-.1,1.2-.2,1.9-.1,1.3-.2,2.7-.4,3.7,0,.9-.2,1.5-.2,1.4-.2-.2-1.7,2.8-1.7,2.8l-3.3.4-10.5,4.9-1.6,1.8-2.4,2.6v1.1s0,2.4,0,2.4c0-.8.2-1.6.5-2.4.5-1.5,1.4-2.7,2.6-3.7.9-.7,1.9-1.3,3.1-1.6l7.3-2.1,2.3,3.7,1.5,2.5c.3.5.7.9,1.2,1.3,1.3.8,2.9,1,4.4.1l.9.9-.2,5.3v3.7c-.1,0-.9,19.6-.9,19.6h2.9s.7-19.6.7-19.6v-3.7c0,0,.2-3.1.2-3.1.5.2,1,.3,1.5.3s1-.1,1.5-.3v3.1c0,0,.2,3.7.2,3.7l.7,19.6h2.9s0,0,0,0l-.8-19.6v-3.7c-.1,0-.3-5.3-.3-5.3l.9-.9c1.4.8,3.1.7,4.4-.1.5-.3.9-.7,1.2-1.3l1.5-2.5,2.3-3.7,7.3,2c1.2.3,2.2.9,3.1,1.6,1.9,1.6,3.1,4,3.1,6.6v26.9h2.7s0-29.1,0-29.1l-4-4.7ZM60.6,47.7c.2.2.4.4.4.4,1.2,1,2.6,1.5,4.1,1.5h2.8c1.5,0,3-.5,4.1-1.5.2-.1.3-.3.4-.4h.5v1.7l-6.5,6.2-6.5-6.2v-1.7h.5ZM54.7,54.1c2.8-1.7,3.5-2.2,3.7-2.3h0s0,0,0,0c0,0,0,0,0,0h0s0,0,0,0h0l5.8,5.6-2.3,1.6-1.9,1.3c-.6.4-1.4.2-1.8-.4l-.6-.9-3-4.9ZM67.5,63c-.5.5-1.3.5-1.8,0l-1.8-1.8,2.7-1.8,2.7,1.8-1.8,1.8ZM74.8,59.9c-.4.6-1.2.8-1.8.4l-1.9-1.3-2.3-1.6,5.8-5.6s0,0,0,0c0,0,0,0,0,0,0,0,0,0,0,0,0,0,0,0,0,0,0,0,0,0,0,0h0s0,0,0,0h0c.2.1,1,.6,3.7,2.3l-3,4.9-.6.9ZM38.4,69v3.7c0,0-.8,19.4-.8,19.4h.9s0-26.4,0-26.4v3.2Z"/>
    <g id="_x30_2_Driver-2" data-name="_x30_2_Driver">
      <g id="_x30_2_Driver-3" data-name="_x30_2_Driver">
        <path class="cls-2" d="M58.5,51.8h0s0,0,0,0h0s0,0,0,0ZM58.4,51.8s0,0,0,0c0,0,0,0,0,0,0,0,0,0,0,0ZM97.3,63.4h0c-.5-2.4-1.7-4.6-3.5-6.2-1.3-1.2-2.9-2.1-4.7-2.6l-8.2-2.3c-3.8-2.3-4.8-3-5-3.1,0,0,0,0,0,0,0,0,0,0,0,0s0,0,0,0c0,0,0,0,0,0,0,0,0,0,0,0,0,0,0,0,0,0,0,0,0,0,0,0,0,0,0,0,0,0v-4.5c.2-.2.4-.4.6-.6,2.6-3,4.8-7.5,5.1-15.9.8-.7,1.3-1.7,1.3-2.8s0-2.3-.4-4l1.7-3.4c1.1-2.2.2-4.8-2.1-5.8l-13.9-6.1c-1.1-.5-2.3-.5-3.4,0l-13.9,6.1c-2.2,1-3.2,3.6-2.1,5.8l1.7,3.5c-.4,1.7-.4,2.8-.4,4s.4,2,1.3,2.7c.3,8.4,2.5,12.9,5.1,15.9.2.2.4.4.5.6v4.6s0,0,0,0c0,0,0,0,0,0,0,0,0,0,0,0,0,0,0,0,0,0,0,0,0,0,0,0,0,0,0,0,0,0,0,0,0,0,0,0,0,0,0,0,0,0-.2.2-1.3.8-5,3.1l-8.2,2.3c-2.6.7-4.7,2.3-6.2,4.4-.8,1.1-1.4,2.4-1.7,3.7-.2.9-.4,1.9-.4,2.9v27.3c0,.8.7,1.5,1.5,1.5s1.4-.7,1.4-1.5v-27.3c0-.2,0-.4,0-.6,0-.8.2-1.6.5-2.4.5-1.5,1.4-2.7,2.6-3.7.9-.7,1.9-1.3,3.1-1.6l7.3-2.1,2.3,3.7,1.5,2.5c.3.5.7.9,1.2,1.3,1.3.8,2.9,1,4.4.1l.9.9-.2,5.3v3.7c-.1,0-.9,19.6-.9,19.6h0c0,.8.5,1.5,1.3,1.6.8,0,1.5-.5,1.6-1.3v-.3s.7-19.6.7-19.6v-3.7c0,0,.2-3.1.2-3.1.5.2,1,.3,1.5.3s1-.1,1.5-.3v3.1c0,0,.2,3.7.2,3.7l.7,19.6v.3c.1.9,1,1.4,1.6,1.3.8,0,1.4-.8,1.3-1.6,0,0,0,0,0,0l-.8-19.6v-3.7c-.1,0-.3-5.3-.3-5.3l.9-.9c1.4.8,3.1.7,4.4-.1.5-.3.9-.7,1.2-1.3l1.5-2.5,2.3-3.7,7.3,2c1.2.3,2.2.9,3.1,1.6,1.9,1.6,3.1,4,3.1,6.6v27.3c0,.8.7,1.5,1.5,1.5s1.5-.7,1.5-1.5v-27.3c0-.7,0-1.5-.2-2.2ZM60.1,47.3s.3.2.5.4c.2.2.4.4.4.4,1.2,1,2.6,1.5,4.1,1.5h2.8c1.5,0,3-.5,4.1-1.5.2-.1.3-.3.4-.4.4-.4.5-.4.5-.4v2.1l-6.5,6.2-6.5-6.2v-2.1ZM51.5,16.5c-.4-.7,0-1.5.7-1.9l13.9-6.1c.4-.1.7-.1,1.1,0l13.9,6.1c.7.3,1,1.2.7,1.9l-1.6,3.1h-27l-1.6-3.1ZM53.2,25.3c0-1,0-1.7.2-2.8h26.5c.2,1.1.2,1.8.2,2.8s-.3.7-.7.7h0c-.1,0-2.7,0-25.4,0-.4,0-.7-.3-.7-.7ZM74.4,28.9l-1.3,1.2c-.9.9-2.2,1.4-3.5,1.4h-6.2c-1.3,0-2.5-.5-3.5-1.4l-1.2-1.2h15.6ZM54.5,28.9h.1l3.4,3.3c1.5,1.4,3.4,2.2,5.5,2.2h6.2c2,0,4-.8,5.5-2.2l3.4-3.3h0c-.3,5.5-1.5,8.9-3.1,11.4-.9,1.4-2,2.6-3.2,3.6-.7.6-1.5,1.3-2.2,1.9-.6.5-1.4.8-2.2.8h-2.8c-.8,0-1.6-.3-2.2-.8-.7-.6-1.4-1.2-2.2-1.9-.6-.6-1.3-1.2-1.9-1.9-2.2-2.5-4-6.2-4.4-13.2ZM54.7,54.1c2.8-1.7,3.5-2.2,3.7-2.3h0s0,0,0,0c0,0,0,0,0,0h0s0,0,0,0h0l5.8,5.6-2.3,1.6-1.9,1.3c-.6.4-1.4.2-1.8-.4l-.6-.9-3-4.9ZM67.5,63c-.5.5-1.3.5-1.8,0l-1.8-1.8,2.7-1.8,2.7,1.8-1.8,1.8ZM74.8,59.9c-.4.6-1.2.8-1.8.4l-1.9-1.3-2.3-1.6,5.8-5.6s0,0,0,0c0,0,0,0,0,0,0,0,0,0,0,0,0,0,0,0,0,0,0,0,0,0,0,0h0s0,0,0,0h0c.2.1,1,.6,3.7,2.3l-3,4.9-.6.9Z"/>
      </g>
    </g>
  </g>
</svg>