<svg width="200" height="201" viewBox="0 0 200 201" fill="none" xmlns="http://www.w3.org/2000/svg">
<path d="M106.667 68C121.396 68 133.333 79.9378 133.333 94.6667V161.333C133.333 163.787 131.342 165.778 128.889 165.778H84.4444C81.9911 165.778 80 163.787 80 161.333V94.6667L80.0178 93.6667C80.5422 79.4044 92.2756 68 106.667 68Z" stroke="currentColor" stroke-width="7"/>
<path d="M66.6667 130.222H84.4445" stroke="currentColor" stroke-width="7"/>
<path d="M106.667 50.2222V67.9999" stroke="currentColor" stroke-width="7"/>
<path d="M137.778 50.2222H106.667C82.1199 50.2222 62.2222 70.1199 62.2222 94.6666V152.444" stroke="currentColor" stroke-width="7"/>
<path d="M106.667 50.2221L128.889 32.4443" stroke="currentColor" stroke-width="7"/>
<path d="M106.667 59.111C111.578 59.111 115.556 55.1333 115.556 50.2221C115.556 45.311 111.578 41.3333 106.667 41.3333C101.756 41.3333 97.7778 45.311 97.7778 50.2221C97.7778 55.1333 101.756 59.111 106.667 59.111Z" fill="white"/>
<path d="M106.667 59.111C111.578 59.111 115.556 55.1333 115.556 50.2221C115.556 45.311 111.578 41.3333 106.667 41.3333C101.756 41.3333 97.7778 45.311 97.7778 50.2221C97.7778 55.1333 101.756 59.111 106.667 59.111Z" stroke="currentColor" stroke-width="7"/>
</svg>
