<svg width="200" height="201" viewBox="0 0 200 201" fill="none" xmlns="http://www.w3.org/2000/svg">
<path d="M66.6667 89.1111V155.778H48.8889V58H155.556V155.778H137.778V89.1111C137.778 86.6578 135.787 84.6667 133.333 84.6667H71.1111C68.6578 84.6667 66.6667 86.6578 66.6667 89.1111Z" stroke="currentColor" stroke-width="7"/>
<path d="M35.5557 58H168.889" stroke="currentColor" stroke-width="7" stroke-linejoin="round"/>
<path d="M35.5557 40.2222H168.889" stroke="currentColor" stroke-width="7" stroke-linejoin="round"/>
<path d="M102.222 108.089C114.075 118.324 120 128.293 120 137.991C120 147.809 112.04 155.769 102.222 155.769C92.4043 155.769 84.4443 147.689 84.4443 137.991C84.4443 128.293 90.3688 118.324 102.222 108.089Z" stroke="currentColor" stroke-width="7"/>
<path d="M102.222 136.889C107.747 136.889 112.222 141.364 112.222 146.889C112.222 152.413 107.747 156.889 102.222 156.889C96.6977 156.889 92.2222 152.413 92.2222 146.889C92.2222 141.364 96.6977 136.889 102.222 136.889Z" stroke="currentColor" stroke-width="7" stroke-linejoin="round"/>
</svg>
