<svg width="200" height="200" viewBox="0 0 200 200" fill="none" xmlns="http://www.w3.org/2000/svg">
<path d="M54.5247 23.2259H6.28255V60.2539H54.541L54.5247 23.2259ZM60.3841 16.9434H193.701C194.466 16.9434 195.199 17.0898 195.866 17.3828C196.549 17.6758 197.184 18.099 197.705 18.6198L197.738 18.6523C198.258 19.1732 198.682 19.8079 198.958 20.4915C199.235 21.1589 199.398 21.8913 199.398 22.6563V60.8561C199.398 61.6211 199.251 62.3535 198.958 63.0371C198.665 63.737 198.242 64.3555 197.721 64.8926L197.656 64.9414C197.135 65.446 196.533 65.8529 195.866 66.1296C195.199 66.4063 194.466 66.569 193.701 66.569H140.055C139.811 66.569 139.632 66.3737 139.632 66.1458V23.2259H112.386V34.4564L132.406 57.2266C132.975 57.8776 133.236 58.6914 133.187 59.5052C133.138 60.3027 132.78 61.084 132.129 61.6699L132.096 61.6862C131.803 61.9303 131.494 62.1257 131.152 62.2396C130.811 62.3698 130.436 62.4349 130.078 62.4349H69.9382C69.0755 62.4349 68.278 62.0768 67.7246 61.5072C67.155 60.9375 66.7969 60.1563 66.7969 59.2936C66.7969 58.8379 66.8945 58.4147 67.0736 58.0241C67.2526 57.6172 67.513 57.2591 67.8385 56.9661L88.444 34.4401V23.2259H60.8236V66.097C60.8236 66.3411 60.6283 66.5202 60.4004 66.5202H5.69661C4.93164 66.5202 4.19922 66.3737 3.5319 66.0807C2.83203 65.7878 2.21354 65.3646 1.67643 64.8438C1.1556 64.3229 0.732422 63.6882 0.439453 62.9883C0.146484 62.3372 0 61.6048 0 60.8398V22.64C0 21.875 0.146484 21.1426 0.439453 20.459C0.716146 19.7591 1.13932 19.1406 1.67643 18.6198C1.69271 18.5872 1.70898 18.571 1.72526 18.571C2.24609 18.0664 2.84831 17.6595 3.51563 17.3828C4.19922 17.0898 4.93164 16.9434 5.69661 16.9434H60.3841ZM5.69661 102.116H194.303C195.068 102.116 195.801 102.279 196.468 102.555C197.168 102.848 197.786 103.271 198.324 103.792L198.34 103.809C198.861 104.329 199.268 104.948 199.561 105.632C199.837 106.299 200 107.031 200 107.813V177.246C200 178.011 199.837 178.743 199.561 179.411C199.284 180.078 198.877 180.68 198.389 181.201C198.372 181.217 198.356 181.25 198.34 181.266L198.324 181.283C197.803 181.803 197.184 182.227 196.484 182.503C195.817 182.78 195.085 182.943 194.32 182.943H143.213C143.083 182.975 142.952 183.008 142.806 183.04C142.643 183.073 142.48 183.073 142.318 183.073C142.155 183.073 141.992 183.057 141.829 183.04C141.683 183.024 141.553 182.992 141.423 182.943H58.5775C58.4473 182.975 58.3171 183.008 58.1706 183.04C58.0078 183.073 57.8451 183.073 57.6823 183.073C57.5195 183.073 57.3568 183.057 57.194 183.04C57.0475 183.024 56.9173 182.992 56.7871 182.943H5.69661C4.93164 182.943 4.19922 182.796 3.5319 182.503C2.86458 182.227 2.24609 181.82 1.74154 181.315C1.70898 181.299 1.69271 181.283 1.67643 181.25C1.1556 180.729 0.732422 180.094 0.439453 179.411C0.146484 178.743 0 178.011 0 177.246V107.813C0 107.048 0.146484 106.315 0.439453 105.632C0.732422 104.932 1.1556 104.313 1.67643 103.776C1.69271 103.76 1.70898 103.743 1.74154 103.727C2.26237 103.223 2.86458 102.816 3.5319 102.539C4.19922 102.262 4.93164 102.116 5.69661 102.116ZM193.717 108.398H145.459V176.66H193.717V108.398ZM139.176 108.398H60.8236V123.6H139.176V108.398ZM54.541 108.398H6.28255V176.66H54.541V108.398ZM60.8236 176.644H139.176V129.899H60.8236V176.644ZM106.104 23.2259H94.7266V35.6283C94.7266 35.6608 94.7266 35.6934 94.7103 35.7422C94.694 36.084 94.6289 36.4421 94.4987 36.7676C94.3685 37.1257 94.1569 37.4512 93.8965 37.7441L77.0508 56.1523H123.112L106.95 37.7767C106.689 37.5 106.462 37.1582 106.315 36.8001C106.169 36.4421 106.087 36.0352 106.087 35.6283V23.2259H106.104ZM152.962 111.914C153.418 111.914 153.857 112.012 154.248 112.174L154.264 112.191C154.671 112.354 155.029 112.614 155.339 112.907C155.648 113.216 155.892 113.591 156.071 113.997C156.234 114.388 156.331 114.827 156.331 115.283C156.331 115.739 156.234 116.162 156.071 116.569C155.892 116.976 155.648 117.35 155.339 117.66L155.306 117.676C154.997 117.969 154.639 118.213 154.232 118.376C153.841 118.538 153.402 118.636 152.946 118.636C152.49 118.636 152.051 118.538 151.66 118.376C151.27 118.213 150.911 117.969 150.602 117.676L150.553 117.643C150.244 117.334 150 116.96 149.837 116.553L149.821 116.536C149.658 116.146 149.577 115.723 149.577 115.267C149.577 114.811 149.674 114.372 149.837 113.981C150 113.574 150.26 113.2 150.57 112.891C150.879 112.581 151.253 112.337 151.66 112.158L151.676 112.142C152.1 111.995 152.523 111.914 152.962 111.914ZM35.9538 26.3835C36.4095 26.3835 36.849 26.4811 37.2396 26.6439C37.6465 26.8066 38.0208 27.0671 38.3301 27.3763C38.6393 27.6855 38.8997 28.0599 39.0625 28.4668C39.2253 28.8574 39.3229 29.2969 39.3229 29.7526C39.3229 30.2083 39.2253 30.6478 39.0625 31.0384C38.8997 31.4453 38.6556 31.8034 38.3626 32.0964L38.3138 32.1452C38.0046 32.4382 37.6465 32.6823 37.2396 32.8451C36.849 33.0078 36.4095 33.1055 35.9538 33.1055C35.498 33.1055 35.0749 33.0078 34.668 32.8451C34.2611 32.6823 33.8867 32.4219 33.5775 32.1126L33.5449 32.0801C33.252 31.7708 33.0078 31.4128 32.8451 31.0221C32.6823 30.6315 32.5846 30.1921 32.5846 29.7363C32.5846 29.2806 32.6823 28.8411 32.8451 28.4505L32.8613 28.4342C33.0241 28.0273 33.2845 27.6693 33.5775 27.36C33.8867 27.0508 34.2611 26.8066 34.668 26.6276L34.6842 26.6113C35.0911 26.4811 35.5143 26.3835 35.9538 26.3835ZM146.126 23.2259H145.915V60.2539H193.132V23.2259H146.126ZM161.1 27.3438C161.41 27.0508 161.768 26.8066 162.174 26.6439C162.565 26.4811 163.005 26.3835 163.46 26.3835C163.916 26.3835 164.355 26.4811 164.746 26.6439L164.762 26.6602C165.169 26.8229 165.527 27.0833 165.837 27.3763C166.146 27.6855 166.39 28.0599 166.569 28.4668C166.732 28.8574 166.829 29.2969 166.829 29.7526C166.829 30.2083 166.732 30.6478 166.569 31.0384L166.553 31.0547C166.39 31.4453 166.146 31.8034 165.853 32.0964L165.804 32.1452C165.495 32.4382 165.137 32.6823 164.746 32.8451C164.355 33.0078 163.916 33.1055 163.46 33.1055C163.005 33.1055 162.565 33.0078 162.174 32.8451C161.768 32.6823 161.393 32.4219 161.084 32.1126C160.775 31.8034 160.531 31.429 160.352 31.0221C160.189 30.6315 160.091 30.1921 160.091 29.7363C160.091 29.2806 160.189 28.8574 160.352 28.4505C160.531 28.0436 160.775 27.6693 161.084 27.36L161.1 27.3438ZM46.3053 111.914C46.7611 111.914 47.2005 112.012 47.5911 112.174L47.6074 112.191C48.0143 112.37 48.3724 112.614 48.6816 112.907L48.6979 112.939C48.9909 113.249 49.235 113.607 49.3978 113.997L49.4141 114.014C49.5768 114.404 49.6582 114.827 49.6582 115.283C49.6582 115.739 49.5605 116.162 49.3978 116.569C49.2188 116.976 48.9746 117.35 48.6654 117.66L48.6328 117.676C48.3236 117.969 47.9655 118.213 47.5586 118.376C47.168 118.538 46.7285 118.636 46.2728 118.636C45.8171 118.636 45.3776 118.538 44.987 118.376C44.5801 118.213 44.2057 117.952 43.8965 117.643C43.5872 117.334 43.3431 116.96 43.1641 116.553L43.1478 116.536C42.985 116.146 42.9036 115.723 42.9036 115.267C42.9036 114.811 43.0013 114.372 43.1641 113.981C43.3268 113.574 43.5872 113.2 43.8965 112.891C44.2057 112.581 44.5801 112.337 44.987 112.158C45.4264 112.012 45.8496 111.914 46.3053 111.914Z" fill="currentColor"/>
</svg>
