<?xml version="1.0" encoding="UTF-8"?>
<svg id="Layer_1" xmlns="http://www.w3.org/2000/svg" viewBox="0 0 100 100">
  <defs>
    <style>
      .cls-1 {
        fill: currentColor;
      }
    </style>
  </defs>
  <path class="cls-1" d="M84.8,32.6l-3.5-9.3c-.2-.4-.5-.7-1-.7H19.7c-.4,0-.8.3-1,.7L1.5,68.7c0,.1,0,.2,0,.4v7.3c0,.6.5,1,1,1h95c.6,0,1-.5,1-1v-7.3c.1-.6-13.8-35.9-13.8-36.5ZM96,68.1h-26.4c.4-.5.8-1,1.2-1.4,7.3-9.7,14.6.7,23.2-3.8l2,5.3ZM90.2,52.6l3.1,8.3c-6.6,3.6-12.1-3.1-19.2.4-4.1,1.8-4.5,4.8-7.8,6.8h-22.7c1.7-3.9,4.2-5.7,8-4.7,1.6.3,3.5.7,6,0,5.5-1.5,5.3-5.5,9.9-7.7,3.1-1.4,5.8-.7,8.6,0,4.7,1.6,10.3,1.2,14.1-3.1h0ZM79.6,24.7l3.2,8.4c-.3,1.2-.4,2.3-.5,3.5-.3,2.8-1.9,5.1-4.7,6.8-4.3,2.4-9.9,4-14.3,2.2-1.1-.6-1.6-1.7-1.3-3.2.7-3.9,3.7-7.4,9.1-10.2,2.8-1.5,6.1-3.6,7.4-7.6h1.1,0ZM68.6,24.7h7.8c-1,2.3-2.9,4-6.2,5.8-6,3.1-9.4,7-10.2,11.6-.4,2.3.5,4.2,2.3,5.3,5.1,2.3,11.5.5,16.3-2.2,3.3-2,5.3-4.7,5.7-8.1l5.1,13.5c-7.7,9.2-13.9-.6-22.7,3.4-4.9,2.1-4.6,6.1-9.6,7.6-2.1.6-3.6.3-5.1,0-4.7-1.3-8.7,1.4-10.5,6.7h-5.9c.3-7.4,2.1-12,10.6-11.4,3.6,0,9.1.2,10-5.4.3-2,0-4-.4-5.9-.8-4.3-.7-10,4.4-13.1,3.3-1.6,8.9-2.8,8.4-7.6h0ZM45.9,24.7h20.6c.5,3.7-4.8,4.3-7.4,5.9-4.8,2.8-6.7,8.2-5.4,15.2.3,1.8.7,3.5.4,5.2-.6,3.6-3.7,3.8-8,3.7-8.8-.6-12.5,4-12.7,13.5h-1.4c-.6-5.7,0-9.9,1.6-12.4,1.5-2.3,3.7-2.4,6.4-2.6,10.6-.2,10.2-9.6,7.4-17.4-1.1-3.8-2.1-7.3-1.6-11h0ZM20.4,24.7h14.6c-2.7,3-4.1,6.8-3.3,10.8.2,1.5,1.9,4.4.5,5-.8.6-1.9.6-3,.6-4.2-.2-7.3,1-9.5,3.4-2.3,2.9-3.8,5.4-7.7,2.7l8.5-22.4ZM4.5,66.6c10.5.5,13.4-6.5,18.3-13.7,3.6-4.8,5.5-5.2,11.4-4.7,3.2,0,5.3-2.7,5.7-7.4,0-1.3-1.9-1.5-2-.2-.2,2.5-1,5.6-3.7,5.6-6.4-.7-9.2.3-13,5.5-4.4,6.1-6.9,13.2-15.9,12.9l5.9-15.5c4.7,2.9,7.3.4,10-3.2,1.8-2,4.4-2.9,7.9-2.8,1.4,0,3,0,4.3-.9,2.8-2.1.8-4.8.3-7-.4-2.1,0-4.4.9-6.4.6-1.2,2.1-2.8,2.9-4.1h6.4c-.7,6.1,2.2,11.8,3.2,17.6.9,5.4-1.8,8.9-7.1,8.7-9.1-.2-10.8,7.5-9.9,17.1H4l.5-1.5ZM96.5,75.3H3.5v-5.2h93v5.2Z"/>
</svg>