<svg width="200" height="200" viewBox="0 0 200 200" fill="none" xmlns="http://www.w3.org/2000/svg">
<g clip-path="url(#clip0_2528_6497)">
<path d="M94.5701 200C75.2461 200.001 56.4481 192.37 42.6112 178.534C25.9409 161.863 18.2793 137.99 22.117 114.672C22.281 113.674 23.2166 112.999 24.2237 113.162C25.2225 113.327 25.8979 114.27 25.7338 115.269C22.0877 137.423 29.3662 160.105 45.2026 175.943C61.0408 191.779 83.726 199.061 105.876 195.412C106.881 195.246 107.818 195.925 107.983 196.922C108.147 197.921 107.47 198.864 106.473 199.029C102.508 199.68 98.5278 200 94.5701 200ZM136.769 175.594C135.035 175.594 133.356 174.908 132.046 173.597L107.608 149.16C97.8451 150.468 87.9486 147.145 80.9742 140.169C73.9999 133.194 70.6772 123.301 71.9839 113.536L47.5467 89.0977C45.5802 87.1312 45.0203 84.2108 46.1199 81.6569C47.2186 79.104 49.7349 77.4885 52.5059 77.5819L90.6069 78.6431L122.543 46.7082C125.661 43.5899 129.91 42.0257 134.241 42.3235V1.8327C134.241 0.82105 135.062 0 136.073 0H147.285C148.297 0 149.118 0.82105 149.118 1.8327V51.9085L174.436 77.2264C180.33 83.1194 180.33 92.7091 174.436 98.6012L142.501 130.537L143.562 168.638C143.64 171.417 142.039 173.924 139.485 175.024C138.596 175.407 137.675 175.594 136.769 175.594ZM52.3062 81.2446C51.0407 81.2446 49.9924 81.9355 49.4875 83.1066C48.9697 84.3098 49.2126 85.5798 50.139 86.5063L134.638 171.006C135.564 171.932 136.836 172.175 138.036 171.656C139.239 171.14 139.935 170.048 139.899 168.74L138.835 130.578L134.778 126.521C134.434 126.177 134.241 125.711 134.241 125.225C134.241 124.739 134.434 124.273 134.778 123.929L143.269 115.438C143.984 114.723 145.144 114.723 145.86 115.438L149.137 118.715L171.844 96.0088C176.308 91.5444 176.308 84.2814 171.844 79.8169L149.118 57.0923V77.5984C149.118 81.7 145.78 85.0365 141.68 85.0365C137.577 85.0365 134.241 81.6991 134.241 77.5984V46.0008C130.876 45.692 127.554 46.8814 125.134 49.3006L102.428 72.0069L105.705 75.2837C106.42 75.9994 106.42 77.1595 105.705 77.8752L97.2138 86.3661C96.4981 87.0817 95.338 87.0817 94.6223 86.3661L90.5647 82.3094L52.4033 81.2455C52.3712 81.2446 52.3392 81.2446 52.3062 81.2446ZM75.3808 116.933C75.1609 124.593 78.0905 132.103 83.5657 137.577C89.0418 143.053 96.5696 145.959 104.211 145.763L75.3808 116.933ZM138.665 125.226L140.647 127.207L146.546 121.307L144.564 119.326L138.665 125.226ZM93.9369 80.4978L95.9181 82.4789L101.818 76.5794L99.8364 74.5983L93.9369 80.4978ZM137.906 77.5984C137.906 79.6795 139.6 81.371 141.68 81.371C143.76 81.371 145.452 79.6785 145.452 77.5984V3.6654H137.906V77.5984ZM101.663 174.253C87.2485 174.254 73.2256 168.562 62.9038 158.24C50.4689 145.805 44.7527 127.996 47.6154 110.603C47.7794 109.605 48.715 108.927 49.7221 109.092C50.7209 109.257 51.3962 110.2 51.2322 111.199C48.5611 127.431 53.8924 144.048 65.4943 155.65C77.0971 167.251 93.7161 172.584 109.945 169.912C110.951 169.75 111.886 170.424 112.051 171.422C112.215 172.421 111.539 173.364 110.541 173.528C107.585 174.015 104.615 174.253 101.663 174.253ZM129.244 120.229C128.775 120.229 128.306 120.05 127.948 119.692L101.453 93.1966C100.737 92.4809 100.737 91.3208 101.453 90.6051L109.944 82.1142C110.659 81.3985 111.819 81.3985 112.535 82.1142L139.031 108.61C139.746 109.325 139.746 110.485 139.031 111.201L130.54 119.692C130.181 120.05 129.712 120.229 129.244 120.229ZM105.34 91.9008L129.244 115.805L135.143 109.905L111.239 86.0014L105.34 91.9008ZM141.68 78.3581C140.668 78.3581 139.847 77.537 139.847 76.5254V75.8024C139.847 74.7907 140.668 73.9697 141.68 73.9697C142.691 73.9697 143.512 74.7907 143.512 75.8024V76.5254C143.512 77.537 142.691 78.3581 141.68 78.3581Z" fill="currentColor"/>
</g>
<defs>
<clipPath id="clip0_2528_6497">
<rect width="200" height="200" fill="white"/>
</clipPath>
</defs>
</svg>
