<?xml version="1.0" encoding="UTF-8"?>
<svg id="Layer_2" xmlns="http://www.w3.org/2000/svg" viewBox="0 0 29.18 29.17">
  <defs>
    <style>
      .cls-1 {
        fill: #231f20;
      }
    </style>
  </defs>
  <g id="Layer_1-2" data-name="Layer_1">
    <g>
      <path class="cls-1" d="M1.4,29.17C.49,29.17,0,28.69,0,27.76v-13.86c0-.95.32-1.34,1.26-1.53.09-.02.16-.1.16-.2v-1.86c0-.1-.07-.18-.16-.2,0,0-.25-.05-.33-.07-.54-.14-.93-.61-.93-1.14v-.37C0,6.39,0,4.24.01,2.09.03.94,1.01,0,2.21,0,3.18,0,8.74,0,8.74,0h5.63c1.53,0,2.41.88,2.41,2.42v5.01c0,.11.09.2.2.2h9.84c1.46,0,2.36.9,2.36,2.35v16.84c0,1.43-.92,2.35-2.35,2.35h-12.71s-12.71,0-12.71,0ZM12.32,27.28c-.07,0-.13.03-.17.09-.04.05-.04.12-.02.18.26.69.83,1.07,1.6,1.07h13.17s.19,0,.19,0c.67-.04,1.26-.52,1.38-1.1.01-.06,0-.12-.04-.17-.04-.05-.1-.07-.16-.07h-15.96ZM1.48,12.96c-.7,0-.92.21-.92.91v13.83c0,.71.21.92.91.92h10.28c.08,0,.15-.04.18-.11.03-.07.02-.15-.02-.21-.46-.58-.46-1.23-.46-1.91v-13.23c0-.11-.09-.2-.2-.2H1.48ZM12.22,13.93c-.11,0-.2.09-.2.2v12.36c0,.11.09.2.2.2h16.18c.11,0,.2-.09.2-.2v-12.36c0-.11-.09-.2-.2-.2H12.22ZM13.72,8.19c-1.02,0-1.71.69-1.71,1.71,0,.83,0,2.98,0,2.98,0,.07,0,.13.01.2,0,.1.1.26.21.26h4.74c.11,0,.2-.09.2-.2v-4.75c0-.11-.09-.2-.2-.2h-3.25ZM17.95,8.19c-.11,0-.2.09-.2.2v4.75c0,.11.09.2.2.2h10.47c.11,0,.2-.09.2-.2,0,0,0-2.52,0-3.27,0-.99-.7-1.68-1.69-1.68h-8.99ZM2.21,10.12c-.11,0-.2.09-.2.2v1.87c0,.11.09.2.2.2h9.02c.11,0,.2-.09.2-.2v-1.87c0-.11-.09-.2-.2-.2H2.21ZM2.34.55c-1.11,0-1.78.67-1.78,1.8v6.29c0,.68.22.9.9.9h9.82c.09,0,.16-.05.19-.14.43-1.28,1.12-1.77,2.46-1.77h2.08c.11,0,.2-.09.2-.2V2.32c0-1.09-.68-1.77-1.78-1.77H2.34Z"/>
      <path class="cls-1" d="M2.67,19.63c-.44-.01-.76-.32-.76-.75,0-1.28,0-2.56,0-3.84,0-.41.32-.72.74-.73.14,0,.28,0,.42,0h.49c.49.01.8.31.8.8,0,.44,0,.88,0,1.32v2.37c0,.54-.3.84-.84.84h-.51s-.35,0-.35,0ZM2.69,14.88c-.11,0-.2.09-.2.2v3.78c0,.11.09.2.2.2h.92c.11,0,.2-.09.2-.2v-3.78c0-.11-.09-.2-.2-.2h-.92Z"/>
      <path class="cls-1" d="M2.65,7.23c-.41-.01-.72-.33-.74-.74v-1.87c0-.32,0-.63,0-.95,0-.48.31-.79.79-.8h.46s.42,0,.42,0c.45,0,.77.32.78.75,0,.95,0,1.91,0,2.86,0,.43-.32.74-.75.75-.17,0-.33,0-.5,0-.16,0-.31,0-.47,0M2.68,3.43c-.11,0-.2.09-.2.2v2.83c0,.11.09.2.2.2h.92c.11,0,.2-.09.2-.2v-2.83c0-.11-.09-.2-.2-.2h-.92Z"/>
      <path class="cls-1" d="M20.3,25.36c-1.34,0-2.6-.53-3.55-1.49-.95-.96-1.48-2.23-1.47-3.59.01-2.77,2.28-5.02,5.06-5.02,1.36,0,2.62.54,3.57,1.49.95.96,1.48,2.24,1.47,3.6-.02,2.76-2.28,5-5.05,5h-.01ZM20.32,15.82c-2.47,0-4.49,2-4.5,4.46,0,1.21.46,2.34,1.31,3.2.85.85,1.97,1.32,3.16,1.33,2.49,0,4.51-2.01,4.51-4.49,0-2.47-2.01-4.49-4.48-4.49h-.01Z"/>
      <rect class="cls-1" x="13.37" y="15.28" width=".53" height=".52"/>
      <rect class="cls-1" x="13.37" y="17.19" width=".53" height=".51"/>
      <rect class="cls-1" x="13.38" y="19.11" width=".52" height=".52"/>
      <rect class="cls-1" x="26.73" y="21" width=".51" height=".53"/>
      <rect class="cls-1" x="26.74" y="22.9" width=".51" height=".53"/>
      <rect class="cls-1" x="26.72" y="24.83" width=".53" height=".51"/>
      <path class="cls-1" d="M22.23,12c-.33,0-.64-.13-.87-.36-.23-.23-.36-.54-.36-.87,0-.68.55-1.23,1.23-1.23.68,0,1.23.56,1.23,1.23,0,.67-.55,1.22-1.22,1.23h0ZM22.23,10.1c-.37,0-.67.3-.68.67,0,.18.07.35.2.48.13.13.3.2.48.2.37,0,.67-.3.68-.67,0-.37-.31-.68-.67-.68h0Z"/>
      <path class="cls-1" d="M26.04,12c-.33,0-.64-.13-.87-.37-.23-.24-.36-.55-.36-.88,0-.67.56-1.21,1.23-1.21.33,0,.64.13.87.37.23.24.36.55.36.88,0,.67-.56,1.21-1.23,1.21h0ZM26.04,10.1c-.18,0-.35.07-.47.2-.13.13-.2.3-.2.48,0,.36.31.67.67.67s.68-.31.68-.68c0-.37-.3-.67-.68-.67h0Z"/>
      <path class="cls-1" d="M14.59,12c-.33,0-.64-.13-.87-.36-.23-.23-.36-.54-.36-.87,0-.67.55-1.22,1.22-1.23.34,0,.65.13.88.36.23.23.36.54.36.87,0,.67-.55,1.22-1.22,1.23h0ZM14.59,10.1c-.36,0-.66.29-.67.65,0,.18.06.35.19.48.12.13.29.21.47.21h0c.38,0,.68-.29.69-.66.01-.37-.28-.68-.65-.69h-.02Z"/>
      <path class="cls-1" d="M20.31,23.45c-1.73,0-3.14-1.41-3.13-3.14,0-1.73,1.41-3.13,3.14-3.13.84,0,1.62.33,2.22.92.59.6.92,1.38.92,2.22,0,1.73-1.41,3.13-3.14,3.13h0ZM20.32,17.73c-1.41,0-2.57,1.14-2.59,2.54,0,.69.26,1.35.74,1.85.48.49,1.12.77,1.81.78,1.45,0,2.61-1.15,2.62-2.56,0-.69-.26-1.35-.75-1.84-.48-.49-1.13-.77-1.82-.77h-.01Z"/>
    </g>
  </g>
</svg>