<svg width="200" height="200" viewBox="0 0 200 200" fill="none" xmlns="http://www.w3.org/2000/svg">
<path d="M49.4966 187.401L49.3945 182.355L42.5041 182.254C36.2044 182.163 35.5515 182.092 34.8878 181.429C34.1695 180.71 34.1619 179.946 34.1619 109.153V37.6041L35.3982 36.2934L36.6345 34.9826H77.1193L77.0214 25.5309L76.9234 16.0793L73.8953 15.9727C71.5341 15.8896 70.8669 15.748 70.8669 15.3303C70.8669 14.9799 70.4865 14.7945 69.7658 14.7945C68.846 14.7945 68.6646 14.6484 68.6646 13.9076C68.6646 13.4197 68.4582 12.9373 68.2058 12.8354C67.8388 12.6873 67.8388 12.6445 68.2058 12.6213C68.4582 12.6053 68.6648 12.1793 68.6648 11.6746C68.6648 11.1037 68.8726 10.757 69.2152 10.757C69.3611 10.7567 69.501 10.6986 69.6042 10.5954C69.7074 10.4922 69.7656 10.3524 69.766 10.2064C69.7664 10.0606 69.8245 9.92081 69.9276 9.81765C70.0307 9.71449 70.1705 9.65632 70.3164 9.65586C70.4623 9.6555 70.6021 9.59738 70.7054 9.49421C70.8086 9.39104 70.8667 9.2512 70.8671 9.10527C70.8671 8.6209 74.2085 8.55469 98.7378 8.55469H126.609L128.749 10.6752L130.889 12.7957L129.861 13.7951C129.294 14.3449 128.502 14.7945 128.101 14.7945C127.699 14.7945 127.275 15.0424 127.159 15.3453C126.992 15.7805 126.226 15.8957 123.5 15.8957H120.052V34.9826H139.873C157.247 34.9826 159.694 35.0506 159.694 35.5332C159.694 35.6791 159.753 35.8189 159.856 35.922C159.959 36.0251 160.099 36.0832 160.245 36.0836C160.391 36.0841 160.53 36.1422 160.634 36.2454C160.737 36.3487 160.795 36.4885 160.795 36.6344C160.796 36.7803 160.854 36.9201 160.957 37.0232C161.06 37.1263 161.2 37.1844 161.346 37.1848C161.492 37.1852 161.632 37.2434 161.735 37.3466C161.838 37.4498 161.896 37.5896 161.896 37.7355C161.896 38.0383 162.061 38.2859 162.263 38.2859C162.507 38.2859 162.63 62.1484 162.63 109.14V179.993L161.517 181.082L160.403 182.171H146.48V192.448H49.5988L49.4966 187.401ZM144.278 186.208V182.171H98.0685C56.2701 182.171 51.8378 182.226 51.6363 182.751C51.3468 183.506 51.3468 188.911 51.6363 189.665C51.8378 190.191 56.2701 190.246 98.0685 190.246H144.278V186.208ZM155.568 152.531L155.473 130.233L98.488 130.14L41.5031 130.047V174.83H155.662L155.568 152.531H155.568ZM155.199 122.772C155.565 122.54 155.641 114.24 155.567 82.4932L155.473 42.507L98.488 42.4141L41.5031 42.3213V82.4535C41.5031 104.526 41.6132 122.696 41.7478 122.83C42.0986 123.181 154.646 123.123 155.2 122.771L155.199 122.772ZM112.711 25.4348V15.8871L98.4878 15.9832L84.2644 16.0793L84.166 25.065C84.1119 30.0074 84.1478 34.2605 84.246 34.5168C84.3863 34.882 87.4798 34.9824 98.5679 34.9824H112.711L112.711 25.4348Z" fill="currentColor"/>
<path d="M62.6593 163.268C62.5132 162.887 61.919 162.717 60.7351 162.717C59.3796 162.717 58.8448 162.526 58.1718 161.799C57.704 161.295 57.1483 160.882 56.9366 160.882C56.7251 160.882 56.5521 160.634 56.5521 160.331C56.5516 160.185 56.4934 160.045 56.3903 159.942C56.2871 159.839 56.1473 159.781 56.0015 159.781C55.8555 159.78 55.7157 159.722 55.6125 159.619C55.5094 159.516 55.4512 159.376 55.4509 159.23C55.4509 158.927 55.2858 158.679 55.0839 158.679C54.8819 158.679 54.7167 157.948 54.7167 157.054C54.7167 156.098 54.4899 155.201 54.1663 154.878C53.4354 154.147 53.4354 151.099 54.1663 150.368C54.4896 150.045 54.7169 149.148 54.7169 148.196C54.7169 146.7 54.8884 146.405 56.9442 144.369C59.062 142.27 59.2606 142.162 60.9817 142.162C61.9774 142.162 62.7921 141.997 62.7921 141.795C62.7921 141.593 63.7003 141.428 64.8108 141.428C65.9212 141.428 66.8296 141.593 66.8296 141.795C66.8296 141.997 67.6554 142.162 68.6649 142.162C70.4573 142.162 71.9683 143.002 71.9683 143.997C71.9683 144.199 72.1278 144.364 72.3228 144.364C72.5177 144.364 73.1782 144.854 73.7909 145.453C74.7022 146.344 74.9048 146.84 74.9048 148.18C74.9048 149.146 75.1304 150.043 75.4554 150.368C75.797 150.71 76.006 151.61 76.006 152.741C76.006 154.022 75.8425 154.626 75.4552 154.775C75.0669 154.924 74.9048 155.53 74.9048 156.833C74.9048 157.848 74.7396 158.679 74.5376 158.679C74.3358 158.679 74.1706 158.927 74.1706 159.23C74.1702 159.376 74.1121 159.516 74.0089 159.619C73.9057 159.722 73.7659 159.78 73.62 159.781C73.4741 159.781 73.3343 159.839 73.2312 159.942C73.128 160.045 73.0698 160.185 73.0694 160.331C73.0694 160.634 72.8964 160.882 72.6849 160.882C72.4733 160.882 71.9177 161.295 71.4499 161.799C70.7769 162.526 70.2421 162.717 68.8866 162.717C67.7026 162.717 67.1083 162.887 66.9624 163.268C66.6642 164.045 62.9575 164.045 62.6593 163.268V163.268ZM67.798 161.065C67.9142 160.762 68.3312 160.515 68.7247 160.515C69.5833 160.515 73.0694 157.185 73.0694 156.364C73.0694 156.046 73.2347 155.684 73.4366 155.56C73.6384 155.435 73.8036 154.021 73.8036 152.418C73.8036 150.719 73.6505 149.503 73.4364 149.503C73.2347 149.503 73.0694 149.168 73.0694 148.757C73.0694 148.347 72.8218 147.917 72.5188 147.8C72.2161 147.684 71.9683 147.359 71.9683 147.078C71.9683 146.797 71.7206 146.567 71.4179 146.567C71.2719 146.566 71.1321 146.508 71.0289 146.405C70.9257 146.302 70.8675 146.162 70.8671 146.016C70.8667 145.87 70.8086 145.73 70.7054 145.627C70.6023 145.524 70.4626 145.466 70.3167 145.465C70.1708 145.465 70.0309 145.407 69.9277 145.304C69.8245 145.201 69.7663 145.061 69.7659 144.915C69.7659 144.603 69.4368 144.364 69.0058 144.364C68.5876 144.364 67.9976 144.117 67.6948 143.814C66.9347 143.054 62.687 143.054 61.9269 143.814C61.6241 144.116 61.0341 144.364 60.6159 144.364C60.1849 144.364 59.8556 144.603 59.8556 144.915C59.8552 145.061 59.7971 145.201 59.6939 145.304C59.5907 145.407 59.4509 145.465 59.305 145.466C59.1591 145.466 59.0193 145.524 58.9162 145.627C58.813 145.73 58.7549 145.87 58.7544 146.016C58.754 146.162 58.6959 146.302 58.5927 146.405C58.4896 146.508 58.3497 146.566 58.2038 146.567C57.9011 146.567 57.6532 146.797 57.6532 147.078C57.6532 147.359 57.4056 147.684 57.1026 147.801C56.7999 147.917 56.5521 148.347 56.5521 148.758C56.5521 149.168 56.387 149.503 56.1851 149.503C55.9712 149.503 55.8179 150.719 55.8179 152.418C55.8179 154.021 55.9831 155.435 56.1851 155.559C56.387 155.684 56.5522 156.046 56.5522 156.364C56.5522 157.205 60.0483 160.515 60.936 160.515C61.3622 160.515 61.6909 160.754 61.6909 161.065C61.6909 161.871 67.4888 161.871 67.798 161.065V161.065ZM130.774 162.152C130.492 161.833 129.639 161.616 128.664 161.616C127.763 161.616 127.026 161.451 127.026 161.249C127.026 161.047 126.779 160.882 126.476 160.882C126.33 160.881 126.19 160.823 126.087 160.72C125.984 160.617 125.926 160.477 125.925 160.331C125.925 160.185 125.867 160.045 125.763 159.942C125.66 159.839 125.52 159.781 125.375 159.78C125.072 159.78 124.824 159.608 124.824 159.396C124.824 159.185 124.411 158.629 123.906 158.161C123.18 157.488 122.989 156.953 122.989 155.598C122.989 154.414 122.819 153.819 122.438 153.673C121.661 153.375 121.661 149.669 122.438 149.37C122.819 149.224 122.989 148.63 122.989 147.446C122.989 146.091 123.18 145.556 123.906 144.883C124.411 144.415 124.824 143.859 124.824 143.648C124.824 143.436 125.072 143.263 125.375 143.263C125.521 143.263 125.66 143.204 125.763 143.101C125.866 142.998 125.925 142.858 125.925 142.713C125.926 142.567 125.984 142.427 126.087 142.324C126.19 142.221 126.33 142.162 126.476 142.162C126.779 142.162 127.026 141.997 127.026 141.795C127.026 141.593 127.857 141.428 128.873 141.428C130.176 141.428 130.782 141.266 130.931 140.877C131.225 140.113 134.834 140.113 135.468 140.877C135.747 141.213 136.551 141.428 137.528 141.428C139.001 141.428 139.308 141.607 141.337 143.655C143.435 145.773 143.544 145.972 143.544 147.693C143.544 148.689 143.709 149.503 143.911 149.503C144.113 149.503 144.278 150.412 144.278 151.522C144.278 152.632 144.113 153.541 143.911 153.541C143.709 153.541 143.544 154.355 143.544 155.351C143.544 157.072 143.435 157.271 141.337 159.388C139.308 161.436 139.001 161.616 137.528 161.616C136.551 161.616 135.747 161.831 135.468 162.167C134.858 162.902 131.426 162.892 130.774 162.152ZM136.203 160.148C136.203 159.946 136.616 159.78 137.12 159.78C137.691 159.78 138.038 159.573 138.038 159.23C138.038 159.084 138.096 158.944 138.2 158.841C138.303 158.738 138.442 158.68 138.588 158.679C138.734 158.679 138.874 158.621 138.977 158.518C139.08 158.415 139.139 158.275 139.139 158.129C139.14 157.983 139.198 157.843 139.301 157.74C139.404 157.637 139.544 157.579 139.69 157.578C139.835 157.578 139.975 157.52 140.079 157.417C140.182 157.313 140.24 157.174 140.24 157.028C140.241 156.882 140.299 156.742 140.402 156.639C140.505 156.536 140.645 156.478 140.791 156.477C141.127 156.477 141.342 156.135 141.342 155.599C141.342 155.116 141.589 154.625 141.892 154.509C142.688 154.203 142.688 148.84 141.892 148.535C141.589 148.419 141.341 147.928 141.341 147.445C141.341 146.909 141.127 146.567 140.791 146.567C140.645 146.566 140.505 146.508 140.402 146.405C140.299 146.302 140.241 146.162 140.24 146.016C140.24 145.87 140.182 145.73 140.078 145.627C139.975 145.524 139.835 145.466 139.69 145.466C139.544 145.465 139.404 145.407 139.301 145.304C139.197 145.201 139.139 145.061 139.139 144.915C139.139 144.612 138.909 144.364 138.628 144.364C138.347 144.364 138.021 144.117 137.905 143.814C137.789 143.511 137.358 143.263 136.948 143.263C136.538 143.263 136.203 143.098 136.203 142.896C136.203 142.682 134.979 142.529 133.266 142.529C131.553 142.529 130.33 142.682 130.33 142.896C130.33 143.098 129.977 143.263 129.547 143.263C128.565 143.263 125.191 146.628 125.191 147.608C125.191 148.002 124.943 148.419 124.64 148.535C124.218 148.697 124.09 149.393 124.09 151.522C124.09 153.651 124.218 154.347 124.641 154.509C124.943 154.625 125.191 155.042 125.191 155.436C125.191 156.415 128.565 159.781 129.547 159.781C129.977 159.781 130.33 159.946 130.33 160.148C130.33 160.362 131.553 160.515 133.266 160.515C134.979 160.515 136.203 160.362 136.203 160.148Z" fill="currentColor"/>
</svg>
