<?xml version="1.0" encoding="UTF-8"?>
<svg id="Layer_2" xmlns="http://www.w3.org/2000/svg" viewBox="0 0 25.69 29.97">
  <defs>
    <style>
      .cls-1 {
        fill: #1d1d1d;
      }
    </style>
  </defs>
  <g id="Layer_1-2" data-name="Layer_1">
    <g>
      <path class="cls-1" d="M21.88,29.97c-.14,0-.27-.12-.3-.28-.03-.18-.05-.37-.08-.55-.02-.14-.04-.28-.06-.41,0-.06-.03-.12-.04-.19l-.03-.09c-.01-.05-.05-.1-.1-.12-.03-.01-.05-.02-.08-.02s-.05,0-.07.02l-.09.04c-.06.03-.11.05-.16.08-.77.4-1.43.65-2.08.8-.37.09-.75.13-1.14.13-.46,0-.93-.06-1.43-.18-.75-.18-1.29-.44-1.71-.84-.09-.09-.21-.15-.33-.18-.85-.2-1.4-.74-1.73-1.72-.08-.25-.12-.53-.12-.84,0-1.01,0-2.02,0-3.04,0-.09,0-.17,0-.27v-.14c-.01-.09-.08-.17-.17-.18-.04,0-.08,0-.11-.01-.08-.01-.15-.02-.22-.02h-.03c-.09,0-.15-.05-.19-.09-.06-.06-.09-.14-.09-.21.01-.18.13-.28.33-.28.21,0,.42,0,.62,0h.8s.77,0,.77,0c.1,0,.17-.07.18-.17v-.11c.02-.08.02-.14.02-.21,0-.34,0-.69,0-1.03v-.49s0-.1,0-.14c.02-.2.12-.3.32-.3.09,0,.18,0,.28,0h.48c.1,0,.18-.08.18-.18v-.51c0-.09-.07-.18-.17-.18h-.09c-.07-.02-.14-.02-.21-.02h-.66c-.14,0-.28,0-.42,0-.08,0-.19-.02-.25-.1-.07-.08-.07-.18-.06-.26.02-.14.09-.18.15-.2.08-.03.18-.05.28-.05.25,0,.51,0,.76,0h.85c.07,0,.13,0,.18.02.17.04.24.13.25.3,0,.14,0,.28,0,.42,0,.09,0,.18,0,.27,0,.07,0,.13.01.21v.1c.01.09.08.16.17.17h.08c.07.02.13.03.19.03.04,0,.08,0,.12,0h.22c.07,0,.15,0,.22,0,.19.01.25.15.26.26,0,.06,0,.13,0,.19v.54c0,.31,0,.62,0,.93,0,.07,0,.15.01.23v.12c.01.09.09.17.18.17h.12c.09.01.17.02.25.02h3.07s.09,0,.14,0c.16.02.26.13.26.28,0,.16-.1.27-.25.29-.06,0-.13,0-.19,0h-7.44c-.09,0-.19,0-.29.01h-.15c-.09.01-.16.08-.17.17v.1c-.02.08-.03.14-.03.21v.46c0,.86,0,1.72,0,2.58,0,.48.1.89.31,1.24.09.15.2.27.35.36.03.02.06.03.1.03.03,0,.06,0,.09-.02.06-.03.09-.09.09-.16v-.14c0-.1,0-.19,0-.29.02-.54.43-.95.98-.97h.05c.19,0,.38.04.57.09.12.03.24.06.36.08.48.08.92.12,1.34.12.34,0,.67-.03.98-.07.64-.1,1.24-.39,1.78-.86.82-.71,1.64-1.43,2.46-2.14.36-.31.4-.52.18-.93-.22-.43-.44-.85-.67-1.28l-.15-.29s-.05-.08-.08-.12l-.04-.06c-.03-.05-.09-.09-.15-.09-.01,0-.02,0-.03,0l-.25.05c-.19.04-.37.07-.56.11-.11.02-.21.04-.32.04,0,0,0,0,0,0-.22,0-.29-.06-.33-.25-.06-.29-.11-.59-.16-.87v-.08c-.19-1.12-.37-2.24-.55-3.37-.02-.11-.03-.23-.03-.35v-.45c0-.51-.01-1.05,0-1.56.01-.34-.13-.55-.44-.65-.08-.03-.16-.06-.24-.1-.05-.02-.1-.04-.15-.07-.02-.01-.05-.01-.07-.01-.03,0-.07,0-.1.03-.05.03-.08.09-.08.15v.12c-.01.08-.02.15-.02.22v2.41c0,.06,0,.11,0,.17-.02.19-.12.28-.3.3-.03,0-.06,0-.08,0h-4.45s-.06,0-.08,0c-.15-.01-.23-.08-.27-.22-.03-.11-.03-.24-.03-.33,0-.49,0-.98,0-1.47v-.84c0-.07,0-.14,0-.22v-.12c0-.06-.04-.11-.08-.14-.03-.02-.07-.04-.11-.04-.01,0-.03,0-.04,0-.32.08-.57.21-.77.33-.06.03-.09.09-.09.16v.81c0,.37,0,.75,0,1.12,0,.56-.05,1.14-.1,1.69-.02.2-.04.39-.06.59-.03.31-.15,1.64-.15,1.64l-.05.55c-.03.33-.06.66-.09.99-.02.21-.12.3-.35.3h-.26c-.08,0-.15.05-.17.12l-.03.1c-.03.07-.05.14-.07.21l-.17.55c-.15.48-.31.98-.44,1.47-.12.43-.34.79-.65,1.1-.28.27-.55.55-.82.83l-.32.32c-.05.05-.1.1-.15.16l-.07.08c-.05.05-.06.14-.03.2l.04.08c.03.06.05.11.08.17.04.08.09.16.14.24.06.1.12.2.17.31.14.25.11.35-.12.52-.39.28-.78.55-1.18.82l-.3.21s-.09.06-.13.08c-.04.02-.08.03-.12.03-.09,0-.18-.05-.24-.13-.07-.11-.07-.26.02-.36.04-.04.1-.08.16-.12.15-.11.81-.56.81-.56.07-.05.14-.1.22-.16l.12-.09c.07-.05.09-.15.05-.23l-.06-.11c-.04-.08-.08-.16-.12-.23-.36-.62-1.59-2.74-1.59-2.74-.03-.05-.06-.1-.08-.15-.06-.12-.05-.23.04-.33.05-.06.12-.09.2-.09.04,0,.08,0,.13.02.03,0,.07.03.11.05.03.01.05.03.08.04.02.01.05.02.08.02.04,0,.09-.02.12-.05.19-.17.39-.39.49-.69l.89-2.7s.02-.07.03-.11v-.05c.02-.06,0-.12-.03-.16l-.06-.07s-.08-.09-.11-.14l-.03-.05c-.1-.14-.21-.29-.31-.43-.11-.17-.12-.32-.05-.53.21-.59.42-1.19.62-1.79.1-.29.2-.58.3-.87l.06-.16c.07-.21.14-.4.22-.59.39-.85,1.03-1.48,1.92-1.88,1.09-.49,2.17-.97,3.26-1.46.07-.03.13-.06.2-.1l.11-.06c.06-.03.1-.09.1-.16v-.33c0-.28,0-.56,0-.83,0-.16-.07-.29-.21-.39-1.02-.71-1.48-1.81-1.91-2.96-.13-.35-.2-.75-.22-1.18-.04-1.2.31-2.11,1.07-2.79.4-.36.92-.61,1.58-.78.08-.02.16-.03.24-.04.17-.02.35-.05.51-.14.15-.09.25-.24.34-.38.05-.08.1-.15.15-.21.55-.62,1.2-.93,1.93-.93.2,0,.41.02.63.07.97.22,1.61.8,1.9,1.75.26.85.07,1.64-.55,2.35-.12.14-.24.33-.2.63.06.41,0,.82-.12,1.31-.17.74-.5,1.48-1.04,2.33-.22.36-.53.68-.91.94-.11.08-.27.19-.26.42,0,.27,0,.54,0,.81v.34c0,.07.04.14.1.17l.12.06c.09.04.17.08.25.12l.16.08c1.01.46,2.02.92,3.03,1.37.88.4,1.5.99,1.9,1.82.23.48.46.95.7,1.42.2.39.4.78.6,1.17l.35.68q.19.38-.06.76c-.04.06-.04.12-.01.19l.05.1c.04.07.07.15.11.22l1.02,1.93c.24.45.36.88.36,1.3.01.89-.32,1.64-1,2.23-.17.15-.35.3-.53.45-.1.08-.19.16-.29.24-.05.04-.09.08-.14.12l-.07.06c-.07.06-.08.16-.03.24l.04.06c.03.05.07.1.1.15.18.25.17.35-.06.55-.41.34-.84.68-1.29,1.01-.07.05-.13.09-.18.13-.31.22-.34.29-.28.65.01.06.02.12.04.2.04.24.07.47.1.71l.05.35s0,.04.01.06c0,.02,0,.03,0,.05,0,.17-.11.33-.27.35-.01,0-.02,0-.03,0M14.91,26.14c-.25,0-.42.16-.46.44-.01.09,0,.18,0,.26.05.61.36,1.08.91,1.38.67.37,1.45.54,2.4.54h.13c.58-.01,1.12-.19,1.54-.34,1.12-.42,2.23-1.08,3.48-2.08.04-.03.06-.06.09-.1l.03-.04c.06-.07.06-.17,0-.23l-1.3-1.58s-.09-.07-.14-.07c-.04,0-.08.01-.11.04l-.07.05s-.08.05-.11.08l-.1.09c-.28.24-.56.48-.83.72-.54.48-1.15.81-1.79.98-.42.11-.86.16-1.35.16-.38,0-.8-.03-1.27-.1-.18-.03-.36-.07-.55-.11-.12-.03-.24-.06-.36-.08-.05,0-.09-.01-.13-.01M23.51,19.17s-.06,0-.08.02l-.17.09c-.12.06-.24.12-.35.18-.12.06-.24.11-.36.17l-.17.08s-.08.06-.1.11c-.02.05-.01.1.01.14l.16.32c.07.15.15.29.23.43.17.32.34.64.5.97.25.52.16,1.03-.26,1.43-.07.07-.14.13-.22.19-.05.05-.11.09-.16.14-.08.07-.15.14-.22.21l-.11.1c-.07.07-.08.18-.01.25l.81.97s.09.07.14.07c.04,0,.07-.01.11-.04l.1-.07c.06-.05.12-.08.17-.12.12-.1.23-.19.35-.29.12-.1.25-.21.38-.31.86-.7,1.09-1.88.56-2.85-.21-.39-.42-.78-.62-1.17-.12-.23-.24-.46-.37-.69-.03-.06-.06-.11-.1-.16l-.04-.06c-.03-.05-.09-.08-.15-.08M8.55,19.84s-.05,0-.07.01c-.04.02-.08.06-.1.1l-.03.08c-.03.06-.05.12-.07.18l-.18.53c-.17.52-.35,1.04-.51,1.57-.12.39-.31.71-.57.98-.07.07-.14.15-.21.24l-.1.12c-.05.06-.06.14-.02.21.05.09.1.18.15.27.14.26.29.53.47.79.03.04.08.07.13.08,0,0,.01,0,.02,0,.04,0,.09-.02.12-.04l.06-.05s.07-.06.11-.09l.39-.39c.23-.24.47-.47.7-.71.21-.2.35-.45.44-.75.13-.44.26-.87.4-1.31.08-.26.16-.51.23-.77.02-.07.03-.13.05-.2v-.07c.03-.09-.01-.17-.09-.21l-1.25-.53s-.05-.01-.07-.01M15.07,19.52c-.09,0-.17.07-.18.16-.06.44-.06,1.29.04,1.55.02.06.08.11.15.12.15.02.4.03.7.03.31,0,.7-.01.87-.05.07-.02.12-.07.14-.13.07-.3.07-1.24-.02-1.54-.02-.08-.1-.13-.17-.13h-1.51ZM11.01,13.16s-.05,0-.08.02l-.16.07c-.1.05-.2.09-.28.14-.77.4-1.29.99-1.56,1.76l-.19.56c-.26.76-.52,1.52-.79,2.28-.09.25-.05.45.12.62.03.03.06.06.09.09.06.06.12.13.19.18.39.34.87.61,1.4.79l.12.04c.22.08.46.16.76.16.1,0,.19-.07.2-.17l.09-.97c.07-.73.14-1.46.21-2.19.11-1.07.09-2.16.07-3.21,0-.06-.03-.12-.09-.15-.03-.02-.06-.03-.1-.03M20.08,13.22c-.08,0-.16.05-.18.14v.04s-.03.07-.03.12c0,.64,0,1.29,0,1.93,0,.06.01.13.02.19l.06.34c.14.89.29,1.78.44,2.67.03.16.05.31.08.47l.04.24c.02.09.09.15.18.15,0,0,.02,0,.03,0,.52-.08,1.01-.22,1.54-.43.32-.13.62-.3.91-.46l.07-.04c.1-.06.19-.14.26-.21.03-.03.06-.06.1-.09.06-.06.08-.15.04-.22,0,0-.41-.8-.52-1.01-.1-.2-.2-.4-.31-.59-.24-.45-.48-.92-.69-1.4-.37-.84-.95-1.42-1.77-1.77-.06-.02-.12-.04-.17-.04-.02,0-.04,0-.06-.01-.01,0-.03,0-.04,0M14.88,9.94c-.09,0-.17.07-.18.17v.08c-.02.06-.02.12-.02.19,0,.1,0,.2,0,.3,0,.09,0,.18,0,.27,0,.35-.16.6-.46.76-.11.06-.22.11-.32.15-.25.09-.36.26-.36.53,0,.56,0,1.11,0,1.67v.73s0,.09,0,.15v.1c.01.09.09.16.18.17h.13c.09.02.18.02.26.02.22,0,.43,0,.63-.01.3,0,.6-.01.9-.01.28,0,.56,0,.83.01.21,0,.42,0,.62.01.08,0,.14-.01.21-.03.03,0,.05-.01.08-.02.09-.02.15-.09.15-.18v-.65c0-.69,0-1.38,0-2.06,0-.18-.09-.3-.26-.38l-.08-.03c-.11-.05-.21-.1-.32-.15-.32-.16-.49-.41-.49-.77,0-.09,0-.18,0-.27,0-.09,0-.18,0-.26,0-.07,0-.15-.01-.22v-.08c-.01-.1-.09-.17-.19-.17h-1.31ZM15.06,3.73c-.06,0-.12.03-.16.09-.65,1.07-1.37,1.78-2.29,2.23-.08.04-.12.13-.1.22l.03.09c.02.05.03.1.04.14.17.48.41.96.75,1.53.23.38.54.7.91.93.42.27.85.4,1.27.4.21,0,.42-.03.63-.09.56-.17,1.04-.51,1.4-1.01.42-.57.69-1.2.89-1.68.03-.07.02-.12.02-.17,0-.01,0-.03,0-.04,0-.08-.04-.15-.11-.18l-.07-.03c-.06-.03-.11-.05-.16-.07-.34-.11-.68-.29-1.08-.55-.52-.35-1.02-.81-1.55-1.45-.02-.02-.03-.04-.05-.06-.07-.09-.16-.21-.33-.28-.02,0-.04-.01-.06-.01M15.11,3.1c.23,0,.46.11.63.32.04.05.08.1.12.15.04.05.08.1.12.15.6.71,1.13,1.18,1.73,1.51.24.13.47.26.78.32.01,0,.02,0,.04,0,.04,0,.07-.01.11-.03.04-.03.07-.07.08-.12.05-.35.03-.68-.05-1.04-.2-.86-.68-1.47-1.44-1.82-.55-.25-1.12-.38-1.68-.38-.53,0-1.06.11-1.59.33-.81.34-1.33.94-1.52,1.79v.04c-.07.27-.14.57-.06.9.01.05.05.1.1.12.02.01.05.02.08.02s.05,0,.08-.02c.02-.01.04-.02.06-.03.05-.02.11-.05.16-.09.08-.07.15-.13.23-.2.22-.19.45-.38.65-.6.21-.23.39-.49.56-.74l.13-.19c.18-.25.43-.39.69-.39M17.6.61c-.62,0-1.17.27-1.46.71-.03.05-.04.12-.02.17.03.06.08.1.14.11.63.11,1.16.31,1.62.59.46.28.82.68,1.11,1.21.03.06.09.09.15.1h0c.06,0,.12-.03.15-.08.52-.79.26-1.92-.56-2.47-.33-.22-.73-.34-1.14-.34"/>
      <path class="cls-1" d="M4.52,29.71c-.26,0-.29-.29-.29-.37v-.42c-.02-.09-.08-.16-.16-.17-.54-.1-.96-.36-1.28-.8-.26-.36-.39-.76-.37-1.16.04-1.03.57-1.7,1.63-2.03.06-.02.11-.07.12-.13.08-.3.08-12.17,0-12.57-.01-.08-.08-.14-.17-.15h-.1c-.08-.01-.16-.02-.24-.02-.61,0-3.27,0-3.27,0-.03,0-.07,0-.1,0-.16-.01-.27-.09-.3-.22-.03-.12.02-.27.13-.31.34-.13.34-.4.34-.57,0-.45,0-.89,0-1.34v-.19c0-.07,0-.15,0-.22.02-.17.09-.24.26-.25.21-.01.41-.01.62-.01h1.99c.93,0,1.87,0,2.8,0,.32,0,.63,0,.95-.01.31,0,.61,0,.92-.01.5,0,.56.07.57.56v1.75c0,.07.04.13.09.16.04.02.08.04.11.06.05.03.1.05.14.08.1.07.14.19.1.31-.04.12-.12.19-.24.21-.04,0-.09,0-.14,0h-.12s-3.49,0-3.49,0c-.09,0-.16.06-.18.15l-.02.08c-.01.06-.03.12-.03.17,0,.06,0,.12,0,.18v2.64c0,3.09,0,6.19,0,9.29,0,.34.09.59.3.83.47.53.68,1.09.65,1.71-.03.58-.26,1.07-.69,1.46-.13.12-.28.29-.26.58,0,.1,0,.21,0,.31v.05c0,.14-.05.38-.29.38h0ZM4.25,25.37c-.06,0-.12.01-.19.03-.59.17-1.02.74-1.03,1.34,0,.46.19.89.56,1.16.19.14.38.22.58.22.28,0,.55-.16.74-.44.45-.68.32-1.47-.34-2.17-.08-.09-.19-.14-.32-.14M1.69,9.35c-.16,0-.3.01-.43.03-.08.01-.14.08-.15.15-.06.41-.05,1.32.02,1.57.02.07.07.12.14.13.21.05,2.15.05,2.98.05.56,0,3.35,0,3.57-.07.07-.02.12-.08.13-.15.06-.36.05-1.32-.03-1.6-.02-.07-.09-.12-.17-.13h-.12c-.11-.01-.22-.02-.33-.02-.16,0-.29.01-.42.03-.08.01-.14.08-.15.16v.07s-.02.09-.02.13c0,.07,0,.15,0,.22,0,.12,0,.25,0,.38,0,.18-.1.28-.26.29-.02,0-.03,0-.05,0-.16,0-.24-.07-.27-.24-.02-.1-.02-.21-.02-.33,0-.06,0-.12,0-.18,0-.08-.02-.34-.02-.34,0-.1-.09-.17-.18-.17h-.87c-.1,0-.18.08-.18.17v.11c-.01.08-.02.15-.02.22,0,.06,0,.13,0,.19,0,.1,0,.2,0,.3-.01.18-.11.26-.28.26-.18,0-.27-.09-.29-.26,0-.1,0-.2,0-.3,0-.07,0-.13,0-.2,0-.07,0-.14-.01-.22v-.1c-.01-.09-.08-.16-.16-.17-.16-.02-.31-.03-.47-.03-.14,0-.29,0-.46.03-.09.01-.16.09-.16.18v.17c0,.11,0,.22,0,.33v.08c0,.09,0,.18-.02.26-.03.16-.12.24-.29.24-.19,0-.29-.11-.3-.27,0-.1,0-.21,0-.31,0-.07,0-.14,0-.21,0-.07,0-.13-.02-.2v-.09c-.02-.09-.09-.16-.18-.17-.14-.01-.3-.02-.46-.02"/>
      <path class="cls-1" d="M10.12,29.8c-.17,0-.28-.09-.3-.27-.01-.1-.01-.21,0-.32,0-.05,0-.11,0-.16,0-.04,0-.07-.03-.1.02-.17.03-.33.05-.5.04-.45.08-.91.14-1.36.08-.63.18-1.27.28-1.89.04-.25.08-.51.12-.76.02-.13.04-.26.07-.39.04-.19.16-.32.3-.32.02,0,.04,0,.06,0,.26.06.25.31.24.42l-.12.75c-.12.72-.24,1.46-.34,2.19-.1.72-.18,1.5-.15,2.27,0,.05,0,.11,0,.16-.03.17-.13.27-.29.28h-.02Z"/>
    </g>
  </g>
</svg>