<svg width="200" height="200" viewBox="0 0 200 200" fill="none" xmlns="http://www.w3.org/2000/svg">
<path d="M174.718 96.6657H143.426C141.608 96.6657 140.129 98.1453 140.129 99.9637V116.05C140.129 125.929 147.911 134.024 157.666 134.529V149.308C156.735 164.06 144.444 175.778 129.462 175.778C113.876 175.778 101.195 163.097 101.195 147.511H101.193V134.533C113.745 134.09 123.822 123.747 123.822 111.089V90.0531C123.822 88.0871 122.223 86.4875 120.257 86.4875H101.193V54.0543C104.922 53.3871 107.764 50.127 107.764 46.2086C107.764 42.2903 104.922 39.0301 101.193 38.3629V28.0617H104.262C105.494 28.0617 106.548 27.1817 106.77 25.9692L108.759 15.0313C108.894 14.2856 108.693 13.5242 108.207 12.9422C107.721 12.3606 107.008 12.027 106.25 12.027H93.7625C93.0047 12.027 92.2915 12.3606 91.8059 12.9426C91.32 13.5246 91.1196 14.286 91.2547 15.0321L93.2434 25.9688C93.4633 27.1817 94.518 28.0625 95.7508 28.0625H98.3801V38.3641C94.6508 39.0313 91.809 42.2914 91.809 46.2098C91.809 50.1281 94.6508 53.3883 98.3801 54.0555V86.4887H79.3208C77.3547 86.4887 75.7551 88.0883 75.7551 90.0543V111.09C75.7551 123.747 85.8297 134.089 98.3797 134.534V147.602C98.3305 163.147 85.6711 175.779 70.1149 175.779C54.5286 175.779 41.8481 163.098 41.8481 147.512V134.543C51.829 134.287 59.8711 126.093 59.8711 116.052V99.9653C59.8711 98.1469 58.3918 96.6672 56.5735 96.6672H25.2817C23.4633 96.6672 21.9836 98.1469 21.9836 99.9653V116.052C21.9836 125.766 29.5094 133.75 39.036 134.493V149.426H39.1008C40.0938 165.675 53.6215 178.592 70.1153 178.592C82.6516 178.592 93.4704 171.127 98.3801 160.412V172.152C94.6508 172.82 91.809 176.08 91.809 179.998C91.809 184.397 95.3876 187.975 99.7864 187.975C104.185 187.975 107.764 184.397 107.764 179.998C107.764 176.08 104.922 172.82 101.193 172.152V160.402C106.1 171.122 116.922 178.592 129.462 178.592C145.956 178.592 159.484 165.675 160.476 149.426H160.478V149.406C160.516 148.779 160.541 148.148 160.541 147.512H160.478V134.53C170.234 134.026 178.016 125.931 178.016 116.052V99.9653C178.016 98.1453 176.537 96.6657 174.718 96.6657ZM40.4875 131.741C31.8356 131.741 24.7965 124.702 24.7965 116.05V99.9637C24.7965 99.6957 25.0141 99.4781 25.2821 99.4781H56.5743C56.8418 99.4781 57.0594 99.6961 57.0594 99.9637V116.05C57.0594 124.702 50.0204 131.741 41.3684 131.741H40.4875ZM95.9715 25.2492L94.0786 14.8395H105.935L104.042 25.2492H95.9715ZM94.6215 46.2086C94.6215 43.3606 96.9387 41.0438 99.7868 41.0438C102.634 41.0438 104.952 43.3606 104.952 46.2086C104.952 49.0567 102.634 51.3735 99.7868 51.3735C96.9391 51.3739 94.6215 49.0567 94.6215 46.2086ZM104.952 179.996C104.952 182.844 102.634 185.161 99.7868 185.161C96.9387 185.161 94.6215 182.844 94.6215 179.996C94.6215 177.148 96.9387 174.831 99.7868 174.831C102.634 174.831 104.952 177.148 104.952 179.996ZM100.357 131.741H99.2211C87.8329 131.741 78.5684 122.477 78.5684 111.089V90.0531C78.5684 89.6379 78.9063 89.3 79.3215 89.3H120.257C120.672 89.3 121.01 89.6379 121.01 90.0531V111.089C121.009 122.477 111.745 131.741 100.357 131.741ZM175.204 116.05C175.204 124.702 168.165 131.741 159.512 131.741H158.632C149.98 131.741 142.941 124.702 142.941 116.05V99.9637C142.941 99.6957 143.159 99.4781 143.426 99.4781H174.718C174.986 99.4781 175.203 99.6961 175.203 99.9637L175.204 116.05Z" fill="currentColor"/>
</svg>
