<?xml version="1.0" encoding="UTF-8"?>
<svg id="Capa_1" xmlns="http://www.w3.org/2000/svg" viewBox="0 0 100 100">
  <defs>
    <style>
      .cls-1 {
        fill: currentColor;
      }
    </style>
  </defs>
  <circle class="cls-1" cx="90.1" cy="69.4" r="1.6"/>
  <path class="cls-1" d="M90.1,8.2H9.9c-.9,0-1.6.7-1.6,1.6v80.2c0,.9.7,1.6,1.6,1.6h80.2c0,0,.1,0,.2,0,.8,0,1.4-.7,1.5-1.5,0,0,0-.1,0-.2v-13.4c0-.9-.7-1.6-1.6-1.6s-1.6.7-1.6,1.6v1.1c-12-9.3-20.3-26.5-23.4-35.8-.9-2.5-3.2-4.3-5.9-4.3s-3.3.7-4.5,1.9c-1.2,1.2-1.8,2.7-1.7,4.4,0,1.5-.1,2.8-.3,4-.2,1.8-.4,3.6-.2,6.3.2,2.3.8,4.5,1.4,7.1.6,2.4,1.2,5.2,1.8,8.6,1.2,7.2.4,13.4-2.3,18.3h-10.3c.2-4.4-.3-9.4-1.6-14.7-1.3-5.6-3.3-11.2-5.8-15.9-4.2-8.1-1.7-13.9.8-19.5,1.3-3,2.6-5.9,2.7-8.9.2-5.2-5.7-12.3-11.8-18h11.8c2.9,3,5.5,6.7,7.8,9.9,1.6,2.3,3,4.2,4.2,5.5,1.7,1.9,3.7,2.8,5.7,2.8s1.6-.1,2.4-.4c3.2-1.2,5.6-4.7,5.7-8.5,0-2.2-.8-5.4-2.6-9.3h7.7c2.2,6.2,3.5,12.2,3.9,17.7.7,8.8,8.2,21,14.5,29.9v3c0,.9.7,1.6,1.6,1.6s1.6-.7,1.6-1.6V9.9c0-.9-.7-1.6-1.6-1.6h0ZM68.7,88.5c.7-5.8-.5-13.8-3.6-23.9,3,5.3,8.8,15.5,15.4,23.9h-11.8ZM55.8,54.1c-.2-2.4,0-3.9.2-5.6.2-1.3.3-2.7.3-4.5,0-.7.3-1.5.8-2,.6-.6,1.4-.9,2.2-.9,1.3,0,2.4.8,2.8,2,.7,2.2,3.6,10.1,8.9,19,5.3,8.8,11.2,15.5,17.6,19.8v6.7h-3.7c-6.9-8.2-13.2-19.1-16.5-24.9-.3-.6-1.4-2.5-1.6-2.9-.7-1.3-2.3-1.8-3.7-1.2-1.5.6-2.2,2.2-1.7,3.7,3.6,11,5,19.5,4.2,25.3h-8.4c2.4-5.3,3.1-11.6,1.9-18.9-.6-3.6-1.3-6.4-1.9-8.9-.6-2.5-1.1-4.6-1.3-6.7h0ZM11.5,88.5v-18.1c5.7,6.1,9.4,12.2,10.9,18.1h-10.9ZM25.8,88.5c-1.7-7.5-6.5-15.2-14.3-22.8V11.5h1.3c5.7,7.8,8.5,14.3,7.7,17.5-.2.9-.6,1.9-.9,3-2.5,7.9-6.6,21.2,2.6,34.4,6.5,9.4,7.8,17.7,8,22.1h-4.4ZM36,29.4c0,2.4-1.2,5-2.4,7.7-2.5,5.7-5.6,12.8-.7,22.3,4.7,9,7.4,20.5,7,29.1h-6.5c-.1-5.2-1.6-14-8.5-23.9-8.3-11.8-4.6-23.7-2.1-31.5.4-1.1.7-2.2.9-3.2,1.3-4.9-2.6-12.3-6.8-18.4h5.8c8.5,7.6,13.5,14.3,13.3,17.9h0ZM61.7,20.8c0,2.5-1.6,4.8-3.5,5.5-1.6.6-3.1,0-4.6-1.5-1.1-1.2-2.4-3.1-3.9-5.2-1.7-2.5-3.8-5.4-6.1-8h15.1c2,4.1,3,7.4,3,9.3ZM88.5,53.4c-6.8-10.2-10.8-18.8-11.3-24.4-.4-5.5-1.7-11.4-3.7-17.5h3.9c1,4.4,4.5,19.1,11.1,32v9.9ZM88.5,35.8c-4.3-10-6.8-20.1-7.8-24.3h7.8v24.3Z"/>
  <path class="cls-1" d="M49.2,40.9c-1-1-2.3-1.5-3.8-1.6-2.1,0-4.1.8-5.4,2.3-1.9,2.2-4.5,7-1,14.7,1.5,3.2,4.5,10.4,5.3,14.8.3,1.4,1.7,2.5,3.4,2.5s3.2-1.3,3.6-3.3c.6-3.2.9-6.8-.6-12.1-.2-.6-.4-1.3-.7-2-.4-1.1-.9-2.7-1-3.3,0-1.5.2-3,.7-4.6,1.3-3.3,1.1-5.9-.5-7.5h0ZM48,69.8c0,.3-.2.6-.3.6s-.2,0-.2,0c-.9-4.8-4-12.1-5.5-15.4-2.6-5.7-1.2-9.2.5-11.2.7-.8,1.7-1.2,2.8-1.2.7,0,1.3.2,1.7.7.6.5.4,2.1-.3,4-.7,2-1.1,4-.9,5.9,0,1.1.6,2.6,1.2,4.2.2.7.5,1.3.6,1.8,1.4,4.8,1,8,.6,10.6h0Z"/>
</svg>