<svg width="200" height="200" viewBox="0 0 200 200" fill="none" xmlns="http://www.w3.org/2000/svg">
<g clip-path="url(#clip0_2528_6516)">
<path d="M174.063 28.125H25.9375C12.1875 28.125 0 40.3125 0 53.75V146.25C0 159.687 12.1875 171.875 25.9375 171.875H174.375C187.812 171.875 200.312 159.687 200.312 146.25V53.75C200 40.3125 187.813 28.125 174.063 28.125ZM193.75 146.25C193.75 156.25 184.375 165.625 174.063 165.625H25.9375C15.625 165.625 6.25 156.25 6.25 146.25V53.75C6.25 43.75 15.625 34.375 25.9375 34.375H174.375C184.375 34.375 194.062 43.75 194.062 53.75V146.25H193.75Z" fill="currentColor"/>
<path d="M125 50H43.75C32.1875 50 21.875 59.6875 21.875 70.3125V130C21.875 140.625 32.1875 150 43.75 150H125C135.625 150 146.875 143.75 146.875 132.812V70.3125C146.875 59.6875 136.563 50 125 50ZM140.625 132.812C140.625 140 132.5 143.75 125 143.75H43.75C35.625 143.75 28.125 136.875 28.125 129.688V70.3125C28.125 63.125 35.625 56.25 43.75 56.25H125C133.125 56.25 140.625 63.125 140.625 70.3125V132.812Z" fill="currentColor"/>
<path d="M96.875 90.3125C96.875 80.625 103.75 78.125 104.062 77.8125C105.625 77.1875 106.563 75.625 105.938 73.75C105.313 72.1875 103.75 71.25 101.875 71.875C101.25 72.1875 90.3125 75.9375 90.3125 90.3125C90.3125 94.6875 93.125 98.75 95.9375 102.187C97.8125 104.687 99.6875 107.5 99.6875 109.375C99.6875 113.437 96.875 117.812 91.5625 122.187C90.3125 123.437 90 125.312 91.25 126.562C91.875 127.187 92.8125 127.812 93.75 127.812C94.375 127.812 95 127.5 95.625 127.187C102.813 121.25 106.25 115.625 106.25 109.375C106.25 105.312 103.75 101.875 101.25 98.4375C99.0625 95.9375 96.875 92.8125 96.875 90.3125Z" fill="currentColor"/>
<path d="M68.75 90.3125C68.75 80.625 75.625 78.125 75.9375 77.8125C77.5 77.1875 78.4375 75.625 77.8125 73.75C77.1875 72.1875 75.625 71.25 73.75 71.875C73.125 72.1875 62.1875 75.9375 62.1875 90.3125C62.1875 94.6875 65 98.75 67.8125 102.187C69.6875 104.687 71.5625 107.5 71.5625 109.375C71.5625 113.437 68.75 117.812 63.4375 122.187C62.1875 123.437 61.875 125.312 63.125 126.562C63.75 127.187 64.6875 127.812 65.625 127.812C66.25 127.812 66.875 127.5 67.5 127.187C74.6875 121.25 78.125 115.625 78.125 109.375C78.125 105.312 75.625 101.875 73.125 98.4375C70.9375 95.9375 68.75 92.8125 68.75 90.3125Z" fill="currentColor"/>
<path d="M168.75 121.875C161.875 121.875 156.25 127.5 156.25 134.375C156.25 141.25 161.875 146.875 168.75 146.875C175.625 146.875 181.25 141.25 181.25 134.375C181.25 127.5 175.625 121.875 168.75 121.875ZM168.75 140.625C165.312 140.625 162.5 137.813 162.5 134.375C162.5 130.937 165.312 128.125 168.75 128.125C172.188 128.125 175 130.937 175 134.375C175 137.813 172.188 140.625 168.75 140.625Z" fill="currentColor"/>
<path d="M168.75 87.5C161.875 87.5 156.25 93.125 156.25 100C156.25 106.875 161.875 112.5 168.75 112.5C175.625 112.5 181.25 106.875 181.25 100C181.25 93.125 175.625 87.5 168.75 87.5ZM168.75 106.25C165.312 106.25 162.5 103.438 162.5 100C162.5 96.5625 165.312 93.75 168.75 93.75C172.188 93.75 175 96.5625 175 100C175 103.438 172.188 106.25 168.75 106.25Z" fill="currentColor"/>
<path d="M168.75 53.125C161.875 53.125 156.25 58.75 156.25 65.625C156.25 72.5 161.875 78.125 168.75 78.125C175.625 78.125 181.25 72.5 181.25 65.625C181.25 58.75 175.625 53.125 168.75 53.125ZM168.75 71.875C165.312 71.875 162.5 69.0625 162.5 65.625C162.5 62.1875 165.312 59.375 168.75 59.375C172.188 59.375 175 62.1875 175 65.625C175 69.0625 172.188 71.875 168.75 71.875Z" fill="currentColor"/>
</g>
<defs>
<clipPath id="clip0_2528_6516">
<rect width="200" height="200" fill="white"/>
</clipPath>
</defs>
</svg>
