<svg width="200" height="200" viewBox="0 0 200 200" fill="none" xmlns="http://www.w3.org/2000/svg">
<g clip-path="url(#clip0_2528_6534)">
<path d="M196.875 109.375C196.013 109.375 195.312 110.073 195.312 110.938V196.875H4.6875V110.938C4.6875 110.073 3.9875 109.375 3.125 109.375C2.2625 109.375 1.5625 110.073 1.5625 110.938V198.438C1.5625 199.302 2.2625 200 3.125 200H196.875C197.737 200 198.438 199.302 198.438 198.438V110.938C198.438 110.073 197.737 109.375 196.875 109.375Z" fill="currentColor"/>
<path d="M196.875 0H121.875C121.013 0 120.312 0.7 120.312 1.5625C120.312 2.425 121.013 3.125 121.875 3.125H195.312V59.375C195.312 60.2375 196.013 60.9375 196.875 60.9375C197.737 60.9375 198.438 60.2375 198.438 59.375V1.5625C198.438 0.7 197.737 0 196.875 0Z" fill="currentColor"/>
<path d="M46.875 0H3.125C2.2625 0 1.5625 0.7 1.5625 1.5625V59.375C1.5625 60.2375 2.2625 60.9375 3.125 60.9375C3.9875 60.9375 4.6875 60.2375 4.6875 59.375V3.125H46.875C47.7375 3.125 48.4375 2.425 48.4375 1.5625C48.4375 0.7 47.7375 0 46.875 0Z" fill="currentColor"/>
<path d="M198.438 103.125H1.5625C0.7 103.125 0 103.823 0 104.688V110.938C0 111.802 0.7 112.5 1.5625 112.5H198.438C199.3 112.5 200 111.802 200 110.938V104.688C200 103.823 199.3 103.125 198.438 103.125ZM196.875 109.375H3.125V106.25H196.875V109.375Z" fill="currentColor"/>
<path d="M46.875 109.375C46.0125 109.375 45.3125 110.073 45.3125 110.938V196.875C45.3125 197.739 46.0125 198.438 46.875 198.438C47.7375 198.438 48.4375 197.739 48.4375 196.875V110.938C48.4375 110.073 47.7375 109.375 46.875 109.375Z" fill="currentColor"/>
<path d="M46.875 0C46.0125 0 45.3125 0.7 45.3125 1.5625V59.375C45.3125 60.2375 46.0125 60.9375 46.875 60.9375C47.7375 60.9375 48.4375 60.2375 48.4375 59.375V1.5625C48.4375 0.7 47.7375 0 46.875 0Z" fill="currentColor"/>
<path d="M121.875 109.375C121.013 109.375 120.312 110.073 120.312 110.938V198.438C120.312 199.302 121.013 200 121.875 200C122.737 200 123.438 199.302 123.438 198.438V110.938C123.438 110.073 122.737 109.375 121.875 109.375Z" fill="currentColor"/>
<path d="M159.375 109.375C158.513 109.375 157.812 110.073 157.812 110.938V192.188C157.812 193.052 158.513 193.75 159.375 193.75C160.237 193.75 160.938 193.052 160.938 192.188V110.938C160.938 110.073 160.237 109.375 159.375 109.375Z" fill="currentColor"/>
<path d="M121.875 0C121.013 0 120.312 0.7 120.312 1.5625V59.375C120.312 60.2375 121.013 60.9375 121.875 60.9375C122.737 60.9375 123.438 60.2375 123.438 59.375V1.5625C123.438 0.7 122.737 0 121.875 0Z" fill="currentColor"/>
<path d="M159.375 0C158.513 0 157.812 0.7 157.812 1.5625V53.125C157.812 53.9875 158.513 54.6875 159.375 54.6875C160.237 54.6875 160.938 53.9875 160.938 53.125V1.5625C160.938 0.7 160.237 0 159.375 0Z" fill="currentColor"/>
<path d="M121.875 171.875H46.875C46.0125 171.875 45.3125 172.573 45.3125 173.438C45.3125 174.302 46.0125 175 46.875 175H121.875C122.737 175 123.438 174.302 123.438 173.438C123.438 172.573 122.737 171.875 121.875 171.875Z" fill="currentColor"/>
<path d="M40.625 135.938H3.125C2.2625 135.938 1.5625 136.636 1.5625 137.5C1.5625 138.364 2.2625 139.062 3.125 139.062H40.625C41.4875 139.062 42.1875 138.364 42.1875 137.5C42.1875 136.636 41.4875 135.938 40.625 135.938Z" fill="currentColor"/>
<path d="M121.875 126.562H46.875C46.0125 126.562 45.3125 127.261 45.3125 128.125C45.3125 128.989 46.0125 129.688 46.875 129.688H121.875C122.737 129.688 123.438 128.989 123.438 128.125C123.438 127.261 122.737 126.562 121.875 126.562Z" fill="currentColor"/>
<path d="M106.25 132.812H62.5C61.6375 132.812 60.9375 133.511 60.9375 134.375C60.9375 135.239 61.6375 135.938 62.5 135.938H106.25C107.112 135.938 107.812 135.239 107.812 134.375C107.812 133.511 107.112 132.812 106.25 132.812Z" fill="currentColor"/>
<path d="M31.25 117.188H18.75C17.8875 117.188 17.1875 117.886 17.1875 118.75C17.1875 119.614 17.8875 120.312 18.75 120.312H31.25C32.1125 120.312 32.8125 119.614 32.8125 118.75C32.8125 117.886 32.1125 117.188 31.25 117.188Z" fill="currentColor"/>
<path d="M196.875 57.8125H3.125C2.2625 57.8125 1.5625 58.5125 1.5625 59.375C1.5625 60.2375 2.2625 60.9375 3.125 60.9375H196.875C197.737 60.9375 198.438 60.2375 198.438 59.375C198.438 58.5125 197.737 57.8125 196.875 57.8125Z" fill="currentColor"/>
<path d="M98.4375 0H70.3125C69.45 0 68.75 0.7 68.75 1.5625V39.0625C68.75 39.925 69.45 40.625 70.3125 40.625H98.4375C99.3 40.625 100 39.925 100 39.0625V1.5625C100 0.7 99.3 0 98.4375 0ZM96.875 37.5H71.875V3.125H96.875V37.5Z" fill="currentColor"/>
<path d="M71.4937 38.0391C70.9281 37.3859 69.9406 37.3172 69.289 37.8812L45.8515 58.1937C45.2 58.7594 45.1296 59.7469 45.6937 60.3984C46.0015 60.7547 46.4375 60.9375 46.875 60.9375C47.2375 60.9375 47.6031 60.8109 47.8984 60.5562L71.3359 40.2437C71.9875 39.6781 72.0578 38.6906 71.4937 38.0391Z" fill="currentColor"/>
<path d="M122.9 58.1938L99.4626 37.8813C98.811 37.3188 97.8235 37.3876 97.2579 38.0391C96.6939 38.6907 96.7642 39.6782 97.4157 40.2438L120.853 60.5563C121.149 60.811 121.513 60.9376 121.875 60.9376C122.311 60.9376 122.747 60.7547 123.058 60.3985C123.622 59.7469 123.552 58.7594 122.9 58.1938Z" fill="currentColor"/>
<path d="M7.8125 59.375C6.95 59.375 6.25 60.075 6.25 60.9375V104.688C6.25 105.552 6.95 106.25 7.8125 106.25C8.675 106.25 9.375 105.552 9.375 104.688V60.9375C9.375 60.075 8.675 59.375 7.8125 59.375Z" fill="currentColor"/>
<path d="M192.188 59.375C191.325 59.375 190.625 60.075 190.625 60.9375V104.688C190.625 105.552 191.325 106.25 192.188 106.25C193.05 106.25 193.75 105.552 193.75 104.688V60.9375C193.75 60.075 193.05 59.375 192.188 59.375Z" fill="currentColor"/>
<path d="M39.0625 145.312C38.2 145.312 37.5 146.011 37.5 146.875V159.375C37.5 160.239 38.2 160.938 39.0625 160.938C39.925 160.938 40.625 160.239 40.625 159.375V146.875C40.625 146.011 39.925 145.312 39.0625 145.312Z" fill="currentColor"/>
<path d="M39.0625 37.5C38.2 37.5 37.5 38.2 37.5 39.0625V51.5625C37.5 52.425 38.2 53.125 39.0625 53.125C39.925 53.125 40.625 52.425 40.625 51.5625V39.0625C40.625 38.2 39.925 37.5 39.0625 37.5Z" fill="currentColor"/>
<path d="M151.562 117.188C150.7 117.188 150 117.886 150 118.75V131.25C150 132.114 150.7 132.812 151.562 132.812C152.425 132.812 153.125 132.114 153.125 131.25V118.75C153.125 117.886 152.425 117.188 151.562 117.188Z" fill="currentColor"/>
<path d="M167.188 117.188C166.325 117.188 165.625 117.886 165.625 118.75V131.25C165.625 132.114 166.325 132.812 167.188 132.812C168.05 132.812 168.75 132.114 168.75 131.25V118.75C168.75 117.886 168.05 117.188 167.188 117.188Z" fill="currentColor"/>
<path d="M151.562 37.5C150.7 37.5 150 38.2 150 39.0625V51.5625C150 52.425 150.7 53.125 151.562 53.125C152.425 53.125 153.125 52.425 153.125 51.5625V39.0625C153.125 38.2 152.425 37.5 151.562 37.5Z" fill="currentColor"/>
<path d="M167.188 37.5C166.325 37.5 165.625 38.2 165.625 39.0625V51.5625C165.625 52.425 166.325 53.125 167.188 53.125C168.05 53.125 168.75 52.425 168.75 51.5625V39.0625C168.75 38.2 168.05 37.5 167.188 37.5Z" fill="currentColor"/>
<path d="M70.3125 4.6875H46.875C46.0125 4.6875 45.3125 5.3875 45.3125 6.25C45.3125 7.1125 46.0125 7.8125 46.875 7.8125H70.3125C71.175 7.8125 71.875 7.1125 71.875 6.25C71.875 5.3875 71.175 4.6875 70.3125 4.6875Z" fill="currentColor"/>
<path d="M121.875 4.6875H98.4375C97.575 4.6875 96.875 5.3875 96.875 6.25C96.875 7.1125 97.575 7.8125 98.4375 7.8125H121.875C122.737 7.8125 123.438 7.1125 123.438 6.25C123.438 5.3875 122.737 4.6875 121.875 4.6875Z" fill="currentColor"/>
<path d="M106.25 140.625H62.5C61.6375 140.625 60.9375 141.323 60.9375 142.188V164.062C60.9375 164.927 61.6375 165.625 62.5 165.625H106.25C107.112 165.625 107.812 164.927 107.812 164.062V142.188C107.812 141.323 107.112 140.625 106.25 140.625ZM104.688 162.5H64.0625V143.75H104.688V162.5Z" fill="currentColor"/>
<path d="M67.9688 115.625C65.8156 115.625 64.0625 117.377 64.0625 119.531C64.0625 121.686 65.8156 123.438 67.9688 123.438C70.1219 123.438 71.875 121.686 71.875 119.531C71.875 117.377 70.1219 115.625 67.9688 115.625ZM67.9688 120.312C67.5375 120.312 67.1875 119.961 67.1875 119.531C67.1875 119.102 67.5375 118.75 67.9688 118.75C68.4 118.75 68.75 119.102 68.75 119.531C68.75 119.961 68.4 120.312 67.9688 120.312Z" fill="currentColor"/>
<path d="M100.781 115.625C98.6281 115.625 96.875 117.377 96.875 119.531C96.875 121.686 98.6281 123.438 100.781 123.438C102.934 123.438 104.688 121.686 104.688 119.531C104.688 117.377 102.934 115.625 100.781 115.625ZM100.781 120.312C100.35 120.312 100 119.961 100 119.531C100 119.102 100.35 118.75 100.781 118.75C101.212 118.75 101.562 119.102 101.562 119.531C101.562 119.961 101.212 120.312 100.781 120.312Z" fill="currentColor"/>
<path d="M176.562 9.375H170.312C169.45 9.375 168.75 10.075 168.75 10.9375C168.75 11.8 169.45 12.5 170.312 12.5H176.562C177.425 12.5 178.125 11.8 178.125 10.9375C178.125 10.075 177.425 9.375 176.562 9.375Z" fill="currentColor"/>
<path d="M189.062 9.375H182.812C181.95 9.375 181.25 10.075 181.25 10.9375C181.25 11.8 181.95 12.5 182.812 12.5H187.5V32.8125C187.5 33.675 188.2 34.375 189.062 34.375C189.925 34.375 190.625 33.675 190.625 32.8125V10.9375C190.625 10.075 189.925 9.375 189.062 9.375Z" fill="currentColor"/>
<path d="M10.9375 173.438C10.075 173.438 9.375 174.136 9.375 175V190.625C9.375 191.489 10.075 192.188 10.9375 192.188C11.8 192.188 12.5 191.489 12.5 190.625V175C12.5 174.136 11.8 173.438 10.9375 173.438Z" fill="currentColor"/>
<path d="M10.9375 160.938C10.075 160.938 9.375 161.636 9.375 162.5V167.188C9.375 168.052 10.075 168.75 10.9375 168.75C11.8 168.75 12.5 168.052 12.5 167.188V162.5C12.5 161.636 11.8 160.938 10.9375 160.938Z" fill="currentColor"/>
</g>
<defs>
<clipPath id="clip0_2528_6534">
<rect width="200" height="200" fill="white"/>
</clipPath>
</defs>
</svg>
