<?xml version="1.0" encoding="UTF-8"?>
<svg id="Layer_1" xmlns="http://www.w3.org/2000/svg" viewBox="0 0 100 100">
  <defs>
    <style>
      .cls-1 {
        fill: currentColor;
      }
    </style>
  </defs>
  <g id="outline">
    <g>
      <path class="cls-1" d="M50,89.7c10.5,0,19-8.5,19-19s-8.5-19-19-19-19,8.5-19,19c0,10.5,8.5,19,19,19ZM50,55.2c8.6,0,15.5,7,15.5,15.5s-7,15.5-15.5,15.5-15.5-7-15.5-15.5c0-8.6,7-15.5,15.5-15.5Z"/>
      <path class="cls-1" d="M43.1,75.9c1,0,1.7-.8,1.7-1.7h0v-6.9c0-1-.8-1.7-1.7-1.7s-1.7.8-1.7,1.7v6.9c0,1,.8,1.7,1.7,1.7h0Z"/>
      <path class="cls-1" d="M56.9,75.9c1,0,1.7-.8,1.7-1.7h0v-6.9c0-1-.8-1.7-1.7-1.7s-1.7.8-1.7,1.7v6.9c0,1,.8,1.7,1.7,1.7h0Z"/>
      <path class="cls-1" d="M50,48.3c10.5,0,19-8.5,19-19s-8.5-19-19-19-19,8.5-19,19c0,10.5,8.5,19,19,19ZM50,13.7c8.6,0,15.5,7,15.5,15.5s-7,15.5-15.5,15.5-15.5-7-15.5-15.5c0-8.6,7-15.5,15.5-15.5Z"/>
      <path class="cls-1" d="M43.1,34.5c1,0,1.7-.8,1.7-1.7h0v-6.9c0-1-.8-1.7-1.7-1.7s-1.7.8-1.7,1.7v6.9c0,1,.8,1.7,1.7,1.7h0Z"/>
      <path class="cls-1" d="M56.9,34.5c1,0,1.7-.8,1.7-1.7h0v-6.9c0-1-.8-1.7-1.7-1.7s-1.7.8-1.7,1.7v6.9c0,1,.8,1.7,1.7,1.7h0Z"/>
      <path class="cls-1" d="M70.7,0H29.3c-4.8,0-8.6,3.9-8.6,8.6v82.9c0,4.8,3.9,8.6,8.6,8.6h13.8c1,0,1.7-.8,1.7-1.7s-.8-1.7-1.7-1.7h-13.8c-2.9,0-5.2-2.3-5.2-5.2V8.6c0-2.9,2.3-5.2,5.2-5.2h41.4c2.9,0,5.2,2.3,5.2,5.2v82.9c0,2.9-2.3,5.2-5.2,5.2h-13.8c-1,0-1.7.8-1.7,1.7s.8,1.7,1.7,1.7h13.8c4.8,0,8.6-3.9,8.6-8.6V8.6c0-4.8-3.9-8.6-8.6-8.6Z"/>
      <circle class="cls-1" cx="50" cy="98.3" r="1.7"/>
    </g>
  </g>
</svg>