<svg width="200" height="200" viewBox="0 0 200 200" fill="none" xmlns="http://www.w3.org/2000/svg">
<g clip-path="url(#clip0_2528_6473)">
<path d="M148.948 14.9078C148.948 1.77111 124.204 0 99.9998 0C75.7952 0 51.052 1.77111 51.052 14.9078V197.936C51.052 199.076 51.9763 200 53.1162 200H146.884C148.024 200 148.948 199.076 148.948 197.936V15.8253C148.948 15.6675 148.931 15.5138 148.897 15.3665C148.931 15.2193 148.948 15.0656 148.948 14.9078ZM99.9998 4.12845C129.74 4.12845 144.82 7.75506 144.82 14.9078C144.82 15.0656 144.837 15.2193 144.871 15.3665C144.837 15.5138 144.82 15.6675 144.82 15.8253V64.5437H55.1805V14.9078C55.1805 7.75506 70.2598 4.12845 99.9998 4.12845ZM55.1805 195.872V68.6722H144.82V195.872H55.1805Z" fill="currentColor"/>
<path d="M80.3503 60.4355H66.0076C64.8677 60.4355 63.9434 59.5111 63.9434 58.3712V50.1143C63.9434 48.9744 64.8677 48.0501 66.0076 48.0501H80.3503C83.4324 48.0501 98.8058 48.3483 98.8058 54.2428C98.8058 60.1373 83.4324 60.4355 80.3503 60.4355ZM68.0723 56.307H80.3503H80.3507C87.6127 56.307 92.3719 55.1286 94.1287 54.2428C92.3719 53.357 87.6127 52.1786 80.3507 52.1786H68.0723V56.307Z" fill="currentColor"/>
<path d="M80.3503 85.2062H66.0076C64.8677 85.2062 63.9434 84.2818 63.9434 83.1419V74.885C63.9434 73.7451 64.8677 72.8208 66.0076 72.8208H80.3503C83.4324 72.8208 98.8058 73.119 98.8058 79.0135C98.8063 84.908 83.4324 85.2062 80.3503 85.2062ZM68.0723 81.0777H80.3503H80.3507C87.6127 81.0777 92.3719 79.8993 94.1287 79.0135C92.3719 78.1277 87.6127 76.9493 80.3507 76.9493H68.0723V81.0777Z" fill="currentColor"/>
<path d="M82.6547 28.44H74.7703C73.6304 28.44 72.7061 27.5156 72.7061 26.3757V17.6601C72.7061 16.5202 73.6304 15.5959 74.7703 15.5959H82.6547C83.7946 15.5959 84.7189 16.5202 84.7189 17.6601V26.3757C84.7189 27.5156 83.7946 28.44 82.6547 28.44ZM76.8345 24.3115H80.5905V19.7243H76.8345V24.3115Z" fill="currentColor"/>
<path d="M96.8461 28.44H88.9617C87.8218 28.44 86.8975 27.5156 86.8975 26.3757V17.6601C86.8975 16.5202 87.8218 15.5959 88.9617 15.5959H96.8461C97.986 15.5959 98.9103 16.5202 98.9103 17.6601V26.3757C98.9103 27.5156 97.986 28.44 96.8461 28.44ZM91.0264 24.3115H94.7823V19.7243H91.0264V24.3115Z" fill="currentColor"/>
<path d="M111.038 28.44H103.153C102.013 28.44 101.089 27.5156 101.089 26.3757V17.6601C101.089 16.5202 102.013 15.5959 103.153 15.5959H111.038C112.178 15.5959 113.102 16.5202 113.102 17.6601V26.3757C113.102 27.5156 112.178 28.44 111.038 28.44ZM105.218 24.3115H108.974V19.7243H105.218V24.3115Z" fill="currentColor"/>
<path d="M125.229 28.44H117.345C116.205 28.44 115.281 27.5156 115.281 26.3757V17.6601C115.281 16.5202 116.205 15.5959 117.345 15.5959H125.229C126.369 15.5959 127.293 16.5202 127.293 17.6601V26.3757C127.293 27.5156 126.369 28.44 125.229 28.44ZM119.409 24.3115H123.165V19.7243H119.409V24.3115Z" fill="currentColor"/>
</g>
<defs>
<clipPath id="clip0_2528_6473">
<rect width="200" height="200" fill="white"/>
</clipPath>
</defs>
</svg>
