<svg width="200" height="200" viewBox="0 0 200 200" fill="none" xmlns="http://www.w3.org/2000/svg">
<g clip-path="url(#clip0_2543_6681)">
<path d="M37.0913 154.031C27.6143 154.031 19.9045 161.741 19.9045 171.218C19.9045 180.694 27.6147 188.404 37.0913 188.404C46.5679 188.404 54.278 180.694 54.278 171.218C54.278 161.741 46.5679 154.031 37.0913 154.031ZM37.0913 181.376C31.4897 181.376 26.9331 176.819 26.9331 171.218C26.9331 165.617 31.4901 161.06 37.0913 161.06C42.6925 161.06 47.2495 165.617 47.2495 171.218C47.2495 176.819 42.6925 181.376 37.0913 181.376Z" fill="currentColor"/>
<path d="M137.155 154.031C127.678 154.031 119.968 161.741 119.968 171.218C119.968 180.694 127.678 188.405 137.155 188.405C146.631 188.405 154.341 180.694 154.341 171.218C154.341 161.741 146.631 154.031 137.155 154.031ZM137.155 181.376C131.553 181.376 126.996 176.819 126.996 171.217C126.996 165.616 131.553 161.059 137.155 161.059C142.756 161.059 147.313 165.616 147.313 171.217C147.313 176.819 142.756 181.376 137.155 181.376Z" fill="currentColor"/>
<path d="M188.176 40.3505H176.573C175.432 40.3505 174.362 40.9048 173.703 41.8372L160.117 61.0708H88.795L108.632 4.68048C109.01 3.60509 108.843 2.41329 108.184 1.48321C107.526 0.552735 106.456 0 105.316 0H63.8641C33.7883 0 9.31988 24.4684 9.31988 54.5446V71.8705C9.31988 98.7744 28.4379 121.296 53.8016 126.566L79.2321 138.493L55.9356 149.489C50.8821 145.1 44.2942 142.435 37.0918 142.435C21.2207 142.435 8.30933 155.347 8.30933 171.217C8.30933 187.088 21.2215 200 37.0918 200C52.9621 200 65.8743 187.087 65.8743 171.217C65.8743 168.948 65.602 166.743 65.1036 164.624H109.143C108.645 166.743 108.372 168.948 108.372 171.217C108.372 187.088 121.285 200 137.155 200C153.025 200 165.937 187.087 165.937 171.217C165.937 155.346 153.025 142.435 137.155 142.435C130.105 142.435 123.642 144.987 118.633 149.21L95.7411 138.473L120.972 126.564C146.334 121.292 165.45 98.7717 165.45 71.8693V65.7036L178.394 47.3786H188.177C190.117 47.3786 191.691 45.8052 191.691 43.8645C191.691 41.9239 190.117 40.3505 188.176 40.3505ZM87.3466 7.02814H100.355L87.3466 44.0075V7.02814ZM16.348 54.5446C16.348 28.3438 37.6637 7.02853 63.8641 7.02853H80.3181V61.0708H16.348V54.5446ZM37.0914 192.972C25.0961 192.972 15.3375 183.213 15.3375 171.218C15.3375 159.223 25.0965 149.464 37.0914 149.464C49.0864 149.464 58.8454 159.223 58.8454 171.218C58.8458 183.213 49.0868 192.972 37.0914 192.972ZM137.154 149.463C149.15 149.463 158.908 159.222 158.908 171.217C158.908 183.212 149.149 192.971 137.154 192.971C125.16 192.971 115.401 183.212 115.401 171.217C115.401 159.222 125.159 149.463 137.154 149.463ZM113.65 154.637C112.98 155.584 112.36 156.569 111.806 157.596H62.4395C61.9473 156.684 61.4063 155.804 60.8223 154.954L87.4907 142.367L113.65 154.637ZM87.4814 134.6L72.8399 127.733H102.031L87.4814 134.6ZM109.588 120.704H65.1821C38.2551 120.704 16.3484 98.7975 16.3484 71.8705V68.099H80.3196V70.0009C80.3196 77.858 86.7122 84.2506 94.5693 84.2506H156.83C151.335 105.202 132.238 120.704 109.588 120.704ZM158.127 77.2216H94.5685C90.5868 77.2216 87.347 73.9822 87.347 70.0001V68.0982H158.421V71.8697H158.421C158.421 73.6787 158.319 75.4638 158.127 77.2216Z" fill="currentColor"/>
</g>
<defs>
<clipPath id="clip0_2543_6681">
<rect width="200" height="200" fill="white"/>
</clipPath>
</defs>
</svg>
