<?xml version="1.0" encoding="UTF-8"?>
<svg id="Layer_1" xmlns="http://www.w3.org/2000/svg" viewBox="0 0 100 100">
  <defs>
    <style>
      .cls-1 {
        fill: currentColor;
      }
    </style>
  </defs>
  <path class="cls-1" d="M91,5H9c-2.3,0-4.2,1.9-4.2,4.2v81.6c0,2.3,1.9,4.2,4.2,4.2h81.9c2.3,0,4.2-1.9,4.2-4.2V9.2c0-2.3-1.9-4.2-4.2-4.2ZM92.4,90.8c0,.8-.6,1.4-1.4,1.4H9c-.8,0-1.4-.6-1.4-1.4V9.2c0-.8.6-1.4,1.4-1.4h81.9c.8,0,1.4.6,1.4,1.4v81.6Z"/>
  <path class="cls-1" d="M60.9,24.4c.6.3,1.2.4,1.9.4.6,0,1.2-.1,1.8-.4,1.3-.6,2.4-1.6,2.9-3,1-2.4-.5-7.3-.8-8.3-.2-.7-1-1.2-1.8-.9,0,0-.1,0-.2,0-.9.5-5.4,2.8-6.3,5.2-1.1,2.6,0,5.6,2.5,6.9ZM61,18.5c.3-.7,1.8-1.9,3.5-2.9.5,2,.7,4,.4,4.7-.2.6-.7,1.2-1.4,1.4-.5.2-1,.2-1.5,0-1.2-.6-1.6-2.1-1.1-3.3h0Z"/>
  <path class="cls-1" d="M39.1,75.6c-1.2-.5-2.5-.5-3.7,0-1.3.6-2.4,1.6-2.9,3-1,2.4.5,7.3.8,8.3.2.7,1,1.2,1.8.9,0,0,.1,0,.2,0,.9-.5,5.4-2.8,6.3-5.2,1.1-2.6,0-5.6-2.5-6.9ZM39,81.5c-.3.7-1.8,1.9-3.5,2.9-.5-2-.7-4-.4-4.7.2-.6.7-1.2,1.4-1.4.5-.2,1-.2,1.5,0,1.2.6,1.6,2.1,1.1,3.3Z"/>
  <path class="cls-1" d="M78.4,42.2c.6.3,1.3.4,2,.4.8,0,1.5-.2,2.2-.4,2.4-1,4.8-5.6,5.3-6.5.4-.7,0-1.5-.6-1.9,0,0-.1,0-.2,0-.9-.3-5.8-1.8-8.2-.8-2.7,1.1-4.1,4.1-3.1,6.7.5,1.2,1.4,2.1,2.6,2.6ZM80.1,35.5c.3-.1.6-.1,1-.1,1.2,0,2.4.2,3.5.5-1.1,1.7-2.3,3.4-3.1,3.7-.6.3-1.4.3-2,0-.5-.2-.8-.6-1-1-.4-1.3.3-2.6,1.6-3.1Z"/>
  <path class="cls-1" d="M21.6,57.8c-1.4-.6-2.9-.5-4.2,0h0c-2.4,1-4.8,5.6-5.3,6.5-.4.7,0,1.5.6,1.9,0,0,.1,0,.2,0,2,.6,4,1,6,1.1.7,0,1.4,0,2.1-.3,2.7-1.1,4.1-4.1,3.1-6.7-.5-1.2-1.4-2.1-2.6-2.6ZM19.9,64.5c-.7.3-2.6,0-4.5-.4,1.1-1.7,2.3-3.4,3.1-3.7.6-.3,1.4-.3,2,0,.5.2.8.6,1,1,.4,1.3-.3,2.6-1.6,3.1Z"/>
  <path class="cls-1" d="M87,66.6c.7-.2,1.2-1,.9-1.8,0,0,0-.2,0-.2-.5-.9-2.8-5.3-5.2-6.3-2.7-1.1-5.8,0-6.9,2.5-.5,1.2-.5,2.5,0,3.7.6,1.3,1.7,2.4,3,2.9.7.2,1.4.3,2.1.3,2.1-.1,4.3-.5,6.3-1.1ZM79.7,64.8h0c-.7-.2-1.2-.7-1.5-1.4-.2-.5-.2-1,0-1.5.4-.8,1.3-1.3,2.2-1.3.4,0,.8,0,1.1.2.7.3,1.9,1.8,2.9,3.5-2,.5-4,.7-4.8.4h0Z"/>
  <path class="cls-1" d="M13,33.4c-.7.2-1.2,1-.9,1.8,0,0,0,.2,0,.2.5.9,2.8,5.3,5.2,6.3.7.3,1.4.4,2.1.4,2,0,3.9-1.1,4.8-2.9.5-1.2.5-2.5,0-3.7-.6-1.3-1.7-2.4-3-2.9-2.4-1-7.4.5-8.4.8ZM20.3,35.2c.7.2,1.2.7,1.5,1.4.2.5.2,1,0,1.5-.7,1.2-2.1,1.6-3.3,1-.7-.3-1.9-1.8-2.9-3.5,2-.5,4-.7,4.8-.4h0Z"/>
  <path class="cls-1" d="M13.4,19.4h0c.5.2,1.1.3,1.7.3,1.6,0,3.2-.4,4.7-.9.7-.3,1.1-1.1.9-1.8,0,0,0,0,0-.1-.5-1-2.1-4.4-3.9-5.2-1-.5-2.2-.5-3.3,0-1,.4-1.8,1.2-2.3,2.3-.8,2.2.2,4.6,2.3,5.6ZM13.7,14.9c.1-.3.4-.6.7-.7.3-.1.7-.1,1.1,0,.7.7,1.3,1.5,1.8,2.4-.9.3-1.8.4-2.7.3-.7-.3-1.1-1.2-.8-2Z"/>
  <path class="cls-1" d="M80.3,18.8c1.5.5,3.1.9,4.7.9.6,0,1.1,0,1.7-.3h0c2.1-1,3.1-3.4,2.3-5.6-.4-1-1.2-1.9-2.3-2.3-1.1-.4-2.3-.4-3.3,0-1.8.8-3.4,4.2-3.9,5.2-.3.7,0,1.5.7,1.9,0,0,0,0,.1,0h0ZM84.5,14.2c.3-.2.7-.2,1.1,0,.3.1.6.4.7.7.3.8,0,1.6-.8,2-.9,0-1.8,0-2.7-.3.4-.9,1-1.7,1.8-2.4Z"/>
  <path class="cls-1" d="M86.6,79.9h0c-1.8-.8-5.3.3-6.3.6-.7.3-1.1,1.1-.9,1.8,0,0,0,0,0,.1.5,1,2.1,4.4,3.9,5.2.5.2,1.1.4,1.7.4.5,0,1.1-.1,1.5-.3,1-.4,1.8-1.2,2.3-2.3.8-2.2-.2-4.6-2.3-5.6ZM86.3,84.4c-.1.3-.4.6-.7.7-.3.1-.7.1-1.1,0-.7-.7-1.3-1.5-1.8-2.4.9-.3,1.8-.4,2.7-.3.7.3,1.1,1.2.8,2Z"/>
  <path class="cls-1" d="M19.7,80.5c-1-.4-4.5-1.5-6.3-.6h0c-2.1,1-3.1,3.4-2.3,5.6.4,1,1.2,1.9,2.3,2.3.5.2,1,.3,1.5.3.6,0,1.2-.1,1.7-.4,1.8-.8,3.4-4.2,3.9-5.2.3-.7,0-1.5-.7-1.9,0,0,0,0-.1,0h0ZM15.5,85.1c-.3.2-.7.2-1.1,0-.3-.1-.6-.4-.7-.7-.3-.8,0-1.6.8-2,.9,0,1.8,0,2.7.3-.4.9-1,1.7-1.8,2.4Z"/>
  <path class="cls-1" d="M60.5,75.8c-1.2.5-2.1,1.4-2.6,2.6-.6,1.3-.5,2.9,0,4.2,1,2.3,5.6,4.8,6.5,5.3.7.4,1.5,0,1.9-.6,0,0,0-.1,0-.2.3-.9,1.8-5.8.8-8.1-1.1-2.6-4-4-6.7-3.1ZM64.2,84.5c-1.7-1.1-3.4-2.3-3.7-3-.3-.6-.3-1.4,0-2,.2-.5.6-.8,1-1,.2,0,.5-.1.7-.1,1.1,0,2,.7,2.4,1.7.3.7,0,2.6-.4,4.5Z"/>
  <path class="cls-1" d="M37.8,24.5c.6,0,1.1-.1,1.7-.3,1.2-.5,2.1-1.4,2.6-2.6.6-1.3.5-2.9,0-4.2-1-2.3-5.6-4.8-6.5-5.3-.7-.4-1.5,0-1.9.6,0,0,0,.1,0,.2-.3.9-1.8,5.8-.8,8.1.8,2,2.8,3.4,5,3.4ZM35.8,15.5c1.7,1.1,3.4,2.3,3.7,3,.3.6.3,1.4,0,2-.2.5-.6.8-1,1-1.3.4-2.6-.3-3.1-1.6-.3-.7,0-2.6.4-4.5Z"/>
  <path class="cls-1" d="M81.3,51.1c.6-.5.6-1.4.1-2,0,0,0,0-.1-.1-3.2-2.9-6.8-5.4-10.5-7.5,1.1-4.2,1.9-8.4,2.1-12.7,0-.8-.5-1.4-1.3-1.5,0,0-.1,0-.2,0-4.3.3-8.6,1-12.8,2.1-2.2-3.7-4.7-7.3-7.5-10.5-.6-.6-1.5-.6-2.1,0,0,0,0,0,0,0-2.9,3.2-5.4,6.8-7.5,10.5-4.2-1.1-8.5-1.8-12.8-2.1-.4,0-.8.1-1.1.4-.3.3-.4.7-.4,1.1.3,4.3,1,8.6,2.1,12.7-3.8,2.1-7.3,4.7-10.5,7.5-.6.5-.6,1.4-.1,2,0,0,0,0,.1.1,3.2,2.9,6.8,5.4,10.5,7.5-1.1,4.2-1.9,8.4-2.1,12.7,0,.8.5,1.4,1.3,1.5,0,0,0,0,0,0,0,0,0,0,0,0,4.3-.3,8.6-1,12.8-2.1,2.2,3.7,4.7,7.3,7.5,10.5.5.6,1.4.6,2,.1,0,0,0,0,.1-.1,2.9-3.2,5.4-6.8,7.5-10.5,4.2,1.1,8.5,1.8,12.8,2.1,0,0,0,0,0,0,.8,0,1.4-.6,1.4-1.4,0,0,0,0,0,0-.3-4.3-1-8.6-2.1-12.7,3.8-2.1,7.3-4.7,10.5-7.5ZM59.8,31.9c3.3-.9,6.7-1.5,10.1-1.7-.3,3.4-.9,6.8-1.8,10.1-1.1-.5-2.3-.7-3.5-.8-1.9,0-3.7.4-5.4,1.3.9-1.6,1.3-3.5,1.3-5.3,0-1.2-.3-2.4-.8-3.5ZM40.2,31.9c-.5,1.1-.7,2.3-.8,3.5,0,1.9.5,3.7,1.3,5.3-1.7-.9-3.5-1.3-5.4-1.3-1.2,0-2.4.3-3.5.8-.9-3.3-1.5-6.7-1.8-10.1,3.4.3,6.8.9,10.1,1.7h0ZM40.2,68.1c-3.3.9-6.7,1.5-10.1,1.7.3-3.4.9-6.8,1.8-10.1,1.1.5,2.3.7,3.5.8,1.9,0,3.7-.4,5.4-1.3-.9,1.6-1.3,3.5-1.3,5.3,0,1.2.3,2.4.8,3.5ZM41.6,55.1c-1.6,1.7-3.8,2.7-6.2,2.6-3.5,0-10.1-4.9-13.6-7.7,3.5-2.9,10.1-7.7,13.6-7.7,2.3,0,4.6.9,6.2,2.6-1.9,3.1-1.9,7.1,0,10.2ZM50,78.1c-2.9-3.4-7.8-10.1-7.8-13.5,0-2.3.9-4.6,2.6-6.2,3.1,1.9,7.1,1.9,10.2,0,1.7,1.6,2.7,3.8,2.6,6.2,0,3.4-4.9,10.1-7.8,13.5h0ZM42.9,50c0-3.9,3.1-7.1,7-7.1s7.1,3.1,7.1,7-3.1,7.1-7,7.1c0,0,0,0,0,0-3.9,0-7-3.1-7.1-7ZM55.1,41.6c-3.1-1.9-7.1-1.9-10.2,0-1.7-1.6-2.7-3.8-2.6-6.2,0-3.4,4.9-10.1,7.8-13.5,2.9,3.4,7.8,10.1,7.8,13.5,0,2.3-.9,4.6-2.6,6.2ZM58.4,55.1c1.9-3.1,1.9-7.1,0-10.2,1.6-1.7,3.8-2.7,6.2-2.6,3.5,0,10.1,4.9,13.6,7.7-3.5,2.9-10.1,7.7-13.6,7.7-2.3,0-4.6-.9-6.2-2.6h0ZM59.8,68.1c.5-1.1.7-2.3.8-3.5,0-1.9-.5-3.7-1.3-5.3,1.7.9,3.5,1.3,5.4,1.3,1.2,0,2.4-.3,3.5-.8.9,3.3,1.5,6.7,1.8,10.1-3.4-.3-6.8-.9-10.1-1.7h0Z"/>
</svg>