<?xml version="1.0" encoding="UTF-8"?>
<svg id="Capa_1" xmlns="http://www.w3.org/2000/svg" viewBox="0 0 100 100">
  <defs>
    <style>
      .cls-1 {
        fill: #fff;
      }

      .cls-2 {
        fill: currentColor;
      }
    </style>
  </defs>
  <g>
    <path class="cls-2" d="M95.1,23.1h-30.1v3.6h28.3v48H7.1V26.7h30l-1.2-3.6H5.3c-1,0-1.8.8-1.8,1.8v51.6c0,1,.8,1.8,1.8,1.8h36v7.1h-8.6c-1,0-1.8.8-1.8,1.8s.8,1.8,1.8,1.8h34.9c1,0,1.8-.8,1.8-1.8s-.8-1.8-1.8-1.8h-8.6v-7.1h36c1,0,1.8-.8,1.8-1.8V24.9c0-1-.8-1.8-1.8-1.8ZM55.5,85.4h-10.6v-7.1h10.6v7.1ZM50.6,22.1v5.6h.5v-5.6h-.5Z"/>
    <path class="cls-1" d="M49.6,21.1v7.6h1.6v-7.6h-1.6Z"/>
  </g>
  <g>
    <path class="cls-2" d="M30.1,43.5c-.1-.1-.4-.2-.6-.2s-.4,0-.6.2-.2.4-.2.6,0,.4.2.6c.1.1.4.2.6.2s.4,0,.6-.2c.1-.1.2-.4.2-.6s0-.4-.2-.6Z"/>
    <path class="cls-2" d="M60.5,22.1c-.1-.1-.3-.2-.6-.2s-.4,0-.6.2c-.1.1-.2.4-.2.6s0,.4.2.6c.1.1.4.2.6.2s.4,0,.6-.2c.1-.1.2-.4.2-.6s0-.4-.2-.6Z"/>
    <path class="cls-2" d="M63.6,7.9c-.1-.2-.3-.2-.6-.2h-19.4c-.4,0-.8.4-.8.8v2.3l-7.5,2c-.4.1-.7.5-.6,1l3.9,14.5-3.4,3.4c-.4-.6-1.1-1-2-1h-7.6c-1.3,0-2.4,1.1-2.4,2.4v12.9c0,1.3,1.1,2.4,2.4,2.4h7.6c1.1,0,2-.8,2.3-1.8l.9.8c.7.6,1.7,1,2.6,1h23.8c.4,0,.8-.3.8-.8V8.4c0-.2,0-.4-.2-.5ZM34.2,45.7c0,.4-.4.8-.8.8h-7.6c-.4,0-.8-.4-.8-.8v-12.9c0-.4.4-.8.8-.8h3v9.1c0,.4.4.8.8.8s.8-.4.8-.8v-9.1h3c.4,0,.8.3.8.8v12.9ZM36.5,14l6.3-1.7v2.9h-.5c-.2.2-.4.3-.5.5-.1.2-.1.4,0,.6.3,1.1-.4,2.3-1.5,2.6-.2,0-.4.2-.5.4-.1.2-.1.4,0,.6l3.1,11.4h-1.6l-.8-3.2c0-.1,0-.2-.1-.3l-3.7-13.8ZM42.8,18.8v6.7l-1.4-5.3c.6-.3,1.1-.8,1.4-1.3ZM54.2,46.4h-15c-.6,0-1.1-.2-1.6-.6l-1.9-1.7v-10.9l3.5-3.4.6,2.4c0,.4.4.6.8.6h15.5c.6,0,1.1.5,1.1,1.1s-.5,1.1-1.1,1.1h-8c-.4,0-.8.4-.8.8s.4.8.8.8h10.4c.6,0,1.1.5,1.1,1.1s-.5,1.1-1.1,1.1h-10.4c-.4,0-.8.3-.8.8s.4.8.8.8h8.7c.6,0,1.1.5,1.1,1.1s-.5,1.1-1.1,1.1h-8.7c-.4,0-.8.4-.8.8s.4.8.8.8h6c.6,0,1.1.5,1.1,1.1s-.5,1.1-1.1,1.1ZM62.2,46.4h-5.6c.2-.3.2-.7.2-1.1s0-.8-.2-1.1h.2c1.5,0,2.7-1.2,2.7-2.7s0-.8-.3-1.2c1.1-.3,2-1.4,2-2.6s-.2-1.1-.5-1.6v-10c0-.4-.4-.8-.8-.8s-.8.3-.8.8v9c-.2,0-.4,0-.6,0h0c.1-.3.2-.7.2-1.1,0-1.5-1.2-2.7-2.7-2.7h-1.3c1.3-.6,2.3-1.9,2.3-3.5s-1.7-3.8-3.8-3.8-3.8,1.7-3.8,3.8.9,2.9,2.3,3.5h-4.3v-15c1.4-.3,2.5-1.4,2.8-2.8h5.9c.3,1.4,1.4,2.5,2.8,2.8v2.5c0,.4.3.8.8.8s.8-.4.8-.8v-3.2c0-.4-.4-.8-.8-.8-1.2,0-2.1-1-2.1-2.1s-.3-.8-.8-.8h-7.4c-.4,0-.8.3-.8.8,0,1.2-1,2.1-2.1,2.1s-.8.3-.8.8v15.7h-1.5V9.2h17.8v37.2ZM53.3,30c-1.2,0-2.2-1-2.2-2.2s1-2.2,2.2-2.2,2.2,1,2.2,2.2-1,2.2-2.2,2.2Z"/>
  </g>
</svg>