<svg width="200" height="200" viewBox="0 0 200 200" fill="none" xmlns="http://www.w3.org/2000/svg">
<path d="M133.333 65.5555C135.787 65.5555 137.778 67.5467 137.778 70C137.778 72.4533 135.787 74.4444 133.333 74.4444C130.88 74.4444 128.889 72.4533 128.889 70C128.889 67.5467 130.88 65.5555 133.333 65.5555Z" fill="currentColor"/>
<path d="M102.222 38.8889C136.587 38.8889 164.444 66.7467 164.444 101.111C164.444 135.476 136.587 163.333 102.222 163.333C67.8578 163.333 40 135.476 40 101.111C40 66.7467 67.8578 38.8889 102.222 38.8889Z" stroke="currentColor" stroke-width="7"/>
<path d="M123.951 105.556C122.182 114.236 115.365 121.093 106.667 122.862V131.876C107.062 131.818 107.458 131.782 107.849 131.711C120.649 129.373 130.716 119.182 132.893 106.351C132.938 106.089 132.925 105.818 132.96 105.556H123.951Z" fill="currentColor"/>
<path d="M132.907 95.9156C130.702 82.8223 120.418 72.5734 107.32 70.4134C107.107 70.3778 106.88 70.3956 106.667 70.3645V79.3823C115.382 81.1512 122.187 87.9467 123.956 96.6667H132.969C132.933 96.4178 132.947 96.1601 132.907 95.9156Z" fill="currentColor"/>
<path d="M97.7779 122.84C89.0712 121.067 82.2579 114.276 80.489 105.556H71.4934C71.5334 105.844 71.5201 106.142 71.569 106.431C73.8134 119.444 84.0712 129.64 97.0934 131.8C97.3156 131.836 97.5512 131.827 97.7779 131.858V122.84Z" fill="currentColor"/>
<path d="M80.5023 96.6667C82.2712 87.9778 89.049 81.1334 97.7779 79.36V70.4C97.369 70.4578 96.9379 70.4445 96.5334 70.52C83.5645 72.92 73.4979 83.2845 71.4756 96.3245C71.4579 96.4356 71.4668 96.5511 71.449 96.6667H80.5023Z" fill="currentColor"/>
<path d="M102.222 92.2222C107.133 92.2222 111.111 96.1999 111.111 101.111C111.111 106.022 107.133 110 102.222 110C97.311 110 93.3333 106.022 93.3333 101.111C93.3333 96.1999 97.311 92.2222 102.222 92.2222Z" stroke="currentColor" stroke-width="2"/>
</svg>
