<svg width="200" height="200" viewBox="0 0 200 200" fill="none" xmlns="http://www.w3.org/2000/svg">
<g clip-path="url(#clip0_2528_5944)">
<path d="M184.782 161.363V104.348H193.478C197.08 104.348 200 101.428 200 97.8258C200 94.2242 197.08 91.3039 193.478 91.3039H171.739V19.5652C171.739 8.77695 162.962 0 152.174 0H47.8262C37.0379 0 28.2609 8.77695 28.2609 19.5652V91.3043H6.52187C2.91992 91.3043 0 94.2242 0 97.8262C0 101.428 2.91992 104.348 6.52187 104.348H15.2176V161.363C6.51563 163.346 0 171.141 0 180.435V193.478C0 197.08 2.91992 200 6.52187 200H193.479C197.08 200 200 197.08 200 193.478V180.435C200 171.141 193.484 163.346 184.782 161.363ZM171.739 104.348V160.87H158.696V104.348C163.416 104.348 167.019 104.348 171.739 104.348ZM41.3043 19.5652C41.3043 15.9691 44.2301 13.0434 47.8262 13.0434H152.174C155.77 13.0434 158.696 15.9691 158.696 19.5652V91.3043H145.652V32.6086C145.652 29.007 142.732 26.0867 139.13 26.0867H60.8695C57.268 26.0867 54.3477 29.0066 54.3477 32.6086V91.3043H41.3043V19.5652ZM106.522 91.3043V39.1305H132.609V91.3043H106.522ZM119.565 104.348V160.87H106.522V104.348H119.565ZM132.609 104.348C137.329 104.348 140.932 104.348 145.652 104.348V160.87H132.609V104.348ZM67.3914 91.3043V39.1305H93.4785V91.3043H67.3914ZM93.4781 104.348V160.87H80.4348V104.348H93.4781ZM67.3914 104.348V160.87H54.3477V104.348C59.068 104.348 62.6715 104.348 67.3914 104.348ZM28.2609 104.348C32.9809 104.348 36.5844 104.348 41.3043 104.348V160.87H28.2609V104.348ZM186.957 186.957H13.0434V180.435C13.0434 176.839 15.9691 173.913 19.5652 173.913H180.435C184.031 173.913 186.957 176.839 186.957 180.435V186.957Z" fill="currentColor"/>
</g>
<defs>
<clipPath id="clip0_2528_5944">
<rect width="200" height="200" fill="white"/>
</clipPath>
</defs>
</svg>
