<?xml version="1.0" encoding="UTF-8"?>
<svg id="Layer_1" xmlns="http://www.w3.org/2000/svg" viewBox="0 0 100 100">
  <defs>
    <style>
      .cls-1 {
        fill: currentColor;
      }
    </style>
  </defs>
  <path class="cls-1" d="M60.1,24.1h10.4c.6,0,1-.5,1-1,0-3.1-2.3-5.6-5.2-6.1V7.3c0-.6-.5-1-1-1s-1,.5-1,1v9.7c-2.9.5-5.2,3.1-5.2,6.1s.5,1,1,1h0ZM65.3,18.9c1.9,0,3.6,1.3,4,3.1h-8.1c.5-1.8,2.1-3.1,4-3.1ZM8.6,51.8h25.5c.6,0,1-.5,1-1v-31.4c0-.6-.5-1-1-1H8.6c-.6,0-1,.5-1,1v31.4c0,.6.4,1,1,1ZM9.6,20.4h23.4v29.3H9.6v-29.3ZM8.6,88.4h25.5c.6,0,1-.5,1-1v-31.4c0-.6-.5-1-1-1H8.6c-.6,0-1,.5-1,1v31.4c0,.6.4,1,1,1ZM9.6,57h23.4v29.3H9.6v-29.3ZM97.6,53.3c0-.6-.5-1-1-1h-16.9c.5-5.7-3.8-10.9-9.6-10.8h-9.4c-5.8,0-10.2,5.1-9.7,10.8h-10.6V14.2c0-.6-.5-1-1-1H3.4c-.6,0-1,.4-1,1v78.3c0,.6.5,1,1,1h35.8c.6,0,1-.5,1-1v-31.5h10.6v5.9c-4.3,1.4-4.1,7.7.2,8.8l-1.6,16.9c0,.3,0,.6.3.8.2.2.5.3.8.3h3.3c.5,0,.9-.3,1-.8l1.9-8.1,8.5-3.8,8.5,3.8,1.9,8.1c.1.5.5.8,1,.8h3.3c.3,0,.6-.1.8-.3.2-.2.3-.5.3-.8l-1.6-16.9c4.4-1.2,4.5-7.5.2-8.9v-5.9h9.3v31.7c0,.6.5,1,1,1h6.6c.6,0,1-.5,1-1,0-5,0-35.2,0-39.4h0ZM38.2,91.5H4.5V15.2h33.8v76.3ZM53,51.1c0-4.2,3.4-7.6,7.6-7.6h9.4c4.2,0,7.6,3.4,7.6,7.6v15.5h-24.6v-15.5ZM40.3,58.9v-4.5h10.6v4.5h-10.6ZM53,91.7h-1.3l1.5-15.7h3.6l-3.8,15.7ZM57.4,82.4l1-4.3,4.3,1.9-5.3,2.4ZM65.3,78.8l-6.4-2.8h0c0,0,12.7,0,12.7,0h0c0,0-6.4,2.9-6.4,2.9ZM67.8,80l4.3-1.9,1,4.3-5.3-2.4ZM77.5,91.7l-3.8-15.7h3.6l1.5,15.7h-1.3ZM80.7,71.3c0,1.3-1.2,2.6-2.6,2.6h-25.8c-3.1,0-3.5-4.6-.3-5.1.1,0,.2,0,.4,0h25.8c1.4,0,2.6,1.2,2.6,2.6h0ZM95.5,91.7h-4.5v-30.5h4.5v30.5ZM95.5,58.9h-15.9v-4.5h15.9v4.5ZM28.4,36.1h-2.6c-.6,0-1-.5-1-1s.5-1,1-1h2.6c1.3,0,1.3,2.1,0,2.1ZM28.4,72.7h-2.6c-.6,0-1-.5-1-1s.5-1,1-1h2.6c1.3,0,1.3,2.1,0,2.1Z"/>
</svg>