<?xml version="1.0" encoding="UTF-8"?>
<svg id="svg2667" xmlns="http://www.w3.org/2000/svg" viewBox="0 0 100 100">
  <defs>
    <style>
      .cls-22010 {
        fill: none;
        stroke: #000;
        stroke-linecap: round;
        stroke-linejoin: round;
        stroke-width: 3px;
      }
    </style>
  </defs>
  <g id="g2677">
    <g id="g2683">
      <path id="path2685" class="cls-22010" d="M6.2,24.8C2.2,19.1.1,8.8,8.8,6c4-1.3,10-1.7,13.3-3.8,2.9,5.2,1.7,8.3-2.4,10.7-1.9,1.1-4.2,2-6.5,3.2-3.5,1.9-6.7,4.3-7.1,8.7Z"/>
    </g>
    <g id="g2687">
      <path id="path2689" class="cls-22010" d="M22.6,47.5v-7.8c0-2.8-1.4-5.1-3-7.1-1.9-2.4-1.5-5.6,1.4-7.4,2.5-1.4,5-4.4,4.7-8.2-.2-2.4-1.7-5.6-2.9-6.8M52.7,84.4c0-5.4-2.1-8.7-8.7-9.3v-14c0-2.7-2.2-4.9-4.9-4.9h-16.5M6.2,24.8v2.4c0,3,0,3.3-2.1,5.7-1.4,1.6-2,3.8-2,6v18.8c0,5.6,4.6,10.2,10.2,10.2"/>
    </g>
    <path id="path2691" class="cls-22010" d="M2.1,67.9h31.2v29.9H2.1v-29.9Z"/>
    <g id="g2693">
      <path id="path2695" class="cls-22010" d="M59.7,97.8h-26.3M33.3,84.4h64.5v13.3h-20.7"/>
    </g>
    <g id="g2697">
      <path id="path2699" class="cls-22010" d="M11.8,38.9v8.7h12.3c7.8,0,7.9,5.3,7.8,8.7H12.8c-5.2,0-10.7-1.9-10.7-9.6v-7.7"/>
    </g>
    <g id="g2701">
      <path id="path2703" class="cls-22010" d="M26.1,56.2v11.7"/>
    </g>
    <g id="g2705">
      <path id="path2707" class="cls-22010" d="M2.1,67.9h31.2"/>
    </g>
    <g id="g2709">
      <path id="path2711" class="cls-22010" d="M2.1,77.9h31.2"/>
    </g>
    <g id="g2713">
      <path id="path2715" class="cls-22010" d="M2.1,87.8h31.2"/>
    </g>
    <g id="g2717">
      <path id="path2719" class="cls-22010" d="M97.9,84.4v-35.8h-35.8v35.8"/>
    </g>
    <g id="g2721">
      <path id="path2723" class="cls-22010" d="M74,48.6v35.8"/>
    </g>
    <g id="g2725">
      <path id="path2727" class="cls-22010" d="M85.9,48.6v35.8"/>
    </g>
    <g id="g2729">
      <path id="path2731" class="cls-22010" d="M91.9,22.9c-.2.2-1.4,1.2-1.3,3,0,1.9,1.2,2.9,1.3,3,.2.2,1.4,1.2,1.3,3,0,1.9-1.2,2.9-1.3,3"/>
    </g>
    <g id="g2733">
      <path id="path2735" class="cls-22010" d="M80,22.9c-.2.2-1.4,1.2-1.3,3,0,1.9,1.2,2.9,1.3,3,.2.2,1.4,1.2,1.3,3,0,1.9-1.2,2.9-1.3,3"/>
    </g>
    <g id="g2737">
      <path id="path2739" class="cls-22010" d="M68,22.9c-.2.2-1.4,1.2-1.3,3,0,1.9,1.2,2.9,1.3,3,.2.2,1.4,1.2,1.3,3,0,1.9-1.2,2.9-1.3,3"/>
    </g>
    <g id="g2741">
      <path id="path2743" class="cls-22010" d="M68.4,97.8h0"/>
    </g>
  </g>
</svg>