<svg width="200" height="200" viewBox="0 0 200 200" fill="none" xmlns="http://www.w3.org/2000/svg">
<path d="M148.825 51.6543V39.6159H164.054V0H35.9446V39.6159H51.1727V51.6543H26.5005V200H173.5V51.6543H148.825ZM44.278 8.33347H155.72V31.2824H44.278V8.33347ZM59.5062 39.6159H140.492V51.6543H59.5062V39.6159ZM165.166 191.667H34.834V59.9873H165.167L165.166 191.667Z" fill="currentColor"/>
<path d="M150.626 97.8779H49.3723V106.211H150.626V97.8779Z" fill="currentColor"/>
<path d="M150.626 120.927H49.3723V129.26H150.626V120.927Z" fill="currentColor"/>
<path d="M150.626 143.976H49.3723V152.309H150.626V143.976Z" fill="currentColor"/>
<path d="M150.626 167.027H49.3723V175.36H150.626V167.027Z" fill="currentColor"/>
<path d="M61.8756 20.1624C61.1589 19.5449 60.094 19.0653 58.6825 18.7237C57.2695 18.382 56.347 18.0645 55.9144 17.7677C55.4797 17.4726 55.2629 17.0461 55.2629 16.4877C55.2629 15.9282 55.4797 15.511 55.9144 15.2351C56.3474 14.9592 56.9025 14.8212 57.5793 14.8212C58.256 14.8212 58.9421 14.94 59.6385 15.1759C60.3344 15.4135 60.8858 15.7147 61.2936 16.0833L62.5348 14.329C61.905 13.8028 61.1556 13.3951 60.2882 13.1069C59.4221 12.8184 58.5478 12.6735 57.6674 12.6735C56.3013 12.6735 55.1544 13.0184 54.2291 13.7082C53.3021 14.398 52.8401 15.3796 52.8401 16.6543C52.8401 17.9294 53.2454 18.8739 54.0605 19.4914C54.4674 19.82 54.9344 20.0865 55.4605 20.2902C55.985 20.4935 56.7548 20.7163 57.7666 20.9604C58.7772 21.2041 59.4907 21.4718 59.9046 21.7682C60.3185 22.0637 60.525 22.4771 60.525 23.0098C60.525 23.5424 60.3054 23.9686 59.8646 24.291C59.425 24.6118 58.8299 24.7739 58.0809 24.7739C56.5829 24.7739 55.138 24.1694 53.7458 22.9596L52.2878 24.7143C53.956 26.1992 55.8678 26.9404 58.0217 26.9404C59.4936 26.9404 60.6825 26.5665 61.5883 25.8175C62.496 25.069 62.9483 24.0939 62.9483 22.891C62.9483 21.691 62.5911 20.78 61.8756 20.1624Z" fill="currentColor"/>
<path d="M64.5249 15.1375H68.7029V26.7845H71.0282V15.1375H75.2061V13.0098H64.5249V15.1375Z" fill="currentColor"/>
<path d="M83.721 12.6743C81.6716 12.6743 79.9504 13.3543 78.5585 14.7143C77.1647 16.0727 76.4688 17.7682 76.4688 19.7984C76.4688 21.829 77.1651 23.5225 78.5585 24.8825C79.9508 26.2425 81.6716 26.9225 83.721 26.9225C85.7708 26.9225 87.4916 26.2425 88.8834 24.8825C90.2773 23.5225 90.9728 21.8286 90.9728 19.7984C90.9728 17.7678 90.2769 16.0727 88.8834 14.7143C87.4916 13.3543 85.7708 12.6743 83.721 12.6743ZM87.1802 23.3364C86.2406 24.3086 85.0871 24.7943 83.721 24.7943C82.3545 24.7943 81.2014 24.3086 80.2614 23.3364C79.3234 22.3629 78.8536 21.1841 78.8536 19.7984C78.8536 18.4127 79.3234 17.2339 80.2614 16.2604C81.2014 15.2882 82.3545 14.8025 83.721 14.8025C85.0871 14.8025 86.2406 15.2882 87.1802 16.2604C88.1185 17.2339 88.5888 18.4127 88.5888 19.7984C88.5883 21.1841 88.1185 22.3629 87.1802 23.3364Z" fill="currentColor"/>
<path d="M104.907 17.4824C104.907 15.9187 104.453 14.7832 103.547 14.073C102.64 13.3641 101.134 13.0098 99.0335 13.0098H93.9094V26.7849H96.2347V22.1526H99.2902L102.581 26.7845H105.537L101.93 21.7792C103.914 21.1869 104.907 19.7551 104.907 17.4824ZM99.1319 20.0453H96.2351V15.1183H99.1911C100.439 15.1183 101.307 15.2853 101.792 15.6204C102.278 15.9559 102.522 16.573 102.522 17.473C102.522 18.3726 102.285 19.0273 101.811 19.4343C101.34 19.8416 100.445 20.0453 99.1319 20.0453Z" fill="currentColor"/>
<path d="M112.414 13.0098L106.344 26.7849H108.827L110.206 23.6506H117.104L118.483 26.7849H120.968L114.897 13.0098H112.414ZM111.152 21.5032L113.656 15.8273L116.158 21.5032H111.152Z" fill="currentColor"/>
<path d="M132.417 23.8669C131.536 24.4331 130.442 24.7151 129.135 24.7151C127.828 24.7151 126.715 24.271 125.796 23.3841C124.876 22.4976 124.415 21.3221 124.415 19.8576C124.415 18.3918 124.889 17.2098 125.835 16.3102C126.781 15.4106 127.95 14.9596 129.342 14.9596C130.065 14.9596 130.699 15.0478 131.244 15.2257C131.789 15.4037 132.331 15.7216 132.87 16.1816L134.111 14.4078C132.798 13.2514 131.149 12.6739 129.165 12.6739C127.182 12.6739 125.489 13.3572 124.091 14.7233C122.691 16.0898 121.991 17.798 121.991 19.8474C121.991 21.8967 122.678 23.5906 124.051 24.9314C125.424 26.2723 127.129 26.9412 129.165 26.9412C131.582 26.9412 133.441 26.2257 134.742 24.7935V20.0833H132.417V23.8669Z" fill="currentColor"/>
<path d="M140.122 20.911H146.724V18.8424H140.122V15.1971H147.473V13.0098H137.797V26.7845H147.71V24.5967H140.122V20.911Z" fill="currentColor"/>
</svg>
