<?xml version="1.0" encoding="UTF-8"?>
<svg id="Layer_1" xmlns="http://www.w3.org/2000/svg" viewBox="0 0 100 100">
  <defs>
    <style>
      .cls-1 {
        fill: currentColor;
      }
    </style>
  </defs>
  <path class="cls-1" d="M7.5,61.4v-20.6c0-.7.6-1.3,1.3-1.3h25.9c.7,0,1.3.6,1.3,1.3s-.6,1.3-1.3,1.3H10.1v17.9h19.1c.7,0,1.3.6,1.3,1.3s-.6,1.3-1.3,1.3H8.8c-.7,0-1.3-.6-1.3-1.3ZM8.8,33.5h27.6c.7,0,1.3-.6,1.3-1.3s-.6-1.3-1.3-1.3H10.1V12.9h34.1v12.1c0,.7.6,1.3,1.3,1.3s1.3-.6,1.3-1.3v-13.4c0-.7-.6-1.3-1.3-1.3H8.8c-.7,0-1.3.6-1.3,1.3v20.6c0,.7.6,1.3,1.3,1.3h0ZM91.4,39.4h-25.7c-.7,0-1.3.6-1.3,1.3s.6,1.3,1.3,1.3h24.4v17.9h-19.1c-.7,0-1.3.6-1.3,1.3s.6,1.3,1.3,1.3h20.4c.7,0,1.3-.6,1.3-1.3v-20.6c0-.7-.6-1.3-1.3-1.3h0ZM91.4,10.2h-36.8c-.7,0-1.3.6-1.3,1.3v13.3c0,.7.6,1.3,1.3,1.3s1.3-.6,1.3-1.3v-12h34.1v17.9h-26c-.7,0-1.3.6-1.3,1.3s.6,1.3,1.3,1.3h27.3c.7,0,1.3-.6,1.3-1.3V11.5c0-.7-.6-1.3-1.3-1.3h0ZM92.7,86.4c.1.4,0,.8-.2,1.2s-.6.5-1.1.5H8.8c-.4,0-.8-.2-1.1-.5-.3-.3-.3-.8-.2-1.2l5.9-19.3c.2-.6.7-.9,1.3-.9h14.9c.8-2.3,2.5-4.1,4.7-4.9l7.5-2.8v-2.4c0-.4.2-.8.5-1l-1-3.9s0,0,0,0c-2.5,0-4.6-1.9-4.6-4.3s.7-2.7,1.8-3.5c-.6-1.4-.9-2.9-.9-4.4,0-6.5,5.7-11.8,12.8-11.8s12.8,5.3,12.8,11.8-.3,3.1-1,4.6c1,.8,1.7,2,1.7,3.3,0,2.4-2,4.3-4.6,4.3l-1.1,3.9c.3.2.5.6.5,1v2.4l7.5,2.8c2.2.8,3.8,2.6,4.7,4.9h14.9c.6,0,1.1.4,1.3.9l5.9,19.3ZM60.6,45.8l-.7,2.5c.7-.3,1.1-.8,1.1-1.5s-.1-.7-.4-1ZM40.5,48.4l-.7-2.7c-.3.3-.5.7-.5,1.1,0,.7.5,1.3,1.3,1.6ZM59.8,41.7c.3-.9.5-1.8.5-2.8,0-5.1-4.5-9.2-10.1-9.2s-10.1,4.1-10.1,9.2.2,1.9.5,2.8h19.3ZM43.8,50.6h12.7l1.8-6.2h-16.1l1.7,6.2ZM44.5,53.3l.4,1.5h10.4l.4-1.5h-11.2ZM29,68.8h-13.2l-5.1,16.6h15.1l3.2-16.6ZM62.4,72.3c0-.2-.2-.4-.4-.4h-23.8c-.2,0-.4.2-.4.4v13.1h24.6v-13.1h0ZM71.8,85.4l-3.4-17.2c-.3-1.3-1-3.6-3.4-4.4l-8.3-3.1c-.5-.2-.9-.7-.9-1.2v-2h-11.4v2c0,.6-.3,1.1-.9,1.2l-8.3,3.1c-2.4.9-3.2,3.2-3.4,4.4l-3.4,17.2h6.7v-13.1c0-1.7,1.4-3.1,3.1-3.1h23.8c1.7,0,3.1,1.4,3.1,3.1v13.1h6.7ZM89.6,85.4l-5.1-16.6h-13.2l3.2,16.6h15.1ZM51.9,37.1h-3.8c-.7,0-1.3.6-1.3,1.3s.6,1.3,1.3,1.3h3.8c.7,0,1.3-.6,1.3-1.3s-.6-1.3-1.3-1.3Z"/>
</svg>