<?xml version="1.0" encoding="UTF-8"?>
<svg id="Layer_1" xmlns="http://www.w3.org/2000/svg" viewBox="0 0 100 100">
  <defs>
    <style>
      .cls-1 {
        fill: currentColor;
      }
    </style>
  </defs>
  <g id="_x31_3">
    <path class="cls-1" d="M89.5,8.2H10.5c-1.3,0-2.3,1-2.3,2.3v79c0,1.3,1,2.3,2.3,2.3s2.3-1,2.3-2.3V21.9h22.8v67.6c0,1.3,1,2.3,2.3,2.3h42.5c1.3,0,2.3-1,2.3-2.3v-.8h6.8c1.3,0,2.3-1,2.3-2.3V10.5c0-1.3-1-2.3-2.3-2.3ZM78.1,87.2h-38V21.9h38v65.3ZM87.2,84.2h-4.5V21.9h4.5v62.3ZM87.2,17.3H12.8v-4.5h74.4v4.5Z"/>
    <path class="cls-1" d="M49.2,53v6.1c0,1.3-1,2.3-2.3,2.3s-2.3-1-2.3-2.3v-6.1c0-1.3,1-2.3,2.3-2.3s2.3,1,2.3,2.3Z"/>
    <path class="cls-1" d="M27.3,57.7l-6.1,6.1c-.9.9-2.4.9-3.2,0-.9-.9-.9-2.3,0-3.2l4.5-4.5-4.5-4.5c-.4-.4-.7-1-.7-1.6s.2-1.2.7-1.6,1-.7,1.6-.7,1.2.2,1.6.7l6.1,6.1c.9.9.9,2.3,0,3.2Z"/>
  </g>
</svg>