<svg width="200" height="200" viewBox="0 0 200 200" fill="none" xmlns="http://www.w3.org/2000/svg">
<g clip-path="url(#clip0_2528_5955)">
<path d="M100.26 66.1133C114.534 66.1133 127.441 71.8913 136.8 81.25C146.142 90.5924 151.937 103.516 151.937 117.79C151.937 132.064 146.159 144.971 136.8 154.329C127.458 163.672 114.534 169.466 100.26 169.466C85.9862 169.466 73.0793 163.688 63.7206 154.329C54.3782 144.987 48.5839 132.064 48.5839 117.79C48.5839 103.516 54.3619 90.6087 63.7206 81.25C73.0631 71.8913 85.9862 66.1133 100.26 66.1133ZM57.4218 15.9505C63.623 15.9505 68.636 20.9798 68.636 27.1647C68.636 33.3496 63.6067 38.3789 57.4218 38.3789C51.2369 38.3789 46.2076 33.3496 46.2076 27.1647C46.2076 20.9798 51.2369 15.9505 57.4218 15.9505ZM117.578 23.9258C119.564 23.9258 121.191 25.5371 121.191 27.5391C121.191 29.5247 119.58 31.1523 117.578 31.1523C115.592 31.1523 113.965 29.541 113.965 27.5391C113.981 25.5371 115.592 23.9258 117.578 23.9258ZM133.219 23.9258C135.205 23.9258 136.833 25.5371 136.833 27.5391C136.833 29.5247 135.221 31.1523 133.219 31.1523C131.234 31.1523 129.606 29.541 129.606 27.5391C129.606 25.5371 131.217 23.9258 133.219 23.9258ZM148.844 23.9258C150.83 23.9258 152.458 25.5371 152.458 27.5391C152.458 29.5247 150.846 31.1523 148.844 31.1523C146.859 31.1523 145.231 29.541 145.231 27.5391C145.231 25.5371 146.859 23.9258 148.844 23.9258ZM28.2551 46.2565H171.208V9.87956C171.208 9.14714 170.915 8.49609 170.426 8.00781C169.938 7.51953 169.287 7.22656 168.555 7.22656H30.9081C30.1757 7.22656 29.5247 7.51953 29.0364 8.00781C28.5481 8.49609 28.2551 9.14714 28.2551 9.87956V46.2565ZM178.434 47.9655C178.776 48.5189 178.971 49.1699 178.971 49.8698C178.971 50.5697 178.776 51.2207 178.434 51.7741V190.137C178.434 192.855 177.327 195.329 175.537 197.119C173.747 198.91 171.273 200.016 168.555 200.016H30.9081C28.19 200.016 25.7161 198.91 23.9257 197.119C22.1353 195.313 21.0286 192.839 21.0286 190.12V9.87956C21.0286 7.16146 22.1353 4.6875 23.9257 2.89714C25.7161 1.10677 28.19 0 30.9081 0H168.555C171.273 0 173.747 1.10677 175.537 2.89714C177.327 4.6875 178.434 7.16146 178.434 9.87956V47.9655ZM171.208 53.4831H28.2551V190.12C28.2551 190.853 28.5481 191.504 29.0364 191.992C29.5247 192.48 30.1757 192.773 30.9081 192.773H168.555C169.287 192.773 169.938 192.48 170.426 191.992C170.915 191.504 171.208 190.853 171.208 190.12V53.4831ZM59.3261 120.931C57.731 120.133 57.0963 118.213 57.8775 116.634C58.675 115.055 60.5956 114.404 62.1744 115.186C62.8743 115.527 63.9159 116.081 64.9739 116.634C70.996 119.808 78.5481 123.763 84.8958 120.394C106.038 109.115 108.577 112.158 112.695 117.106C114.209 118.913 116.064 121.143 121.647 121.826C123.242 122.021 125.293 121.615 127.913 120.622C130.876 119.499 134.407 117.708 138.607 115.283C140.137 114.404 142.09 114.925 142.969 116.455C143.848 117.985 143.327 119.938 141.797 120.817C137.256 123.438 133.431 125.374 130.176 126.611C126.562 127.979 123.519 128.516 120.882 128.19C112.809 127.197 110.042 123.877 107.796 121.191C105.745 118.734 104.476 117.204 87.9394 126.042C78.5969 131.022 69.3847 126.172 62.0279 122.314C61.1653 121.875 60.3678 121.452 59.3261 120.931ZM132.243 85.7747C124.056 77.5879 112.744 72.526 100.26 72.526C87.7603 72.526 76.4648 77.5879 68.2779 85.7747C60.0911 93.9616 55.0292 105.273 55.0292 117.757C55.0292 130.257 60.0911 141.553 68.2779 149.74C76.4648 157.926 87.7766 162.988 100.26 162.988C112.76 162.988 124.056 157.926 132.243 149.74C140.43 141.553 145.491 130.241 145.491 117.757C145.491 105.273 140.43 93.9616 132.243 85.7747Z" fill="currentColor"/>
</g>
<defs>
<clipPath id="clip0_2528_5955">
<rect width="200" height="200" fill="white"/>
</clipPath>
</defs>
</svg>
