<svg width="200" height="200" viewBox="0 0 200 200" fill="none" xmlns="http://www.w3.org/2000/svg">
<g clip-path="url(#clip0_2528_5960)">
<path d="M165.452 0H34.5477C22.6781 0.0118206 13.0577 9.63016 13.0435 21.5001V165.456C13.0577 177.326 22.6781 186.944 34.5477 186.957H34.7824V195.652C34.7824 198.053 36.7292 200 39.1304 200C41.5316 200 43.4784 198.053 43.4784 195.652V186.957H156.522V195.652C156.522 198.053 158.468 200 160.87 200C163.271 200 165.218 198.053 165.218 195.652V186.957H165.452C177.322 186.945 186.942 177.326 186.957 165.456V21.5001C186.942 9.63016 177.322 0.0118206 165.452 0ZM95.6522 178.261H34.5477C27.4781 178.253 21.7483 172.526 21.739 165.456V139.13H95.6518V178.261H95.6522ZM95.6522 130.435H21.739V21.5001C21.7483 14.4306 27.4781 8.70285 34.5477 8.69592H95.6518V130.435H95.6522ZM178.261 165.456C178.251 172.526 172.521 178.254 165.452 178.261H104.348V139.13H178.261V165.456ZM178.261 130.435H104.348V8.69551H165.452C172.521 8.70285 178.251 14.4306 178.261 21.4997V130.435Z" fill="currentColor"/>
<path d="M65.2174 152.174H52.1739C49.7727 152.174 47.8259 154.12 47.8259 156.522C47.8259 158.923 49.7727 160.87 52.1739 160.87H65.2174C67.6186 160.87 69.5653 158.923 69.5653 156.522C69.5653 154.12 67.6186 152.174 65.2174 152.174Z" fill="currentColor"/>
<path d="M147.826 152.174H134.783C132.381 152.174 130.435 154.12 130.435 156.522C130.435 158.923 132.381 160.87 134.783 160.87H147.826C150.227 160.87 152.174 158.923 152.174 156.522C152.174 154.12 150.227 152.174 147.826 152.174Z" fill="currentColor"/>
<path d="M65.2173 52.1738C62.8161 52.1738 60.8694 54.1206 60.8694 56.5218V73.9132C60.8694 76.3144 62.8161 78.2612 65.2173 78.2612C67.6186 78.2612 69.5653 76.3144 69.5653 73.9132V56.5218C69.5653 54.1206 67.6186 52.1738 65.2173 52.1738Z" fill="currentColor"/>
<path d="M134.783 52.1738C132.381 52.1738 130.435 54.1206 130.435 56.5218V73.9132C130.435 76.3144 132.381 78.2612 134.783 78.2612C137.184 78.2612 139.13 76.3144 139.13 73.9132V56.5218C139.13 54.1206 137.184 52.1738 134.783 52.1738Z" fill="currentColor"/>
</g>
<defs>
<clipPath id="clip0_2528_5960">
<rect width="200" height="200" fill="white"/>
</clipPath>
</defs>
</svg>
