<?xml version="1.0" encoding="UTF-8"?>
<svg id="Capa_1" xmlns="http://www.w3.org/2000/svg" viewBox="0 0 100 100">
  <defs>
    <style>
      .cls-1 {
        fill: currentColor;
      }
    </style>
  </defs>
  <circle class="cls-1" cx="18.6" cy="37" r="1.4"/>
  <path class="cls-1" d="M10.5,48.6h36.8c.7,0,1.4-.6,1.4-1.4v-15.7c0-.7-.6-1.4-1.4-1.4s-1.4.6-1.4,1.4v14.3H11.8V11.8h34.1v14.3c0,.7.6,1.4,1.4,1.4s1.4-.6,1.4-1.4v-15.7c0-.7-.6-1.4-1.4-1.4H10.5c-.7,0-1.4.6-1.4,1.4v36.8c0,.7.6,1.4,1.4,1.4Z"/>
  <path class="cls-1" d="M22.7,31.6v-10.9c0-.7-.6-1.4-1.4-1.4h-5.4c-.7,0-1.4.6-1.4,1.4v10.9c0,.7.6,1.4,1.4,1.4h5.4c.7,0,1.4-.6,1.4-1.4ZM20,30.2h-2.7v-8.1h2.7v8.1Z"/>
  <circle class="cls-1" cx="60.9" cy="37" r="1.4"/>
  <path class="cls-1" d="M52.7,48.6h36.8c.7,0,1.4-.6,1.4-1.4V10.5c0-.7-.6-1.4-1.4-1.4h-36.8c-.7,0-1.4.6-1.4,1.4v36.8c0,.7.6,1.4,1.4,1.4ZM54.1,11.8h34.1v34.1h-34.1V11.8Z"/>
  <path class="cls-1" d="M63.6,19.4h-5.4c-.7,0-1.4.6-1.4,1.4v10.9c0,.7.6,1.4,1.4,1.4h5.4c.7,0,1.4-.6,1.4-1.4v-10.9c0-.7-.6-1.4-1.4-1.4ZM62.2,30.2h-2.7v-8.1h2.7v8.1Z"/>
  <circle class="cls-1" cx="18.6" cy="79.3" r="1.4"/>
  <path class="cls-1" d="M10.5,90.9h36.8c.7,0,1.4-.6,1.4-1.4v-36.8c0-.7-.6-1.4-1.4-1.4H10.5c-.7,0-1.4.6-1.4,1.4v36.8c0,.7.6,1.4,1.4,1.4ZM11.8,54.1h34.1v34.1H11.8v-34.1Z"/>
  <path class="cls-1" d="M21.3,61.6h-5.4c-.7,0-1.4.6-1.4,1.4v10.9c0,.7.6,1.4,1.4,1.4h5.4c.7,0,1.4-.6,1.4-1.4v-10.9c0-.7-.6-1.4-1.4-1.4ZM20,72.5h-2.7v-8.1h2.7v8.1Z"/>
  <circle class="cls-1" cx="60.9" cy="79.3" r="1.4"/>
  <path class="cls-1" d="M52.7,90.9h36.8c.7,0,1.4-.6,1.4-1.4v-36.8c0-.7-.6-1.4-1.4-1.4h-36.8c-.7,0-1.4.6-1.4,1.4v36.8c0,.7.6,1.4,1.4,1.4ZM54.1,54.1h34.1v34.1h-34.1v-34.1Z"/>
  <path class="cls-1" d="M63.6,61.6h-5.4c-.7,0-1.4.6-1.4,1.4v10.9c0,.7.6,1.4,1.4,1.4h5.4c.7,0,1.4-.6,1.4-1.4v-10.9c0-.7-.6-1.4-1.4-1.4ZM62.2,72.5h-2.7v-8.1h2.7v8.1Z"/>
  <path class="cls-1" d="M95,3.7H5c-.7,0-1.4.6-1.4,1.4v89.9c0,.7.6,1.4,1.4,1.4h89.9c.7,0,1.4-.6,1.4-1.4V5c0-.7-.6-1.4-1.4-1.4ZM93.6,93.6H6.4V6.4h87.2v87.2Z"/>
</svg>