<svg width="200" height="200" viewBox="0 0 200 200" fill="none" xmlns="http://www.w3.org/2000/svg">
<g clip-path="url(#clip0_2528_6014)">
<path d="M97.8571 70.625C98.5715 70.982 99.2856 71.3394 100 71.3394C100.715 71.3394 101.429 70.9824 102.143 70.625L127.143 52.7679C127.857 52.0535 128.572 50.9824 128.572 49.9109C128.572 48.8394 128.214 47.7679 127.143 47.0539L102.143 29.1969C100.714 28.4824 98.9286 28.4824 97.8575 29.1969L72.8575 47.0539C72.143 47.7683 71.429 48.8394 71.429 49.9109C71.429 50.9824 72.1434 52.0539 72.8575 52.7679L97.8571 70.625ZM100 36.3394L118.929 49.9109L100 63.482L81.0715 49.9105L100 36.3394Z" fill="currentColor"/>
<path d="M107.143 74.9105C107.143 75.982 107.858 77.0535 108.572 77.7676L133.572 95.6246C134.286 95.9816 135 96.3391 135.715 96.3391C136.429 96.3391 137.143 95.982 137.858 95.6246L162.858 77.7676C163.572 77.0531 164.286 75.982 164.286 74.9105C164.286 73.8391 163.929 72.7676 162.858 72.0535L137.858 54.1965C136.429 53.482 134.643 53.482 133.572 54.1965L108.572 72.0535C107.857 72.768 107.143 73.8395 107.143 74.9105ZM135.715 61.3395L154.643 74.9109L135.715 88.4824L116.786 74.9109L135.715 61.3395Z" fill="currentColor"/>
<path d="M62.143 95.625C62.8574 95.982 63.5715 96.3394 64.2859 96.3394C65.0004 96.3394 65.7145 95.9824 66.4289 95.625L91.4289 77.7679C92.1434 77.0535 92.8574 75.9824 92.8574 74.9109C92.8574 73.8394 92.5004 72.7679 91.4289 72.0539L66.4289 54.1969C65.0004 53.4824 63.2145 53.4824 62.1434 54.1969L37.1434 72.0539C36.4289 72.7683 35.7148 73.8394 35.7148 74.9109C35.7148 75.9824 36.4293 77.0539 37.1434 77.7679L62.143 95.625ZM64.2855 61.3394L83.2141 74.9109L64.2855 88.4824L45.357 74.9109L64.2855 61.3394Z" fill="currentColor"/>
<path d="M102.143 79.1965C100.714 78.482 98.9286 78.482 97.8575 79.1965L72.8575 97.0535C72.143 97.768 71.429 98.8391 71.429 99.9105C71.429 100.982 72.1434 102.054 72.8575 102.768L97.8575 120.625C98.5719 120.982 99.286 121.339 100 121.339C100.715 121.339 101.429 120.982 102.143 120.625L127.143 102.768C127.858 102.053 128.572 100.982 128.572 99.9105C128.572 98.8391 128.215 97.7676 127.143 97.0535L102.143 79.1965ZM100 113.482L81.0715 99.9105L100 86.3395L118.929 99.9109L100 113.482Z" fill="currentColor"/>
<path d="M127.143 147.054L102.143 129.196C100.714 128.482 98.9286 128.482 97.8575 129.196L72.8575 147.054C72.143 147.768 71.429 148.839 71.429 149.911C71.429 150.982 72.1434 152.054 72.8575 152.768L97.8575 170.625C98.5719 170.982 99.286 171.339 100 171.339C100.715 171.339 101.429 170.982 102.143 170.625L127.143 152.768C127.858 152.053 128.572 150.982 128.572 149.911C128.572 148.839 128.214 147.768 127.143 147.054ZM100 163.482L81.0715 149.911L100 136.339L118.929 149.911L100 163.482Z" fill="currentColor"/>
<path d="M198.571 97.0535L173.571 79.1965C172.143 78.482 170.357 78.482 169.286 79.1965L144.286 97.0535C143.571 97.768 142.857 98.8391 142.857 99.9105C142.857 100.982 143.572 102.054 144.286 102.768L169.286 120.625C170 120.982 170.714 121.339 171.429 121.339C172.143 121.339 172.857 120.982 173.572 120.625L198.572 102.768C199.286 102.053 200 100.982 200 99.9105C200 98.8391 199.643 97.768 198.571 97.0535ZM171.429 113.482L152.5 99.9105L171.429 86.3391L190.357 99.9105L171.429 113.482Z" fill="currentColor"/>
<path d="M162.857 122.054L137.857 104.196C136.429 103.482 134.643 103.482 133.572 104.196L108.572 122.054C107.857 122.768 107.143 123.839 107.143 124.911C107.143 125.982 107.858 127.054 108.572 127.768L133.572 145.625C134.286 145.982 135 146.339 135.715 146.339C136.429 146.339 137.143 145.982 137.858 145.625L162.858 127.768C163.572 127.053 164.286 125.982 164.286 124.911C164.286 123.839 163.929 122.768 162.857 122.054ZM135.715 138.482L116.786 124.911L135.715 111.339L154.643 124.911L135.715 138.482Z" fill="currentColor"/>
<path d="M57.143 99.9105C57.143 98.8391 56.7859 97.7676 55.7145 97.0535L30.7145 79.1965C29.2859 78.482 27.5 78.482 26.4289 79.1965L1.42891 97.0535C0.714453 97.768 0 98.8395 0 99.9105C0 100.982 0.714453 102.054 1.42852 102.768L26.4285 120.625C27.143 120.982 27.857 121.339 28.5715 121.339C29.2859 121.339 30 120.982 30.7145 120.625L55.7145 102.768C56.4285 102.054 57.143 100.982 57.143 99.9105ZM28.5715 113.482L9.64297 99.9105L28.5715 86.3391L47.5 99.9105L28.5715 113.482Z" fill="currentColor"/>
<path d="M92.8569 124.911C92.8569 123.839 92.4999 122.768 91.4284 122.054L66.4284 104.196C64.9999 103.482 63.214 103.482 62.1429 104.196L37.1429 122.054C36.4284 122.768 35.7144 123.839 35.7144 124.911C35.7144 125.982 36.4288 127.054 37.1429 127.768L62.1429 145.625C62.8573 145.982 63.5714 146.339 64.2858 146.339C65.0003 146.339 65.7144 145.982 66.4288 145.625L91.4288 127.768C92.1429 127.054 92.8569 125.982 92.8569 124.911ZM64.2854 138.482L45.3569 124.911L64.2854 111.339L83.214 124.911L64.2854 138.482Z" fill="currentColor"/>
</g>
<defs>
<clipPath id="clip0_2528_6014">
<rect width="200" height="200" fill="white"/>
</clipPath>
</defs>
</svg>
