<svg width="200" height="200" viewBox="0 0 200 200" fill="none" xmlns="http://www.w3.org/2000/svg">
<g clip-path="url(#clip0_2543_6676)">
<path d="M24.1499 104.842C26.5074 102.844 29.2847 101.404 32.2755 100.628C35.2664 99.8515 38.3937 99.7594 41.4249 100.358C46.115 101.273 50.317 103.851 53.2583 107.617L56.7499 99.0917C54.9669 97.4888 52.9871 96.1195 50.8583 95.0167C54.1374 92.274 56.4934 88.589 57.6067 84.4616C58.72 80.3342 58.5366 75.9642 57.0814 71.9446C55.6262 67.925 52.9697 64.4503 49.4724 61.992C45.975 59.5337 41.806 58.2109 37.5311 58.2029C33.2562 58.1949 29.0823 59.5022 25.5758 61.9474C22.0692 64.3926 19.3998 67.8574 17.9296 71.8715C16.4594 75.8857 16.2598 80.2549 17.3576 84.3865C18.4555 88.518 20.7977 92.2118 24.0666 94.9667C22.1915 95.9317 20.4281 97.0998 18.8083 98.45C15.5262 101.183 12.8862 104.606 11.0758 108.474C9.26546 112.343 8.3291 116.562 8.33327 120.833V133.333H16.6666V120.833C16.6623 117.782 17.3307 114.767 18.6241 112.003C19.9175 109.239 21.8042 106.794 24.1499 104.842ZM24.9999 79.1667C24.9999 76.6944 25.733 74.2777 27.1066 72.2221C28.4801 70.1665 30.4323 68.5643 32.7164 67.6182C35.0005 66.6721 37.5138 66.4246 39.9386 66.9069C42.3633 67.3892 44.5906 68.5797 46.3388 70.3279C48.0869 72.076 49.2774 74.3033 49.7597 76.7281C50.2421 79.1528 49.9945 81.6662 49.0484 83.9502C48.1023 86.2343 46.5002 88.1865 44.4446 89.5601C42.3889 90.9336 39.9722 91.6667 37.4999 91.6667C34.1861 91.6623 31.0092 90.3439 28.666 88.0007C26.3227 85.6574 25.0043 82.4805 24.9999 79.1667ZM175.858 95.0167C179.138 92.2751 181.495 88.5908 182.61 84.4637C183.725 80.3366 183.542 75.9666 182.089 71.9465C180.635 67.9265 177.979 64.451 174.483 61.9916C170.986 59.5322 166.817 58.2081 162.543 58.1988C158.268 58.1895 154.093 59.4955 150.586 61.9396C147.079 64.3837 144.408 67.8476 142.937 71.8613C141.465 75.875 141.264 80.2442 142.361 84.3761C143.457 88.5079 145.799 92.2025 149.067 94.9584C147.191 95.9256 145.427 97.0966 143.808 98.45C143.592 98.625 143.442 98.8667 143.225 99.05L146.658 107.433C148.978 104.543 152.053 102.352 155.542 101.103C159.031 99.8543 162.798 99.5965 166.425 100.358C171.312 101.47 175.665 104.236 178.747 108.189C181.828 112.143 183.448 117.039 183.333 122.05V133.333H191.667V122.05C191.733 116.534 190.297 111.103 187.512 106.34C184.727 101.578 180.699 97.6636 175.858 95.0167ZM150 79.1667C150 76.6944 150.733 74.2777 152.107 72.2221C153.48 70.1665 155.432 68.5643 157.716 67.6182C160 66.6721 162.514 66.4246 164.939 66.9069C167.363 67.3892 169.591 68.5797 171.339 70.3279C173.087 72.076 174.277 74.3033 174.76 76.7281C175.242 79.1528 174.995 81.6662 174.048 83.9502C173.102 86.2343 171.5 88.1865 169.445 89.5601C167.389 90.9336 164.972 91.6667 162.5 91.6667C159.186 91.6623 156.009 90.3439 153.666 88.0007C151.323 85.6574 150.004 82.4805 150 79.1667ZM83.3333 75V66.6667C83.3275 64.1426 83.8981 61.6505 85.0014 59.3803C86.1047 57.1101 87.7117 55.1217 89.6999 53.5667C91.7224 51.9857 94.0796 50.8882 96.5913 50.3581C99.1031 49.828 101.703 49.8794 104.192 50.5084C107.876 51.5825 111.1 53.8491 113.358 56.9529C115.616 60.0567 116.779 63.822 116.667 67.6584V75H125V67.6667C125.023 63.2358 123.933 58.8701 121.829 54.9707C119.725 51.0712 116.675 47.763 112.958 45.35C116.346 42.657 118.811 38.9759 120.011 34.8179C121.211 30.6599 121.086 26.2315 119.654 22.1476C118.222 18.0638 115.553 14.5273 112.019 12.0294C108.485 9.5314 104.261 8.19596 99.9337 8.20852C95.606 8.22109 91.3897 9.58103 87.8703 12.0995C84.351 14.6179 81.7032 18.1698 80.2949 22.2619C78.8865 26.354 78.7874 30.7831 80.0114 34.934C81.2354 39.085 83.7217 42.7517 87.1249 45.425C86.2317 45.9047 85.369 46.439 84.5416 47.025C81.5615 49.3572 79.1529 52.3387 77.4994 55.7425C75.8459 59.1463 74.991 62.8825 74.9999 66.6667V75H83.3333ZM87.4999 29.1667C87.4999 26.6944 88.233 24.2777 89.6066 22.2221C90.9801 20.1665 92.9323 18.5643 95.2164 17.6182C97.5005 16.6721 100.014 16.4246 102.439 16.9069C104.863 17.3892 107.091 18.5797 108.839 20.3279C110.587 22.076 111.777 24.3033 112.26 26.7281C112.742 29.1528 112.495 31.6662 111.548 33.9502C110.602 36.2343 109 38.1865 106.945 39.5601C104.889 40.9336 102.472 41.6667 99.9999 41.6667C96.6861 41.6623 93.5092 40.3439 91.166 38.0007C88.8227 35.6574 87.5043 32.4805 87.4999 29.1667ZM166.358 177.583L158.642 180.75L122.2 91.6667H77.7999L41.3583 180.75L33.6416 177.583L70.0833 88.5167C70.7063 86.9819 71.7738 85.6684 73.1488 84.7448C74.5238 83.8212 76.1435 83.3297 77.7999 83.3334H122.2C123.853 83.3289 125.47 83.8183 126.844 84.7388C128.217 85.6593 129.284 86.969 129.908 88.5L166.358 177.583Z" fill="currentColor"/>
</g>
<defs>
<clipPath id="clip0_2543_6676">
<rect width="200" height="200" fill="white"/>
</clipPath>
</defs>
</svg>
