<?xml version="1.0" encoding="UTF-8"?>
<svg id="Layer_1" xmlns="http://www.w3.org/2000/svg" viewBox="0 0 100 100">
  <defs>
    <style>
      .cls-1 {
        fill: currentColor;
      }
    </style>
  </defs>
  <path class="cls-1" d="M71.7,39.3c-.9,0-1.5.6-1.5,1.5s.6,1.5,1.5,1.5c1.6,0,2.9,1.3,2.9,2.9s-1.3,2.9-2.9,2.9h-11.6l-14.9-11.3c-.6-.4-1.6-.3-2,.3s-.3,1.6.3,2l6.7,5.1v15.2c0,.9.6,1.5,1.5,1.5h8.9c.9,0,1.5-.6,1.5-1.5s-.6-1.5-1.5-1.5h-7.5v-11.6l5.6,4.2c.3.1.6.3.9.3h12c3.2,0,5.9-2.6,5.9-5.9.1-3.1-2.5-5.9-5.7-5.9Z"/>
  <path class="cls-1" d="M66.6,58.3c-.9,0-1.5.6-1.5,1.5s.6,1.5,1.5,1.5c2.5,0,4.5,2,4.5,4.5v23.7c0,2.5-2,4.5-4.5,4.5s-4.5-2-4.5-4.5v-17.8c0-.9-.6-1.5-1.5-1.5h-17.8c-4.1,0-7.5-3.4-7.5-7.5v-25.9c0-3.9,3.2-7.6,7-7.9,2.6-.1,5.1,1,6.6,3.2.1.1.1.3.3.3,1.3,1,12.7,9.5,12.7,9.5.3.1.6.3.9.3h3.4c.9,0,1.5-.6,1.5-1.5s-.6-1.5-1.5-1.5h-2.8c-1.9-1.5-10.4-7.8-12.1-9.1-2-2.9-5.4-4.5-9.1-4.4-5.3.4-9.7,5.4-9.7,11v25.9c0,2.9,1.2,5.6,3.2,7.5H13.9c-.9,0-1.5.6-1.5,1.5v23.7c0,.9.6,1.5,1.5,1.5h14.2c.9,0,1.5-.6,1.5-1.5s-.6-1.5-1.5-1.5h-12.7v-20.8h32.5v20.8h-13.5c-.9,0-1.5.6-1.5,1.5s.6,1.5,1.5,1.5h14.9c.9,0,1.5-.6,1.5-1.5v-22.2h8.3v16.4c0,4.1,3.4,7.5,7.5,7.5s7.5-3.4,7.5-7.5v-23.8c0-4.1-3.4-7.3-7.5-7.3Z"/>
  <path class="cls-1" d="M42,23.1c5.6,0,9.9-4.5,9.9-9.9s-4.5-9.9-9.9-9.9-1.5.6-1.5,1.5.6,1.5,1.5,1.5c3.8,0,7,3.2,7,7s-3.2,7-7,7-7-3.2-7-7,1-4.2,2.8-5.6c.6-.4.7-1.5.3-2s-1.5-.7-2-.3c-2.5,1.9-3.9,4.8-3.9,7.9,0,5.6,4.4,9.9,9.9,9.9Z"/>
  <path class="cls-1" d="M68.2,33.2c0,.9.6,1.5,1.5,1.5s1.5-.6,1.5-1.5c0-2,.4-2.9,1.2-4.1.7-1.3,1.5-2.8,1.5-5.4s-.9-4.2-1.5-5.4c-.4-.7-.7-1.5-1-2.3-.1-.7-.9-1.3-1.8-1.2-.7.1-1.3.9-1.2,1.8.3,1.5.9,2.3,1.3,3.2.6,1.2,1.2,2,1.2,4.1s-.4,2.9-1.2,4.1c-.6,1-1.5,2.5-1.5,5.3Z"/>
  <path class="cls-1" d="M69.8,11.8c.3.1.4.1.7.1.6,0,1-.3,1.3-.9.1-.3.3-.6.4-1,.7-1.3,1.5-2.8,1.5-5.4s-.6-1.5-1.5-1.5-1.5.6-1.5,1.5c0,2-.4,2.9-1.2,4.1-.1.3-.3.7-.6,1.2-.3.7,0,1.6.7,1.9Z"/>
  <path class="cls-1" d="M80.8,4.7c0-.9-.6-1.5-1.5-1.5s-1.5.6-1.5,1.5c0,2-.4,2.9-1.2,4.1-.7,1.3-1.5,2.8-1.5,5.4s.9,4.2,1.5,5.4,1.2,2,1.2,4.1-.4,2.9-1.2,4.1c-.7,1.3-1.5,2.8-1.5,5.4s.6,1.5,1.5,1.5,1.5-.6,1.5-1.5c0-2,.4-2.9,1.2-4.1.7-1.3,1.5-2.8,1.5-5.4s-.9-4.2-1.5-5.4-1.2-2-1.2-4.1.4-2.9,1.2-4.1c.6-1.2,1.5-2.6,1.5-5.4Z"/>
  <path class="cls-1" d="M86.2,24.8c-.7-.3-1.6.1-1.8,1-.1.7-.6,1.3-.9,1.9-.7,1.3-1.5,2.8-1.5,5.4s.6,1.5,1.5,1.5,1.5-.6,1.5-1.5c0-2,.4-2.9,1.2-4.1.4-.7.9-1.5,1.2-2.5,0-.7-.4-1.5-1.2-1.8Z"/>
  <path class="cls-1" d="M83.7,20c.3.4.7.7,1.3.7s.4,0,.7-.1c.7-.4,1-1.3.6-2l-.3-.4c-.6-1.2-1.2-2-1.2-4.1s.4-2.9,1.2-4.1c.7-1.3,1.5-2.8,1.5-5.4s-.6-1.5-1.5-1.5-1.5.6-1.5,1.5c0,2-.4,2.9-1.2,4.1-.7,1.3-1.5,2.8-1.5,5.4s.9,4.2,1.5,5.4l.3.6Z"/>
</svg>