<svg width="200" height="200" viewBox="0 0 200 200" fill="none" xmlns="http://www.w3.org/2000/svg">
<path d="M90.6119 133.988C90.6119 129.04 94.6248 125.027 99.5724 125.027C104.52 125.027 108.533 129.04 108.533 133.988C108.533 138.935 104.52 142.942 99.5724 142.942C94.6248 142.942 90.6119 138.935 90.6119 133.988ZM117.487 133.988C117.487 124.092 109.467 116.073 99.5724 116.073C89.6773 116.073 81.6577 124.092 81.6577 133.988C81.6577 143.883 89.6773 151.902 99.5724 151.902C109.467 151.902 117.487 143.883 117.487 133.988Z" fill="currentColor"/>
<path d="M135.595 115.88C128.965 102.707 115.325 93.6782 99.5725 93.6782C83.8201 93.6782 70.1805 102.713 63.5503 115.88L70.3298 122.659C74.8725 110.945 86.2503 102.632 99.5725 102.632C112.895 102.632 124.273 110.945 128.815 122.659L135.595 115.88Z" fill="currentColor"/>
<path d="M151.957 99.5169C140.741 82.5058 121.468 71.2836 99.5724 71.2836C77.6764 71.2836 58.4035 82.512 47.1875 99.5169L53.6804 106.004C63.1204 90.5565 80.1439 80.244 99.5724 80.244C119.007 80.244 136.031 90.5565 145.471 106.01L151.957 99.5169Z" fill="currentColor"/>
<path d="M168.033 83.4409C152.537 62.4853 127.637 48.8893 99.5724 48.8893C71.5075 48.8893 46.608 62.4853 31.1111 83.4409L37.5291 89.8462C51.3311 70.48 73.9751 57.8493 99.5724 57.8493C125.17 57.8493 147.82 70.48 161.622 89.8525L168.033 83.4409Z" fill="currentColor"/>
</svg>
