<?xml version="1.0" encoding="UTF-8"?>
<svg id="Capa_1" xmlns="http://www.w3.org/2000/svg" viewBox="0 0 100 100">
  <defs>
    <style>
      .cls-1 {
        fill: currentColor;
      }
    </style>
  </defs>
  <path class="cls-1" d="M97.8,45.1h-37.2v-12.3c0-1.1-.9-1.9-1.9-1.9h-10.4v-8.9c0-2.9,2.5-4.9,5.2-4.8h10.1c.6,0,1.2-.3,1.6-.8l7.1-10c.4-.6.5-1.4.1-2-.3-.6-1-1.1-1.7-1.1h-18c-10.2,0-18.8,8.5-18.8,18.7v8.9h-10.4c-1.1,0-1.9.9-1.9,1.9v12.3H2.2c-1.1,0-1.9.9-1.9,1.9v10.9c0,1.1.9,1.9,1.9,1.9s1.9-.9,1.9-1.9v-9h17.4v34.8H4.1v-8.8c0-1.1-.9-1.9-1.9-1.9s-1.9.9-1.9,1.9v10.7c0,1.1.9,1.9,1.9,1.9h3.6v7.2c0,1.1.9,1.9,1.9,1.9h84.6c1.1,0,1.9-.9,1.9-1.9v-7.2h3.6c1.1,0,1.9-.9,1.9-1.9v-38.7c0-1.1-.9-1.9-1.9-1.9ZM51.5,7.1v6.2c-3.4.6-6.2,3.3-7,6.6h-6.6c.9-6.9,6.6-12.3,13.6-12.9ZM62.5,13.2h-7.1v-6.1h11.4l-4.3,6.1ZM37.7,23.9h6.6v7h-6.6v-7ZM25.4,34.7h31.3v25.9h-31.3v-25.9ZM25.4,64.5h31.3v19.3h-31.3v-19.3ZM90.4,92.9H9.7v-5.3h80.7v5.3ZM95.9,83.8h-35.3v-34.8h35.3v34.8Z"/>
  <path class="cls-1" d="M82.3,57.7h6.1c1.1,0,1.9-.9,1.9-1.9s-.9-1.9-1.9-1.9h-6.1c-1.1,0-1.9.9-1.9,1.9s.9,1.9,1.9,1.9Z"/>
  <path class="cls-1" d="M41.1,54.8c3.9,0,7.2-3.2,7.2-7.2s-3.2-7.2-7.2-7.2-7.2,3.2-7.2,7.2c0,3.9,3.2,7.2,7.2,7.2ZM41.1,44.4c1.8,0,3.3,1.5,3.3,3.3s-1.5,3.3-3.3,3.3-3.3-1.5-3.3-3.3,1.5-3.3,3.3-3.3Z"/>
  <path class="cls-1" d="M.6,67.5c.6.9,1.8,1.1,2.7.5.9-.6,1.1-1.8.5-2.7-.6-.9-1.8-1.1-2.7-.5-.9.6-1.1,1.8-.5,2.7h0Z"/>
</svg>