<svg width="200" height="200" viewBox="0 0 200 200" fill="none" xmlns="http://www.w3.org/2000/svg">
<path d="M83.3334 183.333C51.9064 183.333 36.193 183.333 26.4298 173.57C16.6667 163.807 16.6667 156.427 16.6667 125" stroke="currentColor" stroke-width="7" stroke-linecap="round"/>
<path d="M183.333 125C183.333 156.427 183.333 163.807 173.57 173.57C163.808 183.333 148.093 183.333 116.667 183.333" stroke="currentColor" stroke-width="7" stroke-linecap="round"/>
<path d="M116.667 16.6667C148.093 16.6667 163.808 16.6667 173.57 26.4298C183.333 36.1929 183.333 43.573 183.333 75" stroke="currentColor" stroke-width="7" stroke-linecap="round"/>
<path d="M83.3334 16.6667C51.9064 16.6667 36.193 16.6667 26.4298 26.4298C16.6667 36.1929 16.6667 43.573 16.6667 75" stroke="currentColor" stroke-width="7" stroke-linecap="round"/>
<path d="M49.1037 117.165C44.1457 111.414 41.6667 108.538 41.6667 100C41.6667 91.4617 44.1457 88.5859 49.1036 82.8351C59.0032 71.3519 75.6057 58.3334 100 58.3334C124.394 58.3334 140.997 71.3519 150.897 82.8351C155.854 88.5859 158.333 91.4617 158.333 100C158.333 108.538 155.854 111.414 150.897 117.165C140.997 128.648 124.394 141.667 100 141.667C75.6057 141.667 59.0032 128.648 49.1037 117.165Z" stroke="currentColor" stroke-width="7"/>
<path d="M100 116.667C109.205 116.667 116.667 109.205 116.667 100C116.667 90.7953 109.205 83.3334 100 83.3334C90.7954 83.3334 83.3335 90.7953 83.3335 100C83.3335 109.205 90.7954 116.667 100 116.667Z" stroke="currentColor" stroke-width="7"/>
</svg>
