<svg width="200" height="200" viewBox="0 0 200 200" fill="none" xmlns="http://www.w3.org/2000/svg">
<g clip-path="url(#clip0_2528_6511)">
<path d="M172.975 196C171.731 196 170.725 194.994 170.725 193.75C170.725 189.925 169.119 188.137 167.081 185.875C164.831 183.375 162.275 180.537 162.275 174.981C162.275 169.425 164.825 166.594 167.081 164.094C169.119 161.837 170.725 160.05 170.725 156.219C170.725 152.4 169.119 150.619 167.081 148.356C164.831 145.862 162.275 143.025 162.275 137.481C162.275 131.937 164.831 129.1 167.081 126.606C169.119 124.35 170.725 122.569 170.725 118.75C170.725 117.506 171.731 116.5 172.975 116.5C174.219 116.5 175.225 117.506 175.225 118.75C175.225 124.3 172.675 127.125 170.419 129.619C168.381 131.875 166.775 133.656 166.775 137.481C166.775 141.306 168.381 143.081 170.419 145.344C172.669 147.837 175.225 150.675 175.225 156.219C175.225 161.775 172.675 164.606 170.419 167.106C168.381 169.362 166.775 171.15 166.775 174.981C166.775 178.812 168.381 180.6 170.419 182.862C172.669 185.362 175.225 188.2 175.225 193.75C175.225 194.994 174.219 196 172.975 196ZM129.225 196C127.981 196 126.975 194.994 126.975 193.75C126.975 189.925 125.369 188.137 123.331 185.875C121.081 183.375 118.525 180.537 118.525 174.981C118.525 169.425 121.075 166.594 123.331 164.094C125.369 161.837 126.975 160.05 126.975 156.219C126.975 152.4 125.369 150.619 123.331 148.356C121.081 145.862 118.525 143.025 118.525 137.481C118.525 131.937 121.081 129.1 123.331 126.606C125.369 124.35 126.975 122.569 126.975 118.75C126.975 117.506 127.981 116.5 129.225 116.5C130.469 116.5 131.475 117.506 131.475 118.75C131.475 124.3 128.925 127.125 126.669 129.619C124.631 131.875 123.025 133.656 123.025 137.481C123.025 141.306 124.631 143.081 126.669 145.344C128.919 147.837 131.475 150.675 131.475 156.219C131.475 161.775 128.925 164.606 126.669 167.106C124.631 169.362 123.025 171.15 123.025 174.981C123.025 178.812 124.631 180.6 126.669 182.862C128.919 185.362 131.475 188.2 131.475 193.75C131.475 194.994 130.469 196 129.225 196ZM85.475 196C84.2312 196 83.225 194.994 83.225 193.75C83.225 189.925 81.6187 188.137 79.5812 185.875C77.3312 183.375 74.7812 180.537 74.7812 174.981C74.7812 169.425 77.3312 166.594 79.5812 164.094C81.6187 161.837 83.225 160.05 83.225 156.219C83.225 152.4 81.6187 150.619 79.5812 148.356C77.3312 145.862 74.7812 143.025 74.7812 137.481C74.7812 131.937 77.3312 129.1 79.5875 126.606C81.625 124.35 83.2312 122.569 83.2312 118.75C83.2312 117.506 84.2375 116.5 85.4812 116.5C86.725 116.5 87.7312 117.506 87.7312 118.75C87.7312 124.3 85.1812 127.125 82.9312 129.619C80.8937 131.875 79.2875 133.656 79.2875 137.481C79.2875 141.306 80.8937 143.081 82.9312 145.344C85.1812 147.837 87.7312 150.675 87.7312 156.219C87.7312 161.775 85.1812 164.606 82.9312 167.106C80.8937 169.362 79.2875 171.15 79.2875 174.981C79.2875 178.812 80.9 180.6 82.9312 182.862C85.1812 185.362 87.7312 188.2 87.7312 193.75C87.725 194.994 86.7187 196 85.475 196ZM41.725 196C40.4812 196 39.475 194.994 39.475 193.75C39.475 189.925 37.8687 188.137 35.8312 185.875C33.5812 183.375 31.0312 180.537 31.0312 174.981C31.0312 169.425 33.5812 166.594 35.8312 164.094C37.8687 161.837 39.475 160.05 39.475 156.219C39.475 152.4 37.8687 150.619 35.8312 148.356C33.5812 145.862 31.0312 143.025 31.0312 137.481C31.0312 131.937 33.5812 129.1 35.8375 126.606C37.8687 124.35 39.475 122.562 39.475 118.75C39.475 117.506 40.4812 116.5 41.725 116.5C42.9687 116.5 43.975 117.506 43.975 118.75C43.975 124.3 41.425 127.125 39.175 129.619C37.1375 131.875 35.5312 133.656 35.5312 137.481C35.5312 141.306 37.1375 143.081 39.175 145.344C41.425 147.837 43.975 150.675 43.975 156.219C43.975 161.775 41.425 164.606 39.175 167.106C37.1375 169.362 35.5312 171.15 35.5312 174.981C35.5312 178.812 37.1437 180.6 39.175 182.862C41.425 185.362 43.975 188.2 43.975 193.75C43.975 194.994 42.9687 196 41.725 196ZM181.25 108.5H18.75C10.6188 108.5 4 101.881 4 93.75V6.25C4 5.00625 5.00625 4 6.25 4H193.75C194.994 4 196 5.00625 196 6.25V93.75C196 101.881 189.387 108.5 181.25 108.5ZM8.5 8.5V93.75C8.5 99.4 13.1 104 18.75 104H181.25C186.9 104 191.5 99.4 191.5 93.75V8.5H8.5ZM175 89.75H25C23.7562 89.75 22.75 88.7437 22.75 87.5C22.75 86.2562 23.7562 85.25 25 85.25H175C176.244 85.25 177.25 86.2562 177.25 87.5C177.25 88.7437 176.244 89.75 175 89.75ZM175 71H25C23.7562 71 22.75 69.9937 22.75 68.75C22.75 67.5062 23.7562 66.5 25 66.5H175C176.244 66.5 177.25 67.5062 177.25 68.75C177.25 69.9937 176.244 71 175 71ZM175 52.25H25C23.7562 52.25 22.75 51.2437 22.75 50C22.75 48.7562 23.7562 47.75 25 47.75H175C176.244 47.75 177.25 48.7562 177.25 50C177.25 51.2437 176.244 52.25 175 52.25ZM175 33.5H150C148.756 33.5 147.75 32.4937 147.75 31.25C147.75 30.0062 148.756 29 150 29H175C176.244 29 177.25 30.0062 177.25 31.25C177.25 32.4937 176.244 33.5 175 33.5Z" fill="currentColor"/>
</g>
<defs>
<clipPath id="clip0_2528_6511">
<rect width="200" height="200" fill="white"/>
</clipPath>
</defs>
</svg>
