<svg width="51" height="40" viewBox="0 0 51 40" fill="none" xmlns="http://www.w3.org/2000/svg">
<g clip-path="url(#clip0_624_826)">
<path d="M19.9577 39.4081H18.6469C18.3509 39.4081 18.055 39.4081 17.759 39.4081C17.0965 39.4081 16.716 39.1121 16.5469 38.4637C16.5469 38.4074 16.5187 38.3651 16.4905 38.3369V30.2326C16.4905 30.2326 16.4905 30.2185 16.4905 30.2044C16.5046 30.148 16.5328 30.0775 16.5469 29.993C16.6596 29.0064 17.0824 28.1184 17.8154 27.3291C17.9563 27.1882 18.1113 27.0613 18.2946 26.9204C18.365 26.864 18.4355 26.8076 18.506 26.7513C18.6892 26.5962 18.8724 26.4553 19.0698 26.3002C19.2389 26.1593 19.408 26.0183 19.5913 25.8915C19.6476 25.8492 19.6899 25.8069 19.7463 25.7505C19.7745 25.7224 19.8027 25.6942 19.845 25.6519C19.9154 25.5955 19.9436 25.4968 19.9295 25.4123C19.9154 25.3277 19.845 25.2572 19.7604 25.2291C19.7181 25.215 19.6758 25.2009 19.6335 25.1868C19.549 25.1586 19.4926 25.1304 19.408 25.1163C19.1402 25.0599 18.8724 25.0035 18.5905 24.9472L18.2241 24.8767C17.9422 24.8203 17.9281 24.778 17.914 24.5384C17.914 24.1297 17.914 23.7632 17.914 23.4109C17.914 23.1572 17.9845 23.0867 18.2382 23.0867C18.5905 23.0867 18.9288 23.0867 19.2812 23.0867C19.6335 23.0867 19.9718 23.0867 20.3242 23.0867C20.5779 23.0867 20.6483 23.1572 20.6483 23.4109C20.6483 23.5095 20.6483 23.6082 20.6483 23.7069C20.6483 23.8055 20.6483 23.9042 20.6483 23.9887C20.6483 24.1015 20.7188 24.172 20.747 24.2002C20.747 24.2002 20.747 24.2002 20.7752 24.2283C20.8316 24.2847 20.8879 24.3129 20.9584 24.3129C20.9584 24.3129 20.9584 24.3129 20.9725 24.3129C21.043 24.3129 21.1135 24.2706 21.1698 24.2002C21.2121 24.1438 21.2544 24.1015 21.2826 24.0451C21.3812 23.9183 21.4799 23.7914 21.5504 23.6505C21.9168 22.9317 22.241 22.2692 22.5511 21.6209C22.7907 21.1135 23.0021 20.6625 23.3827 20.296C24.0733 19.6477 24.8485 19.3235 25.7082 19.3235H27.16C28.6963 19.3235 30.2326 19.3235 31.7688 19.3235C33.6434 19.3235 35.1938 19.3235 36.6878 19.3376C38.055 19.3376 39.0557 19.9859 39.6758 21.2262C39.8168 21.494 39.9436 21.79 40.0564 22.0578C40.1832 22.3397 40.3101 22.6216 40.451 22.9035C40.592 23.1854 40.7611 23.4532 40.9161 23.7069C40.9584 23.7773 41.0007 23.8478 41.0571 23.9324C41.0994 24.0169 41.1557 24.0733 41.2121 24.1438C41.2403 24.172 41.2685 24.2002 41.2967 24.2424C41.3531 24.2988 41.4235 24.3411 41.494 24.3411C41.494 24.3411 41.5222 24.3411 41.5363 24.3411C41.6209 24.3411 41.7054 24.2706 41.7336 24.1861C41.8182 23.9887 41.8041 23.8337 41.8041 23.6928C41.8041 23.6646 41.8041 23.6364 41.8041 23.6082C41.8041 23.1149 41.8182 23.1008 42.2974 23.1008H44.1719C44.1719 23.1008 44.2565 23.1008 44.2847 23.1008C44.4961 23.129 44.5102 23.2136 44.5243 23.2981C44.5384 23.7491 44.5384 24.2143 44.5243 24.6794C44.5243 24.7639 44.5243 24.8344 44.2988 24.8767C44.0733 24.919 43.8478 24.9754 43.6223 25.0176C43.4531 25.0599 43.2699 25.0881 43.1008 25.1163C43.0303 25.1304 42.9598 25.1586 42.8753 25.1727C42.833 25.1727 42.7907 25.2009 42.7343 25.215C42.6497 25.2431 42.5793 25.3136 42.5511 25.3982C42.537 25.4968 42.5511 25.5814 42.6357 25.6519C42.692 25.6942 42.7343 25.7365 42.7625 25.7646C42.8471 25.8351 42.9175 25.9056 42.988 25.962C43.4108 26.3002 43.8478 26.6385 44.2706 26.9909C45.074 27.6251 45.5955 28.4708 45.8492 29.556C45.8915 29.697 45.9056 29.852 45.9478 30.0071C45.9478 30.0775 45.976 30.1339 45.976 30.2044V38.351C45.976 38.351 45.976 38.3792 45.976 38.3933C45.9619 38.4355 45.9478 38.4919 45.9337 38.5201C45.9056 38.5765 45.8774 38.6188 45.8492 38.6751C45.7787 38.8161 45.7082 38.9429 45.6237 39.0557C45.4404 39.2812 45.1445 39.394 44.7357 39.4081C44.6371 39.4081 44.5525 39.4081 44.4538 39.4081H44.031H42.3256C41.945 39.4081 41.5645 39.4081 41.1839 39.4081C40.3946 39.4081 39.9436 38.9429 39.9295 38.1536C39.9295 38.0691 39.9295 37.9845 39.9295 37.8999C39.9295 37.7872 39.9295 37.6744 39.9295 37.5617C39.9295 37.4771 39.9154 37.4207 39.9013 37.3644C39.9013 37.3503 39.9013 37.3362 39.9013 37.3221C39.8872 37.2093 39.8027 37.1389 39.6899 37.1107C39.4644 37.0684 35.518 37.0684 33.1924 37.0684C32.1494 37.0684 22.9598 37.0684 22.7061 37.1389C22.5934 37.167 22.5229 37.2657 22.5229 37.3785V38.1255C22.5088 38.4214 22.4665 38.647 22.3538 38.8161C22.1423 39.2107 21.79 39.394 21.2826 39.4081C21.0994 39.4081 20.9302 39.4081 20.747 39.4081C20.6061 39.4081 20.0705 39.4081 19.9436 39.4081M42.4806 37.0543C42.1564 37.0543 41.8323 37.0543 41.494 37.0543H40.9866C40.902 37.0543 40.8316 37.0543 40.7329 37.0684C40.6906 37.0684 40.6342 37.0684 40.5779 37.0684C40.4369 37.0684 40.3383 37.1811 40.3383 37.3221C40.3383 37.4207 40.3383 37.5335 40.3383 37.6322C40.3383 37.8436 40.3383 38.055 40.3383 38.2523C40.3383 38.7174 40.6342 38.9993 41.1135 39.0134C41.7336 39.0134 42.3397 39.0134 42.9598 39.0134C43.58 39.0134 44.186 39.0134 44.8062 39.0134C45.2854 39.0134 45.5673 38.7315 45.5814 38.2241C45.5814 37.8436 45.5814 37.4771 45.5814 37.1107C45.5814 37.0402 45.5814 36.9838 45.5532 36.9133C45.5532 36.8852 45.5532 36.8711 45.5532 36.8429C45.5532 36.7724 45.4968 36.7019 45.4404 36.6596C45.3982 36.6315 45.3559 36.6174 45.2995 36.6174C45.2713 36.6174 45.2572 36.6174 45.229 36.6174C45.2149 36.6174 45.2008 36.6174 45.1867 36.6174C45.1445 36.6174 45.0881 36.6455 45.0317 36.6737C44.6512 36.9133 44.2001 37.0261 43.5659 37.0261H43.5095C43.1572 37.0261 42.8189 37.0261 42.4665 37.0261M20.9584 39.0275C21.0712 39.0275 21.1839 39.0275 21.2967 39.0275C21.8746 39.0275 22.1423 38.7597 22.1423 38.1677C22.1423 37.9704 22.1423 37.7731 22.1423 37.5758C22.1423 37.5053 22.1283 37.4348 22.1142 37.3785C22.1142 37.3503 22.1142 37.3221 22.1001 37.2939C22.086 37.167 21.9732 37.0825 21.8464 37.0825H19.9295C19.5349 37.0825 19.1543 37.0825 18.7597 37.0825C18.2805 37.0825 17.8858 36.9838 17.5476 36.7724C17.4912 36.7301 17.4348 36.716 17.3784 36.6878C17.3643 36.6878 17.3361 36.6737 17.3221 36.6596C17.2939 36.6455 17.2516 36.6315 17.2234 36.6315C17.1952 36.6315 17.1529 36.6315 17.1247 36.6455C17.0684 36.6737 17.012 36.7301 16.9838 36.7865C16.9838 36.7865 16.9838 36.8006 16.9838 36.8147C16.9697 36.857 16.9415 36.9133 16.9415 36.9838V37.308C16.9415 37.6462 16.9415 37.9845 16.9415 38.3369C16.9415 38.7033 17.2234 38.9711 17.618 39.0134C17.6744 39.0134 17.7308 39.0134 17.7872 39.0134H21.0007L20.9584 39.0275ZM37.0543 34.7992C37.9563 34.7992 38.6751 35.0952 39.2248 35.6871C39.3517 35.814 39.4644 35.9408 39.5913 36.0677C39.704 36.1804 39.8168 36.2932 39.9295 36.4059C40.0987 36.5892 40.3242 36.6878 40.5779 36.6878C41.0007 36.6878 41.4235 36.6878 41.8464 36.6878H42.833C43.1853 36.6878 43.5377 36.6878 43.8901 36.6878C44.8626 36.6878 45.5673 35.9831 45.5814 35.0106C45.5814 34.4045 45.5814 33.7985 45.5814 33.1924V32.9528C45.5814 32.8682 45.5814 32.7978 45.5673 32.7273C45.5673 32.6991 45.5673 32.6568 45.5673 32.6145C45.5673 32.4877 45.4404 32.389 45.3136 32.389L44.8626 32.4031C44.7357 32.4031 44.6371 32.5018 44.623 32.6286C44.623 32.7273 44.6089 32.8119 44.5948 32.8964C44.5807 33.0656 44.5666 33.2206 44.5384 33.3756C44.4397 34.0663 43.9182 34.5878 43.2558 34.6582C42.8753 34.7005 42.4665 34.7005 42.086 34.7005C41.9309 34.7005 41.7759 34.7005 41.6209 34.7005C41.6068 34.7005 41.5363 34.6723 41.5222 34.6723C41.4658 34.6582 41.4235 34.6159 41.4094 34.5032C41.4094 34.4609 41.4517 34.3904 41.5222 34.3622C41.5927 34.3341 41.6913 34.32 41.79 34.32C42.0014 34.32 42.2269 34.32 42.4383 34.32H43.0162C43.284 34.32 43.5236 34.2354 43.7491 34.0804C44.186 33.7562 44.3411 33.1501 44.1297 32.5441C44.1015 32.4454 43.9887 32.3749 43.8901 32.3749C43.8196 32.3749 43.4954 32.3749 43.4108 32.3749C43.3122 32.3749 43.2276 32.3749 43.129 32.3749C43.1008 32.3749 43.0726 32.3749 43.0585 32.3749C42.5934 32.3749 42.1564 32.53 41.6913 32.84C41.6631 32.8682 41.6209 32.8823 41.5927 32.9105C41.5786 32.9246 41.5504 32.9528 41.5222 32.9669C41.4658 33.0092 41.4235 33.0233 41.3812 33.0233C41.3531 33.0233 41.3249 33.0233 41.2685 32.9669C41.198 32.8964 41.198 32.7978 41.2826 32.7132C41.3953 32.6004 41.5222 32.5018 41.6772 32.4031C42.1283 32.1212 42.6357 31.9803 43.2135 31.9803C43.4108 31.9803 43.6223 31.9803 43.8196 31.9803H44.4538C44.6371 31.9803 44.8203 31.9803 45.0035 31.9803C45.1022 31.9803 45.1867 31.9803 45.2572 31.9521C45.2854 31.9521 45.3136 31.9521 45.3418 31.9521C45.4545 31.9521 45.5532 31.8534 45.5673 31.7407C45.6519 31.2051 45.6378 29.993 45.4686 29.697C45.4263 29.6124 45.3277 29.556 45.2431 29.556C45.2149 29.556 45.1867 29.556 45.1726 29.556C45.1304 29.556 45.074 29.5701 45.0035 29.6265C44.6934 29.8943 44.2847 30.0071 43.7209 30.0071H41.8323C41.3672 30.0071 40.902 30.0071 40.4369 30.0071C40.1832 30.0071 40.0423 29.9507 39.9013 29.7956C39.8027 29.6829 39.6899 29.5701 39.5772 29.4574C39.5208 29.4151 39.4785 29.3587 39.4221 29.3164C39.3657 29.2742 39.3094 29.246 39.2389 29.246C39.1684 29.246 39.112 29.2742 39.0698 29.3164L38.9711 29.4151C38.9711 29.4151 38.8443 29.5279 38.7879 29.5842C38.7315 29.6406 38.6751 29.697 38.6328 29.7393C38.4543 29.9178 38.2335 30.0071 37.9704 30.0071H35.4475C34.6864 30.0071 33.9112 30.0071 33.1501 30.0071C32.8541 30.0071 32.6286 30.1057 32.4454 30.3031C32.1776 30.5849 31.8957 30.8668 31.6279 31.1346L31.5011 31.2615C31.3601 31.4024 31.3037 31.4165 31.2755 31.4165C31.2474 31.4165 31.191 31.4024 31.0641 31.2756L30.8809 31.1064C30.6272 30.8668 30.3735 30.6131 30.1339 30.3594C29.9225 30.1339 29.6829 30.0353 29.3587 30.0353C28.6399 30.0353 27.9211 30.0353 27.2022 30.0353H24.623C24.3223 30.0353 24.0874 29.9507 23.9182 29.7816L23.7914 29.6547C23.7209 29.5842 23.6505 29.5138 23.5659 29.4433L23.4531 29.3446C23.4531 29.3446 23.3404 29.2742 23.284 29.2742C23.2276 29.2742 23.1571 29.3023 23.1008 29.3446L22.9316 29.5138C22.8048 29.6406 22.6779 29.7534 22.5652 29.8802C22.4665 29.9789 22.3679 30.0212 22.2269 30.0212H20.1832C19.6899 30.0212 19.1825 30.0212 18.6892 30.0212C18.1959 30.0212 17.8435 29.9084 17.5758 29.6688C17.5194 29.6124 17.4489 29.5983 17.4066 29.5842H17.3925C17.3925 29.5842 17.3221 29.556 17.2939 29.556C17.1952 29.556 17.0965 29.6124 17.0543 29.7111C16.9133 30.0353 16.8992 31.4588 17.0261 31.8252C17.0684 31.9239 17.167 31.9944 17.2657 31.9944H17.4912C17.4912 31.9944 17.5758 31.9944 17.618 31.9944C17.8435 31.9944 18.0691 31.9944 18.2946 31.9944C18.8161 31.9944 19.3657 31.9944 19.8872 32.0508C20.3946 32.093 20.8598 32.3186 21.2544 32.7132C21.3108 32.7696 21.3672 32.8682 21.2826 32.9669C21.2403 33.0233 21.198 33.0233 21.1698 33.0233C21.1275 33.0233 21.0712 32.9951 21.0148 32.9669L20.9161 32.8964C20.8034 32.8119 20.6906 32.7414 20.5638 32.6709C20.1409 32.4172 19.6899 32.389 19.3094 32.389C19.1684 32.389 19.0275 32.389 18.9006 32.389C18.802 32.389 18.7174 32.389 18.6187 32.389C18.4778 32.389 18.3791 32.5018 18.365 32.6286V32.7696C18.365 32.8682 18.3509 32.9387 18.3368 33.0233C18.3087 33.3615 18.4214 33.6857 18.6469 33.9394C18.8724 34.1931 19.2107 34.3341 19.549 34.3341C19.5631 34.3341 19.5913 34.3341 19.6053 34.3341C19.7604 34.3341 19.9154 34.3341 20.0987 34.3341C20.296 34.3341 20.4933 34.3341 20.6906 34.3341H20.8034C20.8034 34.3341 21.0994 34.3482 21.0994 34.5314C21.0994 34.7005 20.8598 34.7146 20.8034 34.7287C20.5779 34.7287 20.3524 34.7287 20.1268 34.7287C19.9436 34.7287 19.7463 34.7287 19.5631 34.7287C19.0698 34.7146 18.6892 34.5455 18.3932 34.2495C18.0972 33.9535 17.9422 33.5589 17.9281 33.0374C17.9281 32.9528 17.9281 32.8541 17.914 32.7696V32.6568C17.8858 32.53 17.7872 32.4172 17.6462 32.4172H17.1952C17.0543 32.4172 16.9556 32.5159 16.9415 32.6568C16.9415 32.6991 16.9415 32.7273 16.9415 32.7555C16.9415 32.84 16.9415 32.9105 16.9415 32.981C16.9415 33.2065 16.9415 33.432 16.9415 33.6575C16.9415 34.1085 16.9415 34.5737 16.9415 35.0106C16.9415 35.4193 17.1106 35.8563 17.4207 36.1804C17.7308 36.5046 18.1536 36.6737 18.5905 36.6737C18.8865 36.6737 19.9154 36.6737 19.9154 36.6737H20.3383C20.8034 36.6737 21.2685 36.6737 21.7336 36.6737C21.9873 36.6737 22.1846 36.5892 22.3679 36.4059L22.4101 36.3496C22.6779 36.0818 22.9457 35.7999 23.2276 35.5462C23.3968 35.3911 23.5941 35.2502 23.8196 35.1233C24.2142 34.8978 24.6793 34.7851 25.2431 34.7851H34.0803C35.0951 34.7851 36.1099 34.7851 37.1106 34.7851M29.8379 35.1797C28.217 35.1797 26.5962 35.1797 24.9753 35.1797C24.2283 35.1797 23.5941 35.518 23.0303 36.1945C22.9739 36.265 22.9598 36.3496 22.988 36.4341C23.0162 36.5187 23.0726 36.5751 23.1571 36.6033C23.1853 36.6033 23.1994 36.6174 23.2135 36.6174C23.2558 36.6315 23.2981 36.6455 23.3686 36.6455C28.4989 36.6455 33.6152 36.6455 38.7456 36.6455C38.802 36.6455 38.8724 36.6455 38.9288 36.6455H38.9711C38.9711 36.6455 39.112 36.6033 39.1543 36.5469C39.1825 36.5187 39.1966 36.4764 39.2107 36.4764C39.253 36.3918 39.253 36.2932 39.2107 36.2227C38.8302 35.6167 38.0691 35.1938 37.3502 35.1797C36.8992 35.1797 36.4482 35.1797 35.9972 35.1797H34.334H29.852H29.8379ZM29.5701 29.6406C29.8238 29.6406 29.9929 29.7111 30.1339 29.8802C30.303 30.0634 30.4722 30.2326 30.6413 30.4017C30.6977 30.4581 30.7681 30.5145 30.8245 30.5708C30.8668 30.6131 30.9232 30.6554 30.9796 30.7118L31.0782 30.7964C31.0782 30.7964 31.191 30.8668 31.2474 30.8668C31.3037 30.8668 31.3742 30.8386 31.4306 30.7964C31.5292 30.6977 31.6138 30.6131 31.6984 30.5286C31.8957 30.3312 32.093 30.148 32.2762 29.9366C32.4736 29.7111 32.685 29.6265 33.0092 29.6265H33.0233C33.7843 29.6265 34.5454 29.6265 35.1938 29.6265H36.6878C37.0543 29.6265 37.4348 29.6265 37.8013 29.6265C38.0972 29.6265 38.3087 29.5279 38.506 29.3305C38.8302 28.9923 39.1261 28.6963 39.4221 28.4144C39.5349 28.3157 39.6617 28.2312 39.7745 28.1748C40.4087 27.907 41.0571 27.6533 41.6913 27.3996C42.0014 27.2727 42.3115 27.1459 42.6216 27.019C42.692 26.9909 42.7625 26.9627 42.833 26.9204C42.8753 26.9063 42.9034 26.8781 42.9457 26.864C43.0303 26.8217 43.0726 26.7513 43.0867 26.6667C43.0867 26.5821 43.0585 26.4976 42.988 26.4412C42.9316 26.3989 42.8894 26.3566 42.833 26.3143C42.7343 26.2298 42.6638 26.1734 42.5652 26.1029C42.1001 25.7646 41.6631 25.3277 41.2826 24.8062C41.0571 24.5102 40.7893 24.3834 40.3946 24.3834C36.6596 24.3834 32.9246 24.3834 29.1896 24.3834H23.4531C23.2981 24.3834 22.692 24.3834 22.5511 24.3834C22.3256 24.3834 22.1001 24.3834 21.8746 24.3834H21.8605C21.5927 24.3834 21.3953 24.4821 21.2262 24.7076C20.7611 25.3136 20.2537 25.821 19.6899 26.2439C19.6335 26.2861 19.5772 26.3425 19.5208 26.3989C19.4926 26.4271 19.4644 26.4553 19.4362 26.4835C19.3798 26.5398 19.3516 26.6244 19.3657 26.709C19.3657 26.7935 19.4362 26.864 19.5067 26.9063L19.6194 26.9627C19.6899 26.9909 19.7604 27.019 19.8168 27.0472L20.6061 27.3573C21.2685 27.6251 21.9591 27.907 22.6357 28.1748C22.7625 28.2312 22.8894 28.3157 23.0162 28.4285C23.2699 28.6681 23.5377 28.9218 23.7773 29.1896C24.0451 29.4997 24.3552 29.6265 24.7921 29.6265H24.8203C25.4827 29.6265 26.1452 29.6265 26.8076 29.6265H28.0761C28.5553 29.6265 29.0345 29.6265 29.5137 29.6265L29.5701 29.6406ZM43.8337 29.6406C43.9182 29.6406 44.0028 29.6406 44.0874 29.6406C44.5384 29.6124 44.8626 29.3587 45.0317 28.9218C45.1163 28.7104 45.1022 28.5131 44.9894 28.3298C44.7216 27.8929 44.3975 27.5264 44.0169 27.2305C43.8901 27.1318 43.7632 27.0895 43.6364 27.0895C43.5518 27.0895 43.4672 27.1036 43.3686 27.1459C42.6779 27.4278 42.0014 27.6956 41.3108 27.9775L40.0282 28.4849C40.0282 28.4849 39.9013 28.5412 39.845 28.5694C39.8168 28.5835 39.7886 28.5976 39.7604 28.6117C39.704 28.6399 39.6476 28.6963 39.6335 28.7668C39.6194 28.8372 39.6335 28.9077 39.6617 28.9641C39.9577 29.4715 40.1973 29.6265 40.7188 29.6265H43.8478L43.8337 29.6406ZM18.8583 27.0895C18.7456 27.0895 18.6328 27.1318 18.5342 27.2023C18.1113 27.5124 17.7872 27.8788 17.5335 28.3157C17.3925 28.5412 17.3925 28.7809 17.5053 29.0346C17.7026 29.4433 18.055 29.6547 18.506 29.6547C19.0979 29.6547 19.6758 29.6547 20.2678 29.6547C20.8598 29.6547 21.3953 29.6547 21.9591 29.6547C22.0719 29.6547 22.241 29.6547 22.3679 29.5419C22.4806 29.4433 22.5793 29.3446 22.692 29.2319C22.7343 29.1896 22.7907 29.1332 22.8471 29.0768C22.9034 29.0205 22.9316 28.9359 22.9175 28.8513C22.9175 28.7668 22.8471 28.6963 22.7766 28.654C22.7202 28.6258 22.6638 28.5976 22.6216 28.5835C22.537 28.5412 22.4524 28.499 22.382 28.4708C21.8323 28.2453 21.2826 28.0338 20.747 27.8083L19.0979 27.1459C19.0979 27.1459 18.9429 27.0895 18.8442 27.0895M43.1994 23.4532C42.9457 23.4532 42.7202 23.4532 42.4806 23.4813C42.3538 23.4813 42.241 23.6082 42.241 23.735V24.5807C42.241 24.6512 42.2692 24.7217 42.3256 24.778C42.3679 24.8203 42.4383 24.8485 42.4947 24.8485C42.4947 24.8485 42.5229 24.8485 42.537 24.8485H42.6497C42.7343 24.8203 42.8048 24.8062 42.8612 24.8062C43.0021 24.778 43.1431 24.7498 43.2699 24.7217C43.3686 24.6935 43.4672 24.6794 43.5659 24.6653C44.0874 24.5666 44.186 24.4257 44.1579 23.8901C44.1579 23.8337 44.1438 23.7914 44.1297 23.7491C44.1297 23.735 44.1297 23.7209 44.1297 23.6928C44.1015 23.58 44.0169 23.5095 43.9042 23.4954C43.6505 23.4813 43.4108 23.4672 43.1994 23.4672M18.5765 23.4813C18.4355 23.4813 18.3228 23.5941 18.3228 23.7209V23.8337C18.3228 23.9042 18.3087 23.9746 18.3087 24.031C18.3087 24.4116 18.4073 24.5243 18.7879 24.6089C19.1261 24.6794 19.4644 24.7498 19.7463 24.8062C19.7886 24.8062 19.8168 24.8062 19.859 24.8062C19.8872 24.8062 19.9013 24.8062 19.9295 24.8062C19.9577 24.8062 19.9718 24.8062 20 24.8062C20.1409 24.8062 20.2537 24.6935 20.2537 24.5525C20.2537 24.4961 20.2537 24.4257 20.2537 24.3693C20.2537 24.1438 20.2678 23.9042 20.2114 23.6646C20.1832 23.5518 20.0846 23.4672 19.9577 23.4672H18.5624L18.5765 23.4813ZM31.8534 19.704C30.5849 19.704 29.3164 19.704 28.0479 19.704H25.6096C25.3982 19.704 25.229 19.7322 25.074 19.7745C24.1297 20.0282 23.4531 20.5638 23.0726 21.3813C23.0726 21.3813 22.2692 23.0867 22.086 23.4813C22.0578 23.5236 22.0578 23.58 22.0437 23.6082C22.0437 23.6082 22.0437 23.6364 22.0437 23.6505C22.0155 23.7773 22.086 23.9183 22.2128 23.9606C22.2269 23.9606 22.241 23.9606 22.2551 23.9606C22.2833 23.9606 22.3397 23.9887 22.396 23.9887C28.2452 23.9887 34.0803 23.9887 39.9154 23.9887C39.9718 23.9887 40.0282 23.9887 40.0846 23.9746H40.1268C40.2255 23.9606 40.2819 23.9042 40.296 23.8901C40.296 23.876 40.3242 23.8619 40.3383 23.8337V23.8055C40.4087 23.735 40.4228 23.6223 40.3805 23.5377L40.296 23.3686C40.2396 23.2417 40.1691 23.1149 40.1127 22.9739C40.0282 22.7907 39.9436 22.5934 39.8591 22.4102C39.6899 22.0155 39.5067 21.6068 39.2953 21.2121C38.7597 20.2255 37.914 19.6899 36.8428 19.6899C35.3629 19.6899 33.7703 19.6899 31.8252 19.6899" fill="currentColor"/>
<path d="M20.7752 39.5631H19.9718H18.661C18.3651 39.5631 18.0691 39.5631 17.7731 39.5631C17.0402 39.5631 16.6033 39.2248 16.4059 38.506C16.4059 38.4637 16.3777 38.4355 16.3636 38.4215V38.3792V30.1762C16.3918 30.1057 16.4059 30.0494 16.42 29.9789C16.5328 28.9641 16.9697 28.0339 17.7167 27.2305C17.8577 27.0754 18.0268 26.9486 18.1959 26.8217L18.2523 26.7795C18.2523 26.7795 18.3651 26.6949 18.4214 26.6526L18.9852 26.2016C19.1543 26.0606 19.3235 25.9197 19.5067 25.7928C19.549 25.7506 19.6054 25.7083 19.6617 25.6519C19.6899 25.6237 19.7322 25.5814 19.7604 25.5532C19.7886 25.525 19.8027 25.4969 19.7886 25.4546C19.7886 25.4123 19.7463 25.3841 19.7181 25.37L19.5913 25.3277C19.5913 25.3277 19.4644 25.2854 19.394 25.2713C19.1966 25.2291 18.9852 25.1868 18.7879 25.1445L18.2241 25.0317C17.8858 24.9613 17.8013 24.8626 17.8013 24.5384C17.8013 24.1297 17.8013 23.7632 17.8013 23.3968C17.8013 23.0585 17.9422 22.9317 18.2805 22.9317C18.9711 22.9317 19.6617 22.9317 20.3524 22.9317C20.6906 22.9317 20.8175 23.0585 20.8316 23.4109C20.8316 23.5095 20.8316 23.6082 20.8316 23.7069V23.9888C20.8316 23.9888 20.8739 24.0733 20.888 24.0874L20.9161 24.1156C20.9161 24.1156 21.043 24.1579 21.0712 24.1156C21.1135 24.0592 21.1558 24.0028 21.198 23.9606C21.2826 23.8478 21.3813 23.721 21.4517 23.58C21.8182 22.8612 22.1424 22.2129 22.4524 21.5504C22.692 21.043 22.9176 20.5638 23.3263 20.1833C24.0451 19.5067 24.8626 19.1685 25.7646 19.1685H27.2164C28.7527 19.1685 30.2889 19.1685 31.8252 19.1685C33.6998 19.1685 35.2643 19.1685 36.7442 19.1826C38.1677 19.1826 39.2107 19.8591 39.8591 21.1558C40 21.4236 40.1269 21.7195 40.2537 21.9873C40.3806 22.2692 40.5074 22.5511 40.6484 22.8189C40.7893 23.0867 40.9443 23.3545 41.0994 23.6082L41.2403 23.8337C41.2826 23.9042 41.3249 23.9606 41.3813 24.0169C41.4235 24.0592 41.4376 24.0874 41.4658 24.1156C41.4799 24.1438 41.5081 24.1579 41.5504 24.1579C41.6068 24.1579 41.635 24.1297 41.6491 24.0874C41.7195 23.9324 41.7054 23.7914 41.7054 23.6646V23.5659C41.7054 22.988 41.79 22.9176 42.3538 22.9035H44.2283C44.2283 22.9035 44.327 22.9035 44.3693 22.9035C44.6089 22.9317 44.7216 23.0444 44.7357 23.2558C44.7498 23.721 44.7498 24.1861 44.7357 24.6512C44.7357 24.7921 44.6794 24.9331 44.3834 24.9895C44.2002 25.0317 44.0169 25.0599 43.8337 25.1022L43.1713 25.2291C43.1713 25.2291 43.0444 25.2573 42.9739 25.2854C42.9035 25.2995 42.8612 25.3136 42.8048 25.3277C42.7766 25.3277 42.7484 25.37 42.7343 25.3982C42.7343 25.4405 42.7343 25.4828 42.7625 25.4969C42.8048 25.5391 42.8612 25.5814 42.9035 25.6237L42.9317 25.6519C42.9317 25.6519 43.0585 25.7647 43.1149 25.8069C43.5377 26.1452 43.9605 26.4835 44.3975 26.8358C45.229 27.4842 45.7646 28.358 46.0324 29.4856C46.0606 29.6265 46.0888 29.7675 46.117 29.9225L46.1593 30.148V38.351V38.3792C46.1311 38.4637 46.117 38.5201 46.0888 38.5624C46.0606 38.6047 46.0324 38.6611 46.0183 38.7033C45.9479 38.8443 45.8774 38.9993 45.7787 39.1121C45.5532 39.3799 45.2431 39.5067 44.778 39.5208C44.6794 39.5208 44.5948 39.5208 44.4961 39.5208H44.0733H42.3679C41.9873 39.5208 41.6068 39.5208 41.2262 39.5208C40.3665 39.5208 39.845 38.9852 39.8309 38.1114V37.7872C39.8309 37.7026 39.8309 37.604 39.8309 37.5194C39.8309 37.4489 39.8168 37.3926 39.8027 37.3503C39.8027 37.3362 39.8027 37.308 39.8027 37.2798C39.8027 37.2375 39.7604 37.2093 39.7181 37.1952C39.549 37.167 37.1388 37.153 33.2488 37.153C29.3587 37.153 23.1008 37.167 22.7907 37.2234C22.7484 37.2234 22.7202 37.2798 22.7202 37.3221V38.0691C22.7061 38.3933 22.6498 38.6329 22.537 38.8443C22.2974 39.2812 21.9028 39.4926 21.339 39.5067C21.1558 39.5067 20.9866 39.5067 20.8034 39.5067M19.9577 39.253H20.7611C20.9302 39.253 21.1135 39.253 21.2967 39.253C21.7618 39.253 22.0437 39.0839 22.241 38.7456C22.3256 38.5906 22.3679 38.3933 22.382 38.1114V37.3785C22.382 37.1952 22.5229 37.0402 22.692 36.9979C22.9457 36.9274 30.148 36.9133 33.2206 36.9133C36.0677 36.9133 39.5067 36.9133 39.7322 36.9556C39.9014 36.9838 40.0423 37.1107 40.0705 37.2798V37.3221C40.0705 37.3221 40.1128 37.463 40.1128 37.5476C40.1128 37.6463 40.1128 37.7308 40.1128 37.8295V38.1396C40.1128 38.8443 40.5215 39.2389 41.2121 39.253C41.5927 39.253 41.9732 39.253 42.3538 39.253H44.0592H44.482C44.5666 39.253 44.6653 39.253 44.7498 39.253C45.1163 39.253 45.37 39.1403 45.525 38.957C45.5955 38.8725 45.666 38.7315 45.7223 38.6188C45.7505 38.5624 45.7787 38.5201 45.7928 38.4637C45.7928 38.4496 45.821 38.4074 45.821 38.3651C45.821 38.3651 45.821 38.351 45.821 38.3369V30.2185L45.7928 30.0775L45.9338 29.993L45.7787 30.0212C45.7505 29.8802 45.7223 29.7393 45.6942 29.5983C45.4405 28.5413 44.9331 27.7238 44.1579 27.1036C43.7209 26.7654 43.2981 26.4271 42.8753 26.0747C42.8048 26.0184 42.7484 25.962 42.678 25.9056L42.6498 25.8774C42.6498 25.8774 42.5652 25.8069 42.5229 25.7647C42.4102 25.666 42.3679 25.511 42.3961 25.37C42.4243 25.2291 42.537 25.1163 42.678 25.074C42.7343 25.0599 42.7766 25.0458 42.8189 25.0317C42.9317 25.0036 43.0021 24.9754 43.0726 24.9613L43.735 24.8344C43.9183 24.7921 44.0874 24.7639 44.2706 24.7217C44.3693 24.6935 44.3834 24.6794 44.3834 24.6794C44.3834 24.2002 44.3834 23.7491 44.3834 23.284C44.3834 23.2558 44.3552 23.2277 44.2847 23.2277C44.2565 23.2277 44.2142 23.2277 44.1861 23.2277H42.3115C42.1987 23.2277 42.0155 23.2277 41.9873 23.2558C41.9591 23.284 41.9591 23.4673 41.9591 23.58V23.6646C41.9591 23.8196 41.9591 24.0028 41.8746 24.2284C41.8182 24.3552 41.7054 24.4539 41.5504 24.468H41.494C41.3672 24.468 41.2544 24.4116 41.1698 24.327C41.1417 24.2988 41.1276 24.2706 41.0994 24.2425C41.0289 24.1579 40.9725 24.0874 40.9162 24.0028L40.7752 23.7914C40.6061 23.5236 40.451 23.2558 40.3101 22.974C40.1691 22.6921 40.0423 22.4102 39.9154 22.1283C39.7886 21.8605 39.6617 21.5786 39.5349 21.3108C38.9429 20.1269 37.9845 19.5208 36.6878 19.5067C35.2079 19.4926 33.6434 19.4926 31.7689 19.4926C30.2326 19.4926 28.6963 19.4926 27.16 19.4926H25.7083C24.8908 19.4926 24.1297 19.8168 23.4813 20.4229C23.1149 20.7611 22.9035 21.2121 22.678 21.6914C22.3679 22.3397 22.0437 23.0162 21.6772 23.721C21.5927 23.8901 21.4799 24.031 21.3954 24.1438C21.3531 24.1861 21.3108 24.2425 21.2826 24.2988C21.2121 24.3975 21.0994 24.4539 20.9725 24.468C20.8316 24.468 20.7188 24.4257 20.6484 24.3411C20.592 24.2847 20.4933 24.1861 20.4792 24.0169V23.7351C20.4792 23.6364 20.4792 23.5377 20.4651 23.4391C20.4651 23.3169 20.4041 23.2558 20.2819 23.2558C19.5913 23.2558 18.9006 23.2558 18.21 23.2558C18.0973 23.2558 18.0409 23.3122 18.0409 23.425C18.0409 23.7773 18.0409 24.1438 18.0409 24.5525C18.0409 24.6371 18.0409 24.6794 18.055 24.6935C18.055 24.6935 18.0832 24.7217 18.2241 24.7499L18.7879 24.8626C18.9852 24.9049 19.1966 24.9472 19.394 24.9895C19.4785 25.0036 19.549 25.0317 19.6336 25.0599L19.7463 25.1022C19.8873 25.1445 20 25.2713 20.0282 25.4123C20.0564 25.5532 20.0141 25.7083 19.9014 25.8069C19.8591 25.8492 19.8309 25.8774 19.8027 25.8915C19.7322 25.962 19.6899 26.0043 19.6336 26.0465C19.4644 26.1875 19.2953 26.3284 19.1121 26.4553L18.5483 26.9063C18.5483 26.9063 18.4355 27.005 18.3792 27.0472L18.3369 27.0754C18.1536 27.2164 17.9986 27.3291 17.8718 27.4701C17.167 28.2312 16.7583 29.0909 16.6455 30.0494C16.6455 30.148 16.6033 30.2326 16.5892 30.289V38.3369C16.5892 38.3369 16.6173 38.4074 16.6314 38.4637C16.7865 39.0416 17.1107 39.2953 17.7026 39.2953C17.9986 39.2953 18.2946 39.2953 18.5765 39.2953H19.8873L19.9577 39.253ZM42.9739 39.1685C42.3538 39.1685 41.7477 39.1685 41.1276 39.1685C40.5779 39.1685 40.2255 38.8161 40.1973 38.2664C40.1973 38.0691 40.1973 37.8577 40.1973 37.6463V37.3362C40.1973 37.1248 40.3665 36.9415 40.5779 36.9274H40.7188C40.8175 36.9133 40.9021 36.8993 40.9866 36.8993H42.4665C42.8048 36.8993 43.1572 36.8993 43.5095 36.8993H43.5659C44.1579 36.8993 44.5948 36.8006 44.9472 36.5751C45.0317 36.5187 45.1022 36.5046 45.1586 36.4905C45.215 36.4764 45.2572 36.4623 45.2995 36.4623C45.3841 36.4623 45.4546 36.4905 45.525 36.5328C45.6237 36.6033 45.6942 36.7019 45.7083 36.8147C45.7083 36.8429 45.7083 36.857 45.7083 36.8711C45.7083 36.9415 45.7364 37.012 45.7364 37.0966V37.2093C45.7364 37.5335 45.7364 37.8718 45.7364 38.21C45.7364 38.7879 45.3841 39.1403 44.8062 39.1403C44.1861 39.1403 43.58 39.1403 42.9598 39.1403M42.4806 37.2093H41.0007C40.9302 37.2093 40.8457 37.2093 40.7611 37.2234H40.6061C40.6061 37.2234 40.5074 37.2798 40.5074 37.3362V37.6463C40.5074 37.8577 40.5074 38.055 40.5074 38.2523C40.5074 38.647 40.747 38.8584 41.1276 38.8584C42.3538 38.8584 43.58 38.8584 44.8203 38.8584C45.229 38.8584 45.4405 38.6329 45.4405 38.2241C45.4405 37.8859 45.4405 37.5476 45.4405 37.2234V37.1107C45.4405 37.1107 45.4405 36.9979 45.4264 36.9415C45.4264 36.9274 45.4264 36.8993 45.4264 36.8711C45.4264 36.8429 45.3982 36.8147 45.3841 36.8006C45.37 36.8006 45.3418 36.7865 45.3277 36.7865H45.2572C45.2572 36.7865 45.1727 36.8147 45.1445 36.8429C44.7357 37.1107 44.2565 37.2234 43.6082 37.2234H43.5518C43.1994 37.2234 42.8612 37.2234 42.5088 37.2234M20.9584 39.1685H17.7449C17.7449 39.1685 17.6181 39.1685 17.5617 39.1685C17.0966 39.1262 16.7724 38.7879 16.7583 38.351C16.7583 38.0127 16.7583 37.6604 16.7583 37.3221V36.9979C16.7583 36.8993 16.8006 36.8147 16.8288 36.7583C16.8851 36.6315 16.9556 36.561 17.0543 36.5187C17.167 36.4764 17.2657 36.4764 17.3644 36.5187L17.4207 36.5469C17.4912 36.5751 17.5617 36.6033 17.6181 36.6456C17.9281 36.8288 18.3087 36.9274 18.7597 36.9274C19.1543 36.9274 19.5349 36.9274 19.9295 36.9274H21.8464C22.0437 36.9274 22.2128 37.0684 22.2551 37.2657V37.3503C22.2833 37.4207 22.2974 37.4912 22.3115 37.5758C22.3115 37.7731 22.3115 37.9704 22.3115 38.1818C22.3115 38.8584 21.9732 39.1826 21.3108 39.1966H20.9725L20.9584 39.1685ZM17.2093 36.7724C17.2093 36.7724 17.1811 36.7724 17.167 36.7724C17.1388 36.7724 17.1247 36.8006 17.1107 36.8288V36.8711C17.1107 36.8711 17.0684 36.9274 17.0543 36.9697V37.2939C17.0543 37.6322 17.0543 37.9704 17.0543 38.3087C17.0543 38.6047 17.2798 38.802 17.5899 38.8443C17.6462 38.8443 17.6885 38.8443 17.7449 38.8443H17.8577H20.9443H21.2826C21.7759 38.8443 21.9732 38.6329 21.9873 38.1255C21.9873 37.9281 21.9873 37.7308 21.9873 37.5335C21.9873 37.4771 21.9873 37.4207 21.9591 37.3644V37.2657C21.9591 37.2657 21.8887 37.1811 21.8323 37.1811H19.9154C19.5208 37.1811 19.1403 37.1811 18.7456 37.1811C18.2382 37.1811 17.8154 37.0684 17.4489 36.857C17.4066 36.8288 17.3503 36.8147 17.308 36.7865L17.2516 36.7583C17.2516 36.7583 17.1952 36.7442 17.1811 36.7442M40.5779 36.8288C40.2819 36.8288 40.0282 36.7301 39.8168 36.5046C39.7181 36.4059 39.6336 36.3073 39.5349 36.2227L39.4926 36.1804C39.3658 36.0536 39.2389 35.9267 39.1121 35.7999C38.5765 35.2361 37.8999 34.9542 37.0402 34.9542H25.1727C24.6371 34.9542 24.2002 35.0529 23.8196 35.2643C23.6082 35.3911 23.425 35.518 23.2558 35.673C22.988 35.9126 22.7343 36.1804 22.4524 36.4764L22.3961 36.5328C22.1987 36.7442 21.9591 36.8429 21.6632 36.8429C21.198 36.8429 20.7329 36.8429 20.2678 36.8429H19.845C19.845 36.8429 18.8302 36.8429 18.5201 36.8429C18.0268 36.8429 17.5758 36.6456 17.2375 36.2932C16.8992 35.9408 16.7019 35.4616 16.716 35.0106C16.716 34.5878 16.716 34.1508 16.716 33.7421V33.6575C16.716 33.432 16.716 33.1924 16.716 32.9669C16.716 32.8964 16.716 32.8119 16.7301 32.7273C16.7301 32.6991 16.7301 32.6568 16.7301 32.6286C16.7442 32.4172 16.9274 32.2481 17.1388 32.2481H17.5899C17.8013 32.2481 17.9704 32.4031 17.9986 32.6145V32.7273C18.0268 32.8119 18.0268 32.9105 18.0268 32.9951C18.0409 33.4884 18.1818 33.8408 18.4496 34.1086C18.7174 34.3904 19.0698 34.5314 19.5208 34.5455C19.9295 34.5596 20.3383 34.5455 20.7611 34.5455C20.8457 34.5455 20.9021 34.5173 20.9161 34.5032C20.9161 34.4891 20.8457 34.4609 20.7611 34.4609H20.5215C20.1832 34.4609 19.8309 34.4609 19.549 34.4609C19.1543 34.4891 18.7315 34.32 18.4637 34.024C18.21 33.7421 18.0832 33.3756 18.1114 32.9951L18.1395 32.6004C18.1395 32.389 18.3228 32.2199 18.5342 32.2199H18.8161C18.957 32.2058 19.098 32.2058 19.2389 32.2058C19.6336 32.2058 20.0987 32.2481 20.5638 32.5159C20.6906 32.5864 20.8175 32.6709 20.9302 32.7555L21.0289 32.826L21.0994 32.8682C21.0994 32.8542 21.0994 32.8401 21.0712 32.8119C20.7047 32.4454 20.2537 32.234 19.7886 32.1917C19.253 32.1494 18.7033 32.1494 18.21 32.1353H18.0691C17.8858 32.1353 17.7026 32.1353 17.5194 32.1353H17.3925H17.167C16.9979 32.1353 16.8429 32.0226 16.7865 31.8675C16.6455 31.4588 16.6596 29.993 16.8147 29.6406C16.8992 29.4433 17.1529 29.3446 17.3503 29.4292C17.4207 29.4574 17.5053 29.4856 17.5758 29.5561C17.8154 29.7675 18.1395 29.8661 18.5906 29.8802C19.0839 29.8802 19.5913 29.8802 20.0846 29.8802H22.1283C22.2269 29.8802 22.2833 29.852 22.3538 29.7816C22.4665 29.6547 22.5934 29.542 22.7202 29.4151L22.9035 29.2319C23.0444 29.0909 23.3122 29.0768 23.4672 29.2319L23.6223 29.3728C23.6223 29.3728 23.7491 29.4856 23.8196 29.5561L23.9465 29.6829C24.0874 29.8238 24.2847 29.8943 24.5384 29.8943H27.1318C27.8506 29.8943 28.5553 29.8943 29.2882 29.8943C29.6547 29.8943 29.9366 30.0212 30.1762 30.2749C30.4017 30.5145 30.6413 30.7541 30.8809 30.9937L31.0923 31.2051C31.0923 31.2051 31.1769 31.2756 31.2051 31.2897C31.2333 31.2756 31.2615 31.2474 31.3178 31.191L31.4447 31.0642C31.7125 30.7964 31.9944 30.5145 32.2622 30.2467C32.4877 30.0071 32.7414 29.9084 33.0796 29.9084C33.8407 29.9084 34.6159 29.9084 35.377 29.9084H37.8999C38.1255 29.9084 38.3087 29.8332 38.4496 29.6829L38.6047 29.5279C38.6047 29.5279 38.7033 29.4292 38.7738 29.3728L38.9006 29.2601C39.0557 29.1191 39.3094 29.1191 39.4644 29.2601L39.6195 29.401C39.7463 29.5138 39.8591 29.6265 39.9577 29.7393C40.0423 29.8379 40.141 29.8943 40.3665 29.8943C40.8316 29.8943 41.2967 29.8943 41.7618 29.8943H43.6505C44.1861 29.8943 44.5525 29.7816 44.8485 29.542C44.9472 29.4574 45.0458 29.4433 45.0881 29.4292C45.1163 29.4292 45.1586 29.4151 45.2009 29.4151C45.3559 29.4151 45.4827 29.4997 45.5673 29.6265C45.7646 29.993 45.7505 31.2756 45.6801 31.7689C45.6519 31.9521 45.4968 32.0931 45.3136 32.1071H45.229C45.1445 32.1353 45.0599 32.1353 44.9613 32.1353H44.4116H43.7773H43.1713C42.6216 32.1353 42.1283 32.2763 41.7195 32.5441C41.5786 32.6286 41.4517 32.7273 41.3531 32.826C41.339 32.8401 41.3249 32.8541 41.3249 32.8541C41.3249 32.8541 41.3531 32.8541 41.3954 32.8401C41.4095 32.8401 41.4376 32.8119 41.4517 32.7978C41.4799 32.7696 41.5222 32.7414 41.5504 32.7132C42.0437 32.3749 42.5088 32.2199 43.0021 32.2199C43.0303 32.2199 43.0585 32.2199 43.0867 32.2199C43.1854 32.2199 43.2699 32.2199 43.3686 32.2199H43.8478C44.0169 32.2199 44.1861 32.3327 44.2283 32.5018C44.4539 33.1642 44.2847 33.8408 43.7914 34.2072C43.5518 34.3904 43.2699 34.475 42.9739 34.475H42.3961C42.1846 34.475 41.9732 34.475 41.7477 34.475C41.6632 34.475 41.5927 34.475 41.5363 34.5032V34.5173C41.5504 34.5173 41.5927 34.5455 41.6068 34.5455C41.7477 34.5455 41.9028 34.5455 42.0578 34.5455C42.4383 34.5455 42.8471 34.5455 43.2135 34.5032C43.8055 34.4327 44.2706 33.9676 44.3552 33.3475C44.3834 33.1924 44.3975 33.0374 44.4116 32.8682C44.4116 32.7837 44.4257 32.6991 44.4398 32.6004C44.4539 32.4031 44.623 32.2481 44.8344 32.234L45.2995 32.2199C45.5109 32.2199 45.6801 32.3749 45.7083 32.5864V32.6991C45.7364 32.7837 45.7364 32.8682 45.7364 32.9387V33.1783C45.7364 33.7844 45.7364 34.3904 45.7364 34.9965C45.7364 36.0536 44.9472 36.8147 43.8901 36.8147C43.5377 36.8147 43.1854 36.8147 42.8189 36.8147H41.8323C41.4095 36.8147 40.9866 36.8147 40.5638 36.8147M34.024 34.6441H37.0543C37.9986 34.6441 38.7456 34.9542 39.3376 35.5885C39.4503 35.7153 39.5772 35.8422 39.704 35.9549L39.7463 35.9972C39.845 36.0959 39.9436 36.1945 40.0423 36.2932C40.1832 36.4482 40.3665 36.5187 40.5779 36.5187C41.0007 36.5187 41.4236 36.5187 41.8464 36.5187H42.833C43.1854 36.5187 43.5377 36.5187 43.8901 36.5187C44.778 36.5187 45.4264 35.8704 45.4264 34.9965C45.4264 34.3904 45.4264 33.7844 45.4264 33.1783V32.9387C45.4264 32.9387 45.4264 32.8119 45.4123 32.7414V32.6145C45.4123 32.6145 45.3418 32.5159 45.2995 32.5159H44.8485C44.8485 32.5159 44.7498 32.5723 44.7498 32.6286C44.7498 32.7132 44.7357 32.7978 44.7216 32.8823C44.7075 33.0515 44.6935 33.2206 44.6653 33.3756C44.5525 34.1367 43.9746 34.7005 43.2558 34.7851C42.8612 34.8274 42.4524 34.8274 42.0578 34.8274C41.9028 34.8274 41.7477 34.8274 41.5927 34.8274C41.5645 34.8274 41.5222 34.8274 41.4376 34.7851C41.3108 34.7428 41.2403 34.6441 41.2262 34.4891C41.2262 34.3623 41.3108 34.2354 41.4376 34.1931C41.5222 34.1649 41.635 34.1508 41.7477 34.1508C41.9591 34.1508 42.1846 34.1508 42.3961 34.1508H42.9739C43.2135 34.1508 43.425 34.0804 43.6082 33.9394C44.0028 33.6434 44.1297 33.1079 43.9465 32.5723C43.9324 32.53 43.8901 32.5018 43.8478 32.5018H43.3686C43.2699 32.5018 43.1713 32.5018 43.0726 32.5018H43.0021C42.5793 32.5018 42.1565 32.6427 41.7195 32.9387C41.6913 32.9669 41.6632 32.981 41.635 33.0092C41.6068 33.0374 41.5786 33.0515 41.5645 33.0656C41.4095 33.1783 41.2403 33.1642 41.1135 33.0374C40.9866 32.9105 40.9866 32.7273 41.1276 32.5864C41.2403 32.4736 41.3813 32.3608 41.5504 32.2622C42.0296 31.9662 42.5652 31.8253 43.1713 31.8112H43.7773H44.4116H44.9613C45.0458 31.8112 45.1304 31.8112 45.2009 31.783H45.2854C45.2854 31.783 45.3841 31.7266 45.3841 31.6843C45.4687 31.1487 45.4405 29.9789 45.2995 29.7252C45.2854 29.697 45.2431 29.6688 45.2009 29.6688H45.1586C45.1586 29.6688 45.0881 29.697 45.0599 29.7111C44.7216 30.0071 44.2847 30.1339 43.6787 30.1339H41.79C41.3249 30.1339 40.8598 30.1339 40.3947 30.1339C40.0987 30.1339 39.9014 30.0635 39.7463 29.8661C39.6477 29.7534 39.5349 29.6547 39.4221 29.542L39.2671 29.3869C39.2671 29.3869 39.1825 29.3305 39.1262 29.3869L39.0275 29.4856C38.9429 29.5561 38.9006 29.5983 38.8443 29.6547L38.6892 29.8098C38.3932 30.1057 38.3651 30.1198 37.9281 30.1198H35.4052C34.6441 30.1198 33.8689 30.1198 33.1078 30.1198C32.8541 30.1198 32.6709 30.1903 32.5159 30.3735C32.2481 30.6554 31.9662 30.9373 31.6984 31.2051L31.5715 31.332C31.3037 31.5997 31.1769 31.5997 30.9232 31.332L30.7118 31.1346C30.4722 30.895 30.2185 30.6554 29.993 30.4017C29.8097 30.2044 29.6124 30.1198 29.3305 30.1198C28.6117 30.1198 27.8929 30.1198 27.1741 30.1198H24.5807C24.1156 30.1198 24.0733 30.1198 23.7773 29.8238L23.6505 29.7111C23.6505 29.7111 23.5377 29.5983 23.4672 29.542L23.3122 29.401C23.2417 29.3305 23.1994 29.3728 23.1713 29.401L23.0021 29.5701C22.8753 29.697 22.7484 29.8238 22.6357 29.9366C22.5088 30.0635 22.3679 30.1339 22.1846 30.1339H20.141C19.6477 30.1339 19.1403 30.1339 18.6469 30.1339C18.1255 30.1339 17.7308 30.0071 17.4348 29.7393C17.3925 29.7111 17.3644 29.697 17.3221 29.6829H17.2798C17.2798 29.6829 17.167 29.6829 17.1388 29.7252C17.012 30.0071 16.9979 31.3883 17.1247 31.7266C17.1247 31.7689 17.1811 31.7971 17.2234 31.7971H17.4489H17.5899C17.7731 31.7971 17.9563 31.7971 18.1255 31.7971H18.2664C18.7597 31.7971 19.3235 31.7971 19.8732 31.8534C20.4088 31.8957 20.9162 32.1353 21.339 32.5582C21.4799 32.6991 21.494 32.8823 21.3672 33.0233C21.2403 33.1642 21.0712 33.1642 20.9021 33.0374L20.8034 32.9669C20.6906 32.8823 20.5779 32.8119 20.4651 32.7414C20.0705 32.5018 19.6477 32.4736 19.2953 32.4736C19.1543 32.4736 19.0275 32.4736 18.8866 32.4736H18.5906C18.5906 32.4736 18.4919 32.53 18.4919 32.5864L18.4637 32.9951C18.4496 33.2911 18.5342 33.5871 18.7456 33.7985C18.9429 34.0099 19.2389 34.1367 19.5349 34.1367H19.5913C19.8732 34.1226 20.2255 34.1367 20.5779 34.1367H20.8175C21.0853 34.1367 21.2685 34.2777 21.2685 34.4891C21.2685 34.7005 21.0994 34.8274 20.8175 34.8274C20.3947 34.8274 19.9859 34.8415 19.5631 34.8274C19.0416 34.7992 18.6188 34.63 18.2946 34.2918C17.9704 33.9676 17.8013 33.5448 17.7872 32.981C17.7872 32.8964 17.7872 32.8119 17.7731 32.7273V32.6145C17.7731 32.6145 17.7167 32.5159 17.6603 32.5159H17.2093C17.2093 32.5159 17.1107 32.5582 17.0966 32.6145C17.0966 32.6568 17.0966 32.685 17.0966 32.7273C17.0966 32.7978 17.0825 32.8682 17.0825 32.9387C17.0825 33.1642 17.0825 33.3897 17.0825 33.6153V33.6998C17.0825 34.1226 17.0825 34.5596 17.0825 34.9824C17.0825 35.3489 17.2375 35.7435 17.5194 36.0395C17.8013 36.3214 18.1818 36.4905 18.5906 36.4905C18.8866 36.4905 19.9154 36.4905 19.9154 36.4905H20.3383C20.8034 36.4905 21.2685 36.4905 21.7336 36.4905C21.945 36.4905 22.1001 36.42 22.2551 36.265L22.3115 36.2086C22.5934 35.9126 22.8612 35.6448 23.129 35.4052C23.3122 35.2361 23.5236 35.0952 23.7491 34.9542C24.1579 34.7146 24.6512 34.6019 25.2431 34.6019H34.0804L34.024 34.6441ZM38.7456 36.8288H23.3686C23.284 36.8288 23.2135 36.8006 23.1713 36.7865H23.129C22.988 36.7301 22.8894 36.6174 22.8471 36.4905C22.8048 36.3637 22.8471 36.2227 22.9176 36.1241C23.5095 35.3911 24.1861 35.0388 24.9753 35.0388H29.8238H34.3059H35.969C36.42 35.0388 36.871 35.0388 37.3221 35.0388C38.0832 35.0388 38.9006 35.5039 39.3094 36.1522C39.3799 36.2791 39.394 36.4341 39.3235 36.561C39.3235 36.5892 39.2812 36.6315 39.253 36.6737C39.1825 36.7583 39.0839 36.8006 38.9711 36.8147H38.9288C38.9288 36.8147 38.802 36.8288 38.7315 36.8288M29.8379 35.3348H24.9894C24.2988 35.3348 23.6928 35.6589 23.1572 36.3073C23.129 36.3355 23.129 36.3637 23.1431 36.4059C23.1431 36.4341 23.1854 36.4623 23.2135 36.4764L23.284 36.5046C23.284 36.5046 23.3404 36.5328 23.3827 36.5328H38.7597C38.7597 36.5328 38.8725 36.5328 38.9288 36.5328H38.9711C38.9711 36.5328 39.0416 36.5046 39.0698 36.4764C39.0698 36.4764 39.0839 36.4482 39.098 36.4341C39.1121 36.3919 39.1121 36.3496 39.098 36.3214C38.7456 35.7576 38.0268 35.363 37.3644 35.3489C36.9133 35.3489 36.4623 35.3489 36.0113 35.3489H34.3481H29.8661L29.8379 35.3348ZM31.2615 31.0219C31.1628 31.0219 31.0641 30.9796 30.9937 30.9232L30.895 30.8386C30.8104 30.7682 30.7682 30.7259 30.7259 30.6836L30.4863 30.4581C30.3312 30.3031 30.1762 30.148 30.0212 29.9789C29.8943 29.8379 29.7675 29.7957 29.556 29.7957C29.0768 29.7957 28.5976 29.7957 28.1184 29.7957H26.8499C26.1875 29.7957 25.525 29.7957 24.8626 29.7957C24.3552 29.7957 24.0028 29.6406 23.7068 29.3024C23.4672 29.0205 23.1854 28.7668 22.9598 28.5553C22.8471 28.4567 22.7343 28.3721 22.6216 28.3298C22.0296 28.0902 21.4235 27.8365 20.8316 27.611L19.8027 27.2023C19.8027 27.2023 19.6758 27.1459 19.6054 27.1177L19.4785 27.0613C19.3517 27.005 19.2671 26.8922 19.2389 26.7654C19.2107 26.6244 19.253 26.4976 19.3517 26.3989C19.3799 26.3707 19.408 26.3425 19.4221 26.3284C19.4785 26.258 19.549 26.2016 19.6054 26.1593C20.1551 25.7365 20.6624 25.2291 21.1135 24.6512C21.3108 24.3975 21.5645 24.2706 21.8746 24.2706C22.1283 24.2706 22.3397 24.2706 22.5652 24.2706H29.2037C32.9387 24.2706 36.6737 24.2706 40.4088 24.2706C40.8598 24.2706 41.1698 24.4257 41.4235 24.7639C41.8041 25.2713 42.2269 25.6942 42.678 26.0324C42.7625 26.1029 42.8471 26.1734 42.9457 26.2439L43.1008 26.3707C43.1994 26.4553 43.2558 26.5962 43.2417 26.7372C43.2276 26.8781 43.1431 26.9909 43.0162 27.0613L42.9035 27.1177C42.8189 27.16 42.7484 27.2023 42.678 27.2305L41.7477 27.611C41.0994 27.8647 40.4651 28.1184 39.8309 28.3862C39.7322 28.4285 39.6195 28.499 39.5208 28.5976C39.2248 28.8654 38.9288 29.1755 38.6047 29.5138C38.3932 29.7393 38.1255 29.852 37.7872 29.852H35.1656C34.5314 29.852 33.7703 29.852 32.9951 29.852C32.685 29.852 32.5159 29.9225 32.3608 30.1198C32.1917 30.3172 31.9944 30.5004 31.7971 30.6836L31.6843 30.7964C31.6843 30.7964 31.5574 30.9091 31.5011 30.9796C31.4165 31.0501 31.3178 31.0923 31.2051 31.0923M29.556 29.4856C29.852 29.4856 30.0634 29.5701 30.2467 29.7816C30.3876 29.9366 30.5426 30.0916 30.6977 30.2467L30.9373 30.4722C30.9373 30.4722 31.0219 30.5427 31.0641 30.5849L31.191 30.6977C31.191 30.6977 31.2756 30.7541 31.346 30.6977C31.4024 30.6413 31.4729 30.5709 31.5293 30.5145L31.6138 30.4299C31.8252 30.2185 32.0085 30.0494 32.1776 29.852C32.4031 29.5983 32.6568 29.4856 33.0233 29.4856C33.8126 29.4856 34.5737 29.4856 35.2079 29.4856H37.8295C38.0832 29.4856 38.2664 29.4151 38.4214 29.246C38.7456 28.9077 39.0557 28.5976 39.3517 28.3157C39.4785 28.203 39.6195 28.1043 39.7604 28.0479C40.3947 27.7802 41.043 27.5265 41.6772 27.2728L42.6075 26.8922C42.6075 26.8922 42.7343 26.8358 42.8048 26.7935L42.9176 26.7372C42.9176 26.7372 42.9739 26.6808 42.9739 26.6526C42.9739 26.6244 42.9739 26.5821 42.9317 26.568L42.7766 26.4412C42.692 26.3566 42.6075 26.3002 42.5229 26.2298C42.0437 25.8774 41.6068 25.4264 41.2121 24.9049C41.0148 24.6371 40.7893 24.5384 40.4369 24.5384C36.7019 24.5384 32.9669 24.5384 29.2319 24.5384H22.5934C22.3679 24.5384 22.1424 24.5384 21.9169 24.5384C21.6772 24.5384 21.5222 24.623 21.3813 24.7921C20.9161 25.3982 20.3806 25.9338 19.8168 26.3566C19.7604 26.3989 19.7181 26.4412 19.6617 26.4976C19.6336 26.5257 19.6054 26.5539 19.5772 26.5821C19.549 26.6103 19.549 26.6385 19.549 26.6808C19.549 26.709 19.5772 26.7372 19.6054 26.7513L19.7322 26.8076C19.8027 26.8358 19.8591 26.864 19.9154 26.8922L20.9443 27.3009C21.5363 27.5406 22.1424 27.7802 22.7343 28.0339C22.8753 28.0902 23.0303 28.1889 23.1572 28.3157C23.3968 28.5413 23.6787 28.809 23.9324 29.0909C24.172 29.3587 24.4398 29.4856 24.8344 29.4856C25.525 29.4856 26.1875 29.4856 26.8499 29.4856H28.1184C28.5976 29.4856 29.0768 29.4856 29.556 29.4856ZM43.8337 29.7957H40.7047C40.1269 29.7957 39.845 29.6124 39.5208 29.0627C39.4644 28.9641 39.4503 28.8513 39.4785 28.7386C39.5067 28.6258 39.5913 28.5413 39.6899 28.4849L39.7745 28.4426C39.7745 28.4426 39.9013 28.3721 39.9718 28.3439L41.2544 27.8224C41.945 27.5546 42.6216 27.2728 43.3122 26.9909C43.6082 26.8781 43.876 26.9063 44.1156 27.1036C44.5102 27.3996 44.8344 27.7802 45.1163 28.2312C45.2572 28.4567 45.2713 28.7104 45.1727 28.95C44.9894 29.4292 44.6089 29.7252 44.1015 29.7675C44.0028 29.7675 43.9183 29.7675 43.8337 29.7675M43.6364 27.2446C43.6364 27.2446 43.4954 27.2587 43.425 27.2869C42.7343 27.5687 42.0578 27.8365 41.3672 28.1043L40.0846 28.6258C40.0846 28.6258 39.9718 28.6822 39.9154 28.7104L39.8309 28.7527C39.8309 28.7527 39.7886 28.795 39.7745 28.8231C39.7745 28.8513 39.7745 28.8795 39.7745 28.9077C40.0423 29.3728 40.2396 29.4856 40.7047 29.4856H43.8337C43.9183 29.4856 44.0028 29.4856 44.0874 29.4856C44.4679 29.4574 44.7498 29.246 44.9049 28.8654C44.9613 28.7104 44.9613 28.5553 44.8626 28.4144C44.5948 27.9916 44.2988 27.6392 43.9324 27.3573C43.8337 27.2868 43.735 27.2446 43.6364 27.2446ZM20.2678 29.7957H18.506C17.9986 29.7957 17.5899 29.542 17.3644 29.0909C17.2234 28.809 17.2234 28.499 17.3925 28.2312C17.6603 27.7802 17.9986 27.4137 18.4355 27.0754C18.6751 26.8922 18.9993 26.9345 19.1543 27.005L20.8034 27.6674C21.3531 27.8929 21.9028 28.1043 22.4383 28.3298C22.5229 28.358 22.5934 28.4003 22.692 28.4426C22.7343 28.4708 22.7766 28.4849 22.833 28.5131C22.9598 28.5694 23.0444 28.6822 23.0585 28.809C23.0726 28.9359 23.0303 29.0768 22.9457 29.1614C22.8894 29.2178 22.833 29.2742 22.7907 29.3164C22.678 29.4433 22.5652 29.542 22.4524 29.6406C22.2833 29.7675 22.086 29.7816 21.945 29.7816H20.2537L20.2678 29.7957ZM18.8584 27.2305C18.7738 27.2305 18.7033 27.2587 18.6329 27.315C18.2241 27.611 17.914 27.9634 17.6603 28.3862C17.5476 28.5694 17.5476 28.7527 17.6462 28.95C17.8295 29.3024 18.1114 29.4856 18.5201 29.4856H20.2819H21.9732C22.0719 29.4856 22.1987 29.4856 22.2974 29.401C22.4102 29.3164 22.5088 29.2178 22.6075 29.105C22.6498 29.0627 22.7061 29.0064 22.7625 28.95C22.7907 28.9218 22.8048 28.8936 22.7907 28.8513C22.7907 28.8231 22.7625 28.795 22.7343 28.7809C22.678 28.7527 22.6216 28.7245 22.5793 28.7104C22.4947 28.6681 22.4243 28.6399 22.3538 28.6117C21.8041 28.3862 21.2544 28.1748 20.7188 27.9493L19.0698 27.2869C19.0698 27.2869 18.9429 27.2446 18.8725 27.2446M42.5088 24.9895C42.4102 24.9895 42.3115 24.9472 42.241 24.8908C42.1565 24.8203 42.1001 24.7076 42.1001 24.5807V23.7351C42.1001 23.5236 42.2551 23.3404 42.4665 23.3263C42.9317 23.284 43.3968 23.284 43.9183 23.3263C44.1015 23.3404 44.2424 23.4673 44.2847 23.6364V23.6787C44.2847 23.6787 44.327 23.7914 44.327 23.8619C44.3693 24.468 44.2142 24.6794 43.6223 24.7921L43.284 24.8626C43.1572 24.8908 43.0303 24.919 42.9035 24.9331C42.833 24.9331 42.7625 24.9613 42.678 24.9613H42.5088V24.9895ZM43.1994 23.6082C42.9598 23.6082 42.7202 23.6082 42.4947 23.6364C42.4383 23.6364 42.3961 23.6928 42.3961 23.7491V24.5948C42.3961 24.5948 42.3961 24.6512 42.4383 24.6794C42.4524 24.6935 42.4806 24.7076 42.5088 24.7076H42.6357C42.7202 24.6794 42.7766 24.6653 42.8471 24.6653C42.9739 24.6371 43.1008 24.623 43.2276 24.5948L43.5659 24.5243C44.0169 24.4398 44.0592 24.3693 44.031 23.9183C44.031 23.876 44.0169 23.8337 44.0028 23.8055V23.7491C44.0028 23.7491 43.9324 23.6787 43.8901 23.6646C43.6505 23.6505 43.425 23.6364 43.1994 23.6364M19.8591 24.9754C19.8591 24.9754 19.7604 24.9754 19.7181 24.9754C19.4362 24.919 19.098 24.8626 18.7597 24.778C18.3228 24.6794 18.1677 24.4962 18.1677 24.0451C18.1677 23.9747 18.1677 23.9183 18.1677 23.8337V23.721C18.1818 23.5095 18.3651 23.3404 18.5906 23.3404H19.9859C20.1832 23.3404 20.3383 23.4673 20.3806 23.6505C20.4369 23.9042 20.4369 24.1579 20.4228 24.3834V24.5666C20.4228 24.7921 20.2255 24.9613 20.0141 24.9613H19.8732L19.8591 24.9754ZM18.5906 23.6364C18.5906 23.6364 18.4919 23.6787 18.4778 23.7351V23.8478C18.4778 23.9183 18.4637 23.9747 18.4637 24.0451C18.4637 24.3411 18.5201 24.4116 18.8161 24.4821C19.1543 24.5525 19.4785 24.623 19.7604 24.6653C19.7886 24.6653 19.8168 24.6653 19.845 24.6653H19.9014C19.9014 24.6653 19.9577 24.6653 19.9859 24.6653C20.0423 24.6653 20.0846 24.623 20.0987 24.5666V24.3834C20.0987 24.1579 20.1128 23.9324 20.0705 23.721C20.0705 23.6787 20.0141 23.6364 19.9718 23.6364H18.5765H18.5906ZM39.9577 24.1579H22.4383C22.3397 24.1579 22.2692 24.1297 22.241 24.1156H22.2128C22.0014 24.0451 21.8887 23.8196 21.9309 23.6082V23.5659C21.9309 23.5659 21.9591 23.4673 21.9873 23.3968C22.1706 23.0162 22.9739 21.2967 22.9739 21.2967C23.3827 20.437 24.0874 19.8732 25.074 19.6054C25.2431 19.5631 25.4264 19.5349 25.6378 19.5349H28.0761C29.3446 19.5349 30.6131 19.5349 31.8816 19.5349C33.8267 19.5349 35.4193 19.5349 36.8992 19.5349C38.0268 19.5349 38.9147 20.0987 39.4785 21.1417C39.704 21.5504 39.9014 21.9873 40.0564 22.3538L40.1128 22.4947C40.1691 22.6357 40.2396 22.7766 40.3101 22.9176C40.3665 23.0444 40.4369 23.1713 40.4933 23.2981L40.5779 23.4673C40.6484 23.6082 40.6343 23.7773 40.5356 23.8901C40.4933 23.9465 40.4792 23.9747 40.451 23.9888C40.4087 24.0169 40.3242 24.0874 40.1973 24.1015H40.1551C40.1551 24.1015 40.0282 24.1297 39.9718 24.1297M31.8534 19.8591C30.5849 19.8591 29.3164 19.8591 28.0479 19.8591H25.6096C25.4264 19.8591 25.2572 19.8873 25.1163 19.9155C24.2142 20.1551 23.58 20.6625 23.2135 21.4518C23.2135 21.4518 22.4102 23.1572 22.2269 23.5518C22.2269 23.58 22.2128 23.6223 22.1987 23.6505C22.1987 23.6646 22.1987 23.6787 22.1987 23.7069C22.1987 23.7632 22.2128 23.8196 22.2692 23.8337H22.3256C22.3256 23.8337 22.382 23.876 22.4243 23.876H39.9436C39.9436 23.876 40.0423 23.876 40.0846 23.876H40.1269C40.1269 23.876 40.1973 23.8478 40.1973 23.8337C40.2114 23.8337 40.2114 23.8196 40.2255 23.7914C40.2678 23.7351 40.2819 23.6928 40.2537 23.6505L40.1691 23.4814C40.1128 23.3545 40.0423 23.2277 39.9859 23.0867C39.9154 22.9458 39.8591 22.8048 39.7886 22.6639L39.7322 22.5229C39.5772 22.1706 39.3799 21.7336 39.1684 21.339C38.661 20.3947 37.8577 19.9014 36.857 19.8873C35.377 19.8873 33.7844 19.8873 31.8393 19.8873" fill="currentColor"/>
<path d="M5.51089 39.3518C5.18672 39.2249 4.9753 39.0135 4.86255 38.7175V37.2376C4.86255 37.2376 4.87664 37.1953 4.89074 37.1812C4.91893 37.0967 4.94712 37.0121 4.96121 36.9275C5.17263 36.0537 5.90554 35.4758 6.80758 35.4476C6.82167 35.4476 6.84986 35.4476 6.86396 35.4476C6.89215 35.4476 6.90624 35.4476 6.93443 35.4476C6.93443 35.4476 6.94852 35.4476 6.96262 35.4476C7.019 35.4476 7.06128 35.4476 7.10356 35.4476C7.30089 35.4476 7.45592 35.3912 7.56868 35.2785C7.73781 35.1093 7.766 34.8416 7.766 34.6583C7.766 33.3194 7.766 31.9522 7.766 30.6414V28.344C7.766 27.6111 7.766 26.8782 7.766 26.1453C7.766 25.6802 7.94923 25.6802 8.0338 25.6802C8.11836 25.6802 8.31568 25.6802 8.31568 26.1312V34.5879C8.31568 35.3349 8.42844 35.4476 9.18954 35.4476H9.2882C9.45733 35.4476 9.61237 35.4476 9.78151 35.4476C9.90836 35.4476 10.0493 35.4476 10.1761 35.4476C10.3594 35.4476 10.5144 35.3912 10.6131 35.2785C10.7117 35.1657 10.7681 35.0248 10.7681 34.8416C10.7681 34.7711 10.7681 34.6865 10.7681 34.616C10.7681 34.5597 10.7681 34.5174 10.7681 34.461V2.11428C10.7681 1.95924 10.7681 1.8042 10.754 1.63507C10.6695 1.01491 10.1762 0.577984 9.556 0.577984H9.52781C8.90765 0.592079 8.41435 1.0431 8.35797 1.69144C8.34387 1.84648 8.35797 1.98743 8.35797 2.12837V2.25522V22.8331C8.35797 22.8754 8.35797 22.9177 8.35797 22.9599C8.35797 23.0868 8.35797 23.1996 8.35797 23.2841C8.32978 23.4392 8.24521 23.4955 8.09017 23.4955C7.92104 23.4955 7.85057 23.4392 7.83647 23.27C7.82238 23.1573 7.82238 23.0445 7.82238 22.9318V17.2517C7.82238 12.1636 7.82238 7.07552 7.82238 1.98743C7.82238 1.36727 7.93513 0.972629 8.18883 0.648457C8.5412 0.211529 9.0486 -0.0280762 9.58418 -0.0280762C9.78151 -0.0280762 9.96473 0.000112695 10.148 0.0705849C10.8527 0.31019 11.3037 0.930345 11.346 1.69144C11.3742 2.42436 11.4869 2.52302 12.2198 2.52302C12.2198 2.52302 12.9246 2.52302 13.0514 2.52302C13.1783 2.52302 13.3192 2.52302 13.4602 2.52302C13.7139 2.52302 14.0098 2.42436 14.0662 1.98743C14.1508 1.38137 14.3763 1.19814 14.9824 1.19814C17.0401 1.19814 19.0838 1.19814 21.1416 1.19814C23.0726 1.19814 25.0035 1.19814 26.9485 1.19814C27.6251 1.19814 27.9069 1.48003 27.921 2.15656C27.921 2.91766 27.921 3.69285 27.921 4.45395C27.921 4.76403 27.921 5.07411 27.921 5.39828C27.921 5.39828 27.921 11.7972 27.921 13.8549C27.921 14.7993 27.6673 15.053 26.723 15.053H15.1515C14.7427 15.053 14.4609 15.0107 14.2635 14.757C14.1931 14.6724 14.1367 14.5738 14.0944 14.461C14.0803 14.4187 14.0662 14.3482 14.0521 14.2919C14.0239 14.1227 13.9957 13.9113 13.8125 13.8127C13.6011 13.6999 13.3615 13.6999 13.1501 13.6999C13.1078 13.6999 13.0514 13.6999 13.0091 13.6999C12.9246 13.6999 12.8259 13.6999 12.7413 13.6999C12.6568 13.6999 12.5581 13.6999 12.4594 13.6999C12.3608 13.6999 12.2762 13.6999 12.1776 13.6999C12.1776 13.6999 12.0507 13.6999 11.9943 13.6999C11.9943 13.6999 11.9802 13.6999 11.9661 13.6999C11.7547 13.6999 11.5856 13.7563 11.4728 13.8831C11.3601 13.9959 11.3037 14.165 11.3178 14.3623C11.3178 14.4328 11.3178 14.5174 11.3178 14.5879C11.3178 14.6301 11.3178 14.6865 11.3178 14.7429V34.4187C11.3178 34.4892 11.3178 34.5597 11.3178 34.6442C11.3178 34.7147 11.3178 34.7852 11.3178 34.8556C11.3178 35.208 11.5433 35.4335 11.9098 35.4476C11.9661 35.4476 12.0225 35.4476 12.0789 35.4476C12.2903 35.4476 12.4876 35.4476 12.6709 35.4899C13.5588 35.7013 14.1367 36.4483 14.179 37.449C14.179 37.5618 14.179 37.6886 14.179 37.8014C14.179 37.9564 14.179 38.1115 14.179 38.2665C14.2213 38.8585 14.038 39.1967 13.5588 39.3518H5.51089ZM9.52781 35.9691C8.63986 35.9691 7.75191 35.9691 6.87805 35.9832C6.06058 35.9832 5.51089 36.5611 5.4968 37.4067C5.4968 37.5477 5.4968 37.6886 5.4968 37.8296V37.9282C5.4968 38.6048 5.60955 38.7316 6.28609 38.7316H12.2762C12.8682 38.7316 13.1642 38.7316 13.3615 38.5343C13.5588 38.3229 13.5588 38.041 13.5447 37.449C13.5447 36.5752 12.9809 36.0114 12.1353 35.9973C11.2473 35.9973 10.3735 35.9973 9.51371 35.9973M15.3347 1.76192C14.6864 1.76192 14.5313 1.90286 14.5313 2.53711C14.5313 3.65057 14.5313 4.77813 14.5313 5.89159C14.5313 8.45677 14.5313 11.1065 14.5313 13.714C14.5313 13.8972 14.5454 14.1227 14.7146 14.2919C14.8837 14.461 15.1092 14.4751 15.2924 14.4751H15.3065C16.0817 14.4751 16.8851 14.4751 17.9422 14.4751C18.4355 14.4751 20.3946 14.4751 20.8738 14.4751H26.4411C27.1177 14.4751 27.2445 14.3623 27.2445 13.6858C27.2445 9.96488 27.2445 6.25804 27.2445 2.53711C27.2445 1.87467 27.1177 1.74782 26.4693 1.74782C24.5384 1.74782 22.6074 1.74782 20.6765 1.74782C18.8865 1.74782 17.1106 1.74782 15.3206 1.74782M13.0796 13.1502C13.1783 13.1502 13.2769 13.1502 13.3615 13.1502H13.4038C13.587 13.1502 13.742 13.0938 13.8548 12.9952C13.9676 12.8824 14.0098 12.7274 14.0098 12.5301C14.0098 12.2059 14.0098 11.8676 14.0098 11.5294C14.0098 11.332 13.9535 11.1629 13.8548 11.0642C13.742 10.9515 13.587 10.8951 13.3897 10.8951C13.2628 10.8951 13.1501 10.8951 13.0514 10.8951C12.9105 10.8951 12.2198 10.8951 12.2198 10.8951C11.8252 10.8951 11.6138 10.8951 11.4446 11.0501C11.2755 11.2052 11.2896 11.4448 11.2896 11.8112C11.2896 11.9522 11.2896 12.0931 11.2896 12.2059C11.2896 12.6428 11.2896 12.8542 11.4446 13.0093C11.5715 13.1502 11.7688 13.1502 11.952 13.1502C11.9943 13.1502 12.0507 13.1502 12.1212 13.1502C12.1917 13.1502 12.2762 13.1502 12.3608 13.1502C12.4172 13.1502 12.4735 13.1502 12.544 13.1502C12.544 13.1502 13.0232 13.1502 13.0937 13.1502M12.6568 10.3313C12.8682 10.3313 13.0796 10.3313 13.3051 10.3313H13.3474C13.5729 10.3313 13.7279 10.275 13.8407 10.1622C13.9535 10.0353 14.0098 9.86622 14.0098 9.64071C14.0098 9.28834 14.0098 8.93598 14.0098 8.58362C14.0098 8.42858 14.0098 8.28764 14.0098 8.1326C14.0098 8.1326 14.0098 8.11851 14.0098 8.10441V7.68158C14.0098 7.31512 14.0098 6.94867 14.0098 6.58221C14.0098 6.3708 13.9676 6.21576 13.8548 6.103C13.7561 5.99025 13.6011 5.94796 13.4038 5.94796H13.3756C13.136 5.94796 12.8964 5.94796 12.6568 5.94796C12.4172 5.94796 12.1917 5.94796 11.952 5.94796H11.9098C11.7124 5.94796 11.5574 6.00434 11.4446 6.103C11.3319 6.21576 11.2755 6.3708 11.2755 6.58221C11.2755 7.56882 11.2755 8.62591 11.2755 9.69708C11.2755 9.89441 11.3319 10.0635 11.4446 10.1622C11.5574 10.275 11.7124 10.3313 11.9239 10.3313H11.952C12.1917 10.3313 12.4172 10.3313 12.6568 10.3313ZM13.0937 5.356C13.1924 5.356 13.291 5.356 13.3897 5.356H13.4179C13.587 5.356 13.742 5.29962 13.8407 5.20096C13.9394 5.1023 13.9957 4.94726 13.9957 4.77813V4.70765C13.9957 4.39758 13.9957 4.05931 13.9957 3.73514C13.9957 3.53782 13.9535 3.39687 13.8407 3.28412C13.7279 3.17136 13.587 3.11498 13.3897 3.11498C13.2065 3.11498 13.0373 3.11498 12.8541 3.11498C12.6568 3.11498 12.4735 3.11498 12.2762 3.11498H12.1776C11.3883 3.11498 11.2755 3.24183 11.2614 4.01703C11.2614 4.63718 11.2614 4.93316 11.4728 5.14458C11.6702 5.3419 11.9802 5.356 12.4876 5.356H13.0937Z" fill="currentColor"/>
<path d="M18.6751 12.53C18.6751 12.53 18.4637 12.53 18.4073 12.2763C18.3792 12.1635 18.3792 12.0367 18.3792 11.8957C18.3792 10.8668 18.3792 9.85203 18.3792 8.82313V6.73716C18.3792 5.80692 18.3792 4.87669 18.3792 3.94646C18.3792 3.39678 18.4355 3.35449 18.9711 3.35449C18.9711 3.35449 19.9295 3.35449 20.1691 3.35449C20.5074 3.35449 20.8457 3.35449 21.198 3.35449C22.6216 3.38268 23.8055 4.52433 23.8337 5.90558C23.876 7.41369 22.8048 8.62581 21.3672 8.72447C20.8739 8.75266 20.3806 8.78085 19.8873 8.78085C19.8168 8.78085 19.6758 8.78085 19.6758 8.78085C19.5067 8.78085 19.2953 8.79494 19.1402 8.94998C18.9852 9.10502 18.9852 9.31644 18.9852 9.45738C18.9852 10.0775 18.9852 10.6977 18.9852 11.3038V11.9521C18.9852 12.0508 18.9852 12.1494 18.9711 12.234C18.9147 12.5018 18.7597 12.5018 18.6892 12.5018L18.6751 12.53ZM18.9852 6.52574C18.9852 6.89219 18.9852 7.25865 18.9852 7.6251C18.9852 7.80833 19.0275 7.94928 19.1262 8.06203C19.2248 8.16069 19.3658 8.21707 19.549 8.21707C19.6899 8.21707 19.8027 8.21707 19.9295 8.21707H20.6343C20.8034 8.21707 20.9725 8.21707 21.1276 8.21707C22.241 8.18888 23.1572 7.34322 23.2699 6.24385C23.3827 5.20086 22.5793 4.17197 21.5222 4.00284C21.1417 3.94646 20.7611 3.93236 20.3101 3.93236H19.8591C19.7463 3.93236 19.6195 3.93236 19.5067 3.93236H19.4926C19.3376 3.93236 19.2107 3.97465 19.1262 4.07331C18.9852 4.21425 18.9711 4.39748 18.9711 4.52433C18.9711 4.90488 18.9711 5.27134 18.9711 5.65188V6.08881C18.9711 6.08881 18.9711 6.117 18.9711 6.1311V6.55393L18.9852 6.52574Z" fill="currentColor"/>
<path d="M50.7118 39.394H0V40.0001H50.7118V39.394Z" fill="currentColor"/>
</g>
<defs>
<clipPath id="clip0_624_826">
<rect width="50.7118" height="40" fill="white"/>
</clipPath>
</defs>
</svg>
