<?xml version="1.0" encoding="UTF-8"?>
<svg id="Layer_1" xmlns="http://www.w3.org/2000/svg" viewBox="0 0 100 100">
  <defs>
    <style>
      .cls-1 {
        fill: currentColor;
      }
    </style>
  </defs>
  <path class="cls-1" d="M9.5,79.1c-.2,0-.3,0-.5,0-2.4-.8-4.6-1.8-6.8-3-.5-.3-.8-.8-.8-1.4V16.6c0-.6.3-1.1.8-1.4.5-.3,1.1-.3,1.6,0,13.8,8,27.6,3.3,42.1-1.8,14.8-5.1,30-10.4,45.3-1.2.5.3.8.8.8,1.4v9.8c0,.5-.3,1-.7,1.3-.4.3-1,.4-1.5.2-12-4.1-23.8,0-36.4,4.3-13.8,4.8-28,9.7-42.4,2.8v45.4c0,.5-.3,1-.7,1.3-.3.2-.6.3-1,.3h0ZM4.7,73.6c1,.6,2.1,1.1,3.2,1.5V29.3c0-.6.3-1.1.8-1.4.5-.3,1.1-.3,1.6,0,13.8,8,27.6,3.3,42.1-1.7,11.8-4.1,24.1-8.3,36.4-5v-6.6c-13.7-7.7-27.3-3-41.8,1.9-13.8,4.8-28,9.7-42.4,2.8v54.3h0Z"/>
  <path class="cls-1" d="M68.8,82.5c-.6,0-1.1-.3-1.4-.8-.4-.6-.2-1.4.3-1.9l28.2-28.2c.5-.5,1.2-.6,1.8-.4.6.3,1,.8,1,1.5v12.5c0,.4-.2.8-.5,1.2l-14.5,14.5c-.3.3-.8.5-1.3.5-4-.3-8.3,0-13.2,1.2-.1,0-.2,0-.4,0h0ZM95.3,56.6l-21.7,21.7c2.9-.4,5.6-.5,8.2-.3l13.5-13.5v-7.9Z"/>
  <path class="cls-1" d="M81.8,38.6c-.4,0-.8-.2-1.2-.5-.6-.6-.6-1.7,0-2.3l1.9-1.9c.6-.6,1.7-.6,2.3,0,.6.6.6,1.7,0,2.3l-1.9,1.9c-.3.3-.7.5-1.2.5Z"/>
  <path class="cls-1" d="M53,67.4c-.4,0-.8-.2-1.2-.5-.6-.6-.6-1.7,0-2.3l3.2-3.2c.6-.6,1.7-.6,2.3,0,.6.6.6,1.7,0,2.3l-3.2,3.2c-.3.3-.7.5-1.2.5ZM62.6,57.8c-.4,0-.8-.2-1.2-.5-.6-.6-.6-1.7,0-2.3l3.2-3.2c.6-.6,1.7-.6,2.3,0,.6.6.6,1.7,0,2.3l-3.2,3.2c-.3.3-.7.5-1.2.5ZM72.2,48.2c-.4,0-.8-.2-1.2-.5-.6-.6-.6-1.7,0-2.3l3.2-3.2c.6-.6,1.7-.6,2.3,0,.6.6.6,1.7,0,2.3l-3.2,3.2c-.3.3-.7.5-1.2.5Z"/>
  <path class="cls-1" d="M44.8,75.7c-.4,0-.8-.2-1.2-.5-.6-.6-.6-1.7,0-2.3l1.9-1.9c.6-.6,1.7-.6,2.3,0,.6.6.6,1.7,0,2.3l-1.9,1.9c-.3.3-.7.5-1.2.5Z"/>
  <path class="cls-1" d="M27.9,92.5c-.7,0-1.2-.4-1.5-1-.3-.6-.1-1.3.3-1.8l16.9-16.9c.6-.6,1.7-.6,2.3,0,.6.6.6,1.7,0,2.3l-14,14h4.4c1.5-.5,3.1-.9,4.9-1.4l54.1-54.1v-6.4c-.3-.2-.6-.4-1-.5l-9.5,9.5c-.6.6-1.7.6-2.3,0-.6-.6-.6-1.7,0-2.3l10.3-10.3c.5-.5,1.2-.6,1.9-.3,1.1.5,2.1,1.1,3.1,1.7.5.3.8.8.8,1.4v8c0,.4-.2.8-.5,1.2l-54.9,54.9c-.2.2-.4.3-.7.4-2,.6-3.9,1-5.6,1.4,0,0-.2,0-.3,0l-8.7.3s0,0,0,0h0Z"/>
  <path class="cls-1" d="M11.9,90.2c-.2,0-.5,0-.7-.2-.9-.4-1.7-.9-2.5-1.3-.5-.3-.8-.8-.8-1.4v-8.9c0-.4.2-.8.5-1.2L62.6,23c.2-.2.4-.3.7-.4,6-1.7,10.9-2.6,15.5-2.7.6,0,1.3.4,1.5,1,.3.6.1,1.3-.3,1.8L13.1,89.7c-.3.3-.7.5-1.2.5h0ZM11.2,86.3c.1,0,.3.1.4.2l63-63c-3,.4-6.3,1.1-10,2.1L11.2,79.1v7.3Z"/>
  <path class="cls-1" d="M9.5,61.7c-.2,0-.4,0-.6-.1-.6-.3-1-.8-1-1.5v-12.5c0-.4.2-.8.5-1.2l13.8-13.8c.3-.3.8-.5,1.3-.5,4,.3,8.3,0,13.2-1.1.7-.2,1.4.2,1.8.8.4.6.2,1.4-.3,1.9l-27.5,27.5c-.3.3-.7.5-1.2.5ZM11.2,48.2v7.9l21-21c-2.9.4-5.6.5-8.2.3l-12.8,12.8Z"/>
  <path class="cls-1" d="M19.7,92.8c-.1,0-.2,0-.3,0-3.7-.7-7.3-2.1-10.7-4.1-.5-.3-.8-.8-.8-1.4V29.3c0-.6.3-1.1.8-1.4.5-.3,1.1-.3,1.6,0,13.8,8,27.6,3.3,42.1-1.8,14.8-5.1,30-10.4,45.3-1.2.5.3.8.8.8,1.4v58c0,.6-.3,1.1-.8,1.4-.5.3-1.1.3-1.6,0-14-8.4-27.9-3.6-42.6,1.5-5.4,1.9-11.1,3.8-16.6,5-.9.2-1.8-.4-1.9-1.3-.2-.9.4-1.8,1.3-1.9,5.4-1.1,10.9-3.1,16.3-4.9,14-4.8,28.4-9.8,42.8-2.6V27.3c-13.7-7.7-27.4-3-41.8,1.9-13.8,4.8-28,9.7-42.4,2.8v54.3c2.9,1.6,5.8,2.6,8.9,3.2.9.2,1.5,1,1.3,1.9-.2.8-.8,1.3-1.6,1.3h0Z"/>
</svg>