<svg width="200" height="200" viewBox="0 0 200 200" fill="none" xmlns="http://www.w3.org/2000/svg">
<path d="M43.75 25V43.75H62.5V25H43.75ZM62.5 43.75V62.5H81.25V43.75H62.5ZM81.25 43.75H100V25H81.25V43.75ZM100 43.75V62.5H118.75V43.75H100ZM118.75 43.75H137.5V25H118.75V43.75ZM137.5 43.75V62.5H156.25V43.75H137.5ZM156.25 43.75H175V25H156.25V43.75ZM156.25 62.5V81.25H175V62.5H156.25ZM156.25 81.25H137.5V100H156.25V81.25ZM156.25 100V118.75H175V100H156.25ZM156.25 118.75H137.5V137.5H156.25V118.75ZM156.25 137.5V156.25H175V137.5H156.25ZM156.25 156.25H137.5V175H156.25V156.25ZM137.5 156.25V137.5H118.75V156.25H137.5ZM118.75 156.25H100V175H118.75V156.25ZM100 156.25V137.5H81.25V156.25H100ZM81.25 156.25H62.5V175H81.25V156.25ZM62.5 156.25V137.5H43.75V156.25H62.5ZM43.75 156.25H25V175H43.75V156.25ZM43.75 137.5V118.75H25V137.5H43.75ZM43.75 118.75H62.5V100H43.75V118.75ZM43.75 100V81.25H25V100H43.75ZM43.75 81.25H62.5V62.5H43.75V81.25ZM43.75 62.5V43.75H25V62.5H43.75ZM62.5 81.25V100H81.25V81.25H62.5ZM81.25 81.25H100V62.5H81.25V81.25ZM100 81.25V100H118.75V81.25H100ZM118.75 81.25H137.5V62.5H118.75V81.25ZM118.75 100V118.75H137.5V100H118.75ZM118.75 118.75H100V137.5H118.75V118.75ZM100 118.75V100H81.25V118.75H100ZM81.25 118.75H62.5V137.5H81.25V118.75Z" fill="currentColor"/>
</svg>
