<?xml version="1.0" encoding="UTF-8"?>
<svg id="Layer_1" xmlns="http://www.w3.org/2000/svg" viewBox="0 0 100 100">
  <defs>
    <style>
      .cls-1 {
        fill: currentColor;
      }
    </style>
  </defs>
  <path class="cls-1" d="M72.6,65.2l-10-.9-.3-4.9c6.1-3.9,9.9-10.5,10.4-17.7v-.3c3.2-.4,5.6-3.2,5.7-6.4,0-2.9-2-5.5-4.9-6.3h0c1-.8,1.7-2,1.7-3.2l.6-18.3c.1-3.6-2.7-6.6-6.3-6.7,0,0-.2,0-.2,0H30.6c-3.6,0-6.5,2.9-6.5,6.5,0,0,0,.2,0,.2l.6,18.3c0,1.3.7,2.5,1.8,3.2-2.9.7-4.9,3.3-4.9,6.3,0,3.3,2.5,6,5.7,6.4v.3c.5,7.2,4.3,13.7,10.3,17.6l-.3,5-10,.9c-11.1,1-19.6,10.3-19.6,21.5v11.6c0,.8.7,1.5,1.5,1.5h81.5c.8,0,1.5-.7,1.5-1.5h0v-11.6c0-11.2-8.5-20.5-19.6-21.5h0ZM28.8,26.3c-.6,0-1-.4-1-1v-1.1s44.6,0,44.6,0v1.1c0,.6-.5,1-1.1,1H28.8ZM75.4,34.9c0,1.6-1,2.9-2.5,3.4l.4-6.6c1.3.6,2.1,1.8,2.1,3.3ZM28.1,4.4c.7-.7,1.6-1.1,2.6-1.1h38.7c2,0,3.6,1.6,3.6,3.6,0,0,0,0,0,.1l-.5,14.3H27.6l-.5-14.3c0-1,.3-1.9,1-2.6h0ZM25.6,37.4c-.7-.7-1-1.6-1-2.5,0-1.4.9-2.7,2.2-3.3l.4,6.7c-.6-.2-1.1-.5-1.6-.9h0ZM30.3,41.4l-.8-12.2h41l-.7,12.2c-.7,10.9-10,19.2-20.9,18.6-10-.6-18-8.6-18.6-18.6h0ZM50,62.9c3.3,0,6.5-.7,9.5-2.1l.3,4.3c-1.5,2.2-4.9,4-9.7,5.4-5-1.4-8.4-3.3-9.8-5.5l.3-4.3c3,1.4,6.2,2.1,9.5,2.1h0ZM10.7,86.6c0-9.6,7.3-17.7,16.9-18.6l10.4-1c1.4,1.8,3.6,3.4,6.6,4.7-1.9.3-3.9.6-6,.8-3.3.3-5.8,3.1-5.8,6.5v17.6H10.7v-10.1ZM89.3,96.7h-53.5v-17.6c0-1.8,1.4-3.3,3.2-3.5,8.4-.9,19-3.1,23-8.4l10.4,1c9.6.8,17,8.9,16.9,18.6v10.1Z"/>
  <path class="cls-1" d="M14.5,83.5c-.8,0-1.5.5-1.6,1.3,0,0,0,0,0,0,0,.6-.1,1.2-.1,1.8v2.2c0,.8.7,1.5,1.5,1.5s1.5-.7,1.5-1.5h0v-2.2c0-.5,0-1,0-1.5,0-.8-.5-1.5-1.3-1.6Z"/>
  <path class="cls-1" d="M74.9,81.6h-10.1c-.8,0-1.5.7-1.5,1.5s.7,1.5,1.5,1.5h10.1c.8,0,1.5-.7,1.5-1.5s-.7-1.5-1.5-1.5Z"/>
  <path class="cls-1" d="M50,76.6c-2.2,0-4,1.8-4,4s1.8,4,4,4,4-1.8,4-4c0-2.2-1.8-4-4-4ZM50,81.6c-.6,0-1-.5-1-1s.5-1,1-1,1,.5,1,1c0,.6-.5,1-1,1Z"/>
  <path class="cls-1" d="M50,86.7c-2.2,0-4,1.8-4,4s1.8,4,4,4,4-1.8,4-4c0-2.2-1.8-4-4-4ZM50,91.7c-.6,0-1-.5-1-1s.5-1,1-1,1,.5,1,1c0,.6-.5,1-1,1Z"/>
</svg>