<?xml version="1.0" encoding="UTF-8"?>
<svg id="Capa_1" xmlns="http://www.w3.org/2000/svg" viewBox="0 0 100 100">
  <defs>
    <style>
      .cls-1 {
        fill: currentColor;
      }
    </style>
  </defs>
  <path class="cls-1" d="M68.2,75.6l-5.1-5.1-4,4,9.1,9.1,12.7-12.7-4-4-8.7,8.7Z"/>
  <path class="cls-1" d="M22.1,22.9h16.9v5.6h-16.9v-5.6Z"/>
  <path class="cls-1" d="M78.4,56.3V20.6L59.9,2H10.8v90.3h48.1c3.3,2.5,7.2,4.4,11,5.7,1.2-.4,19-5.9,19.2-19.4v-17l-10.7-5.3ZM61.5,11.6l7.3,7.3h-7.3v-7.3ZM16.4,86.7V7.6h39.5v16.9h16.9v30.6h-9.1l-12.9,6.4v17c0,2.9.9,5.6,2.6,8.1H16.4ZM70,92c-4.1-1.5-13.8-6.7-13.6-13.4v-13.5l8.6-4.2h10l8.6,4.2v13.5c.2,5.5-7,10.9-13.6,13.4h0Z"/>
  <path class="cls-1" d="M22.1,38.7h45.1v5.6H22.1v-5.6Z"/>
  <path class="cls-1" d="M22.1,50h28.2v5.6h-28.2v-5.6Z"/>
  <path class="cls-1" d="M22.1,65.8h16.9v5.6h-16.9v-5.6Z"/>
</svg>