<svg width="200" height="200" viewBox="0 0 200 200" fill="none" xmlns="http://www.w3.org/2000/svg">
<mask id="mask0_2528_6159" style="mask-type:luminance" maskUnits="userSpaceOnUse" x="0" y="35" width="200" height="129">
<path d="M200 35H0V163.596H200V35Z" fill="white"/>
</mask>
<g mask="url(#mask0_2528_6159)">
<path d="M77.3934 136.476H79.1226C79.4178 136.476 79.713 136.476 80.0082 136.476C80.9785 136.476 81.5267 137.024 81.5689 137.994V138.206C81.6111 139.386 81.6534 140.061 81.2315 140.525C80.8097 140.947 80.1348 140.989 78.996 140.989H70.5186C70.5186 143.73 70.5186 146.472 70.5186 149.256C74.4411 149.256 78.4056 149.256 82.3282 149.256C82.7078 148.412 83.1715 147.611 83.6356 146.851C83.256 146.851 82.9185 146.851 82.5389 146.851C82.5389 146.851 80.5145 146.851 80.0926 146.851C79.9663 146.851 79.8397 146.809 79.7552 146.683C79.6708 146.599 79.6289 146.472 79.6289 146.303L79.9241 143.941C79.9241 143.941 80.0926 143.604 80.2615 143.562L80.5989 143.477C80.8519 143.393 81.1048 143.351 81.4 143.267C82.3282 142.971 83.5089 142.297 83.8463 140.778C84.1415 139.471 84.1837 138.374 83.973 137.362C83.003 136.434 82.033 135.464 81.2315 134.452C81.0626 134.199 80.9363 133.988 80.7674 133.735C80.2615 133.946 79.6289 134.03 79.46 134.03C76.4656 134.03 73.5134 134.03 70.5186 134.03C70.5186 134.831 70.5186 135.675 70.5186 136.476H77.4356H77.3934ZM77.1404 146.303C77.1404 146.556 76.9297 146.725 76.6763 146.725H73.26C73.0071 146.725 72.7963 146.514 72.7963 146.261V143.941C72.7963 143.688 73.0071 143.477 73.26 143.477H76.9297C76.9297 143.477 77.1826 143.52 77.2671 143.646C77.3511 143.73 77.3934 143.857 77.3934 144.026L77.0982 146.346L77.1404 146.303Z" fill="currentColor"/>
<path d="M68.5363 155.92C68.5363 155.118 68.5363 154.274 68.5363 153.431H63.3066C63.3066 154.274 63.3066 155.076 63.3066 155.92H68.5363Z" fill="currentColor"/>
<path d="M63.3066 146.725C63.3066 147.568 63.3066 148.37 63.3066 149.213C65.0359 149.213 66.807 149.213 68.5363 149.213C68.5363 148.412 68.5363 147.568 68.5363 146.725H63.3066Z" fill="currentColor"/>
<path d="M65.0363 136.476H68.5789C68.5789 135.675 68.5789 134.873 68.5789 134.03C66.8496 134.03 65.0781 134.03 63.3489 134.03C63.3489 134.831 63.3489 135.675 63.3489 136.476C63.9396 136.476 64.4878 136.476 65.0781 136.476H65.0363Z" fill="currentColor"/>
<path d="M61.4089 155.92C61.4089 155.076 61.4089 154.274 61.4089 153.431H56.4741C56.4741 154.274 56.4741 155.076 56.4741 155.92H61.4089Z" fill="currentColor"/>
<path d="M84.4789 149.593C84.8164 149.93 84.8164 150.437 84.8164 150.774C84.8164 151.111 84.8164 151.407 84.8164 151.66C84.8164 152.798 84.8164 153.431 83.4667 153.431H83.0027C83.0027 153.431 82.9182 153.431 82.876 153.431C82.623 154.233 82.3701 154.991 82.2012 155.877H82.6652C82.9604 155.877 83.2556 155.877 83.593 155.877C85.9549 155.877 87.2204 154.57 87.2623 152.25C87.2623 151.533 87.2623 150.858 87.2623 150.141C87.2623 148.834 86.5875 147.821 85.5753 147.273C85.1115 147.99 84.7741 148.75 84.3945 149.551C84.3945 149.551 84.4789 149.551 84.4789 149.593Z" fill="currentColor"/>
<path d="M61.4089 136.476C61.4089 135.675 61.4089 134.873 61.4089 134.03H56.4741C56.4741 134.831 56.4741 135.675 56.4741 136.476C58.1193 136.476 59.7641 136.476 61.4089 136.476Z" fill="currentColor"/>
<path d="M54.5341 136.476C54.5341 135.675 54.5341 134.873 54.5341 134.03H49.2622C49.2622 134.831 49.2622 135.675 49.2622 136.476C51.0337 136.476 52.8048 136.476 54.5341 136.476Z" fill="currentColor"/>
<path d="M56.4741 146.725C56.4741 147.568 56.4741 148.37 56.4741 149.213C58.1193 149.213 59.7641 149.213 61.4089 149.213C61.4089 148.37 61.4089 147.568 61.4089 146.725H56.4741Z" fill="currentColor"/>
<path d="M56.516 129.517C56.516 129.517 56.7693 129.517 56.8956 129.517C57.5704 129.433 57.95 129.095 57.9923 128.42C58.0345 127.746 57.7393 127.366 57.0645 127.155C56.8956 127.113 56.6848 127.113 56.4319 127.113C56.4319 127.914 56.4319 128.716 56.4319 129.559H56.4741L56.516 129.517Z" fill="currentColor"/>
<path d="M49.2622 146.725C49.2622 147.568 49.2622 148.412 49.2622 149.213C51.0337 149.213 52.7629 149.213 54.5341 149.213C54.5341 148.412 54.5341 147.568 54.5341 146.725H49.2622Z" fill="currentColor"/>
<path d="M56.4741 140.947C56.4741 141.79 56.4741 142.634 56.4741 143.477H61.4089C61.4089 142.634 61.4089 141.79 61.4089 140.947H56.4741Z" fill="currentColor"/>
<path d="M54.5341 155.92C54.5341 155.118 54.5341 154.274 54.5341 153.431C52.8048 153.431 51.0337 153.431 49.2622 153.431C49.2622 154.274 49.2622 155.118 49.2622 155.92H54.5341Z" fill="currentColor"/>
<path d="M49.2622 140.947C49.2622 141.79 49.2622 142.634 49.2622 143.477H54.5341C54.5341 142.634 54.5341 141.79 54.5341 140.947H49.2622Z" fill="currentColor"/>
<path d="M63.3066 140.947C63.3066 141.79 63.3066 142.634 63.3066 143.477H68.5363C68.5363 142.634 68.5363 141.79 68.5363 140.947H63.3066Z" fill="currentColor"/>
<path d="M54.5341 129.517C54.5341 128.716 54.5341 127.914 54.5341 127.071H49.2622C49.2622 127.872 49.2622 128.674 49.2622 129.517H54.5341Z" fill="currentColor"/>
<path d="M70.6026 129.517C73.2178 129.517 75.8748 129.517 78.4896 129.517C78.1945 128.716 77.9837 127.914 77.8148 127.071C76.8026 127.071 75.7059 126.987 74.3985 126.987C73.3019 126.987 72.2056 126.987 71.0667 126.987C70.8559 126.987 70.6871 126.987 70.4763 126.987C70.4763 127.788 70.4763 128.632 70.4763 129.433H70.6026V129.517Z" fill="currentColor"/>
<path d="M81.2315 130.234C81.3156 130.614 81.3156 130.909 81.3578 131.246C81.9485 132.301 82.6652 133.355 83.5511 134.367C84.0571 133.186 84.0148 131.963 83.9308 130.614V130.107C83.8463 129.39 83.9308 128.8 84.1837 128.378C84.7741 127.282 85.4067 126.058 86.2504 125.004C87.2204 123.781 88.0641 123.233 88.9919 123.233C89.9197 123.233 90.7634 123.823 91.7334 125.046C92.5345 126.101 93.2937 127.324 93.9263 128.674C95.8245 132.723 97.1319 137.32 97.9752 143.14C98.5237 146.767 98.9034 150.647 98.2285 154.612C97.596 158.366 95.6556 160.095 91.9019 160.179C91.3537 160.179 90.7634 160.179 90.2148 160.179C88.1059 160.179 86.2082 160.095 84.3945 159.926C83.34 159.842 82.4967 159.462 81.8219 158.872C81.7374 159.547 81.6111 160.137 81.5689 160.854C81.5267 161.656 81.2737 162.077 80.8941 162.33H80.2193C79.7552 161.908 79.6285 161.402 79.6708 160.39C79.8397 157.817 80.2611 155.54 80.8519 153.389C77.3934 153.389 73.9348 153.389 70.5185 153.389C70.5185 154.232 70.5185 155.034 70.5185 155.877H72.3745C72.6274 155.877 72.8382 156.088 72.8382 156.341V160.095C72.8382 160.348 72.6274 160.559 72.3745 160.559H70.4763C70.4763 161.402 70.3078 161.908 69.9282 162.33H69.1267C68.7048 161.951 68.6208 161.36 68.5785 160.559H63.3485C63.3485 161.487 63.18 161.951 62.7159 162.33H62.0411C61.5771 161.951 61.4085 161.487 61.4085 160.601H56.4737C56.4737 161.487 56.3052 161.993 55.8834 162.373H55.2085C54.7867 162.077 54.5759 161.697 54.5759 160.812C54.5759 160.77 54.5759 160.685 54.5759 160.601H49.3041C49.3041 161.613 49.1352 162.077 48.6711 162.373H47.9541C47.5748 161.993 47.4059 161.487 47.3637 160.601H41.9652C41.7122 160.601 41.5011 160.39 41.5011 160.137V156.383C41.5011 156.13 41.7122 155.919 41.9652 155.919H47.3637C47.3637 155.076 47.3637 154.274 47.3637 153.431C40.6578 153.431 34.1626 153.431 30.8307 153.431C29.0593 153.431 28.8484 153.22 28.8484 151.449V151.196C28.8484 151.196 28.8484 150.9 28.8484 150.732C28.8062 150.268 28.8484 149.888 29.1015 149.635C29.4389 149.256 29.9028 149.213 30.3668 149.213C36.0605 149.213 41.7122 149.213 47.4059 149.213C47.4059 148.37 47.4059 147.568 47.4059 146.725H44.6222C44.3693 146.725 44.1585 146.514 44.1585 146.261V143.941C44.1585 143.688 44.3693 143.477 44.6222 143.477H47.4059C47.4059 142.634 47.4059 141.79 47.4059 140.947C43.0196 140.947 38.6334 140.947 34.247 140.947C33.8674 140.947 32.4334 140.736 32.3069 140.019C32.1803 139.133 32.2225 138.163 32.4756 137.151C32.6021 136.729 33.2348 136.518 34.3313 136.518C38.6756 136.518 43.0619 136.518 47.4059 136.518C47.4059 135.717 47.4059 134.873 47.4059 134.072H42.2182C39.5189 134.072 36.7775 134.072 34.0783 134.072C33.6143 134.072 32.5178 133.988 32.4334 133.44C32.2647 132.638 32.096 131.584 32.2647 130.571C32.3912 129.854 33.783 129.601 34.2048 129.601C38.5911 129.601 42.9774 129.601 47.3637 129.601C47.3637 128.8 47.3637 127.999 47.3637 127.155H43.0196C43.0196 127.155 42.7245 127.071 42.64 126.944C42.5556 126.818 42.5556 126.649 42.5978 126.523C45.0863 120.365 45.0019 113.87 42.3026 108.176C39.6878 102.651 34.7109 98.3489 29.0593 96.6196C26.9505 95.987 24.7573 95.6496 22.5641 95.6496C12.9058 95.6496 4.47049 101.807 1.64469 110.96C-0.168894 116.738 0.337222 122.347 3.03651 127.535C6.66368 134.41 12.5683 138.458 20.624 139.471C20.8349 139.471 21.0458 139.681 21.0458 139.934V149.382C21.0458 149.635 20.8349 149.846 20.5819 149.846C20.4131 149.846 20.2444 149.846 20.0757 149.846C19.9492 149.846 19.8227 149.846 19.6962 149.846C19.5275 149.846 19.4431 149.846 19.3166 149.846C19.0635 149.93 18.8105 149.973 18.5574 149.973C17.6295 149.973 16.9969 149.424 16.4908 148.918C14.5085 146.978 12.3153 146.008 9.91123 146.008C8.77249 146.008 7.59153 146.219 6.36842 146.683C2.69909 148.033 0.295046 151.449 0.337222 155.244C0.337222 156.426 0.632457 157.607 0.843339 158.577C0.927691 158.914 1.01204 159.251 1.05422 159.504C1.05422 159.589 1.05422 159.715 1.05422 159.8L0.210693 161.529V162.414C0.632457 163.089 1.2651 163.216 2.19298 163.216C28.6375 163.216 55.0822 163.216 81.5689 163.216H112.273C112.273 163.216 112.484 163.216 112.61 163.216C113.37 163.131 113.707 162.752 113.749 162.077C113.749 161.402 113.412 160.981 112.695 160.812C112.484 160.812 112.273 160.77 112.02 160.77C111.893 160.77 111.725 160.77 111.556 160.77C111.387 160.77 111.261 160.643 111.177 160.517C111.092 160.348 111.134 160.179 111.177 160.053C113.285 156.974 113.623 153.6 113.496 149.466C113.285 142.718 111.936 136.139 109.574 129.981C108.604 127.45 107.381 124.793 105.272 122.727C104.049 121.546 102.783 120.997 101.518 120.997C100.253 120.997 98.9456 121.588 97.7222 122.811C97.2163 123.317 96.7522 123.866 96.3304 124.414C96.1197 124.667 95.9089 124.92 95.74 125.131C95.6556 125.215 95.5293 125.3 95.4026 125.3C95.4026 125.3 95.1497 125.257 95.0652 125.131C94.8123 124.836 94.5171 124.54 94.2637 124.203C93.6734 123.528 93.083 122.853 92.4082 122.263C91.3959 121.377 90.2993 120.913 89.1604 120.913C88.0219 120.913 86.9674 121.377 85.9974 122.221C85.2382 122.853 84.1837 123.823 83.6774 124.92C82.8763 126.607 81.7797 127.282 80.0082 127.324C80.1771 128.167 80.4722 129.011 80.8519 129.854C81.1471 129.939 81.4 130.107 81.4845 130.361L81.2315 130.234ZM33.4878 143.393C34.3313 143.393 35.217 143.393 36.0605 143.393H41.0796C41.3326 143.393 41.5433 143.604 41.5433 143.857V146.346C41.5433 146.598 41.3326 146.809 41.0796 146.809H30.4933C27.5409 146.809 26.4443 147.821 26.3178 150.732C26.3178 150.816 26.3178 150.943 26.2756 151.111C26.2756 151.28 26.1069 151.407 25.9804 151.449C25.6008 151.575 25.2212 151.66 24.926 151.66C24.2512 151.66 23.4498 151.322 23.4498 149.72C23.4498 147.526 23.4498 139.934 23.4498 139.934C23.4498 139.724 23.6185 139.513 23.8294 139.471L28.9749 138.501C28.9749 138.501 29.0171 138.501 29.0593 138.501C29.1436 138.501 29.2702 138.501 29.3123 138.585C29.3967 138.669 29.4811 138.754 29.4811 138.88L29.6076 139.893C29.8606 142.001 31.3368 143.309 33.4456 143.351L33.4878 143.393ZM20.8771 136.687C20.8771 136.687 20.6662 136.814 20.5819 136.814C12.7792 136.392 5.48271 130.023 3.5848 122.052C2.31951 116.78 3.20521 111.423 6.11538 106.953C9.02553 102.398 13.6649 99.3189 19.1057 98.2644C20.2444 98.0537 21.4675 97.927 22.6063 97.927C32.1803 97.927 40.4471 105.139 41.7967 114.671C42.3448 118.551 41.7967 122.389 40.0252 126.016C39.6878 126.776 39.1815 127.071 38.3382 127.071C37.5789 127.071 36.8197 127.071 36.0605 127.071C35.2592 127.071 34.4579 127.071 33.6565 127.071C31.2103 127.071 29.6919 128.631 29.6498 131.036C29.6498 131.879 29.7341 132.807 29.8606 133.735C29.9028 134.198 29.945 134.705 30.0293 135.211C30.0293 135.422 29.9028 135.633 29.6919 135.717C28.2158 136.054 24.0825 137.067 24.0825 137.067C24.0825 137.067 23.9981 137.067 23.9559 137.067C23.8716 137.067 23.7451 137.067 23.6607 136.982C23.5342 136.898 23.492 136.771 23.492 136.603V132.385C23.492 129.728 23.492 127.071 23.492 124.456C23.492 123.444 23.7872 122.684 24.5464 121.967C25.8539 120.744 27.1192 119.437 28.3423 118.214L29.1436 117.413C29.9028 116.653 29.9872 115.978 29.4811 115.43C29.228 115.177 28.9749 115.051 28.6797 115.051C28.3001 115.051 27.8783 115.304 27.4144 115.726C26.7396 116.4 26.0648 117.075 25.3478 117.834L24.3355 118.888C24.3355 118.888 24.1246 119.015 23.9981 119.015C23.9559 119.015 23.8716 119.015 23.8294 119.015C23.6607 118.931 23.5342 118.762 23.5342 118.593V117.455C23.5342 116.443 23.5342 115.557 23.5342 114.713C23.5342 113.195 22.9015 112.984 22.3111 112.984C21.9737 112.984 21.088 112.984 21.088 114.756C21.088 116.78 21.088 124.245 21.088 124.245C21.088 124.414 20.9614 124.583 20.7927 124.667C20.7506 124.667 20.6662 124.667 20.624 124.667C20.4975 124.667 20.371 124.625 20.2866 124.54L19.7383 124.034C19.7383 124.034 18.5574 122.853 18.3043 122.6C18.0091 122.305 17.7139 122.01 17.4186 121.714C16.9547 121.25 16.5329 121.04 16.1112 121.04C15.8159 121.04 15.5629 121.166 15.352 121.377C14.8037 121.925 14.9302 122.642 15.7316 123.444C16.069 123.781 16.4486 124.161 16.786 124.54C17.7982 125.553 18.8526 126.649 19.907 127.619C20.7927 128.42 21.1301 129.264 21.088 130.487C21.0458 131.879 21.088 133.271 21.088 134.62C21.088 135.211 21.088 135.801 21.088 136.392C21.088 136.518 21.0458 136.645 20.9614 136.729L20.8771 136.687ZM30.4933 158.745C30.3668 159.715 30.0715 160.685 28.4688 160.685H28.3423C26.7396 160.685 25.0947 160.643 23.492 160.643C22.4798 160.643 21.4254 160.643 20.4131 160.643C19.3587 160.643 18.3465 160.643 17.2921 160.643H11.3874C9.57383 160.643 7.80242 160.643 5.94668 160.643C5.10316 160.643 4.47049 160.348 3.92219 159.631C2.78345 158.113 2.31951 156.215 2.61474 154.317C2.90998 152.419 3.92219 150.774 5.48271 149.635C6.70586 148.75 8.09768 148.328 9.57383 148.328C11.8513 148.328 14.0023 149.466 15.352 151.322C16.1533 152.419 16.322 152.63 16.7016 152.63C16.9969 152.63 17.4186 152.503 18.1356 152.334C18.6418 152.208 19.1057 152.124 19.5696 152.124C20.9193 152.124 22.1002 152.63 23.0702 153.642C23.5342 154.106 23.9138 154.317 24.3777 154.317C24.5886 154.317 24.8416 154.274 25.0947 154.19C25.3478 154.106 25.6008 154.064 25.8539 154.064C26.36 154.064 26.8239 154.274 27.2879 154.738C27.7096 155.203 28.4266 155.498 29.0171 155.708C30.1981 156.13 30.7042 157.143 30.5355 158.703L30.4933 158.745ZM38.8863 160.095C38.8863 160.348 38.6756 160.559 38.4222 160.559H33.3613C33.1082 160.559 32.8973 160.348 32.8973 160.095V156.341C32.8973 156.088 33.1082 155.877 33.3613 155.877H38.4222C38.6756 155.877 38.8863 156.088 38.8863 156.341V160.095ZM79.2071 160.348C79.2071 160.348 78.9959 160.559 78.8274 160.559H75.8748C75.6219 160.559 75.4111 160.348 75.4111 160.095V156.383C75.4111 156.383 75.5374 156.004 75.7063 155.961C76.0015 155.877 76.2545 155.793 76.5078 155.793C77.52 155.793 77.8152 156.763 77.9415 157.1C78.1526 157.733 78.4478 158.323 78.7852 158.956C78.9537 159.251 79.1226 159.547 79.2489 159.884C79.3334 160.01 79.2911 160.179 79.2489 160.348H79.2071ZM96.7945 127.914C96.963 127.661 97.1319 127.366 97.3426 127.113C98.0174 126.058 98.7345 125.004 99.5782 124.076C100.126 123.486 100.759 123.148 101.392 123.148C102.024 123.148 102.657 123.486 103.205 124.118C104.47 125.553 105.483 127.028 106.2 128.378C108.098 132.216 109.363 136.518 110.291 142.381C110.839 145.755 111.303 149.72 110.755 153.726C110.67 154.317 110.586 154.865 110.46 155.329C109.743 158.239 108.098 159.715 105.145 160.095C104.513 160.179 103.88 160.179 103.247 160.179C103.247 160.179 102.024 160.179 101.518 160.179H99.283C99.283 160.179 98.9456 160.095 98.8611 159.968C98.7767 159.842 98.7767 159.631 98.8611 159.504C101.307 155.244 101.139 150.774 100.717 145.797C100.211 139.977 98.9034 134.367 96.7945 129.137C96.71 128.969 96.4993 128.294 96.7945 127.872V127.914Z" fill="currentColor"/>
<path d="M65.3311 127.071C64.7826 127.071 64.2766 127.071 63.7281 127.071C63.5596 127.071 63.4329 127.071 63.3066 127.155C63.3066 127.914 63.3066 128.674 63.3066 129.475C63.4329 129.475 63.6018 129.517 63.7281 129.517H64.0237H68.5785C68.5785 128.716 68.5785 127.914 68.5785 127.071C68.3255 127.071 68.0303 127.071 67.7774 127.071H65.3733H65.3311Z" fill="currentColor"/>
<path d="M145.213 66.7588H164.53V69.2893C164.53 69.2893 164.53 85.6959 164.53 105.224C165.163 105.139 165.796 105.055 166.428 105.013C166.428 96.9148 166.428 88.817 166.428 80.7192V67.1384L167.061 66.9275C168.874 66.2948 168.832 65.9152 168.79 65.5778C168.748 65.1139 168.706 64.8608 165.669 64.6921H164.741V63.7221C164.867 59.8418 164.741 56.9738 161.746 55.2024L161.198 54.612L161.493 53.5997V53.5154C163.518 49.593 163.223 47.906 160.059 44.8693C159.68 44.4897 159.258 44.1101 158.879 43.7727C158.162 43.14 157.487 42.5074 156.812 41.7904C156.179 41.0734 155.926 40.1033 155.842 39.555C155.715 38.6272 155.757 37.6571 155.842 36.8558C155.884 35.9701 155.715 35.4218 155.252 35H154.408C153.902 35.5061 153.775 36.1809 153.902 37.1932C154.323 39.8503 153.438 41.8747 151.202 43.4774C150.401 44.0679 149.726 44.7849 148.967 45.5863L148.461 46.1346C146.69 48.0325 146.436 50.1413 147.66 52.6297L148.756 54.6541L147.997 55.1181C145.087 56.9317 144.665 59.631 145.003 63.7221L145.087 64.7343H142.219C141.67 64.7343 140.996 64.903 140.954 65.6622C140.954 65.8309 140.954 66.4214 142.092 66.6744L143.273 66.9275V72.1152H134.669C134.459 72.1152 134.205 72.1152 133.995 72.1152C133.362 72.2418 133.109 72.537 133.109 73.1274C133.109 73.6333 133.489 73.9707 134.079 73.9707C135.217 73.9707 136.356 73.9707 137.495 73.9707H143.189V84.3041H138.296V82.6592C138.296 82.153 138.296 81.647 138.296 81.183C138.296 80.677 138.128 80.0867 137.369 80.0444C136.567 80.0444 136.441 80.8033 136.441 81.1407C136.441 81.6048 136.441 82.0689 136.441 82.5748V84.2618H131.802V82.617C131.802 82.1111 131.802 81.6048 131.802 81.1407C131.802 80.7615 131.633 80.0867 130.873 80.0444C130.072 80.0444 129.946 80.7615 129.903 81.0989C129.903 81.3518 129.903 81.6048 129.903 81.8155V84.2618H125.222V82.5748C125.222 82.0689 125.222 81.5626 125.222 81.0567C125.222 80.4241 124.842 80.0022 124.294 80.0022C123.493 80.0022 123.366 80.7615 123.366 81.0567C123.366 81.5626 123.366 82.0267 123.366 82.5748V84.2618H119.317V73.8867H123.282C123.999 73.8867 124.716 73.8867 125.433 73.8444C125.854 73.8444 126.445 73.507 126.656 73.2118C126.782 73.0007 126.825 72.79 126.698 72.5793C126.572 72.3259 126.192 72.0308 125.602 71.9886C124.927 71.9886 124.252 71.9886 123.619 71.9886H120.329L119.57 71.8621L119.359 71.1873C119.191 70.6811 118.769 69.2893 120.498 68.6989C120.92 68.5723 121.046 68.2349 120.962 67.7288C120.878 67.3914 120.709 67.0118 119.992 66.9696C119.781 66.9696 119.528 66.9696 119.275 66.9696H116.871L116.913 65.9996C117.082 62.2459 116.997 59.2514 113.961 57.4378L113.497 57.016V56.5099V56.0881L113.623 55.8773C115.69 51.8283 115.437 50.1835 111.979 46.8516C111.852 46.725 111.726 46.5985 111.641 46.5563C108.605 44.4897 107.381 41.8326 107.93 38.4163C107.972 38.0367 107.93 37.7415 107.719 37.5306C107.55 37.3197 107.297 37.2353 106.96 37.2353C106.369 37.2353 106.074 37.7415 106.032 38.5428C106.664 41.7482 105.483 44.4053 102.573 46.4298C102.025 46.8094 101.561 47.3577 101.055 47.906L100.591 48.4121C98.8615 50.31 98.6086 52.3766 99.7897 54.8228C99.916 55.0759 100.928 56.9317 100.928 56.9317L100.169 57.3956C97.259 59.1248 96.8371 61.8663 97.1745 65.9996L97.2589 67.0118H94.2223C93.4208 67.0118 93.2523 67.4336 93.1678 67.771C93.0834 68.1084 93.0834 68.4458 93.8849 68.9519C94.3067 69.205 94.5175 69.5846 94.7704 70.0063C94.8549 70.175 94.9815 70.3437 95.1078 70.5124L96.1201 71.9886H70.7723V67.054L71.4049 66.8431C73.1764 66.2527 73.0919 65.8309 73.0497 65.62C72.8812 64.8187 72.6278 64.6921 71.4471 64.6921H70.9408C70.6034 64.6921 70.266 64.6921 69.9286 64.65L69.0853 64.5234V63.6799C69.2538 59.7997 69.0853 56.9317 66.133 55.1603L65.669 54.7385V53.8528L65.7956 53.6419C68.1997 49.4243 67.2293 47.442 63.7712 44.2366C60.7341 42.2121 59.5112 39.5129 60.0175 36.0966C60.0175 35.9279 59.7219 35.5061 59.5534 35.2109C59.5112 35.1265 59.4267 35 59.3845 34.9156H58.7519C58.3723 35.2531 58.0349 35.7592 58.2038 36.8136C58.6678 39.7237 57.6975 41.9591 55.2515 43.6461C54.4501 44.1944 53.733 44.9958 53.016 45.8393L52.6364 46.2611C51.0338 48.0325 50.7808 50.057 51.8775 52.3766L53.016 54.6963L52.2567 55.1603C49.136 57.0582 49.0516 60.0527 49.2623 63.7643V64.7765H46.4786C45.3401 64.7765 45.2556 65.4091 45.2134 65.62C45.2134 65.8309 45.129 66.4214 46.3523 66.7166L47.5753 67.0118V84.473C47.5753 98.6863 47.5753 112.9 47.5753 127.113H49.4734C49.4734 98.6863 49.4734 66.8009 49.4734 66.8009H68.7901V69.458C68.7901 69.458 68.7901 99.783 68.7901 127.113C69.4227 127.113 70.0552 127.113 70.6878 127.113C70.6878 118.593 70.6878 110.074 70.6878 101.554V86.5396H143.526V96.6618C143.526 103.368 143.526 110.074 143.526 116.78C144.117 116.021 144.749 115.261 145.424 114.544C145.424 90.04 145.424 66.8009 145.424 66.8009L145.213 66.7588ZM149.642 47.6951L154.028 42.8448H155.715L157.192 44.4897C158.077 45.5019 158.921 46.472 159.849 47.442C160.987 48.7073 161.198 50.1835 160.27 51.9549C159.722 52.9671 159.005 54.3589 157.149 54.3589C156.98 54.3589 156.812 54.3589 156.601 54.3589C156.01 54.2746 155.42 54.2324 154.83 54.2324C154.239 54.2324 153.564 54.2324 152.974 54.3589C152.805 54.3589 152.679 54.3589 152.51 54.3589C150.781 54.3589 150.106 53.0936 149.473 51.9127C149.136 51.3222 148.124 49.4243 149.684 47.6951H149.642ZM146.985 59.7153C147.238 57.7752 148.756 56.3834 150.739 56.299C152.173 56.2568 153.606 56.2147 154.998 56.2147C156.306 56.2147 157.655 56.2147 158.963 56.299C161.114 56.3834 162.759 58.1126 162.843 60.348C162.843 61.1071 162.843 61.8663 162.843 62.6677V64.6921H156.053L155.926 63.8908C155.884 63.5534 155.842 63.1738 155.842 62.7942C155.8 61.3602 155.673 61.2337 154.83 61.2337C154.07 61.2337 153.986 61.318 153.944 62.752C153.944 63.1738 153.944 63.5534 153.86 63.933L153.733 64.6921H146.985V63.7643C146.985 63.3847 146.985 62.9629 146.985 62.5833C146.985 61.6554 146.943 60.6854 147.069 59.7153H146.985ZM53.6908 47.7373C54.6608 46.6828 55.6308 45.6284 56.7697 44.4475L58.963 42.1278L61.1138 44.4475C62.2104 45.6284 63.2227 46.725 64.2349 47.8216C65.7112 49.4665 64.7412 51.3644 64.2349 52.2079C63.729 53.1358 63.0964 54.3589 61.3249 54.3589H60.903C60.2704 54.2746 59.5956 54.2324 58.963 54.2324C58.3304 54.2324 57.6134 54.2324 56.9808 54.3589H56.6012C54.8719 54.3589 54.1971 53.1358 53.6064 51.9971C53.2271 51.3222 52.2149 49.4665 53.733 47.7794L53.6908 47.7373ZM66.9341 64.6921H60.1015L59.933 63.933C59.8486 63.5534 59.8486 63.1738 59.8486 62.752C59.8064 61.4024 59.7219 61.2337 58.7519 61.1915C58.3723 61.1915 58.1193 61.1915 57.8664 63.8486L57.7819 64.6921H50.9493V62.6255C50.9493 61.7398 50.9071 60.8963 50.9493 60.0105C51.1182 57.9861 52.7208 56.3834 54.7453 56.299C56.1793 56.2568 57.6134 56.2147 59.0893 56.2147C60.3967 56.2147 61.7045 56.2147 63.0119 56.299C65.2049 56.3834 66.8078 58.1126 66.9341 60.4745C66.9341 61.1915 66.9341 61.9507 66.9341 62.7098V64.6921ZM94.5597 84.3885H90.553V82.7859C90.553 82.3218 90.553 81.8578 90.553 81.3941C90.553 80.8455 90.3419 80.1707 89.583 80.1707C88.866 80.1707 88.6971 80.8455 88.6549 81.3941C88.6549 81.8578 88.6549 84.3885 88.6549 84.3885H83.9734V82.7437C83.9734 82.2374 83.9734 81.7737 83.9734 81.2674C83.9734 80.93 83.8467 80.1707 82.9612 80.1707C82.2441 80.1707 82.0756 80.8033 82.0756 81.3096C82.0756 81.7737 82.0756 82.2374 82.0756 82.7437V84.3463C82.0756 84.3463 80.1775 84.473 79.8401 84.473H77.3938V82.7437C77.3938 82.2374 77.3938 81.7737 77.3938 81.3096C77.3938 80.5504 77.0564 80.1285 76.4238 80.1285C75.6649 80.1285 75.496 80.7615 75.496 81.3096C75.496 81.7737 75.496 82.2374 75.496 82.7437V84.3885H70.5615V74.0552H94.5597V84.3463V84.3885ZM101.645 50.0991C102.615 49.0025 103.627 47.9481 104.64 46.8094L106.664 44.6162L108.9 46.8094C110.038 47.906 111.051 48.9182 112.063 49.9304C113.159 51.0692 113.244 52.5032 112.232 54.4011C111.726 55.3711 111.051 56.6786 109.237 56.6786C109.11 56.6786 108.942 56.6786 108.773 56.6786C108.14 56.5943 107.508 56.5521 106.875 56.5521C106.243 56.5521 105.568 56.5521 104.935 56.6786H104.513C102.784 56.6786 102.152 55.4555 101.519 54.3167C101.139 53.6419 100.127 51.7862 101.603 50.0991H101.645ZM98.946 62.3303C99.1149 60.2214 100.844 58.6187 102.995 58.5765C104.302 58.5765 105.652 58.5765 106.96 58.5765C108.267 58.5765 109.532 58.5765 110.84 58.6187C113.033 58.6609 114.72 60.3058 114.889 62.5411C114.931 63.3425 114.931 64.1438 114.889 64.9874V67.0118H108.098L107.972 66.2527C107.93 65.9152 107.887 65.5357 107.887 65.1983C107.803 63.8486 107.761 63.6377 106.749 63.5955C106.453 63.5955 106.158 63.5955 105.863 66.2527L105.779 67.0962H98.946V65.0295C98.946 64.1438 98.9038 63.2581 98.946 62.4146V62.3303ZM109.87 84.4307H103.965V83.5026C103.965 83.1652 103.965 82.8278 103.965 82.4904C103.965 81.6892 103.923 80.8455 104.049 80.0022C104.26 78.6104 105.399 77.7244 106.875 77.7244H107.002C108.605 77.7667 109.701 78.7789 109.87 80.2974C109.954 81.0144 109.912 81.7315 109.912 82.4904V84.4307H109.87ZM117.208 84.3885H111.81V82.4904C111.81 81.8155 111.81 81.183 111.81 80.5504C111.683 77.8511 109.575 75.8267 106.875 75.8267H106.833C104.176 75.8267 102.109 77.8933 101.983 80.5504C101.983 81.183 101.983 81.8155 101.983 82.4904V84.3885H96.5841C96.5841 84.3885 96.5841 73.2959 96.5841 71.8621C96.5841 69.922 97.5119 68.9941 99.3678 68.9941H105.989H114.383C116.112 68.9941 117.166 69.922 117.166 71.5247C117.166 74.3926 117.166 77.2185 117.166 80.1285V84.4307L117.208 84.3885Z" fill="currentColor"/>
<path d="M164.529 110.285C165.162 110.2 165.794 110.116 166.427 110.074C166.427 109.146 166.427 108.218 166.427 107.332C165.794 107.332 165.162 107.417 164.529 107.501C164.529 108.429 164.529 109.357 164.529 110.285Z" fill="currentColor"/>
<path d="M69.1274 162.333H69.93C70.3103 161.953 70.437 161.446 70.4792 160.559H68.5781C68.5781 161.361 68.7048 161.911 69.1274 162.333Z" fill="currentColor"/>
<path d="M68.5366 153.431C68.5366 154.274 68.5366 155.118 68.5366 155.92H70.4766C70.4766 155.076 70.4766 154.274 70.4766 153.431H68.5366Z" fill="currentColor"/>
<path d="M47.9133 162.333H48.6314C49.0962 162.037 49.2651 161.573 49.2651 160.559H47.364C47.364 161.446 47.5333 161.953 47.9555 162.333H47.9133Z" fill="currentColor"/>
<path d="M47.9125 129.517H49.2622C49.2622 128.716 49.2622 127.914 49.2622 127.071H47.364C47.364 127.872 47.364 128.674 47.364 129.517C47.5751 129.517 47.7436 129.517 47.9548 129.517H47.9125Z" fill="currentColor"/>
<path d="M68.5781 129.517H70.4763C70.4763 128.716 70.4763 127.872 70.4763 127.071C69.8433 127.071 69.2107 127.071 68.5781 127.071C68.5781 127.872 68.5781 128.716 68.5781 129.517Z" fill="currentColor"/>
<path d="M49.2618 134.03H47.3218C47.3218 134.831 47.3218 135.675 47.3218 136.476C47.9544 136.476 48.587 136.476 49.2618 136.476C49.2618 135.675 49.2618 134.873 49.2618 134.03Z" fill="currentColor"/>
<path d="M70.4766 136.476C70.4766 135.675 70.4766 134.831 70.4766 134.03H68.5366C68.5366 134.831 68.5366 135.675 68.5366 136.476H70.4766Z" fill="currentColor"/>
<path d="M49.2618 146.725H47.3218C47.3218 147.568 47.3218 148.37 47.3218 149.213C47.9544 149.213 48.587 149.213 49.2618 149.213C49.2618 148.412 49.2618 147.568 49.2618 146.725Z" fill="currentColor"/>
<path d="M49.2618 140.947H48.334C47.9966 140.947 47.6592 140.947 47.3218 140.947C47.3218 141.79 47.3218 142.634 47.3218 143.477H49.2618C49.2618 142.634 49.2618 141.79 49.2618 140.947Z" fill="currentColor"/>
<path d="M68.5781 140.947C68.5781 141.79 68.5781 142.634 68.5781 143.477H69.8015C70.0544 143.477 70.2652 143.688 70.2652 143.941V146.261C70.2652 146.514 70.0544 146.725 69.8015 146.725H68.5781C68.5781 147.569 68.5781 148.412 68.5781 149.213C69.2107 149.213 69.8433 149.213 70.5181 149.213C70.5181 146.472 70.5181 143.73 70.5181 140.947H68.5781Z" fill="currentColor"/>
<path d="M49.2618 153.431C48.6292 153.431 47.9544 153.431 47.3218 153.431C47.3218 154.274 47.3218 155.076 47.3218 155.92H49.2618C49.2618 155.118 49.2618 154.274 49.2618 153.431Z" fill="currentColor"/>
<path d="M56.4318 127.113C56.4318 114.46 56.4318 101.85 56.4318 89.1966V80.0444C56.4318 79.6648 56.4318 79.2429 56.4318 78.8633C56.5581 77.5559 57.4863 76.6704 58.6248 76.6704H59.0889C60.0167 76.8811 60.6915 77.7244 61.1555 78.3574C61.4929 78.8633 61.4507 79.4118 61.4085 80.1285V106.573C61.4085 106.911 61.4085 107.29 61.4085 107.628C61.4507 108.176 61.8304 108.556 62.3363 108.556C62.927 108.513 63.2222 108.218 63.2644 107.628C63.2644 107.501 63.2644 107.417 63.2644 107.121V79.3696C63.2644 79.0322 63.2644 78.6103 63.18 78.1885C62.7159 76.1641 60.9444 74.73 58.9622 74.73C58.8359 74.73 58.667 74.73 58.5404 74.73C56.0522 75.0252 54.5337 76.7966 54.5337 79.4118C54.5337 79.4118 54.5337 104.169 54.5337 127.113H56.3896C56.3896 127.113 56.3896 127.113 56.4741 127.113H56.4318Z" fill="currentColor"/>
<path d="M56.4741 155.919H54.5337C54.5337 157.691 54.5337 159.252 54.5337 160.601H56.4741C56.4741 160.601 56.4741 160.517 56.4741 160.474C56.4741 158.956 56.4741 157.438 56.4741 155.919Z" fill="currentColor"/>
<path d="M54.5337 140.947C54.5337 141.79 54.5337 142.634 54.5337 143.477H56.4741C56.4741 142.634 56.4741 141.79 56.4741 140.947H54.5337Z" fill="currentColor"/>
<path d="M56.4322 136.476C56.4322 135.675 56.4322 134.873 56.4322 134.03H54.4922C54.4922 134.831 54.4922 135.675 54.4922 136.476C55.1248 136.476 55.7574 136.476 56.4322 136.476Z" fill="currentColor"/>
<path d="M56.4741 155.92C56.4741 155.076 56.4741 154.274 56.4741 153.431H54.5337C54.5337 154.317 54.5337 155.118 54.5337 155.92H56.4741Z" fill="currentColor"/>
<path d="M56.4322 129.517C56.4322 128.716 56.4322 127.914 56.4322 127.071C56.4322 127.071 56.4322 127.071 56.3477 127.071H54.4922C54.4922 127.872 54.4922 128.674 54.4922 129.517H55.9263H56.4322Z" fill="currentColor"/>
<path d="M54.5344 146.725C54.5344 147.568 54.5344 148.412 54.5344 149.213C54.8296 149.213 55.1248 149.213 55.3777 149.213C55.7151 149.213 56.0948 149.213 56.4322 149.213C56.4322 148.37 56.4322 147.568 56.4322 146.725H54.4922H54.5344Z" fill="currentColor"/>
<path d="M54.5344 160.77C54.5344 161.657 54.7877 162.037 55.1681 162.333H55.844C56.2666 161.995 56.4355 161.446 56.4355 160.559H54.4922C54.4922 160.559 54.4922 160.686 54.4922 160.77H54.5344Z" fill="currentColor"/>
<path d="M81.3583 133.102C81.4427 132.554 81.4427 131.921 81.3583 131.246C81.0631 130.74 80.8101 130.234 80.5994 129.728C80.1775 129.601 79.7134 129.559 79.5871 129.559C79.2075 129.559 78.8279 129.559 78.4905 129.559C78.9964 130.951 79.7557 132.343 80.7257 133.735C81.0631 133.608 81.3164 133.397 81.4005 133.102H81.3583Z" fill="currentColor"/>
<path d="M79.6708 127.197C79.6708 127.197 79.7553 127.197 79.7975 127.197C79.4601 125.51 79.4179 123.739 79.7553 121.967C80.3457 118.678 82.2438 116.021 84.0575 113.827C88.022 109.019 92.7457 104.844 97.2586 100.795C99.3253 98.9815 101.392 97.1255 103.416 95.2278C104.302 94.3841 105.525 93.9204 106.79 93.9204C108.056 93.9204 109.363 94.3841 110.46 95.2278C110.839 95.523 111.219 95.9026 111.599 96.24L114.087 98.5174C115.9 100.162 117.714 101.85 119.528 103.494C119.907 103.832 120.287 104 120.582 104C120.666 104 121.004 104 121.257 103.537C121.468 103.157 121.552 102.777 120.835 102.103C118.937 100.373 112.358 94.3422 112.358 94.3422C110.713 92.8237 108.815 92.0222 106.917 92.0222C105.019 92.0222 103.079 92.8237 101.392 94.3841L91.5645 103.41C87.7268 106.953 83.762 110.58 80.8097 114.966C78.0682 119.015 77.056 123.106 77.8153 127.155C78.2371 127.155 78.7008 127.155 79.1227 127.197C79.3334 127.197 79.5023 127.197 79.6708 127.197Z" fill="currentColor"/>
<path d="M80.7674 155.835C80.7674 155.835 80.4722 155.919 80.3878 156.004C80.3037 156.13 80.2615 156.257 80.3037 156.426C80.6411 157.48 81.1048 158.282 81.7796 158.872C81.9063 157.86 81.9907 156.805 82.1592 155.835H80.7674Z" fill="currentColor"/>
<path d="M79.5868 129.559C79.5868 129.559 80.2197 129.559 80.599 129.728C80.2616 128.884 79.9664 128.041 79.7557 127.197C79.7557 127.197 79.6712 127.197 79.629 127.197C79.4605 127.197 79.2494 127.197 79.0808 127.197C78.659 127.197 78.1953 127.197 77.7734 127.155C77.942 127.957 78.1531 128.8 78.4483 129.601C78.8279 129.601 79.2075 129.601 79.5449 129.601L79.5868 129.559Z" fill="currentColor"/>
<path d="M80.43 156.046C80.43 156.046 80.6411 155.877 80.8096 155.877H82.2015C82.3703 155.034 82.6655 154.274 82.8763 153.431C82.6655 153.431 82.4544 153.431 82.2015 153.431C81.7374 153.431 81.3159 153.431 80.8518 153.431C80.3037 155.54 79.8818 157.86 79.6707 160.432C79.5866 161.444 79.7129 161.951 80.2192 162.373H80.894C81.2737 162.119 81.5266 161.698 81.5689 160.896C81.5689 160.222 81.7374 159.589 81.8218 158.914C81.1892 158.324 80.6829 157.522 80.3455 156.468C80.3037 156.341 80.3455 156.173 80.43 156.046Z" fill="currentColor"/>
<path d="M80.7256 133.693C80.8941 133.946 81.0208 134.156 81.1897 134.41C81.9908 135.464 82.9608 136.392 83.9311 137.32C83.8467 136.814 83.72 136.35 83.4671 135.886C83.2982 135.548 83.2563 135.042 83.4671 134.663C83.5093 134.536 83.5515 134.452 83.5937 134.325C82.7078 133.313 81.9908 132.259 81.4004 131.204C81.4848 131.879 81.4848 132.512 81.4004 133.06C81.3582 133.355 81.063 133.524 80.7256 133.693Z" fill="currentColor"/>
<path d="M83.2564 149.213C83.5938 149.213 84.0579 149.298 84.353 149.551C84.7327 148.792 85.0701 147.99 85.5338 147.273C85.0701 147.02 84.5638 146.809 83.9312 146.809C83.8045 146.809 83.7204 146.809 83.5938 146.809C83.1297 147.569 82.666 148.37 82.2864 149.213C82.6238 149.213 82.919 149.213 83.2564 149.213Z" fill="currentColor"/>
<path d="M128.848 138.374C129.987 137.32 131.21 136.223 132.18 135C135.386 131.036 136.693 126.818 136.06 122.389C135.217 116.611 131.505 112.478 127.035 108.007C126.908 107.881 126.782 107.796 126.613 107.796C126.402 107.796 126.149 107.923 125.938 108.134C125.516 108.513 125.516 108.893 125.854 109.399C126.065 109.652 126.276 109.905 126.529 110.116C126.782 110.411 127.077 110.664 127.288 110.96C127.752 111.592 128.258 112.183 128.764 112.815C130.071 114.46 131.421 116.147 132.56 117.961C134.542 121.04 134.879 124.625 133.572 128.589C132.517 131.837 130.493 134.62 127.203 137.362C124.504 139.597 124.293 142.17 126.571 144.954C127.625 146.261 128.595 147.737 129.439 149.298C131.083 152.461 131.969 156.173 132.222 160.854C132.265 161.656 132.517 162.077 132.897 162.33H133.403C133.403 162.33 133.53 162.161 133.614 162.035C133.783 161.782 134.12 161.36 134.12 161.234C133.825 153.726 131.885 148.159 128.005 143.604C126.486 141.79 126.571 140.441 128.384 138.796L128.848 138.374Z" fill="currentColor"/>
<path d="M63.3066 134.03C63.3066 132.511 63.3066 130.993 63.3066 129.475C62.8003 129.39 62.3362 129.095 62.3362 128.336C62.3362 127.746 62.7159 127.324 63.3066 127.197V116.527C63.3066 116.316 63.3066 116.105 63.3066 115.978C63.1799 115.43 62.927 115.177 62.3362 115.177C62.041 115.177 61.6196 115.261 61.4507 115.936C61.4084 116.147 61.4084 116.443 61.4084 116.948V128.547C61.4084 130.403 61.4084 132.258 61.4084 134.114H61.6196C62.1677 134.114 62.7581 134.114 63.3066 134.114V134.03Z" fill="currentColor"/>
<path d="M61.366 160.601C61.366 161.488 61.5352 161.953 62 162.333H62.676C63.1404 161.995 63.3097 161.488 63.3097 160.643L61.366 160.601Z" fill="currentColor"/>
<path d="M63.3063 155.92C63.3063 155.076 63.3063 154.274 63.3063 153.431H61.366C61.366 154.274 61.366 155.076 61.366 155.92H63.3063Z" fill="currentColor"/>
<path d="M63.3066 136.476C63.3066 135.675 63.3066 134.831 63.3066 134.03C62.7581 134.03 62.1677 134.03 61.6196 134.03H61.4084C61.4084 134.831 61.4084 135.633 61.4084 136.476C62.041 136.476 62.674 136.476 63.3066 136.476Z" fill="currentColor"/>
<path d="M61.4084 140.947C61.4084 141.79 61.4084 142.634 61.4084 143.477H63.3488C63.3488 142.634 63.3488 141.79 63.3488 140.947H61.4084Z" fill="currentColor"/>
<path d="M62.3364 128.336C62.3364 129.095 62.8005 129.391 63.3064 129.475C63.3064 128.716 63.3064 127.957 63.3064 127.155C62.7161 127.282 62.3364 127.704 62.3364 128.294V128.336Z" fill="currentColor"/>
<path d="M61.4084 146.725C61.4084 147.568 61.4084 148.37 61.4084 149.213C62.041 149.213 62.7159 149.213 63.3488 149.213C63.3488 148.37 63.3488 147.568 63.3488 146.725H61.4084Z" fill="currentColor"/>
<path d="M136.06 108.302C136.313 108.302 136.609 108.26 136.862 108.134C137.452 107.923 138.253 107.417 138.253 105.814C138.253 101.765 138.253 97.7582 138.253 93.7093C138.253 91.9382 137.452 91.1789 135.68 91.1789H129.523H125.811C124.926 91.1789 124.04 91.1789 123.154 91.2633C122.437 91.3052 121.594 91.6848 121.13 92.1911C120.792 92.5285 120.624 92.9082 120.624 93.3296C120.624 93.9626 121.045 94.7215 121.762 95.3963C125.938 99.4033 130.113 103.452 134.289 107.459C134.879 108.049 135.427 108.302 136.018 108.302H136.06ZM136.271 93.2033V106.32L122.437 93.2033H136.271Z" fill="currentColor"/>
<path d="M90.173 91.2211H82.2437C82.2437 91.2211 78.7008 91.2211 77.8152 91.2211C76.3389 91.2211 75.4956 92.0645 75.4956 93.5408C75.4956 96.493 75.4956 99.4456 75.4956 102.398V106.025C75.4956 107.079 75.9175 107.712 76.8452 108.134C77.1404 108.26 77.4356 108.344 77.6886 108.344C78.2793 108.344 78.8275 108.091 79.3337 107.543C79.5867 107.29 79.8397 106.995 80.0926 106.742C80.43 106.362 80.7675 105.94 81.1471 105.603C84.6478 102.271 88.1486 98.9393 91.6912 95.6497C93.083 94.3422 93.2097 93.583 92.8723 92.6971C92.5349 91.7693 91.9863 91.2634 90.1308 91.2634L90.173 91.2211ZM77.5201 106.32V93.2034H91.3115L77.5201 106.32Z" fill="currentColor"/>
<path d="M164.53 107.459C164.53 106.742 164.53 105.983 164.53 105.266C162.716 105.477 160.903 105.814 159.047 106.362C153.437 108.049 148.84 110.791 145.213 114.544C145.213 115.768 145.213 116.949 145.213 118.171C146.014 117.201 146.858 116.274 147.828 115.346C152.552 110.917 158.456 108.26 164.53 107.501V107.459Z" fill="currentColor"/>
<path d="M143.864 162.33C143.611 162.077 143.484 161.74 143.4 161.318C142.599 161.318 141.839 161.318 141.038 161.318C140.49 161.318 140.321 161.149 140.321 160.601C140.321 158.07 140.11 158.408 142.43 158.408H143.273C143.273 156.594 143.273 154.739 143.273 152.925C142.641 151.997 142.05 151.027 141.502 150.015C139.688 146.683 138.845 143.056 138.465 139.302C138.381 138.543 137.917 138.163 137.242 138.206C136.609 138.29 136.188 138.796 136.272 139.555C136.736 144.996 138.465 150.015 141.502 154.528C141.839 155.034 142.177 155.498 142.599 156.088C142.008 156.088 141.586 156.088 141.122 156.088C139.225 156.088 138.086 157.227 138.043 159.167C138.043 159.884 138.043 160.601 138.043 161.36C137.833 161.402 139.182 163.511 139.688 163.469C142.261 163.469 144.876 163.469 147.449 163.469C147.702 163.469 147.955 163.469 148.208 163.469C148.798 163.385 149.094 163.005 149.136 162.457C149.178 161.909 148.925 161.487 148.377 161.318C148.081 161.234 147.786 161.234 147.491 161.234C146.69 161.234 145.888 161.234 145.087 161.234C145.003 161.613 144.876 161.951 144.623 162.246H143.822L143.864 162.33Z" fill="currentColor"/>
<path d="M164.192 156.13C164.192 156.13 164.403 155.919 164.529 155.793V155.666H164.192C164.192 155.666 164.403 155.456 164.529 155.371C164.529 154.359 164.529 153.262 164.529 152.166C163.348 153.347 162.125 154.528 160.944 155.666C159.384 154.106 157.697 152.419 156.052 150.816C156.136 150.732 156.22 150.647 156.305 150.563C156.22 150.479 156.178 150.437 156.094 150.352C157.739 148.707 159.384 147.062 161.071 145.375C162.21 146.514 163.348 147.653 164.529 148.834C164.529 147.864 164.529 146.851 164.529 145.797C163.939 145.207 163.348 144.616 162.758 144.068C162.842 143.984 162.927 143.899 163.011 143.815C162.927 143.73 162.885 143.688 162.8 143.604C163.39 143.013 163.981 142.423 164.529 141.875C164.529 140.905 164.529 139.934 164.529 138.964C163.39 140.146 162.21 141.284 161.113 142.423C159.426 140.736 157.781 139.091 156.136 137.446C156.22 137.362 156.305 137.277 156.389 137.193C156.305 137.109 156.263 137.067 156.178 136.982C157.781 135.38 159.426 133.735 161.071 132.132C162.21 133.271 163.39 134.452 164.572 135.633C164.572 134.62 164.572 133.566 164.572 132.511C163.981 131.921 163.433 131.331 162.842 130.74C162.927 130.656 163.011 130.571 163.095 130.487C163.011 130.403 162.969 130.361 162.885 130.276C163.433 129.728 164.023 129.137 164.572 128.589C164.572 127.577 164.572 126.523 164.572 125.468C163.39 126.649 162.167 127.83 160.944 129.011C159.384 127.45 157.739 125.806 156.136 124.161C156.22 124.076 156.305 123.992 156.389 123.908C156.305 123.823 156.263 123.781 156.178 123.697C157.823 122.052 159.468 120.407 161.113 118.762C162.252 119.901 163.433 121.082 164.572 122.263C164.572 121.209 164.572 120.196 164.572 119.142C163.981 118.551 163.433 118.003 162.842 117.413C162.927 117.328 163.011 117.244 163.095 117.159C163.011 117.075 162.969 117.033 162.885 116.949C163.433 116.4 164.023 115.81 164.572 115.261C164.572 113.617 164.572 111.972 164.572 110.369C162.167 110.706 159.806 111.339 157.402 112.393C152.087 114.713 147.996 118.425 145.255 122.853C145.255 125.131 145.255 127.408 145.255 129.644C145.508 129.897 145.761 130.192 145.972 130.403C145.887 130.487 145.803 130.571 145.719 130.656C145.803 130.74 145.845 130.824 145.93 130.867C145.719 131.077 145.466 131.331 145.255 131.541C145.255 132.511 145.255 133.481 145.255 134.452C146.056 133.65 146.857 132.849 147.659 132.048C149.388 133.777 151.033 135.464 152.636 137.067C152.551 137.151 152.467 137.235 152.383 137.32C152.467 137.404 152.551 137.489 152.593 137.531C150.949 139.176 149.304 140.82 147.49 142.592C146.9 141.959 146.183 141.242 145.508 140.525C145.423 140.441 145.339 140.314 145.255 140.23C145.255 141.2 145.255 142.17 145.255 143.098C145.508 143.351 145.719 143.604 146.014 143.899C145.93 143.984 145.845 144.068 145.761 144.152C145.845 144.237 145.887 144.279 145.972 144.363C145.761 144.574 145.55 144.785 145.255 145.08C145.255 147.231 145.255 149.256 145.255 151.238C146.225 152.799 147.363 154.359 148.713 155.751C148.84 155.877 148.966 156.046 149.177 156.341C148.038 156.341 147.068 156.341 146.098 156.341C145.803 156.341 145.423 156.173 145.255 155.919C145.255 156.847 145.255 157.733 145.255 158.577C151.708 158.577 158.119 158.577 164.572 158.577C164.572 157.86 164.572 157.058 164.572 156.299H164.234L164.192 156.13ZM159.173 113.406C160.818 112.942 162.378 112.52 163.939 112.098C163.728 112.309 163.517 112.52 163.306 112.731C163.517 112.689 163.728 112.604 163.897 112.562C162.842 113.617 161.872 114.587 160.902 115.557C160.438 115.093 159.848 114.544 159.131 113.87C159.257 113.87 159.384 113.785 159.553 113.743C159.426 113.617 159.299 113.532 159.173 113.406ZM151.075 118.425C152.931 117.117 154.871 115.726 156.727 114.418C157.655 115.346 158.456 116.147 159.215 116.906C159.131 116.991 159.046 117.075 158.962 117.159C159.046 117.244 159.131 117.328 159.173 117.37C157.612 118.931 155.925 120.618 154.323 122.179C153.353 121.209 152.256 120.112 150.991 118.889C151.075 118.804 151.202 118.762 151.286 118.678C151.202 118.593 151.117 118.509 151.033 118.425H151.075ZM147.575 128.969C146.942 128.378 146.267 127.661 145.381 126.818C145.466 126.733 145.508 126.607 145.592 126.523C145.55 126.48 145.508 126.438 145.423 126.354C146.689 124.329 147.996 122.305 149.304 120.238C150.527 121.461 151.581 122.516 152.593 123.528C152.509 123.612 152.425 123.697 152.34 123.781C152.425 123.866 152.509 123.95 152.551 123.992C150.906 125.637 149.219 127.324 147.532 128.969H147.575ZM149.388 130.782C149.388 130.782 149.557 130.614 149.641 130.529C149.557 130.445 149.515 130.403 149.43 130.319C151.075 128.674 152.762 127.029 154.407 125.384C156.01 126.987 157.655 128.631 159.299 130.319C159.215 130.403 159.131 130.487 159.046 130.571C159.131 130.656 159.173 130.698 159.257 130.782C157.655 132.385 155.967 134.03 154.28 135.717C152.636 134.072 150.991 132.427 149.346 130.824L149.388 130.782ZM149.43 143.646C151.033 142.043 152.72 140.356 154.323 138.754C155.925 140.356 157.612 142.043 159.215 143.646C159.131 143.73 159.046 143.815 158.962 143.899C159.046 143.984 159.089 144.026 159.173 144.11C157.57 145.671 155.925 147.358 154.238 149.003C152.636 147.4 150.991 145.755 149.346 144.11C149.43 144.026 149.515 143.941 149.599 143.857C149.515 143.773 149.472 143.73 149.388 143.646H149.43ZM145.93 147.821C145.93 147.821 145.93 147.569 146.014 147.4C146.014 147.4 146.014 147.4 146.014 147.358C145.93 147.231 146.014 146.936 146.14 146.809C146.605 146.261 147.153 145.797 147.659 145.291C149.388 147.02 151.033 148.707 152.72 150.352C152.636 150.437 152.551 150.521 152.467 150.605C152.551 150.69 152.636 150.774 152.678 150.816C151.792 151.702 150.864 152.63 149.894 153.557C148.333 151.87 147.026 149.973 146.014 147.864L145.93 147.821ZM157.823 156.173C156.22 156.173 154.491 156.215 152.804 156.173C152.383 156.173 151.961 155.624 151.539 155.371C151.623 155.287 151.708 155.203 151.834 155.076C151.75 154.992 151.666 154.949 151.581 154.865C152.551 153.895 153.479 152.967 154.28 152.166C155.419 153.304 156.642 154.528 157.865 155.709C157.697 155.709 157.528 155.709 157.359 155.709C157.528 155.877 157.655 156.004 157.823 156.173Z" fill="currentColor"/>
<path d="M197.555 157.353C196.585 155.961 195.108 156.215 193.716 156.173C193.716 156.046 193.716 156.004 193.716 155.961C193.801 155.793 193.885 155.666 194.012 155.54C199.452 147.737 201.224 139.176 199.199 129.897C195.91 114.966 182.118 104.169 166.47 105.097C166.47 105.856 166.47 106.573 166.47 107.332C172.502 106.953 178.618 108.429 183.847 111.887C193.97 118.551 198.567 128.083 197.555 140.188C197.049 146.092 194.686 151.28 190.975 155.835C190.849 156.004 190.638 156.173 190.469 156.215C189.372 156.215 188.318 156.215 187.095 156.215C187.306 155.961 187.432 155.793 187.559 155.666C194.687 147.821 196.753 138.796 193.716 128.631C192.198 123.654 189.246 119.563 185.239 116.231C184.606 115.726 183.932 115.726 183.51 116.231C183.046 116.738 183.172 117.413 183.805 117.961C184.1 118.256 184.438 118.509 184.691 118.762C183.468 120.027 182.245 121.209 181.106 122.389C179.461 120.744 177.774 119.057 176.045 117.328C176.635 116.78 177.31 116.189 177.9 115.557C178.449 114.966 178.913 114.629 179.714 115.177C180.178 115.514 180.726 115.346 181.106 114.882C181.443 114.418 181.443 113.954 181.064 113.532C180.895 113.321 180.642 113.195 180.389 113.068C175.834 110.833 171.195 109.821 166.513 110.116C166.513 111.17 166.513 112.267 166.513 113.321C166.935 112.9 167.356 112.478 167.82 112.014C169.465 113.659 171.11 115.304 172.713 116.949C172.628 117.033 172.544 117.117 172.46 117.201C172.544 117.286 172.586 117.328 172.67 117.413C171.026 119.057 169.381 120.702 167.736 122.305C167.356 121.925 166.892 121.461 166.513 121.04C166.513 122.896 166.513 124.751 166.513 126.607C166.935 126.185 167.356 125.763 167.778 125.341C169.423 126.987 171.068 128.674 172.713 130.319C172.628 130.403 172.544 130.487 172.46 130.571C172.544 130.656 172.586 130.698 172.67 130.782C171.068 132.385 169.381 134.03 167.736 135.675C167.314 135.253 166.892 134.831 166.47 134.41C166.47 136.265 166.47 138.121 166.47 139.977C166.892 139.555 167.272 139.176 167.694 138.754C169.339 140.399 170.983 142.086 172.586 143.646C172.502 143.73 172.418 143.815 172.333 143.899C172.418 143.984 172.46 144.026 172.544 144.11C170.941 145.713 169.254 147.4 167.694 148.96C167.272 148.581 166.85 148.159 166.429 147.737C166.429 149.635 166.429 151.575 166.429 153.473C166.85 153.051 167.314 152.63 167.694 152.208C168.832 153.347 170.013 154.57 171.152 155.709H170.646C170.646 155.709 170.941 156.004 171.11 156.173H166.386C166.386 156.932 166.386 157.691 166.386 158.45C175.707 158.45 185.07 158.45 194.391 158.45C195.783 158.45 195.783 158.45 195.783 159.8C195.783 160.84 195.249 161.36 194.18 161.36C184.902 161.36 175.581 161.36 166.302 161.36C166.218 161.782 166.049 162.119 165.796 162.373H165.079C164.742 162.161 164.573 161.866 164.488 161.36H153.733C153.396 161.36 153.016 161.36 152.679 161.444C152.131 161.571 151.835 161.993 151.878 162.541C151.878 163.131 152.257 163.511 152.848 163.596C153.143 163.596 153.438 163.596 153.733 163.596C167.82 163.596 181.949 163.596 196.036 163.596C196.374 163.596 198.314 161.529 197.976 161.402C197.808 160.095 198.272 158.661 197.428 157.396L197.555 157.353ZM192.451 141.369C192.029 142.845 191.65 144.279 191.186 145.881C190.553 145.164 190.005 144.574 189.541 144.068C189.625 143.984 189.71 143.899 189.794 143.815C189.71 143.73 189.668 143.646 189.583 143.604C190.469 142.718 191.355 141.79 192.283 140.82C192.325 140.82 192.409 140.82 192.451 140.82C192.451 140.947 192.367 141.116 192.325 141.284C192.325 141.284 192.367 141.284 192.409 141.284L192.451 141.369ZM192.536 137.362C190.975 138.964 189.288 140.61 187.601 142.297C186.04 140.736 184.396 139.091 182.751 137.446C182.835 137.362 182.919 137.277 183.004 137.193C182.919 137.109 182.877 137.067 182.793 136.982C184.438 135.337 186.125 133.693 187.77 132.048C189.33 133.65 190.975 135.295 192.536 136.898C192.451 136.982 192.367 137.067 192.283 137.151C192.367 137.235 192.409 137.277 192.493 137.362H192.536ZM185.956 144.068C184.353 145.671 182.666 147.358 180.979 149.045C179.419 147.484 177.732 145.797 176.171 144.237C176.256 144.152 176.34 144.068 176.424 143.984C176.34 143.899 176.298 143.857 176.213 143.773C177.9 142.086 179.545 140.441 181.232 138.754C182.793 140.314 184.438 142.001 186.04 143.604C185.956 143.688 185.872 143.773 185.788 143.857C185.872 143.941 185.914 143.984 185.998 144.068H185.956ZM192.704 133.355C192.704 133.355 192.578 133.229 192.536 133.186C192.578 133.397 192.62 133.608 192.704 133.861C191.566 132.723 190.553 131.71 189.583 130.74C189.668 130.656 189.752 130.571 189.836 130.487C189.752 130.403 189.71 130.361 189.625 130.276C190.174 129.686 190.764 129.053 191.523 128.252C191.945 130.023 192.325 131.668 192.746 133.397L192.704 133.355ZM182.877 123.57C184.016 122.431 185.197 121.25 186.462 119.985C186.842 120.407 187.306 120.871 187.643 121.377C188.529 122.727 189.415 124.119 190.258 125.553C190.342 125.679 190.3 125.932 190.258 126.101C190.3 126.312 190.258 126.607 190.174 126.776C189.457 127.577 188.655 128.336 187.938 129.095C186.209 127.366 184.564 125.721 182.919 124.034C183.004 123.95 183.088 123.866 183.172 123.781C183.088 123.697 183.046 123.654 182.962 123.57H182.877ZM181.148 125.384C182.751 126.987 184.396 128.631 186.083 130.276C185.998 130.361 185.914 130.445 185.83 130.529C185.914 130.614 185.956 130.656 186.04 130.74C184.396 132.343 182.709 134.03 181.106 135.633C179.503 134.03 177.858 132.343 176.256 130.74C176.34 130.656 176.424 130.571 176.509 130.487C176.424 130.403 176.382 130.361 176.298 130.276C177.858 128.716 179.545 127.029 181.19 125.384H181.148ZM171.152 112.393C171.363 112.436 171.574 112.478 171.827 112.562C171.616 112.351 171.405 112.14 171.195 111.93C173.05 112.351 174.695 112.773 176.509 113.195C176.34 113.321 176.256 113.448 176.087 113.574C176.213 113.574 176.34 113.617 176.466 113.659C175.665 114.418 174.99 115.009 174.4 115.557C173.43 114.587 172.375 113.574 171.195 112.393H171.152ZM169.507 124.076C169.507 124.076 169.676 123.908 169.76 123.823C169.676 123.739 169.634 123.697 169.549 123.612C171.152 122.01 172.839 120.323 174.442 118.72C176.045 120.323 177.689 121.967 179.335 123.612C179.25 123.697 179.166 123.781 179.081 123.866C179.166 123.95 179.208 123.992 179.292 124.076C177.689 125.637 176.045 127.324 174.358 128.969C172.797 127.366 171.11 125.721 169.507 124.076ZM169.423 137.446C169.423 137.446 169.592 137.277 169.676 137.193C169.592 137.109 169.549 137.067 169.465 136.982C171.11 135.337 172.797 133.693 174.4 132.09C176.045 133.735 177.689 135.38 179.292 136.982C179.208 137.067 179.123 137.151 179.039 137.235C179.123 137.32 179.166 137.362 179.25 137.446C177.689 139.007 176.002 140.694 174.315 142.381C172.713 140.778 171.026 139.091 169.381 137.446H169.423ZM169.507 150.69C169.507 150.69 169.676 150.521 169.76 150.437C169.676 150.352 169.634 150.31 169.549 150.226C171.11 148.665 172.755 147.02 174.442 145.333C176.129 147.02 177.774 148.665 179.376 150.268C179.292 150.352 179.208 150.437 179.123 150.521C179.208 150.605 179.25 150.647 179.335 150.732C177.689 152.377 176.002 154.064 174.358 155.666C172.797 154.064 171.11 152.377 169.465 150.69H169.507ZM184.269 155.751C183.805 155.877 183.383 156.13 182.962 156.173C181.148 156.215 179.335 156.173 177.732 156.173C177.9 156.004 178.027 155.835 178.196 155.709C178.069 155.709 177.9 155.709 177.774 155.709C178.87 154.612 180.093 153.389 181.275 152.208C182.16 153.094 183.172 154.106 184.353 155.287C184.227 155.287 184.1 155.371 183.974 155.413C184.1 155.54 184.185 155.624 184.311 155.751H184.269ZM182.835 150.774C182.835 150.774 183.004 150.605 183.088 150.521C183.004 150.437 182.919 150.352 182.877 150.31C184.48 148.665 186.167 147.02 187.938 145.249C188.571 145.924 189.246 146.641 189.92 147.358C190.047 147.484 190.047 147.821 189.963 147.99C189.963 148.159 190.005 148.328 189.963 148.412C188.908 150.437 187.601 152.25 186.04 153.895C184.944 152.799 183.889 151.744 182.877 150.732L182.835 150.774Z" fill="currentColor"/>
<path d="M143.316 147.4C143.316 140.441 143.316 133.44 143.316 126.48C140.532 133.06 140.406 140.61 143.316 147.4Z" fill="currentColor"/>
<path d="M137.411 128.21C136.82 130.107 136.61 132.174 136.314 134.156C136.188 134.873 136.61 135.38 137.242 135.464C137.917 135.548 138.381 135.211 138.507 134.494C138.592 134.03 138.592 133.566 138.676 133.102C139.309 128.505 140.869 124.371 143.316 120.702C143.316 119.395 143.316 118.045 143.316 116.738C140.743 119.985 138.761 123.781 137.453 128.21H137.411Z" fill="currentColor"/>
<path d="M145.214 114.502C144.539 115.219 143.906 115.936 143.316 116.738C143.316 118.045 143.316 119.395 143.316 120.702C143.906 119.817 144.539 118.973 145.214 118.13C145.214 116.906 145.214 115.726 145.214 114.502Z" fill="currentColor"/>
<path d="M166.469 156.13H164.529C164.529 156.932 164.529 157.691 164.529 158.408H166.469C166.469 157.649 166.469 156.89 166.469 156.13Z" fill="currentColor"/>
<path d="M143.864 162.332H144.667C144.92 162.078 145.047 161.74 145.131 161.318C144.54 161.318 143.948 161.318 143.399 161.318C143.484 161.74 143.61 162.078 143.864 162.332Z" fill="currentColor"/>
<path d="M164.529 115.177C165.162 114.544 165.794 113.912 166.427 113.279C166.427 112.225 166.427 111.128 166.427 110.074C165.794 110.074 165.162 110.2 164.529 110.285C164.529 111.887 164.529 113.532 164.529 115.177Z" fill="currentColor"/>
<path d="M164.529 155.666V155.8C164.529 155.8 164.618 155.711 164.663 155.666H164.529Z" fill="currentColor"/>
<path d="M145.214 155.751C144.581 154.823 143.949 153.895 143.316 152.967C143.316 154.781 143.316 156.636 143.316 158.45H145.256C145.256 157.607 145.256 156.721 145.256 155.793L145.214 155.751Z" fill="currentColor"/>
<path d="M164.529 135.548C165.035 136.054 165.499 136.519 166.005 137.024C165.921 137.109 165.837 137.193 165.752 137.277C165.837 137.362 165.879 137.404 165.963 137.489C165.499 137.952 165.035 138.459 164.529 138.923C164.529 139.893 164.529 140.863 164.529 141.833C165.162 141.2 165.794 140.567 166.469 139.893C166.469 138.037 166.469 136.181 166.469 134.325C165.837 133.693 165.204 133.06 164.529 132.385C164.529 133.44 164.529 134.494 164.529 135.506V135.548Z" fill="currentColor"/>
<path d="M164.529 107.459C165.162 107.374 165.794 107.332 166.427 107.29C166.427 106.531 166.427 105.814 166.427 105.055C165.794 105.055 165.162 105.181 164.529 105.266C164.529 105.983 164.529 106.742 164.529 107.459Z" fill="currentColor"/>
<path d="M164.529 122.221C164.993 122.684 165.457 123.148 165.921 123.612C165.837 123.697 165.752 123.781 165.668 123.866C165.752 123.95 165.794 123.992 165.879 124.076C165.457 124.498 164.993 124.962 164.529 125.384C164.529 126.438 164.529 127.45 164.529 128.505C165.162 127.872 165.794 127.24 166.427 126.565C166.427 124.709 166.427 122.853 166.427 120.997C165.794 120.365 165.162 119.732 164.529 119.057C164.529 120.112 164.529 121.124 164.529 122.178V122.221Z" fill="currentColor"/>
<path d="M165.163 162.332H165.881C166.135 162.078 166.304 161.783 166.388 161.318H164.614C164.698 161.825 164.867 162.121 165.205 162.332H165.163Z" fill="currentColor"/>
<path d="M164.529 148.791C165.035 149.298 165.499 149.762 166.005 150.268C165.921 150.352 165.837 150.437 165.752 150.521C165.837 150.605 165.879 150.647 165.963 150.732C165.499 151.196 164.993 151.66 164.529 152.124C164.529 153.22 164.529 154.274 164.529 155.329C165.204 154.654 165.837 154.021 166.469 153.389C166.469 151.491 166.469 149.551 166.469 147.653C165.837 147.02 165.204 146.388 164.529 145.755C164.529 146.767 164.529 147.779 164.529 148.791Z" fill="currentColor"/>
<path d="M145.214 144.911C145.214 144.911 144.961 145.164 144.792 145.291C144.497 144.194 144.201 143.224 143.906 142.212H144.033C144.033 142.086 143.948 141.917 143.906 141.79H144.033C144.37 142.128 144.792 142.55 145.13 142.971C145.13 142.043 145.13 141.073 145.13 140.103C144.792 139.766 144.497 139.386 144.117 139.133C143.274 138.543 143.274 137.741 143.316 136.898C143.316 136.898 143.316 136.898 143.316 136.856C143.316 136.729 143.316 136.56 143.316 136.434C143.316 136.265 143.4 136.097 143.484 135.97C144.033 135.422 144.539 134.916 145.087 134.367C145.087 133.397 145.087 132.427 145.087 131.457C144.581 131.963 144.117 132.427 143.569 132.976C143.611 132.764 143.653 132.596 143.696 132.385C143.696 132.385 143.611 132.469 143.569 132.511C143.864 131.288 144.159 130.107 144.455 128.884C144.708 129.137 144.876 129.348 145.087 129.559C145.087 127.324 145.087 125.046 145.087 122.769C144.328 123.95 143.696 125.215 143.189 126.523C143.189 133.481 143.189 140.483 143.189 147.442C143.738 148.707 144.37 149.888 145.13 151.111C145.13 149.171 145.13 147.104 145.13 144.954L145.214 144.911Z" fill="currentColor"/>
<path d="M164.53 149.298C164.53 149.298 164.53 148.96 164.53 148.791C163.391 147.653 162.21 146.472 161.071 145.333C159.384 147.02 157.739 148.665 156.094 150.31C156.179 150.394 156.221 150.437 156.305 150.521C157.866 148.96 159.426 147.4 161.029 145.797C162.168 146.936 163.349 148.117 164.487 149.256L164.53 149.298Z" fill="currentColor"/>
<path d="M165.754 150.524C165.754 150.524 165.923 150.355 166.008 150.27C165.501 149.763 165.036 149.299 164.529 148.792C164.529 148.961 164.529 149.13 164.529 149.299C164.952 149.721 165.332 150.101 165.754 150.524Z" fill="currentColor"/>
<path d="M159.004 143.899C159.004 143.899 159.173 143.73 159.257 143.646C157.612 142.001 155.967 140.356 154.365 138.754C152.762 140.356 151.075 142.043 149.472 143.646C149.556 143.73 149.599 143.773 149.683 143.857C151.243 142.296 152.804 140.736 154.322 139.218C155.841 140.736 157.443 142.339 159.004 143.899Z" fill="currentColor"/>
<path d="M192.324 140.863C191.396 141.79 190.468 142.76 189.625 143.646C189.709 143.73 189.751 143.815 189.836 143.857C190.637 143.056 191.481 142.212 192.324 141.326C192.324 141.326 192.366 141.326 192.408 141.326C192.408 141.2 192.493 141.031 192.535 140.863C192.493 140.863 192.408 140.863 192.366 140.863H192.324Z" fill="currentColor"/>
<path d="M181.231 152.208C180.05 153.389 178.827 154.612 177.731 155.709C177.857 155.709 178.026 155.709 178.153 155.709C179.123 154.739 180.135 153.726 181.189 152.672C181.948 153.431 182.918 154.401 183.931 155.413C184.057 155.371 184.184 155.329 184.31 155.287C183.129 154.106 182.117 153.094 181.231 152.208Z" fill="currentColor"/>
<path d="M167.693 152.63C168.663 153.6 169.675 154.654 170.687 155.666H171.193C170.055 154.486 168.832 153.304 167.735 152.166C167.313 152.587 166.892 153.009 166.47 153.431V153.853C166.892 153.431 167.313 153.009 167.693 152.63Z" fill="currentColor"/>
<path d="M164.193 155.667H164.531C164.531 155.667 164.531 155.456 164.531 155.371C164.404 155.498 164.32 155.582 164.193 155.667Z" fill="currentColor"/>
<path d="M164.529 155.666H164.656C165.288 155.034 165.879 154.443 166.469 153.853V153.431C165.837 154.064 165.204 154.696 164.529 155.371C164.529 155.498 164.529 155.582 164.529 155.666Z" fill="currentColor"/>
<path d="M189.877 147.822C189.877 147.822 189.919 147.948 189.962 148.033C190.046 147.864 190.004 147.526 189.919 147.4C189.287 146.641 188.57 145.966 187.937 145.291C186.166 147.063 184.521 148.75 182.876 150.352C182.96 150.437 183.044 150.521 183.087 150.563C184.647 149.003 186.208 147.442 187.895 145.713C188.527 146.388 189.202 147.104 189.877 147.822Z" fill="currentColor"/>
<path d="M164.529 122.684V122.179C163.348 120.997 162.167 119.817 161.071 118.678C159.426 120.323 157.781 121.967 156.136 123.613C156.22 123.697 156.263 123.739 156.347 123.823C157.907 122.263 159.468 120.702 161.029 119.142C162.167 120.28 163.348 121.504 164.529 122.684Z" fill="currentColor"/>
<path d="M165.67 123.826C165.67 123.826 165.839 123.657 165.923 123.573C165.459 123.108 164.994 122.643 164.529 122.179V122.686C164.909 123.066 165.29 123.446 165.67 123.826Z" fill="currentColor"/>
<path d="M179.123 150.479C179.123 150.479 179.292 150.31 179.376 150.226C177.774 148.623 176.129 146.978 174.442 145.291C172.755 146.978 171.068 148.665 169.549 150.183C169.634 150.268 169.676 150.31 169.76 150.394C171.236 148.918 172.797 147.358 174.442 145.713C176.044 147.316 177.605 148.876 179.166 150.437L179.123 150.479Z" fill="currentColor"/>
<path d="M159.088 130.529C159.088 130.529 159.257 130.361 159.341 130.276C157.696 128.631 156.009 126.944 154.449 125.341C152.804 126.987 151.117 128.631 149.472 130.276C149.556 130.361 149.599 130.403 149.683 130.487C151.243 128.927 152.846 127.366 154.407 125.806C155.925 127.324 157.528 128.927 159.088 130.487V130.529Z" fill="currentColor"/>
<path d="M167.693 125.763C169.253 127.366 170.856 128.927 172.416 130.529C172.501 130.445 172.585 130.361 172.67 130.276C171.025 128.631 169.38 126.944 167.735 125.3C167.313 125.721 166.892 126.143 166.47 126.565C166.47 126.691 166.47 126.86 166.47 126.987C166.892 126.565 167.313 126.143 167.693 125.763Z" fill="currentColor"/>
<path d="M164.532 128.463C163.983 129.012 163.391 129.603 162.842 130.153C162.926 130.237 162.968 130.279 163.053 130.364C163.518 129.899 164.067 129.35 164.532 128.885C164.532 128.759 164.532 128.589 164.532 128.463Z" fill="currentColor"/>
<path d="M164.529 128.927C165.162 128.294 165.794 127.661 166.427 126.986C166.427 126.86 166.427 126.691 166.427 126.565C165.794 127.197 165.162 127.83 164.529 128.505C164.529 128.631 164.529 128.8 164.529 128.927Z" fill="currentColor"/>
<path d="M154.282 152.124C153.438 152.967 152.553 153.853 151.582 154.823C151.667 154.865 151.751 154.949 151.836 155.034C152.679 154.19 153.523 153.347 154.282 152.587C155.294 153.6 156.348 154.654 157.403 155.666C157.572 155.666 157.74 155.666 157.909 155.666C156.686 154.443 155.505 153.262 154.324 152.124H154.282Z" fill="currentColor"/>
<path d="M164.532 141.833C163.941 142.424 163.349 143.016 162.8 143.565C162.885 143.649 162.927 143.691 163.011 143.776C163.518 143.269 164.025 142.762 164.532 142.255V141.833Z" fill="currentColor"/>
<path d="M167.65 139.176C169.211 140.736 170.814 142.339 172.332 143.857C172.416 143.773 172.501 143.688 172.585 143.604C170.982 142.001 169.338 140.356 167.693 138.711C167.271 139.091 166.892 139.513 166.47 139.934C166.47 140.061 166.47 140.23 166.47 140.356C166.849 139.977 167.271 139.555 167.65 139.176Z" fill="currentColor"/>
<path d="M164.529 142.254C165.162 141.622 165.794 140.989 166.469 140.314C166.469 140.188 166.469 140.019 166.469 139.893C165.837 140.525 165.204 141.158 164.529 141.833V142.254Z" fill="currentColor"/>
<path d="M179.038 137.193C179.038 137.193 179.207 137.024 179.291 136.94C177.689 135.337 176.001 133.65 174.399 132.048C172.796 133.65 171.109 135.337 169.464 136.94C169.548 137.024 169.591 137.067 169.675 137.151C171.235 135.59 172.838 134.03 174.357 132.511C175.917 134.072 177.478 135.633 179.038 137.193Z" fill="currentColor"/>
<path d="M181.189 138.754C179.502 140.399 177.857 142.086 176.17 143.773C176.254 143.857 176.297 143.899 176.381 143.984C177.984 142.381 179.544 140.82 181.147 139.218C182.623 140.694 184.184 142.296 185.744 143.857C185.828 143.773 185.913 143.688 185.997 143.604C184.394 142.001 182.75 140.314 181.189 138.754Z" fill="currentColor"/>
<path d="M164.529 136.054C164.529 136.054 164.529 135.717 164.529 135.548C163.348 134.367 162.167 133.186 161.029 132.048C159.426 133.65 157.739 135.337 156.136 136.898C156.22 136.982 156.263 137.024 156.347 137.109C157.865 135.59 159.426 134.03 160.986 132.511C162.167 133.693 163.348 134.873 164.529 136.054Z" fill="currentColor"/>
<path d="M165.754 137.238C165.754 137.238 165.923 137.069 166.008 136.985C165.501 136.478 165.036 136.013 164.529 135.506C164.529 135.675 164.529 135.844 164.529 136.013C164.952 136.436 165.332 136.816 165.754 137.238Z" fill="currentColor"/>
<path d="M145.678 130.531C145.678 130.531 145.847 130.362 145.931 130.277C145.72 130.024 145.467 129.77 145.213 129.517V130.024C145.213 130.024 145.551 130.362 145.678 130.531Z" fill="currentColor"/>
<path d="M143.737 132.47C143.737 132.47 143.822 132.385 143.864 132.343C144.117 131.331 144.37 130.319 144.623 129.306C144.876 129.559 145.045 129.77 145.255 130.023V129.517C145.045 129.306 144.876 129.095 144.623 128.842C144.328 130.066 144.032 131.246 143.737 132.47Z" fill="currentColor"/>
<path d="M152.383 123.781C152.383 123.781 152.552 123.613 152.636 123.528C151.624 122.516 150.57 121.461 149.346 120.238C148.039 122.305 146.731 124.371 145.466 126.354C145.509 126.396 145.551 126.438 145.635 126.523C146.858 124.625 148.081 122.684 149.346 120.702C150.485 121.841 151.497 122.853 152.425 123.781H152.383Z" fill="currentColor"/>
<path d="M147.617 132.343C149.262 133.988 150.864 135.59 152.383 137.109C152.467 137.024 152.551 136.94 152.636 136.856C151.033 135.253 149.388 133.608 147.659 131.837C146.857 132.638 146.056 133.44 145.255 134.241V134.663C146.056 133.861 146.815 133.06 147.617 132.259V132.343Z" fill="currentColor"/>
<path d="M143.441 136.392C143.441 136.392 143.441 136.687 143.441 136.814C143.441 136.645 143.483 136.476 143.61 136.392C144.158 135.844 144.706 135.295 145.254 134.747V134.325C144.706 134.873 144.2 135.38 143.651 135.928C143.525 136.054 143.483 136.223 143.483 136.392H143.441Z" fill="currentColor"/>
<path d="M159.004 117.159C159.004 117.159 159.173 116.991 159.258 116.906C158.498 116.147 157.697 115.346 156.769 114.418C154.913 115.726 152.973 117.117 151.118 118.425C151.202 118.509 151.286 118.593 151.371 118.678C153.142 117.413 154.998 116.105 156.727 114.882C157.571 115.726 158.33 116.484 159.004 117.159Z" fill="currentColor"/>
<path d="M187.811 132.048C186.166 133.693 184.479 135.337 182.834 136.982C182.918 137.067 182.961 137.109 183.045 137.193C184.605 135.633 186.208 134.072 187.769 132.511C189.245 134.03 190.848 135.633 192.324 137.151C192.408 137.067 192.493 136.982 192.577 136.898C191.016 135.295 189.371 133.65 187.811 132.048Z" fill="currentColor"/>
<path d="M147.576 145.755C149.22 147.4 150.823 149.003 152.384 150.563C152.468 150.479 152.552 150.394 152.637 150.31C150.992 148.665 149.305 146.978 147.576 145.249C147.069 145.755 146.563 146.261 146.057 146.767C145.931 146.894 145.846 147.189 145.931 147.316C145.931 147.316 145.931 147.316 145.931 147.358C145.931 147.316 145.931 147.231 146.015 147.231C146.479 146.683 147.027 146.219 147.533 145.713L147.576 145.755Z" fill="currentColor"/>
<path d="M187.6 121.883C188.486 123.233 189.371 124.624 190.215 126.059C190.215 126.059 190.215 126.101 190.215 126.143C190.299 125.974 190.299 125.721 190.215 125.595C189.371 124.203 188.528 122.811 187.6 121.419C187.263 120.913 186.799 120.449 186.419 120.027C185.154 121.293 183.973 122.474 182.834 123.612C182.918 123.697 182.961 123.739 183.045 123.823C184.1 122.769 185.196 121.672 186.377 120.491C186.757 120.913 187.22 121.377 187.558 121.883H187.6Z" fill="currentColor"/>
<path d="M189.793 130.445C190.257 129.939 190.805 129.391 191.438 128.674C191.817 130.234 192.155 131.668 192.492 133.144C192.577 133.228 192.619 133.271 192.661 133.313C192.239 131.584 191.86 129.939 191.438 128.167C190.679 128.969 190.088 129.601 189.54 130.192C189.624 130.276 189.666 130.318 189.751 130.403L189.793 130.445Z" fill="currentColor"/>
<path d="M176.466 130.487C177.984 128.969 179.545 127.408 181.105 125.848C182.624 127.366 184.226 128.969 185.829 130.529C185.913 130.445 185.998 130.361 186.082 130.276C184.437 128.631 182.75 126.944 181.147 125.384C179.503 127.028 177.815 128.674 176.255 130.276C176.339 130.361 176.381 130.403 176.466 130.487Z" fill="currentColor"/>
<path d="M179.038 123.866C179.038 123.866 179.206 123.697 179.291 123.612C177.646 121.967 176.001 120.323 174.398 118.72C172.795 120.323 171.108 122.01 169.506 123.612C169.59 123.697 169.633 123.739 169.717 123.823C171.235 122.263 172.838 120.702 174.356 119.184C175.874 120.702 177.435 122.305 178.995 123.866H179.038Z" fill="currentColor"/>
<path d="M164.532 115.177C163.983 115.726 163.391 116.318 162.842 116.867C162.926 116.951 162.968 116.994 163.053 117.078C163.56 116.571 164.025 116.107 164.532 115.6V115.177Z" fill="currentColor"/>
<path d="M167.693 112.436C169.254 113.996 170.814 115.599 172.375 117.117C172.459 117.033 172.544 116.949 172.628 116.864C171.025 115.261 169.338 113.574 167.736 111.93C167.314 112.351 166.892 112.773 166.428 113.237C166.428 113.364 166.428 113.532 166.428 113.659C166.85 113.237 167.271 112.815 167.693 112.393V112.436Z" fill="currentColor"/>
<path d="M164.529 115.599C165.162 114.966 165.794 114.334 166.427 113.701C166.427 113.574 166.427 113.406 166.427 113.279C165.794 113.912 165.162 114.544 164.529 115.177V115.599Z" fill="currentColor"/>
<path d="M176.507 113.195C174.694 112.773 173.049 112.351 171.193 111.93C171.404 112.14 171.615 112.351 171.826 112.562C173.26 112.9 174.652 113.237 176.086 113.574C176.212 113.448 176.339 113.321 176.507 113.195Z" fill="currentColor"/>
<path d="M163.939 112.098C162.378 112.52 160.817 112.942 159.173 113.406C159.299 113.532 159.426 113.659 159.552 113.743C160.86 113.406 162.083 113.068 163.306 112.731C163.517 112.52 163.727 112.309 163.939 112.098Z" fill="currentColor"/>
</g>
</svg>
