<svg width="200" height="200" viewBox="0 0 200 200" fill="none" xmlns="http://www.w3.org/2000/svg">
<path d="M166.82 198.16C166.529 196.672 159.694 161.646 155.303 152.39C153.785 149.195 150.247 146.375 146.325 144.847C146.486 144.683 146.659 144.51 146.795 144.371C147.306 143.842 147.485 143.081 147.262 142.379C147.04 141.671 146.446 141.145 145.716 141.003L116.315 135.282L114.008 121.767C127.393 113.148 144.43 95.007 144.43 67.3347C144.43 63.0267 143.987 56.9281 142.166 50.5853C142.453 49.8987 145.011 43.5095 142.707 38.0449C141.615 35.4595 139.627 33.5266 136.782 32.2927C136.621 31.1577 136.101 28.8599 134.577 26.6858C134.58 26.6333 134.586 26.5807 134.586 26.525C134.586 11.9002 119.073 0 100.005 0C80.9358 0 65.4235 11.9002 65.4235 26.525C65.4235 27.2239 65.5132 27.9321 65.5998 28.6342C64.9163 30.1279 64.6318 31.4948 64.5173 32.2896C61.6722 33.5235 59.6806 35.4564 58.5889 38.0418C56.9776 41.8704 57.7539 46.132 58.4652 48.606C56.1241 55.6447 55.5767 62.5783 55.5767 67.3316C55.5767 95.0039 72.6137 113.145 85.9984 121.764L83.6913 135.279L54.2902 141C53.5604 141.142 52.9666 141.668 52.7439 142.376C52.5243 143.075 52.7006 143.839 53.2109 144.368C53.3346 144.498 53.4985 144.661 53.6469 144.81C49.7658 146.341 46.2248 149.189 44.7032 152.39C40.3118 161.649 33.4772 196.672 33.1865 198.16L32.8308 200H167.169L166.82 198.16ZM144.98 143.09C141.139 147.024 128.589 158.541 113.559 158.541C102.952 158.541 101.356 152.164 101.056 149.894C101.069 149.764 101.078 149.653 101.081 149.557C101.863 149.17 102.587 148.756 103.301 148.342C103.558 149.545 104.13 151.094 105.426 152.464C107.331 154.477 110.229 155.495 114.039 155.495C126.82 155.495 137.338 144.838 139.834 142.088L144.98 143.09ZM108.828 184.952C108.93 184.815 109.06 184.716 109.131 184.525C109.57 183.319 110.022 182.119 110.473 180.919C110.853 179.908 111.231 178.896 111.605 177.882C111.623 177.826 111.654 177.814 111.676 177.783C112.313 177.69 112.898 177.446 113.343 177.019C113.386 177.43 113.467 177.829 113.467 178.253C113.467 182.088 111.645 185.471 108.865 187.704V185.032C108.862 185.001 108.831 184.979 108.828 184.952ZM94.9669 187.453V185.558H107.637V187.453H94.9669ZM107.455 188.681C105.642 189.754 103.558 190.41 101.304 190.41C99.0491 190.41 96.9647 189.754 95.1524 188.681H107.455ZM94.9452 184.333C94.6236 184.318 94.5896 184.305 94.4906 184.027C93.9092 182.413 93.3031 180.807 92.6969 179.202L92.131 177.703C92.5361 177.591 92.901 177.409 93.2196 177.149C93.5721 177.523 93.9185 177.9 94.2648 178.278L95.0132 179.088C95.0844 179.168 95.171 179.24 95.273 179.326L95.4122 179.444C95.5668 179.577 95.7802 179.629 95.9843 179.574C96.1822 179.518 96.3431 179.363 96.4049 179.165L96.4606 178.998C96.507 178.847 96.5441 178.729 96.5719 178.609L96.9245 177.152C97.1533 176.206 97.3822 175.266 97.6203 174.322C98.0409 174.316 98.4398 174.233 98.8078 174.081L100.496 178.432C100.53 178.522 100.574 178.609 100.688 178.816C100.781 179.001 100.994 179.088 101.201 179.11C101.415 179.144 101.647 179.005 101.777 178.847C101.817 178.797 101.919 178.64 101.941 178.581L102.674 176.694C103.035 175.767 103.394 174.836 103.759 173.908C104.04 173.991 104.319 174.084 104.628 174.084C104.693 174.084 104.749 174.05 104.811 174.047C105.049 175.009 105.284 175.971 105.519 176.932L105.967 178.766C106.001 178.915 106.063 179.032 106.184 179.264C106.27 179.45 106.443 179.577 106.641 179.608C106.855 179.632 107.046 179.567 107.186 179.416L109.326 177.115C109.629 177.375 109.978 177.563 110.368 177.687C110.025 178.624 109.675 179.558 109.319 180.492C108.868 181.692 108.416 182.895 107.974 184.104C107.891 184.333 107.894 184.324 107.656 184.333C103.413 184.311 99.1759 184.311 94.9452 184.333ZM111.262 171.817C109.595 171.817 108.237 173.172 108.237 174.842C108.237 175.306 108.361 175.733 108.549 176.125C108.549 176.135 108.543 176.144 108.543 176.153L106.994 177.814L106.706 176.642C106.477 175.695 106.249 174.746 105.998 173.732C107.028 173.218 107.758 172.179 107.758 170.951C107.758 169.223 106.354 167.819 104.625 167.819C102.896 167.819 101.492 169.223 101.492 170.951C101.492 171.922 101.965 172.761 102.661 173.333C102.281 174.304 101.904 175.275 101.523 176.246L101.245 176.976L99.8315 173.398C100.416 172.819 100.778 172.015 100.778 171.131C100.778 169.368 99.3429 167.933 97.5801 167.933C95.8173 167.933 94.3824 169.368 94.3824 171.131C94.3824 172.479 95.2266 173.62 96.408 174.09C96.1761 175.012 95.9503 175.937 95.7276 176.864L95.4988 177.811L95.1679 177.452C94.7844 177.035 94.3947 176.62 93.9989 176.206C94.2123 175.791 94.3638 175.34 94.3638 174.842C94.3638 173.175 93.0093 171.817 91.3393 171.817C91.2125 171.817 91.1042 171.873 90.9805 171.888C93.1268 168.422 96.9306 166.09 101.297 166.09C105.664 166.09 109.471 168.425 111.614 171.892C111.497 171.876 111.388 171.817 111.262 171.817ZM112.52 173.565C112.728 174.063 112.864 174.591 113.003 175.12C112.867 175.971 112.155 176.639 111.262 176.639C110.272 176.639 109.465 175.832 109.465 174.842C109.465 173.852 110.272 173.045 111.262 173.045C111.753 173.045 112.196 173.243 112.52 173.565ZM104.625 172.853C103.573 172.853 102.72 172 102.72 170.948C102.72 169.897 103.573 169.043 104.625 169.043C105.676 169.043 106.53 169.897 106.53 170.948C106.533 172 105.676 172.853 104.625 172.853ZM99.5593 171.128C99.5593 172.216 98.6749 173.101 97.5863 173.101C96.4977 173.101 95.6132 172.216 95.6132 171.128C95.6132 170.039 96.4977 169.155 97.5863 169.155C98.6749 169.155 99.5593 170.039 99.5593 171.128ZM91.3424 173.042C92.332 173.042 93.1391 173.849 93.1391 174.839C93.1391 175.828 92.332 176.636 91.3424 176.636C90.4486 176.636 89.7404 175.971 89.6012 175.114C89.7435 174.588 89.8796 174.059 90.0868 173.562C90.4115 173.243 90.8537 173.042 91.3424 173.042ZM90.8414 177.761C90.8506 177.78 90.8537 177.789 90.863 177.808L91.5526 179.635C92.1557 181.234 92.7618 182.833 93.3402 184.441C93.436 184.707 93.5968 184.859 93.7453 185.026L93.7422 185.029V187.698C90.962 185.468 89.1435 182.085 89.1435 178.25C89.1404 177.829 89.2239 177.427 89.2672 177.016C89.6909 177.418 90.2414 177.656 90.8414 177.761ZM101.304 164.333C93.7515 164.333 87.6158 170.392 87.4241 177.9L67.2295 170.552V155.22C72.6848 158.281 79.2813 160.73 86.4499 160.73C94.9483 160.734 98.5079 156.967 100.008 153.735C101.511 156.967 105.073 160.734 113.559 160.734C120.725 160.734 127.324 158.284 132.78 155.223V170.552L115.09 176.988C114.441 169.912 108.543 164.333 101.304 164.333ZM99.9583 147.615C92.3938 143.907 88.1044 138.504 86.6416 136.41L88.8497 123.474C93.6834 126.227 97.7873 127.612 100.005 127.612C102.222 127.612 106.326 126.227 111.166 123.477L113.374 136.414C111.911 138.504 107.619 143.91 100.054 147.618C100.036 147.627 100.023 147.643 100.008 147.649C99.9892 147.64 99.9768 147.624 99.9583 147.615ZM115.409 137.335L138.829 141.894C135.888 145.042 125.97 154.62 114.045 154.62C110.492 154.62 107.81 153.695 106.078 151.87C104.807 150.534 104.328 148.991 104.13 147.875C110.566 143.925 114.243 139.055 115.409 137.335ZM140.79 75.3754C135.637 75.5918 132.248 69.985 128.373 63.4906C124.284 56.6313 119.711 48.974 111.964 47.1618C117.119 44.2733 121.829 42.2137 125.685 41.6694C130.504 43.7692 134.873 46.4165 138.529 49.506C140.814 56.1921 141.34 62.8195 141.34 67.3347C141.34 70.1211 141.136 72.7931 140.79 75.3754ZM100.54 34.006C87.1797 34.006 73.2137 38.5459 62.9711 46.1814C63.3731 42.5477 65.3214 40.021 68.7758 38.6665L69.0387 38.5644L69.0542 38.2799C69.0573 38.2366 69.3016 33.8544 72.6725 31.1855C75.1373 29.2341 78.6442 28.662 83.1006 29.4815L83.4779 29.5527L83.5955 29.1846C83.6388 29.0548 87.8601 16.3288 100.543 16.3288C113.222 16.3288 117.447 29.0578 117.487 29.1846L117.605 29.5527L117.982 29.4815C122.429 28.6589 125.936 29.2279 128.401 31.1794C131.769 33.8421 132.022 38.2366 132.025 38.2799L132.041 38.5644L132.304 38.6665C135.758 40.021 137.706 42.5477 138.108 46.1814C127.866 38.5459 113.9 34.006 100.54 34.006ZM100.005 3.09258C116.049 3.09258 129.301 12.0765 131.224 23.6366C128.425 21.9295 124.841 21.3233 120.447 21.9789C119.092 18.7843 113.572 8.02214 100.648 8.02214C87.7302 8.02214 82.21 18.7843 80.8554 21.9789C75.83 21.2336 71.8158 22.0315 68.9026 24.354C68.8315 24.4128 68.7758 24.4777 68.7047 24.5365C70.0685 12.5466 83.5491 3.09258 100.005 3.09258ZM60.6114 38.8922C61.5392 36.6934 63.3267 35.0729 65.9276 34.0802L66.5987 33.8235L66.6327 33.1091C66.6358 33.0658 66.8832 28.7548 70.2665 26.0642C72.0787 24.62 74.4662 23.8963 77.3979 23.8963C78.6226 23.8963 79.9462 24.0231 81.3595 24.2767L82.2966 24.4437L82.5965 23.5407C82.7759 22.9964 87.1643 10.2086 100.66 10.2086C114.147 10.2086 118.532 22.9964 118.712 23.5407L119.012 24.4437L119.949 24.2736C124.717 23.4201 128.45 24.0108 131.023 26.0457C134.4 28.7146 134.676 33.0658 134.679 33.1091L134.719 33.8235L135.384 34.0771C137.978 35.0667 139.766 36.6841 140.694 38.8799C142.11 42.226 141.278 46.2093 140.641 48.3246C140.149 47.8916 139.583 47.5051 139.064 47.0876C138.903 42.7239 136.772 39.5695 132.888 37.949C132.78 36.8697 132.171 33.0318 128.964 30.4928C126.357 28.4301 122.735 27.7837 118.201 28.5507C117.385 26.4013 112.632 15.4474 100.546 15.4474C88.4663 15.4474 83.7161 26.4013 82.8996 28.5507C78.3628 27.7775 74.7352 28.4301 72.1375 30.4928C68.9335 33.0318 68.3212 36.8697 68.2099 37.949C64.3225 39.5695 62.1917 42.727 62.034 47.0968L62.0278 47.2607C61.5856 47.6195 61.0939 47.9504 60.6702 48.3246C60.0238 46.2186 59.195 42.2477 60.6114 38.8922ZM58.6724 67.3316C58.6724 63.1504 59.127 57.1601 61.0073 50.9873C70.4273 42.0714 85.9736 36.3099 100.651 36.3099C107.878 36.3099 115.307 37.7202 122.12 40.2004C113.229 42.8291 101.65 50.7615 90.3868 58.4806C78.4618 66.6512 66.209 75.0568 59.2259 75.3908C58.8765 72.8023 58.6724 70.1242 58.6724 67.3316ZM59.5352 77.5587C67.1955 77.0082 79.0927 68.8717 91.6207 60.2867C97.4316 56.3034 103.326 52.2707 108.837 48.9679C117.292 49.2091 121.968 57.0302 126.489 64.6101C130.479 71.3024 134.274 77.6608 140.406 77.6608C140.422 77.6608 140.44 77.6546 140.456 77.6546C135.05 108.797 106.32 124.523 100.005 124.523C93.6834 124.519 64.8977 108.766 59.5352 77.5587ZM84.5541 137.344C84.7985 137.681 85.0923 138.062 85.4386 138.486C87.022 140.576 90.1796 144.133 94.9792 147.191C94.8122 148.314 94.3391 150.012 92.9752 151.447C91.2403 153.271 88.5621 154.196 85.0088 154.196C73.6807 154.196 64.1586 145.546 60.7166 141.983L84.5541 137.344ZM59.6929 142.181C62.8443 145.524 72.8982 155.071 85.0057 155.071C88.8157 155.071 91.7135 154.05 93.6185 152.04C94.9916 150.59 95.5452 148.942 95.7802 147.717C96.7575 148.304 97.7904 148.87 98.8975 149.393C98.7862 151.539 97.5646 158.544 86.4499 158.544C71.42 158.544 58.8703 147.027 55.0262 143.094L59.6929 142.181ZM58.1126 196.907H36.5945C38.0882 189.439 43.8342 161.451 47.5051 153.713C48.8565 150.865 52.5615 148.252 56.1674 147.21C56.755 147.739 57.4106 148.304 58.1126 148.889V196.907ZM140.146 196.907H59.863V150.299C61.5206 151.586 63.3978 152.919 65.4791 154.19V171.783L87.5478 179.812C88.3364 186.742 94.169 192.163 101.304 192.163C108.775 192.163 114.846 186.226 115.158 178.828L134.53 171.78V154.19C136.611 152.919 138.492 151.586 140.146 150.299V196.907ZM141.9 196.907V148.892C142.596 148.311 143.248 147.751 143.83 147.225C147.488 148.277 151.162 150.881 152.504 153.713C156.175 161.448 161.921 189.436 163.415 196.907H141.9Z" fill="currentColor"/>
</svg>
