<?xml version="1.0" encoding="UTF-8"?>
<svg id="Layer_1" xmlns="http://www.w3.org/2000/svg" viewBox="0 0 100 100">
  <defs>
    <style>
      .cls-1 {
        fill: currentColor;
      }
    </style>
  </defs>
  <path class="cls-1" d="M96.9,10.7H3.1c-.8,0-1.5.7-1.5,1.5v75.7c0,.8.7,1.5,1.5,1.5h93.8c.8,0,1.5-.7,1.5-1.5V12.2c0-.8-.7-1.5-1.5-1.5ZM40.9,56.1c-1.4,0-3-1.7-4.7-3.6-2.4-2.6-5-5.5-8.9-5.5s-4.9,1.3-6.8,2.5c-1.8,1.1-3.4,2.1-5.3,2.1h-5c3.1-7.5,6.3-19.5,6.5-37.8h66.6c.1,11.6,1.4,20.7,3.2,27.8-1.9.7-3.4,2-4.8,3.3-2.1,1.9-4.1,3.7-7.5,3.7s-5,2.3-6.1,4.2c-1.4,2.4-2.5,4.2-8.5,1.9-3.9-1.5-9-.7-15,2.1-1.1-.4-2.3-.7-3.7-.7h0ZM8.8,54.5h6.4c2.7,0,4.9-1.3,6.8-2.5,1.8-1.1,3.4-2.1,5.3-2.1s4.7,2.3,6.7,4.5c2,2.2,4.1,4.5,6.9,4.5s4.1,1.2,5.9,2.7c2,1.6,4.2,3.4,7.8,3.4s8.4,1.5,11.3,3H7.9c-1.2-3.4-2.4-6-3.1-7.3.8-1,2.3-3,3.9-6.3h0ZM91,71.2c-1.5,4.6-2.9,10-3.1,15.1H12.1c-.2-5.1-1.6-10.5-3.1-15.1h82ZM92.1,68.2h-20.4c-1.8-1.3-8.8-6.1-17.2-6.1s-4.1-1.2-5.9-2.7c-.3-.2-.6-.5-.9-.7,4.4-1.8,8-2.3,10.8-1.2,7.8,2.9,10.2.1,12.2-3.2,1.1-1.8,1.7-2.7,3.5-2.7,4.6,0,7.2-2.4,9.5-4.5,1.2-1.1,2.3-2.1,3.6-2.7,2.8,9.6,6.3,14.6,7.8,16.5-.6,1.3-1.8,4-3.1,7.3h0ZM95.4,13.7v42.2c-3.4-5.7-8.8-18.6-9.1-42.2h9.1ZM4.6,13.7h9.1c-.2,23.6-5.7,36.5-9.1,42.2V13.7ZM4.6,86.3v-18.4c1.9,5,4.2,12,4.5,18.4h-4.5ZM95.4,86.3h-4.5c.3-6.3,2.6-13.4,4.5-18.4v18.4Z"/>
  <path class="cls-1" d="M18.2,77.2h63.6c.8,0,1.5-.7,1.5-1.5s-.7-1.5-1.5-1.5H18.2c-.8,0-1.5.7-1.5,1.5s.7,1.5,1.5,1.5Z"/>
  <path class="cls-1" d="M75.7,80.3H24.3c-.8,0-1.5.7-1.5,1.5s.7,1.5,1.5,1.5h51.5c.8,0,1.5-.7,1.5-1.5s-.7-1.5-1.5-1.5Z"/>
  <path class="cls-1" d="M45.5,30.3c3.3,0,6.1-2.7,6.1-6.1s-2.7-6.1-6.1-6.1-6.1,2.7-6.1,6.1,2.7,6.1,6.1,6.1ZM45.5,21.2c1.7,0,3,1.4,3,3s-1.4,3-3,3-3-1.4-3-3,1.4-3,3-3Z"/>
  <path class="cls-1" d="M53,31.8h15.1c.8,0,1.5-.7,1.5-1.5s-.7-1.5-1.5-1.5h-15.1c-.8,0-1.5.7-1.5,1.5s.7,1.5,1.5,1.5Z"/>
  <path class="cls-1" d="M62.5,33.8c-.3.3-.4.7-.4,1.1s.2.8.4,1.1c.3.3.7.4,1.1.4s.8-.2,1.1-.4c.3-.3.4-.7.4-1.1s-.2-.8-.4-1.1c-.6-.6-1.6-.6-2.1,0Z"/>
  <path class="cls-1" d="M72.7,31.8c.4,0,.8-.2,1.1-.4.3-.3.4-.7.4-1.1s-.2-.8-.4-1.1c-.6-.6-1.6-.6-2.1,0-.3.3-.4.7-.4,1.1s.2.8.4,1.1c.3.3.7.4,1.1.4Z"/>
  <path class="cls-1" d="M60.6,34.9c0-.8-.7-1.5-1.5-1.5h-12.1c-3.7,0-5.3-.7-7-1.5-1.7-.7-3.4-1.5-6.6-1.5s-1.5.7-1.5,1.5.7,1.5,1.5,1.5c2.5,0,3.8.6,5.3,1.3,1.9.8,4,1.8,8.3,1.8h12.1c.8,0,1.5-.7,1.5-1.5Z"/>
</svg>