<?xml version="1.0" encoding="UTF-8"?>
<svg id="Layer_1" xmlns="http://www.w3.org/2000/svg" viewBox="0 0 100 100">
  <defs>
    <style>
      .cls-1 {
        fill: currentColor;
      }
    </style>
  </defs>
  <g id="OUTLINE">
    <path class="cls-1" d="M51.7,46.6h-3.3c-1.8,0-3.3-1.5-3.3-3.3h-3.3c0,3.6,3,6.6,6.6,6.6h3.3c3.6,0,6.6-3,6.6-6.6h-3.3c0,1.8-1.5,3.3-3.3,3.3Z"/>
    <path class="cls-1" d="M98.4,44.9c.7-1.9,1.1-4,1.1-6.1,0-11.2-9.1-20.3-20.3-20.3h-2.8v-6.6c0-6.4-5.2-11.6-11.6-11.6h-29.7c-6.4,0-11.6,5.2-11.6,11.6v6.6h-2.8c-11.2,0-20.3,9.1-20.3,20.3,0,2.1.4,4.2,1.1,6.1l1.9,5H.4v49.6h3.3v-46.3h1l3.7,9.5-1.9,1.9,13.8,17.2v17.6h3.3v-18.8l-12.7-15.8,10.8-10.8,4.1,5.5,15.2,5.1,9,5.4,9-5.4,15.2-5.1,4.1-5.5,10.8,10.8-12.7,15.8v18.8h3.3v-17.6l13.8-17.2-1.9-1.9,3.7-9.5h1v46.3h3.3v-49.6h-3.1l1.9-5ZM76.4,31.7v3.3c0,2.7-2.2,5-5,5h-1.7v-13.2h1.7c2.7,0,5,2.2,5,5ZM26.9,11.9c0-4.6,3.7-8.3,8.3-8.3h29.7c4.6,0,8.3,3.7,8.3,8.3v11.7c-.5-.1-1.1-.2-1.7-.2h-1.7v-11.6c0-2.7-2.2-5-5-5h-29.7c-2.7,0-5,2.2-5,5v11.6h-1.7c-.6,0-1.1,0-1.7.2v-11.7ZM56.6,26.8c-3,0-5.6,2-6.4,5h-.4c-.9-3.5-4.5-5.7-8.1-4.7-2.3.6-4.1,2.4-4.7,4.7h-3.5v-6.9l19.7-4.5,13.4,7.4v4h-3.5c-.8-2.9-3.4-5-6.4-5ZM59.9,33.4c0,1.8-1.5,3.3-3.3,3.3s-3.3-1.5-3.3-3.3,1.5-3.3,3.3-3.3c1.8,0,3.3,1.5,3.3,3.3ZM46.7,33.4c0,1.8-1.5,3.3-3.3,3.3s-3.3-1.5-3.3-3.3,1.5-3.3,3.3-3.3c1.8,0,3.3,1.5,3.3,3.3ZM58,19.2l8.5-1.9v6.7l-8.5-4.7ZM33.5,21.4v-9.5c0-.9.7-1.7,1.7-1.7h29.7c.9,0,1.7.7,1.7,1.7v2l-33,7.5ZM28.5,26.8h1.7v13.2h-1.7c-2.7,0-5-2.2-5-5v-3.3c0-2.7,2.2-5,5-5ZM11,60.2l-3.9-10.2h0s0,0,0,0l-2.4-6.2c-.6-1.6-.9-3.2-.9-4.9,0-9.4,7.6-17,17-17h2.8v3.3c-2.1,1.6-3.3,4-3.3,6.6v1.7h0c-2.7,0-5,2.2-5,5,0,.6.1,1.3.4,1.8l4.4,11-9,9ZM18.6,38.9c-.3-.8,0-1.8.9-2.1.2,0,.4-.1.6-.1h.2c.8,3.8,4.2,6.6,8.1,6.6h2.3c.7,2.4,1.8,4.7,3.4,6.6h-11.2l-4.4-11ZM40.1,60.8l-12.2-4.1-2.7-3.6h12.5c.6.4,1.2.8,1.9,1.2l.4.2v6.2ZM56.6,62.2l-6.6,4-6.6-4v-5.7l1.1.6c3.5,1.9,7.6,1.9,11.1,0l1.1-.6v5.7ZM58.8,51.5l-4.8,2.6c-2.5,1.4-5.4,1.4-7.9,0l-4.8-2.6c-4.8-2.6-7.8-7.6-7.7-13.1v-3.4h3.5c.9,3.5,4.5,5.7,8.1,4.7,2.3-.6,4.1-2.4,4.7-4.7h.4c.9,3.5,4.5,5.7,8.1,4.7,2.3-.6,4.1-2.4,4.7-4.7h3.5v3.4c0,5.4-3,10.5-7.7,13.1ZM72.1,56.8l-12.2,4.1v-6.2l.4-.2c.7-.4,1.3-.8,1.9-1.2h12.5l-2.7,3.6ZM77,49.9h-11.2c1.6-1.9,2.7-4.2,3.4-6.6h2.3c3.9,0,7.3-2.8,8.1-6.6h.2c.9,0,1.7.7,1.7,1.7,0,.2,0,.4-.1.6l-4.4,11ZM95.4,43.7l-2.4,6.2h0s-3.9,10.3-3.9,10.3l-9-9,4.4-11c1-2.5-.2-5.4-2.8-6.4-.6-.2-1.2-.4-1.8-.4h0v-1.7c0-2.6-1.2-5-3.3-6.6v-3.3h2.8c9.4,0,17,7.6,17,17,0,1.7-.3,3.3-.9,4.9h0Z"/>
    <path class="cls-1" d="M7,18.5c2.7,0,5-2.2,5-5V3.6h6.6V.3h-9.9v8.3h-1.7c-2.7,0-5,2.2-5,5s2.2,5,5,5ZM7,11.9h1.7v1.7c0,.9-.7,1.7-1.7,1.7s-1.7-.7-1.7-1.7.7-1.7,1.7-1.7Z"/>
    <path class="cls-1" d="M93,18.5c2.7,0,5-2.2,5-5V.3h-3.3v8.3h-1.7c-2.7,0-5,2.2-5,5s2.2,5,5,5ZM93,11.9h1.7v1.7c0,.9-.7,1.7-1.7,1.7s-1.7-.7-1.7-1.7.7-1.7,1.7-1.7Z"/>
    <path class="cls-1" d="M55,95.5l8.3,4.1,8.3-4.1v-14.2h-16.5v14.2ZM58.3,84.6h9.9v8.9l-5,2.5-5-2.5v-8.9Z"/>
  </g>
</svg>