<?xml version="1.0" encoding="UTF-8"?>
<svg id="Layer_1" xmlns="http://www.w3.org/2000/svg" viewBox="0 0 100 100">
  <defs>
    <style>
      .cls-1 {
        fill: currentColor;
      }
    </style>
  </defs>
  <path class="cls-1" d="M60.9,10.2c-4.4,0-8.1,3.5-8.1,8,0,0,0,.1,0,.2v4.2c0,4.4,3.5,8.1,8,8.2,0,0,.1,0,.2,0h.5c4.4,0,8.1-3.5,8.1-8,0,0,0-.1,0-.2v-4.2c0-4.4-3.5-8.1-8-8.2,0,0-.1,0-.2,0h-.5ZM65.8,18.3v4.2c0,2.4-1.9,4.4-4.3,4.4,0,0,0,0,0,0h-.5c-2.4,0-4.4-1.9-4.4-4.3,0,0,0,0,0,0v-4.2c0-2.4,1.9-4.4,4.3-4.4,0,0,0,0,0,0h.5c2.4,0,4.4,1.9,4.4,4.3,0,0,0,0,0,0Z"/>
  <path class="cls-1" d="M109.6,75.4h-16.8v-7.5h1.9c2.1,0,3.7-1.7,3.7-3.7v-5.6c0-2.1-1.7-3.7-3.7-3.7h-3.7v-16.8c0-3.1-2.5-5.6-5.6-5.6h-4.8c.1.6.2,1.2.2,1.9v1.9h4.7c1,0,1.9.8,1.9,1.9v16.8h-6.5v1.9c0,.6-.1,1.3-.3,1.9h14.3v5.6s-22.4,0-22.4,0v-5.6h2.8c1,0,1.9-.8,1.9-1.9v-22.4c0-3.1-1.9-5.9-4.8-7-.6,1.2-1.3,2.3-2.2,3.3,1.9.2,3.3,1.8,3.3,3.7v20.5h-1.3c-.4-1.3-1.3-2.3-2.5-3v-10.1c0-1-.8-1.9-1.9-1.9s-1.9.8-1.9,1.9v9.3h-.9c-1.4,0-2.7.5-3.7,1.4-1-.9-2.3-1.4-3.7-1.4h-.9v-9.3c0-1-.8-1.9-1.9-1.9s-1.9.8-1.9,1.9v10.1c-1.1.7-2,1.7-2.5,3h-1.3v-20.5c0-1.9,1.4-3.5,3.3-3.7-.9-1-1.7-2.1-2.2-3.3-2.9,1.1-4.8,3.9-4.8,7v22.4c0,1,.8,1.9,1.9,1.9h2.8v5.6h-22.4v-5.6h14.3c-.2-.6-.3-1.2-.3-1.9v-1.9h-6.5v-16.8c0-1,.8-1.9,1.9-1.9h4.7v-1.9c0-.6,0-1.2.2-1.9h-4.8c-3.1,0-5.6,2.5-5.6,5.6v16.8h-3.7c-2.1,0-3.7,1.7-3.7,3.7v5.6c0,2.1,1.7,3.7,3.7,3.7h1.9v7.5H12.7v-11.5c4.3-1.4,7.5-7.7,7.5-15.5s-4.1-15.8-9.3-15.8S1.5,39.5,1.5,48.4s3.2,14.1,7.5,15.5v11.5H3.4c-1,0-1.9.8-1.9,1.9s.8,1.9,1.9,1.9h92.5c1,0,1.9-.8,1.9-1.9s-.8-1.9-1.9-1.9h-5.6M111.4,32.5,85.4,67.9h3.7v7.5h-3.7v-7.5ZM72.3,73.5v-5.6h9.3v7.5h-9.6c.2-.6.3-1.2.3-1.9ZM63,56.8c0-1,.8-1.9,1.9-1.9h1.9c1,0,1.9.8,1.9,1.9v16.8c0,1-.8,1.9-1.9,1.9h-1.9c-1,0-1.9-.8-1.9-1.9v-16.8ZM53.7,56.8c0-1,.8-1.9,1.9-1.9h1.9c1,0,1.9.8,1.9,1.9v16.8c0,1-.8,1.9-1.9,1.9h-1.9c-1,0-1.9-.8-1.9-1.9v-16.8ZM40.6,67.9h9.3v5.6c0,.6.1,1.3.3,1.9h-9.6v-7.5ZM33.2,67.9h3.7v7.5h-3.7v-7.5ZM5.2,48.4c0-7.1,2.9-12.1,5.6-12.1s5.6,5,5.6,12.1-1.7,9.7-3.7,11.3v-9c0-1-.8-1.9-1.9-1.9s-1.9.8-1.9,1.9v9c-2-1.7-3.7-5.9-3.7-11.3Z"/>
</svg>