<?xml version="1.0" encoding="UTF-8"?>
<svg id="Layer_1" xmlns="http://www.w3.org/2000/svg" viewBox="0 0 100 100">
  <defs>
    <style>
      .cls-1 {
        fill: currentColor;
        fill-rule: evenodd;
      }
    </style>
  </defs>
  <path class="cls-1" d="M20.9,48.3V15.4c0-.5.2-.9.6-1.3L34.5,1.1c.5-.6,1.4-.8,2-.4l32.1,13.1c.6.3,1,.9,1,1.5h0v12.5l8.8,8.8c.4.3.6.8.6,1.3v10.4h18.7c.9,0,1.7.7,1.7,1.7,0,2.9-.2,5.8-.7,8.6-.1.8-.8,1.4-1.6,1.4h-7.4c-1,3.9-2.5,7.6-4.6,11.1l5.2,5.2c.6.6.7,1.6,0,2.3-3.3,4.7-7.4,8.8-12.1,12-.7.5-1.6.4-2.1-.2h0s-5.2-5.2-5.2-5.2c-3.5,2.1-7.2,3.6-11.1,4.6v7.4c0,.8-.6,1.5-1.4,1.6-5.7,1-11.5,1-17.1,0-.8-.1-1.4-.8-1.4-1.6v-7.4c-3.9-1-7.6-2.5-11.1-4.6l-5.2,5.2c-.6.6-1.6.7-2.3,0-4.7-3.3-8.8-7.4-12-12.1-.5-.7-.4-1.6.2-2.1h0s5.2-5.2,5.2-5.2c-2.1-3.5-3.6-7.2-4.6-11.1H2.9c-.8,0-1.5-.6-1.6-1.4-.2-1.4-.4-2.8-.5-4.2-.1-1.4-.2-2.9-.2-4.3s.7-1.7,1.7-1.7h18.7ZM75.8,48.3v-9.7l-8.1-8.1-20.8,8.5v31.2c12.4,1.9,23.7-7.6,23.7-20.2s.7-1.7,1.7-1.7h3.6ZM26.2,51.7H3.9c0,1.7.2,3.3.4,5h7.3c.8,0,1.5.5,1.6,1.3.9,4.4,2.7,8.6,5.1,12.4.5.7.4,1.6-.2,2.2l-5.1,5.1c2.7,3.6,5.8,6.7,9.4,9.4l5.1-5.1h0c.6-.5,1.4-.6,2.1-.2,1.9,1.2,3.9,2.3,6,3.1,2.1.9,4.2,1.5,6.4,2,.8.1,1.4.8,1.4,1.6v7.3c4.4.6,8.9.6,13.3,0v-7.3h0c0-.8.5-1.5,1.3-1.6,4.4-.9,8.6-2.7,12.4-5.1.7-.5,1.6-.4,2.2.2l5.1,5.1c3.6-2.7,6.7-5.8,9.4-9.4l-5.1-5.1h0c-.6-.6-.6-1.4-.2-2.1,1.2-1.9,2.3-3.9,3.1-6,.9-2.1,1.5-4.2,2-6.4.1-.8.8-1.4,1.6-1.4h7.3c.2-1.7.4-3.3.4-5h-22.4c-.9,13.1-12.3,23-25.4,22.1-11.8-.8-21.3-10.3-22.1-22.1h0ZM43.5,69.4v-31.5h0c0-.7.4-1.3,1-1.5l21.9-8.9v-11l-28.9-11.8v61.6c1.8,1.4,3.9,2.5,6,3.2h0ZM34.1,62.9V6.2l-9.9,9.9v32.3h3.6c.9,0,1.7.7,1.7,1.7,0,4.7,1.6,9.3,4.6,12.9h0Z"/>
</svg>