<?xml version="1.0" encoding="UTF-8"?>
<svg id="svg663" xmlns="http://www.w3.org/2000/svg" xmlns:xlink="http://www.w3.org/1999/xlink" viewBox="0 0 100 100">
  <defs>
    <style>
      .cls-63194, .cls-2 {
        fill: none;
      }

      .cls-3 {
        clip-path: url(#clippath);
      }

      .cls-2 {
        stroke: currentColor;
        stroke-linecap: round;
        stroke-linejoin: round;
        stroke-width: 2.9px;
      }
    </style>
    <clipPath id="clippath">
      <rect class="cls-63194" x=".5" y=".5" width="99" height="99"/>
    </clipPath>
  </defs>
  <g id="g669">
    <g id="g671">
      <path id="path673" class="cls-2" d="M50,23.3v-10.6"/>
    </g>
    <g id="g675">
      <g class="cls-3">
        <g id="g677">
          <g id="g683">
            <path id="path685" class="cls-2" d="M84.6,67.3l.8-.2c2-.4,4,.8,4.4,2.8,0,.3,0,.5,0,.8,0,1.7-1.2,3.2-2.9,3.6l-5.4,1.2"/>
          </g>
          <g id="g687">
            <path id="path689" class="cls-2" d="M15.4,67.3l-.8-.2c-2-.4-4,.8-4.4,2.8,0,.3,0,.5,0,.8,0,1.7,1.2,3.2,2.9,3.6l5.4,1.2"/>
          </g>
          <g id="g691">
            <path id="path693" class="cls-2" d="M39.3,92.9c3.4,1.1,7,1.6,10.7,1.6s7.3-.6,10.7-1.6"/>
          </g>
          <g id="g695">
            <path id="path697" class="cls-2" d="M18.5,75.4c-2.6-4.9-4-10.5-4-16.5,0-19.7,15.9-35.6,35.6-35.6s35.6,15.9,35.6,35.6-1.5,11.6-4,16.5"/>
          </g>
          <g id="g699">
            <path id="path701" class="cls-2" d="M42.5,24.1c.7,2.9,1.4,6.2,2.1,10.2,1.1,6.5,1.5,12,4.6,13,3,1,5.5-3.3,9.6-2.5,3.5.7,4,4.1,7.1,6.7,2.9,2.4,7.4,3.5,12.2,3.2"/>
          </g>
          <g id="g703">
            <path id="path705" class="cls-2" d="M21.3,37.9c3.7,2.2,6.8,5.6,7.9,9.2,1.4,4.4-.8,7,.8,15.5.4,2.2.9,3.5,1.2,4.6"/>
          </g>
          <g id="g707">
            <path id="path709" class="cls-2" d="M41.6,90.3c3.3-2.1,6.7-5.2,8.8-10,2.8-6.4,1.2-11.4,4.5-12.9,4.1-2,10.7,4,13.6,6.6"/>
          </g>
          <g id="g711">
            <path id="path713" class="cls-2" d="M73.5,72.2h0c1.3-1.3,3.5-1.3,4.8,0l5.7,5.7c1.3,1.3,1.3,3.5,0,4.8h0c-1.3,1.3-3.5,1.3-4.8,0l-5.7-5.7c-1.3-1.3-1.3-3.5,0-4.8Z"/>
          </g>
          <g id="g715">
            <path id="path717" class="cls-2" d="M66.7,74.9h0c1.3-1.3,3.5-1.3,4.8,0l9.8,9.8c1.3,1.3,1.3,3.5,0,4.8-1.3,1.3-3.5,1.3-4.8,0l-9.8-9.8c-1.3-1.3-1.3-3.5,0-4.8Z"/>
          </g>
          <g id="g719">
            <path id="path721" class="cls-2" d="M61.9,79.7h0c1.3-1.3,3.5-1.3,4.8,0l9.8,9.8c1.3,1.3,1.3,3.5,0,4.8-1.3,1.3-3.5,1.3-4.8,0l-9.8-9.8c-1.3-1.3-1.3-3.5,0-4.8Z"/>
          </g>
          <g id="g723">
            <path id="path725" class="cls-2" d="M59.2,86.5h0c1.3-1.3,3.5-1.3,4.8,0l5.7,5.7c1.3,1.3,1.3,3.5,0,4.8-1.3,1.3-3.5,1.3-4.8,0l-5.7-5.7c-1.3-1.3-1.3-3.5,0-4.8Z"/>
          </g>
          <g id="g727">
            <path id="path729" class="cls-2" d="M26.5,72.2h0c-1.3-1.3-3.5-1.3-4.8,0l-5.7,5.7c-1.3,1.3-1.3,3.5,0,4.8h0c1.3,1.3,3.5,1.3,4.8,0l5.7-5.7c1.3-1.3,1.3-3.5,0-4.8Z"/>
          </g>
          <g id="g731">
            <path id="path733" class="cls-2" d="M33.3,74.9h0c-1.3-1.3-3.5-1.3-4.8,0l-9.8,9.8c-1.3,1.3-1.3,3.5,0,4.8,1.3,1.3,3.5,1.3,4.8,0l9.8-9.8c1.3-1.3,1.3-3.5,0-4.8Z"/>
          </g>
          <g id="g735">
            <path id="path737" class="cls-2" d="M38.1,79.7h0c-1.3-1.3-3.5-1.3-4.8,0l-9.8,9.8c-1.3,1.3-1.3,3.5,0,4.8,1.3,1.3,3.5,1.3,4.8,0l9.8-9.8c1.3-1.3,1.3-3.5,0-4.8Z"/>
          </g>
          <g id="g739">
            <path id="path741" class="cls-2" d="M40.8,86.5h0c-1.3-1.3-3.5-1.3-4.8,0l-5.7,5.7c-1.3,1.3-1.3,3.5,0,4.8,1.3,1.3,3.5,1.3,4.8,0l5.7-5.7c1.3-1.3,1.3-3.5,0-4.8Z"/>
          </g>
          <g id="g743">
            <path id="path745" class="cls-2" d="M46.5,18h3.5v-3.5c0-4.6-3.8-8.4-8.4-8.4h-2.7c-.4,0-.8.3-.8.8v2.7c0,4.6,3.8,8.4,8.4,8.4Z"/>
          </g>
          <g id="g747">
            <path id="path749" class="cls-2" d="M53.5,13.8h-3.5v-3.5c0-4.6,3.8-8.4,8.4-8.4h2.7c.4,0,.8.3.8.8v2.7c0,4.6-3.8,8.4-8.4,8.4Z"/>
          </g>
          <g id="g751">
            <path id="path753" class="cls-2" d="M50,13.8l5-4.4"/>
          </g>
          <g id="g755">
            <path id="path757" class="cls-2" d="M50,18l-5-5"/>
          </g>
        </g>
      </g>
    </g>
  </g>
</svg>