<?xml version="1.0" encoding="UTF-8"?>
<svg id="Layer_1" xmlns="http://www.w3.org/2000/svg" viewBox="0 0 100 100">
  <defs>
    <style>
      .cls-1 {
        fill: #fff;
      }

      .cls-2 {
        fill: currentColor;
        fill-rule: evenodd;
      }
    </style>
  </defs>
  <g>
    <path class="cls-2" d="M16.8,70.4h-.4c-1.7,0-3.1-1.4-3.1-3.1s1.1-2.8,2.5-3.1v.8c.1,0,.9,4.7.9,4.7v.8Z"/>
    <polygon class="cls-2" points="17.4 64.9 82.3 64.9 81.5 69.7 18.2 69.7 17.4 64.9"/>
    <path class="cls-2" d="M86.4,67.3c0,1.7-1.4,3.1-3.1,3.1h-.4v-.8c.1,0,.9-4.7.9-4.7v-.8c1.6.3,2.7,1.6,2.7,3.1Z"/>
    <path class="cls-1" d="M84,63.5v.7c-.1,0-.2.8-.2.8,1.1.2,1.9,1.2,1.9,2.3s-1.1,2.4-2.4,2.4h-.3v.8c-.1,0-.2.8-.2.8h.5c2.1,0,3.9-1.7,3.9-3.9s-1.4-3.5-3.2-3.8ZM16.7,69.7h-.3c-1.3,0-2.4-1.1-2.4-2.4s.8-2.1,1.9-2.3v-.8c-.1,0-.2-.7-.2-.7-1.8.3-3.2,1.9-3.2,3.8s1.7,3.9,3.9,3.9h.5l-.2-1.5Z"/>
  </g>
  <path class="cls-2" d="M91.8,27.8c-1.5-1-3.5-1-5,0l-16.4,10.4-17-19.6c-.9-1-2.1-1.6-3.5-1.6s-2.6.6-3.5,1.6l-17.1,19.6-16.4-10.4c-.7-.5-1.6-.7-2.4-.7s-1.8.2-2.5.8c-1.5,1-2.3,2.8-2,4.6l7.6,47.1c.5,3.3,3.4,5.8,6.7,5.8h59.3c3.4,0,6.2-2.4,6.8-5.8l7.5-47.1c.3-1.8-.5-3.6-2-4.6ZM84,63.5v.7c-.1,0-.2.8-.2.8l-.8,4.7v.8c-.1,0-.2.8-.2.8l-1.2,7.6c-.2,1-1,1.8-2.1,1.8H20.2c-1,0-1.9-.7-2.1-1.8l-1.2-7.6-.2-1.5h-.3c-1.3,0-2.4-1.1-2.4-2.4s.8-2.1,1.9-2.3v-.8c-.1,0-.2-.7-.2-.7l-5-31.5,16.2,10.3c1.9,1.2,4.4.9,5.9-.9l17-19.5,17,19.5c1.5,1.7,4,2.1,5.9.9l16.3-10.3-5,31.5Z"/>
</svg>