<?xml version="1.0" encoding="UTF-8"?>
<svg id="Icons" xmlns="http://www.w3.org/2000/svg" viewBox="0 0 100 100">
  <defs>
    <style>
      .cls-1 {
        fill: currentColor;
      }
    </style>
  </defs>
  <path class="cls-1" d="M5,65.3h36.7v18.3h-8.3c-1.8,0-3.3,1.5-3.3,3.3v3.3h-5c-1.8,0-3.3,1.5-3.3,3.3v3.3c0,1.8,1.5,3.3,3.3,3.3h50c1.8,0,3.3-1.5,3.3-3.3v-3.3c0-1.8-1.5-3.3-3.3-3.3h-5v-3.3c0-1.8-1.5-3.3-3.3-3.3h-8.3v-18.3h36.7c2.8,0,5-2.2,5-5,0-2.8-2.2-5-5-5h-38.4c-2.7-3.7-7.9-4.4-11.5-1.7-.7.5-1.2,1.1-1.7,1.7H5c-1.3,0-2.6.5-3.5,1.5-1,.9-1.5,2.2-1.5,3.5,0,2.8,2.2,5,5,5ZM75,97H25v-3.3h50v3.3ZM66.7,90.3h-33.3v-3.3h33.3v3.3ZM95,58.7c.9,0,1.7.7,1.7,1.7,0,.4-.2.9-.5,1.2-.3.3-.7.5-1.2.5h-36.7v-1.7c0-.6,0-1.1-.2-1.7h36.8ZM50,55.3c2.8,0,5,2.2,5,5v23.3h-10v-23.3c0-2.8,2.2-5,5-5ZM3.9,59.1c.3-.3.7-.5,1.2-.5h36.8c-.1.5-.2,1.1-.2,1.7v1.7H5c-.9,0-1.7-.7-1.7-1.7,0-.4.2-.9.5-1.2Z"/>
  <path class="cls-1" d="M58.3,45.3h36.7c2.8,0,5-2.2,5-5V13.7c0-2.8-2.2-5-5-5h-6.7v-1.7c0-3.7-3-6.7-6.7-6.7h-10c-3.7,0-6.7,3-6.7,6.7v1.7h-6.7c-2.8,0-5,2.2-5,5v26.7c0,2.8,2.2,5,5,5ZM95,42h-36.7c-.9,0-1.7-.7-1.7-1.7v-13.6c.5.2,1.1.3,1.7.3h11.7v1.7c0,2.8,2.2,5,5,5h3.3c2.8,0,5-2.2,5-5v-1.7h11.7c.6,0,1.1-.1,1.7-.3v13.6c0,.9-.7,1.7-1.7,1.7ZM73.3,27h6.7v1.7c0,.9-.7,1.7-1.7,1.7h-3.3c-.9,0-1.7-.7-1.7-1.7v-1.7ZM68.3,7c0-1.8,1.5-3.3,3.3-3.3h10c1.8,0,3.3,1.5,3.3,3.3v1.7h-16.7v-1.7ZM56.7,13.7c0-.9.7-1.7,1.7-1.7h36.7c.9,0,1.7.7,1.7,1.7v8.3c0,.9-.7,1.7-1.7,1.7h-36.7c-.9,0-1.7-.7-1.7-1.7v-8.3Z"/>
  <path class="cls-1" d="M21.4,42.9c.5.5,1.2.8,1.9.8.7,0,1.4-.3,1.9-.8l17.7-17.5h0c5-5,5-13,0-18,0,0,0,0,0,0-5.1-4.8-13-4.8-18.1,0l-1.5,1.4-1.4-1.4c-5.1-4.8-13-4.8-18.1,0-5,4.9-5,13,0,18,0,0,0,0,0,0l17.7,17.5ZM6.1,9.7c1.8-1.7,4.2-2.7,6.7-2.7,2.5,0,4.9.9,6.7,2.7l2.6,2.6c.6.6,1.7.6,2.3,0l2.6-2.6c3.8-3.6,9.7-3.6,13.4,0,3.7,3.7,3.7,9.6,0,13.3,0,0,0,0,0,0l-17.2,17.1L6.1,23c-3.7-3.6-3.7-9.6,0-13.2,0,0,0,0,0,0h0Z"/>
  <path class="cls-1" d="M50,63.7c.9,0,1.7-.7,1.7-1.7v-1.7c0-.9-.7-1.7-1.7-1.7s-1.7.7-1.7,1.7v1.7c0,.9.7,1.7,1.7,1.7Z"/>
  <path class="cls-1" d="M13.3,23.7h3.3c.6,0,1.1-.3,1.4-.7l1.8-2.8,5.3,9.3c.3.5.8.8,1.4.8h0c.6,0,1.2-.4,1.4-.9l2.9-5.7h2.3c.9,0,1.7-.7,1.7-1.7s-.7-1.7-1.7-1.7h-3.3c-.6,0-1.2.4-1.5.9l-1.9,3.9-5.1-9c-.3-.5-.8-.8-1.4-.8-.6,0-1.1.3-1.4.7l-2.8,4.3h-2.4c-.9,0-1.7.7-1.7,1.7s.7,1.7,1.7,1.7Z"/>
</svg>