<?xml version="1.0" encoding="UTF-8"?>
<svg id="Layer_1" xmlns="http://www.w3.org/2000/svg" viewBox="0 0 100 100">
  <defs>
    <style>
      .cls-1 {
        fill: #fff;
      }

      .cls-2 {
        fill: currentColor;
      }
    </style>
  </defs>
  <g>
    <path class="cls-2" d="M65,84.1c-.1.2-.2.3-.4.5-.6.6-1.5,1-2.4,1h-2c0-.3-.2-.7-.2-1-.3-1.5-.3-3.1,0-4.7,0-.2,0-.4.1-.6,0-.1,0-.2,0-.4h2c.9,0,1.7.3,2.4,1,.1,0,.2.2.3.3-.2,1.2-.2,2.5,0,3.7,0,0,0,.2,0,.2Z"/>
    <path class="cls-2" d="M40,17.7c0,.8,0,1.7-.2,2.5,0,.3-.1.7-.2,1h-2.1c-.9,0-1.7-.4-2.4-1-.1-.1-.3-.3-.4-.4.2-.7.2-1.5.2-2.2s0-1.2-.2-1.8c0-.1.2-.2.3-.3.6-.6,1.5-1,2.4-1h2.1c0,.3.1.7.2,1,.1.7.2,1.5.2,2.2Z"/>
    <path class="cls-2" d="M82,33.9c0,14.6-14.5,18.5-22.2,18.5h-19.8c-6.1,0-17.5,2.9-17.5,13.8s11.5,13.8,17.5,13.8h18.1c-.2,1.6-.2,3.1,0,4.7h-18.1c-7.7,0-22.2-3.9-22.2-18.4s14.5-18.5,22.2-18.5h19.8c6,0,17.5-2.9,17.5-13.8s-11.5-13.8-17.5-13.8h-18c.1-.8.2-1.6.2-2.5s0-1.5-.1-2.2h18c7.7,0,22.2,3.9,22.2,18.5Z"/>
    <path class="cls-1" d="M35.8,19.5c-.4-.4-.7-1-.7-1.7s.2-1.2.7-1.7,1-.7,1.7-.7h2.3c0-.3-.1-.7-.2-1,0-.3-.2-.7-.3-1h-1.9c-1.1,0-2.1.4-2.9,1.2.1.4.2.8.3,1.2.1.6.2,1.2.2,1.8s0,1.5-.2,2.2c0,.4-.2.8-.3,1.1.8.8,1.9,1.3,3.1,1.3h1.8c.1-.3.2-.7.3-1,0-.3.1-.7.2-1h-2.3c-.6,0-1.2-.2-1.7-.7ZM65,84.1c0,0,0-.2,0-.2-.2-1.2-.3-2.5,0-3.7,0-.4.2-.8.3-1.2-.8-.7-1.8-1.1-2.9-1.1h-1.8c-.1.3-.2.7-.3,1,0,.1,0,.2,0,.4,0,.2,0,.4-.1.6h2.2c.6,0,1.2.2,1.7.7.5.4.7,1,.7,1.7s-.2,1.2-.7,1.7c-.4.4-1,.7-1.7.7h-2.2c0,.3.1.7.2,1,0,.3.2.7.3,1h1.7c1.2,0,2.3-.5,3.1-1.3-.1-.4-.2-.8-.3-1.2Z"/>
  </g>
  <path class="cls-2" d="M39.8,15.5c0-.3-.1-.7-.2-1,0-.3-.2-.7-.3-1-.4-1.4-1-2.7-1.9-4-1.6-2.4-3.9-4.3-6.6-5.4-2.7-1.1-5.6-1.4-8.5-.9s-5.5,1.9-7.5,4c-2.1,2.1-3.5,4.7-4.1,7.5-.6,2.9-.3,5.8.8,8.5,1.1,2.7,3,5,5.4,6.7,2.4,1.6,5.2,2.5,8.2,2.5,2,0,3.9-.3,5.7-1.1,1.8-.7,3.4-1.8,4.8-3.2s2.5-3,3.2-4.8c.2-.4.3-.8.4-1.2.1-.3.2-.7.3-1,0-.3.1-.7.2-1,.1-.8.2-1.6.2-2.5s0-1.5-.2-2.2ZM33.3,23.1c-1.1,1.6-2.6,2.9-4.5,3.6-1.2.5-2.5.8-3.8.8s-1.3,0-1.9-.2c-1.9-.4-3.7-1.3-5.1-2.7s-2.3-3.2-2.7-5.1c-.4-1.9-.2-3.9.6-5.7.8-1.8,2-3.4,3.7-4.5,2.7-1.8,6.3-2.2,9.3-.9,1.2.5,2.3,1.2,3.2,2.1.9.9,1.7,2,2.2,3.2.1.3.2.6.3.9.1.4.2.8.3,1.2.1.6.2,1.2.2,1.8s0,1.5-.2,2.2c0,.4-.2.8-.3,1.1-.3.8-.6,1.5-1.1,2.2Z"/>
  <path class="cls-2" d="M86.9,73.9c-1.6-2.4-3.9-4.3-6.6-5.4-1.8-.8-3.7-1.1-5.6-1.1s-1.9,0-2.9.3c-2.9.6-5.5,2-7.5,4-1.7,1.8-3,3.9-3.7,6.2-.1.3-.2.7-.3,1,0,.1,0,.2,0,.4,0,.2,0,.4-.1.6-.2,1.6-.2,3.1,0,4.7,0,.3.1.7.2,1,0,.3.2.7.3,1,.1.4.3.8.4,1.2,1.1,2.7,3,5,5.5,6.6,2.4,1.6,5.2,2.5,8.2,2.5h0c2,0,3.9-.4,5.6-1.1,1.8-.7,3.4-1.8,4.8-3.2,2.8-2.8,4.3-6.5,4.3-10.4s-.9-5.8-2.5-8.2ZM83,87.5c-1.1,1.6-2.6,2.9-4.5,3.7-1.2.5-2.5.8-3.8.8s-1.3,0-1.9-.2c-1.9-.4-3.7-1.3-5.1-2.7s-1.8-2.3-2.3-3.7c-.1-.4-.2-.8-.3-1.2,0,0,0-.2,0-.2-.2-1.2-.3-2.5,0-3.7,0-.4.2-.8.3-1.2,0-.3.2-.6.3-.9.8-1.8,2-3.4,3.6-4.5,1.6-1.1,3.5-1.7,5.5-1.7s5.1,1,7,2.9c1.8,1.8,2.9,4.4,2.9,7s-.6,3.9-1.7,5.5Z"/>
</svg>