<?xml version="1.0" encoding="UTF-8"?>
<svg id="Layer_1" xmlns="http://www.w3.org/2000/svg" viewBox="0 0 100 100">
  <defs>
    <style>
      .cls-1 {
        fill: currentColor;
      }
    </style>
  </defs>
  <path class="cls-1" d="M86.3,18c-4.7-1.6-8.4-5.4-10-10-1-3-3.8-5-6.9-5H28.9c-3.1,0-5.9,2-6.9,5-1.6,4.7-5.3,8.4-10,10-3,1-5,3.8-5,7v10.2c0,13.4,4,26.2,11.6,37.2,6.9,10,16.5,17.9,27.6,22.7.9.4,1.9.6,2.9.6s2-.2,2.9-.6c11.1-4.8,20.7-12.7,27.6-22.7,7.6-11,11.6-23.8,11.6-37.2v-10.2c0-3.1-2-5.9-5-7ZM85.8,35.2c0,12.2-3.7,24-10.6,34.1-6.3,9.2-15.1,16.4-25.3,20.8-.5.2-1.1.2-1.5,0-10.2-4.4-18.9-11.6-25.3-20.8-6.9-10.1-10.6-21.9-10.6-34.1v-10.2c0-.8.5-1.6,1.3-1.8,6.2-2.1,11.2-7.2,13.4-13.4.3-.8,1-1.3,1.8-1.3h40.4c.8,0,1.5.5,1.8,1.3,2.1,6.3,7.1,11.3,13.4,13.4.8.3,1.3,1,1.3,1.8v10.2Z"/>
  <path class="cls-1" d="M60.7,38.2h-.2v-7.7c0-6.3-5.1-11.4-11.4-11.4s-11.4,5.1-11.4,11.4v7.7h-.2c-3.6,0-6.5,2.9-6.5,6.5v15.6c0,6.7,5.5,12.2,12.2,12.2h11.8c6.7,0,12.2-5.5,12.2-12.2v-15.6c0-3.6-2.9-6.5-6.5-6.5ZM43.2,30.4c0-3.3,2.7-5.9,5.9-5.9s5.9,2.7,5.9,5.9v7.7h-11.8v-7.7ZM61.8,60.3c0,3.7-3,6.7-6.7,6.7h-11.8c-3.7,0-6.7-3-6.7-6.7v-15.6c0-.6.5-1.1,1.1-1.1h23.1c.6,0,1.1.5,1.1,1.1v15.6Z"/>
  <path class="cls-1" d="M49.1,50.1c-1.5,0-2.7,1.2-2.7,2.7v5.1c0,1.5,1.2,2.7,2.7,2.7s2.7-1.2,2.7-2.7v-5.1c0-1.5-1.2-2.7-2.7-2.7Z"/>
</svg>