<?xml version="1.0" encoding="UTF-8"?>
<svg id="Line" xmlns="http://www.w3.org/2000/svg" viewBox="0 0 100 100">
  <defs>
    <style>
      .cls-1 {
        fill: currentColor;
      }
    </style>
  </defs>
  <path class="cls-1" d="M70.2,26.1c1,0,1.8-.8,1.8-1.8v-7.3c0-1-.8-1.8-1.8-1.8s-1.8.8-1.8,1.8v7.3c0,1,.8,1.8,1.8,1.8Z"/>
  <path class="cls-1" d="M70.2,44.5c-1,0-1.8.8-1.8,1.8v7.3c0,1,.8,1.8,1.8,1.8s1.8-.8,1.8-1.8v-7.3c0-1-.8-1.8-1.8-1.8Z"/>
  <path class="cls-1" d="M29.8,84.9c8.1,0,14.7-6.6,14.7-14.7s-6.6-14.7-14.7-14.7-14.7,6.6-14.7,14.7,6.6,14.7,14.7,14.7ZM29.8,59.2c6.1,0,11,4.9,11.1,11,0,6.1-4.9,11-11,11.1-3.2,0-6.2-1.3-8.3-3.7h.2c2.5-.6,4.3-2.8,4.3-5.4v-3.9c0-2.6-1.8-4.8-4.3-5.4h-.2c2.1-2.3,5.1-3.7,8.2-3.7ZM18.8,70.2c0-1.4.3-2.8.8-4.1l1.5.3c.9.2,1.5,1,1.4,1.8v3.9c0,.9-.6,1.6-1.4,1.8l-1.5.3c-.5-1.3-.8-2.8-.8-4.2Z"/>
  <path class="cls-1" d="M46.3,40.8h3.7c1,0,1.8-.8,1.8-1.8s-.8-1.8-1.8-1.8h-3.7c-1,0-1.8.8-1.8,1.8s.8,1.8,1.8,1.8Z"/>
  <path class="cls-1" d="M9.6,40.8h3.7c1,0,1.8-.8,1.8-1.8s-.8-1.8-1.8-1.8h-3.7c-1,0-1.8.8-1.8,1.8s.8,1.8,1.8,1.8Z"/>
  <path class="cls-1" d="M20.6,40.8h18.4c1,0,1.8-.8,1.8-1.8s-.8-1.8-1.8-1.8h-18.4c-1,0-1.8.8-1.8,1.8s.8,1.8,1.8,1.8Z"/>
  <path class="cls-1" d="M94.1,59.2h-14.7V5.9c0-3-2.5-5.5-5.5-5.5H26.1c-3,0-5.5,2.5-5.5,5.5v23.9H5.9c-3,0-5.5,2.5-5.5,5.5v58.8c0,3,2.5,5.5,5.5,5.5h88.2c3,0,5.5-2.5,5.5-5.5v-29.4c0-3-2.5-5.5-5.5-5.5ZM59.2,59.2v-18.4h16.5v18.4h-16.5ZM24.3,5.9c0-1,.8-1.8,1.8-1.8h15.4l-1.8,3.7h-15.4v-1.8ZM24.3,11.4h16.5c.7,0,1.3-.4,1.6-1l3.2-6.3h28.2c1,0,1.8.8,1.8,1.8v31.2h-16.5v-1.8c0-3-2.5-5.5-5.5-5.5h-29.4V11.4ZM5.9,33.5h47.8c1,0,1.8.8,1.8,1.8v9.2H4.1v-9.2c0-1,.8-1.8,1.8-1.8ZM4.1,94.1v-45.9h51.4v11h-1.8c-3,0-5.5,2.5-5.5,5.5v23.9H9.6c-1,0-1.8.8-1.8,1.8s.8,1.8,1.8,1.8h38.6v1.8c0,.6.1,1.2.3,1.8H5.9c-1,0-1.8-.8-1.8-1.8ZM95.9,94.1c0,1-.8,1.8-1.8,1.8h-40.4c-1,0-1.8-.8-1.8-1.8v-29.4c0-1,.8-1.8,1.8-1.8h40.4c1,0,1.8.8,1.8,1.8v29.4Z"/>
  <path class="cls-1" d="M79.4,66.5h-22c-1,0-1.8.8-1.8,1.8v22c0,1,.8,1.8,1.8,1.8h22c1,0,1.8-.8,1.8-1.8v-22c0-1-.8-1.8-1.8-1.8ZM77.5,88.6h-18.4v-18.4h18.4v18.4Z"/>
  <path class="cls-1" d="M90.4,77.5h-3.7c-1,0-1.8.8-1.8,1.8s.8,1.8,1.8,1.8h3.7c1,0,1.8-.8,1.8-1.8s-.8-1.8-1.8-1.8Z"/>
  <path class="cls-1" d="M90.4,70.2h-3.7c-1,0-1.8.8-1.8,1.8s.8,1.8,1.8,1.8h3.7c1,0,1.8-.8,1.8-1.8s-.8-1.8-1.8-1.8Z"/>
  <path class="cls-1" d="M90.4,84.9h-3.7c-1,0-1.8.8-1.8,1.8s.8,1.8,1.8,1.8h3.7c1,0,1.8-.8,1.8-1.8s-.8-1.8-1.8-1.8Z"/>
</svg>