<?xml version="1.0" encoding="UTF-8"?>
<svg id="Layer_1" xmlns="http://www.w3.org/2000/svg" viewBox="0 0 100 100">
  <defs>
    <style>
      .cls-1 {
        fill: #231f20;
      }
    </style>
  </defs>
  <path class="cls-1" d="M12.6,91.1H1.9c-1.5,0-1.7-.2-1.7-1.7v-33.2c0-1.5.2-1.7,1.7-1.7h19.8c.3,0,.5-.2.5-.5v-13.7c0-1.5.7-1.5,1-1.5s.5,0,.9.2l9,3,1,.3c0,0,.1,0,.2,0,.1,0,.2,0,.3-.1.1,0,.2-.3.2-.4V10.6c0-1.6.2-1.8,1.8-1.8h48.8c1.6,0,1.8.2,1.8,1.8v49c0,.2.1.4.4.5l2.6.9c2.7.9,5.4,1.8,8.1,2.7.4.1.7.4,1.1.7.1,0,.2.2.4.3v25.9c-.4.5-.9.6-1.7.6-24.9,0-85.5,0-85.5,0M75.2,58.1c-.1,0-.2,0-.3.1-.1,0-.2.3-.2.4v29.8c0,.3.2.5.5.5h9.3c.2,0,.4-.1.5-.3s.1-.3.1-.4v-4c0-7.3,0-14.7,0-22,0-.4-.3-1-.8-1.1-2.2-.8-4.5-1.5-6.7-2.3l-2.2-.7c0,0-.1,0-.2,0M87.8,62.4c-.1,0-.2,0-.3.1-.1,0-.2.3-.2.4v25.5c0,.3.2.5.5.5h9.4c.3,0,.5-.2.5-.5v-7.5c0-4.7,0-9.4,0-14,0-.4-.2-1.3-.8-1.5-2.2-.8-4.5-1.5-6.7-2.3l-2.2-.7c0,0-.1,0-.2,0M10.8,80.2c-.3,0-.5.2-.5.5v7.7c0,.3.2.5.5.5h10.9c.3,0,.5-.2.5-.5v-7.7c0-.3-.2-.5-.5-.5h-10.9ZM62.6,78.6c-.3,0-.5.2-.5.5v9.3c0,.3.2.5.5.5h9.3c.3,0,.5-.2.5-.5v-9.3c0-.3-.2-.5-.5-.5h-9.3ZM25.1,41.6c-.2,0-.4,0-.4.1-.1.1-.3.2-.3.4v46.4c0,.3.2.5.5.5h9.3c.3,0,.5-.2.5-.4,0,0,0-.3,0-.4v-5.3c0-12.4,0-24.7,0-37.1,0-.7-.3-1.2-1-1.4-1.8-.6-3.6-1.2-5.5-1.8l-2.6-.9c-.2,0-.3,0-.5-.1,0,0,0,0,0,0M50.1,78.6c-.3,0-.5.2-.5.5v9.3c0,.3.2.5.5.5h9.3c.3,0,.5-.2.5-.5v-9.3c0-.3-.2-.5-.5-.5h-9.3ZM37.6,45.7c-.1,0-.3,0-.4,0-.1,0-.3.2-.3.4v42.2c0,.3.2.5.5.5h9.3c.3,0,.5-.2.5-.4,0,0,0-.2,0-.3v-4.2c0-11.4,0-22.8,0-34.2,0-1-.7-1.2-1.1-1.4l-7.9-2.6c-.2,0-.4-.1-.6-.2,0,0-.1,0-.2,0M2.9,64.4c-.3,0-.5.2-.5.5v23.5c0,.3.2.5.5.5h4.7c.3,0,.5-.2.5-.5v-9c0-1.1.3-1.4,1.4-1.4h12.2c.3,0,.5-.2.5-.5v-12.5c0-.3-.2-.5-.5-.5H2.9ZM50.1,70.7c-.3,0-.5.2-.5.5v4.6c0,.3.2.5.5.5h21.9c.3,0,.5-.2.5-.5v-4.6c0-.3-.2-.5-.5-.5h-21.9ZM50,49.8c-.1,0-.2,0-.3.1-.1,0-.2.3-.2.4v17.7c0,.3.2.5.5.5h9.4c.3,0,.5-.2.5-.5v-12.4c0-2.3-.2-2.5-2.4-3.3l-7.4-2.4c0,0-.1,0-.2,0M62.7,54c-.1,0-.2,0-.3.1-.1.1-.2.3-.2.4v13.4c0,.3.2.5.5.5h9.3c.3,0,.5-.2.5-.5v-10.3c0-.2-.2-.4-.4-.5l-9.3-3.1c0,0-.1,0-.2,0M2.9,56.6c-.3,0-.5.2-.5.5v4.6c0,.3.2.5.5.5h18.7c.3,0,.5-.2.5-.5v-4.6c0-.3-.2-.5-.5-.5H2.9ZM47.7,45.6c-.2,0-.5.2-.5.4h0c0,.3,0,.7.3.8l36.9,12.4c0,0,.1,0,.2,0,.1,0,.2,0,.3-.1.1,0,.2-.3.2-.4v-12.5c0-.3-.2-.5-.5-.5h-36.9ZM37.5,33c-.3,0-.5.2-.5.5v9.3c0,.3.2.5.5.5h47c.3,0,.5-.2.5-.5v-9.3c0-.3-.2-.5-.5-.5h-47ZM37.5,11c-.3,0-.5.2-.5.5v18.8c0,.3.2.5.5.5h47.1c.3,0,.5-.2.5-.5V11.5c0-.3-.2-.5-.5-.5h-47.1Z"/>
</svg>