<?xml version="1.0" encoding="UTF-8"?>
<svg id="Layer_1" xmlns="http://www.w3.org/2000/svg" viewBox="0 0 100 100">
  <path d="M81.6,99.7H18.2V.3h63.3v99.3ZM20.2,97.7h59.5V2.3H20.2v95.4Z"/>
  <g>
    <path d="M46.5,24h-21.5V8h21.5v16ZM26.9,22h17.7v-12.1h-17.7v12.1Z"/>
    <rect x="33.5" y="9" width="1.9" height="14"/>
    <rect x="25.9" y="15" width="8.6" height="1.9"/>
  </g>
  <g>
    <path d="M74.8,24h-21.5V8h21.5v16ZM55.2,22h17.7v-12.1h-17.7v12.1Z"/>
    <rect x="61.9" y="9" width="1.9" height="14"/>
    <rect x="54.3" y="15" width="8.6" height="1.9"/>
  </g>
  <g>
    <g>
      <path d="M46.5,44.6h-21.5v-16h21.5v16ZM26.9,42.7h17.7v-12.1h-17.7v12.1Z"/>
      <rect x="33.5" y="29.6" width="1.9" height="14"/>
      <rect x="25.9" y="35.7" width="8.6" height="1.9"/>
    </g>
    <g>
      <path d="M74.8,44.6h-21.5v-16h21.5v16ZM55.2,42.7h17.7v-12.1h-17.7v12.1Z"/>
      <rect x="61.9" y="29.6" width="1.9" height="14"/>
      <rect x="54.3" y="35.7" width="8.6" height="1.9"/>
    </g>
  </g>
  <g>
    <g>
      <path d="M46.5,65.3h-21.5v-16h21.5v16ZM26.9,63.3h17.7v-12.1h-17.7v12.1Z"/>
      <rect x="33.5" y="50.3" width="1.9" height="14"/>
      <rect x="25.9" y="56.3" width="8.6" height="1.9"/>
    </g>
    <g>
      <path d="M74.8,65.3h-21.5v-16h21.5v16ZM55.2,63.3h17.7v-12.1h-17.7v12.1Z"/>
      <rect x="61.9" y="50.3" width="1.9" height="14"/>
      <rect x="54.3" y="56.3" width="8.6" height="1.9"/>
    </g>
  </g>
  <g>
    <path d="M46.5,86h-21.5v-16h21.5v16ZM26.9,84h17.7v-12.1h-17.7v12.1Z"/>
    <rect x="33.5" y="71" width="1.9" height="14"/>
    <rect x="25.9" y="77" width="8.6" height="1.9"/>
  </g>
  <g>
    <path d="M74.8,99.7h-17.7v-29.7h17.7v29.7ZM59.1,97.7h13.8v-25.8h-13.8v25.8Z"/>
    <rect x="61.9" y="83.3" width="1.9" height="3.5"/>
  </g>
  <rect x="1.3" y="97.6" width="97.4" height="1.9"/>
</svg>