<svg width="56" height="36" viewBox="0 0 56 36" fill="none" xmlns="http://www.w3.org/2000/svg">
<g clip-path="url(#clip0_1659_1180)">
<path d="M45.9484 28.9434C44.3171 28.9434 42.9082 28.7086 41.6477 28.2143C40.7702 27.8682 39.6827 27.4481 38.5457 27.3121C37.8784 27.238 37.2728 27.2009 36.692 27.2009C35.2831 27.2009 34.0349 27.411 32.8732 27.8559C31.761 28.2761 30.6981 28.6839 29.5612 28.8075C28.9185 28.8816 28.2635 28.9187 27.6456 28.9187C27.3367 28.9187 27.0401 28.9187 26.7311 28.894C25.6065 28.8322 24.5807 28.6221 23.5921 28.2513L23.2213 28.1154C22.8258 27.9671 22.4304 27.8188 22.0349 27.6952C20.7496 27.2627 19.4644 27.2009 18.3768 27.2009C16.9062 27.2009 15.4973 27.4851 14.039 28.0907C13.038 28.4985 12.1111 28.7457 11.1966 28.8446C10.6281 28.9063 10.0473 28.9311 9.47878 28.9311C9.1451 28.9311 8.81143 28.9311 8.47775 28.894C7.42729 28.8322 6.45097 28.6345 5.48702 28.3008C5.23985 28.2143 5.00504 28.1278 4.75787 28.0413C4.38712 27.9053 4.00401 27.7694 3.6209 27.6458C2.78053 27.3739 1.9278 27.238 1.06271 27.2256C0.852621 27.2256 0.605453 27.2256 0.370644 27.1762C0.135835 27.1267 -0.000107769 26.9908 0.0122506 26.8054C0.0122506 26.5953 0.17291 26.4717 0.383002 26.4717C1.14922 26.4965 1.89073 26.5582 2.60751 26.6448C3.52203 26.756 4.41184 27.0897 5.1657 27.3986C6.48805 27.9424 7.8969 28.2019 9.45406 28.2019C9.96076 28.2019 10.4922 28.1772 11.0359 28.1154C11.8392 28.0289 12.6672 27.8312 13.5447 27.4851C14.5952 27.0773 15.7198 26.6695 16.9062 26.5459C17.5488 26.4841 18.1297 26.4594 18.6858 26.4594C20.1317 26.4594 21.4046 26.6695 22.5663 27.0897L22.7023 27.1391C23.3449 27.3739 23.9999 27.6211 24.6672 27.8064C25.5447 28.066 26.4963 28.1772 27.6827 28.1772C27.8804 28.1772 28.0905 28.1772 28.2882 28.1772C29.5859 28.1401 30.9082 27.8435 32.3294 27.275C33.6889 26.7189 35.1595 26.447 36.692 26.447C37.5941 26.447 38.5457 26.5459 39.522 26.7313C40.2017 26.8672 40.8938 27.1267 41.5735 27.3863L41.8578 27.4975C43.106 27.9671 44.4407 28.2019 45.936 28.2019C46.1585 28.2019 46.3933 28.2019 46.6157 28.1896C47.8763 28.1401 49.0998 27.8682 50.3356 27.3739C51.7939 26.7807 53.2275 26.4965 54.7228 26.4841C55.1183 26.4841 55.3037 26.5706 55.4149 26.7436V26.9414C55.3161 27.102 55.1554 27.238 54.7723 27.238H54.5993C53.2646 27.238 51.9175 27.5346 50.4592 28.1278C49.0998 28.6962 47.6291 28.9681 45.9607 28.9681L45.9484 28.9434Z" fill="currentColor"/>
<path d="M10.1091 32.4532C9.87432 32.4532 9.70131 32.3049 9.68895 32.1071C9.67659 31.9094 9.82489 31.7611 10.0844 31.724C10.3069 31.687 10.5417 31.6622 10.7765 31.6375C10.9989 31.6128 11.2214 31.5881 11.4562 31.5634C12.3954 31.4274 13.2852 31.1061 14.175 30.7477C15.4974 30.2287 16.8692 29.9691 18.241 29.9691C18.3522 29.9691 18.4634 29.9691 18.5746 29.9691C18.6859 29.9691 18.7724 29.9691 18.8712 29.9691C20.3295 29.9691 21.7137 30.2287 23.0854 30.7848C23.9011 31.1061 24.8033 31.4274 25.7672 31.5634C26.4716 31.6622 27.139 31.6993 27.7816 31.6993C29.1163 31.6993 30.3398 31.5016 31.5015 31.0814L31.9464 30.9207C32.4531 30.7354 32.9722 30.55 33.5036 30.3893C34.5046 30.0927 35.5427 29.9568 36.692 29.9568C37.4088 29.9568 38.1627 30.0186 38.9783 30.1298C39.9423 30.2657 40.8692 30.6241 41.7713 30.9578C42.9207 31.3904 43.897 31.6128 44.8362 31.6499C44.9969 31.6499 45.1699 31.687 45.3182 31.7117C45.5036 31.7488 45.726 31.86 45.7013 32.0948C45.6766 32.2925 45.5159 32.4408 45.3058 32.4408C44.7991 32.4161 44.3172 32.3667 43.9093 32.3172C42.8465 32.1813 41.8331 31.8105 41.0669 31.5016C39.7569 30.9702 38.3481 30.6983 36.9021 30.6983C36.0494 30.6983 35.1472 30.7972 34.2327 30.9702C33.5159 31.1185 32.8362 31.378 32.1812 31.6375L32.0824 31.6746C30.76 32.1937 29.3264 32.4408 27.7075 32.4408C27.4727 32.4408 27.2255 32.4408 26.9907 32.4285C25.5695 32.3667 24.2966 32.0824 23.0978 31.5757C21.726 30.9949 20.243 30.7107 18.5746 30.7107C18.1792 30.7107 17.759 30.723 17.3388 30.7601C16.4737 30.8219 15.5839 31.032 14.7065 31.3656L14.5705 31.4151C13.5448 31.8105 12.5808 32.1689 11.5427 32.3049C11.0978 32.3667 10.6282 32.4161 10.1586 32.4408H10.1338L10.1091 32.4532Z" fill="currentColor"/>
<path d="M15.3862 23.654C15.2379 23.654 15.0772 23.5675 15.0525 23.3821C15.0154 23.0732 15.003 22.7642 14.9783 22.4305C14.9783 22.2946 14.966 22.1586 14.9536 22.0227C15.0278 20.9352 15.1884 19.9465 15.4603 18.9949C15.9423 17.24 16.8074 15.6211 17.9938 14.2122C19.2543 12.7292 20.7744 11.5799 22.5417 10.8013C23.9134 10.1957 25.3717 9.83733 26.8424 9.73846C27.1266 9.71375 27.4109 9.71375 27.6951 9.71375C29.1163 9.71375 30.5252 9.94855 31.8475 10.4058C33.6024 11.0114 35.1102 11.9259 36.346 13.1247C36.7662 13.5325 37.1616 13.9897 37.5448 14.4347C37.6807 14.5953 37.829 14.7683 37.9773 14.929C38.0638 15.0279 38.1256 15.1267 38.1627 15.2132C38.2245 15.3615 38.175 15.5345 38.0515 15.6334C37.9897 15.6828 37.9155 15.6952 37.8414 15.6952C37.7549 15.6952 37.6683 15.6581 37.5942 15.6087C37.483 15.5098 37.3717 15.3739 37.2605 15.2132C36.2348 13.8538 34.9619 12.7539 33.5036 11.9383C31.9835 11.0979 30.3398 10.6035 28.6344 10.48C28.313 10.4552 27.9794 10.4429 27.658 10.4429C26.1874 10.4429 24.7415 10.7148 23.382 11.2462C20.9845 12.1854 19.069 13.7549 17.6477 15.93C16.313 17.9939 15.6704 20.3667 15.7445 22.9619C15.7445 23.0855 15.7445 23.2091 15.7322 23.3203C15.7075 23.5057 15.5839 23.6169 15.4109 23.6293H15.3862V23.654Z" fill="currentColor"/>
<path d="M32.589 23.6663C32.0452 23.6663 31.8722 23.6045 31.8228 23.5427C31.7733 23.4933 31.7239 23.3203 31.761 22.8136C31.8599 21.553 32.3913 20.4655 33.3429 19.588C34.3315 18.6611 35.4932 18.1915 36.7909 18.1915C36.9639 18.1915 37.1493 18.1915 37.3223 18.2162C38.1256 18.2904 38.8547 18.5376 39.4726 18.9577C39.7692 19.1555 40.0658 19.2543 40.3871 19.2543C40.4984 19.2543 40.622 19.242 40.7579 19.2173C41.0298 19.1678 41.2893 19.1431 41.5612 19.1431C43.5015 19.1431 45.1204 20.4531 45.59 22.3934C45.6518 22.6529 45.6765 22.9372 45.6889 23.1843C45.7013 23.4562 45.59 23.5921 45.3058 23.6416C45.1698 23.6663 45.0092 23.6663 44.8362 23.6663C43.6003 23.6663 35.1966 23.6663 35.1966 23.6663H32.5766H32.589ZM36.8156 18.9454C35.073 18.9454 33.5406 19.9711 32.8238 21.6148C32.7373 21.8002 32.6879 22.0103 32.6508 22.208C32.6137 22.4922 32.8362 22.8259 33.1204 22.8877C33.244 22.9124 33.3676 22.9248 33.4664 22.9248H33.6518H41.4376H43.8228C44.107 22.9248 44.4901 22.9248 44.6755 22.6035C44.8609 22.2822 44.6755 21.9485 44.5396 21.6766C43.9587 20.5891 42.797 19.8846 41.5983 19.8846C41.2399 19.8846 40.8815 19.9464 40.5478 20.07C40.3871 20.1318 40.2512 20.1565 40.1276 20.1565C39.9052 20.1565 39.7074 20.07 39.4603 19.8723C38.7188 19.2791 37.7795 18.9454 36.8279 18.9454" fill="currentColor"/>
<path d="M16.9064 10.7517C15.9548 10.7517 15.0032 10.7394 14.0516 10.7394C13.446 10.7394 11.0732 10.7394 10.48 10.7394H4.14018C4.06603 10.7394 3.99188 10.7394 3.91773 10.7394C3.5099 10.7023 3.52226 10.4181 3.52226 10.3316C3.59641 8.81148 4.2514 7.64979 5.46253 6.88357C6.14224 6.45103 6.87138 6.22857 7.61289 6.22857C7.92185 6.22857 8.23081 6.26565 8.53976 6.3398C8.66335 6.36452 8.77457 6.37687 8.8858 6.37687C9.14533 6.37687 9.38014 6.30272 9.60259 6.14207C10.443 5.57358 11.3575 5.27698 12.3214 5.27698C12.5933 5.27698 12.8652 5.30169 13.1494 5.35113C14.7437 5.61065 15.9548 6.45103 16.7705 7.83517C17.1906 8.53959 17.4131 9.31817 17.4749 10.1833C17.4872 10.3686 17.4502 10.5169 17.3637 10.6034C17.2524 10.727 17.0547 10.7517 16.9064 10.7517ZM5.42545 9.99789H15.4605C15.9548 9.99789 16.3008 9.99789 16.4986 9.68893C16.6963 9.37997 16.548 9.04629 16.3256 8.58903C15.5964 7.01951 14.101 6.0432 12.4079 6.0432C11.4563 6.0432 10.5295 6.36452 9.75089 6.97008C9.49136 7.16781 9.28127 7.26668 9.08353 7.26668C8.95995 7.26668 8.83637 7.24196 8.68807 7.18017C8.36675 7.04423 8.03307 6.98244 7.67468 6.98244C7.31628 6.98244 6.97025 7.04423 6.5995 7.16781C5.62318 7.50149 4.91876 8.15648 4.51093 9.12044C4.41206 9.36761 4.41206 9.5777 4.53565 9.75072C4.59744 9.84958 4.7581 10.0102 5.06706 10.0102H5.17828H5.41309L5.42545 9.99789Z" fill="currentColor"/>
<path d="M27.93 36.0001C25.9898 35.963 24.618 35.7282 23.3451 35.2215C22.3688 34.826 21.3059 34.4553 20.169 34.3317C19.9218 34.307 19.6746 34.2946 19.4275 34.2822C19.3039 34.2822 19.1803 34.2699 19.0567 34.2575C19.0073 34.2575 18.9455 34.2575 18.8961 34.2575C18.7725 34.2575 18.6612 34.2575 18.5747 34.2328C18.2411 34.1587 18.2163 33.9856 18.2287 33.8126C18.2534 33.6149 18.377 33.5037 18.5871 33.5037C19.3286 33.5284 20.033 33.5778 20.7004 33.6643C21.5778 33.7632 22.4058 34.0721 23.2833 34.4058L23.5428 34.5047C24.9269 35.0237 26.3234 35.2709 27.6952 35.2709C29.067 35.2709 30.4759 35.0114 31.8353 34.4923C33.6025 33.8126 35.0238 33.516 36.4203 33.516H36.7045C36.7045 33.516 36.8034 33.516 36.8528 33.516C37.0011 33.5407 37.1247 33.6643 37.137 33.825C37.137 33.9115 37.137 34.1216 36.9393 34.1834C36.791 34.2328 36.618 34.2575 36.4326 34.2575C35.1226 34.2575 33.8497 34.5171 32.5274 35.0361C31.6252 35.3945 30.6489 35.7405 29.6479 35.8518C29.1659 35.9012 28.6839 35.9383 28.3008 35.9753L27.9177 36.0124L27.93 36.0001Z" fill="currentColor"/>
<path d="M7.05656 22.7889C6.71052 22.7889 6.36449 22.7889 6.01845 22.7889C5.82072 22.7889 5.66006 22.7642 5.53647 22.7395C5.40053 22.7024 5.28931 22.5417 5.28931 22.3934C5.28931 22.2328 5.42525 22.0845 5.59827 22.0598C5.69713 22.0474 5.80836 22.035 5.90723 22.035H10.727C10.8259 22.035 10.9371 22.035 11.0236 22.0598C11.1843 22.0845 11.2831 22.2081 11.2955 22.3811C11.2955 22.5417 11.209 22.69 11.0854 22.7271C10.9124 22.7765 10.7023 22.7889 10.554 22.7889C10.2203 22.7889 9.87427 22.7889 9.54059 22.7889H7.0442H7.05656Z" fill="currentColor"/>
<path d="M39.5346 10.9249C39.4357 10.9249 39.3492 10.8878 39.2751 10.8136C39.1639 10.7024 39.1391 10.5417 39.2133 10.4182C39.2627 10.3317 39.3369 10.2328 39.4357 10.1339C40.5727 8.99694 41.7097 7.85997 42.8466 6.723C42.9579 6.62413 43.0444 6.54998 43.1185 6.51291C43.168 6.48819 43.2174 6.47583 43.2792 6.47583C43.3781 6.47583 43.4646 6.51291 43.5387 6.58706C43.5882 6.63649 43.6376 6.723 43.6376 6.84658C43.6376 6.97017 43.5758 7.06903 43.3904 7.25441L41.4872 9.1576C40.9929 9.65194 40.5109 10.1339 40.0166 10.6159C39.9054 10.7271 39.7941 10.826 39.6829 10.9001C39.6335 10.9249 39.584 10.9372 39.5346 10.9372" fill="currentColor"/>
<path d="M27.6952 6.00621C27.4975 6.00621 27.3863 5.90734 27.3492 5.69725C27.3245 5.57367 27.3245 5.43772 27.3245 5.27706C27.3245 4.72094 27.3245 4.16481 27.3245 3.60868V2.45935C27.3245 1.87851 27.3245 1.31002 27.3245 0.729175C27.3245 0.556157 27.3245 0.395498 27.3492 0.259556C27.3739 0.0988965 27.5222 -0.0123291 27.6829 -0.0123291C27.8559 -0.0123291 27.9918 0.111255 28.0289 0.284272C28.0536 0.407856 28.0536 0.556157 28.0536 0.692099C28.0536 2.22454 28.0536 3.75698 28.0536 5.28942C28.0536 5.42537 28.0536 5.57367 28.0289 5.69725C27.9918 5.88263 27.8806 5.98149 27.6952 5.98149V6.00621Z" fill="currentColor"/>
<path d="M48.8032 32.1441C48.6796 32.1441 48.5437 32.0329 48.5066 31.8846C48.4572 31.7239 48.519 31.5633 48.6796 31.4644C48.865 31.4026 49.0504 31.3285 49.2358 31.2667C49.6807 31.106 50.1379 30.9454 50.5828 30.8218C50.6075 30.8218 50.6322 30.8218 50.6446 30.8218C50.7929 30.8218 50.9659 30.9701 50.9783 31.1925C50.9412 31.4273 50.8547 31.4644 50.8176 31.4768C50.1873 31.7116 49.52 31.9587 48.8403 32.1565C48.8279 32.1565 48.8032 32.1565 48.7908 32.1565" fill="currentColor"/>
<path d="M21.2442 7.30381C21.2442 7.30381 21.0588 7.30381 20.96 7.08136C20.6757 6.4758 20.4533 5.91967 20.2802 5.41298C20.2308 5.26468 20.2802 5.15345 20.3297 5.09166C20.4038 4.99279 20.5151 4.94336 20.6386 4.94336C20.8611 4.96808 20.9105 5.09166 20.9352 5.14109L21.0341 5.35119C21.2442 5.83316 21.4666 6.3275 21.6397 6.82183C21.7509 7.13079 21.4914 7.25438 21.4049 7.27909C21.3554 7.30381 21.2936 7.31617 21.2566 7.31617" fill="currentColor"/>
<path d="M34.1215 7.30384C33.998 7.30384 33.8744 7.24205 33.8002 7.14318C33.7508 7.08139 33.7384 7.00724 33.7508 6.93309C33.9238 6.37696 34.171 5.7714 34.5294 5.04226C34.5665 4.96811 34.6282 4.93103 34.7395 4.93103C34.8013 4.93103 34.8631 4.94339 34.9125 4.96811C35.0608 5.0299 35.1844 5.1782 35.1226 5.35122C34.8878 6.00621 34.6159 6.64885 34.3934 7.14318C34.3564 7.22969 34.2575 7.27912 34.1092 7.30384" fill="currentColor"/>
<path d="M12.2224 16.3501C12.1482 16.3501 12.0617 16.3254 11.9999 16.3007C11.5179 16.1029 11.0236 15.9052 10.5416 15.7075C10.2821 15.5962 10.245 15.4727 10.2327 15.3367C10.2327 15.2626 10.2574 15.1761 10.3192 15.1019C10.3933 15.0154 10.4922 14.966 10.6158 14.9536L10.7888 15.0154C11.382 15.2255 11.9999 15.4356 12.5313 15.8063C12.5931 15.8434 12.6178 16.0164 12.556 16.1524C12.4695 16.3254 12.383 16.3625 12.2594 16.3625H12.2347L12.2224 16.3501Z" fill="currentColor"/>
<path d="M43.1801 16.3502C42.9824 16.3502 42.9082 16.2637 42.8464 16.1401C42.7846 16.0042 42.8094 15.8435 42.9082 15.7446C42.97 15.6829 43.0565 15.6334 43.1554 15.5963C43.6744 15.3739 44.107 15.1885 44.5519 15.0155C44.6384 14.9784 44.7496 14.9661 44.8361 14.9661C44.8485 14.9661 44.8732 14.9661 44.8856 14.9661C45.0215 14.9784 45.1327 15.102 45.1698 15.2503C45.1945 15.3739 45.1698 15.5346 44.9844 15.6211C44.5643 15.8188 44.107 16.0042 43.6621 16.1772L43.2666 16.3378C43.2666 16.3378 43.2048 16.3378 43.1925 16.3378" fill="currentColor"/>
<path d="M6.61168 32.1442C6.61168 32.1442 6.58697 32.1442 6.56225 32.1442C5.91961 31.9711 5.30169 31.761 4.70849 31.5015C4.52311 31.4274 4.54783 31.2173 4.58491 31.1061C4.60962 31.0443 4.65906 30.8712 4.95566 30.8589C4.95566 30.8589 4.98037 30.8589 4.99273 30.8589C5.02981 30.8589 5.07924 30.8589 5.12868 30.8836L5.37584 30.9701C5.77131 31.0937 6.16678 31.2296 6.54989 31.3779C6.67347 31.4274 6.7847 31.5015 6.84649 31.5757C6.90828 31.6498 6.95772 31.7611 6.84649 31.9464C6.77234 32.0577 6.68583 32.1318 6.59932 32.1318" fill="currentColor"/>
</g>
<defs>
<clipPath id="clip0_1659_1180">
<rect width="55.4027" height="36" fill="white"/>
</clipPath>
</defs>
</svg>
