<svg width="36" height="36" viewBox="0 0 36 36" fill="none" xmlns="http://www.w3.org/2000/svg">
<g clip-path="url(#clip0_1659_1200)">
<path d="M29.0824 36H6.11768V0H29.0824V36ZM6.82356 35.2941H28.3765V0.705882H6.82356V35.2941Z" fill="currentColor"/>
<path d="M16.3647 8.55296H8.55298V2.77649H16.3647V8.56472V8.55296ZM9.25886 7.84708H15.6589V3.47061H9.25886V7.84708Z" fill="currentColor"/>
<path d="M12.3883 3.12939H11.6824V8.21175H12.3883V3.12939Z" fill="currentColor"/>
<path d="M12.0354 5.30591H8.90601V6.01179H12.0354V5.30591Z" fill="currentColor"/>
<path d="M26.647 8.55296H18.8352V2.77649H26.647V8.56472V8.55296ZM19.5411 7.84708H25.9411V3.47061H19.5411V7.84708Z" fill="currentColor"/>
<path d="M22.6705 3.12939H21.9646V8.21175H22.6705V3.12939Z" fill="currentColor"/>
<path d="M22.3176 5.30591H19.1882V6.01179H22.3176V5.30591Z" fill="currentColor"/>
<path d="M16.3647 16.047H8.55298V10.2588H16.3647V16.047ZM9.25886 15.3411H15.6589V10.9647H9.25886V15.3411Z" fill="currentColor"/>
<path d="M12.3883 10.6117H11.6824V15.694H12.3883V10.6117Z" fill="currentColor"/>
<path d="M12.0354 12.7999H8.90601V13.5058H12.0354V12.7999Z" fill="currentColor"/>
<path d="M26.6472 16.047H18.8354V10.2588H26.6472V16.047ZM19.5413 15.3411H25.9413V10.9647H19.5413V15.3411Z" fill="currentColor"/>
<path d="M22.6707 10.6117H21.9648V15.694H22.6707V10.6117Z" fill="currentColor"/>
<path d="M22.3179 12.7999H19.1885V13.5058H22.3179V12.7999Z" fill="currentColor"/>
<path d="M16.3647 23.5412H8.55298V17.7529H16.3647V23.5412ZM9.25886 22.8353H15.6589V18.4588H9.25886V22.8353Z" fill="currentColor"/>
<path d="M12.3883 18.1058H11.6824V23.1882H12.3883V18.1058Z" fill="currentColor"/>
<path d="M12.0354 20.2941H8.90601V21H12.0354V20.2941Z" fill="currentColor"/>
<path d="M26.6472 23.5412H18.8354V17.7529H26.6472V23.5412ZM19.5413 22.8353H25.9413V18.4588H19.5413V22.8353Z" fill="currentColor"/>
<path d="M22.6707 18.1058H21.9648V23.1882H22.6707V18.1058Z" fill="currentColor"/>
<path d="M22.3179 20.2941H19.1885V21H22.3179V20.2941Z" fill="currentColor"/>
<path d="M16.3647 31.0353H8.55298V25.2471H16.3647V31.0353ZM9.25886 30.3294H15.6589V25.953H9.25886V30.3294Z" fill="currentColor"/>
<path d="M12.3883 25.6H11.6824V30.6823H12.3883V25.6Z" fill="currentColor"/>
<path d="M12.0354 27.7882H8.90601V28.4941H12.0354V27.7882Z" fill="currentColor"/>
<path d="M26.6471 36H20.2471V25.2471H26.6471V36ZM20.9647 35.2941H25.953V25.953H20.9647V35.2941Z" fill="currentColor"/>
<path d="M22.6705 30.0706H21.9646V31.3529H22.6705V30.0706Z" fill="currentColor"/>
<path d="M35.2941 35.2471H0V35.953H35.2941V35.2471Z" fill="currentColor"/>
</g>
<defs>
<clipPath id="clip0_1659_1200">
<rect width="35.2941" height="36" fill="white"/>
</clipPath>
</defs>
</svg>
