<svg width="200" height="200" viewBox="0 0 200 200" fill="none" xmlns="http://www.w3.org/2000/svg">
<g clip-path="url(#clip0_2464_1699)">
<path d="M187.5 181.25C187.5 174.347 181.903 168.75 175 168.75H168.75V78.125H187.5C193.109 78.125 198.028 74.3937 199.538 68.9937C201.05 63.5937 198.781 57.85 193.991 54.9406L106.491 1.81562C104.497 0.603125 102.247 0 100 0C97.7531 0 95.5062 0.603125 93.5125 1.81562L6.0125 54.9406C1.22188 57.85 -1.05 63.5969 0.465625 68.9937C1.975 74.3937 6.89688 78.125 12.5 78.125H31.25V168.75H25C18.0969 168.75 12.5 174.347 12.5 181.25C5.59687 181.25 0 186.847 0 193.75V200H200V193.75C200 186.847 194.403 181.25 187.5 181.25ZM162.5 168.75H150V78.125H162.5V168.75ZM56.25 78.125H68.75V168.75H56.25V78.125ZM75 78.125H87.5V168.75H75V78.125ZM93.75 78.125H106.25V168.75H93.75V78.125ZM112.5 78.125H125V168.75H112.5V78.125ZM131.25 78.125H143.75V168.75H131.25V78.125ZM12.5 71.875C9.70937 71.875 7.23437 69.9969 6.48125 67.3063C5.72812 64.6219 6.86875 61.7313 9.25625 60.2844L96.7562 7.15625C97.7344 6.5625 98.8594 6.25 100 6.25C101.147 6.25 102.266 6.5625 103.247 7.15937L190.747 60.2844C193.134 61.7313 194.275 64.6219 193.519 67.3094C192.769 69.9969 190.291 71.875 187.5 71.875H12.5ZM37.5 78.125H50V168.75H37.5V78.125ZM25 175H175C178.453 175 181.25 177.8 181.25 181.25H18.75C18.75 177.8 21.55 175 25 175ZM6.25 193.75C6.25 190.3 9.05 187.5 12.5 187.5H187.5C190.953 187.5 193.75 190.3 193.75 193.75H6.25Z" fill="currentColor"/>
<path d="M100 28.125C91.3687 28.125 84.375 35.1187 84.375 43.75C84.375 52.3813 91.3687 59.375 100 59.375C108.631 59.375 115.625 52.3813 115.625 43.75C115.625 35.1187 108.631 28.125 100 28.125ZM100 53.125C94.825 53.125 90.625 48.9281 90.625 43.75C90.625 38.5719 94.825 34.375 100 34.375C105.181 34.375 109.375 38.5719 109.375 43.75C109.375 48.9281 105.181 53.125 100 53.125Z" fill="currentColor"/>
</g>
<defs>
<clipPath id="clip0_2464_1699">
<rect width="200" height="200" fill="white"/>
</clipPath>
</defs>
</svg>
