<?xml version="1.0" encoding="UTF-8"?>
<svg id="Image" xmlns="http://www.w3.org/2000/svg" viewBox="0 0 100 100" fill="currentColor">
  <path d="M94.9,90.5h-9.7c-2.6,0-4.7-2.2-4.7-4.8v-10.8c0-.9.7-1.7,1.7-1.7s1.7.7,1.7,1.7v10.8c0,.8.6,1.5,1.4,1.5h9.7c.8,0,1.4-.7,1.4-1.5v-29.3c0-.8-.6-1.5-1.4-1.5h-9.7c-.8,0-1.4.7-1.4,1.5v10.8c0,.9-.7,1.7-1.7,1.7s-1.7-.7-1.7-1.7v-10.8c0-2.6,2.1-4.8,4.7-4.8h9.7c2.6,0,4.7,2.2,4.7,4.8v29.3c0,2.6-2.1,4.8-4.7,4.8h0Z"/>
  <path d="M38.6,42.2c-.9,0-1.7-.7-1.7-1.7s.5-1.4,1.2-1.6l59-25.1c.5-.2,1.1-.2,1.6.1.5.3.7.8.7,1.4v15.9c0,.9-.7,1.7-1.7,1.7s-1.7-.7-1.7-1.7v-13.4l-56.8,24.2c-.2,0-.4.1-.7.1h0Z"/>
  <path d="M3.7,57.3c-.8,0-1.5-.2-2.1-.6-.7-.5-1.1-1.2-1.1-2v-14.1c0-.9.7-1.7,1.6-1.7s1.7.7,1.7,1.7v13.5s0,0,.1,0l2.3-.8c.9-.3,1.8.2,2.1,1s-.2,1.8-1,2.1l-2.3.8c-.4.1-.8.2-1.3.2h0Z"/>
  <path d="M38.6,42.2c-.2,0-.4,0-.6-.1-19.4-7.1-35.1-.1-35.3,0-.8.4-1.8,0-2.2-.8s0-1.8.8-2.2c.7-.3,17.2-7.6,37.8,0,.9.3,1.3,1.3,1,2.1-.2.7-.9,1.1-1.6,1.1h0Z"/>
  <path d="M2.1,42.2c-.6,0-1.3-.4-1.5-1-.4-.8,0-1.8.9-2.2L60.6,13.8c.7-.3,17.1-7.6,37.8,0,.9.3,1.3,1.3,1,2.1-.3.9-1.3,1.3-2.1,1-19.3-7.1-35.1-.1-35.3,0L2.7,42.1c-.2,0-.4.1-.6.1h0Z"/>
  <path d="M25.4,67.3c-8.2,0-14.9-7-14.9-15.7s1.2-7.1,3.3-9.8c.6-.7,1.6-.9,2.3-.3.7.6.9,1.6.3,2.3-1.7,2.2-2.6,5-2.6,7.8,0,6.8,5.2,12.4,11.5,12.4s6.7-1.6,8.9-4.5c.6-.7,1.6-.9,2.3-.3.7.6.9,1.6.3,2.3-2.8,3.7-7,5.8-11.5,5.8Z"/>
  <path d="M41.9,63.7c-.6,0-1.3-.4-1.5-1-.4-.8,0-1.8.9-2.2l53.1-22.1c1-.4,1.7-1.4,1.7-2.5v-2.2l-54.6,23.3c-1.1.5-2.3.3-3.2-.3-.8-.5-1.3-1.4-1.3-2.3v-13.9s3.3,0,3.3,0v13.4s56.8-24.2,56.8-24.2c.5-.2,1.1-.2,1.6.1.5.3.7.8.7,1.4v4.7c0,2.5-1.5,4.7-3.7,5.6l-53.1,22c-.2,0-.4.1-.6.1h0Z"/>
  <path d="M25.4,59.3c-4,0-7.3-3.4-7.3-7.7s3.3-7.7,7.3-7.7,7.3,3.4,7.3,7.7-3.3,7.7-7.3,7.7ZM25.4,47.3c-2.2,0-4,2-4,4.4s1.8,4.4,4,4.4,4-2,4-4.4c0-2.4-1.8-4.4-4-4.4h0Z"/>
  <path d="M58.2,72.7c-.9,0-1.7-.7-1.7-1.7v-15.8c0-.9.7-1.7,1.7-1.7s1.7.7,1.7,1.7v15.8c0,.9-.7,1.7-1.7,1.7Z"/>
  <path d="M86.3,76.6h-24.3c-3,0-5.4-2.5-5.4-5.5v-3.8c0-.9.7-1.7,1.7-1.7s1.7.7,1.7,1.7v3.8c0,1.2,1,2.2,2.1,2.2h24.3c1.2,0,2.1-1,2.1-2.2s-1-2.2-2.1-2.2h-20.4c-.9,0-1.7-.7-1.7-1.7v-15.2c0-.9.7-1.7,1.7-1.7s1.7.7,1.7,1.7v13.5h18.7c3,0,5.4,2.5,5.4,5.5,0,3-2.4,5.5-5.4,5.5h0Z"/>
</svg>