<svg width="200" height="200" viewBox="0 0 200 200" fill="none" xmlns="http://www.w3.org/2000/svg">
<g clip-path="url(#clip0_2471_1828)">
<path d="M0 96.7742V103.226C7.11613 103.226 12.9032 109.013 12.9032 116.129V145.161C12.9032 158.113 19.9032 169.435 30.2935 175.632C20.1903 179.132 12.9032 188.719 12.9032 200H19.3548C19.3548 189.326 28.0355 180.645 38.7097 180.645H48.3871H151.613H161.29C171.965 180.645 180.645 189.326 180.645 200H187.097C187.097 188.719 179.81 179.132 169.706 175.632C180.097 169.435 187.097 158.113 187.097 145.161V116.129C187.097 109.013 192.884 103.226 200 103.226V96.7742H0ZM180.645 116.129V145.161C180.645 161.171 167.623 174.194 151.613 174.194H48.3871C32.3774 174.194 19.3548 161.171 19.3548 145.161V116.129C19.3548 111.171 17.4645 106.655 14.3839 103.226H185.613C182.535 106.655 180.645 111.171 180.645 116.129Z" fill="currentColor"/>
<path d="M135.484 32.2581C131.926 32.2581 129.032 29.3613 129.032 25.8065V22.5806C129.032 13.6871 121.797 6.45161 112.903 6.45161H103.226V0H96.7742V6.45161H87.0968C78.2032 6.45161 70.9677 13.6871 70.9677 22.5806V25.8065C70.9677 29.3613 68.071 32.2581 64.5161 32.2581V38.7097H135.484V32.2581ZM75.6871 32.2581C76.7903 30.3581 77.4193 28.1516 77.4193 25.8065V22.5806C77.4193 17.2452 81.7613 12.9032 87.0968 12.9032H112.903C118.239 12.9032 122.581 17.2452 122.581 22.5806V25.8065C122.581 28.1516 123.21 30.3581 124.313 32.2581H75.6871Z" fill="currentColor"/>
<path d="M70.9677 58.0646H64.5161V90.3226H70.9677V58.0646Z" fill="currentColor"/>
<path d="M70.9677 45.1613H64.5161V51.6129H70.9677V45.1613Z" fill="currentColor"/>
<path d="M83.871 77.4193H77.4194V90.3225H83.871V77.4193Z" fill="currentColor"/>
<path d="M83.871 64.5161H77.4194V70.9677H83.871V64.5161Z" fill="currentColor"/>
<path d="M83.871 45.1613H77.4194V58.0645H83.871V45.1613Z" fill="currentColor"/>
<path d="M96.7741 70.9678H90.3225V90.3226H96.7741V70.9678Z" fill="currentColor"/>
<path d="M96.7741 51.6129H90.3225V64.5161H96.7741V51.6129Z" fill="currentColor"/>
<path d="M109.677 58.0646H103.226V83.871H109.677V58.0646Z" fill="currentColor"/>
<path d="M109.677 45.1613H103.226V51.6129H109.677V45.1613Z" fill="currentColor"/>
<path d="M122.581 77.4193H116.129V90.3225H122.581V77.4193Z" fill="currentColor"/>
<path d="M122.581 45.1613H116.129V70.9677H122.581V45.1613Z" fill="currentColor"/>
<path d="M135.484 64.5161H129.032V90.3226H135.484V64.5161Z" fill="currentColor"/>
<path d="M135.484 45.1613H129.032V58.0645H135.484V45.1613Z" fill="currentColor"/>
</g>
<defs>
<clipPath id="clip0_2471_1828">
<rect width="200" height="200" fill="white"/>
</clipPath>
</defs>
</svg>
