<svg width="52" height="48" viewBox="0 0 52 48" fill="none" xmlns="http://www.w3.org/2000/svg">
<path d="M50.9222 33.165C50.8454 32.8744 50.7118 32.6019 50.5289 32.3633C50.3461 32.1247 50.1178 31.9248 49.8571 31.775C49.5973 31.6238 49.3101 31.5256 49.012 31.4862C48.714 31.4468 48.411 31.4669 48.1209 31.5455L41.8042 33.2379L41.0208 30.3144L42.1097 30.0225C42.2135 29.9948 42.3108 29.9468 42.3961 29.8814C42.4813 29.816 42.5529 29.7344 42.6065 29.6414C42.6603 29.5483 42.6951 29.4456 42.7092 29.3391C42.7231 29.2325 42.7161 29.1243 42.6882 29.0205C42.6604 28.9167 42.6125 28.8195 42.5471 28.7342C42.4817 28.649 42.4001 28.5774 42.3071 28.5237C42.214 28.47 42.1112 28.4352 42.0048 28.4211C41.8982 28.407 41.79 28.4141 41.6862 28.4419L39.8088 28.9451L39.8069 28.9455L39.8051 28.946L37.9277 29.4492C37.8239 29.477 37.7266 29.525 37.6414 29.5903C37.5562 29.6558 37.4846 29.7373 37.4308 29.8303C37.3771 29.9234 37.3422 30.0261 37.3283 30.1326C37.3142 30.2392 37.3213 30.3474 37.3491 30.4512C37.3957 30.6252 37.4983 30.7789 37.6411 30.8885C37.7839 30.9981 37.9589 31.0577 38.139 31.0579C38.2092 31.0579 38.2803 31.0488 38.3512 31.0299L39.4402 30.7381L40.2235 33.6617L17.3812 39.7823L16.5979 36.8588L17.6869 36.567C17.8965 36.5108 18.0753 36.3737 18.1837 36.1859C18.2922 35.9979 18.3216 35.7746 18.2654 35.5649C18.2093 35.3553 18.0722 35.1767 17.8842 35.0681C17.6963 34.9597 17.473 34.9302 17.2634 34.9864L15.3852 35.4895L15.384 35.4897L15.3829 35.4902L13.5048 35.9934C13.4009 36.0212 13.3037 36.0691 13.2184 36.1346C13.1332 36.1999 13.0617 36.2815 13.008 36.3746C12.9542 36.4676 12.9193 36.5704 12.9053 36.6769C12.8913 36.7835 12.8983 36.8917 12.9262 36.9954C12.9729 37.1693 13.0755 37.323 13.2182 37.4328C13.361 37.5424 13.536 37.602 13.7161 37.6021C13.7862 37.6021 13.8574 37.593 13.9283 37.5741L15.0172 37.2823L15.8007 40.2059L9.48471 41.8982C9.19412 41.975 8.92163 42.1086 8.68304 42.2915C8.44444 42.4742 8.24448 42.7025 8.09473 42.9631C7.94356 43.223 7.84541 43.5101 7.80597 43.808C7.76652 44.1061 7.78656 44.4089 7.86492 44.699C7.9417 44.9896 8.07537 45.2621 8.25817 45.5007C8.44097 45.7393 8.66928 45.9392 8.92989 46.0889C9.27653 46.2905 9.67033 46.397 10.0713 46.3973C10.2696 46.3973 10.4691 46.3712 10.6658 46.3187L26.8779 41.9745L25.9572 46.4323C25.9326 46.5513 25.9349 46.6743 25.9638 46.7922C25.9926 46.9103 26.0475 47.0203 26.1242 47.1145C26.2009 47.2087 26.2977 47.2847 26.4074 47.3368C26.517 47.3889 26.637 47.416 26.7585 47.416H32.7874C32.9089 47.416 33.0288 47.3889 33.1385 47.3368C33.2483 47.2847 33.3449 47.2087 33.4217 47.1146C33.4984 47.0203 33.5532 46.9103 33.5821 46.7922C33.611 46.6743 33.6132 46.5513 33.5886 46.4323L32.3643 40.5045L49.3025 35.9659C50.5212 35.6401 51.2477 34.3836 50.9222 33.165ZM31.7829 45.7794H27.7629L28.6467 41.5004L30.7809 40.9287L31.7829 45.7794ZM49.2758 34.0816C49.233 34.1559 49.1761 34.2209 49.108 34.2731C49.0399 34.3251 48.9623 34.3632 48.8795 34.385L10.2433 44.7375C10.1607 44.7597 10.0745 44.7654 9.98963 44.7542C9.90481 44.7429 9.82306 44.715 9.74909 44.672C9.67489 44.6294 9.60988 44.5724 9.55784 44.5046C9.50579 44.4366 9.46773 44.3591 9.44585 44.2764C9.40142 44.1093 9.42509 43.9315 9.51168 43.782C9.59827 43.6324 9.74067 43.5233 9.90761 43.4787L41.4366 35.0305L41.4383 35.03L48.5439 33.1262C48.6265 33.1039 48.7127 33.0983 48.7975 33.1095C48.8823 33.1207 48.9641 33.1485 49.0381 33.1915C49.1123 33.2342 49.1773 33.2911 49.2293 33.3591C49.2814 33.4269 49.3194 33.5046 49.3414 33.5873C49.3636 33.6699 49.3692 33.7562 49.3579 33.8411C49.3467 33.9258 49.3188 34.0076 49.2758 34.0816ZM7.99573 25.7584C7.99573 25.0871 7.50482 24.5294 6.86337 24.422L11.1674 5.16347H14.145V19.7906H13.458C12.5933 19.7906 11.8899 20.494 11.8899 21.3588V23.1595C11.8899 24.0241 12.5933 24.7275 13.458 24.7275H25.4772C26.3419 24.7275 27.0454 24.0241 27.0454 23.1595V21.3588C27.0454 20.494 26.3419 19.7906 25.4772 19.7906H24.7901V5.16347H27.7678L32.0706 24.4165C31.4325 24.5069 30.9395 25.0552 30.9395 25.718V27.1638C30.9395 27.8896 31.5298 28.4799 32.2555 28.4799H37.3464C38.0721 28.4799 38.6625 27.8896 38.6625 27.1638V25.718C38.6625 24.9924 38.0721 24.402 37.3464 24.402H36.7479L32.1936 4.02283C31.7411 1.99813 29.9806 0.584106 27.9123 0.584106H11.023C8.95464 0.584106 7.19412 1.99813 6.74176 4.02272L2.18725 24.4019H1.62925C0.88133 24.4019 0.272705 25.0104 0.272705 25.7584V27.3212C0.272705 28.0692 0.881228 28.6778 1.62925 28.6778H6.63919C7.3871 28.6778 7.99573 28.0693 7.99573 27.3212V25.7584ZM25.409 23.0912H13.5263V21.4271H25.409V23.0912ZM23.1538 19.7906H15.7814V5.16347H23.1538V19.7906ZM37.0262 26.8434H32.5758V26.0382H37.0262V26.8434ZM8.33876 4.37976C8.62276 3.1084 9.72659 2.22058 11.023 2.22058H27.9123C29.2087 2.22058 30.3125 3.1085 30.5966 4.37976L35.0712 24.4019H33.7442L29.3309 4.65538C29.1804 3.98049 28.6103 3.52711 27.9122 3.52711H11.0229C10.3252 3.52711 9.75503 3.98049 9.60417 4.65507L5.1911 24.4019H3.86401L8.33876 4.37976ZM6.35937 27.0414H1.90907V26.0382H6.35937V27.0414Z" fill="currentColor"/>
</svg>
