<svg width="200" height="200" viewBox="0 0 200 200" fill="none" xmlns="http://www.w3.org/2000/svg">
<g clip-path="url(#clip0_2468_1768)">
<path d="M167.368 31.579C169.113 31.579 170.526 30.1657 170.526 28.4211C170.526 26.6766 169.113 25.2633 167.368 25.2633C164.466 25.2633 162.105 22.9024 162.105 20C162.105 17.0977 164.466 14.7368 167.368 14.7368H188.421C191.323 14.7368 193.684 17.0977 193.684 20C193.684 22.9024 191.323 25.2633 188.421 25.2633H180C178.255 25.2633 176.842 26.6766 176.842 28.4211C176.842 30.1657 178.256 31.579 180 31.579H188.421C194.805 31.579 200 26.3844 200 20C200 13.6157 194.805 8.42114 188.421 8.42114H167.368C160.984 8.42114 155.789 13.6157 155.789 20C155.789 26.3844 160.984 31.579 167.368 31.579Z" fill="currentColor"/>
<path d="M38.9473 77.8949C60.423 77.8949 77.8945 60.4234 77.8945 38.9477C77.8945 36.641 77.691 34.3301 77.2898 32.0781C76.984 30.3613 75.3426 29.2164 73.627 29.523C71.9098 29.8293 70.766 31.4688 71.0715 33.1859C71.4078 35.073 71.5785 37.0117 71.5785 38.9477C71.5785 56.9406 56.9398 71.5793 38.9469 71.5793C20.9539 71.5793 6.31523 56.9406 6.31523 38.9477C6.31523 20.9547 20.9539 6.31602 38.9469 6.31602C40.8828 6.31602 42.8219 6.48672 44.7094 6.82266C46.427 7.12734 48.0664 5.98477 48.3723 4.26758C48.6781 2.55039 47.534 0.910547 45.8168 0.604687C43.5652 0.203516 41.2539 0 38.9473 0C17.4715 0 0 17.4715 0 38.9473C0 60.423 17.4715 77.8949 38.9473 77.8949Z" fill="currentColor"/>
<path d="M66.3156 23.1578H108.421C110.166 23.1578 111.579 21.7441 111.579 20C111.579 18.2559 110.166 16.8422 108.421 16.8422H66.3156C63.4133 16.8422 61.0523 14.4813 61.0523 11.5789C61.0523 8.67656 63.4133 6.31562 66.3156 6.31562H129.473C132.376 6.31562 134.737 8.67656 134.737 11.5789C134.737 14.4813 132.376 16.8422 129.473 16.8422H121.052C119.308 16.8422 117.895 18.2559 117.895 20C117.895 21.7441 119.308 23.1578 121.052 23.1578H129.473C135.858 23.1578 141.052 17.9633 141.052 11.5789C141.053 5.19453 135.858 0 129.474 0H66.3156C59.9308 0 54.7367 5.19453 54.7367 11.5789C54.7367 17.9633 59.9308 23.1578 66.3156 23.1578Z" fill="currentColor"/>
<path d="M16.8422 38.9472C16.8422 51.1359 26.7582 61.0523 38.9472 61.0523C51.1363 61.0523 61.0523 51.1355 61.0523 38.9472C61.0523 26.759 51.1363 16.8422 38.9472 16.8422C26.7582 16.8422 16.8422 26.7586 16.8422 38.9472ZM54.7367 38.9472C54.7367 47.6539 47.6539 54.7367 38.9472 54.7367C30.2406 54.7367 23.1578 47.6539 23.1578 38.9472C23.1578 30.2406 30.2406 23.1578 38.9472 23.1578C47.6539 23.1578 54.7367 30.241 54.7367 38.9472Z" fill="currentColor"/>
<path d="M3.15781 162.807C1.41367 162.807 0 164.22 0 165.965C0 167.709 1.41406 169.123 3.15781 169.123H154.737C156.481 169.123 157.895 167.709 157.895 165.965C157.895 164.22 156.481 162.807 154.737 162.807H145.263V128.421H158.947C165.332 128.421 170.526 123.227 170.526 116.842C170.526 110.458 165.332 105.263 158.947 105.263H153.684V60.6113C158.538 59.2328 162.105 54.7633 162.105 49.4738C162.105 43.0894 156.911 37.8949 150.526 37.8949C144.142 37.8949 138.947 43.0894 138.947 49.4738C138.947 54.7636 142.514 59.2328 147.368 60.6113V105.263H103.158V91.5789C103.158 89.8344 101.744 88.4211 100 88.4211C98.2559 88.4211 96.8422 89.8344 96.8422 91.5789V105.263H44.2105V91.5789C44.2105 89.8344 42.7965 88.4211 41.0527 88.4211C39.3086 88.4211 37.8949 89.8344 37.8949 91.5789V105.263H5.26328C2.36094 105.263 0 107.624 0 110.526C0 112.271 1.41406 113.684 3.15781 113.684C4.53242 113.684 5.70234 112.805 6.13594 111.579H158.947C161.85 111.579 164.211 113.94 164.211 116.842C164.211 119.745 161.85 122.105 158.947 122.105H6.13594C5.70234 120.879 4.53281 120 3.15781 120C1.41406 120 0 121.413 0 123.158C0 126.06 2.36094 128.421 5.26328 128.421H12.6316V147.368H3.15781C1.41367 147.368 0 148.782 0 150.526C0 152.271 1.41406 153.684 3.15781 153.684H12.6316V162.807H3.15781ZM145.263 49.4738C145.263 46.5715 147.624 44.2105 150.527 44.2105C153.429 44.2105 155.79 46.5715 155.79 49.4738C155.79 52.3761 153.429 54.7371 150.527 54.7371C147.624 54.7371 145.263 52.3761 145.263 49.4738ZM120 128.421H138.947V147.368H125.263C123.518 147.368 122.105 148.782 122.105 150.526C122.105 152.271 123.518 153.684 125.263 153.684H138.947V162.807H120V128.421ZM94.7367 128.421H113.684V147.368H100C98.2559 147.368 96.8422 148.782 96.8422 150.526C96.8422 152.271 98.2562 153.684 100 153.684H113.684V162.807H94.7371L94.7367 128.421ZM69.4738 150.53V150.526V150.522V128.421H88.4211V147.368H74.7367C72.9926 147.368 71.5789 148.781 71.5789 150.526C71.5789 152.27 72.993 153.684 74.7367 153.684H88.4211V162.807H69.4738V150.53ZM44.2105 150.53V150.526V150.522V128.421H63.1578V147.368H49.4734C47.7293 147.368 46.3156 148.781 46.3156 150.526C46.3156 152.27 47.7297 153.684 49.4734 153.684H63.1578V162.807H44.2105V150.53ZM18.9473 128.421H37.8945V147.368H24.2105C22.4664 147.368 21.0527 148.782 21.0527 150.526C21.0527 152.271 22.4668 153.684 24.2105 153.684H37.8949V162.807H18.9473V128.421Z" fill="currentColor"/>
<path d="M154.737 193.684H3.15781C1.41406 193.684 0 195.098 0 196.842C0 198.587 1.41406 200 3.15781 200H154.737C156.481 200 157.895 198.587 157.895 196.842C157.895 195.098 156.481 193.684 154.737 193.684Z" fill="currentColor"/>
<path d="M196.842 193.684H167.368C165.624 193.684 164.211 195.098 164.211 196.842C164.211 198.587 165.624 200 167.368 200H196.842C198.587 200 200 198.587 200 196.842C200 195.098 198.587 193.684 196.842 193.684Z" fill="currentColor"/>
<path d="M71.5789 181.404C71.5789 183.148 72.9929 184.561 74.7367 184.561H167.368C169.113 184.561 170.526 183.148 170.526 181.404C170.526 179.659 169.113 178.246 167.368 178.246H74.7367C72.9929 178.245 71.5789 179.659 71.5789 181.404Z" fill="currentColor"/>
<path d="M196.842 147.368H154.737C152.992 147.368 151.579 148.782 151.579 150.526C151.579 152.271 152.992 153.684 154.737 153.684H196.842C198.586 153.684 200 152.271 200 150.526C200 148.782 198.587 147.368 196.842 147.368Z" fill="currentColor"/>
<path d="M24.2105 178.245C22.4664 178.245 21.0527 179.659 21.0527 181.403C21.0527 183.148 22.4668 184.561 24.2105 184.561H49.4738C51.218 184.561 52.6316 183.148 52.6316 181.403C52.6316 179.659 51.2176 178.245 49.4738 178.245H24.2105Z" fill="currentColor"/>
<path d="M188.421 169.123C190.166 169.123 191.579 167.71 191.579 165.965C191.579 164.221 190.166 162.807 188.421 162.807H167.368C165.624 162.807 164.211 164.221 164.211 165.965C164.211 167.71 165.624 169.123 167.368 169.123H188.421Z" fill="currentColor"/>
</g>
<defs>
<clipPath id="clip0_2468_1768">
<rect width="200" height="200" fill="white"/>
</clipPath>
</defs>
</svg>
