<?xml version="1.0" encoding="UTF-8"?>
<svg id="Capa_1" xmlns="http://www.w3.org/2000/svg" viewBox="0 0 100 100" fill="currentColor">
  <path d="M87.5,42.5l12.3-37.9-2.8-.9-4,12.4-11.4-3.7,3.9-11.3-2.8-1-10.8,31.2c-.4,1.2-1.3,2.2-2.5,2.8-1.3.6-2.8.7-4.1.3-7.2-2.5-20.1-5.7-32.7-7.2-14.7-1.7-24.2-.5-28.2,3.5C1.3,33.8-.1,38.4.3,44c.6,9,5.7,19,12,24,3.3,2.5,9.3,3.8,18.1,3.8s.6,0,.9,0c6.7,0,15.1-.9,23.7-2.3,1.1,3.6,3,6.9,5.8,9.6v8.2l9.4,3.9v8.8h2.9v-10.7l-9.4-3.9v-4.2h26.5v4.2l-9.4,3.9v10.7h2.9v-8.8l9.4-3.9v-8.2c4.3-4.3,6.7-10.1,6.7-16.2,0-8.8-5-16.5-12.3-20.3h0ZM54.3,66.6c-15.8,2.6-34.2,3.7-40.2-.9-5.7-4.4-10.4-13.8-10.9-21.8-.2-3.3.2-7.9,3.2-11,3.2-3.3,12.4-4.2,25.8-2.7,12.3,1.4,24.9,4.5,32,7,2,.7,4.4.6,6.4-.4,1.9-.9,3.4-2.5,4-4.5l5.9-17.1,11.5,3.7-7.3,22.4c-2.5-.9-5.1-1.4-7.9-1.4-12.6,0-22.9,10.3-22.9,22.9,0,1.3.1,2.6.3,3.8h0ZM89.7,78.1h-25.7c-4.5-3.8-7.1-9.4-7.1-15.3,0-11,9-20,20-20s20,9,20,20c0,5.9-2.6,11.5-7.1,15.3h0Z"/>
  <path d="M65.8,55.3h2.9v2.9h-2.9v-2.9Z"/>
  <path d="M75.7,55.3h2.9v2.9h-2.9v-2.9Z"/>
  <path d="M85.7,55.3h2.9v2.9h-2.9v-2.9Z"/>
  <path d="M65.8,70.6h2.9v2.9h-2.9v-2.9Z"/>
  <path d="M75.7,70.6h2.9v2.9h-2.9v-2.9Z"/>
  <path d="M85.7,70.6h2.9v2.9h-2.9v-2.9Z"/>
  <path d="M70.8,47.6h2.9v2.9h-2.9v-2.9Z"/>
  <path d="M80.8,47.6h2.9v2.9h-2.9v-2.9Z"/>
  <path d="M60.9,63h2.9v2.9h-2.9v-2.9Z"/>
  <path d="M70.8,63h2.9v2.9h-2.9v-2.9Z"/>
  <path d="M80.8,63h2.9v2.9h-2.9v-2.9Z"/>
  <path d="M90.7,63h2.9v2.9h-2.9v-2.9Z"/>
  <path d="M27.6,38.3h2.9v2.9h-2.9v-2.9Z"/>
  <path d="M33.5,38.3h2.9v2.9h-2.9v-2.9Z"/>
  <path d="M8.3,38.3h16.4v2.9H8.3v-2.9Z"/>
  <path d="M39.3,38.3h5.3v2.9h-5.3v-2.9Z"/>
  <path d="M8.3,46.3h34.1v2.9H8.3v-2.9Z"/>
  <path d="M45.4,46.3h2.9v2.9h-2.9v-2.9Z"/>
  <path d="M35.8,54.3h2.9v2.9h-2.9v-2.9Z"/>
  <path d="M12.2,54.3h20.7v2.9H12.2v-2.9Z"/>
  <path d="M41.7,54.3h2.9v2.9h-2.9v-2.9Z"/>
</svg>