<svg width="39" height="33" viewBox="0 0 39 33" fill="none" xmlns="http://www.w3.org/2000/svg">
<g clip-path="url(#clip0_2457_4333)">
<mask id="mask0_2457_4333" style="mask-type:luminance" maskUnits="userSpaceOnUse" x="0" y="0" width="39" height="33">
<path d="M38.6792 0.964355H0V32.1699H38.6792V0.964355Z" fill="white"/>
</mask>
<g mask="url(#mask0_2457_4333)">
<path d="M2.54545 14.547H10.2791V31.7908H0.37915V16.7133C0.37915 15.5219 1.35398 14.547 2.54545 14.547Z" fill="white"/>
<path d="M10.6582 32.1699H0V15.3052C0 14.677 0.50908 14.1679 1.13731 14.1679H10.6582V32.1699ZM0.758204 31.4117H9.89998V14.9261H1.13731C0.931508 14.9261 0.758204 15.0994 0.758204 15.3052V31.4117Z" fill="currentColor"/>
<path d="M27.8911 14.547H35.6248C36.8163 14.547 37.7911 15.5219 37.7911 16.7133V31.7908H27.8911V14.547Z" fill="white"/>
<path d="M38.1704 32.1699H27.5122V14.1679H37.0331C37.6613 14.1679 38.1704 14.677 38.1704 15.3052V32.1699ZM28.2704 31.4117H37.4122V15.3052C37.4122 15.0994 37.2389 14.9261 37.0331 14.9261H28.2704V31.4117Z" fill="currentColor"/>
<path d="M27.8911 7.21411H10.2791V31.7908H27.8911V7.21411Z" fill="white"/>
<path d="M28.2701 32.1699H9.8999V6.83502H28.2701V32.1699ZM10.6581 31.4117H27.5119V7.59323H10.6581V31.4117Z" fill="currentColor"/>
<path fill-rule="evenodd" clip-rule="evenodd" d="M10.7881 29.9603H28.3893V31.7908" fill="white"/>
<path d="M28.7684 31.7908H28.0102V30.3394H10.7881V29.5811H28.7684V31.7908Z" fill="currentColor"/>
<path d="M27.8911 7.21411H10.2791V31.7908H27.8911V7.21411Z" fill="white"/>
<path d="M28.2701 32.1699H9.8999V6.83502H28.2701V32.1699ZM10.6581 31.4117H27.5119V7.59323H10.6581V31.4117Z" fill="currentColor"/>
<path d="M28.4003 18.5872H10.7883V20.0494H28.4003V18.5872Z" fill="white"/>
<path d="M28.7685 20.4285H10.4092V18.2081H28.7794V20.4285H28.7685ZM11.1674 19.6703H28.0212V18.9663H11.1674V19.6703Z" fill="currentColor"/>
<path d="M38.2891 18.5872H28.3892V20.0494H38.2891V18.5872Z" fill="white"/>
<path d="M38.6792 20.4285H28.021V18.2081H38.6792V20.4285ZM28.7684 19.6703H37.9101V18.9663H28.7684V19.6703Z" fill="currentColor"/>
<path d="M27.8911 14.547H35.6248C36.8163 14.547 37.7911 15.5219 37.7911 16.7133V31.7908H27.8911V14.547Z" fill="white"/>
<path d="M38.1704 32.1699H27.5122V14.1679H37.0331C37.6613 14.1679 38.1704 14.677 38.1704 15.3052V32.1699ZM28.2704 31.4117H37.4122V15.3052C37.4122 15.0994 37.2389 14.9261 37.0331 14.9261H28.2704V31.4117Z" fill="currentColor"/>
<path d="M22.1502 24.0896H17.0161V31.4225H22.1502V24.0896Z" fill="white"/>
<path d="M22.5403 31.8016H16.6479V23.7105H22.5403V31.8016ZM17.3953 31.0434H21.7712V24.4687H17.3953V31.0434Z" fill="currentColor"/>
<path d="M21.7821 11.98H17.3845V13.4422H21.7821V11.98Z" fill="white"/>
<path d="M22.1721 13.8322H17.0164V11.6117H22.1721V13.8322ZM17.7637 13.074H21.4031V12.3699H17.7637V13.074Z" fill="currentColor"/>
<path d="M21.7821 8.67639H17.3845V10.1386H21.7821V8.67639Z" fill="white"/>
<path d="M22.1721 10.5286H17.0164V8.30811H22.1721V10.5286ZM17.7637 9.77036H21.4031V9.06631H17.7637V9.77036Z" fill="currentColor"/>
<path d="M21.7821 15.2836H17.3845V16.7458H21.7821V15.2836Z" fill="white"/>
<path d="M22.1721 17.1249H17.0164V14.9045H22.1721V17.1249ZM17.7637 16.3667H21.4031V15.6627H17.7637V16.3667Z" fill="currentColor"/>
<path d="M33.1661 20.0603V17.1249H30.5991V20.0603H33.1661Z" fill="white"/>
<path d="M33.545 20.4285H30.2197V16.735H33.545V20.4285ZM30.9671 19.6703H32.776V17.4932H30.9671V19.6703Z" fill="currentColor"/>
<path d="M33.1552 24.4579V21.5225H30.5881V24.4579H33.1552Z" fill="white"/>
<path d="M33.545 24.837H30.2197V21.1434H33.545V24.837ZM30.9671 24.0788H32.776V21.9016H30.9671V24.0788Z" fill="currentColor"/>
<path d="M10.7774 18.5872H0.877441V20.0494H10.7774V18.5872Z" fill="white"/>
<path d="M11.1673 20.4285H0.498291V18.2081H11.1565V20.4285H11.1673ZM1.25649 19.6703H10.3983V18.9663H1.25649V19.6703Z" fill="currentColor"/>
<path d="M2.54545 14.547H10.2791V31.7908H0.37915V16.7133C0.37915 15.5219 1.35398 14.547 2.54545 14.547Z" fill="white"/>
<path d="M10.6582 32.1699H0V15.3052C0 14.677 0.50908 14.1679 1.13731 14.1679H10.6582V32.1699ZM0.758204 31.4117H9.89998V14.9261H1.13731C0.931508 14.9261 0.758204 15.0994 0.758204 15.3052V31.4117Z" fill="currentColor"/>
<path d="M8.58929 20.0494V17.1141H6.02222V20.0494H8.58929Z" fill="white"/>
<path d="M8.95759 20.4285H5.63232V16.735H8.95759V20.4285ZM6.39053 19.6703H8.19939V17.4932H6.39053V19.6703Z" fill="currentColor"/>
<path d="M8.57829 24.447V21.5117H6.01123V24.447H8.57829Z" fill="white"/>
<path d="M8.95759 24.837H5.63232V21.1434H8.95759V24.837ZM6.39053 24.0788H8.19939V21.9016H6.39053V24.0788Z" fill="currentColor"/>
<path d="M20.5583 27.7506H19.8218V28.4872H20.5583V27.7506Z" fill="white"/>
<path d="M20.9374 27.3715H19.4426V28.8663H20.9374V27.3715Z" fill="currentColor"/>
<path d="M26.4289 18.5872H11.7522V22.6273H26.4289V18.5872Z" fill="white"/>
<path d="M26.8079 22.9956H11.373V18.1973H26.8079V22.9956ZM12.1313 22.2374H26.0497V18.9555H12.1313V22.2374Z" fill="currentColor"/>
<path d="M30.4364 7.59322H7.74448C7.11626 7.59322 6.60718 7.08415 6.60718 6.45592V2.10166C6.60718 1.47344 7.11626 0.964355 7.74448 0.964355H30.4364C31.0647 0.964355 31.5737 1.47344 31.5737 2.10166V6.45592C31.5737 7.08415 31.0647 7.59322 30.4364 7.59322ZM7.74448 1.72256C7.53869 1.72256 7.36538 1.89586 7.36538 2.10166V6.45592C7.36538 6.66172 7.53869 6.83502 7.74448 6.83502H30.4364C30.6422 6.83502 30.8155 6.66172 30.8155 6.45592V2.10166C30.8155 1.89586 30.6422 1.72256 30.4364 1.72256H7.74448Z" fill="currentColor"/>
<path d="M10.9723 3.85622H10.0841V2.93555H9.27173V5.55677H10.0841V4.49528H10.9723V5.55677H11.7846V2.93555H10.9723V3.85622Z" fill="currentColor"/>
<path d="M13.5827 2.89236C13.1603 2.89236 12.8245 3.01151 12.5862 3.2498C12.3479 3.48809 12.2288 3.82387 12.2288 4.2463C12.2288 4.54958 12.2937 4.80954 12.4129 5.01533C12.532 5.22113 12.6945 5.37277 12.8895 5.45942C13.0844 5.55691 13.3336 5.60023 13.626 5.60023C13.9185 5.60023 14.1568 5.54608 14.3517 5.43776C14.5467 5.32945 14.6983 5.17781 14.7958 4.98284C14.9041 4.78787 14.9475 4.53875 14.9475 4.22464C14.9475 3.80221 14.8283 3.47726 14.59 3.23897C14.3517 3.00068 14.016 2.88153 13.5827 2.88153V2.89236ZM13.9835 4.8312C13.886 4.93951 13.756 5.0045 13.5827 5.0045C13.4094 5.0045 13.2794 4.95034 13.1819 4.8312C13.0844 4.71205 13.0303 4.52792 13.0303 4.25713C13.0303 3.98634 13.0844 3.80221 13.1819 3.68306C13.2794 3.56391 13.4094 3.50976 13.5719 3.50976C13.7343 3.50976 13.8751 3.56391 13.9726 3.68306C14.0701 3.80221 14.1243 3.97551 14.1243 4.22464C14.1243 4.51709 14.0809 4.72288 13.9835 4.8312Z" fill="currentColor"/>
<path d="M17.1788 4.02967C17.0272 3.95385 16.7672 3.87803 16.4206 3.80221C16.2798 3.76972 16.1823 3.73722 16.1498 3.70473C16.1065 3.67223 16.0957 3.62891 16.0957 3.59641C16.0957 3.54226 16.1173 3.4881 16.1715 3.4556C16.2148 3.41228 16.2906 3.39062 16.3881 3.39062C16.5073 3.39062 16.5939 3.41228 16.6589 3.46644C16.7239 3.52059 16.7672 3.60724 16.7889 3.72639L17.5579 3.68307C17.5254 3.41228 17.4171 3.21731 17.2438 3.08733C17.0705 2.95736 16.8106 2.9032 16.4748 2.9032C16.204 2.9032 15.9874 2.93569 15.8249 3.00068C15.6732 3.06567 15.5541 3.16315 15.4675 3.2823C15.3916 3.40145 15.3483 3.53142 15.3483 3.6614C15.3483 3.8672 15.4241 4.0405 15.5758 4.17048C15.7274 4.30046 15.9765 4.40877 16.334 4.4846C16.5506 4.52792 16.6914 4.58208 16.7456 4.63624C16.7997 4.69039 16.8322 4.75538 16.8322 4.82037C16.8322 4.89619 16.7997 4.95035 16.7347 5.00451C16.6697 5.05866 16.5831 5.08033 16.4639 5.08033C16.3123 5.08033 16.1932 5.02617 16.1065 4.91785C16.0524 4.85287 16.0199 4.75538 16.009 4.63624L15.24 4.67956C15.2617 4.93952 15.3591 5.16698 15.5324 5.34028C15.7057 5.51359 16.009 5.60024 16.4639 5.60024C16.7131 5.60024 16.9297 5.56774 17.0922 5.49192C17.2546 5.4161 17.3846 5.30779 17.4821 5.16698C17.5796 5.02617 17.6229 4.87453 17.6229 4.70122C17.6229 4.56042 17.5904 4.43044 17.5146 4.31129C17.4496 4.19214 17.3305 4.09466 17.1788 4.01884V4.02967Z" fill="currentColor"/>
<path d="M19.3776 2.93567H18.0237V5.55689H18.836V4.58206H19.2801C19.6051 4.58206 19.8542 4.50624 20.0058 4.3546C20.1683 4.20296 20.2441 3.99716 20.2441 3.7372C20.2441 3.47725 20.1683 3.28228 20.0275 3.14147C19.8759 3.00066 19.6592 2.93567 19.3668 2.93567H19.3776ZM19.3668 3.9755C19.3018 4.02965 19.1935 4.06215 19.0418 4.06215H18.8469V3.47725H19.0743C19.226 3.47725 19.3343 3.50974 19.3884 3.5639C19.4426 3.61806 19.4751 3.69388 19.4751 3.7697C19.4751 3.84552 19.4426 3.92134 19.3776 3.9755H19.3668Z" fill="currentColor"/>
<path d="M21.5221 2.93567H20.7097V5.55689H21.5221V2.93567Z" fill="currentColor"/>
<path d="M24.3924 2.93567H21.9229V3.58556H22.746V5.55689H23.5584V3.58556H24.3924V2.93567Z" fill="currentColor"/>
<path d="M25.2264 2.93567L24.2407 5.55689H25.0639L25.1939 5.12363H26.1146L26.2445 5.55689H27.0894L26.1037 2.93567H25.2156H25.2264ZM25.9521 4.5604H25.378L25.6596 3.61806L25.9521 4.5604Z" fill="currentColor"/>
<path d="M25.6916 4.37526L25.6594 4.26794L25.6272 4.37526H25.6916Z" fill="currentColor"/>
<path d="M28.1727 4.91784V2.93567H27.3604V5.55689H29.44V4.91784H28.1727Z" fill="currentColor"/>
</g>
</g>
<defs>
<clipPath id="clip0_2457_4333">
<rect width="39" height="33" fill="white"/>
</clipPath>
</defs>
</svg>
