<svg width="200" height="200" viewBox="0 0 200 200" fill="none" xmlns="http://www.w3.org/2000/svg">
<path d="M165.715 30.1942C146.809 30.1942 131.429 45.5747 131.429 64.4798V113.459C131.429 130.983 144.646 145.468 161.633 147.494V183.256H154.452C152.197 183.256 150.37 185.083 150.37 187.337C150.37 189.591 152.197 191.419 154.452 191.419H182.66C184.914 191.419 186.742 189.591 186.742 187.337C186.742 185.083 184.914 183.256 182.66 183.256H169.796V147.494C186.783 145.469 200 130.983 200 113.46V64.4801C200 45.5747 184.62 30.1942 165.715 30.1942ZM191.837 113.46C191.837 126.475 182.268 137.296 169.796 139.261V122.288L180.672 110.677C182.213 109.031 182.129 106.449 180.484 104.907C178.838 103.366 176.256 103.451 174.714 105.096L169.796 110.347V97.2145L180.672 85.6028C182.213 83.9575 182.129 81.3747 180.483 79.8333C178.838 78.2926 176.255 78.377 174.714 80.0219L169.795 85.2735V78.154C169.795 75.8997 167.968 74.0723 165.714 74.0723C163.459 74.0723 161.632 75.8997 161.632 78.154V96.5333L157.43 92.0466C155.889 90.4012 153.306 90.3169 151.66 91.8579C150.015 93.3985 149.931 95.9821 151.472 97.6274L161.632 108.474V139.261C149.16 137.296 139.591 126.475 139.591 113.46V64.4798C139.591 50.0759 151.31 38.3575 165.714 38.3575C180.118 38.3575 191.836 50.0759 191.836 64.4798V113.46H191.837Z" fill="currentColor"/>
<path d="M195.918 183.255H195.865C193.611 183.255 191.783 185.083 191.783 187.337C191.783 189.591 193.611 191.419 195.865 191.419H195.918C198.173 191.419 200 189.591 200 187.337C200 185.083 198.173 183.255 195.918 183.255Z" fill="currentColor"/>
<path d="M139.592 183.255H139.158C139.448 182.032 139.602 180.773 139.602 179.502C139.602 171.129 133.252 164.211 125.114 163.311C121.23 156.755 114.141 152.643 106.396 152.643C98.441 152.643 91.2742 156.937 87.468 163.664C86.2246 163.365 84.9453 163.212 83.659 163.212C74.6766 163.212 67.3688 170.52 67.3688 179.502C67.3688 180.773 67.5219 182.032 67.8121 183.255H58.3672V147.462C73.0973 145.463 84.4895 132.811 84.4895 117.541C84.4895 100.887 70.9402 87.3375 54.2855 87.3375C37.6309 87.3375 24.0816 100.887 24.0816 117.541C24.0816 132.811 35.4738 145.462 50.2039 147.462V183.255H43.9594C44.1859 182.261 44.307 181.238 44.307 180.204C44.307 172.58 38.1047 166.378 30.4805 166.378C26.118 166.378 22.0809 168.45 19.5074 171.797C18.8324 171.667 18.1418 171.602 17.443 171.602C11.4258 171.602 6.53047 176.497 6.53047 182.514C6.53047 182.763 6.5418 183.01 6.5582 183.255H4.08164C1.82734 183.255 0 185.083 0 187.337C0 189.591 1.82734 191.419 4.08164 191.419H139.592C141.846 191.419 143.673 189.591 143.673 187.337C143.673 185.083 141.846 183.255 139.592 183.255ZM35.2547 183.255H14.7941C14.7281 183.018 14.6938 182.768 14.6938 182.515C14.6938 180.998 15.9273 179.765 17.4434 179.765C18.0027 179.765 18.5406 179.932 18.9988 180.248C20.0402 180.966 21.3555 181.161 22.5609 180.775C23.766 180.39 24.7238 179.467 25.1543 178.277C25.9633 176.043 28.1039 174.541 30.4812 174.541C33.6035 174.541 36.1445 177.082 36.1445 180.205C36.1449 181.308 35.8352 182.355 35.2547 183.255ZM38.5992 125.114L50.2039 136.72V139.198C39.9949 137.277 32.2445 128.3 32.2445 117.542C32.2445 105.388 42.132 95.5012 54.2852 95.5012C66.4383 95.5012 76.3258 105.389 76.3258 117.542C76.3258 128.3 68.5754 137.277 58.3664 139.198V136.754L69.0863 126.034C70.6801 124.44 70.6801 121.855 69.0863 120.262C67.4926 118.668 64.9078 118.668 63.3141 120.262L54.3023 129.274L44.3707 119.341C42.777 117.747 40.1922 117.748 38.5984 119.341C37.0047 120.935 37.0051 123.52 38.5992 125.114ZM130.525 183.255H76.4473C75.8453 182.108 75.5328 180.836 75.5328 179.502C75.5328 175.021 79.1785 171.375 83.6598 171.375C85.0469 171.375 86.4168 171.732 87.6219 172.407C88.6844 173.002 89.9578 173.092 91.0937 172.651C92.2297 172.211 93.1094 171.285 93.4918 170.128C95.3367 164.553 100.522 160.807 106.396 160.807C111.795 160.807 116.684 164.005 118.852 168.954C119.537 170.518 121.122 171.495 122.828 171.391C122.988 171.382 123.149 171.375 123.312 171.375C127.793 171.375 131.439 175.021 131.439 179.502C131.439 180.836 131.127 182.109 130.525 183.255Z" fill="currentColor"/>
<path d="M108.129 62.0985H42.8146C40.5603 62.0985 38.7329 63.9259 38.7329 66.1802C38.7329 68.4345 40.5603 70.2618 42.8146 70.2618H108.129C110.383 70.2618 112.211 68.4345 112.211 66.1802C112.211 63.9259 110.383 62.0985 108.129 62.0985Z" fill="currentColor"/>
<path d="M25.5128 62.0985H22.089C19.8347 62.0985 18.0073 63.9259 18.0073 66.1802C18.0073 68.4345 19.8347 70.2618 22.089 70.2618H25.5128C27.7671 70.2618 29.5944 68.4345 29.5944 66.1802C29.5944 63.9259 27.7671 62.0985 25.5128 62.0985Z" fill="currentColor"/>
<path d="M102.809 49.002H97.4151C95.1608 49.002 93.3335 50.8293 93.3335 53.0836C93.3335 55.3379 95.1608 57.1652 97.4151 57.1652H102.809C105.063 57.1652 106.891 55.3379 106.891 53.0836C106.891 50.8293 105.063 49.002 102.809 49.002Z" fill="currentColor"/>
<path d="M80.4081 49.002H14.723C12.4687 49.002 10.6414 50.8293 10.6414 53.0836C10.6414 55.3379 12.4687 57.1652 14.723 57.1652H80.4081C82.6624 57.1652 84.4898 55.3379 84.4898 53.0836C84.4898 50.8293 82.6624 49.002 80.4081 49.002Z" fill="currentColor"/>
<path d="M86.7171 8.5813C76.9343 8.5813 68.9749 16.5422 68.9749 26.3274C68.9749 28.5817 70.8022 30.409 73.0565 30.409C75.3108 30.409 77.1382 28.5817 77.1382 26.3274C77.1382 21.0434 81.4354 16.7446 86.7171 16.7446C92.0011 16.7446 96.2999 21.0434 96.2999 26.3274C96.2999 31.609 92.0011 35.9063 86.7171 35.9063H23.8058C21.5515 35.9063 19.7241 37.7336 19.7241 39.9879C19.7241 42.2422 21.5515 44.0696 23.8058 44.0696H86.7171C96.5022 44.0696 104.463 36.1106 104.463 26.3274C104.463 16.5422 96.5022 8.5813 86.7171 8.5813Z" fill="currentColor"/>
<path d="M10.6007 35.9062H10.5472C8.29292 35.9062 6.46558 37.7336 6.46558 39.9879C6.46558 42.2422 8.29292 44.0695 10.5472 44.0695H10.6007C12.855 44.0695 14.6824 42.2422 14.6824 39.9879C14.6824 37.7336 12.855 35.9062 10.6007 35.9062Z" fill="currentColor"/>
</svg>
