<?xml version="1.0" encoding="UTF-8"?>
<svg id="Layer_1" xmlns="http://www.w3.org/2000/svg" viewBox="0 0 100 100" fill="currentColor">
  <path d="M98.4,67.3h-2.8v-5.3c0-2.3-1.8-4.2-4-4.4,3.1-12.2-.3-22.9-9.8-32.2-.6-.6-1.5-.5-2.1,0-.6.6-.5,1.5,0,2.1,9,8.8,11.9,18.5,8.8,30h-48.5c-6.1-20.4,11.8-34.5,22-39.2,1.4-.7,3.1-.7,4.6,0,1.9,1,4.9,2.6,8.1,4.9.7.5,1.6.3,2-.3s.3-1.6-.3-2c-2.8-2-5.4-3.5-7.4-4.6l-.6-4.5c-.7-4.8-7.5-4.8-8.2,0l-.6,4.5c-11,5.4-28.4,20.3-22.5,41.3-2.3.2-4,2.1-4,4.4v5.3h-7.6V30.8c1.3-.2,2.3-1.3,2.3-2.6v-3.4c0-1.1-.6-2-1.5-2.4,1.8-8.1-5.7-13.9-9.3-15.5,0,0-.2,0-.3-.1V1.5c0-1.9-2.9-1.9-2.9,0v5.2c0,0-.2,0-.3.1-3.6,1.6-11.2,7.4-9.3,15.5-.9.4-1.5,1.3-1.5,2.4v3.4c0,1.4,1,2.5,2.3,2.6v36.5H1.5c-.8,0-1.5.7-1.5,1.5v16.9c0,1.9,2.9,1.9,2.9,0v-9.6h94v20.9h-14.1v-9.8c-.4-11.2-16.5-11.2-16.9,0v9.8h-7.5v-9.8c-.4-11.2-16.5-11.2-16.9,0v9.8h-7.5v-9.8c-.4-11.2-16.5-11.2-16.9,0v9.8H3v-4.4c0-1.9-2.9-1.9-2.9,0v5.8c0,.8.7,1.5,1.5,1.5h96.9c.8,0,1.5-.7,1.5-1.5v-29.7c0-.8-.7-1.5-1.5-1.5ZM64.4,11.1c.6,0,1.1.5,1.2,1.1l.4,2.9c-1.1-.2-2.1-.2-3.2,0l.4-2.9c0-.6.6-1.1,1.2-1.1h0ZM68.8,87.2c.3-7.3,10.8-7.3,11.1,0v9.8h-11.1v-9.8ZM44.4,87.2c.3-7.3,10.8-7.3,11.1,0v9.8h-11.1v-9.8ZM20,87.2c.3-7.3,10.8-7.3,11.1,0v9.8h-11.1v-9.8ZM36,61.9c0-.8.7-1.5,1.5-1.5h53.7c.8,0,1.5.7,1.5,1.5v5.3h-56.7v-5.3ZM5.6,27.9v-2.9h19.3v2.9H5.6ZM14.9,9.4c.3-.1.6-.1.8,0,3.1,1.4,9.4,6.1,7.7,12.6H7.1c-1.7-6.5,4.7-11.2,7.7-12.6ZM8,30.8h14.6v36.5H8V30.8ZM3,73.1v-2.9h94v2.9H3Z"/>
  <path d="M15.3,34c-2.4,0-4.4,2-4.4,4.4v3.1c.2,5.8,8.6,5.8,8.8,0v-3.1c0-2.4-2-4.4-4.4-4.4ZM16.7,41.5c0,1.9-2.9,1.9-2.9,0v-3.1c0-1.9,2.9-1.9,2.9,0v3.1Z"/>
  <path d="M15.3,51c-2.4,0-4.4,2-4.4,4.4v3.1c.2,5.8,8.6,5.8,8.8,0v-3.1c0-2.4-2-4.4-4.4-4.4ZM16.7,58.5c0,1.9-2.9,1.9-2.9,0v-3.1c0-1.9,2.9-1.9,2.9,0v3.1Z"/>
</svg>