<?xml version="1.0" encoding="UTF-8"?>
<svg id="Layer_1" xmlns="http://www.w3.org/2000/svg" viewBox="0 0 100 100" fill="currentColor">
  <g id="p">
    <path d="M77.8,74.2l-20.2-6.7-1.3-5.2c1.9-.3,3.7-1.1,5.2-2.4l14.4-11.8c.3-.3.5-.7.6-1.1,0-.4-.1-.9-.4-1.2l-.5-.4,2.7-2.7c.9-.9,1.4-2,1.4-3.3v-6.5c0-2.6-2.1-4.7-4.7-4.7h-1.6c-.7,0-1.4.5-1.5,1.2l-1.5,7.3-1.7,1.7-.4-.5c-.5-.5-1.4-.6-2-.1l-11.3,8.4-.8-.9-2.9-13.6c-.3-1.3-.7-2.5-1.3-3.7,2.8-.6,5.1-2.8,5.7-5.8.4-2.1.6-4.3.6-6.4v-6.2c0-5.1-4.2-9.3-9.3-9.3h-3.1c-5.1,0-9.3,4.2-9.3,9.3v5.5c0,2.3.7,4.5,2,6.3-8.1,6.2-12.9,15.7-12.9,26v22c0,2.9.8,5.7,2.2,8.2,1.2,2,2.7,3.7,4.6,5h-9.9c-3.4,0-6.2,2.8-6.2,6.2v9.3c0,.9.7,1.6,1.6,1.6h2.9c2.7,0,5-1.7,5.9-4.2h0c0-.1,3.6.8,3.6.8v1.9c0,.9.7,1.6,1.6,1.6h43.5c4.4,0,8.3-2.6,10-6.6l1.4-3.3c.6-1.5.9-3,.9-4.6,0-5-3.2-9.4-7.9-11h0ZM28.3,93l-4.3-1.1c-.8-.2-1.6.2-1.8,1l-.5,1.5c-.4,1.3-1.6,2.1-2.9,2.1h-1.3v-7.8c0-1.7,1.4-3.1,3.1-3.1h7.8v7.3ZM72.8,38.7c.2-.2.4-.5.4-.8l1.3-6.5h.3c.9,0,1.6.7,1.6,1.6v6.5c0,.4-.2.8-.4,1.1l-2.7,2.7-2.5-2.5,2-2ZM37.6,9.7c0-3.4,2.8-6.2,6.2-6.2h3.1c3.4,0,6.2,2.8,6.2,6.2h0c0,.1-15.5,1.4-15.5,1.4v-1.4ZM37.6,14.2l15.5-1.3v3c0,1.9-.2,3.9-.6,5.9-.4,1.9-2.1,3.4-4.1,3.4s-1.4-.2-2.1-.5l-4.9-2.8c-2.4-1.4-3.9-4-3.9-6.7v-.9ZM81.9,88.5l-1.4,3.3c-1.2,2.9-4,4.7-7.1,4.7H31.4v-10.9h35.7c.9,0,1.6-.7,1.6-1.6s-.7-1.6-1.6-1.6h-27.1c-2.3,0-4.6-.6-6.6-1.8-2-1.1-3.7-2.8-4.9-4.8-1.2-2-1.8-4.3-1.8-6.6v-22c0-9.4,4.5-18.1,12-23.7.4.3.8.6,1.3.9l4.8,2.8c.4.3.9.4,1.4.6.9,1.4,1.5,2.9,1.9,4.5l1.7,8.1-4.9-5.6c-.6-.7-1.5-.7-2.2-.1-.6.6-.7,1.5-.1,2.2l10.9,12.4c.5.6,1.4.7,2.1.2l11.3-8.5,5.6,5.6-13,10.7c-1.5,1.2-3.3,1.8-5.2,1.8s-4.5-1-6-2.7l-12.6-13.9c-.6-.6-1.6-.7-2.2-.1s-.7,1.6-.1,2.2l12.6,13.9c1.8,2,4.4,3.3,7.1,3.6l1.6,6.7c.1.5.5.9,1,1.1l21.1,7c3.5,1.2,5.8,4.4,5.8,8.1s-.2,2.3-.7,3.4h0Z"/>
  </g>
</svg>