<svg width="200" height="200" viewBox="0 0 200 200" fill="none" xmlns="http://www.w3.org/2000/svg">
<g clip-path="url(#clip0_2471_1787)">
<path d="M143.333 113.333C174.667 113.333 200 88 200 56.6668C200 25.3336 174.667 0 143.333 0C119.966 0 99.9383 14.0914 91.2641 34.2516C88.6203 33.6836 85.977 33.3332 83.3332 33.3332C59.3332 33.3332 40 54 40 79.3332V96.6664C40 108.771 44.0168 121.718 50.7184 132.178L47.3336 142.333C47.0609 143.151 47.0184 143.97 47.375 144.788C36.4711 146.839 24.4141 151.696 8.66719 160C3.3332 162.667 0 168 0 174V196.667C0 198.667 1.3332 200 3.3332 200H63.3332H103.333H163.333C165.333 200 166.666 198.667 167 196.667V174.334C167 168.334 163.667 163 158.333 160.334C142.532 152.002 130.199 147.14 119.41 145.101C119.714 144.179 119.974 143.256 119.666 142.334L116.156 131.803C120.233 125.251 123.239 117.788 124.911 110.278C130.685 112.257 136.882 113.333 143.333 113.333ZM143.333 6.6668C171 6.6668 193.333 29 193.333 56.6668C193.333 84.3336 171 106.667 143.333 106.667C115.666 106.667 93.3332 84.3336 93.3332 56.6668C93.3332 29 115.667 6.6668 143.333 6.6668ZM54 143L55.3332 138.667C57.5691 141.238 59.9578 143.502 62.4438 145.448C62.7184 145.667 62.9953 145.88 63.2734 146.091C63.2918 146.105 63.3098 146.12 63.3281 146.134C65.5098 147.781 67.8039 149.188 70.1934 150.31C72.6684 151.5 75.1859 152.38 77.7059 152.931L70.0254 166.372L55.9996 145.334C55.6621 144.996 55.3246 144.698 54.9746 144.463L54 143ZM83.5 157.208L90.8094 170H76.1902L83.5 157.208ZM6.6668 174C6.6668 170.667 8.6668 167.333 11.3336 166C28.0004 157.333 40.3336 152.667 51.0004 151L66.2336 173.85L60.6668 193.333H6.6668V174ZM67.9047 193.333L72.6664 176.666H93.9996L98.6664 193.333H67.9047V193.333ZM160 174V193.333H106L100.496 174.068L115.789 150.739C126.675 152.464 138.892 157.119 155 165.666C158 167.333 160 170.667 160 174ZM112.667 142.667L96.7438 166.552L88.8926 152.812C97.5934 151.178 105.269 145.807 111.373 138.461L112.667 142.667ZM110.092 128.827C109.931 128.982 109.788 129.152 109.667 129.333C102.796 139.639 94.1699 145.848 85.159 146.591C85.1504 146.592 85.1418 146.593 85.1332 146.593C84.8707 146.615 84.6082 146.63 84.3449 146.642C84.3004 146.644 84.2562 146.647 84.2121 146.649C83.9762 146.658 83.7395 146.661 83.5031 146.663C74.2207 146.59 64.6242 140.269 57.3336 129.333C57.0414 128.895 56.6215 128.521 56.1293 128.267C50.2422 118.896 46.6668 107.271 46.6668 96.6664V79.3332C46.6668 57.6664 63 40 83.3336 40C85.3187 40 86.9766 40.3285 88.9566 40.6594C88.8004 41.1926 88.6504 41.7281 88.5094 42.2676C87.3383 46.382 86.7879 50.8559 86.6863 55.1766C86.6859 55.1961 86.6855 55.2152 86.6848 55.2348C86.6738 55.7141 86.6668 56.1918 86.6668 56.6664C86.6668 57.2883 86.6805 57.9066 86.7 58.5234C86.7047 58.6719 86.7109 58.8199 86.7168 58.968C86.7391 59.5309 86.7688 60.0914 86.8074 60.65C86.8109 60.7 86.8133 60.7508 86.8168 60.8008C88.3051 81.5102 100.884 99.1109 118.658 107.706C117.13 115.069 114.151 122.476 110.092 128.827Z" fill="currentColor"/>
<path d="M104.333 59L114.333 69C115 69.6668 115.666 70 116.666 70C117.666 70 118.333 69.6668 119 69L120 68V86.6668C120 88.6668 121.333 90 123.333 90H163.333C165.333 90 166.666 88.6668 166.666 86.6668V68L167.666 69C168.333 69.6668 168.999 70 169.999 70C170.999 70 171.666 69.6668 172.332 69L182.332 59C182.999 58.3332 183.332 57.6668 183.332 56.6668C183.332 55.6668 182.999 55 182.332 54.3336L145.666 17.6668C144.999 17 144.332 16.6668 143.332 16.6668C142.332 16.6668 141.666 17 140.999 17.6668L104.332 54.3336C103 55.6668 103 57.6668 104.333 59ZM160 83.3332H126.667V61.3332L143.334 44.6664L160 61.3332V83.3332H160ZM143.333 24.6668L175.333 56.6668L170 62L165.667 57.6672L165.667 57.6668L145.667 37.6668C145.334 37.0004 144.667 36.6668 144 36.6668C144 36.6668 143.667 36.6668 143.334 36.6668H143.334C142.334 36.6668 141.667 37 141 37.6668L121 57.6668L121 57.6672L116.667 62L111.334 56.6668L143.333 24.6668Z" fill="currentColor"/>
</g>
<defs>
<clipPath id="clip0_2471_1787">
<rect width="200" height="200" fill="white"/>
</clipPath>
</defs>
</svg>
