<svg width="19" height="30" viewBox="0 0 19 30" fill="none" xmlns="http://www.w3.org/2000/svg">
<g clip-path="url(#clip0_624_518)">
<path d="M10.7999 20.0301C10.5599 20.0301 10.3699 19.8401 10.3699 19.6001V17.2401L8.2699 17.2201V19.6001C8.2699 19.8401 8.0699 20.0301 7.8299 20.0301C7.5899 20.0301 7.3999 19.8401 7.3999 19.6001V17.2401C7.3999 16.7501 7.7899 16.3501 8.2699 16.3501H10.3499C10.8299 16.3501 11.2199 16.7401 11.2199 17.2201V19.5901C11.2199 19.8301 11.0299 20.0201 10.7899 20.0201" fill="currentColor"/>
<path d="M5.21003 20.0299C4.97003 20.0299 4.78003 19.8399 4.78003 19.5999V15.6099C4.78003 15.3699 4.97003 15.1799 5.21003 15.1799C5.45003 15.1799 5.64003 15.3699 5.64003 15.6099V19.5999C5.64003 19.8399 5.45003 20.0299 5.21003 20.0299Z" fill="currentColor"/>
<path d="M13.43 20.0299C13.19 20.0299 13 19.8399 13 19.5999V15.6099C13 15.3699 13.19 15.1799 13.43 15.1799C13.67 15.1799 13.86 15.3699 13.86 15.6099V19.5999C13.86 19.8399 13.67 20.0299 13.43 20.0299Z" fill="currentColor"/>
<path d="M3.96998 14.99C3.85998 14.99 3.74998 14.95 3.66998 14.86C3.49998 14.69 3.49998 14.42 3.66998 14.25L8.58998 9.33003C9.00998 8.93003 9.66998 8.93003 10.07 9.33003L14.99 14.26C15.16 14.43 15.16 14.7 14.99 14.87C14.82 15.04 14.55 15.04 14.38 14.87L9.44998 9.95003C9.37998 9.88003 9.25998 9.88003 9.18998 9.95003L4.27998 14.87C4.19998 14.95 4.08998 15 3.97998 15" fill="currentColor"/>
<path d="M14.2799 21.57H4.35993C4.11993 21.57 3.92993 21.38 3.92993 21.14C3.92993 20.9 4.11993 20.71 4.35993 20.71H14.2799C14.5199 20.71 14.7099 20.9 14.7099 21.14C14.7099 21.38 14.5199 21.57 14.2799 21.57Z" fill="currentColor"/>
<path d="M17.78 3.61H0.69001C0.45001 3.61 0.26001 3.42 0.26001 3.18C0.26001 2.94 0.45001 2.75 0.69001 2.75H17.78C18.02 2.75 18.21 2.94 18.21 3.18C18.21 3.42 18.02 3.61 17.78 3.61Z" fill="currentColor"/>
<path d="M18.1199 26.7301H0.859932C0.619932 26.7301 0.429932 26.5401 0.429932 26.3001C0.429932 26.0601 0.619932 25.8701 0.859932 25.8701H18.1199C18.3599 25.8701 18.5499 26.0601 18.5499 26.3001C18.5499 26.5401 18.3599 26.7301 18.1199 26.7301Z" fill="currentColor"/>
<path d="M10.5899 28.2201H8.05988C7.81988 28.2201 7.62988 28.0301 7.62988 27.7901C7.62988 27.5501 7.81988 27.3601 8.05988 27.3601H10.5899C10.8299 27.3601 11.0199 27.5501 11.0199 27.7901C11.0199 28.0301 10.8299 28.2201 10.5899 28.2201Z" fill="currentColor"/>
<path d="M16.98 29.71H1.66C0.74 29.71 0 28.97 0 28.05V1.66C0 0.74 0.74 0 1.66 0H16.98C17.9 0 18.64 0.74 18.64 1.66V28.05C18.64 28.97 17.9 29.71 16.98 29.71ZM1.66 0.86C1.22 0.86 0.86 1.22 0.86 1.66V28.05C0.86 28.49 1.22 28.85 1.66 28.85H16.98C17.42 28.85 17.78 28.49 17.78 28.05V1.66C17.78 1.22 17.42 0.86 16.98 0.86H1.66Z" fill="currentColor"/>
</g>
<defs>
<clipPath id="clip0_624_518">
<rect width="18.64" height="29.71" fill="white"/>
</clipPath>
</defs>
</svg>
