<svg width="28" height="33" viewBox="0 0 28 33" fill="none" xmlns="http://www.w3.org/2000/svg">
<g clip-path="url(#clip0_2457_4324)">
<mask id="mask0_2457_4324" style="mask-type:luminance" maskUnits="userSpaceOnUse" x="0" y="0" width="28" height="33">
<path d="M27.1735 0.456909H0V32.5292H27.1735V0.456909Z" fill="white"/>
</mask>
<g mask="url(#mask0_2457_4324)">
<path d="M14.0843 0.456797C14.8169 0.609887 15.5168 0.806717 16.1401 1.24412C17.0805 1.88928 17.7147 2.75314 18.0318 3.84664C18.0865 4.03254 18.1631 4.13095 18.3708 4.18563C19.858 4.52461 21.3342 4.87453 22.8104 5.22445C23.3134 5.34474 23.4447 5.56344 23.3244 6.06645C23.215 6.54759 23.1057 7.01779 22.9854 7.53174C23.2806 7.53174 23.554 7.53174 23.8164 7.53174C24.0789 7.53174 24.2757 7.63015 24.4069 7.85979C24.9318 8.73458 25.4676 9.60938 25.9816 10.4842C26.0472 10.5826 26.08 10.7138 26.0909 10.8341C26.2659 14.3224 26.4408 17.8216 26.6158 21.3099C26.7908 24.7544 26.9767 28.188 27.1516 31.6325C27.1516 31.7418 27.1626 31.8621 27.1626 31.9715C27.1516 32.2995 26.9439 32.5073 26.6049 32.5292C26.5174 32.5292 26.4408 32.5292 26.3534 32.5292H0.820153C0.131248 32.5292 -0.0218418 32.3651 0.0109632 31.6762C0.218728 27.6193 0.426493 23.5625 0.634258 19.5165C0.787348 16.6187 0.918568 13.721 1.07166 10.8232C1.07166 10.692 1.13727 10.5608 1.20288 10.4514C1.62934 9.71873 2.07768 9.00796 2.50414 8.27532C2.75565 7.83792 2.97435 7.37865 3.65232 7.56454C3.58671 7.02873 3.54297 6.55852 3.48829 6.07738C3.40081 5.3338 3.3024 4.59022 3.22585 3.83571C3.18211 3.46392 3.37894 3.22335 3.80541 3.17961C4.75675 3.05932 5.70809 2.96091 6.65944 2.84063C7.61078 2.73128 8.56213 2.62193 9.51347 2.49071C9.65563 2.46884 9.81965 2.38136 9.91807 2.26107C10.6835 1.30973 11.6567 0.719237 12.8596 0.511472C12.9143 0.511472 12.9689 0.467732 13.0345 0.445862H14.0952L14.0843 0.456797ZM26.0581 31.4357C25.7082 24.7434 25.3692 18.0622 25.0302 11.3699H2.14329C1.79337 18.0622 1.45438 24.7434 1.1154 31.4357H26.0691H26.0581ZM7.69826 10.2108C7.56704 9.64219 7.43582 9.10637 7.3046 8.55962C7.19525 8.11129 7.33741 7.88166 7.77481 7.77231C8.89018 7.49893 10.0055 7.23649 11.11 6.96312C11.6567 6.8319 12.1925 6.70068 12.7393 6.56946C12.6081 5.44315 12.4769 4.36059 12.3456 3.25615C9.66656 3.57327 7.02029 3.89038 4.33029 4.2075C4.57086 6.23047 4.80049 8.22064 5.04106 10.2218H7.67639L7.69826 10.2108ZM15.5605 5.89149C15.8011 5.83681 15.987 5.80401 16.1838 5.74933C16.818 5.59624 17.0039 5.70559 17.157 6.33982C17.4523 7.55361 17.7366 8.76739 18.0428 9.98117C18.0646 10.0687 18.174 10.2108 18.2505 10.2108C19.2347 10.2327 20.2298 10.2218 21.2467 10.2218C21.5638 8.87674 21.87 7.54267 22.1981 6.1758C20.0657 5.67279 17.9662 5.18071 15.8448 4.68864C15.7464 5.10417 15.6699 5.46502 15.5715 5.88055M8.8355 10.2108H16.9602C16.6868 9.0845 16.4244 7.99101 16.151 6.87564C13.5594 7.49893 11.0116 8.11129 8.45278 8.72365C8.57306 9.20479 8.67148 9.64219 8.78083 10.0796C8.78083 10.1234 8.81363 10.1562 8.82457 10.2108M11.5036 2.26107C11.9301 2.21733 12.3128 2.17359 12.6956 2.12985C13.1001 2.08611 13.3298 2.26107 13.3845 2.66567C13.4829 3.42018 13.5594 4.17469 13.6469 4.92921C13.7016 5.37754 13.7562 5.83681 13.8109 6.27421C14.3358 6.24141 14.3467 6.24141 14.4561 5.79307C14.5873 5.21352 14.7185 4.63396 14.8607 4.05441C14.981 3.56233 15.2106 3.42018 15.7027 3.54046C16.0745 3.62794 16.4463 3.71542 16.8399 3.8029C16.151 1.74713 13.3735 0.784847 11.5036 2.25014M22.3621 10.2108H24.571C24.2538 9.68593 23.9695 9.19385 23.6634 8.71271C23.6305 8.65804 23.5321 8.6143 23.4665 8.60336C23.226 8.59243 22.9963 8.60336 22.7448 8.60336C22.6136 9.15011 22.4933 9.67499 22.373 10.2108M3.9585 10.2218C3.90382 9.72967 3.86008 9.25946 3.79447 8.78926C3.79447 8.72365 3.71793 8.66897 3.67419 8.60336C3.60858 8.6471 3.53203 8.67991 3.48829 8.73458C3.31333 9.00796 3.14931 9.29227 2.98528 9.56564C2.865 9.77341 2.73378 9.98117 2.60256 10.2108H3.9585V10.2218Z" fill="currentColor"/>
<path d="M17.1133 17.0562C17.1133 16.9031 17.1024 16.7391 17.1133 16.586C17.1571 16.1268 17.1024 15.7768 16.6213 15.4816C16.0198 15.1098 15.8777 14.2897 16.1511 13.6336C16.4244 12.9775 17.0915 12.5838 17.8022 12.6385C18.4911 12.6932 19.0816 13.2181 19.2457 13.9179C19.3988 14.5849 19.0926 15.3176 18.4693 15.6456C18.2287 15.7768 18.1959 15.919 18.1959 16.1596C18.174 17.0234 18.2287 17.8982 18.0756 18.7512C17.671 20.9928 15.6043 22.5128 13.2642 22.4034C11.0991 22.305 9.21828 20.5226 8.99958 18.3247C8.92303 17.5811 8.95584 16.8266 8.95584 16.0721C8.95584 15.8862 8.9121 15.7768 8.73714 15.6894C8.05917 15.3285 7.74205 14.5849 7.92795 13.8632C8.12478 13.1306 8.75901 12.6385 9.50259 12.6385C10.2352 12.6385 10.8913 13.1415 11.0772 13.8413C11.2741 14.574 10.9679 15.3285 10.3008 15.6784C10.0931 15.7878 10.0493 15.9081 10.0493 16.1158C10.0603 16.7391 10.0493 17.3733 10.0712 17.9966C10.1478 19.8556 11.7224 21.3427 13.5813 21.3427C15.4403 21.3427 17.004 19.8775 17.1024 18.0404C17.1243 17.7123 17.1024 17.3952 17.1024 17.0672H17.1133V17.0562ZM9.99466 14.5084C10.0931 14.2241 10.0493 13.9944 9.80877 13.8304C9.59007 13.6773 9.37137 13.6883 9.17454 13.8523C8.96677 14.0163 8.90116 14.235 9.03238 14.4865C9.45885 14.1913 9.59007 14.1913 9.99466 14.5084ZM18.1412 14.4974C18.2724 14.2241 18.1959 14.0163 17.9991 13.8413C17.8022 13.6773 17.5726 13.6664 17.3648 13.8195C17.1461 13.9726 17.0696 14.1803 17.168 14.4428C17.6163 14.1913 17.7585 14.1913 18.1412 14.4974Z" fill="currentColor"/>
<path d="M9.99455 32.5292C9.57902 32.2121 9.4478 32.212 9.03227 32.5073C8.90105 32.2557 8.9776 32.037 9.17443 31.873C9.37126 31.709 9.60089 31.6981 9.80866 31.8512C10.0492 32.0152 10.093 32.2449 9.99455 32.5292Z" fill="currentColor"/>
<path d="M18.1411 32.5292C17.7584 32.223 17.6162 32.223 17.1679 32.4745C17.0804 32.2121 17.146 32.0043 17.3647 31.8513C17.5725 31.7091 17.8021 31.72 17.9989 31.8731C18.1958 32.0371 18.2723 32.2558 18.1411 32.5292Z" fill="currentColor"/>
</g>
</g>
<defs>
<clipPath id="clip0_2457_4324">
<rect width="28" height="33" fill="white"/>
</clipPath>
</defs>
</svg>
