<?xml version="1.0" encoding="UTF-8"?>
<svg id="Capa_1" xmlns="http://www.w3.org/2000/svg" viewBox="0 0 100 100" fill="currentColor">
  <path d="M89.6,26.7c.1,0,.3,0,.4,0,.5,0,1-.2,1.4-.6l5.9-5.9c2.9-2.9,2.9-7.6,0-10.4-1.4-1.4-3.2-2.2-5.2-2.2s-.2,0-.3,0c0-.1,0-.2,0-.3,0-2-.8-3.8-2.2-5.2-2.9-2.9-7.6-2.9-10.4,0l-5.9,5.9c-.5.5-.7,1.1-.5,1.8l1.3,6.3-.7.7c-7.8-5.8-17.4-9-27.2-9s-23.6,4.7-32.2,13.3C5.4,29.6.7,41,.7,53.2s4.7,23.6,13.3,32.2c8.6,8.6,20,13.3,32.2,13.3s23.6-4.7,32.2-13.3c8.6-8.6,13.3-20,13.3-32.2s-3.2-19.3-9-27.1l.7-.7,6.3,1.3ZM64.3,38.9l-3.9-3.9,14.5-14.5.4,2c.2.7.7,1.3,1.5,1.5l2,.4-14.5,14.5ZM63.1,53.2c0,9.3-7.6,17-17,17s-17-7.6-17-17,7.6-17,17-17,4.4.4,6.4,1.2l-3.1,3.1c-.4.4-.6.9-.6,1.4v3.2c-.9-.3-1.8-.5-2.7-.5-4.7,0-8.5,3.8-8.5,8.5s3.8,8.5,8.5,8.5,8.5-3.8,8.5-8.5-.2-1.9-.5-2.7h3.2s0,0,0,0c.5,0,1-.2,1.4-.6l3.1-3.1c.8,2,1.2,4.2,1.2,6.4h0ZM56.6,46.6h-3.9s0-3.9,0-3.9l5-5,3.9,3.9-5,5ZM50.8,53.2c0,2.5-2.1,4.6-4.6,4.6s-4.6-2.1-4.6-4.6,2.1-4.6,4.6-4.6,1.1.1,1.6.3l-2.2,2.2c-.8.8-.8,2,0,2.7s.9.6,1.4.6,1-.2,1.4-.6l2.2-2.2c.2.5.3,1,.3,1.6ZM92,11.6c.9,0,1.8.4,2.5,1,1.4,1.4,1.4,3.6,0,5l-5.1,5.1-8.2-1.7,8.4-8.4s0,0,0,0c.7-.7,1.6-1,2.5-1h0ZM81.7,4.9c1.4-1.4,3.6-1.4,5,0,.7.7,1,1.6,1,2.5s-.4,1.8-1,2.5c0,0,0,0,0,0l-8.4,8.4-1.7-8.2,5.1-5.1ZM87.8,53.2c0,23-18.7,41.6-41.6,41.6S4.5,76.1,4.5,53.2,23.2,11.6,46.1,11.6s17.3,2.7,24.4,7.9l-6.1,6.1c-5.4-3.6-11.7-5.5-18.3-5.5-18.3,0-33.1,14.9-33.1,33.1s1.4,11.2,4.2,16.1c.4.6,1,1,1.7,1s.6,0,.9-.2c.9-.5,1.3-1.7.7-2.6-2.4-4.3-3.7-9.2-3.7-14.2,0-16.2,13.1-29.3,29.3-29.3s10.9,1.5,15.5,4.4l-6.2,6.2c-2.9-1.4-6.1-2.2-9.3-2.2-11.5,0-20.8,9.3-20.8,20.8s9.3,20.8,20.8,20.8,20.8-9.3,20.8-20.8-.8-6.4-2.2-9.3l6.2-6.2c2.9,4.6,4.4,10,4.4,15.5,0,16.2-13.1,29.3-29.3,29.3s-9.9-1.3-14.2-3.7c-.9-.5-2.1-.2-2.6.7-.5.9-.2,2.1.7,2.6,4.9,2.7,10.5,4.2,16.1,4.2,18.3,0,33.1-14.9,33.1-33.1s-1.9-12.9-5.5-18.3l6.1-6.1c5.1,7.1,7.9,15.6,7.9,24.4Z"/>
  <path d="M24.1,73.3c-.5,0-1,.2-1.4.6-.4.4-.6.9-.6,1.4s.2,1,.6,1.4.9.6,1.4.6,1-.2,1.4-.6c.4-.4.6-.9.6-1.4s-.2-1-.6-1.4-.9-.6-1.4-.6Z"/>
</svg>