<?xml version="1.0" encoding="UTF-8"?>
<svg id="svg1623" xmlns="http://www.w3.org/2000/svg" xmlns:xlink="http://www.w3.org/1999/xlink" viewBox="0 0 100 100">
  <defs>
    <style>
      .cls-1, .cls-2 {
        fill: none;
      }

      .cls-2 {
        stroke: currentColor;
        stroke-linecap: round;
        stroke-linejoin: round;
        stroke-width: 2.9px;
      }

      .cls-3 {
        clip-path: url(#clippath);
      }
    </style>
    <clipPath id="clippath">
      <rect class="cls-1" x=".3" y=".7" width="99.3" height="99.3"/>
    </clipPath>
  </defs>
  <g id="g1629">
    <g id="g1631">
      <g class="cls-3">
        <g id="g1633">
          <g id="g1639">
            <path id="path1641" class="cls-2" d="M70.2,74.4v-4.7c0-1.7-1.4-3.1-3.1-3.1h-10.9c-1.7,0-3.1,1.4-3.1,3.1v17.1c0,1.7,1.4,3.1,3.1,3.1h10.9c1.7,0,3.1-1.4,3.1-3.1v-6.2"/>
          </g>
          <g id="g1643">
            <path id="path1645" class="cls-2" d="M90.4,66.7h-10.9c-1.7,0-3.1,1.4-3.1,3.1v17.1c0,1.7,1.4,3.1,3.1,3.1h10.9c1.7,0,3.1-1.4,3.1-3.1v-17.1c0-1.7-1.4-3.1-3.1-3.1Z"/>
          </g>
          <g id="g1647">
            <path id="path1649" class="cls-2" d="M20.5,66.7h-10.9c-1.7,0-3.1,1.4-3.1,3.1v17.1c0,1.7,1.4,3.1,3.1,3.1h10.9c1.7,0,3.1-1.4,3.1-3.1v-17.1c0-1.7-1.4-3.1-3.1-3.1Z"/>
          </g>
          <g id="g1651">
            <path id="path1653" class="cls-2" d="M43.8,66.7h-10.9c-1.7,0-3.1,1.4-3.1,3.1v17.1c0,1.7,1.4,3.1,3.1,3.1h10.9c1.7,0,3.1-1.4,3.1-3.1v-17.1c0-1.7-1.4-3.1-3.1-3.1Z"/>
          </g>
          <g id="g1655">
            <path id="path1657" class="cls-2" d="M42.2,66.7v-6.2c0-1.7,1.4-3.1,3.1-3.1h9.3c1.7,0,3.1,1.4,3.1,3.1v6.2"/>
          </g>
          <g id="g1659">
            <path id="path1661" class="cls-2" d="M64,66.7v-6.2c0-1.7,1.4-3.1,3.1-3.1h9.3c1.7,0,3.1,1.4,3.1,3.1v6.2"/>
          </g>
          <g id="g1663">
            <path id="path1665" class="cls-2" d="M20.5,60.4h0c0-1.7,1.4-3.1,3.1-3.1h9.3c1.7,0,3.1,1.4,3.1,3.1v6.2"/>
          </g>
          <g id="g1667">
            <path id="path1669" class="cls-2" d="M85.8,66.7v-6.2c0-1.7,1.4-3.1,3.1-3.1h9.3"/>
          </g>
          <g id="g1671">
            <path id="path1673" class="cls-2" d="M14.2,66.7v-6.2c0-1.7-1.4-3.1-3.1-3.1H1.8"/>
          </g>
          <g id="g1675">
            <path id="path1677" class="cls-2" d="M6.5,83.8h87.1"/>
          </g>
          <g id="g1679">
            <path id="path1681" class="cls-2" d="M53.1,57.3v-4.7c0-1.7,1.4-3.1,3.1-3.1h7.8c1.7,0,3.1,1.4,3.1,3.1v4.7"/>
          </g>
          <g id="g1683">
            <path id="path1685" class="cls-2" d="M73.3,57.3v-4.7c0-1.7,1.4-3.1,3.1-3.1h7.8c1.7,0,3.1,1.4,3.1,3.1v4.7"/>
          </g>
          <g id="g1687">
            <path id="path1689" class="cls-2" d="M93.5,57.3v-4.7c0-1.7,1.4-3.1,3.1-3.1h1.6"/>
          </g>
          <g id="g1691">
            <path id="path1693" class="cls-2" d="M6.5,57.3v-4.7c0-1.7-1.4-3.1-3.1-3.1h-1.6"/>
          </g>
          <g id="g1695">
            <path id="path1697" class="cls-2" d="M32.9,57.3v-4.7c0-1.7,1.4-3.1,3.1-3.1h7.8c1.7,0,3.1,1.4,3.1,3.1v4.7"/>
          </g>
          <g id="g1699">
            <path id="path1701" class="cls-2" d="M12.7,57.3v-4.7c0-1.7,1.4-3.1,3.1-3.1h7.8c1.7,0,3.1,1.4,3.1,3.1v4.7"/>
          </g>
          <g id="g1703">
            <path id="path1705" class="cls-2" d="M15.8,43.3V10.7h68.4v32.7"/>
          </g>
          <g id="g1707">
            <path id="path1709" class="cls-2" d="M35.7,15.9c-1.8.7-3.8,1-5.9,1-5.3,0-10.1-2.4-13.2-6.2"/>
          </g>
          <g id="g1711">
            <path id="path1713" class="cls-2" d="M33.6,10.7c2,7.2,8.6,12.4,16.4,12.4s14.4-5.3,16.4-12.4"/>
          </g>
          <g id="g1715">
            <path id="path1717" class="cls-2" d="M40.2,10.7c1.7,3.7,5.5,6.2,9.8,6.2s8.1-2.5,9.8-6.2"/>
          </g>
          <g id="g1719">
            <path id="path1721" class="cls-2" d="M64.3,15.9c1.8.7,3.8,1,5.9,1,5.3,0,10.1-2.4,13.2-6.2"/>
          </g>
          <g id="g1723">
            <path id="path1725" class="cls-2" d="M22,15.4v14c0,2-.9,3.8-2.5,5l-3.7,2.8"/>
          </g>
          <g id="g1727">
            <path id="path1729" class="cls-2" d="M78,15.4v14c0,2,.9,3.8,2.5,5l3.7,2.8"/>
          </g>
        </g>
      </g>
    </g>
  </g>
</svg>