<?xml version="1.0" encoding="UTF-8"?>
<svg id="Capa_1" xmlns="http://www.w3.org/2000/svg" viewBox="0 0 100 100" fill="currentColor">
  <path d="M97.8,41.3s0,0,0-.1c0-10.7-24.6-16.4-47.8-16.4S2.2,30.5,2.2,41.1s0,0,0,0c0,9.2,3.4,18,9.5,24.9,1.6,1.7,3.3,3.3,5.2,4.6l-8.1,15.5c-.6,1.2-.7,2.5-.3,3.8.4,1.2,1.3,2.3,2.4,2.9.7.4,1.5.6,2.3.6,1.8,0,3.5-1,4.4-2.7l8-15.2c6.2,2.4,12.8,3.8,19.5,4.1v15c0,2.7,2.2,4.9,4.9,4.9s4.9-2.2,4.9-4.9v-15c6.4-.3,12.7-1.5,18.7-3.7.3,0,.5-.2.7-.3l8,15.3c.9,1.6,2.5,2.7,4.4,2.7.8,0,1.6-.2,2.3-.6,2.4-1.3,3.3-4.2,2.1-6.7l-8.1-15.5c9.3-6.9,14.8-17.8,14.8-29.4ZM50,28c26.2,0,44.5,6.9,44.5,13.1,0,0,0,0,0,0h0c-.3,6.2-18.4,13-44.5,13S5.5,47.3,5.5,41.1s18.3-13.1,44.5-13.1ZM14.7,89.2c-.4.8-1.4,1.1-2.2.7-.4-.2-.7-.5-.8-1s0-.9.1-1.3l7.9-15.1c.9.6,1.9,1.1,2.9,1.6l-7.9,15.1ZM51.6,94.5c0,.9-.7,1.6-1.6,1.6s-1.6-.7-1.6-1.6v-21.4c0-.9.7-1.6,1.6-1.6s1.6.7,1.6,1.6v21.4ZM88.2,87.7c.4.8.1,1.8-.7,2.2-.4.2-.8.3-1.3.1-.4-.1-.8-.4-1-.8l-7.9-15.1c.8-.4,1.6-.8,2.4-1.3,0,0,.1,0,.2-.1,0,0,.2-.1.3-.2l7.9,15.2ZM78.2,70c0,0-.1,0-.2.1-1.8,1-3.6,1.9-5.5,2.6-5.6,2.1-11.5,3.3-17.5,3.5v-3.1c0-2.7-2.2-4.9-4.9-4.9s-4.9,2.2-4.9,4.9v3.1c-13.6-.8-24.1-4.9-30.9-12.4-4-4.5-6.8-9.9-7.9-15.8,7.9,6.2,26.3,9.5,43.8,9.5s35.9-3.3,43.8-9.5c-1.8,9.2-7.5,17.2-15.6,21.9Z"/>
  <path d="M13.3,45c.6.2,1.2,0,1.6-.4l8.2-8.2c.3-.3.5-.7.5-1.2s-.2-.9-.5-1.2c-.3-.3-.7-.5-1.2-.5s-.9.2-1.2.5l-8.2,8.2c-.4.4-.6,1-.4,1.6.2.6.6,1,1.2,1.2Z"/>
  <path d="M18.7,47.2c.2.6.6,1,1.2,1.2s1.2,0,1.6-.4l13.2-13.2c.3-.3.5-.7.5-1.2s-.2-.9-.5-1.2c-.3-.3-.7-.5-1.2-.5s-.9.2-1.2.5l-13.2,13.2c-.4.4-.6,1-.4,1.6Z"/>
  <path d="M27,48.8c.2.6.6,1,1.2,1.2s1.2,0,1.6-.4l16.5-16.5c.3-.3.5-.7.5-1.2s-.2-.9-.5-1.2c-.3-.3-.7-.5-1.2-.5s-.9.2-1.2.5l-16.5,16.5c-.4.4-.6,1-.4,1.6Z"/>
  <path d="M35.2,50.5c.2.6.6,1,1.2,1.2s1.2,0,1.6-.4l18.1-18.1c.3-.3.5-.7.5-1.2s-.2-.9-.5-1.2c-.3-.3-.7-.5-1.2-.5s-.9.2-1.2.5l-18.1,18.1c-.4.4-.6,1-.4,1.6Z"/>
  <path d="M45.1,50.5c.2.6.6,1,1.2,1.2s1.2,0,1.6-.4l16.5-16.5c.3-.3.5-.7.5-1.2s-.2-.9-.5-1.2c-.3-.3-.7-.5-1.2-.5s-.9.2-1.2.5l-16.5,16.5c-.4.4-.6,1-.4,1.6Z"/>
  <path d="M55,50.5c.2.6.6,1,1.2,1.2s1.2,0,1.6-.4l14.8-14.8c.3-.3.5-.7.5-1.2s-.2-.9-.5-1.2c-.3-.3-.7-.5-1.2-.5s-.9.2-1.2.5l-14.8,14.8c-.4.4-.6,1-.4,1.6Z"/>
  <path d="M66.5,48.8c.2.6.6,1,1.2,1.2s1.2,0,1.6-.4l13.2-13.2c.3-.3.5-.7.5-1.2s-.2-.9-.5-1.2c-.3-.3-.7-.5-1.2-.5s-.9.2-1.2.5l-13.2,13.2c-.4.4-.6,1-.4,1.6Z"/>
  <path d="M78.1,47.2c.2.6.6,1,1.2,1.2s1.2,0,1.6-.4l6.6-6.6c.4-.4.6-1,.4-1.6-.2-.6-.6-1-1.2-1.2s-1.2,0-1.6.4l-6.6,6.6c-.4.4-.6,1-.4,1.6Z"/>
  <path d="M38.3,14.3c1,1.2,1,3,0,4.2l-.7.8c-.4.5-.5,1.1-.3,1.6s.7,1,1.3,1.1,1.2-.1,1.5-.6l.7-.8c2-2.4,2-5.9,0-8.4h0c-1-1.3-1-3,0-4.2l4-4.7c.4-.5.5-1.1.3-1.6-.2-.6-.7-1-1.3-1.1s-1.2.1-1.5.6l-4,4.7c-2,2.4-2,5.9,0,8.4h0Z"/>
  <path d="M48.2,14.3c1,1.2,1,3,0,4.2l-.7.8c-.4.5-.5,1.1-.3,1.6s.7,1,1.3,1.1,1.2-.1,1.5-.6l.7-.8c2-2.4,2-5.9,0-8.4h0c-1-1.3-1-3,0-4.2l4-4.7c.6-.7.5-1.7-.2-2.3-.7-.6-1.7-.5-2.3.2l-4,4.7c-2,2.4-2,5.9,0,8.4h0Z"/>
  <path d="M58.1,14.3c1,1.2,1,3,0,4.2l-.7.8c-.6.7-.5,1.7.2,2.3.7.6,1.7.5,2.3-.2l.7-.8c2-2.4,2-5.9,0-8.4h0c-1-1.3-1-3,0-4.2l4-4.7c.6-.7.5-1.7-.2-2.3-.7-.6-1.7-.5-2.3.2l-4,4.7c-2,2.4-2,5.9,0,8.4h0Z"/>
</svg>