<?xml version="1.0" encoding="UTF-8"?>
<svg id="Capa_1" xmlns="http://www.w3.org/2000/svg" viewBox="0 0 100 100" fill="currentColor">
  <path d="M52.5,65h-17.9c-.9,0-1.7.4-2.2,1.2s-.6,1.7-.2,2.5l4.8,10.9c.4,1,1.4,1.6,2.4,1.6h21.2c1,0,2-.6,2.4-1.6l4.8-10.9c.4-.8.3-1.7-.2-2.5-.5-.7-1.3-1.2-2.2-1.2h-6.1c-.8,0-1.5.7-1.5,1.5s.7,1.5,1.5,1.5h5.7l-4.5,10.3h-20.8l-4.5-10.3h17.4c.8,0,1.5-.7,1.5-1.5s-.7-1.5-1.5-1.5h0ZM75.2,15.7c0-.8-.7-1.5-1.5-1.5s-1.5.7-1.5,1.5.7,1.5,1.5,1.5,1.5-.7,1.5-1.5ZM96.9,20.1h-9.4v-4.4c0-4-3.3-7.3-7.3-7.3h-5v-2.8c0-2.9-2.4-5.3-5.3-5.3H30.2c-2.9,0-5.3,2.4-5.3,5.3v2.8h-5c-4,0-7.3,3.3-7.3,7.3v4.4H3.1c-1.6,0-2.8,1.3-2.8,2.8v17.9c0,1.6,1.3,2.8,2.8,2.8h3.1c1.6,0,2.8-1.3,2.8-2.8v-17.8h3.5v11.9c0,.8.7,1.5,1.5,1.5s1.5-.7,1.5-1.5V15.7c0-2.4,2-4.4,4.4-4.4h60.5c2.4,0,4.4,2,4.4,4.4v54h-9.9c-1.1,0-2.1.7-2.6,1.7l-3.1,7.1c-.2.6-.2,1.2.2,1.7.3.5.9.8,1.5.8h13.9v2c0,2.4-2,4.4-4.4,4.4H19.8c-2.4,0-4.4-2-4.4-4.4v-2h13.9c.6,0,1.2-.3,1.5-.8s.4-1.2.2-1.7l-3.1-7.1c-.4-1-1.5-1.7-2.6-1.7h-9.9v-28c0-.8-.7-1.5-1.5-1.5s-1.5.7-1.5,1.5v41.4c0,3.4,2.3,6.2,5.4,7v4.2c0,2.9,2.4,5.3,5.3,5.3h9.8c2.9,0,5.3-2.4,5.3-5.3v-4h23.2v4c0,2.9,2.4,5.3,5.3,5.3h9.8c2.9,0,5.3-2.4,5.3-5.3v-4.2c3.1-.8,5.4-3.7,5.4-7V23h3.5v17.8c0,1.6,1.3,2.8,2.8,2.8h3.1c1.6,0,2.8-1.3,2.8-2.8v-17.9c0-1.6-1.3-2.8-2.8-2.8h0ZM6.1,40.7h-2.9v-17.7h2.9v17.7ZM72.3,8.4H27.7v-2.8c0-1.3,1.1-2.4,2.4-2.4h39.7c1.3,0,2.4,1.1,2.4,2.4v2.8h0ZM15.4,72.6h9.9l2.4,5.6h-12.3v-5.6ZM35.5,94.4c0,1.3-1.1,2.4-2.4,2.4h-9.8c-1.3,0-2.4-1.1-2.4-2.4v-4h14.7v4ZM79.2,94.4c0,1.3-1.1,2.4-2.4,2.4h-9.8c-1.3,0-2.4-1.1-2.4-2.4v-4h14.7v4ZM84.6,78.2h-12.3l2.4-5.6h9.9v5.6ZM96.8,40.7h-2.9v-17.7h2.9v17.7ZM65.5,17.2c.8,0,1.5-.7,1.5-1.5s-.7-1.5-1.5-1.5h-31c-.8,0-1.5.7-1.5,1.5s.7,1.5,1.5,1.5h31ZM41.8,73c0,.8.7,1.5,1.5,1.5h13.5c.8,0,1.5-.7,1.5-1.5s-.7-1.5-1.5-1.5h-13.5c-.8,0-1.5.7-1.5,1.5ZM27.7,15.7c0-.8-.7-1.5-1.5-1.5s-1.5.7-1.5,1.5.7,1.5,1.5,1.5,1.5-.7,1.5-1.5ZM18.3,23.5v32.3c0,1.9,1.5,3.4,3.4,3.4h56.6c1.9,0,3.4-1.5,3.4-3.4V23.5c0-1.9-1.5-3.4-3.4-3.4H21.7c-1.9,0-3.4,1.5-3.4,3.4h0ZM78.8,23.5v32.3c0,.3-.2.5-.5.5H21.7c-.3,0-.5-.2-.5-.5V23.5c0-.3.2-.5.5-.5h56.6c.3,0,.5.2.5.5h0Z"/>
</svg>