<?xml version="1.0" encoding="UTF-8"?>
<svg id="Layer_2" xmlns="http://www.w3.org/2000/svg" viewBox="0 0 28.39 28.85" fill="currentColor">
  <g id="Layer_1-2" data-name="Layer_1">
    <g>
      <path d="M19.21,28.83v-.52h3.12c.11,0,.2-.09.2-.2v-10.56c0-.11-.09-.2-.2-.2h-11.75v-.56h11.76c.11,0,.2-.09.2-.2v-.95c0-.11-.09-.2-.2-.2h-11.77v-.55h11.77c.11,0,.2-.09.2-.2v-.96c0-.11-.09-.2-.2-.2h-11.75v-.56h11.76c.11,0,.2-.09.2-.2v-.97c0-.11-.09-.2-.2-.2H5.8c-.48,0-.52-.04-.52-.52v-1.5c0-.4.06-.46.46-.46h16.78s.28,0,.28,0c.22,0,.31.1.32.32,0,.06,0,18.28,0,18.28v.37c0,.11.09.2.2.2h2.86c.11,0,.2-.09.2-.2V5.56c0-.09-.06-.17-.15-.2l-4.96-1.2c-2.22-.53-4.43-1.07-6.65-1.59-.12-.03-.26-.04-.4-.04-.16,0-.32.02-.48.06-3.13.74-6.25,1.5-9.38,2.26l-2.15.52c-.09.02-.2.12-.2.21v5.98h-.55v-5.75c0-.06-.03-.12-.07-.16-.04-.03-.08-.04-.12-.04-.01,0-.03,0-.04,0l-.78.18c-.05.01-.1.02-.15.02C.21,5.81,0,5.81,0,5.46,0,4.95,0,4.44,0,3.92v-.17c0-.31.04-.36.34-.43L12.01.5c.67-.16,1.34-.32,2.01-.48.06-.01.12-.02.19-.02.06,0,.11,0,.16.02,4.55,1.09,9.1,2.19,13.65,3.29.35.08.38.12.38.5v1.59c0,.41-.17.41-.27.41-.06,0-.12,0-.2-.03l-.62-.14s-.04,0-.07,0c-.05,0-.11.01-.14.04-.05.04-.12.08-.12.15v22.27c0,.11.09.2.2.2h1.21v.54h-9.17ZM6.05,9.67c-.11,0-.2.09-.2.2v.92c0,.11.09.2.2.2h16.29c.11,0,.2-.09.2-.2v-.92c0-.11-.09-.2-.2-.2H6.05ZM14.2,1.93c.07,0,.15,0,.21.02,3,.72,5.99,1.44,8.99,2.16l4.18,1.01s.03,0,.05,0c.04,0,.09-.01.12-.04.05-.04.08-.09.08-.16v-.92c0-.09-.06-.17-.14-.19-.12-.04-.17-.05-.22-.07l-1.41-.34c-3.85-.93-7.71-1.86-11.57-2.79-.09-.02-.18-.03-.27-.03-.11,0-.22.01-.32.04-3.1.74-6.2,1.49-9.3,2.24l-3.86.94c-.09.02-.15.1-.15.19v.92c0,.06.03.12.07.16.04.03.08.04.13.04.01,0,.03,0,.04,0l.32-.07S10.6,2.76,13.98,1.95c.07-.02.15-.03.22-.03"/>
      <path d="M.46,28.85c-.39,0-.45-.06-.45-.46v-14.99c0-.4.06-.46.46-.46h8.27c.4,0,.46.06.46.46v7.02c0,.11.09.2.2.2h7.96c.43,0,.48.05.48.47v7.29c0,.42-.06.48-.47.48H.46ZM9.41,21.19c-.11,0-.2.09-.2.2v6.68c0,.11.09.2.2.2h7.64c.11,0,.2-.09.2-.2v-6.69c0-.11-.09-.2-.2-.2h-1.9c-.11,0-.2.09-.2.2,0,0,0,1.84,0,2.31,0,.25-.09.35-.33.35h-1.39c-.46,0-.93,0-1.39,0-.22,0-.32-.1-.32-.33,0-.29,0-.57,0-.86v-1.46c0-.11-.09-.2-.2-.2h-1.9ZM.78,21.19c-.11,0-.2.09-.2.2v6.68c0,.11.09.2.2.2h7.64c.11,0,.2-.09.2-.2v-6.69c0-.11-.09-.2-.2-.2h-1.9c-.11,0-.2.09-.2.2v2.22c0,.37-.07.44-.45.44h-2.22q-.77,0-.77-.78v-1.88c0-.11-.09-.2-.2-.2H.78ZM3.66,21.18c-.11,0-.2.09-.2.2v1.89c0,.11.09.2.2.2h1.88c.11,0,.2-.09.2-.2v-1.89c0-.11-.09-.2-.2-.2h-1.88ZM12.29,21.19c-.11,0-.2.09-.2.2v1.88c0,.11.09.2.2.2h1.89c.11,0,.2-.09.2-.2v-1.88c0-.11-.09-.2-.2-.2h-1.89ZM.78,13.51c-.11,0-.2.09-.2.2v6.68c0,.11.09.2.2.2h7.65c.11,0,.2-.09.2-.2v-6.68c0-.11-.09-.2-.2-.2h-1.9c-.11,0-.2.09-.2.2,0,0,0,1.76,0,2.29,0,.31-.13.37-.34.37h-1.38s-1.38,0-1.38,0c-.24,0-.34-.09-.34-.34,0-.48,0-2.04,0-2.04v-.28c0-.11-.09-.2-.2-.2H.78ZM3.67,13.5c-.11,0-.2.09-.2.2v1.89c0,.11.09.2.2.2h1.87c.11,0,.2-.09.2-.2v-1.89c0-.11-.09-.2-.2-.2h-1.87Z"/>
      <path d="M13.57,7.26c-.12,0-.25,0-.37,0-.68-.02-1.2-.56-1.21-1.23,0-.67.53-1.22,1.2-1.24.33,0,.65-.01.98-.01s.68,0,1.02.01c.66.01,1.2.56,1.2,1.23,0,.67-.52,1.22-1.2,1.24-.13,0-.25,0-.38,0h-1.25ZM15.12,6.69c.41-.01.71-.28.72-.66,0-.18-.06-.35-.18-.48-.13-.14-.32-.22-.54-.22h-.88s-.95,0-.95,0c-.41,0-.71.27-.72.66,0,.18.06.35.17.47.13.14.32.22.54.22h.9s.93,0,.93,0Z"/>
      <rect x="6.74" y="18.71" width=".52" height=".52"/>
      <rect x="6.74" y="26.39" width=".53" height=".52"/>
      <rect x="15.38" y="26.38" width=".52" height=".52"/>
    </g>
  </g>
</svg>