<svg width="200" height="200" viewBox="0 0 200 200" fill="none" xmlns="http://www.w3.org/2000/svg">
<path d="M157.644 189.276H152.539V80.968C152.539 78.0066 150.138 75.6059 147.177 75.6059H121.441C118.48 75.6059 116.079 78.0066 116.079 80.968V100.093H83.9215V80.968C83.9215 78.0066 81.5208 75.6059 78.5594 75.6059H65.3258V49.8555H80.8754H119.125H134.675V59.4254C134.675 62.3867 137.075 64.7875 140.037 64.7875C142.998 64.7875 145.399 62.3867 145.399 59.4254V44.4934C145.399 41.532 142.998 39.1313 140.037 39.1313H124.488V27.1684C124.488 24.207 122.087 21.8063 119.125 21.8063H105.363V5.36211C105.363 2.40078 102.962 0 100 0C97.0387 0 94.6383 2.40078 94.6383 5.36211V21.8063H80.8754C77.9141 21.8063 75.5133 24.207 75.5133 27.1684V39.1316H59.9637C57.0024 39.1316 54.6016 41.5324 54.6016 44.4937V75.6059H52.8247C49.8633 75.6059 47.4625 78.0066 47.4625 80.968V189.276H42.3575C39.3961 189.276 36.9954 191.677 36.9954 194.638C36.9954 197.599 39.3958 200 42.3575 200H157.643C160.604 200 163.005 197.599 163.005 194.638C163.005 191.677 160.606 189.276 157.644 189.276ZM86.2383 32.5305H113.764V39.1316H86.2383V32.5305ZM73.1981 189.276H58.1876V86.3301H73.1981V189.276ZM116.079 189.276H83.9219V170.515H116.08V189.276H116.079ZM116.079 159.791H83.9219V140.666H100.001C102.962 140.666 105.363 138.265 105.363 135.304C105.363 132.343 102.962 129.942 100.001 129.942H83.9219V110.817H116.08L116.079 159.791ZM141.815 189.276H126.804V86.3301H141.815V189.276Z" fill="currentColor"/>
</svg>
