<svg width="200" height="200" viewBox="0 0 200 200" fill="none" xmlns="http://www.w3.org/2000/svg">
<g clip-path="url(#clip0_2468_1740)">
<path d="M125.405 104.913H119.147V111.171H125.405V104.913Z" fill="currentColor"/>
<path d="M49.4779 118.261C43.1943 118.261 38.0825 123.373 38.0825 129.656C38.0825 135.94 43.1946 141.051 49.4779 141.051C55.7615 141.051 60.8732 135.939 60.8732 129.656C60.8732 123.373 55.7611 118.261 49.4779 118.261ZM49.4779 134.808C46.6368 134.808 44.3259 132.497 44.3259 129.656C44.3259 126.815 46.6372 124.504 49.4779 124.504C52.3189 124.504 54.6298 126.816 54.6298 129.656C54.6298 132.498 52.3185 134.808 49.4779 134.808Z" fill="currentColor"/>
<path d="M87.8577 104.913H81.5999V111.171H87.8577V104.913Z" fill="currentColor"/>
<path d="M193.989 116.754H192.506L186.69 98.6537C185.691 94.9826 182.354 92.4275 178.541 92.4275H157.92C157.12 92.4275 156.353 92.0869 155.817 91.4931L132.888 66.1052C130.238 63.1712 126.594 61.331 122.698 60.9138L121.444 54.063C120.812 50.6095 117.805 48.1032 114.294 48.1032H110.434C106.923 48.1032 103.916 50.6099 103.284 54.063L102.046 60.8224H61.0271C56.4013 60.8224 52.0028 62.8208 48.9419 66.3255L27.4751 91.3443C26.8844 92.0326 26.0254 92.4275 25.1184 92.4275H14.6473C10.3965 92.4275 6.87111 95.7517 6.6215 99.9959L5.63595 116.773C2.49649 116.968 0 119.577 0 122.765V131.137C0 134.452 2.69688 137.149 6.01173 137.149H19.0829C21.8282 137.149 24.1446 135.297 24.861 132.778H27.4602C28.9833 143.569 38.2735 151.897 49.4774 151.897C60.6814 151.897 69.9716 143.569 71.4947 132.778H122.573C124.096 143.569 133.386 151.897 144.59 151.897C155.794 151.897 165.084 143.569 166.607 132.778H168.759C169.475 135.297 171.791 137.149 174.537 137.149H193.989C197.304 137.149 200.001 134.452 200.001 131.137V122.765C200 119.45 197.304 116.754 193.989 116.754ZM184.954 113.659L185.949 116.753H178.261V113.659H184.954ZM109.425 55.1868C109.514 54.6997 109.938 54.3462 110.433 54.3462H114.294C114.789 54.3462 115.213 54.7001 115.302 55.1868L116.334 60.8216H108.394L109.425 55.1868ZM12.0735 113.659H15.6125V116.753H11.8914L12.0735 113.659ZM18.8512 130.905H6.24337V122.997H18.8512V130.905ZM49.4778 145.654C40.6571 145.654 33.4805 138.477 33.4805 129.657C33.4805 120.836 40.6567 113.659 49.4778 113.659C58.2989 113.659 65.4751 120.835 65.4751 129.657C65.4751 138.477 58.2986 145.654 49.4778 145.654ZM144.59 145.654C135.769 145.654 128.593 138.477 128.593 129.657C128.593 120.836 135.769 113.659 144.59 113.659C153.411 113.659 160.587 120.835 160.587 129.657C160.587 138.477 153.411 145.654 144.59 145.654ZM172.018 112.347V117.314C169.959 118.269 168.525 120.351 168.525 122.765V126.535H166.607C165.084 115.745 155.794 107.417 144.59 107.417C133.386 107.417 124.096 115.745 122.573 126.535H71.4947C69.9716 115.745 60.681 107.417 49.4774 107.417C38.2739 107.417 28.9833 115.745 27.4602 126.535H25.0942V122.765C25.0942 120.451 23.7774 118.441 21.8555 117.437V112.347C21.8555 109.629 19.6438 107.417 16.9246 107.417H12.4403L12.8547 100.362C12.9106 99.4139 13.6981 98.6709 14.6477 98.6709H25.1184C27.8489 98.6709 30.4344 97.4826 32.213 95.4103L53.6622 70.4118C55.5193 68.2857 58.2036 67.0658 61.0271 67.0658H120.997C123.758 67.0658 126.403 68.2411 128.254 70.2904L142.448 86.0048H137.727L124.58 71.4537C123.502 70.2607 121.962 69.5767 120.355 69.5767H98.6459C97.1201 69.5767 95.6865 70.1724 94.6103 71.2536C93.5342 72.3349 92.9451 73.7708 92.9517 75.297L93.0279 92.0135C93.0424 95.1389 95.5967 97.6822 98.7225 97.6822H127.071C127.488 100.208 129.681 102.143 132.323 102.143H143.75C146.689 102.143 149.08 99.7521 149.08 96.8131V93.3471L151.185 95.6775C152.903 97.5799 155.358 98.6705 157.921 98.6705H178.543C179.545 98.6705 180.422 99.3482 180.674 100.319C180.689 100.376 180.705 100.432 180.723 100.488L182.95 107.416H176.95C174.229 107.416 172.018 109.628 172.018 112.347ZM142.835 92.2478V95.899H133.235V92.2478H142.835ZM129.861 86.6115C128.158 87.5021 126.992 89.2834 126.992 91.3345V91.4385H99.2682L99.1971 75.8201H120.111L129.861 86.6115ZM193.757 130.905H174.768V122.997H193.757V130.905Z" fill="currentColor"/>
<path d="M144.59 118.261C138.307 118.261 133.195 123.373 133.195 129.656C133.195 135.94 138.307 141.051 144.59 141.051C150.873 141.051 155.985 135.939 155.985 129.656C155.986 123.373 150.874 118.261 144.59 118.261ZM144.59 134.808C141.749 134.808 139.438 132.497 139.438 129.656C139.438 126.815 141.75 124.504 144.59 124.504C147.431 124.504 149.742 126.816 149.742 129.656C149.743 132.498 147.432 134.808 144.59 134.808Z" fill="currentColor"/>
<path d="M119.147 111.171H112.889V117.428H119.147V111.171Z" fill="currentColor"/>
<path d="M81.5994 111.171H75.3416V117.428H81.5994V111.171Z" fill="currentColor"/>
<path d="M106.631 104.913V111.171H100.374V117.429H106.631V111.171H112.889V104.913H106.631Z" fill="currentColor"/>
<path d="M75.3416 104.913H69.0837V111.171H75.3416V104.913Z" fill="currentColor"/>
<path d="M94.1155 111.171H87.8577V117.428H94.1155V111.171Z" fill="currentColor"/>
<path d="M55.0478 99.4373H45.6028C43.879 99.4373 42.481 100.835 42.481 102.559C42.481 104.283 43.8786 105.681 45.6028 105.681H55.0478C56.7716 105.681 58.1697 104.283 58.1697 102.559C58.1693 100.835 56.7716 99.4373 55.0478 99.4373Z" fill="currentColor"/>
<path d="M89.6994 91.9873V75.2708C89.6994 72.131 87.1447 69.5763 84.0044 69.5763H62.477C60.8106 69.5763 59.2329 70.3029 58.1497 71.5697L43.8528 88.2861C42.3907 89.9955 42.0668 92.3263 43.0078 94.3697C43.9489 96.4131 45.9305 97.6822 48.1801 97.6822H84.0048C87.145 97.6822 89.6994 95.1271 89.6994 91.9873ZM49.3719 91.4384L62.7298 75.8201H83.4552V91.4384H49.3719Z" fill="currentColor"/>
<path d="M100.373 104.913H94.1155V111.171H100.373V104.913Z" fill="currentColor"/>
</g>
<defs>
<clipPath id="clip0_2468_1740">
<rect width="200" height="200" fill="white"/>
</clipPath>
</defs>
</svg>
