<svg width="200" height="200" viewBox="0 0 200 200" fill="none" xmlns="http://www.w3.org/2000/svg">
<path d="M9.375 33.9851V41.0148H193.75V33.9851H9.375ZM59 78.5492C57.2367 78.5203 55.4688 79.3921 55.4688 81.2499V105.073L62.5 91.7921V81.2499C62.5207 79.507 60.7625 78.5781 59 78.5492ZM141 78.5492C139.237 78.5781 137.479 79.507 137.5 81.2499V91.7921L144.531 105.073V81.2499C144.531 79.3921 142.763 78.5203 141 78.5492ZM70.8668 91.0156L28.2652 171.484H58.5074L79.8082 91.0156H70.8668ZM87.0809 91.0156L82.3246 108.984H96.4844V91.0156H87.0809ZM103.516 91.0156V140.234H125.547L112.157 91.0156H103.516ZM119.443 91.0156L146.437 190.234H153.443L148.971 170.782L161.158 190.234H181.661L129.134 91.0156H119.443ZM25 109.766C22.0234 109.766 19.3555 110.413 17.7328 111.224C16.4551 111.863 16.1289 112.388 16.0461 112.5C16.1289 112.612 16.4551 113.137 17.7328 113.776C19.3555 114.587 22.0234 115.234 25 115.234C27.9766 115.234 30.6445 114.587 32.2672 113.776C33.5449 113.137 33.8711 112.612 33.9539 112.5C33.8711 112.388 33.5449 111.863 32.2672 111.224C30.6445 110.413 27.9766 109.766 25 109.766ZM33.9539 112.5C33.9762 112.53 33.9844 112.537 33.9844 112.5C33.9844 112.463 33.9762 112.47 33.9539 112.5ZM16.0461 112.5C16.0238 112.47 16.0156 112.463 16.0156 112.5C16.0156 112.537 16.0238 112.53 16.0461 112.5ZM175 109.766C172.023 109.766 169.355 110.413 167.733 111.224C166.455 111.863 166.129 112.388 166.046 112.5C166.129 112.612 166.455 113.137 167.733 113.776C169.355 114.587 172.023 115.234 175 115.234C177.977 115.234 180.645 114.587 182.267 113.776C183.545 113.137 183.871 112.612 183.954 112.5C183.871 112.388 183.545 111.863 182.267 111.224C180.645 110.413 177.977 109.766 175 109.766ZM183.954 112.5C183.976 112.53 183.984 112.537 183.984 112.5C183.984 112.463 183.976 112.47 183.954 112.5ZM166.046 112.5C166.024 112.47 166.016 112.463 166.016 112.5C166.016 112.537 166.024 112.53 166.046 112.5ZM80.4625 116.016L60.8168 190.234H69.7621L75.7203 160.219L74.3453 190.234H96.4844V116.016H80.4625ZM16.0156 120.697V179.596L33.9844 145.655V120.697C31.3672 121.731 28.3062 122.266 25 122.266C21.6938 122.266 18.6328 121.731 16.0156 120.697ZM166.016 120.697V145.655L183.984 179.596V120.697C181.367 121.731 178.306 122.266 175 122.266C171.694 122.266 168.633 121.731 166.016 120.697ZM22.1496 128.232C23.8754 128.232 25.2746 131.03 25.2746 134.482C25.2746 137.934 23.8754 140.732 22.1496 140.732C20.4238 140.732 19.0246 137.934 19.0246 134.482C19.0246 131.03 20.4238 128.232 22.1496 128.232ZM103.516 147.266V190.234H139.15L127.461 147.266H103.516ZM24.543 178.516L18.3387 190.234H53.5445L56.6469 178.516H24.543Z" fill="currentColor"/>
</svg>
