<svg width="200" height="200" viewBox="0 0 200 200" fill="none" xmlns="http://www.w3.org/2000/svg">
<g clip-path="url(#clip0_2464_1717)">
<path d="M75.0001 166.667V129.167C75.0001 122.274 69.3926 116.667 62.5001 116.667C55.6076 116.667 50.0001 122.274 50.0001 129.167V166.667C50.0001 168.967 48.1343 170.833 45.8334 170.833C43.5326 170.833 41.6668 168.967 41.6668 166.667V129.167C41.6668 117.679 51.0126 108.333 62.5001 108.333C73.9876 108.333 83.3334 117.679 83.3334 129.167V166.667C83.3334 168.967 81.4676 170.833 79.1668 170.833C76.8659 170.833 75.0001 168.967 75.0001 166.667ZM0.214269 42.9842C-0.352814 41.2829 0.232603 39.4096 1.66719 38.3333L45.0005 5.83333C50.0164 2.07167 56.2314 0 62.5005 0C68.7697 0 74.9847 2.07167 80.0005 5.83333L123.333 38.3333C124.768 39.4096 125.353 41.2829 124.786 42.9842C124.219 44.6858 122.627 45.8333 120.833 45.8333H112.5V66.6667H117.29C123.941 66.6667 130.453 68.9696 135.626 73.1512C140.799 77.3329 144.416 83.2179 145.809 89.7225L151.455 116.071C152.564 121.245 157.209 125 162.5 125H195.833C198.134 125 200 126.866 200 129.167C200 131.467 198.134 133.333 195.833 133.333H175V166.667C175 168.967 173.134 170.833 170.833 170.833C168.533 170.833 166.667 168.967 166.667 166.667V133.333H162.5C153.306 133.333 145.234 126.808 143.307 117.817L137.661 91.4687C135.616 81.9258 127.049 75 117.29 75H112.5V166.667C112.5 168.967 110.634 170.833 108.333 170.833C106.033 170.833 104.167 168.967 104.167 166.667V75H20.8339V166.667C20.8339 168.967 18.968 170.833 16.6672 170.833C14.3664 170.833 12.5005 168.967 12.5005 166.667V45.8333H4.16719C2.37344 45.8333 0.781353 44.6858 0.214269 42.9842ZM104.167 45.8333H20.8339V66.6667H104.167V45.8333ZM16.6672 37.5H108.333L75.0001 12.5C71.4172 9.81333 66.978 8.33333 62.5001 8.33333C58.0222 8.33333 53.583 9.81333 50.0001 12.5L16.6672 37.5ZM198.08 179.242C196.143 178.001 193.565 178.566 192.324 180.503C187.847 187.493 180.232 191.667 171.953 191.667C163.677 191.667 156.062 187.493 151.585 180.503C150.818 179.307 149.496 178.584 148.076 178.584H147.862C146.442 178.584 145.12 179.307 144.353 180.503C139.876 187.493 132.261 191.667 123.984 191.667C115.708 191.667 108.093 187.493 103.616 180.503C102.849 179.307 101.527 178.584 100.107 178.584H99.893C98.473 178.584 97.1505 179.307 96.3843 180.503C91.9072 187.493 84.2926 191.667 76.0159 191.667C67.7389 191.667 60.1243 187.493 55.6468 180.503C54.8805 179.307 53.558 178.584 52.138 178.584H51.9243C50.5043 178.584 49.1818 179.307 48.4155 180.503C43.9384 187.493 36.3234 191.667 28.0468 191.667C19.768 191.667 12.153 187.493 7.67594 180.503C6.43469 178.566 3.8576 178 1.9201 179.242C-0.0173974 180.483 -0.582397 183.06 0.658853 184.998C6.67552 194.392 16.9139 200 28.0468 200C37.2939 200 45.9247 196.13 52.0309 189.434C58.1376 196.13 66.7684 200 76.0159 200C85.263 200 93.8939 196.13 100 189.434C106.106 196.13 114.737 200 123.984 200C133.232 200 141.863 196.13 147.969 189.434C154.076 196.13 162.706 200 171.953 200C183.087 200 193.325 194.392 199.342 184.998C200.583 183.06 200.018 180.483 198.08 179.242Z" fill="currentColor"/>
</g>
<defs>
<clipPath id="clip0_2464_1717">
<rect width="200" height="200" fill="white"/>
</clipPath>
</defs>
</svg>
