<svg width="48" height="48" viewBox="0 0 48 48" fill="none" xmlns="http://www.w3.org/2000/svg">
<path d="M24 4.875C20.2174 4.875 16.5198 5.99666 13.3747 8.09814C10.2296 10.1996 7.77834 13.1865 6.33081 16.6812C4.88329 20.1758 4.50455 24.0212 5.24249 27.7311C5.98043 31.441 7.80191 34.8487 10.4766 37.5234C13.1513 40.1981 16.559 42.0196 20.2689 42.7575C23.9788 43.4955 27.8242 43.1167 31.3188 41.6692C34.8135 40.2217 37.8004 37.7704 39.9019 34.6253C42.0033 31.4802 43.125 27.7826 43.125 24C43.1191 18.9296 41.1022 14.0685 37.5168 10.4832C33.9315 6.89782 29.0704 4.88095 24 4.875ZM38.5631 32.5162H31.8544L29.8894 29.8125L32.3813 22.5525L35.5688 21.5194L40.8075 25.5375C40.5836 28.0009 39.8171 30.3841 38.5631 32.5162ZM16.1456 32.5162H9.43688C8.18422 30.3838 7.41905 28.0006 7.19626 25.5375L12.435 21.5194L15.6225 22.5525L18.1106 29.8125L16.1456 32.5162ZM9.56251 15.2662L10.92 19.8431L7.17001 22.7194C7.36862 20.0811 8.18844 17.5272 9.56251 15.2662ZM20.1675 28.875L17.8406 22.0988L24 17.865L30.1594 22.0988L27.8325 28.875H20.1675ZM37.0781 19.8431L38.4375 15.2662C39.8109 17.5274 40.6301 20.0813 40.8281 22.7194L37.0781 19.8431ZM36.7669 12.9769L34.875 19.3781L31.6875 20.415L25.125 15.915V12.5925L30.9188 8.61C33.1624 9.62315 35.1582 11.1134 36.7669 12.9769ZM28.2975 7.6875L24 10.635L19.7025 7.6875C22.5197 6.94752 25.4803 6.94752 28.2975 7.6875ZM17.0831 8.60812L22.875 12.5925V15.9075L16.3125 20.4075L13.125 19.3706L11.2331 12.9769C12.8426 11.1129 14.8389 9.62211 17.0831 8.60812ZM11.0156 34.7662H15.9244L17.6475 39.6412C15.0698 38.586 12.792 36.9116 11.0156 34.7662ZM20.3306 40.4719L17.9775 33.8231L19.9388 31.125H28.0613L30.0225 33.8231L27.6694 40.4719C25.2527 41.0094 22.7474 41.0094 20.3306 40.4719ZM30.3525 39.6319L32.0756 34.7569H36.9844C35.208 36.9023 32.9302 38.5766 30.3525 39.6319Z" fill="currentColor"/>
</svg>
