<svg width="43" height="35" viewBox="0 0 43 35" fill="none" xmlns="http://www.w3.org/2000/svg">
<g clip-path="url(#clip0_624_845)">
<path d="M33.8412 35C33.4176 35 33.1808 34.7508 33.131 34.2524L32.8693 31.586C32.8444 31.3368 32.8444 31.1623 32.8444 30.9131C32.8444 30.5393 32.8693 30.1655 32.8693 29.7793C32.8943 28.9818 32.9192 28.1719 32.9067 27.4368C32.9067 26.9384 32.8694 26.4649 32.8444 25.9915C32.8195 25.6301 32.807 25.2688 32.7946 24.8825C32.3211 24.4215 31.6732 23.7985 31.0377 23.2129C30.6889 22.8889 30.34 22.565 30.016 22.2535L29.9413 22.2285C29.7917 22.2535 29.3556 22.2908 29.1314 21.7177L27.848 16.4098C27.9227 18.0295 27.9477 19.6867 27.9601 21.1196L27.9975 25.6675C29.6422 26.2033 30.9754 26.6518 32.1965 27.0755L31.8726 27.985C30.7387 27.5863 29.5052 27.1751 27.9975 26.6768V27.1378L27.8729 33.5546C27.8729 33.7415 27.7857 34.0655 27.3122 34.2773C26.6892 34.5639 25.2688 34.6511 24.6582 34.1776C24.434 34.0032 24.3218 33.754 24.3467 33.4923L23.948 27.4243L23.6739 24.3467L23.3998 27.4368L23.0011 33.4923C23.026 33.754 22.9138 34.0032 22.6896 34.1776C22.079 34.6511 20.6586 34.5639 20.0356 34.2773C19.5621 34.0655 19.4874 33.7415 19.4749 33.5671L19.3378 27.1502L19.3752 22.3033C19.2382 22.3033 19.1136 22.2535 18.989 22.1787L18.8394 22.079C18.4158 21.8174 17.9922 21.5308 17.9174 21.1072L17.5685 16.7088H16.7213C14.8772 17.1573 13.4941 18.2164 13.4318 19.2382C13.3695 20.2225 14.5408 21.2193 16.7213 22.0292C17.3193 22.2285 17.9174 22.4404 18.5279 22.6397L18.2289 23.5493C17.6184 23.3499 17.0078 23.1381 16.3973 22.9388C13.0331 21.6928 12.4101 20.21 12.4724 19.1883C12.5347 18.1791 13.2574 17.3318 14.2417 16.7088H13.3072C10.429 17.5062 7.77501 19.7241 7.11463 21.8672C6.69099 23.2627 7.47597 24.2969 8.57245 25.7423C8.74689 25.9665 8.90886 26.1908 9.09576 26.4276C11.0021 29.0317 13.2325 32.5703 12.9833 34.7383L12.0239 34.6262C12.1858 33.1808 10.8651 30.477 8.31079 27.0007C8.13635 26.764 7.97437 26.5397 7.79993 26.3279C6.62869 24.7828 5.61944 23.4496 6.1926 21.5931C6.82805 19.5497 8.72197 17.8053 10.7654 16.7088H0V15.7494H6.27981V13.7059H7.23923V15.7494H17.4813V15.6123C17.4315 15.0765 17.4315 14.8398 17.4813 14.3165L17.718 10.6906C17.8053 9.29512 18.8394 7.62549 20.4219 7.23923C21.5433 6.97757 26.2905 6.97757 27.3745 7.23923C28.6953 7.57565 29.2435 8.48523 29.6671 9.32004C30.2154 10.429 30.7013 14.4535 30.7262 15.5126L30.7636 15.7369H42.5507V16.6963H30.9381L31.6358 20.5589L33.7166 21.9295C33.6543 21.8548 33.6045 21.78 33.5546 21.6928C33.2556 21.1695 33.1808 20.0231 33.2307 19.5746C33.3304 18.5653 34.1776 17.8925 35.3489 17.8925C36.5201 17.8925 37.3799 18.5653 37.4795 19.5746C37.5169 20.0107 37.4422 21.1695 37.1556 21.6928C37.0684 21.8423 36.9562 21.9918 36.8192 22.1164C38.0153 22.3033 38.4265 23.0384 38.5511 23.5119L39.1616 25.7796C39.2239 27.225 39.199 28.1221 39.1616 29.4927V29.8416L39.1118 29.854C40.4325 30.477 41.6287 31.1125 42.7252 31.7729L42.2268 32.5952C40.8936 31.7978 39.4357 31.0377 37.7412 30.2901V30.4895C37.7412 30.6266 37.7412 30.8259 37.6914 31.0253L37.4172 33.6668C37.4048 33.8163 37.3176 34.0655 36.9811 34.2399C36.6821 34.3895 36.2086 34.4393 35.785 34.4019C35.7601 34.5639 35.6978 34.701 35.5981 34.8006C35.4735 34.9377 35.299 35.0125 35.0997 35.0125H33.8288L33.8412 35ZM34.0655 34.0406H34.8256L34.7633 31.3742C34.7633 31.2496 34.7633 31.125 34.7757 31.0004L35 29.0317L35.947 29.1438L35.7227 31.125C35.7227 31.1997 35.7102 31.2745 35.7227 31.3492L35.7725 33.43C35.9719 33.455 36.2958 33.455 36.4703 33.4051L36.7319 30.8758C36.7569 30.7138 36.7693 30.6141 36.7569 30.502L36.8316 29.2186L36.6198 25.1442L37.5792 25.0943L37.791 29.2186L37.8782 29.231L38.2022 29.1314C38.2396 27.985 38.252 27.1378 38.2022 25.8918L37.6291 23.7985C37.5792 23.6116 37.4048 23.026 36.0965 23.0509C33.7166 23.1132 33.5173 22.9637 33.43 22.9138L30.7512 21.157L29.7419 15.5874C29.7419 14.6031 29.231 10.6657 28.7825 9.7686C28.3588 8.90886 27.9601 8.41047 27.1253 8.19865C26.1784 7.96191 21.618 7.94945 20.6212 8.19865C19.612 8.43539 18.7273 9.59416 18.6525 10.7779L18.4158 14.4286C18.366 14.927 18.3535 15.089 18.3909 15.5625L18.8145 20.9327C18.9017 21.0199 19.1509 21.1819 19.3005 21.2816C19.3254 19.3628 19.3877 17.6059 19.4874 15.7868C19.4749 15.3008 19.4624 14.7526 19.45 14.1919C19.4251 13.0206 19.4126 11.812 19.3254 10.6782L20.2848 10.6034C20.372 11.7622 20.3969 12.9833 20.4094 14.167C20.4094 14.7152 20.4219 15.2634 20.4468 15.7868C20.3596 17.5436 20.2973 19.2132 20.2599 21.0075H20.3097L20.2723 27.1627L20.4094 33.43C20.7334 33.6045 21.7052 33.6294 22.0167 33.4799L22.4155 27.3745L22.9138 21.7925L23.649 21.8548L24.3841 21.7925L24.8825 27.362L25.2812 33.4674C25.5927 33.6169 26.5646 33.592 26.8886 33.4176L27.0132 27.1378L26.9758 20.995C26.9758 19.4251 26.9384 17.5934 26.8387 15.8117C26.8512 15.1638 26.8637 14.5408 26.8637 13.9053C26.8637 12.7964 26.8761 11.6625 26.9633 10.5785L27.9227 10.6533V10.8402L28.5707 15.388L29.9911 21.2567C30.178 21.2567 30.4147 21.3065 30.6639 21.5433C30.9879 21.8423 31.3368 22.1662 31.6732 22.4902C32.371 23.1506 33.1061 23.8234 33.592 24.3218L33.7291 24.4589V24.6458C33.7415 25.1068 33.7665 25.518 33.7914 25.9292C33.8163 26.4276 33.8412 26.901 33.8537 27.4243C33.8537 28.1844 33.8412 29.0068 33.8163 29.8167C33.8163 30.1905 33.7914 30.5643 33.7914 30.9381C33.7914 31.1374 33.7914 31.2869 33.8163 31.4988L34.0655 34.053V34.0406ZM34.1901 19.6743C34.1527 20.073 34.2649 20.9826 34.4019 21.2442C34.5141 21.4436 34.8256 21.6928 35.1994 21.78C35.3489 21.8049 35.3613 21.8049 35.5482 21.78C35.8847 21.7052 36.1962 21.4436 36.3083 21.2442C36.4454 20.9826 36.5575 20.073 36.5201 19.6743C36.4454 18.9017 35.5358 18.8644 35.3489 18.8644C35.162 18.8644 34.2524 18.9017 34.1776 19.6743M11.3759 15.1513L6.76575 12.1609L2.15557 15.1513L1.63225 14.3414L6.76575 11.0146L11.8993 14.3414L11.3759 15.1513ZM11.1641 12.4226L6.76575 9.5817L2.36739 12.4226L1.84407 11.6127L6.76575 8.43539L11.6874 11.6127L11.1641 12.4226ZM10.6906 9.49448L6.76575 7.00249L2.84087 9.49448L2.33001 8.68458L6.77821 5.86864L11.2264 8.68458L10.7156 9.49448H10.6906ZM23.649 6.92773C23.4995 6.92773 23.3499 6.91527 23.188 6.89035C22.3033 6.69099 21.4934 6.11784 21.1321 5.45746C20.7209 4.72232 20.5963 3.02777 20.6586 2.35493C20.8081 0.735137 22.3282 0 23.6614 0C24.9947 0 26.5148 0.735137 26.6643 2.35493C26.7266 3.02777 26.602 4.73478 26.1908 5.45746C25.8295 6.11784 25.0196 6.69099 24.1723 6.87789C23.9854 6.90281 23.811 6.92773 23.649 6.92773ZM21.6056 2.44215C21.5433 3.05269 21.7052 4.52296 21.9669 4.99644C22.2036 5.42008 22.7768 5.8188 23.3624 5.95586C23.5742 5.99324 23.7487 5.99324 23.9979 5.95586C24.5461 5.83126 25.1193 5.43254 25.356 5.0089C25.6177 4.53542 25.7672 3.06515 25.7173 2.45461C25.6177 1.43289 24.6209 0.971876 23.6614 0.971876C22.702 0.971876 21.7052 1.43289 21.6056 2.45461M9.65646 6.15522L6.75329 4.42328L3.85012 6.15522L3.35173 5.33286L6.74083 3.30189L10.1299 5.33286L9.63154 6.15522H9.65646Z" fill="currentColor"/>
</g>
<defs>
<clipPath id="clip0_624_845">
<rect width="42.7127" height="35" fill="white"/>
</clipPath>
</defs>
</svg>
