<svg width="200" height="200" viewBox="0 0 200 200" fill="none" xmlns="http://www.w3.org/2000/svg">
<g clip-path="url(#clip0_2464_1361)">
<path d="M198.355 16.9597C197.321 16.2107 195.992 16.0016 194.777 16.3988L65.7713 58.6103H41.1518C18.4606 58.6103 0 77.0709 0 99.7617C0 122.453 18.4606 140.914 41.1518 140.914H65.7645L194.765 183.597C195.173 183.733 195.596 183.799 196.016 183.799C196.843 183.799 197.661 183.541 198.349 183.044C199.386 182.295 200 181.094 200 179.815V140.741V58.7825V20.1852C200 18.9083 199.388 17.7091 198.355 16.9597ZM37.1677 132.708C20.7414 130.733 7.96813 116.711 7.96813 99.7617C7.96813 82.8123 20.7414 68.7904 37.1677 66.8163V132.708ZM62.4223 81.6546V117.012V132.945H45.1359V66.5785H62.4223V81.6546ZM192.032 174.3L70.3904 134.051V121.791L192.032 144.062V174.3ZM192.032 135.962L70.3904 113.69V103.269H192.032V135.962ZM192.032 95.3012H70.3904V84.9968L192.032 63.5311V95.3012ZM192.032 55.4398L70.3904 76.906V65.4828L192.032 25.6809V55.4398Z" fill="currentColor"/>
<path d="M30.8076 117.544C24.7387 113.72 21.1156 107.162 21.1156 100C21.1156 97.7996 19.3319 96.0159 17.1315 96.0159C14.9311 96.0159 13.1475 97.7996 13.1475 100C13.1475 109.916 18.1614 118.994 26.5602 124.286C27.22 124.701 27.9542 124.9 28.6801 124.9C30.0028 124.9 31.2973 124.241 32.0546 123.039C33.2275 121.176 32.6694 118.717 30.8076 117.544Z" fill="currentColor"/>
<path d="M18.6128 90.6613C19.2571 91.0506 19.9666 91.2354 20.6682 91.2354C22.0176 91.2354 23.3339 90.5494 24.0826 89.3099C25.8216 86.4298 28.263 83.9884 31.1431 82.2494C33.0268 81.1123 33.632 78.6633 32.4945 76.7796C31.3571 74.896 28.9081 74.2912 27.0248 75.4282C23.0419 77.833 19.6658 81.2091 17.2614 85.1916C16.1244 87.0753 16.7292 89.5243 18.6128 90.6613Z" fill="currentColor"/>
</g>
<defs>
<clipPath id="clip0_2464_1361">
<rect width="200" height="200" fill="white"/>
</clipPath>
</defs>
</svg>
