<svg width="100" height="100" viewBox="0 0 100 100" fill="none" xmlns="http://www.w3.org/2000/svg">
<path d="M14.7 10.4C16.2 7.80001 18.8 5.70001 22 4.90001C28.1 3.40001 34.3 7.10002 36 13.1" stroke="currentColor" stroke-width="2" stroke-linecap="round" stroke-linejoin="round"/>
<path d="M22.4999 41.5C20.1999 42.8 17.3999 43.2 14.4999 42.6C9.5999 41.6 6.0999 37.6 5.3999 32.9C8.2999 32 10.6999 30.1 12.0999 27.6" stroke="currentColor" stroke-width="2" stroke-linecap="round" stroke-linejoin="round"/>
<path d="M92.4 26C89.6 26 87.3 28.3 87.3 31.1V38.5C87.3 41.3 89.6 43.6 92.4 43.6C95.2 43.6 97.5 41.3 97.5 38.5V31.1C97.5 28.3 95.2 26 92.4 26Z" stroke="currentColor" stroke-width="2" stroke-linecap="round" stroke-linejoin="round"/>
<path d="M59.1 26C56.3 26 54 28.3 54 31.1V38.5C54 41.3 56.3 43.6 59.1 43.6C61.9 43.6 64.2 41.3 64.2 38.5V31.1C64.2 28.3 61.9 26 59.1 26Z" stroke="currentColor" stroke-width="2" stroke-linecap="round" stroke-linejoin="round"/>
<path d="M64.3999 39H87.0999" stroke="currentColor" stroke-width="2" stroke-linecap="round" stroke-linejoin="round"/>
<path d="M70.0999 30.5H64.3999" stroke="currentColor" stroke-width="2" stroke-linecap="round" stroke-linejoin="round"/>
<path d="M86.8001 30.5H81.1001" stroke="currentColor" stroke-width="2" stroke-linecap="round" stroke-linejoin="round"/>
<path d="M78.0001 31.8H73.4001C71.3001 31.8 69.6001 30.1 69.6001 28C69.6001 25.8 71.4001 24.1 73.5001 24.1H77.8001C80.0001 24.1 81.7001 25.9 81.7001 28C81.7001 30.1 80.0001 31.8 77.9001 31.8H78.0001Z" stroke="currentColor" stroke-width="2" stroke-linecap="round" stroke-linejoin="round"/>
<path d="M71.2999 39.5V56.5H46.7999C44.0999 56.5 41.8999 54.3 41.8999 51.6V50.8" stroke="currentColor" stroke-width="2" stroke-linecap="round" stroke-linejoin="round"/>
<path d="M57.2 71L71 69.1C76.8 68.3 81 63.4 81 57.6V39.5" stroke="currentColor" stroke-width="2" stroke-linecap="round" stroke-linejoin="round"/>
<path d="M36.5 13.2C28.5 13.2 22 19.7 22 27.7V37C22 45 28.5 51.5 36.5 51.5C44.5 51.5 51 45 51 37V27.7C51 19.7 44.5 13.2 36.5 13.2Z" stroke="currentColor" stroke-width="2" stroke-linecap="round" stroke-linejoin="round"/>
<path d="M26.5 56.8V62.4C26.5 67.9 31 72.4 36.5 72.4C42 72.4 46.5 67.9 46.5 62.4V56.8" stroke="currentColor" stroke-width="2" stroke-linecap="round" stroke-linejoin="round"/>
<path d="M17.2 57.4V66.7C17.2 68.2 16.7 69.7 15.9 71C14.7 72.8 14 74.9 14 77.2C14 79.9 15 82.4 16.5 84.3C18.7 87 19.9 90.4 19.9 93.8H53.1C53.1 90.4 54.4 86.9 56.5 84.3C58.1 82.4 59 79.9 59 77.2C59 74.9 58.3 72.8 57.1 71C56.2 69.7 55.8 68.2 55.8 66.7V56.9" stroke="currentColor" stroke-width="2" stroke-linecap="round" stroke-linejoin="round"/>
<path d="M15.1 82.2L12.9 93.9H2.5V74.8C2.5 64.7 10.7 56.5 20.8 56.5H26.2C28.9 56.5 31.1 54.3 31.1 51.6V50.8" stroke="currentColor" stroke-width="2" stroke-linecap="round" stroke-linejoin="round"/>
<path d="M22.1001 32.1C26.7001 30.7 31.5001 29.9 36.5001 29.9C41.5001 29.9 46.3001 30.7 50.9001 32" stroke="currentColor" stroke-width="2" stroke-linecap="round" stroke-linejoin="round"/>
<path d="M50.6 24.3C46.1 23 41.4 22.2 36.5 22.2C31.6 22.2 27 22.9 22.5 24.2" stroke="currentColor" stroke-width="2" stroke-linecap="round" stroke-linejoin="round"/>
<circle cx="13.3999" cy="19" r="1" fill="currentColor"/>
</svg>
