<?xml version="1.0" encoding="UTF-8"?>
<svg id="Layer_1" xmlns="http://www.w3.org/2000/svg" viewBox="0 0 100 100" fill="currentColor">
  <defs>
    <style>
      .cls-1 {
        fill-rule: evenodd;
      }
    </style>
  </defs>
  <path class="cls-1" d="M79.2,4.9c2.5,0,4.6,2.1,4.6,4.6s-2.1,4.6-4.6,4.6-4.6-2.1-4.6-4.6,2.1-4.6,4.6-4.6ZM79.2,16.9c4.1,0,7.4-3.3,7.4-7.4s-3.3-7.4-7.4-7.4-7.4,3.3-7.4,7.4,3.3,7.4,7.4,7.4ZM21.7,4.9c2.5,0,4.6,2.1,4.6,4.6s-2.1,4.6-4.6,4.6-4.6-2.1-4.6-4.6,2.1-4.6,4.6-4.6ZM21.7,16.9c4.1,0,7.4-3.3,7.4-7.4s-3.3-7.4-7.4-7.4-7.4,3.3-7.4,7.4c0,4.1,3.3,7.4,7.4,7.4ZM82.9,63.7h6.6c1.9,0,3.5-1.6,3.5-3.5v-4c0-1.9-1.6-3.5-3.5-3.5h-6.4l4.6-3.7c.3-.3.5-.7.5-1.1v-3.8c1.3-1,2.2-2.6,2.3-4.3h3.1c1.7,0,3.1,1.4,3.1,3.1v30.2h-13.8v-9.4ZM75.7,73.1c0-.2-.2-.3-.3-.5l-5.3-8.7c-.4-.6.3-.9.8-1.3.6.7,1.6,1.2,2.6,1.2h6.6v9.4h-4.4ZM73.5,60.9h16c.4,0,.7-.3.7-.7v-4c0-.4-.3-.7-.7-.7h-9.9l-6.5,5.2c.1,0,.2.1.4.1h0ZM73.3,75.8c.1-.6,0-1.2-.3-1.7l-5.3-8.7c-.9-1.5-.5-3.4.8-4.5l16.9-13.6v-2.2l-6.9,1.2-15.4,12.9s0,0,0,0c-1.7,1.4-2.1,3.7-1,5.6l7,11.5c1.1,1.7,3.7,1.3,4.2-.6ZM38.7,73.1l3.9-10.7c1.4-3.7-2.6-7.3-6.5-10.8-2.6-2.4-5.6-5.1-5.6-7v-4.7h37.3s0,0,0,0c-1.1,1.4-1.2,3.4-.4,4.9l-8.6,6.6c-2.1,1.6-2.4,4.6-.8,6.6l1.4,1.8c-.9,2-.7,4.4.5,6.5l4.1,6.7h-25.2ZM34.5,76.3l5.4-14.9c.7-1.9-2.7-5-5.7-7.8-3.4-3.1-6.6-6-6.6-9v-10.1c0-1.2,1.4-1.8,2.3-1.1l4.6,3.7h11c1,0,1.8-.8,1.8-1.8s-.8-1.8-1.8-1.8h-9.5c-.5,0-.9-.3-1.2-.7l-6.2-10c-.4-.6-1.3-1-2.9-1h-7.4c-2.6,0-4.7,2.1-4.7,4.7v18.3c0,2.9.7,7.1,1.4,8h7.7c1,0,2.4.5,3.3,1.1,0,0,.2.1.3.2l6.6,6.6c1.2,1.2,1.5,2.5,1.1,3.8l-3.7,10.2c-.2.5-.2,1.1,0,1.6.4.8.9,1,1.5,1.2,1.1.4,2.3-.2,2.7-1.3h0ZM27.8,73.1l3.5-9.5c.1-.3-.2-.6-.4-.9l-1.1-1.1c-.5,1.3-1.8,2.2-3.2,2.2h-6.6v9.4h7.9ZM3.3,73.1v-30.2c0-1.7,1.4-3.1,3.1-3.1h4.5v4.9c0,1.7.3,5.6,1.1,8h-1.5c-1.9,0-3.5,1.6-3.5,3.5v4c0,1.9,1.6,3.5,3.5,3.5h6.6v9.4H3.3ZM10.5,60.9c-.4,0-.7-.3-.7-.7v-4c0-.4.3-.7.7-.7h12.2c.6,0,1.2.3,1.7.6l2.8,2.8v1.2c0,.4-.3.7-.7.7H10.5ZM43.5,20.5h9.1l-5.2,10.5c-.6-.3-1.2-.4-1.9-.4h-7l5-10.1ZM74.8,37.5l-2.7.4v-3.8h2.7v3.4ZM61.4,57.1c-.2.1-.3.3-.4.4l-.9-1.1c-.6-.8-.5-2.1.3-2.7l8.9-6.9c1.5.8,2.5.5,4,.3l-11.9,10ZM54.1,35.2c0,1,.8,1.8,1.8,1.8h13.3v-4.3c0-.8.6-1.4,1.4-1.4h5.5c.8,0,1.4.6,1.4,1.4v4.4l2.9-.5v-6.1c0-.8.6-1.4,1.4-1.4s1.4.6,1.4,1.4v6.3c0,1.3-1,2.4-2.3,2.6l-10.7,1.8c-.2.1-.3.2-.4.4-.3.4-.4.9-.4,1.4.1,1,1.1,1.7,2.1,1.6l6-.9,8.7-1.5c1-.6,1.5-1.8,1.3-3v-15.5c0-.9-.6-1.9-1.6-1.9h-10.4c-1.7,0-3.2,1.3-3.9,2.6l-4.9,8.3c-.2.4-.7.7-1.2.7h-9.8c-1,0-1.8.8-1.8,1.8h0ZM99.5,42.9c0-3.2-2.6-5.9-5.9-5.9h-3.1v-13.4c0-2.6-2-4.6-4.4-4.6h-10.4c-2.4,0-4.9,1.6-6.3,4l-4.5,7.6h-9c-3.3,0-5.6,3.4-4.3,6.5h-1.9c.6-1.3.5-2.9-.2-4.1l6.6-13.2c.5-.9-.2-2-1.3-2h-12.2c-.5,0-1,.3-1.3.8l-5.4,10.8-4.9-8c-1.4-2.3-4.4-2.3-5.3-2.3h-7.4c-4.1,0-7.5,3.4-7.5,7.5v10.5h-4.5c-3.2,0-5.9,2.6-5.9,5.9v47.4c0,.8.6,1.4,1.4,1.4s1.4-.6,1.4-1.4v-14.4h13.8v11.1l-11,8.4c-1.1.8-.5,2.5.8,2.5s.6,0,.8-.3l10.8-8.1,10.8,8.1c.6.5,1.5.3,2-.3s.3-1.5-.3-2l-11-8.4v-11.1h7.4c.2,1.9,1.4,3.5,3.2,4.2.7.3,1.2.4,2,.4,2,0,3.9-1.3,4.6-3.2l.5-1.4h27.9l1.2,2c2.3,3.9,8.2,3,9.3-1.4,0-.2,0-.4.1-.5h4v11.1l-11,8.4c-.6.5-.7,1.3-.3,2,.5.6,1.3.7,2,.3l10.8-8.1,10.8,8.1c.6.5,1.5.3,2-.3.5-.6.3-1.5-.3-2l-11-8.4v-11.1h13.8v14.4c0,.8.6,1.4,1.4,1.4s1.4-.6,1.4-1.4v-47.4h0Z"/>
</svg>