<svg width="200" height="200" viewBox="0 0 200 200" fill="none" xmlns="http://www.w3.org/2000/svg">
<path d="M93.8053 44.1244C94.272 43.1867 95.0542 42.4489 96.0142 42.0311C96.9742 41.6178 98.0498 41.5556 99.0542 41.8533L99.5609 42.04L135.116 57.5956C135.925 57.9511 136.61 58.5378 137.085 59.2844L137.343 59.7422L164.01 115.298C164.223 115.747 164.365 116.231 164.419 116.724L164.445 117.222V157.222C164.445 158.311 164.045 159.36 163.321 160.173C162.601 160.991 161.601 161.507 160.521 161.636L160.001 161.667H35.5566C34.9432 161.667 34.3343 161.538 33.7743 161.293C33.2099 161.049 32.7077 160.689 32.2899 160.236C31.8721 159.787 31.5566 159.253 31.3566 158.676C31.1521 158.093 31.0766 157.48 31.1255 156.867L31.1966 156.351L44.5298 89.6845C44.672 88.9778 44.9831 88.3111 45.4409 87.7511C45.8987 87.1911 46.4853 86.7511 47.152 86.4667L47.6675 86.28L76.8987 77.9289L93.8053 44.1244ZM99.8631 51.8756L83.9742 83.6533C83.4987 84.6044 82.6987 85.3511 81.7209 85.7645L81.2231 85.9422L52.7164 94.08L48.9742 112.778H62.2231V121.667H47.1964L40.9743 152.778H71.1075L71.112 143.889C71.112 136.991 73.7875 130.36 78.5698 125.391C83.3564 120.418 89.8853 117.498 96.7787 117.24L97.7787 117.222C104.676 117.222 111.308 119.898 116.276 124.68C121.25 129.467 124.17 135.996 124.428 142.889L124.445 143.889V152.778H155.556V118.236L152.934 112.778H133.334V103.889H148.668L142.223 90.4533V90.5556H111.112V81.6667H138.001L130.045 65.0756L99.8631 51.8756ZM97.7787 126.111C93.2187 126.111 88.832 127.867 85.5253 131.009C82.2231 134.151 80.2498 138.444 80.0231 143L80.0009 143.889V152.778H115.556V143.889C115.556 139.484 113.921 135.236 110.97 131.969C108.014 128.698 103.952 126.644 99.5698 126.2L98.6675 126.133L97.7787 126.111Z" fill="currentColor"/>
</svg>
