<svg width="100" height="100" viewBox="0 0 100 100" fill="none" xmlns="http://www.w3.org/2000/svg">
<path d="M50.2001 83.9C53.4001 87.9 58.8001 88.1 62.3001 84.1C63.9001 85.8 65.9001 86.8 68.3001 86.7C70.7001 86.7 72.6001 85.7 74.2001 83.8C75.7001 85.9 77.7001 87.1 80.3001 87.1C82.9001 87.1 84.9001 85.9 86.4001 83.9C90.8001 87.6 93.1001 87.7 97.5001 84.6C97.2001 86.1 97.5001 87.4 96.3001 88.5C93.6001 90.8 89.5001 90.6 87.2001 87.8C87.0001 87.5 86.7001 87.2 86.4001 86.8C84.8001 88.9 82.8001 90.1 80.2001 90C77.6001 90 75.6001 88.6 74.3001 86.2C73.3001 87.8 72.1001 89 70.4001 89.6C67.7001 90.5 65.0001 89.8 63.2001 87.6C62.6001 86.8666 61.9668 86.8666 61.3001 87.6C58.7001 90.5 54.1001 90.5 51.5001 87.6C51.2001 87.3 51.0001 87 50.6001 86.6C49.0001 88.7 46.9001 89.7 44.4001 89.8C41.7001 89.9 39.8001 88.6 38.3001 86.4C36.7001 88.5 34.9001 89.7 32.4001 89.7C29.9001 89.7 28.0001 88.5 26.6001 86.4C21.6001 90.9 18.9001 91 14.3001 86.9C13.1001 88.4 11.4001 89.2 9.40009 89.6C7.30009 90 5.40009 89.6 3.70009 88.2C2.60009 87.2 2.40009 86.8 2.60009 85.1C4.30009 86.8 6.30009 87.7 8.60009 87.4C11.0001 87.1 12.7001 85.9 14.0001 83.8C15.6001 85.9 17.6001 87.1 20.2001 87.1C22.8001 87.1 24.8001 85.9 26.4001 83.8C27.9001 85.8 29.8001 86.8 32.2001 86.8C34.6001 86.8 36.5001 85.8 38.1001 83.8C39.7001 85.8 41.6001 86.9 44.1001 86.9C46.6001 86.9 48.6001 85.9 50.1001 83.8L50.2001 83.9Z" fill="currentColor"/>
<path d="M35.3 86.3L35.6 83C35.6 83 35.6 82.9 35.6 82.8C35.6 82.6 35.6 82.4 35.6 82.1L35.8 81.6C36 81 36.2 80.4 36.5 79.8C38.1 76.7 38.1 73.4 38.1 69.9C38.1 69 38.1 68.1 38.1 67.3C38.1 65.6 38.1 63.9 38.1 62.2C38.1 59.5 38.1001 56.7 38.4001 53.9C38.5001 52 39.1001 50.1 39.7001 48.3C39.8001 47.8 40 47.4 40.1 46.9C40.7 44.9 41.4 42.9 42 41C42.2 40.3 42.4001 39.7 42.7001 39C41.6001 39.2 40.6001 39.4 39.7001 39.6C39.7001 39.6 39.7001 39.7 39.7001 39.8C39.1001 42.2 38.5001 44.6 37.9001 47L37.1 50.2C36.8 51.4 36.5001 52.7 36.2001 53.9L35.6 56.5L34.6 56.2C34.4 56.2 34.2 56.1 34 56C33.4 55.9 32.8 55.7 32.3 55.5C31.5 55.1 31.3 54.1 31.3 53.5C31.6 50.3 31.8 47.1 32.1 43.8L32.3 41.3C32.5 39.2 32.7001 37.1 32.9001 35C32.9001 34.2 33.6 33.4 34.3 33.1C39.9 30.6 45.8001 28 52.4001 25.1C53.0001 24.9 53.7001 24.8 54.4001 24.9C56.9001 25.3 59.4 26.3 62.3 27.9C62.9 28.2 63.3 28.9 63.5 29.5C64.7 34 66.0001 38.7 67.3001 43.8C67.4001 44.3 67.7 44.7 68.1 45C69.8 46.1 71.4 47.3 73.1 48.4C75.3 49.9 77.5001 51.5 79.8001 53C81.5001 54.1 80.7 55.5 80.5 56C80.5 56.1 80.4001 56.2 80.3001 56.4C80.1001 57 79.8001 57.4 79.4001 57.5C78.7001 57.8 78.1001 57.5 77.8001 57.3C77.8001 57.3 77.7 57.3 77.6 57.3L77.2 57.1C73.1 55.4 68.9001 53.7 64.8001 52C64.1001 51.7 63.5 51.2 63.1 50.5C61.9 48.6 60.7 46.6 59.5 44.7L58.2001 42.6C57.0001 44.4 56.1 46.3 55.6 48.2C53 57.7 55.4 65.8 62.8 72.3C63.7 73.1 64.1001 73.9 64.3001 75.1C64.5001 76.8 64.8 78.5 65 80.1C65.1 80.9 65.2001 81.6 65.3001 82.4C65.3001 82.6 65.3001 82.8 65.3001 83.1L65.5 85.9L63.7001 84.4C63.5001 84.2 63.2 84 63 83.9C62.6 83.6 62.2 83.2 61.8 82.9C61.3 83.4 60.8 83.8 60.3 84.2C60.1 84.4 59.8 84.6 59.5 84.9L58.4001 85.9L57.9001 84.5C57.8001 84.1 57.6 83.6 57.5 83.2C57.2 82.3 56.9001 81.4 56.7001 80.4C56.3001 78 55.1 76.2 53.1 74.8C51.9 73.9 50.8001 72.9 49.7001 71.9C49.3001 71.5 48.9 71.2 48.5 70.8L47.2001 74.9C47.1001 75.3 46.9 75.8 46.8 76.2C46.5 77.2 46.2 78.2 45.8 79.2C45 80.9 44.1001 82.6 43.2001 84.2C42.9001 84.8 42.3 85 42 85.1C41.5 85.2 41.1 85.1 40.8 84.9C39.9 84.2 39.1001 83.5 38.2001 82.7L35.4001 86.3H35.3ZM38.7001 79.9L39.1 80.5C39.2 80.7 39.3001 80.8 39.4001 81C39.4001 81.1 39.6 81.3 39.6 81.3C40.3 82 41.0001 82.6 41.7001 83.2C42.6001 81.7 43.4 80.1 44.1 78.5C44.5 77.6 44.7 76.7 45 75.8C45.1 75.3 45.3001 74.9 45.4001 74.4L47.6 67.5L49.1 68.7C49.3 68.9 49.5001 69 49.7001 69.2C50.2001 69.6 50.7001 70.1 51.2001 70.5C52.3001 71.5 53.3001 72.4 54.4001 73.3C56.8001 75.1 58.3 77.3 58.8 80.2C58.9 81 59.2 81.8 59.5 82.6C59.9 82.3 60.3 81.9 60.6 81.6C60.9 81.3 61.3 81 62 81C62.5 81 62.9001 81.3 63.2001 81.5C63.2001 81.2 63.2 80.9 63.1 80.6C62.8 78.9 62.6001 77.2 62.4001 75.5C62.4001 74.8 62.1 74.4 61.6 74C53.6 67 51 58.2 53.8 47.9C54.5 45.3 55.7 42.9 57.6 40.5L58.4001 39.4L59.4001 40.9C59.6001 41.1 59.7 41.3 59.8 41.5L61.3 43.9C62.5 45.8 63.6001 47.8 64.9001 49.7C65.1001 50 65.4 50.3 65.7 50.4C69.8 52.1 74 53.9 78.1 55.5L78.5 55.7C78.5 55.7 78.6 55.7 78.7 55.7C78.7 55.5 78.8001 55.4 78.9001 55.3C78.9001 55.3 79 55.1 79 55C79 55 79.0001 55 78.8001 54.9C76.5001 53.4 74.3 51.8 72.1 50.3C70.4 49.2 68.8 48 67.1 46.9C66.2 46.3 65.7 45.6 65.5 44.6C64.2 39.5 62.9001 34.9 61.7001 30.3C61.7001 30.2 61.5001 29.9 61.4001 29.9C58.8001 28.4 56.5001 27.5 54.2001 27.1C53.9001 27.1 53.5 27.1 53.3 27.1C46.7 30 40.8001 32.6 35.2001 35.1C35.2001 35.1 35 35.3 35 35.4C34.8 37.5 34.6001 39.6 34.4001 41.6L34.2001 44.1C33.9001 47.3 33.6001 50.5 33.4001 53.7C33.4001 53.7 33.4001 53.8 33.4001 53.9C33.6001 53.9 33.9001 54.1 34.2001 54.1L34.4001 53.5C34.7001 52.2 35 51 35.3 49.8L36.1 46.6C36.7 44.2 37.3001 41.8 37.9001 39.4C37.9001 39.2 38.3001 38 39.2001 37.8C40.4001 37.5 41.6 37.3 42.8 37L45.6 36.4L45.3 38.2C45.3 38.4 45.3001 38.6 45.2001 38.8C44.9001 39.7 44.6 40.7 44.3 41.6C43.7 43.5 43.0001 45.5 42.4001 47.5C42.3001 48 42.1 48.4 42 48.9C41.5 50.6 40.9 52.3 40.8 54C40.6 56.7 40.6 59.5 40.5 62.1C40.5 63.8 40.5001 65.5 40.4001 67.3C40.4001 68.2 40.4001 69 40.4001 69.9C40.4001 73.2 40.4001 76.7 38.9001 80L38.7001 79.9Z" fill="currentColor"/>
<path d="M62.8 26.5C60.4 26.5 58.3 25.7 56.8 24.1C55.3 22.6 54.5 20.5 54.5 18.2C54.5 13.5 58 10 62.7 10C67.3 10 71 13.6 71 18.3C71 20.5 70.2 22.5 68.6 24.1C67.1 25.7 65 26.5 62.8 26.5ZM62.6 12C59.1 12 56.4 14.7 56.4 18.2C56.4 19.9 57 21.5 58.1 22.7C59.2 23.8 60.9 24.5 62.7 24.5C64.4 24.5 65.9 23.8 67.1 22.7C68.3 21.5 68.9 20 68.9 18.4C68.9 14.9 66.1 12.1 62.6 12.1V12Z" fill="currentColor"/>
</svg>
