<svg width="100" height="100" viewBox="0 0 100 100" fill="none" xmlns="http://www.w3.org/2000/svg">
<path d="M25.6001 55.6C25.8001 55.6 25.9001 55.8 26.1001 55.8C26.7001 55.8 27.3001 55.6 27.6001 55.1C28.0001 54.4 27.8001 53.5 27.1001 53.1C26.4001 52.7 25.5001 52.9 25.1001 53.6C24.7001 54.3 24.9001 55.2 25.6001 55.6Z" fill="currentColor"/>
<path d="M31.4999 74.1C31.4999 73.9 31.4999 73.7 31.4999 73.6C31.4999 73 31.0999 72.5 30.4999 72.3C29.6999 72.1 28.8999 72.5 28.6999 73.2C28.4999 74 28.8999 74.8 29.5999 75C30.3999 75.2 31.1999 74.8 31.3999 74.1H31.4999Z" fill="currentColor"/>
<path d="M29.7001 78.3C29.7001 78.1 29.7001 77.9 29.7001 77.8C29.7001 77.2 29.3001 76.7 28.7001 76.5C27.9001 76.3 27.1001 76.7 26.9001 77.4C26.7001 78.2 27.1001 79 27.8001 79.2C28.6001 79.4 29.4001 79 29.6001 78.3H29.7001Z" fill="currentColor"/>
<path d="M26.9 39.8C27.1 39.8 27.2 39.6 27.3 39.5C27.7 39.1 27.8 38.4 27.5 37.9C27.2 37.2 26.3 36.9 25.6 37.2C24.9 37.6 24.6 38.4 24.9 39.1C25.3 39.8 26.1 40.1 26.8 39.8H26.9Z" fill="currentColor"/>
<path d="M22.5001 42C22.7001 42 22.8001 41.8 22.9001 41.7C23.3001 41.3 23.4001 40.6 23.1001 40.1C22.8001 39.4 21.9001 39.1 21.2001 39.4C20.5001 39.8 20.2001 40.6 20.5001 41.3C20.9001 42 21.7001 42.3 22.4001 42H22.5001Z" fill="currentColor"/>
<path d="M22.7999 54.2C22.9999 54.2 23.0999 54 23.1999 53.9C23.5999 53.5 23.6999 52.8 23.3999 52.3C23.0999 51.6 22.1999 51.3 21.4999 51.6C20.7999 52 20.4999 52.8 20.7999 53.5C21.1999 54.2 21.9999 54.5 22.6999 54.2H22.7999Z" fill="currentColor"/>
<path d="M38.0001 1.29999C34.9001 1.29999 32.5001 2.99999 31.3001 5.79999C30.4001 5.19999 29.4001 4.89999 28.3001 4.89999C25.8001 4.89999 23.7001 6.49999 22.7001 8.99999C21.9001 8.59999 21.1001 8.39999 20.2001 8.39999C17.5001 8.39999 15.4001 10.4 14.7001 13.4C13.6001 12.8 12.4001 12.7 11.2001 13C9.70011 13.4 8.60011 14.4 7.90011 15.8C7.50011 16.7 7.30011 17.7 7.40011 18.8C6.90011 18.8 6.40011 18.8 6.00011 18.9C4.60011 19.2 3.50011 20.1 2.90011 21.4C2.30011 22.7 2.20011 24.2 2.60011 25.9C3.10011 28 4.20011 29.7 5.70011 30.7C5.00011 33 4.80011 35.4 5.00011 37.9C5.00011 38.4 12.5001 88.2 16.0001 93.2C17.7001 96 19.9001 97.8 22.7001 98.8C24.1001 99.3 25.5001 99.5 26.9001 99.5C31.4001 99.5 35.9001 97.2 38.8001 93.2C39.3001 92.6 39.1001 91.7 38.5001 91.2C37.9001 90.7 37.0001 90.9 36.5001 91.5C33.4001 95.7 28.2001 97.6 23.6001 96.1C22.0001 95.6 20.7001 94.7 19.5001 93.3C23.5001 91.7 26.2001 87.7 26.2001 83.3C26.2001 78.9 21.3001 72.5 15.4001 72.5C9.50011 72.5 14.2001 72.5 13.5001 72.7C12.8001 68.6 12.0001 64 11.2001 59.4C16.1001 58.3 19.7001 53.9 19.7001 48.8C19.7001 43.7 14.8001 38 8.90011 38C3.00011 38 8.30011 38 7.90011 38C7.90011 38 7.90011 37.8 7.90011 37.7C7.40011 33 9.00011 28.6 12.3001 25.4C12.3001 25.4 16.8001 21.9 19.7001 21C29.5001 17.7 38.3001 17.6 39.7001 21C40.0001 21.7 40.2001 22.4 40.5001 23.1C34.9001 23.5 30.4001 28.2 30.4001 33.9C30.4001 39.6 34.0001 43.3 38.8001 44.4C38.4001 45.8 36.7001 51.7 36.7001 51.8C34.3001 52.1 32.1001 53.2 30.4001 55C28.4001 57 27.3001 59.7 27.3001 62.6C27.3001 68.4 31.9001 73.2 37.7001 73.4C38.5001 78.7 39.0001 83.3 38.4001 87.1C38.3001 87.9 38.8001 88.6 39.6001 88.8H39.8001C40.5001 88.8 41.1001 88.3 41.2001 87.6C42.0001 83.1 41.2001 77.8 40.3001 71.7C40.3001 71.7 37.5001 59.3 39.2001 53.5C39.2001 53.5 41.4001 45.7 42.0001 43.7C42.0001 43.7 45.4001 32.5 43.8001 24.4C43.6001 23.2 43.3001 22.1 42.9001 21C44.8001 18.8 46.0001 15.3 46.0001 11.5C46.0001 5.39999 42.9001 1.49999 38.2001 1.49999L38.0001 1.29999ZM28.3001 7.79999C29.1001 7.79999 29.9001 8.09999 30.4001 8.79999C30.3001 9.59999 30.2001 10.4 30.2001 11.3C30.2001 12.8 30.4001 14.2 30.7001 15.6C29.1001 15.7 27.4001 15.9 25.7001 16.3C25.2001 15.3 24.9001 14 24.9001 12.7C24.9001 9.79999 26.2001 7.89999 28.2001 7.89999L28.3001 7.79999ZM12.0001 15.8C12.8001 15.6 13.8001 16 14.6001 16.9C14.7001 17.9 15.0001 18.8 15.4001 19.6C14.0001 20.3 12.7001 21.2 11.5001 22.2C11.1001 21.6 10.7001 20.9 10.5001 20.1C9.90011 17.9 10.5001 16.2 12.0001 15.9V15.8ZM15.4001 75.4C19.8001 75.4 23.4001 79 23.4001 83.4C23.4001 87.8 21.2001 89.9 18.0001 90.9C16.7001 88.3 15.9001 85.2 15.4001 82.5C15.1001 80.9 14.6001 78.5 14.1001 75.5C14.5001 75.5 15.0001 75.4 15.5001 75.4H15.4001ZM8.90011 40.8C13.3001 40.8 16.9001 44.4 16.9001 48.8C16.9001 53.2 14.3001 55.7 10.8001 56.5C9.70011 49.9 8.80011 44.3 8.30011 40.8C8.50011 40.8 8.70011 40.8 8.90011 40.8ZM6.80011 28.1C6.20011 27.5 5.60011 26.5 5.40011 25.4C5.20011 24.4 5.20011 23.5 5.50011 22.8C5.80011 22.3 6.20011 21.9 6.70011 21.8C7.10011 21.8 7.70011 21.7 8.00011 21.8C8.30011 22.7 8.80011 23.5 9.30011 24.2C8.90011 24.7 7.10011 27.2 6.70011 28L6.80011 28.1ZM18.0001 18.5C17.6001 17.6 17.4001 16.6 17.4001 15.5C17.4001 13 18.5001 11.3 20.2001 11.3C21.9001 11.3 21.6001 11.6 22.1001 12.2C22.1001 12.3 22.1001 12.5 22.1001 12.6C22.1001 14.1 22.4001 15.6 22.9001 16.9C21.5001 17.3 18.2001 18.3 18.0001 18.4V18.5ZM33.2001 33.8C33.2001 29.4 36.7001 25.9 41.1001 25.8C41.8001 31 40.7001 36.8 39.5001 41.5C35.9001 40.7 33.2001 37.5 33.2001 33.7V33.8ZM30.1001 62.4C30.1001 58.7 32.6001 55.6 36.1001 54.7C35.6001 59.4 36.4001 64.9 37.2001 70.3C33.2001 69.9 30.1001 66.5 30.1001 62.4ZM41.2001 18.1C39.6001 16.5 36.9001 15.7 33.7001 15.6C33.3001 14.3 33.1001 12.9 33.1001 11.4C33.1001 6.99999 34.9001 4.29999 38.0001 4.29999C41.1001 4.29999 42.9001 6.99999 42.9001 11.4C42.9001 14 42.3001 16.4 41.2001 18.2V18.1Z" fill="currentColor"/>
<path d="M73.3001 55.6C74.0001 55.2 74.2001 54.3 73.8001 53.6C73.4001 52.9 72.5001 52.7 71.8001 53.1C71.1001 53.5 70.9001 54.4 71.3001 55.1C71.6001 55.6 72.2001 55.9 72.8001 55.8C73.0001 55.8 73.1001 55.8 73.3001 55.6Z" fill="currentColor"/>
<path d="M77.2 54.1C77.9 53.7 78.1 52.8 77.7 52.1C77.3 51.4 76.4 51.2 75.7 51.6C75 52 74.8 52.9 75.2 53.6C75.5 54.1 76.1 54.4 76.7 54.3C76.9 54.3 77 54.3 77.2 54.1Z" fill="currentColor"/>
<path d="M70.1999 73.3C69.9999 72.5 69.1999 72.1 68.3999 72.4C67.7999 72.6 67.3999 73.1 67.3999 73.7C67.3999 73.9 67.3999 74.1 67.3999 74.2C67.5999 75 68.3999 75.4 69.1999 75.1C69.9999 74.9 70.3999 74.1 70.0999 73.3H70.1999Z" fill="currentColor"/>
<path d="M72 77.3C71.8 76.5 71 76.1 70.2 76.4C69.6 76.6 69.2 77.1 69.2 77.7C69.2 77.9 69.2 78.1 69.2 78.2C69.4 79 70.2 79.4 71 79.1C71.8 78.9 72.2 78.1 71.9 77.3H72Z" fill="currentColor"/>
<path d="M72.2001 40.1C72.9001 40.5 73.8001 40.1 74.1001 39.4C74.4001 38.7 74.1001 37.8 73.4001 37.5C72.7001 37.1 71.8001 37.5 71.5001 38.2C71.2001 38.7 71.3001 39.4 71.7001 39.8C71.8001 39.9 72.0001 40 72.1001 40.1H72.2001Z" fill="currentColor"/>
<path d="M76.4001 42.2C77.1001 42.6 78.0001 42.2 78.3001 41.5C78.6001 40.8 78.3001 39.9 77.6001 39.6C76.9001 39.2 76.0001 39.6 75.7001 40.3C75.4001 40.8 75.5001 41.5 75.9001 41.9C76.0001 42 76.2001 42.1 76.3001 42.2H76.4001Z" fill="currentColor"/>
<path d="M96.0001 21.5C95.4001 20.2 94.3001 19.3 92.9001 19C92.5001 19 92.0001 18.8 91.5001 18.9C91.5001 17.8 91.4001 16.8 91.0001 15.9C90.4001 14.5 89.2001 13.4 87.7001 13.1C86.6001 12.8 85.3001 13 84.2001 13.5C83.5001 10.5 81.4001 8.50002 78.7001 8.50002C76.0001 8.50002 77.0001 8.70002 76.2001 9.10002C75.2001 6.60002 73.2001 5.00002 70.6001 5.00002C68.0001 5.00002 68.5001 5.30002 67.6001 5.90002C66.3001 3.10002 63.9001 1.40002 60.9001 1.40002C56.2001 1.40002 53.1001 5.30002 53.1001 11.4C53.1001 17.5 54.2001 18.7 56.2001 20.9C55.8001 22 55.5001 23.1 55.3001 24.3C53.6001 33.3 59.3001 51.6 59.8001 53.4C61.6001 60.1 58.7001 71.6 58.7001 71.6C57.5001 79.3 56.2001 87.9 60.2001 93.3C63.2001 97.3 67.6001 99.6 72.1001 99.6C76.6001 99.6 74.9001 99.4 76.3001 98.9C79.1001 98 81.6001 96.3 83.0001 93.3C88.2001 82.7 93.9001 38.5 94.0001 38C94.3001 35.5 94.0001 33.1 93.3001 30.8C94.8001 29.9 95.9001 28.1 96.4001 26C96.8001 24.3 96.7001 22.8 96.1001 21.5H96.0001ZM86.9001 15.8C88.3001 16.2 88.9001 17.9 88.4001 20C88.2001 20.8 87.9001 21.5 87.4001 22.1C86.2001 21.1 84.9001 20.3 83.5001 19.5C83.9001 18.7 84.1001 17.8 84.3001 16.8C85.1001 15.9 86.1001 15.5 86.9001 15.7V15.8ZM78.7001 11.3C80.4001 11.3 81.5001 13 81.5001 15.5C81.5001 18 81.3001 17.6 80.9001 18.5C80.7001 18.5 77.4001 17.3 76.0001 17C76.5001 15.7 76.8001 14.2 76.8001 12.7C76.8001 11.2 76.8001 12.4 76.8001 12.3C77.3001 11.7 77.9001 11.4 78.7001 11.4V11.3ZM70.6001 7.80002C72.6001 7.80002 73.9001 9.70003 73.9001 12.6C73.9001 15.5 73.6001 15.2 73.1001 16.2C71.4001 15.9 69.7001 15.6 68.1001 15.5C68.4001 14.1 68.6001 12.7 68.6001 11.2C68.6001 9.70002 68.6001 9.50002 68.4001 8.70002C69.0001 8.10002 69.7001 7.70002 70.5001 7.70002L70.6001 7.80002ZM60.9001 4.20002C64.0001 4.20002 65.8001 6.90002 65.8001 11.3C65.8001 15.7 65.6001 14.2 65.2001 15.5C62.0001 15.6 59.3001 16.4 57.7001 18C56.6001 16.3 56.0001 13.8 56.0001 11.2C56.0001 6.80002 57.8001 4.10002 60.9001 4.10002V4.20002ZM62.9001 54.7C66.4001 55.6 68.9001 58.7 68.9001 62.4C68.9001 66.1 65.8001 69.9 61.8001 70.3C62.6001 64.9 63.4001 59.4 62.9001 54.7ZM75.3001 96.1C70.7001 97.6 65.6001 95.8 62.4001 91.5C59.5001 87.6 60.1001 81 61.3001 73.2C67.1001 73 71.7001 68.2 71.7001 62.4C71.7001 56.6 70.6001 56.9 68.6001 54.8C66.9001 53 64.7001 51.9 62.3001 51.6C62.3001 51.6 62.3001 51.4 62.3001 51.3C62.0001 50.3 61.7001 49.3 61.4001 48.2C61.0001 46.9 60.6001 45.6 60.2001 44.2C65.0001 43.1 68.6001 38.7 68.6001 33.7C68.6001 28.7 68.3001 30.8 67.7001 29.5C67.4001 28.8 66.5001 28.4 65.8001 28.7C65.1001 29 64.7001 29.9 65.0001 30.6C65.4001 31.6 65.6001 32.6 65.6001 33.7C65.6001 37.5 62.9001 40.7 59.3001 41.5C58.1001 36.8 57.0001 31 57.7001 25.8C59.3001 25.8 60.8001 26.3 62.0001 27.2C62.7001 27.6 63.6001 27.5 64.0001 26.8C64.4001 26.1 64.3001 25.2 63.6001 24.8C62.0001 23.7 60.2001 23.1 58.2001 23C58.4001 22.3 58.7001 21.6 59.0001 20.9C60.5001 17.6 69.3001 17.5 79.0001 20.9C82.7001 22.2 85.7001 24.3 86.4001 25.3C89.7001 28.6 91.4001 32.9 90.8001 37.6C90.8001 37.6 90.8001 37.8 90.8001 37.9C90.5001 37.9 90.2001 37.9 89.8001 37.9C83.8001 37.9 79.0001 42.8 79.0001 48.7C79.0001 54.6 82.6001 58.2 87.5001 59.3C86.7001 64 85.9001 68.6 85.2001 72.6C84.6001 72.5 84.0001 72.4 83.3001 72.4C77.3001 72.4 72.5001 77.3 72.5001 83.2C72.5001 89.1 75.2001 91.6 79.2001 93.2C78.1001 94.5 76.7001 95.5 75.1001 96L75.3001 96.1ZM88.1001 56.5C84.6001 55.6 82.0001 52.5 82.0001 48.8C82.0001 45.1 85.6001 40.8 90.0001 40.8C94.4001 40.8 90.4001 40.8 90.6001 40.8C90.1001 44.3 89.2001 49.8 88.1001 56.5ZM83.6001 82.4C83.1001 85.2 82.3001 88.3 81.0001 90.8C77.8001 89.7 75.6001 86.7 75.6001 83.3C75.6001 79.9 79.2001 75.3 83.6001 75.3C88.0001 75.3 84.5001 75.3 85.0001 75.4C84.5001 78.4 84.0001 80.8 83.7001 82.4H83.6001ZM93.5001 25.4C93.2001 26.5 92.7001 27.5 92.1001 28.1C91.7001 27.3 89.9001 24.7 89.5001 24.3C90.0001 23.6 90.5001 22.8 90.8001 21.9C91.1001 21.8 91.7001 21.8 92.1001 21.9C92.6001 22 93.0001 22.4 93.3001 22.9C93.6001 23.6 93.7001 24.5 93.4001 25.5L93.5001 25.4Z" fill="currentColor"/>
</svg>
