<svg width="32" height="32" viewBox="0 0 32 32" fill="none" xmlns="http://www.w3.org/2000/svg">
<g clip-path="url(#clip0_624_481)">
<path d="M15.1497 26.2028L17.7004 19.4009L9.39865 15.9999L14.5001 10.0482L19.6015 14.2995H25.5532M19.4009 7.4975C20.3029 7.4975 21.1679 7.13917 21.8057 6.50137C22.4435 5.86356 22.8019 4.99851 22.8019 4.09652C22.8019 3.19453 22.4435 2.32948 21.8057 1.69167C21.1679 1.05387 20.3029 0.695557 19.4009 0.695557C18.4989 0.695557 17.6339 1.05387 16.996 1.69167C16.3582 2.32948 15.9999 3.19453 15.9999 4.09652C15.9999 4.99851 16.3582 5.86356 16.996 6.50137C17.6339 7.13917 18.4989 7.4975 19.4009 7.4975ZM26.2028 31.3043C27.5558 31.3043 28.8534 30.7668 29.8101 29.8101C30.7668 28.8534 31.3043 27.5558 31.3043 26.2028C31.3043 24.8498 30.7668 23.5523 29.8101 22.5955C28.8534 21.6389 27.5558 21.1013 26.2028 21.1013C24.8498 21.1013 23.5523 21.6389 22.5955 22.5955C21.6389 23.5523 21.1013 24.8498 21.1013 26.2028C21.1013 27.5558 21.6389 28.8534 22.5955 29.8101C23.5523 30.7668 24.8498 31.3043 26.2028 31.3043ZM5.797 31.3043C7.15003 31.3043 8.44756 30.7668 9.40429 29.8101C10.361 28.8534 10.8985 27.5558 10.8985 26.2028C10.8985 24.8498 10.361 23.5523 9.40429 22.5955C8.44756 21.6389 7.15003 21.1013 5.797 21.1013C4.44402 21.1013 3.14644 21.6389 2.18973 22.5955C1.23303 23.5523 0.695557 24.8498 0.695557 26.2028C0.695557 27.5558 1.23303 28.8534 2.18973 29.8101C3.14644 30.7668 4.44402 31.3043 5.797 31.3043Z" stroke="currentColor" stroke-linecap="round" stroke-linejoin="round"/>
</g>
<defs>
<clipPath id="clip0_624_481">
<rect width="32" height="32" fill="white"/>
</clipPath>
</defs>
</svg>
