<svg width="48" height="48" viewBox="0 0 48 48" fill="none" xmlns="http://www.w3.org/2000/svg">
<path d="M40.5 19.875H16.2525L39.2868 13.7944C39.4305 13.7566 39.5652 13.6906 39.6832 13.6004C39.8013 13.5103 39.9003 13.3976 39.9745 13.2689C40.0488 13.1403 40.0968 12.9982 40.1159 12.8509C40.135 12.7036 40.1247 12.554 40.0856 12.4107L38.5556 6.78565C38.3705 6.12385 37.9323 5.56154 37.3357 5.22045C36.7392 4.87935 36.0323 4.78692 35.3681 4.96315L6.80996 12.5006C6.47757 12.587 6.16575 12.7387 5.89273 12.947C5.61971 13.1553 5.39099 13.416 5.21996 13.7138C5.0497 14.0061 4.93945 14.3295 4.89567 14.665C4.85188 15.0004 4.87544 15.3413 4.96496 15.6675L6.37496 20.8763C6.37496 20.9175 6.37496 20.9588 6.37496 21V37.5C6.37496 38.1962 6.65152 38.8639 7.14381 39.3562C7.63609 39.8485 8.30377 40.125 8.99996 40.125H39C39.6962 40.125 40.3638 39.8485 40.8561 39.3562C41.3484 38.8639 41.625 38.1962 41.625 37.5V21C41.625 20.7017 41.5064 20.4155 41.2955 20.2045C41.0845 19.9936 40.7983 19.875 40.5 19.875ZM23.5781 10.4025L29.7656 13.9782L21.81 16.0782L15.6225 12.5025L23.5781 10.4025ZM35.9531 7.13815C36.0426 7.11334 36.1382 7.12407 36.2199 7.16809C36.3017 7.21212 36.3633 7.28604 36.3918 7.3744L37.6237 11.9081L32.8612 13.1625L26.6737 9.5869L35.9531 7.13815ZM7.16809 14.8388C7.19128 14.7985 7.22231 14.7634 7.25935 14.7353C7.29639 14.7073 7.33868 14.687 7.38371 14.6756L12.5362 13.3125L18.7237 16.89L8.37371 19.6275L7.13621 15.0769C7.12516 15.0371 7.12229 14.9955 7.12777 14.9546C7.13325 14.9136 7.14696 14.8743 7.16809 14.8388ZM39.375 37.5C39.375 37.5995 39.3355 37.6949 39.2651 37.7652C39.1948 37.8355 39.0994 37.875 39 37.875H8.99996C8.9005 37.875 8.80512 37.8355 8.7348 37.7652C8.66447 37.6949 8.62496 37.5995 8.62496 37.5V22.125H39.375V37.5Z" fill="currentColor"/>
</svg>
