<?xml version="1.0" encoding="UTF-8"?>
<svg id="Line" xmlns="http://www.w3.org/2000/svg" viewBox="0 0 100 100" fill="currentColor">
  <path d="M78.9,39.1c-5.1-9.3-13.8-15.4-23.9-16.8h-.2v-2.3c0-2-1.2-3.8-3.1-4.5h-.2v-4.9h.2c4.1-.8,7-4.4,7-8.6,0-.8-.7-1.5-1.5-1.5h-14.4c-.8,0-1.5.8-1.5,1.6,0,4.1,3,7.7,7,8.5h.2v4.9h-.2c-1.9.8-3.1,2.5-3.1,4.5v2.2h-.2c-9.7,1.5-18.2,7.2-23.3,15.6-6.3,10-6.5,22.4-.5,33.1,6,10.7,16.7,17.1,28.8,17,13.1,0,25-7.8,30.3-19.9h0c4.2-9.2,3.7-19.8-1.4-29ZM58.9,26.3c6,1.9,11.1,5.5,14.9,10.5l.3.4h-9v-.2c-1.7-3.8-3.8-7.2-6.5-10.4l-.6-.7.8.3ZM51.5,53.4v-13.2h11.5v.2c1.5,4.1,2.4,8.4,2.5,12.8v.3s-14,0-14,0ZM65.5,56.4v.3c-.1,3.1-.6,6.1-1.3,9.1v.2h-12.7v-9.6h14ZM52.2,25c.2,0,.4,0,.6,0h0s0,0,0,0c3.7,3.3,6.5,7.2,8.6,11.7l.2.4h-10.2v-12.2h.3c.1,0,.3,0,.4,0ZM48.1,7.3c-1.6-.6-2.9-1.8-3.5-3.5v-.3c-.1,0,10.9,0,10.9,0v.3c-.6,1.4-1.7,2.6-3.1,3.2-.8.4-1.6.6-2.4.6s-1.3-.1-1.9-.3ZM26.2,36.8c3.8-5,9-8.6,14.9-10.5l.8-.3-.6.7c-2.7,3.1-4.8,6.6-6.4,10.4v.2h-9.1l.3-.4ZM20.1,53.1c.3-4.4,1.5-8.9,3.7-12.8h0c0-.1,9.9-.1,9.9-.1v.3c-1.5,4.1-2.2,8.3-2.3,12.6v.2h-11.4v-.3ZM22.1,65.8c-1.1-2.9-1.8-6-2-9.1v-.3s11.4,0,11.4,0v.2c.1,3,.5,6.1,1.2,9v.3c0,0-10.5,0-10.5,0v-.2ZM41.1,83.6c-7.4-2.3-13.6-7.3-17.3-14.1l-.2-.4h10.1v.2c.7,2,1.5,4,2.4,5.9,1.5,2.9,3.2,5.5,5.3,8l.6.7-.8-.3ZM48.5,84.8h-.3c-.1,0-.3,0-.4,0-.2,0-.4,0-.6,0h0s0,0,0,0c-4.6-4.2-8.1-9.5-10.1-15.3v-.3c-.1,0,11.5,0,11.5,0v15.8ZM48.5,66h-12.6v-.2c-.8-3-1.3-6-1.4-9.1v-.3s14,0,14,0v9.6ZM48.5,53.4h-14v-.3c.2-4.4,1-8.6,2.5-12.8v-.2h11.5v13.2ZM48.5,37.2h-10.2l.2-.4c2.1-4.5,5-8.4,8.6-11.7h0c0,0,0,0,0,0,.2,0,.4,0,.6,0,.1,0,.3,0,.4,0h.3s0,12.2,0,12.2ZM48.6,21.9h-.3s0-1.9,0-1.9c0-1,.8-1.7,1.7-1.7h0c.5,0,.9.2,1.2.5.5.4.5,1.4.5,2.2,0,.2,0,.5,0,.6v.3s-.3,0-.3,0c-1,0-2,0-2.9,0ZM53,84.7h0c0,0,0,0,0,0-.2,0-.4,0-.6,0-.1,0-.3,0-.4,0h-.3s0-15.8,0-15.8h11.7v.3c-2.1,5.9-5.6,11.2-10.2,15.3ZM76.3,69.4c-3.8,6.8-9.9,11.8-17.3,14.1l-.8.3.6-.7c3.5-4.1,6.1-8.8,7.7-14v-.2h10.1l-.2.4ZM79.9,56.7c-.2,3.1-.9,6.2-2,9.1v.2h-10.7v-.3c.8-2.9,1.2-6,1.3-9v-.2h11.4v.3ZM68.6,53.4v-.2c-.2-4.3-.9-8.5-2.3-12.6v-.3c-.1,0,9.8,0,9.8,0h0c2.2,4,3.4,8.4,3.7,12.9v.3s-11.3,0-11.3,0Z"/>
  <path d="M30.3,10c-1.3-1.9-3.4-3.2-5.7-3.7-.3,0-.7,0-1.1.1-.5.3-.8.8-.8,1.4v10h-.3c-.6-.4-1.3-.5-2-.5s-1.4.2-2.1.5c-1.3.6-2.3,1.6-2.8,3-1.1,2.7.3,5.9,3,7,2.8,1.1,5.9-.3,7-3,.2-.6.4-1.3.4-1.9h0c0-.8,0-5,0-8q0-4.3,0-4.4h.1c0-.1.2,0,.2,0,.6.3,1.1.8,1.5,1.3.3.5.3,1.1,0,1.5-.4.7,0,1.7.6,2.1.2.1.5.2.7.2.7,0,1.2-.4,1.5-1.1.6-1.3.4-3.1-.2-4.1ZM22,24.2c-.4.4-1,.7-1.6.7h0c-1.3,0-2.3-1-2.3-2.3h0c0-.6.2-1.2.7-1.6.4-.4,1-.7,1.6-.7h0c1.3,0,2.3,1,2.3,2.3,0,.6-.3,1.2-.7,1.6Z"/>
  <path d="M93.4,73c-1.3-1.9-3.4-3.2-5.7-3.7-.1,0-.2,0-.3,0-.7,0-1.4.5-1.6,1.3,0,0,0,.2,0,.3v10h-.3c-.6-.4-1.3-.5-2-.5s-1.5.2-2.1.4c-1.3.6-2.3,1.6-2.9,3-1.1,2.8.3,5.9,3,7,2.8,1.1,5.9-.3,7-3,.2-.6.4-1.3.4-2h0c0-.8,0-4.9,0-7.9q0-4.4,0-4.5h.1c0-.1.2,0,.2,0,1.5.9,2,1.8,1.5,2.8-.4.7-.1,1.7.6,2.1.8.3,1.5.2,1.9-.4.9-1.1.9-3.4.1-4.6ZM83.5,87.9h0c-1.3,0-2.3-1-2.3-2.3s1-2.3,2.3-2.3c.6,0,1.2.3,1.6.7.4.4.7,1,.6,1.6,0,1.2-1,2.2-2.2,2.3Z"/>
  <path d="M11.9,54.9c0,.4-.1.8-.4,1.1-.3.3-.7.5-1.1.5h-3.4c-.4,0-.8-.2-1.1-.4s-.5-.7-.5-1.1c0-.8.7-1.5,1.5-1.5h3.4c.8,0,1.5.7,1.5,1.5Z"/>
  <path d="M23.5,82.9c0,.4-.1.8-.4,1.1-.3.2-.6.6-1,1-.8.8-1.9,2-2.5,1.9-.4,0-.8-.2-1-.4-.3-.3-.5-.7-.5-1.1,0-.4.1-.8.4-1.1l2.4-2.4c.6-.6,1.5-.6,2.1,0,.3.3.5.7.5,1.1Z"/>
  <path d="M51.5,94.6v3.4c0,.8-.7,1.5-1.5,1.5s-1.5-.7-1.5-1.5v-3.4c0-.8.7-1.5,1.5-1.5s1.5.7,1.5,1.5Z"/>
  <path d="M94.6,54.9c0,.4-.2.8-.4,1.1-.3.3-.7.5-1.1.5h-3.4c-.8,0-1.5-.7-1.5-1.5,0-.4.2-.8.4-1.1.3-.3.7-.5,1.1-.5h3.4c.8,0,1.5.7,1.5,1.5Z"/>
  <path d="M82,24.5c0,.4-.2.8-.5,1.1l-2.4,2.4c-.3.3-.7.5-1.1.5-.4,0-.8-.2-1-.4-.6-.6-.6-1.6,0-2.2l2.4-2.4c.3-.3.7-.5,1.1-.5s.8.2,1.1.5c.3.3.5.7.5,1.1Z"/>
</svg>