<?xml version="1.0" encoding="UTF-8"?>
<svg id="Layer_1" xmlns="http://www.w3.org/2000/svg" viewBox="0 0 100 100" fill="currentColor">
  <defs>
    <style>
      .cls-1 {
        fill: none;
      }
    </style>
  </defs>
  <rect class="cls-1" x="54.9" y="27.2" width="16.4" height="3.3"/>
  <path class="cls-1" d="M26.5,68.8v-26.6h-12.9v41.5h12.9v-14.8ZM18.2,72h-1.9v-3.2h1.9v3.2ZM18.2,64.4h-1.9v-3.2h1.9v3.2ZM18.2,56.8h-1.9v-3.2h1.9v3.2ZM18.2,49.3h-1.9v-3.2h1.9v3.2ZM23.3,72h-1.9v-3.2h1.9v3.2ZM23.3,64.4h-1.9v-3.2h1.9v3.2ZM23.3,56.8h-1.9v-3.2h1.9v3.2ZM23.3,49.3h-1.9v-3.2h1.9v3.2Z"/>
  <polygon class="cls-1" points="38.5 73.6 38.5 71.6 46 71.6 46 66.6 38.5 66.6 38.5 64.6 46 64.6 46 59.6 38.5 59.6 38.5 57.6 46 57.6 46 52.6 38.5 52.6 38.5 50.6 46 50.6 46 45.6 38.5 45.6 38.5 43.6 46 43.6 46 38.6 38.5 38.6 38.5 36.6 46 36.6 46 30.5 46 26.8 28.4 17.6 28.4 40.3 33.1 40.3 33.1 83.7 46 83.7 46 73.6 38.5 73.6"/>
  <polygon class="cls-1" points="28.4 42.2 28.4 46.1 28.4 49.3 28.4 53.7 28.4 56.8 28.4 61.3 28.4 64.4 28.4 68.8 28.4 72 28.4 83.7 31.1 83.7 31.1 42.2 28.4 42.2"/>
  <polygon class="cls-1" points="68.3 73.6 68.3 72.6 68.3 71.6 76.4 71.6 76.4 66.6 68.3 66.6 68.3 65.6 68.3 64.6 76.4 64.6 76.4 59.6 68.3 59.6 68.3 58.6 68.3 57.6 76.4 57.6 76.4 48.6 64.9 48.6 64.9 83.7 76.4 83.7 76.4 73.6 68.3 73.6"/>
  <polygon class="cls-1" points="37.2 20 42.8 22.9 42.8 20 37.2 20"/>
  <polygon class="cls-1" points="78.3 48.6 78.3 57.6 80.5 57.6 80.5 58.6 80.5 58.6 80.5 58.6 80.5 59.6 78.3 59.6 78.3 64.6 80.5 64.6 80.5 65.6 80.5 65.6 80.5 65.6 80.5 66.6 78.3 66.6 78.3 71.6 80.5 71.6 80.5 72.6 80.5 72.6 80.5 72.6 80.5 73.6 78.3 73.6 78.3 83.7 83.9 83.7 83.9 48.6 78.3 48.6"/>
  <path class="cls-1" d="M76.4,46.7v-14.3h-28.4v51.2h15v-37h13.4ZM54.9,72.6h-1.9v-35h1.9v35ZM59.3,72.6h-1.9v-35h1.9v35Z"/>
  <rect x=".3" y="83.7" width="11.3" height="1.9"/>
  <polygon points="95 83.7 97.2 83.7 97.2 83.7 85.9 83.7 85.9 85.6 97.2 85.6 97.2 84.9 95 84.9 95 83.7"/>
  <polygon points="28.4 17.6 46 26.8 46 30.5 47.9 30.5 47.9 25.6 44.7 23.9 44.7 24.5 42.8 24.5 42.8 22.9 37.2 20 33.2 20 33.2 18.1 33.5 18.1 26.5 14.4 26.5 40.3 28.4 40.3 28.4 17.6"/>
  <rect x="33.1" y="83.7" width="12.9" height="1.9"/>
  <polygon points="28.4 40.3 28.4 42.2 31.1 42.2 31.1 83.7 33.1 83.7 33.1 40.3 28.4 40.3"/>
  <polygon points="13.5 42.2 26.5 42.2 26.5 40.3 11.6 40.3 11.6 83.7 13.5 83.7 13.5 42.2"/>
  <polygon points="13.5 83.7 11.6 83.7 11.6 85.6 26.5 85.6 26.5 83.7 13.5 83.7"/>
  <rect x="26.5" y="40.3" width="1.9" height="1.9"/>
  <polygon points="31.1 83.7 28.4 83.7 26.5 83.7 26.5 85.6 33.1 85.6 33.1 83.7 31.1 83.7"/>
  <rect x="16.2" y="46.1" width="1.9" height="3.2"/>
  <rect x="21.3" y="46.1" width="1.9" height="3.2"/>
  <rect x="16.2" y="53.7" width="1.9" height="3.2"/>
  <rect x="21.3" y="53.7" width="1.9" height="3.2"/>
  <rect x="16.2" y="61.3" width="1.9" height="3.2"/>
  <rect x="21.3" y="61.3" width="1.9" height="3.2"/>
  <rect x="16.2" y="68.8" width="1.9" height="3.2"/>
  <rect x="21.3" y="68.8" width="1.9" height="3.2"/>
  <polygon points="42.8 20 42.8 22.9 44.7 23.9 44.7 18.1 33.5 18.1 37.2 20 42.8 20"/>
  <polygon points="33.2 20 37.2 20 33.5 18.1 33.2 18.1 33.2 20"/>
  <polygon points="42.8 24.5 44.7 24.5 44.7 23.9 42.8 22.9 42.8 24.5"/>
  <rect x="38.5" y="36.6" width="7.5" height="1.9"/>
  <rect x="38.5" y="43.6" width="7.5" height="1.9"/>
  <rect x="38.5" y="50.6" width="7.5" height="1.9"/>
  <rect x="38.5" y="57.6" width="7.5" height="1.9"/>
  <rect x="38.5" y="64.6" width="7.5" height="1.9"/>
  <rect x="38.5" y="71.6" width="7.5" height="1.9"/>
  <polygon points="76.4 32.4 76.4 46.7 78.3 46.7 78.3 30.5 73.3 30.5 73.3 31.5 71.4 31.5 71.4 30.5 54.9 30.5 54.9 31.5 53 31.5 53 30.5 47.9 30.5 47.9 32.4 76.4 32.4"/>
  <rect x="47.9" y="83.7" width="15" height="1.9"/>
  <polygon points="46 36.6 47 36.6 47 38.6 46 38.6 46 43.6 47 43.6 47 45.6 46 45.6 46 50.6 47 50.6 47 52.6 46 52.6 46 57.6 47 57.6 47 59.6 46 59.6 46 64.6 47 64.6 47 66.6 46 66.6 46 71.6 47 71.6 47 73.6 46 73.6 46 83.7 47.9 83.7 47.9 32.4 47.9 30.5 46 30.5 46 36.6"/>
  <rect x="46" y="83.7" width="1.9" height="1.9"/>
  <rect x="46" y="36.6" width="1" height="1.9"/>
  <rect x="46" y="43.6" width="1" height="1.9"/>
  <rect x="46" y="50.6" width="1" height="1.9"/>
  <rect x="46" y="57.6" width="1" height="1.9"/>
  <rect x="46" y="64.6" width="1" height="1.9"/>
  <rect x="46" y="71.6" width="1" height="1.9"/>
  <polygon points="83.9 48.6 83.9 83.7 85.9 83.7 85.9 46.7 78.3 46.7 78.3 48.6 83.9 48.6"/>
  <polygon points="76.4 48.6 76.4 46.7 62.9 46.7 62.9 83.7 64.9 83.7 64.9 48.6 76.4 48.6"/>
  <polygon points="83.9 83.7 78.3 83.7 78.3 85.6 85.9 85.6 85.9 83.7 83.9 83.7"/>
  <rect x="76.4" y="46.7" width="1.9" height="1.9"/>
  <polygon points="76.4 83.7 64.9 83.7 62.9 83.7 62.9 85.6 78.3 85.6 78.3 83.7 76.4 83.7"/>
  <rect x="68.3" y="58.6" width="8.1" height="1"/>
  <rect x="78.3" y="58.6" width="2.2" height="1"/>
  <rect x="78.3" y="57.6" width="2.2" height="1"/>
  <rect x="68.3" y="57.6" width="8.1" height="1"/>
  <rect x="76.4" y="57.6" width="1.9" height="1"/>
  <rect x="76.4" y="58.6" width="1.9" height="1"/>
  <rect x="78.3" y="64.6" width="2.2" height="1"/>
  <rect x="78.3" y="65.6" width="2.2" height="1"/>
  <rect x="68.3" y="64.6" width="8.1" height="1"/>
  <rect x="68.3" y="65.6" width="8.1" height="1"/>
  <rect x="76.4" y="65.6" width="1.9" height="1"/>
  <rect x="76.4" y="64.6" width="1.9" height="1"/>
  <rect x="78.3" y="71.6" width="2.2" height="1"/>
  <rect x="68.3" y="72.6" width="8.1" height="1"/>
  <rect x="68.3" y="71.6" width="8.1" height="1"/>
  <rect x="78.3" y="72.6" width="2.2" height="1"/>
  <rect x="76.4" y="72.6" width="1.9" height="1"/>
  <rect x="76.4" y="71.6" width="1.9" height="1"/>
  <polygon points="53 72.6 54 72.6 54 37.6 54 72.6 54.9 72.6 54.9 37.6 53 37.6 53 72.6"/>
  <polygon points="57.4 72.6 58.4 72.6 58.4 37.6 58.4 72.6 59.3 72.6 59.3 37.6 57.4 37.6 57.4 72.6"/>
  <polygon points="54.9 27.2 71.4 27.2 71.4 30.5 73.3 30.5 73.3 25.2 53 25.2 53 30.5 54.9 30.5 54.9 27.2"/>
  <rect x="53" y="30.5" width="1.9" height="1"/>
  <rect x="71.4" y="30.5" width="1.9" height="1"/>
  <rect x="97.2" y="83.7" width="2.6" height="1.2"/>
  <rect x="95" y="83.7" width="2.1" height="1.2"/>
</svg>