<?xml version="1.0" encoding="UTF-8"?>
<svg id="line" xmlns="http://www.w3.org/2000/svg" viewBox="0 0 100 100" fill="currentColor">
  <path d="M48.4,35.9c-.3-.4-.8-.6-1.3-.6h-26.7c-.5,0-.9.2-1.3.6-.3.4-.5.8-.4,1.3l1.2,11.1c0,.9.8,1.5,1.7,1.5h24.3c.9,0,1.6-.7,1.7-1.5l1.2-11.1c0-.5-.1-1-.4-1.3ZM44.4,46.4h-21.3l-.8-7.7h22.9s-.8,7.7-.8,7.7Z"/>
  <path d="M27.3,66.1h-9c-.9,0-1.7.8-1.7,1.7v11c0,.9.8,1.7,1.7,1.7h9c.9,0,1.7-.8,1.7-1.7v-11c0-.9-.8-1.7-1.7-1.7ZM25.6,77.1h-5.6v-7.6h5.6v7.6Z"/>
  <path d="M45.1,66.1h-9c-.9,0-1.7.8-1.7,1.7v11c0,.9.8,1.7,1.7,1.7h9c.9,0,1.7-.8,1.7-1.7v-11c0-.9-.8-1.7-1.7-1.7ZM43.4,77.1h-5.6v-7.6h5.6v7.6Z"/>
  <path d="M97.7,83h-5.4v-19.4c1.1.1,2.3-.4,2.4-1.7,0,0,0-5.7,0-5.7,0-1.3-1.2-1.8-2.4-1.7,0,0,0-23.8,0-23.8,1.1.1,2.3-.4,2.4-1.7,0,0,0-6.2,0-6.2,0-.9-.8-1.7-1.7-1.7h-26.4c-.4,0-.8-.3-.9-.8-1.5-7.5-8.1-12.9-15.7-12.9s-14.2,5.4-15.7,12.9c0,.5-.5.8-.9.8H7c-.9,0-1.7.8-1.7,1.7v6.2c0,1.3,1.2,1.8,2.4,1.7,0,0,0,23.8,0,23.8-1.1-.1-2.3.4-2.4,1.7,0,0,0,5.7,0,5.7,0,1.3,1.2,1.8,2.4,1.7,0,0,0,19.4,0,19.4H2.3c-.9,0-1.7.8-1.7,1.7v6.2c0,.9.8,1.7,1.7,1.7h95.4c.9,0,1.7-.8,1.7-1.7v-6.2c0-.9-.8-1.7-1.7-1.7h0ZM88.9,83h-3.5v-19.4h3.5v19.4ZM73.8,83h-9.3v-19.4h9.3v19.4ZM75.5,60.2h-12.7c-.9,0-1.7.8-1.7,1.7v21.1h-4.8s0-20.6,0-21c.6-6.4,6-11.6,12.6-11.7,6.7-.1,12.4,5.1,13,11.7,0,.4,0,21,0,21h-4.8v-21.1c0-.9-.8-1.7-1.7-1.7h0ZM8.7,60.2v-2.3h45c-.3.8-.5,1.5-.6,2.3H8.7ZM88.9,41.4h-18.1v-3.1h18.1v3.1ZM91.3,57.9v2.3h-6.2c-.1-.8-.4-1.6-.6-2.3h6.8ZM82.8,54.4c-2.6-4.1-7-6.9-12-7.5v-2.1h18.1v9.6h-6.1ZM88.9,35h-18.1v-4.3h18.1v4.3ZM8.7,24.4h24.7c2,0,3.8-1.5,4.2-3.5,2.9-13.4,21.8-13.4,24.7,0,.4,2,2.2,3.5,4.2,3.5h24.7v2.8c-.8,0-82.5,0-82.5,0v-2.8ZM11.1,30.7h56.3v16.3c-5.1.5-9.4,3.4-12,7.5H11.1s0-23.8,0-23.8ZM11.1,63.6h41.8v19.4H11.1v-19.4ZM96,89.2H4v-2.8s67.7,0,92,0c0,0,0,2.8,0,2.8Z"/>
</svg>