<?xml version="1.0" encoding="UTF-8"?>
<svg id="Layer_1" xmlns="http://www.w3.org/2000/svg" viewBox="0 0 100 100" fill="currentColor">
  <g id="centralization">
    <g>
      <g id="decentralization">
        <g>
          <g>
            <path d="M67.3,40.3c-.3-.5-.3-1,0-1.5l6.5-15.3c.2-.6.8-1,1.4-1,.6,0,1.2.3,1.5.8l1.7,2.9,5.8-3.3c3.2-1.8,7.2-.7,9.1,2.4,1.8,3.2.7,7.2-2.4,9.1l-5.8,3.3,1.7,2.9c.3.5.3,1.2,0,1.7-.3.5-1,.8-1.6.7l-16.5-2c-.5,0-1-.4-1.2-.8h0ZM75.4,27.9l-4.4,10.2,11,1.3-.8-1.4c-.5-.8-.2-1.8.6-2.3l7.2-4.2c1.6-.9,2.1-3,1.2-4.5s-3-2.1-4.5-1.2l-7.2,4.2c-.8.5-1.8.2-2.3-.6l-.8-1.4Z"/>
            <path d="M6.8,75.1c-1.8-3.2-.7-7.2,2.4-9.1l5.8-3.3-1.7-2.9c-.3-.5-.3-1.2,0-1.7.3-.5,1-.8,1.6-.7l16.5,2c1,.1,1.7,1.3,1.3,2.3l-6.5,15.3c-.2.6-.8,1-1.4,1-.6,0-1.2-.3-1.5-.8l-1.7-2.9-5.8,3.3c-3.2,1.8-7.2.7-9.1-2.4h0ZM17.9,61.1l.8,1.4c.5.8.2,1.8-.6,2.3l-7.2,4.2c-1.6.9-2.1,3-1.2,4.5.9,1.6,3,2.1,4.5,1.2l7.2-4.2c.8-.5,1.8-.2,2.3.6l.8,1.4,4.4-10.2-11-1.3Z"/>
          </g>
          <g>
            <path d="M67.3,60.2c.3-.5.7-.8,1.2-.8l16.5-2c.6,0,1.2.2,1.6.7s.4,1.2,0,1.7l-1.7,2.9,5.8,3.3c3.2,1.8,4.3,5.9,2.4,9.1-1.8,3.2-5.9,4.3-9.1,2.4l-5.8-3.3-1.7,2.9c-.3.5-.9.9-1.5.8s-1.2-.4-1.4-1l-6.5-15.3c-.2-.5-.2-1,0-1.5ZM82.1,61.1l-11,1.3,4.4,10.2.8-1.4c.5-.8,1.5-1.1,2.3-.6l7.2,4.2c1.6.9,3.6.4,4.5-1.2.9-1.6.4-3.6-1.2-4.5l-7.2-4.2c-.8-.5-1.1-1.5-.6-2.3l.8-1.4Z"/>
            <path d="M6.8,25.3c1.8-3.2,5.9-4.3,9.1-2.4l5.8,3.3,1.7-2.9c.3-.5.9-.9,1.5-.8s1.2.4,1.4,1l6.5,15.3c.4,1-.3,2.2-1.3,2.3l-16.5,2c-.6,0-1.2-.2-1.6-.7s-.4-1.2,0-1.7l1.7-2.9-5.8-3.3c-3.2-1.8-4.3-5.9-2.4-9.1h0ZM24.6,27.9l-.8,1.4c-.5.8-1.5,1.1-2.3.6l-7.2-4.2c-1.6-.9-3.6-.4-4.5,1.2-.9,1.6-.4,3.6,1.2,4.5l7.2,4.2c.8.5,1.1,1.5.6,2.3l-.8,1.4,11-1.3-4.4-10.2Z"/>
          </g>
          <g>
            <path d="M50,70.1c.5,0,1,.2,1.3.7l10,13.3c.4.5.4,1.2.2,1.7s-.9.9-1.5.9h-3.3v6.6c0,3.7-3,6.6-6.6,6.6s-6.6-3-6.6-6.6v-6.6h-3.3c-.6,0-1.2-.4-1.5-.9s-.2-1.2.2-1.7l10-13.3c.3-.4.8-.7,1.3-.7h0ZM56.6,83.4l-6.6-8.9-6.6,8.9h1.7c.9,0,1.7.7,1.7,1.7v8.3c0,1.8,1.5,3.3,3.3,3.3s3.3-1.5,3.3-3.3v-8.3c0-.9.7-1.7,1.7-1.7h1.7Z"/>
            <path d="M50,.4c3.7,0,6.6,3,6.6,6.6v6.6h3.3c.6,0,1.2.4,1.5.9s.2,1.2-.2,1.7l-10,13.3c-.6.8-2,.8-2.7,0l-10-13.3c-.4-.5-.4-1.2-.2-1.7s.9-.9,1.5-.9h3.3v-6.6c0-3.7,3-6.6,6.6-6.6ZM56.6,17h-1.7c-.9,0-1.7-.7-1.7-1.7V7c0-1.8-1.5-3.3-3.3-3.3s-3.3,1.5-3.3,3.3v8.3c0,.9-.7,1.7-1.7,1.7h-1.7l6.6,8.9,6.6-8.9Z"/>
          </g>
        </g>
      </g>
      <path d="M50,66.8c-9.2,0-16.6-7.5-16.6-16.6s7.5-16.6,16.6-16.6,16.6,7.5,16.6,16.6-7.5,16.6-16.6,16.6ZM50,36.9c-7.3,0-13.3,6-13.3,13.3s6,13.3,13.3,13.3,13.3-6,13.3-13.3-6-13.3-13.3-13.3Z"/>
    </g>
    <g>
      <g>
        <circle cx="22.4" cy="10.7" r="1.7"/>
        <circle cx="77.6" cy="89.7" r="1.7"/>
      </g>
      <g>
        <circle cx="29.6" cy="6.5" r="1.7"/>
        <circle cx="70.4" cy="93.9" r="1.7"/>
      </g>
      <g>
        <circle cx="37.5" cy="3.7" r="1.7"/>
        <circle cx="62.5" cy="96.8" r="1.7"/>
      </g>
      <g>
        <circle cx="62.5" cy="3.7" r="1.7"/>
        <circle cx="37.5" cy="96.8" r="1.7"/>
      </g>
      <g>
        <circle cx="70.4" cy="6.5" r="1.7"/>
        <circle cx="29.6" cy="93.9" r="1.7"/>
      </g>
      <g>
        <circle cx="77.6" cy="10.7" r="1.7"/>
        <circle cx="22.4" cy="89.7" r="1.7"/>
      </g>
      <g>
        <circle cx="84.1" cy="16.1" r="1.7"/>
        <circle cx="15.9" cy="84.3" r="1.7"/>
      </g>
      <g>
        <circle cx="96.5" cy="37.7" r="1.7"/>
        <circle cx="3.5" cy="62.7" r="1.7"/>
      </g>
      <g>
        <circle cx="98" cy="46" r="1.7"/>
        <circle cx="2" cy="54.4" r="1.7"/>
      </g>
      <g>
        <circle cx="98" cy="54.4" r="1.7"/>
        <circle cx="2" cy="46" r="1.7"/>
      </g>
      <g>
        <circle cx="96.5" cy="62.7" r="1.7"/>
        <circle cx="3.5" cy="37.7" r="1.7"/>
      </g>
      <g>
        <circle cx="84.1" cy="84.3" r="1.7"/>
        <circle cx="15.9" cy="16.1" r="1.7"/>
      </g>
    </g>
  </g>
</svg>