<?xml version="1.0" encoding="UTF-8"?>
<svg id="Layer_1" xmlns="http://www.w3.org/2000/svg" viewBox="0 0 100 100" fill="currentColor">
  <defs>
    <style>
      .cls-1 {
        fill: none;
        stroke: currentColor;
        stroke-linecap: round;
        stroke-linejoin: round;
        stroke-width: 2.3px;
      }
    </style>
  </defs>
  <g>
    <g>
      <polygon points="99.3 50.3 79.5 34.5 60.4 50.3 59.9 49.7 79.5 33.5 99.8 49.7 99.3 50.3"/>
      <path d="M99.3,50.7l-19.8-15.8-19.2,15.8-.9-1.1.2-.2,19.8-16.3,20.7,16.5-.9,1.1ZM79.5,34.2l19.7,15.7v-.2c.1,0-19.7-15.8-19.7-15.8l-19.2,15.8v.2c.1,0,19.2-15.7,19.2-15.7Z"/>
    </g>
    <g>
      <polygon points="94.7 72 65 72 65 45.7 65.7 45.7 65.7 71.2 93.9 71.2 93.9 45.7 94.7 45.7 94.7 72"/>
      <path d="M95,72.3h-30.3v-26.8h1.4v25.5h27.6v-25.5h1.4v26.8ZM65.2,71.7h29.2v-25.7h-.2v25.5h-28.8v-25.5h-.2v25.7Z"/>
    </g>
    <g>
      <rect x="61.8" y="71.2" width="36" height=".8"/>
      <path d="M98.1,72.3h-36.6v-1.4h36.6v1.4ZM62.1,71.7h35.4v-.2h-35.4v.2Z"/>
    </g>
    <g>
      <path d="M79.8,46.7c-1.5,0-2.7-1.2-2.7-2.7s1.2-2.7,2.7-2.7,2.7,1.2,2.7,2.7-1.2,2.7-2.7,2.7ZM79.8,42c-1.1,0-2,.9-2,2s.9,2,2,2,2-.9,2-2-.9-2-2-2Z"/>
      <path d="M79.8,47c-1.7,0-3-1.4-3-3s1.4-3,3-3,3,1.4,3,3-1.4,3-3,3ZM79.8,41.5c-1.4,0-2.4,1.1-2.4,2.5s1.1,2.4,2.4,2.4,2.4-1.1,2.4-2.4-1.1-2.5-2.4-2.5ZM79.8,46.2c-1.2,0-2.2-1-2.2-2.2s1-2.2,2.2-2.2,2.2,1,2.2,2.2-1,2.2-2.2,2.2ZM79.8,42.3c-.9,0-1.7.7-1.7,1.7s.7,1.7,1.7,1.7,1.7-.7,1.7-1.7-.7-1.7-1.7-1.7Z"/>
    </g>
    <g>
      <g>
        <g>
          <path d="M91.7,72h-11.1v-4.3h11.1v4.3ZM81.4,71.2h9.5v-2.7h-9.5v2.7Z"/>
          <path d="M92,72.3h-11.7v-4.9h11.7v4.9ZM80.9,71.7h10.5v-3.7h-10.5v3.7ZM91.2,71.5h-10.1v-3.3h10.1v3.3ZM81.7,70.9h8.9v-2.1h-8.9v2.1Z"/>
        </g>
        <g>
          <path d="M90.7,68.5h-9v-15.5h9v15.5ZM82.4,67.7h7.5v-13.9h-7.5v13.9Z"/>
          <path d="M90.9,68.8h-9.6v-16.1h9.6v16.1ZM81.9,68.2h8.5v-14.9h-8.5v14.9ZM90.2,68h-8.1v-14.5h8.1v14.5ZM82.7,67.4h6.9v-13.3h-6.9v13.3Z"/>
        </g>
        <g>
          <rect x="88.1" y="60.2" width=".8" height="2.2"/>
          <path d="M89.2,62.6h-1.4v-2.8h1.4v2.8ZM88.4,62h.2v-1.6h-.2v1.6Z"/>
        </g>
      </g>
      <g>
        <g>
          <path d="M78.4,63.6h-10.4v-10.7h10.4v10.7ZM68.8,62.9h8.8v-9.1h-8.8v9.1Z"/>
          <path d="M78.6,63.9h-10.9v-11.2h10.9v11.2ZM68.3,63.4h9.8v-10.1h-9.8v10.1ZM77.9,63.2h-9.4v-9.7h9.4v9.7ZM69.1,62.6h8.2v-8.5h-8.2v8.5Z"/>
        </g>
        <g>
          <rect x="68.4" y="57" width="9.6" height=".8"/>
          <path d="M78.3,58.1h-10.2v-1.4h10.2v1.4ZM68.7,57.5h9v-.2h-9v.2Z"/>
        </g>
        <g>
          <rect x="72.8" y="57.4" width=".8" height="5.9"/>
          <path d="M73.9,63.5h-1.4v-6.5h1.4v6.5ZM73.1,63h.2v-5.3h-.2v5.3Z"/>
        </g>
      </g>
    </g>
  </g>
  <g>
    <g>
      <g>
        <rect x=".4" y="71.1" width="40.5" height="1.1"/>
        <path d="M41.1,72.6H0v-1.7h41v1.7ZM.7,72h39.9v-.5H.7v.5Z"/>
      </g>
      <g>
        <g>
          <path d="M25.4,72.3h-9.6V14.6h9.6v57.7ZM17,71.1h7.3V15.7h-7.3v55.4Z"/>
          <path d="M25.7,72.6h-10.2V14.3h10.2v58.3ZM16.1,72h9V14.9h-9v57.1ZM24.6,71.4h-7.9V15.4h7.9v56ZM17.2,70.8h6.7V16h-6.7v54.8Z"/>
        </g>
        <g>
          <g>
            <polygon points="33.9 71.7 32.8 71.7 32.8 30.1 24.4 21.8 25.2 21 33.9 29.7 33.9 71.7"/>
            <path d="M34.2,72h-1.7V30.3l-8.4-8.4,1.2-1.2,8.9,8.9v42.4ZM33.1,71.4h.5V29.8l-8.4-8.4-.4.4,8.2,8.2v41.4Z"/>
          </g>
          <g>
            <polygon points="8.5 71.7 7.3 71.7 7.3 44.7 16 36 16.8 36.8 8.5 45.2 8.5 71.7"/>
            <path d="M8.8,72h-1.7v-27.4h0c0,0,8.9-8.9,8.9-8.9l1.2,1.2-8.4,8.4v26.7ZM7.6,71.4h.5v-26.4h0c0,0,8.1-8.2,8.1-8.2l-.4-.4-8.4,8.4v26.6Z"/>
          </g>
        </g>
        <g>
          <polygon points="28.4 71.7 27.2 71.7 27.2 47.8 24.8 47.8 24.8 46.6 28.4 46.6 28.4 71.7"/>
          <path d="M28.7,72h-1.7v-23.9h-2.4v-1.7h4.1v25.7ZM27.5,71.4h.5v-24.5h-2.9v.5h2.4v23.9Z"/>
        </g>
        <g>
          <polygon points="11.9 71.7 10.8 71.7 10.8 50.6 16.4 50.6 16.4 51.8 11.9 51.8 11.9 71.7"/>
          <path d="M12.2,72h-1.7v-21.7h6.2v1.7h-4.5v20ZM11.1,71.4h.5v-20h4.5v-.5h-5v20.5Z"/>
        </g>
        <g>
          <rect x="13.3" y="60.2" width="3.1" height="1.1"/>
          <path d="M16.7,61.6h-3.7v-1.7h3.7v1.7ZM13.5,61.1h2.6v-.5h-2.6v.5Z"/>
        </g>
        <g>
          <rect x="13.3" y="66.4" width="3.1" height="1.1"/>
          <path d="M16.7,67.9h-3.7v-1.7h3.7v1.7ZM13.5,67.3h2.6v-.5h-2.6v.5Z"/>
        </g>
      </g>
    </g>
    <g>
      <rect x="18.6" y="33.5" width="3.6" height="1.1"/>
      <path d="M22.4,35h-4.2v-1.7h4.2v1.7ZM18.9,34.4h3v-.5h-3v.5Z"/>
    </g>
    <g>
      <rect x="18.6" y="38.2" width="3.6" height="1.1"/>
      <path d="M22.4,39.6h-4.2v-1.7h4.2v1.7ZM18.9,39.1h3v-.5h-3v.5Z"/>
    </g>
    <g>
      <rect x="18.6" y="42.9" width="3.6" height="1.1"/>
      <path d="M22.4,44.3h-4.2v-1.7h4.2v1.7ZM18.9,43.7h3v-.5h-3v.5Z"/>
    </g>
  </g>
  <line class="cls-1" x1="50.9" y1="11.3" x2="50.9" y2="84.2"/>
</svg>