<svg width="200" height="200" viewBox="0 0 200 200" fill="none" xmlns="http://www.w3.org/2000/svg">
<g clip-path="url(#clip0_2464_1586)">
<path d="M111.563 150C102.813 150 91.5625 165.313 91.5625 175H75.3125C70 175 65.3125 180 65.3125 185.938C65.3125 192.188 69.6875 196.563 75.3125 196.563H145.625C186.25 196.875 197.188 160.313 193.75 134.688C193.75 134.688 159.063 171.563 149.688 171.563C150 133.438 121.875 97.5 103.437 80.9375C93.125 71.5625 90.3125 46.875 90.3125 46.875V33.75C90.3125 20.3125 89.375 5.93751 86.5625 4.06251C81.5625 0.62501 72.8125 18.4375 65.625 18.4375C29.0625 18.4375 34.375 43.4375 26.5625 43.4375H10C3.125 43.4375 3.125 49.0625 3.125 52.8125C3.75 63.125 9.0625 71.5625 34.375 71.5625C40.625 71.5625 50.3125 80.3125 50.3125 96.25V177.813H50H46.875C43.4375 177.813 40.625 180.625 40.625 184.063V190.313C40.625 193.75 43.4375 196.563 46.875 196.563H96.0938" stroke="currentColor" stroke-width="8" stroke-linejoin="round"/>
<path d="M68.4375 137.5V165" stroke="currentColor" stroke-width="8" stroke-linejoin="round"/>
<path d="M6.25 62.5H25" stroke="currentColor" stroke-width="8" stroke-linejoin="round"/>
</g>
<defs>
<clipPath id="clip0_2464_1586">
<rect width="200" height="200" fill="white"/>
</clipPath>
</defs>
</svg>
