<svg width="200" height="200" viewBox="0 0 200 200" fill="none" xmlns="http://www.w3.org/2000/svg">
<g clip-path="url(#clip0_2464_1650)">
<path d="M197.521 62.7516H138.628V60.6855H143.374C144.476 60.6855 145.445 59.9591 145.754 58.902C146.063 57.845 145.638 56.7107 144.71 56.1173L101.607 28.5479C100.792 28.0268 99.75 28.0268 98.9347 28.5479L55.831 56.1173C54.9033 56.7107 54.4781 57.845 54.7872 58.902C55.0963 59.9591 56.0657 60.6855 57.1669 60.6855H61.9174V62.7516H2.47934C1.11033 62.7516 0 63.862 0 65.231V169.363C0 170.732 1.11033 171.843 2.47934 171.843H197.521C198.89 171.843 200 170.732 200 169.363V65.231C200 63.862 198.89 62.7516 197.521 62.7516ZM142.149 166.884H57.8512V162.752H142.149V166.884ZM128.719 144.157H123.76V73.0822H128.719V144.157ZM109.298 157.793V146.636C109.298 145.481 108.507 144.514 107.438 144.238V133.826H118.802V144.238C117.733 144.514 116.942 145.481 116.942 146.636V157.793H109.298ZM81.1983 83.4128H92.562V93.7434H81.1983V83.4128ZM81.1983 98.702H92.562V105.314H81.1983V98.702ZM81.1983 110.272H92.562V111.925H81.1983V110.272ZM81.1983 116.884H92.562V128.867H81.1983V116.884ZM81.1983 144.238V133.826H92.562V144.238C91.4934 144.514 90.7025 145.481 90.7025 146.636V157.793H83.0579V146.636C83.0579 145.481 82.2669 144.514 81.1983 144.238ZM95.6612 149.115H104.339V157.793H95.6612V149.115ZM107.438 83.4128H118.802V93.7434H107.438V83.4128ZM107.438 98.702H118.802V105.314H107.438V98.702ZM107.438 110.272H118.802V111.925H107.438V110.272ZM107.438 116.884H118.802V128.867H107.438V116.884ZM118.802 78.4541H107.438V73.0822H118.802V78.4541ZM102.479 144.157H97.5207V73.0822H102.479V144.157ZM92.562 78.4541H81.1983V73.0822H92.562V78.4541ZM76.2397 144.157H71.281V73.0822H76.2397V144.157ZM66.3223 144.238C65.2537 144.514 64.4628 145.481 64.4628 146.636V149.115H4.95868V79.2806H66.3223V144.238ZM69.4215 149.115H78.0992V157.793H69.4215V149.115ZM121.901 157.793V149.115H130.579V157.793H121.901ZM133.678 144.238V79.2806H195.041V149.115H135.537V146.636C135.537 145.481 134.746 144.514 133.678 144.238ZM195.041 67.7103V74.3219H133.678V73.0822H136.149C137.518 73.0822 138.628 71.9719 138.628 70.6029V67.7103H195.041ZM100.271 33.5801L134.897 55.7272H65.6446L100.271 33.5801ZM133.669 60.6855V68.1235H128.719H123.76H118.802H107.438H102.479H97.5207H92.562H81.1983H76.2397H71.281H66.876V60.6855H133.669ZM61.9174 67.7103V70.6029C61.9174 71.9719 63.0277 73.0822 64.3967 73.0822H66.3223V74.3219H4.95868V67.7103H61.9174ZM4.95868 154.074H64.4628V157.793H55.3719C54.0029 157.793 52.8926 158.903 52.8926 160.272V166.884H4.95868V154.074ZM147.107 166.884V160.272C147.107 158.903 145.997 157.793 144.628 157.793H135.537V154.074H195.041V166.884H147.107Z" fill="currentColor"/>
<path d="M18.2459 106.966H31.8823C33.2513 106.966 34.3616 105.856 34.3616 104.487V84.6524C34.3616 83.2834 33.2513 82.1731 31.8823 82.1731H18.2459C16.8769 82.1731 15.7666 83.2834 15.7666 84.6524V104.487C15.7666 105.857 16.8769 106.966 18.2459 106.966ZM20.7253 102.008V93.7433H29.403V102.008H20.7253ZM29.403 87.1318V88.7847H20.7253V87.1318H29.403Z" fill="currentColor"/>
<path d="M43.0392 106.966H56.6755C58.0445 106.966 59.1549 105.856 59.1549 104.487V84.6524C59.1549 83.2834 58.0445 82.1731 56.6755 82.1731H43.0392C41.6701 82.1731 40.5598 83.2834 40.5598 84.6524V104.487C40.5598 105.857 41.6701 106.966 43.0392 106.966ZM45.5185 102.008V93.7433H54.1962V102.008H45.5185ZM54.1962 87.1318V88.7847H45.5185V87.1318H54.1962Z" fill="currentColor"/>
<path d="M18.2459 144.57H31.8823C33.2513 144.57 34.3616 143.459 34.3616 142.09V122.256C34.3616 120.887 33.2513 119.776 31.8823 119.776H18.2459C16.8769 119.776 15.7666 120.887 15.7666 122.256V142.09C15.7666 143.46 16.8769 144.57 18.2459 144.57ZM20.7253 139.611V131.347H29.403V139.611H20.7253ZM29.403 124.735V126.388H20.7253V124.735H29.403Z" fill="currentColor"/>
<path d="M43.0392 144.57H56.6755C58.0445 144.57 59.1549 143.459 59.1549 142.09V122.256C59.1549 120.887 58.0445 119.776 56.6755 119.776H43.0392C41.6701 119.776 40.5598 120.887 40.5598 122.256V142.09C40.5598 143.46 41.6701 144.57 43.0392 144.57ZM45.5185 139.611V131.347H54.1962V139.611H45.5185ZM54.1962 124.735V126.388H45.5185V124.735H54.1962Z" fill="currentColor"/>
<path d="M143.866 106.966H157.502C158.871 106.966 159.982 105.856 159.982 104.487V84.6524C159.982 83.2834 158.871 82.1731 157.502 82.1731H143.866C142.497 82.1731 141.386 83.2834 141.386 84.6524V104.487C141.386 105.857 142.497 106.966 143.866 106.966ZM146.345 102.008V93.7433H155.023V102.008H146.345ZM155.023 87.1318V88.7847H146.345V87.1318H155.023Z" fill="currentColor"/>
<path d="M168.659 106.966H182.295C183.664 106.966 184.775 105.856 184.775 104.487V84.6524C184.775 83.2834 183.664 82.1731 182.295 82.1731H168.659C167.29 82.1731 166.18 83.2834 166.18 84.6524V104.487C166.18 105.857 167.29 106.966 168.659 106.966ZM171.138 102.008V93.7433H179.816V102.008H171.138ZM179.816 87.1318V88.7847H171.138V87.1318H179.816Z" fill="currentColor"/>
<path d="M143.866 144.57H157.502C158.871 144.57 159.982 143.459 159.982 142.09V122.256C159.982 120.887 158.871 119.776 157.502 119.776H143.866C142.497 119.776 141.386 120.887 141.386 122.256V142.09C141.386 143.46 142.497 144.57 143.866 144.57ZM146.345 139.611V131.347H155.023V139.611H146.345ZM155.023 124.735V126.388H146.345V124.735H155.023Z" fill="currentColor"/>
<path d="M168.659 144.57H182.295C183.664 144.57 184.775 143.459 184.775 142.09V122.256C184.775 120.887 183.664 119.776 182.295 119.776H168.659C167.29 119.776 166.18 120.887 166.18 122.256V142.09C166.18 143.46 167.29 144.57 168.659 144.57ZM171.138 139.611V131.347H179.816V139.611H171.138ZM179.816 124.735V126.388H171.138V124.735H179.816Z" fill="currentColor"/>
</g>
<defs>
<clipPath id="clip0_2464_1650">
<rect width="200" height="200" fill="white"/>
</clipPath>
</defs>
</svg>
