<svg width="200" height="200" viewBox="0 0 200 200" fill="none" xmlns="http://www.w3.org/2000/svg">
<g clip-path="url(#clip0_2464_1678)">
<path d="M72.13 0C63.5034 0 55.3905 3.35937 49.2835 9.46053C46.0601 12.684 43.5991 16.4648 41.9683 20.6976C41.2374 22.5949 42.1827 24.725 44.0796 25.4554C45.9765 26.1863 48.107 25.241 48.8374 23.3441C50.0964 20.0765 51.9976 17.157 54.4874 14.6668C59.203 9.95584 65.4686 7.36131 72.13 7.36131C85.8873 7.36131 97.0803 18.5515 97.0803 32.307C97.0803 34.3398 98.7283 35.9878 100.761 35.9878C102.794 35.9878 104.442 34.3398 104.442 32.307C104.442 14.4929 89.9467 0 72.13 0Z" fill="currentColor"/>
<path d="M192.55 192.638C184.295 192.638 180.378 189.984 175.844 186.91C171.006 183.631 165.523 179.914 155.007 179.914C144.491 179.914 139.007 183.631 134.17 186.91C131.921 188.434 129.798 189.874 127.223 190.921C125.34 191.687 124.434 193.834 125.2 195.717C125.966 197.6 128.114 198.506 129.996 197.74C133.287 196.402 135.836 194.674 138.3 193.004C142.835 189.93 146.751 187.275 155.007 187.275C163.262 187.275 167.179 189.93 171.714 193.004C176.551 196.282 182.034 200 192.55 200C194.583 200 196.231 198.352 196.231 196.319C196.231 194.286 194.583 192.638 192.55 192.638Z" fill="currentColor"/>
<path d="M117.463 192.638C109.209 192.638 105.293 189.984 100.76 186.91C95.9223 183.631 90.4395 179.914 79.9251 179.914C69.411 179.914 63.9282 183.631 59.0911 186.91C54.5576 189.984 50.6423 192.638 42.3881 192.638C34.1373 192.638 30.224 189.984 25.6924 186.911C20.8568 183.631 15.376 179.914 4.86469 179.914C2.83188 179.914 1.18384 181.562 1.18384 183.595C1.18384 185.628 2.83188 187.276 4.86469 187.276C13.1155 187.276 17.0287 189.93 21.5611 193.004C26.3967 196.283 31.8775 200 42.3888 200C52.9029 200 58.3857 196.283 63.2228 193.004C67.7564 189.93 71.6716 187.276 79.9259 187.276C88.1805 187.276 92.0958 189.93 96.6301 193.004C101.468 196.283 106.95 200 117.465 200C119.498 200 121.146 198.352 121.146 196.32C121.145 194.287 119.496 192.638 117.463 192.638Z" fill="currentColor"/>
<path d="M192.55 138.854C184.295 138.854 180.378 136.199 175.844 133.126C171.006 129.847 165.523 126.129 155.007 126.129C152.519 126.129 150.255 126.33 148.088 126.741C146.091 127.12 144.779 129.046 145.158 131.043C145.537 133.04 147.462 134.351 149.461 133.973C151.171 133.648 152.985 133.49 155.007 133.49C163.263 133.49 167.179 136.145 171.714 139.218C176.551 142.498 182.035 146.215 192.551 146.215C194.584 146.215 196.232 144.567 196.232 142.534C196.232 140.501 194.583 138.854 192.55 138.854Z" fill="currentColor"/>
<path d="M32.6357 137.137C30.0627 136.09 27.9396 134.65 25.6924 133.126C20.8568 129.846 15.376 126.129 4.86469 126.129C2.83188 126.129 1.18384 127.777 1.18384 129.81C1.18384 131.843 2.83149 133.491 4.86391 133.491C13.1147 133.491 17.0279 136.146 21.5596 139.219C24.0232 140.89 26.5701 142.617 29.8603 143.956C30.3146 144.141 30.7846 144.228 31.2467 144.228C32.6994 144.228 34.076 143.362 34.6568 141.934C35.424 140.05 34.5185 137.903 32.6357 137.137Z" fill="currentColor"/>
<path d="M148.862 14.6672C153.577 9.95623 159.842 7.3617 166.505 7.3617C180.262 7.3617 191.455 18.5519 191.455 32.3074C191.455 34.3402 193.103 35.9882 195.136 35.9882C197.169 35.9882 198.817 34.3402 198.817 32.3074C198.816 14.4929 184.321 0 166.504 0C157.878 0 149.764 3.35937 143.658 9.46053C137.554 15.564 134.193 23.6773 134.193 32.307V61.155H47.1799V34.7605C47.1799 32.7277 45.5318 31.0796 43.499 31.0796C41.4662 31.0796 39.8182 32.7277 39.8182 34.7605V165.647C33.2748 165.15 29.7241 162.753 25.692 160.018C20.8561 156.739 15.3757 153.022 4.86396 153.022C2.83115 153.022 1.18311 154.67 1.18311 156.702C1.18311 158.735 2.83115 160.383 4.86396 160.383C13.1147 160.383 17.028 163.038 21.5596 166.111C26.3956 169.391 31.876 173.108 42.3873 173.108C52.9014 173.108 58.3842 169.391 63.2213 166.111C67.7548 163.038 71.6705 160.383 79.9244 160.383C88.179 160.383 92.0942 163.038 96.6286 166.111C101.466 169.391 106.949 173.108 117.463 173.108C127.979 173.108 133.463 169.391 138.3 166.111C142.835 163.038 146.751 160.383 155.007 160.383C163.263 160.383 167.179 163.038 171.714 166.111C176.551 169.391 182.034 173.108 192.551 173.108C194.584 173.108 196.232 171.46 196.232 169.427C196.232 167.394 194.584 165.746 192.551 165.746C184.295 165.746 180.379 163.091 175.844 160.018C171.007 156.739 165.523 153.022 155.007 153.022C149.257 153.022 145.013 154.134 141.555 155.678V32.307C141.554 25.6437 144.15 19.3789 148.862 14.6672ZM134.192 160.003C134.185 160.008 134.177 160.013 134.17 160.018C129.635 163.092 125.718 165.746 117.463 165.746C109.208 165.746 105.293 163.091 100.759 160.018C95.922 156.739 90.4392 153.022 79.9247 153.022C69.4107 153.022 63.9279 156.739 59.0908 160.018C55.5385 162.426 52.3572 164.571 47.1795 165.39V144.136H134.192V160.003ZM134.193 98.9646H127.282C125.248 98.9646 123.601 100.613 123.601 102.646C123.601 104.678 125.248 106.326 127.282 106.326H134.193V136.774H47.1799V106.326H115.012C117.045 106.326 118.693 104.678 118.693 102.646C118.693 100.613 117.045 98.9646 115.012 98.9646H47.1795V68.5167H134.193V98.9646Z" fill="currentColor"/>
</g>
<defs>
<clipPath id="clip0_2464_1678">
<rect width="200" height="200" fill="white"/>
</clipPath>
</defs>
</svg>
