<svg width="200" height="200" viewBox="0 0 200 200" fill="none" xmlns="http://www.w3.org/2000/svg">
<g clip-path="url(#clip0_2471_1849)">
<path d="M53.3333 190H99.9999V126.667H53.3333V190ZM59.9999 133.333H93.3333V183.333H59.9999V133.333Z" fill="currentColor"/>
<path d="M136.667 110C137.52 110 138.373 109.673 139.023 109.023L152.357 95.69C153.66 94.3867 153.66 92.28 152.357 90.9766C151.053 89.6733 148.947 89.6733 147.643 90.9766L134.31 104.31C133.007 105.613 133.007 107.72 134.31 109.023C134.96 109.673 135.813 110 136.667 110Z" fill="currentColor"/>
<path d="M136.667 126.667C137.52 126.667 138.373 126.34 139.023 125.69L145.69 119.023C146.993 117.72 146.993 115.613 145.69 114.31C144.387 113.007 142.28 113.007 140.977 114.31L134.31 120.977C133.007 122.28 133.007 124.387 134.31 125.69C134.96 126.34 135.813 126.667 136.667 126.667Z" fill="currentColor"/>
<path d="M147.633 107.633C147.03 108.263 146.667 109.097 146.667 110C146.667 110.867 147.03 111.733 147.633 112.367C148.263 112.967 149.133 113.333 150 113.333C150.867 113.333 151.733 112.967 152.367 112.367C152.967 111.733 153.333 110.867 153.333 110C153.333 109.133 152.967 108.263 152.367 107.633C151.1 106.4 148.867 106.4 147.633 107.633Z" fill="currentColor"/>
<path d="M154.31 105.69C154.96 106.34 155.813 106.667 156.667 106.667C157.52 106.667 158.373 106.34 159.023 105.69L169.023 95.69C170.327 94.3867 170.327 92.28 169.023 90.9766C167.72 89.6733 165.613 89.6733 164.31 90.9766L154.31 100.977C153.007 102.28 153.007 104.387 154.31 105.69Z" fill="currentColor"/>
<path d="M164.31 107.643L134.31 137.643C133.007 138.947 133.007 141.053 134.31 142.357C134.96 143.007 135.813 143.333 136.667 143.333C137.52 143.333 138.373 143.007 139.023 142.357L169.023 112.357C170.327 111.053 170.327 108.947 169.023 107.643C167.72 106.34 165.613 106.34 164.31 107.643Z" fill="currentColor"/>
<path d="M170.967 105.7C171.597 106.3 172.467 106.667 173.333 106.667C174.233 106.667 175.067 106.3 175.7 105.7C176.3 105.067 176.667 104.2 176.667 103.333C176.667 102.43 176.3 101.597 175.7 100.967C174.467 99.7333 172.233 99.7333 170.967 100.967C170.363 101.597 170 102.43 170 103.333C170 104.2 170.363 105.067 170.967 105.7Z" fill="currentColor"/>
<path d="M199.697 39.03C199.69 38.6667 199.65 38.3033 199.55 37.95L199.063 38.09C199.057 38.08 199.053 38.07 199.043 38.0633L199.54 37.9167C194.083 17.87 177.073 3.15333 156.667 0.466667V0H103.333H102.73H97.2667H96.6667V0.00333333H49.9933C26.8967 0.0433333 6.53 15.63 0.473333 37.8733C0.366667 38.2433 0.33 38.62 0.323333 39C0.12 39.47 0 39.9867 0 40.5333V46.6667V173.333V200H50H103.333H200V173.333V46.6667V40.5333C200 40 199.893 39.4933 199.697 39.03ZM153.1 6.8C171.003 8.07 186.347 19.9333 192.18 36.6667H150H149.32C146.193 23.7733 138.017 13.1033 127.117 6.66667H149.92L153.1 6.8ZM143.333 46.6667C143.333 49.4133 142.777 52.0333 141.77 54.4167L141.537 54.9033C141.483 55.0233 141.423 55.14 141.367 55.26C140.547 56.98 139.493 58.55 138.257 59.9367C138.247 59.9467 138.237 59.96 138.227 59.97C135.173 63.38 131.003 65.6667 126.46 66.3967C126.287 66.4233 126.113 66.4533 125.937 66.4767C125.077 66.5933 124.21 66.6667 123.333 66.6667C122.457 66.6667 121.58 66.59 120.71 66.4733C120.527 66.45 120.343 66.42 120.16 66.39C119.327 66.2533 118.493 66.08 117.677 65.84C117.643 65.83 117.607 65.8233 117.57 65.8133L117.283 65.7267C109.203 63.1567 103.333 55.5867 103.333 46.6667V43.3333H143.333V46.6667ZM175.983 73.2C176.047 73.1933 176.107 73.1867 176.17 73.18C176.46 73.15 176.74 73.09 177.027 73.05C177.543 72.9767 178.063 72.9133 178.573 72.8133C178.69 72.79 178.807 72.76 178.92 72.7367C179.243 72.6667 179.557 72.5733 179.873 72.4933C180.277 72.39 180.683 72.3 181.08 72.18C181.247 72.13 181.407 72.0733 181.57 72.02C181.893 71.9133 182.207 71.79 182.527 71.6733C182.793 71.5767 183.067 71.5 183.33 71.39V163.333H120V73.1233C120.063 73.13 120.127 73.1233 120.19 73.1333C121.223 73.2533 122.267 73.3333 123.333 73.3333C123.503 73.3333 123.667 73.31 123.833 73.3067C123.943 73.3033 124.05 73.2933 124.16 73.29C125 73.2633 125.83 73.2067 126.65 73.1033C126.963 73.0633 127.273 73.01 127.583 72.96C128.407 72.8267 129.213 72.6567 130.01 72.45C130.287 72.38 130.563 72.3167 130.837 72.2367C131.86 71.9367 132.86 71.5867 133.83 71.17C133.98 71.1067 134.117 71.0267 134.263 70.96C135.087 70.5867 135.887 70.1733 136.667 69.72C136.937 69.5633 137.197 69.4033 137.46 69.2367C138.167 68.7933 138.847 68.32 139.507 67.8133C139.69 67.6733 139.883 67.5433 140.063 67.3967C140.873 66.7433 141.64 66.0433 142.37 65.3C142.533 65.1333 142.683 64.9533 142.843 64.78C143.407 64.1733 143.94 63.5433 144.447 62.89C144.637 62.6433 144.823 62.3967 145.003 62.1433C145.477 61.4833 145.917 60.8 146.33 60.0967C146.35 60.06 146.38 60.03 146.4 59.9933H146.933C146.96 60.0367 146.99 60.0733 147.017 60.1167C147.427 60.8133 147.863 61.4867 148.33 62.14C148.497 62.3733 148.667 62.6033 148.843 62.8333C148.883 62.8867 148.923 62.9367 148.967 62.99C149.45 63.61 149.957 64.2033 150.49 64.7767C150.65 64.95 150.8 65.13 150.963 65.2967C151.69 66.04 152.46 66.74 153.27 67.3933C153.443 67.5333 153.627 67.6567 153.803 67.7933C153.813 67.8 153.823 67.8067 153.837 67.8167C154.493 68.32 155.173 68.7933 155.877 69.2333C156.14 69.3967 156.4 69.56 156.67 69.7167C157.447 70.1667 158.247 70.5833 159.073 70.9567C159.22 71.0233 159.36 71.1033 159.507 71.1667C160.473 71.5833 161.477 71.9333 162.5 72.2333C162.68 72.2867 162.863 72.3367 163.043 72.3867C163.137 72.4133 163.237 72.4233 163.33 72.4467C164.123 72.6533 164.93 72.8233 165.753 72.9533C165.983 72.99 166.207 73.0467 166.44 73.08C166.54 73.0933 166.643 73.0933 166.747 73.1067C167.813 73.2433 168.893 73.3333 170 73.3333H173.333C174.223 73.3333 175.107 73.2867 175.983 73.2ZM93.3333 67.4633V113.333H60V67.4633C60.0067 67.47 60.0133 67.4733 60.02 67.48C60.1133 67.5533 60.21 67.6167 60.3033 67.69C60.5467 67.88 60.8033 68.06 61.0533 68.24C61.5367 68.59 62.03 68.9233 62.5367 69.24C62.79 69.4 63.04 69.5567 63.3 69.7067C63.4567 69.7967 63.6067 69.8967 63.7633 69.9867C64.1567 70.2033 64.5633 70.3933 64.9667 70.5933C65.2633 70.74 65.5567 70.8933 65.86 71.0267C65.9633 71.0733 66.0633 71.1267 66.17 71.1733C66.4933 71.3133 66.83 71.4233 67.16 71.55C67.4967 71.68 67.8333 71.8067 68.1767 71.9233C68.5033 72.0333 68.83 72.1433 69.1633 72.24C69.34 72.2933 69.52 72.3433 69.7 72.3933C69.99 72.4733 70.2867 72.5367 70.58 72.6067C70.97 72.7 71.36 72.7867 71.7567 72.8633C72.0533 72.92 72.3467 72.9667 72.6467 73.0133C72.88 73.05 73.1167 73.08 73.3533 73.11C73.6267 73.1433 73.8967 73.1867 74.1733 73.2133C74.9933 73.2867 75.8267 73.3333 76.6667 73.3333C77.5067 73.3333 78.34 73.2867 79.1667 73.2067C79.4433 73.18 79.7133 73.1367 79.9867 73.1033C80.2233 73.0733 80.4567 73.0433 80.6933 73.0067C80.99 72.96 81.2867 72.9133 81.5833 72.8567C81.98 72.7833 82.37 72.6933 82.76 72.6C83.0533 72.53 83.35 72.4667 83.64 72.3867C83.82 72.3367 83.9967 72.2867 84.1767 72.2333C84.51 72.1367 84.8367 72.0267 85.1633 71.9167C85.5067 71.8 85.8433 71.6733 86.18 71.5433C86.51 71.4167 86.8467 71.3067 87.17 71.1667C87.2733 71.12 87.3767 71.0667 87.48 71.02C87.7833 70.8867 88.0767 70.73 88.3733 70.5833C88.7767 70.3867 89.1833 70.1967 89.5733 69.98C89.73 69.8933 89.8833 69.79 90.0367 69.7C90.2933 69.55 90.5467 69.3933 90.7967 69.2333C91.3033 68.9167 91.7967 68.5833 92.28 68.2333C92.53 68.05 92.7867 67.8733 93.03 67.6833C93.1233 67.61 93.2233 67.5467 93.3133 67.4733C93.32 67.4733 93.3267 67.47 93.3333 67.4633ZM56.6667 43.3333H96.6667V46.6667C96.6667 50.7933 95.41 54.63 93.26 57.82L93.2167 57.88C93.11 58.0367 92.9867 58.1833 92.8733 58.3367C92.51 58.84 92.1267 59.3267 91.72 59.79C91.5867 59.9433 91.4467 60.0933 91.31 60.24C90.9167 60.6633 90.5067 61.07 90.08 61.4567C89.95 61.5733 89.8267 61.6933 89.6933 61.8067C88.5367 62.8 87.28 63.6633 85.94 64.3667C85.8833 64.3967 85.8267 64.42 85.77 64.45C85.1633 64.76 84.5433 65.0367 83.91 65.2867C83.76 65.3467 83.6067 65.4 83.4533 65.4533C82.9 65.6533 82.34 65.8267 81.7733 65.98C81.5867 66.03 81.3967 66.08 81.2067 66.1267C80.6467 66.2567 80.0767 66.36 79.5033 66.44C79.3167 66.4667 79.1333 66.5033 78.9433 66.5267C78.1933 66.6133 77.4333 66.6667 76.6667 66.6667C75.9 66.6667 75.14 66.6133 74.39 66.5267C74.2 66.5067 74.0167 66.4667 73.83 66.44C73.2567 66.3567 72.6867 66.2567 72.1267 66.1267C71.9367 66.0833 71.75 66.03 71.56 65.98C70.99 65.83 70.43 65.6533 69.88 65.4533C69.7267 65.3967 69.5733 65.3433 69.4233 65.2867C68.79 65.04 68.17 64.7633 67.5633 64.45C67.5067 64.42 67.4467 64.3967 67.3933 64.3667C66.0533 63.6633 64.7967 62.8 63.64 61.8067C63.5067 61.6933 63.3833 61.5733 63.2533 61.4567C62.8267 61.07 62.4167 60.6633 62.0233 60.24C61.8833 60.09 61.7467 59.9433 61.6133 59.79C61.2067 59.3267 60.8233 58.84 60.46 58.3367C60.35 58.1833 60.2267 58.0367 60.1167 57.88L60.0733 57.82C57.9233 54.63 56.6667 50.7933 56.6667 46.6667V43.3333ZM103.333 6.67C121.703 6.93333 137.53 19.2533 142.473 36.6667H103.333V6.67ZM96.6667 36.6667H57.5267C62.47 19.2533 78.2967 6.93333 96.6667 6.67V36.6667ZM50.0767 6.66667H72.88C61.98 13.1033 53.8033 23.7733 50.6767 36.6667H50H7.82667C14.04 18.8867 30.96 6.70333 50.0767 6.66667ZM6.66667 43.3333H49.34H50V46.6667C50 55.5867 44.13 63.1567 36.05 65.7267L35.7633 65.8133C35.73 65.8233 35.6933 65.83 35.6567 65.84C34.84 66.08 34.01 66.2567 33.1733 66.39C32.99 66.42 32.81 66.45 32.6233 66.4733C31.7533 66.59 30.8767 66.6667 30 66.6667H26.6667C25.75 66.6667 24.8467 66.5833 23.9533 66.46C23.7367 66.43 23.5233 66.3967 23.31 66.36C22.4233 66.21 21.5433 66.02 20.69 65.75C20.6767 65.7467 20.6667 65.74 20.6567 65.7367C19.7933 65.4633 18.9567 65.1167 18.1367 64.7267C17.9833 64.6533 17.83 64.5833 17.68 64.5067C16.86 64.09 16.06 63.6267 15.2933 63.0933C10.0867 59.48 6.66667 53.47 6.66667 46.6667V43.3333ZM16.6667 71.3867C16.93 71.4933 17.2033 71.57 17.47 71.67C17.79 71.7867 18.1033 71.91 18.4267 72.0167C18.59 72.07 18.75 72.1267 18.9167 72.1767C19.3167 72.2967 19.72 72.3867 20.1233 72.49C20.44 72.57 20.7533 72.6633 21.0767 72.7333C21.1933 72.76 21.3067 72.7867 21.4233 72.81C21.9333 72.9133 22.4533 72.9767 22.97 73.0467C23.2567 73.0867 23.5367 73.1467 23.8267 73.1767C23.89 73.1833 23.95 73.1933 24.0133 73.1967C24.8933 73.2867 25.7767 73.3333 26.6667 73.3333H30C31.0533 73.3333 32.09 73.2567 33.1133 73.1367C33.1867 73.1267 33.26 73.1333 33.3333 73.1233V163.333H16.6667V71.3867ZM6.66667 180H16.6667V193.333H6.66667V180ZM30 180V193.333H23.3333V180H30ZM36.6667 193.333V180H43.3333V193.333H36.6667ZM183.333 180V193.333H176.667V180H183.333ZM170 193.333H163.333V180H170V193.333ZM156.667 193.333H150V180H156.667V193.333ZM143.333 193.333H136.667V180H143.333V193.333ZM130 193.333H123.333V180H130V193.333ZM116.667 193.333H110V180H116.667V193.333ZM193.333 193.333H190V180H193.333V193.333ZM193.333 64.2867V173.333H103.333V193.333H50V173.333H6.66667V64.2867C6.83333 64.4767 7.02667 64.6467 7.2 64.83C7.54 65.1933 7.88333 65.5533 8.24333 65.9C8.53 66.1767 8.82667 66.44 9.12667 66.7033C9.41333 66.9533 9.7 67.21 10 67.45V170H40V71.37C40.1667 71.3033 40.3333 71.2433 40.4967 71.1733C40.6467 71.11 40.7833 71.03 40.93 70.9633C41.7533 70.59 42.5533 70.1767 43.3333 69.7233C43.6033 69.5667 43.8633 69.4067 44.1267 69.24C44.8333 68.7967 45.5133 68.3233 46.1733 67.8167C46.3567 67.6767 46.55 67.5467 46.73 67.4C47.54 66.7467 48.3067 66.0467 49.0367 65.3033C49.2 65.1367 49.35 64.9567 49.51 64.7833C50.0733 64.1767 50.6067 63.5467 51.1133 62.8933C51.3033 62.6467 51.49 62.4 51.67 62.1467C52.1933 61.4167 52.68 60.6633 53.1267 59.8833C53.19 59.7733 53.27 59.6733 53.3333 59.5633V120H100V59.5667C100.063 59.6767 100.143 59.7767 100.207 59.8867C100.653 60.6667 101.143 61.42 101.663 62.15C101.843 62.4033 102.03 62.65 102.22 62.8967C102.727 63.5533 103.26 64.1833 103.823 64.7867C103.983 64.96 104.133 65.14 104.297 65.3067C105.023 66.05 105.793 66.75 106.603 67.4033C106.783 67.55 106.977 67.68 107.16 67.82C107.82 68.3267 108.5 68.8 109.207 69.2433C109.47 69.4067 109.73 69.57 110 69.7267C110.777 70.1767 111.577 70.5933 112.403 70.9667C112.55 71.0333 112.69 71.1133 112.837 71.1767C113 71.2467 113.17 71.3067 113.333 71.3733V170H190V67.45C190.3 67.21 190.583 66.9567 190.873 66.7033C191.173 66.44 191.47 66.1767 191.757 65.9C192.117 65.5533 192.46 65.1967 192.8 64.83C192.973 64.6467 193.167 64.4767 193.333 64.2867ZM184.71 63.0967C183.943 63.63 183.143 64.0933 182.323 64.51C182.173 64.5867 182.02 64.6567 181.867 64.73C181.047 65.12 180.21 65.4667 179.347 65.74C179.333 65.7433 179.323 65.75 179.313 65.7533C178.457 66.0233 177.58 66.2133 176.693 66.3633C176.48 66.4 176.263 66.4333 176.05 66.4633C175.153 66.5833 174.25 66.6667 173.333 66.6667H170C169.123 66.6667 168.257 66.5933 167.397 66.4767C167.22 66.4533 167.047 66.4233 166.873 66.3967C162.33 65.6633 158.16 63.3767 155.107 59.97C155.097 59.96 155.087 59.9467 155.077 59.9367C153.84 58.55 152.787 56.98 151.967 55.26C151.91 55.14 151.85 55.0233 151.797 54.9033L151.563 54.4167C150.557 52.0333 150 49.4133 150 46.6667V43.3333H150.66H193.333V46.6667C193.333 53.47 189.913 59.48 184.71 63.0967Z" fill="currentColor"/>
<path d="M49.9999 76.6666H43.3333V166.667H49.9999V76.6666Z" fill="currentColor"/>
<path d="M110 76.6666H103.333V166.667H110V76.6666Z" fill="currentColor"/>
</g>
<defs>
<clipPath id="clip0_2471_1849">
<rect width="200" height="200" fill="white"/>
</clipPath>
</defs>
</svg>
