<svg width="200" height="200" viewBox="0 0 200 200" fill="none" xmlns="http://www.w3.org/2000/svg">
<path d="M200 58.4281V53.4594C200 49.7566 196.988 46.7449 193.286 46.7449H130.619C128.257 46.7449 121.815 40.9094 113.748 24.834C113.747 24.8324 113.747 24.8305 113.746 24.8289C112.091 21.5297 110.525 18.1012 109.092 14.6395C108.164 12.3965 105.993 10.9473 103.559 10.9473H6.71445C3.01211 10.9473 0 13.9594 0 17.6617V22.6305C0 26.1328 2.69648 29.0133 6.12109 29.3145V46.7754C2.69648 47.077 0 49.9574 0 53.4598V58.4285C0 61.9309 2.69648 64.8113 6.12109 65.1129V92.1336C2.69648 92.4348 0 95.3152 0 98.8172V103.786C0 107.288 2.69648 110.169 6.12109 110.47V137.491C2.69648 137.792 0 140.673 0 144.175V149.143C0 152.646 2.69648 155.526 6.12109 155.828V184.12C6.12109 186.84 8.33359 189.053 11.0535 189.053H188.945C191.665 189.053 193.878 186.84 193.878 184.12V155.828C197.303 155.526 199.999 152.646 199.999 149.143V144.175C199.999 140.673 197.303 137.792 193.878 137.491V110.47C197.303 110.168 199.999 107.288 199.999 103.786V98.8168C199.999 95.3145 197.303 92.434 193.878 92.1324V65.1117C197.304 64.8106 200 61.9301 200 58.4281ZM148.007 52.9801H153.826V58.9078H148.007V52.9801ZM167.889 67.4508C160.135 67.4508 153.826 73.7594 153.826 81.5137V92.1031H148.007V81.5137C148.007 73.7594 141.698 67.4508 133.945 67.4508C126.19 67.4508 119.882 73.7594 119.882 81.5137V92.1031H114.062V81.5137C114.062 73.7594 107.754 67.4508 100 67.4508C92.2461 67.4508 85.9375 73.7594 85.9375 81.5137V92.1031H80.1184V81.5137C80.1184 73.7594 73.8098 67.4508 66.0555 67.4508C58.3016 67.4508 51.993 73.7594 51.993 81.5137V92.1031H46.1738V81.5137C46.1738 73.7594 39.8652 67.4508 32.1113 67.4508C24.357 67.4508 18.0484 73.7594 18.0484 81.5137V92.1031H12.3562V65.1426H187.644V92.1031H181.952V81.5137C181.952 73.759 175.643 67.4508 167.889 67.4508ZM175.717 81.5133V92.1027H160.061V81.5133C160.061 77.1969 163.572 73.6852 167.888 73.6852C172.205 73.6848 175.717 77.1965 175.717 81.5133ZM167.889 112.808C160.135 112.808 153.826 119.116 153.826 126.871V137.461H148.007V126.871C148.007 119.116 141.698 112.808 133.945 112.808C126.19 112.808 119.882 119.116 119.882 126.871V137.461H114.062V126.871C114.062 119.116 107.754 112.808 100 112.808C92.2461 112.808 85.9375 119.116 85.9375 126.871V137.461H80.1184V126.871C80.1184 119.116 73.8098 112.808 66.0555 112.808C58.3016 112.808 51.993 119.116 51.993 126.871V137.461H46.1738V126.871C46.1738 119.116 39.8652 112.808 32.1113 112.808C24.357 112.808 18.0484 119.116 18.0484 126.871V137.461H12.3562V110.5H187.644V137.461H181.952V126.871C181.952 119.116 175.643 112.808 167.889 112.808ZM175.717 126.871V137.461H160.061V126.871C160.061 122.554 163.572 119.043 167.888 119.043C172.205 119.043 175.717 122.554 175.717 126.871ZM153.826 143.695V149.623H148.007V143.695H153.826ZM126.116 137.461V126.871C126.116 122.554 129.628 119.043 133.945 119.043C138.261 119.043 141.772 122.554 141.772 126.871V137.461H126.116ZM141.772 143.695V149.623H126.116V143.695H141.772ZM119.882 143.695V149.623H114.062V143.695H119.882ZM92.1723 137.461V126.871C92.1723 122.554 95.6836 119.043 100 119.043C104.316 119.043 107.828 122.554 107.828 126.871V137.461H92.1723ZM107.828 143.695V149.623H92.1719V143.695H107.828ZM85.9375 143.695V149.623H80.1184V143.695H85.9375ZM58.2277 137.461V126.871C58.2277 122.554 61.7391 119.043 66.0555 119.043C70.3719 119.043 73.8836 122.554 73.8836 126.871V137.461H58.2277ZM73.884 143.695V149.623H58.2277V143.695H73.884ZM51.993 143.695V149.623H46.1738V143.695H51.993ZM39.9395 126.871V137.461H24.2832V126.871C24.2832 122.554 27.7949 119.043 32.1113 119.043C36.4277 119.043 39.9395 122.554 39.9395 126.871ZM39.9395 92.1031H24.2832V81.5137C24.2832 77.1973 27.7949 73.6855 32.1113 73.6855C36.4277 73.6855 39.9391 77.1973 39.9391 81.5137L39.9395 92.1031ZM46.1738 104.266V98.3375H51.993V104.266H46.1738ZM73.884 98.3375V104.266H58.2277V98.3375H73.884ZM58.2277 92.1031V81.5137C58.2277 77.1973 61.7391 73.6855 66.0555 73.6855C70.3719 73.6855 73.8836 77.1973 73.8836 81.5137V92.1031H58.2277ZM80.1184 104.266V98.3375H85.9375V104.266H80.1184ZM107.828 98.3375V104.266H92.1719V98.3375H107.828ZM92.1723 92.1031V81.5137C92.1723 77.1973 95.6836 73.6855 100 73.6855C104.316 73.6855 107.828 77.1973 107.828 81.5137V92.1031H92.1723ZM114.062 104.266V98.3375H119.882V104.266H114.062ZM141.772 98.3375V104.266H126.116V98.3375H141.772ZM126.116 92.1031V81.5137C126.116 77.1973 129.628 73.6855 133.945 73.6855C138.261 73.6855 141.772 77.1973 141.772 81.5137V92.1031H126.116ZM148.007 104.266V98.3375H153.826V104.266H148.007ZM46.1738 58.9074V52.9797H51.993V58.9074H46.1738ZM58.2277 58.9074V52.9797H73.884V58.9074H58.2277ZM80.1184 58.9074V52.9797H85.9375V58.9074H80.1184ZM92.1723 58.9074V52.9797H107.828V58.9074H92.1723ZM114.062 58.9074V52.9797H119.882V58.9074H114.062ZM126.116 52.9801H141.773V58.9078H126.116V52.9801ZM109.05 29.3449C113.328 37.632 117.089 43.1457 120.332 46.7453H12.3562V29.3449H109.05ZM6.23477 17.6617C6.23477 17.3969 6.44961 17.182 6.71445 17.182H103.397C104.224 19.1746 105.093 21.1559 105.998 23.1102H6.71445C6.44961 23.1102 6.23477 22.8949 6.23477 22.6305V17.6617ZM6.23477 53.4598C6.23477 53.1949 6.44961 52.9801 6.71445 52.9801H39.9395V58.9078H6.71445C6.44961 58.9078 6.23477 58.6926 6.23477 58.4281V53.4598ZM6.23477 98.8172C6.23477 98.5523 6.44961 98.3375 6.71445 98.3375H39.9395V104.266H6.71445C6.44961 104.266 6.23477 104.05 6.23477 103.786V98.8172ZM6.71445 149.623C6.44961 149.623 6.23477 149.408 6.23477 149.143V144.175C6.23477 143.91 6.44961 143.695 6.71445 143.695H39.9395V149.623H6.71445V149.623ZM39.9395 182.818H24.2832V172.229C24.2832 167.912 27.7949 164.401 32.1113 164.401C36.4277 164.401 39.9391 167.912 39.9391 172.229L39.9395 182.818ZM73.884 182.818H58.2277V172.229C58.2277 167.912 61.7391 164.401 66.0555 164.401C70.3719 164.401 73.8836 167.912 73.8836 172.229V182.818H73.884ZM107.828 182.818H92.1719V172.229C92.1719 167.912 95.6832 164.401 99.9996 164.401C104.316 164.401 107.827 167.912 107.827 172.229V182.818H107.828ZM141.772 182.818H126.116V172.229C126.116 167.912 129.628 164.401 133.944 164.401C138.261 164.401 141.772 167.912 141.772 172.229V182.818H141.772ZM175.717 182.818H160.061V172.229C160.061 167.912 163.572 164.401 167.888 164.401C172.205 164.401 175.716 167.912 175.716 172.229L175.717 182.818ZM187.644 182.818H181.952V172.229C181.952 164.474 175.643 158.166 167.889 158.166C160.135 158.166 153.826 164.474 153.826 172.229V182.818H148.007V172.229C148.007 164.474 141.698 158.166 133.945 158.166C126.19 158.166 119.882 164.474 119.882 172.229V182.818H114.062V172.229C114.062 164.474 107.754 158.166 100 158.166C92.2461 158.166 85.9375 164.474 85.9375 172.229V182.818H80.1184V172.229C80.1184 164.474 73.8098 158.166 66.0555 158.166C58.3016 158.166 51.993 164.474 51.993 172.229V182.818H46.1738V172.229C46.1738 164.474 39.8652 158.166 32.1113 158.166C24.357 158.166 18.0484 164.474 18.0484 172.229V182.818H12.3562V155.858H187.644V182.818ZM193.286 149.623H160.061V143.695H193.285C193.55 143.695 193.765 143.91 193.765 144.174V149.143H193.765C193.765 149.408 193.55 149.623 193.286 149.623ZM193.286 104.266H160.061V98.3375H193.285C193.55 98.3375 193.765 98.5527 193.765 98.8172V103.786H193.765C193.765 104.05 193.55 104.266 193.286 104.266ZM193.286 58.9078H160.061V52.9797H193.285C193.55 52.9797 193.765 53.1949 193.765 53.4594V58.4281H193.765C193.765 58.6926 193.55 58.9078 193.286 58.9078Z" fill="currentColor"/>
<path d="M32.1113 45.0879C33.8332 45.0879 35.2285 43.6922 35.2285 41.9708V33.6575C35.2285 31.936 33.8332 30.5403 32.1113 30.5403C30.3895 30.5403 28.9941 31.936 28.9941 33.6575V41.9704C28.9941 43.6918 30.3895 45.0879 32.1113 45.0879Z" fill="currentColor"/>
<path d="M100 45.0879C101.722 45.0879 103.117 43.6922 103.117 41.9708V33.6575C103.117 31.936 101.722 30.5403 100 30.5403C98.2781 30.5403 96.8828 31.936 96.8828 33.6575V41.9704C96.8828 43.6918 98.2781 45.0879 100 45.0879Z" fill="currentColor"/>
<path d="M66.0554 45.0879C67.7773 45.0879 69.1726 43.6922 69.1726 41.9708V33.6575C69.1726 31.936 67.7773 30.5403 66.0554 30.5403C64.3335 30.5403 62.9382 31.936 62.9382 33.6575V41.9704C62.9382 43.6918 64.3335 45.0879 66.0554 45.0879Z" fill="currentColor"/>
</svg>
