<svg width="200" height="200" viewBox="0 0 200 200" fill="none" xmlns="http://www.w3.org/2000/svg">
<g clip-path="url(#clip0_2485_2104)">
<path d="M122.462 194.204C94.59 194.204 69.0076 184.549 54.0016 168.348C44.6447 158.245 40.1653 146.524 41.086 134.429C42.0068 122.335 48.8503 113.55 57.6847 103.521C63.8065 96.6031 65.1504 91.9495 64.4536 89.9089C63.5328 87.4204 58.5806 85.4046 55.8432 84.9318C36.6066 84.7825 19.9333 78.6109 11.0492 68.3331C8.63124 65.6979 6.82975 62.5578 5.77524 59.1403C4.72074 55.7228 4.43961 52.1136 4.95222 48.574C7.7394 30.6315 31.4553 17.0938 60.0986 17.0938C89.3142 17.0938 111.562 31.0795 111.861 49.5943C111.984 56.2543 109.522 62.7029 104.992 67.5866C99.592 73.5093 98.7458 77.5408 99.1938 78.4616C99.1938 78.4616 101.21 82.7668 118.804 83.2645C161.258 84.4839 195.252 105.811 199.607 133.956C200.511 140.126 200.031 146.42 198.202 152.381C196.373 158.342 193.24 163.822 189.031 168.423C175.194 184.524 150.284 194.204 122.462 194.204ZM60.2479 31.9256C38.1495 31.9256 21.2274 41.8798 19.8587 50.764C19.6869 52.1752 19.8373 53.6071 20.2985 54.9519C20.7597 56.2967 21.5197 57.5194 22.5214 58.5282C28.3695 65.4464 41.7331 69.9258 56.3906 69.9258H57.5603C59.2525 70.1996 74.1092 72.8623 78.3895 84.8572C81.3757 93.1689 78.1406 102.775 68.7588 113.401C61.2931 121.812 56.316 127.909 55.8432 135.549C55.7006 139.735 56.4251 143.906 57.971 147.798C59.517 151.691 61.8511 155.222 64.8268 158.17C77.0705 171.359 98.5716 179.248 122.337 179.248C146.103 179.248 166.559 171.509 177.658 158.568C180.414 155.584 182.483 152.032 183.722 148.163C184.96 144.294 185.336 140.201 184.825 136.171C181.615 115.466 153.046 99.1166 118.331 98.1211C99.9155 97.5986 89.14 93.144 85.4072 84.2101C82.1472 76.5454 85.1335 67.0889 93.7936 57.6075C94.8023 56.5709 95.5947 55.344 96.1245 53.9982C96.6543 52.6524 96.9109 51.2145 96.8794 49.7685C96.8545 41.3074 81.6992 31.9256 60.1732 31.9256H60.2479ZM161.134 34.1902L149.164 5.79578L138.588 34.1902H146.153V43.1241H153.594V34.1902H161.134ZM189.354 75.2513L172.88 36.2059L158.347 75.2513H168.724V87.5448H178.952V75.2513H189.354ZM31.0074 130.099L14.558 91.0785L0 130.099H10.4022V142.417H20.6052V130.099H31.0074ZM43.8732 179.845L30.5097 148.166L18.7139 179.845H27.1501V189.799H35.437V179.845H43.8732ZM138.588 64.5257L127.663 38.5949L117.982 64.5257H124.901V72.713H131.669V64.5257H138.588ZM128.559 171.384C127.742 171.384 126.933 171.224 126.178 170.911C125.423 170.598 124.737 170.14 124.159 169.562C123.581 168.985 123.123 168.299 122.81 167.544C122.497 166.789 122.336 165.98 122.336 165.163C122.336 164.346 122.497 163.537 122.81 162.782C123.123 162.027 123.581 161.341 124.159 160.763C124.737 160.186 125.423 159.727 126.178 159.415C126.933 159.102 127.742 158.941 128.559 158.941C147.422 158.941 163.971 149.784 163.971 139.356C163.874 136.606 162.838 133.971 161.034 131.891C160.005 130.601 159.53 128.954 159.714 127.314C159.899 125.673 160.727 124.173 162.017 123.144C163.308 122.114 164.954 121.639 166.595 121.823C168.235 122.008 169.735 122.836 170.765 124.127C174.342 128.432 176.335 133.834 176.414 139.431C176.389 157.299 155.385 171.384 128.559 171.384Z" fill="currentColor"/>
</g>
<defs>
<clipPath id="clip0_2485_2104">
<rect width="200" height="200" fill="white"/>
</clipPath>
</defs>
</svg>
