<svg width="36" height="36" viewBox="0 0 36 36" fill="none" xmlns="http://www.w3.org/2000/svg">
<g clip-path="url(#clip0_1659_1087)">
<path d="M35.5805 17.4274H0.430908V19.6951H35.5805V17.4274Z" stroke="currentColor" stroke-width="0.75" stroke-linecap="round" stroke-linejoin="round"/>
<path d="M34.4466 19.6951H1.5647V35.5691H34.4466V19.6951Z" stroke="currentColor" stroke-width="0.75" stroke-linecap="round" stroke-linejoin="round"/>
<path d="M33.3127 17.4387C33.3127 15.5565 31.7933 14.0371 29.9111 14.0371C28.0289 14.0371 26.5095 15.5565 26.5095 17.4387H33.3127Z" stroke="currentColor" stroke-width="0.75" stroke-linecap="round" stroke-linejoin="round"/>
<path d="M28.7773 11.7694H31.0451" stroke="currentColor" stroke-width="0.75" stroke-linecap="round" stroke-linejoin="round"/>
<path d="M29.9111 11.7694V14.0371" stroke="currentColor" stroke-width="0.75" stroke-linecap="round" stroke-linejoin="round"/>
<path d="M18.0056 8.36792C20.1974 8.36792 21.9741 6.59116 21.9741 4.39941C21.9741 2.20767 20.1974 0.430908 18.0056 0.430908C15.8139 0.430908 14.0371 2.20767 14.0371 4.39941C14.0371 6.59116 15.8139 8.36792 18.0056 8.36792Z" stroke="currentColor" stroke-width="0.75" stroke-linecap="round" stroke-linejoin="round"/>
<path d="M16.305 10.6356C13.7991 10.6356 11.7695 12.6652 11.7695 15.1711V17.4388H24.242V15.1711C24.242 12.6652 22.2124 10.6356 19.7065 10.6356L18.0058 12.9033L16.305 10.6356Z" stroke="currentColor" stroke-width="0.75" stroke-linecap="round" stroke-linejoin="round"/>
</g>
<defs>
<clipPath id="clip0_1659_1087">
<rect width="36" height="36" fill="white"/>
</clipPath>
</defs>
</svg>
