<svg width="200" height="200" viewBox="0 0 200 200" fill="none" xmlns="http://www.w3.org/2000/svg">
<g clip-path="url(#clip0_2464_1667)">
<path d="M123.319 56.6905C123.319 56.8311 123.322 56.9722 123.328 57.1124H112.762C107.13 57.1124 102.548 61.6944 102.548 67.3264C102.548 72.9581 107.13 77.5393 112.762 77.5393H132.761C134.505 77.5393 135.919 76.1256 135.919 74.3815C135.919 72.6374 134.505 71.2237 132.761 71.2237H112.762C110.612 71.2237 108.864 69.4757 108.864 67.3264C108.864 65.1768 110.613 63.4284 112.762 63.4284H127.46C128.594 63.4284 129.641 62.8206 130.203 61.8354C130.765 60.8507 130.756 59.6401 130.178 58.6639C129.817 58.0538 129.635 57.3897 129.635 56.6905C129.635 54.5413 131.383 52.7925 133.533 52.7925H166.628C168.777 52.7925 170.526 54.5413 170.526 56.6905C170.526 58.8401 168.778 60.5882 166.628 60.5882H151.93C150.796 60.5882 149.749 61.196 149.186 62.1811C148.624 63.1659 148.633 64.3764 149.211 65.3526C149.571 65.9628 149.755 66.6268 149.755 67.3264C149.755 69.4757 148.006 71.2237 145.857 71.2237H141.704C139.959 71.2237 138.546 72.637 138.546 74.3815C138.546 76.126 139.959 77.5393 141.704 77.5393H145.857C151.489 77.5393 156.07 72.9577 156.07 67.3264C156.07 67.1854 156.067 67.0448 156.061 66.9042H166.628C172.26 66.9038 176.841 62.3221 176.841 56.6909C176.841 51.0589 172.26 46.4769 166.628 46.4769H133.533C127.901 46.4765 123.319 51.0585 123.319 56.6905Z" fill="currentColor"/>
<path d="M135.752 87.2506H109.186C107.442 87.2506 106.028 88.6639 106.028 90.4084C106.028 92.1529 107.442 93.5662 109.186 93.5662H135.752C137.497 93.5662 138.91 92.1529 138.91 90.4084C138.91 88.6643 137.497 87.2506 135.752 87.2506Z" fill="currentColor"/>
<path d="M94.4889 87.2506C92.7443 87.2506 91.3311 88.6639 91.3311 90.4084C91.3311 92.1529 92.7443 93.5662 94.4889 93.5662H98.9705C100.715 93.5662 102.128 92.1529 102.128 90.4084C102.128 88.6639 100.715 87.2506 98.9705 87.2506H94.4889Z" fill="currentColor"/>
<path d="M197.85 145.135C193.094 143.532 188.073 142.076 182.895 140.795V137.226C182.895 135.481 181.482 134.068 179.737 134.068H176.841V124.567V114.661V108.319C176.841 106.574 175.428 105.161 173.683 105.161C171.939 105.161 170.526 106.574 170.526 108.319V111.503H94.8952C93.1507 111.503 91.7374 112.917 91.7374 114.661C91.7374 116.405 93.1507 117.819 94.8952 117.819H170.526V121.409H77.2257V117.819H84.7898C86.5343 117.819 87.9476 116.405 87.9476 114.661C87.9476 112.917 86.5339 111.503 84.7898 111.503H77.2257V108.319C77.2257 106.574 75.8117 105.161 74.0679 105.161C72.3234 105.161 70.9101 106.574 70.9101 108.319V114.661V124.567V134.068H68.014C66.2695 134.068 64.8562 135.481 64.8562 137.226V141.444C63.2761 141.857 61.7176 142.288 60.1785 142.732C60.1183 142.722 60.0586 142.712 59.9984 142.703C60.8453 141.22 61.3285 139.504 61.3285 137.681C61.3285 132.341 57.1879 127.95 51.9492 127.549C51.2742 125.208 50.0496 123.104 48.4305 121.377V97.7174L58.5832 93.0436C60.1676 92.3147 60.8605 90.4389 60.1312 88.8549C59.4027 87.2705 57.5269 86.5772 55.9426 87.3069L48.4301 90.7651V82.2987C52.9164 81.0334 57.016 78.5639 60.2535 75.0916C72.1109 71.694 80.3077 60.8776 80.3077 48.4491C80.3077 38.6628 75.2695 29.7929 67.0113 24.7757C67.1097 23.9269 67.1593 23.0738 67.1593 22.2238C67.1597 9.96912 57.1906 0 44.9371 0C32.6844 0 22.7157 9.96912 22.7157 22.2226C22.7157 22.5414 22.7227 22.8609 22.7372 23.1812C15.4258 25.2179 10.2372 31.8484 10.2372 39.7273C10.2372 44.7921 12.4458 49.5233 16.2387 52.771C15.9368 54.3554 15.7844 55.9647 15.7844 57.5784C15.7844 71.7428 27.3079 83.2666 41.4719 83.2666C41.6871 83.2666 41.9008 83.2553 42.1149 83.2502V117.326C40.6117 116.825 39.0086 116.553 37.3481 116.553C34.9668 116.553 32.666 117.099 30.5907 118.131C27.6614 111.865 21.3161 107.662 14.1145 107.662C9.11492 107.662 4.28251 109.755 0.856737 113.403C0.306347 113.988 0.000488281 114.761 0.000488281 115.564V143.169V182.239V196.841C0.000488281 198.586 1.41416 199.999 3.15829 199.999H196.842C198.587 199.999 200 198.586 200 196.841V148.128C200 146.772 199.134 145.568 197.85 145.135ZM77.2257 127.726H170.525V134.068H77.2257V127.726ZM71.1718 143.894V140.384H176.579V143.281V143.974H71.1718V143.894ZM42.1145 47.7636V58.9729L35.5793 53.4237C34.2492 52.2936 32.2567 52.4573 31.1286 53.7866C29.9993 55.1159 30.1621 57.1093 31.4914 58.2374L42.1145 67.2577V76.9331C41.9 76.9405 41.6863 76.951 41.4711 76.951C30.7895 76.951 22.0993 68.2604 22.0993 57.5784C22.0993 55.81 22.3422 54.0476 22.8211 52.3405C23.1942 51.012 22.661 49.5952 21.5059 48.8421C18.404 46.8194 16.5524 43.412 16.5524 39.7277C16.5524 34.1382 20.9122 29.3808 26.4774 28.8968C27.3649 28.8199 28.1789 28.371 28.7184 27.6613C29.2575 26.9515 29.4715 26.0472 29.3082 25.171C29.1243 24.1863 29.0313 23.1941 29.0313 22.2218C29.0317 13.4504 36.1672 6.31483 44.9379 6.31483C53.7094 6.31483 60.8449 13.4504 60.8449 22.2218C60.8449 23.4019 60.7109 24.5898 60.4461 25.7527C60.1222 27.1734 60.8129 28.63 62.1164 29.2804C69.4418 32.9312 73.9929 40.2753 73.9929 48.4472C73.9929 58.3018 67.3214 66.8428 57.7695 69.2178C57.1359 69.3753 56.5672 69.7253 56.1406 70.2198C54.0281 72.6682 51.3723 74.5159 48.4313 75.6506V47.7632C48.4313 46.0187 47.0176 44.6054 45.2734 44.6054C43.5293 44.6054 42.1145 46.0194 42.1145 47.7636ZM6.3161 116.899C8.47508 115.008 11.2024 113.979 14.1141 113.979C19.8637 113.979 24.777 118.08 25.7965 123.731C26.0043 124.883 26.8329 125.826 27.9485 126.18C29.0641 126.535 30.2852 126.242 31.1192 125.42C32.7914 123.775 35.0035 122.868 37.3473 122.868C41.9992 122.868 45.8887 126.5 46.2027 131.137C46.2664 132.079 46.7484 132.943 47.5168 133.493C48.2848 134.042 49.2582 134.219 50.1711 133.974C50.5199 133.881 50.8461 133.835 51.1672 133.835C53.2871 133.835 55.0121 135.561 55.0121 137.681C55.0121 139.638 53.5406 141.267 51.6187 141.491C45.1258 140.67 38.5121 140.1 31.82 139.787C31.7078 139.782 31.5961 139.777 31.484 139.772C28.9786 139.658 26.4622 139.579 23.9375 139.538C23.6813 139.533 23.4239 139.53 23.1676 139.526C21.9504 139.509 20.7317 139.498 19.5106 139.498C18.2505 139.498 16.9876 139.509 15.7239 139.528C15.3294 139.534 14.9352 139.543 14.5403 139.551C13.6555 139.567 12.7719 139.588 11.8876 139.613C11.4458 139.626 11.0055 139.64 10.5641 139.655C9.67352 139.685 8.78485 139.72 7.89696 139.759C7.51297 139.776 7.12899 139.791 6.74579 139.809C6.60282 139.817 6.45829 139.821 6.31532 139.829V116.899H6.3161ZM6.3161 146.158C6.51454 146.147 6.71102 146.134 6.90946 146.125C7.34383 146.103 7.77977 146.085 8.21532 146.066C9.03797 146.03 9.86219 145.997 10.6868 145.968C11.1356 145.953 11.5844 145.938 12.0337 145.925C12.8911 145.9 13.7489 145.881 14.6071 145.865C15.0016 145.858 15.3958 145.848 15.7903 145.842C17.0321 145.824 18.2727 145.813 19.5114 145.813C20.7688 145.813 22.0254 145.824 23.2805 145.842C23.627 145.847 23.9723 145.856 24.3184 145.863C25.2461 145.88 26.1731 145.9 27.0989 145.928C27.4672 145.938 27.8352 145.952 28.2028 145.965C29.1348 145.996 30.0661 146.031 30.9957 146.074C31.3172 146.088 31.6387 146.102 31.9602 146.118C32.9934 146.168 34.025 146.225 35.0555 146.288C35.2641 146.3 35.4727 146.312 35.6809 146.325C39.3196 146.556 42.9324 146.869 46.5098 147.256C29.0067 153.887 15.22 162.596 6.31571 172.64V146.158H6.3161ZM193.684 193.684H6.3161V183.137C6.38524 183.026 6.45204 182.915 6.52235 182.804C6.65555 182.593 6.79266 182.384 6.93094 182.175C7.11141 181.902 7.29344 181.629 7.4829 181.357C7.57352 181.227 7.66688 181.096 7.75907 180.965C8.01844 180.601 8.28133 180.237 8.55594 179.875C8.56532 179.863 8.5743 179.85 8.58328 179.839C17.5258 168.073 34.3774 157.682 56.0652 150.595C56.2097 150.548 56.3531 150.5 56.4976 150.454C57.0644 150.27 57.6367 150.091 58.2097 149.912C58.5316 149.811 58.8523 149.711 59.1758 149.613C59.6246 149.475 60.0773 149.341 60.5297 149.206C61.9886 148.773 63.4632 148.351 64.9621 147.947C64.9656 147.959 64.9714 147.97 64.975 147.983C65.0164 148.131 65.0668 148.274 65.1277 148.412C65.1371 148.433 65.1476 148.453 65.157 148.473C65.2215 148.611 65.2937 148.744 65.3773 148.87C65.3808 148.875 65.3832 148.88 65.3863 148.885C65.4718 149.013 65.5687 149.132 65.6715 149.245C65.689 149.265 65.7058 149.285 65.7246 149.304C65.8269 149.413 65.9363 149.513 66.0535 149.606C66.0726 149.621 66.0918 149.634 66.1113 149.65C66.2332 149.742 66.3593 149.827 66.4937 149.901C66.4961 149.902 66.4992 149.904 66.5019 149.906C66.6367 149.98 66.7789 150.04 66.9246 150.094C66.9515 150.104 66.9773 150.114 67.0043 150.123C67.1468 150.171 67.2945 150.209 67.4453 150.237C67.4726 150.242 67.5011 150.245 67.5293 150.249C67.6879 150.274 67.8492 150.291 68.0144 150.291H70.9105V158.966C70.9105 160.71 72.3242 162.124 74.0683 162.124C75.8124 162.124 77.2261 160.71 77.2261 158.966V150.29H170.526V158.965C170.526 160.71 171.939 162.123 173.683 162.123C175.428 162.123 176.841 160.71 176.841 158.965V150.29H179.737C179.845 150.29 179.95 150.285 180.055 150.274C180.091 150.27 180.125 150.264 180.16 150.259C180.229 150.25 180.297 150.242 180.363 150.228C180.405 150.219 180.445 150.207 180.486 150.197C180.545 150.183 180.604 150.17 180.661 150.152C180.704 150.14 180.745 150.123 180.787 150.108C180.841 150.089 180.895 150.071 180.947 150.049C180.99 150.032 181.031 150.011 181.072 149.992C181.122 149.968 181.171 149.946 181.22 149.92C181.261 149.898 181.301 149.874 181.342 149.849C181.387 149.823 181.433 149.796 181.477 149.767C181.517 149.741 181.554 149.713 181.592 149.685C181.635 149.654 181.677 149.624 181.717 149.591C181.754 149.561 181.79 149.529 181.825 149.498C181.864 149.463 181.903 149.429 181.94 149.393C181.974 149.36 182.006 149.325 182.039 149.29C182.074 149.252 182.11 149.215 182.143 149.176C182.174 149.139 182.203 149.101 182.233 149.063C182.264 149.023 182.296 148.982 182.325 148.94C182.352 148.9 182.378 148.859 182.404 148.819C182.432 148.775 182.459 148.731 182.485 148.686C182.509 148.644 182.53 148.601 182.552 148.558C182.576 148.511 182.599 148.465 182.62 148.417C182.64 148.373 182.658 148.329 182.676 148.283C182.695 148.234 182.713 148.184 182.73 148.134C182.745 148.088 182.759 148.042 182.773 147.995C182.788 147.943 182.801 147.891 182.813 147.838C182.824 147.791 182.834 147.743 182.842 147.695C182.852 147.641 182.86 147.586 182.867 147.531C182.873 147.483 182.878 147.434 182.882 147.385C182.884 147.358 182.889 147.333 182.891 147.306C186.596 148.254 190.208 149.293 193.684 150.413V193.684H193.684Z" fill="currentColor"/>
<path d="M94.128 40.5327H124.245C129.851 40.5327 134.413 35.9718 134.413 30.3656C134.413 24.7593 129.851 20.198 124.245 20.198H94.128C88.5218 20.198 83.9604 24.7593 83.9604 30.3656C83.9604 35.9718 88.5218 40.5327 94.128 40.5327ZM94.128 26.514H124.245C126.369 26.514 128.097 28.2417 128.097 30.3659C128.098 32.4894 126.369 34.2171 124.245 34.2171H94.128C92.0038 34.2171 90.2761 32.489 90.2761 30.3659C90.2765 28.2417 92.0042 26.514 94.128 26.514Z" fill="currentColor"/>
</g>
<defs>
<clipPath id="clip0_2464_1667">
<rect width="200" height="200" fill="white"/>
</clipPath>
</defs>
</svg>
