<svg width="48" height="36" viewBox="0 0 48 36" fill="none" xmlns="http://www.w3.org/2000/svg">
<g clip-path="url(#clip0_624_539)">
<path d="M47.0646 34.7681C45.8897 34.7681 45.2737 35.019 44.692 35.2586C44.0988 35.4981 43.5513 35.7148 42.3992 35.7148C41.2471 35.7148 40.6996 35.4867 40.1064 35.2586C39.5133 35.019 38.8973 34.7681 37.6768 34.7681C36.4562 34.7681 35.8403 35.019 35.2471 35.2586C34.654 35.4981 34.1064 35.7148 32.9543 35.7148C31.8023 35.7148 31.2547 35.4867 30.6616 35.2586C30.0684 35.019 29.4524 34.7681 28.2319 34.7681C27.0114 34.7681 26.3954 35.019 25.8023 35.2586C25.2091 35.4981 24.6616 35.7148 23.5095 35.7148C22.3574 35.7148 21.8099 35.4867 21.2167 35.2586C20.6235 35.019 20.0076 34.7681 18.787 34.7681C17.5665 34.7681 16.9505 35.019 16.3574 35.2586C15.7642 35.4981 15.2167 35.7148 14.0646 35.7148C12.9125 35.7148 12.365 35.4867 11.7718 35.2586C11.1787 35.019 10.5627 34.7681 9.34218 34.7681C8.12165 34.7681 7.50568 35.019 6.91252 35.2586C6.31936 35.4981 5.77184 35.7148 4.61974 35.7148C3.46765 35.7148 2.92012 35.4867 2.32697 35.2586C1.73381 35.019 1.12925 34.7795 -0.0456543 34.7681" stroke="#2C2D65" stroke-width="0.5" stroke-miterlimit="10"/>
<path d="M38.2244 1.8593C38.327 1.8593 38.4069 1.77945 38.4069 1.67679V0.467666C38.4069 0.365004 38.327 0.285156 38.2244 0.285156C38.1217 0.285156 38.0419 0.365004 38.0419 0.467666V1.66538C38.0419 1.76805 38.1217 1.84789 38.2244 1.84789V1.8593Z" stroke="#2C2D65" stroke-width="0.5" stroke-miterlimit="10"/>
<path d="M36.114 2.28146C36.1482 2.33849 36.2167 2.37271 36.2737 2.37271C36.3079 2.37271 36.3422 2.37271 36.365 2.3499C36.4562 2.30427 36.4904 2.17879 36.4334 2.09895L35.8403 1.06092C35.7832 0.969669 35.6692 0.935449 35.5893 0.992483C35.498 1.04952 35.4752 1.16359 35.5209 1.24343L36.1254 2.28146H36.114Z" stroke="#2C2D65" stroke-width="0.5" stroke-miterlimit="10"/>
<path d="M33.7186 3.18255L34.7567 3.78711C34.7567 3.78711 34.8251 3.80992 34.8479 3.80992C34.9164 3.80992 34.9734 3.7757 35.0076 3.71867C35.0532 3.62741 35.0304 3.51335 34.9392 3.46772L33.9011 2.87456C33.8099 2.81753 33.6958 2.85175 33.6502 2.943C33.5932 3.03426 33.6274 3.14833 33.7186 3.19395V3.18255Z" stroke="#2C2D65" stroke-width="0.5" stroke-miterlimit="10"/>
<path d="M41.5095 7.68816L42.5476 8.29273C42.5476 8.29273 42.616 8.31554 42.6388 8.31554C42.7073 8.31554 42.7643 8.28132 42.7985 8.22429C42.8441 8.13303 42.8213 8.01896 42.7301 7.97333L41.692 7.38018C41.6008 7.32314 41.4867 7.35736 41.4411 7.44862C41.3841 7.53987 41.4183 7.65394 41.5095 7.69957V7.68816Z" stroke="#2C2D65" stroke-width="0.5" stroke-miterlimit="10"/>
<path d="M41.943 5.57802C41.943 5.68068 42.0228 5.76053 42.1255 5.76053H43.3232C43.4259 5.76053 43.5057 5.68068 43.5057 5.57802C43.5057 5.47536 43.4259 5.39551 43.3232 5.39551H42.1255C42.0228 5.39551 41.943 5.47536 41.943 5.57802Z" stroke="#2C2D65" stroke-width="0.5" stroke-miterlimit="10"/>
<path d="M41.6122 3.80986C41.6122 3.80986 41.6806 3.80986 41.7035 3.78704L42.7415 3.18248C42.8327 3.12545 42.8669 3.01138 42.8099 2.93153C42.7529 2.84027 42.6388 2.80605 42.559 2.86309L41.5209 3.45624C41.4297 3.51328 41.4069 3.62735 41.4525 3.70719C41.4867 3.76423 41.5552 3.79845 41.6122 3.79845V3.80986Z" stroke="#2C2D65" stroke-width="0.5" stroke-miterlimit="10"/>
<path d="M40.0836 2.3499C40.0836 2.3499 40.1407 2.37271 40.1749 2.37271C40.2433 2.37271 40.3004 2.33849 40.3346 2.28146L40.9391 1.24343C40.9848 1.15218 40.962 1.03811 40.8707 0.992483C40.7794 0.935449 40.6654 0.969669 40.6198 1.06092L40.0152 2.09895C39.9582 2.1902 39.9924 2.30427 40.0836 2.3499Z" stroke="#2C2D65" stroke-width="0.5" stroke-miterlimit="10"/>
<path d="M42.1255 17.4752C42.0343 17.4296 41.9202 17.4638 41.8746 17.555C41.8289 17.6463 41.8746 17.7604 41.9544 17.806C42.4905 18.0798 42.8898 18.479 43.1521 19.0037C43.1864 19.0722 43.2434 19.1064 43.3232 19.1064C43.4031 19.1064 43.4601 19.0608 43.4943 19.0037C43.7567 18.479 44.1673 18.0798 44.6921 17.806C44.7833 17.7604 44.8175 17.6463 44.7719 17.555C44.7263 17.4638 44.6122 17.4296 44.521 17.4752C44.0191 17.7376 43.6198 18.0912 43.3232 18.5474C43.0267 18.0912 42.6274 17.7262 42.1255 17.4752Z" fill="#2C2D65"/>
<path d="M34.9277 21.5362C34.4258 21.7986 34.0266 22.1522 33.73 22.6085C33.4334 22.1522 33.0342 21.7872 32.5323 21.5362C32.441 21.4906 32.3269 21.5248 32.2813 21.6161C32.2357 21.7073 32.2813 21.8214 32.3612 21.867C32.8973 22.1408 33.2965 22.5514 33.5589 23.0648C33.5931 23.1332 33.6501 23.1674 33.73 23.1674C33.8098 23.1674 33.8669 23.1218 33.9011 23.0648C34.1634 22.54 34.5741 22.1408 35.0988 21.867C35.1901 21.8214 35.2243 21.7073 35.1786 21.6161C35.133 21.5248 35.019 21.4906 34.9277 21.5362Z" fill="#2C2D65"/>
<path d="M17.9316 1.1976C18.4677 1.47136 18.8669 1.8706 19.1293 2.39532C19.1635 2.46376 19.2206 2.49798 19.3004 2.49798C19.3803 2.49798 19.4373 2.45235 19.4715 2.39532C19.7339 1.8706 20.1445 1.47136 20.6806 1.1976C20.7719 1.15197 20.8061 1.0379 20.7605 0.94665C20.7149 0.855395 20.6008 0.821175 20.5095 0.866802C20.0076 1.12916 19.6084 1.48277 19.3118 1.93905C19.0152 1.48277 18.616 1.11775 18.1141 0.866802C18.0228 0.821175 17.9088 0.855395 17.8631 0.94665C17.8175 1.0379 17.8517 1.15197 17.943 1.1976" fill="#2C2D65"/>
<path d="M22.1635 13.962C22.6996 14.2358 23.0989 14.635 23.3612 15.1597C23.3955 15.2282 23.4525 15.2624 23.5323 15.2624C23.6122 15.2624 23.6692 15.2168 23.7034 15.1597C23.9658 14.635 24.3764 14.2358 24.9126 13.962C25.0038 13.9164 25.038 13.8023 24.9924 13.7111C24.9468 13.6198 24.8327 13.5856 24.7415 13.6312C24.2396 13.8936 23.8403 14.2472 23.5437 14.7034C23.2472 14.2472 22.8479 13.8822 22.346 13.6312C22.2548 13.5856 22.1407 13.6198 22.0951 13.7111C22.0494 13.8023 22.0837 13.9164 22.1749 13.962" fill="#2C2D65"/>
<path d="M19.4943 21.9239C19.5969 21.9809 19.7224 22.0151 19.8479 22.0151H24.3992C24.5019 22.0151 24.5817 21.9353 24.5817 21.8326C24.5817 21.7299 24.5019 21.6501 24.3992 21.6501H19.8479C19.654 21.6501 19.4943 21.4904 19.4943 21.2965C19.4943 21.1026 19.654 20.9429 19.8479 20.9429H25.5285C25.7224 20.9429 25.8821 21.1026 25.8821 21.2965V22.3687C25.8821 22.5626 25.7224 22.7223 25.5285 22.7223H19.8479C19.654 22.7223 19.4943 22.5626 19.4943 22.3687V21.9239Z" fill="#2C2D65"/>
<path d="M11.5893 10.2318L9.11401 6.35352L14.8859 9.54743L11.5893 10.2318Z" fill="#2C2D65"/>
<path d="M15.4562 9.43335L10.038 6.43335L18.5589 8.79457L15.4562 9.43335Z" fill="#2C2D65"/>
<path d="M3.6502 11.8516L0.536133 12.4904L7.44868 6.96948L3.6502 11.8516Z" fill="#2C2D65"/>
<path d="M8.25854 6.53613L7.50568 11.0646L4.20911 11.7377L8.25854 6.53613Z" fill="#2C2D65"/>
<path d="M8.66922 6.34229L11.2015 10.3119L7.89355 10.9849L8.66922 6.34229Z" fill="#2C2D65"/>
<path d="M14.4411 10.8822L12.9012 11.2015C12.6274 11.2586 12.365 11.2015 12.1255 11.0533C11.9544 10.9392 11.8175 10.7681 11.7377 10.5856L15.251 9.86694C15.251 10.346 14.9202 10.7909 14.4297 10.8936" fill="#2C2D65"/>
<path d="M18.3764 10.0723L16.8136 10.3917C16.5399 10.4487 16.2661 10.3917 16.038 10.2434C15.8669 10.1293 15.73 9.96961 15.6501 9.77569L19.1863 9.04565C19.1863 9.52474 18.8555 9.96961 18.365 10.0723" fill="#2C2D65"/>
<path d="M2.77184 13.2776L1.2091 13.597C0.718604 13.6996 0.228109 13.4259 0.0570068 12.981L3.59313 12.251C3.59313 12.7301 3.26233 13.1749 2.77184 13.2776Z" fill="#2C2D65"/>
<path d="M6.68445 12.4676L5.14452 12.787C4.65403 12.8897 4.17494 12.6159 3.99243 12.171L7.50574 11.4524C7.50574 11.9315 7.17494 12.3763 6.68445 12.479" fill="#2C2D65"/>
<path d="M9.06841 11.9887C8.57791 12.0913 8.08742 11.8176 7.90491 11.3613L11.3498 10.6541C11.3498 11.1331 11.019 11.578 10.5285 11.6807L9.06841 11.9772V11.9887Z" fill="#2C2D65"/>
<path d="M5.25854 16.1748L8.11025 22.7223H6.84409L4.00378 16.1748H5.25854Z" stroke="#2C2D65" stroke-width="0.5" stroke-miterlimit="10"/>
<path d="M0 28.8936C1.10646 28.8936 1.65399 29.1217 2.23574 29.3498C2.8289 29.5894 3.44487 29.8403 4.6654 29.8403C5.88593 29.8403 6.5019 29.5894 7.09506 29.3498C7.68821 29.1103 8.23574 28.8936 9.38783 28.8936C10.5399 28.8936 11.0875 29.1217 11.6806 29.3498C12.2738 29.5894 12.8897 29.8403 14.1103 29.8403C15.3308 29.8403 15.9468 29.5894 16.5399 29.3498C17.1331 29.1103 17.692 28.8936 18.8327 28.8936C19.9734 28.8936 20.5323 29.1217 21.1255 29.3498C21.7186 29.5894 22.3346 29.8403 23.5551 29.8403C24.7757 29.8403 25.3916 29.5894 25.9848 29.3498C26.5779 29.1103 27.1255 28.8936 28.2776 28.8936C29.4297 28.8936 29.9772 29.1217 30.5703 29.3498C31.1635 29.5894 31.7795 29.8403 33 29.8403C34.2205 29.8403 34.8365 29.5894 35.4297 29.3498C36.0228 29.1103 36.5703 28.8936 37.7224 28.8936C38.8745 28.8936 39.4221 29.1217 40.0152 29.3498C40.6084 29.5894 41.2243 29.8403 42.4449 29.8403C43.6654 29.8403 44.2814 29.5894 44.8745 29.3498C45.4563 29.1217 46.0038 28.8936 47.1103 28.8936" stroke="#2C2D65" stroke-width="0.5" stroke-miterlimit="10"/>
<path d="M47.0646 31.6084C45.8897 31.6084 45.2737 31.8593 44.692 32.0989C44.0988 32.3384 43.5513 32.5552 42.3992 32.5552C41.2471 32.5552 40.6996 32.327 40.1064 32.0989C39.5133 31.8593 38.8973 31.6084 37.6768 31.6084C36.4562 31.6084 35.8403 31.8593 35.2471 32.0989C34.654 32.3384 34.1064 32.5552 32.9543 32.5552C31.8023 32.5552 31.2547 32.327 30.6616 32.0989C30.0684 31.8593 29.4524 31.6084 28.2319 31.6084C27.0114 31.6084 26.3954 31.8593 25.8023 32.0989C25.2091 32.3384 24.6616 32.5552 23.5095 32.5552C22.3574 32.5552 21.8099 32.327 21.2167 32.0989C20.6235 31.8593 20.0076 31.6084 18.787 31.6084C17.5665 31.6084 16.9505 31.8593 16.3574 32.0989C15.7642 32.3384 15.2167 32.5552 14.0646 32.5552C12.9125 32.5552 12.365 32.327 11.7718 32.0989C11.1787 31.8593 10.5627 31.6084 9.34218 31.6084C8.12165 31.6084 7.50568 31.8593 6.91252 32.0989C6.31936 32.3384 5.77184 32.5552 4.61974 32.5552C3.46765 32.5552 2.92012 32.327 2.32697 32.0989C1.73381 31.8593 1.12925 31.6198 -0.0456543 31.6084" stroke="#2C2D65" stroke-width="0.5" stroke-miterlimit="10"/>
<path d="M23.7605 27.9924L22.4031 24.7756H23.6692L25.0152 27.9924H23.7605Z" stroke="#2C2D65" stroke-width="0.5" stroke-miterlimit="10"/>
<path d="M27.1482 23.0989H5.39539V24.3993H27.1482V23.0989Z" stroke="#2C2D65" stroke-width="0.5" stroke-miterlimit="10"/>
<path d="M6.85546 24.7756H8.11021L6.7528 27.9924H5.49805L6.85546 24.7756Z" stroke="#2C2D65" stroke-width="0.5" stroke-miterlimit="10"/>
<path d="M38.1331 8.3042C39.5631 8.3042 40.7224 7.1449 40.7224 5.71484C40.7224 4.28478 39.5631 3.12549 38.1331 3.12549C36.703 3.12549 35.5437 4.28478 35.5437 5.71484C35.5437 7.1449 36.703 8.3042 38.1331 8.3042Z" stroke="#2C2D65" stroke-width="0.5" stroke-miterlimit="10"/>
</g>
<defs>
<clipPath id="clip0_624_539">
<rect width="47.0646" height="36" fill="white"/>
</clipPath>
</defs>
</svg>
