<?xml version="1.0" encoding="UTF-8"?>
<svg id="Layer_1" xmlns="http://www.w3.org/2000/svg" viewBox="0 0 100 100" fill="currentColor">
  <path d="M81.4,99.2c-4.8,0-9.4-1.9-12.7-5.3-7-7-7-18.5,0-25.5,7-7,18.5-7,25.5,0,5.2,5.1,6.7,12.9,3.9,19.6-.4,1-1.5,1.4-2.5,1-1-.4-1.4-1.5-1-2.5,3-7.3-.4-15.6-7.7-18.6s-15.6.4-18.6,7.7.4,15.6,7.7,18.6c3.5,1.4,7.4,1.4,10.9,0,1-.4,2.1,0,2.5,1s0,2.1-1,2.5c0,0,0,0,0,0-2.2.9-4.5,1.4-6.9,1.4h0Z"/>
  <path d="M87.5,98c-.5,0-1-.2-1.3-.6l-8.2-8.2c-.7-.7-.7-1.9,0-2.7h0s8.7-8.7,8.7-8.7c.7-.7,1.9-.7,2.7,0h0s8.2,8.2,8.2,8.2c.7.8.7,2,0,2.7-.7.7-1.9.7-2.6,0l-6.9-6.9-6,6,6.9,6.9c.7.7.7,1.9,0,2.7-.4.4-.8.6-1.3.6h0Z"/>
  <path d="M18.8,36.6c-9.9,0-18-8.1-18-18,0-2.4.5-4.7,1.4-6.9.4-1,1.5-1.4,2.5-1,1,.4,1.4,1.5,1,2.5,0,0,0,0,0,0-3,7.3.4,15.6,7.7,18.6,7.3,3,15.6-.4,18.6-7.7,3-7.3-.4-15.6-7.7-18.6-3.5-1.4-7.4-1.4-10.9,0-1,.4-2.1,0-2.5-1-.4-1,0-2.1,1-2.5,0,0,0,0,0,0,6.7-2.8,14.5-1.3,19.6,3.9,7,7,7,18.5,0,25.5-3.4,3.4-8,5.3-12.7,5.3h0Z"/>
  <path d="M12.1,22.6c-.5,0-1-.2-1.3-.6L2.6,13.8c-.7-.8-.7-2,0-2.7.7-.7,1.9-.7,2.6,0l6.9,6.9,6-6-6.9-6.9c-.7-.8-.7-2,0-2.7.7-.7,1.9-.7,2.6,0l8.2,8.2c.7.7.7,1.9,0,2.7,0,0,0,0,0,0l-8.7,8.7c-.4.4-.8.6-1.3.6Z"/>
  <path d="M75.6,68.1c-.5,0-1-.2-1.3-.6L32.5,25.8c-.7-.8-.7-2,0-2.7.7-.7,1.9-.7,2.6,0l41.8,41.8c.7.7.7,1.9,0,2.7-.4.4-.8.6-1.3.6Z"/>
  <path d="M66.3,77.3c-.5,0-1-.2-1.3-.6L23.2,35c-.8-.7-.8-1.9-.1-2.7s1.9-.8,2.7-.1c0,0,0,0,.1.1l41.8,41.8c.7.7.7,1.9,0,2.7-.4.4-.8.6-1.3.6h0Z"/>
  <path d="M14.6,99.4c-2.8,0-5.5-1.1-7.4-3.1l-3.5-3.5c-4.1-4.1-4.1-10.8,0-14.9l32.6-32.6c.7-.7,1.9-.7,2.7,0s.7,1.9,0,2.7L6.4,80.7c-2.6,2.6-2.6,6.9,0,9.5l3.5,3.5c2.6,2.6,6.9,2.6,9.5,0l32.6-32.6c.8-.7,2-.7,2.7,0,.7.7.7,1.9,0,2.6l-32.6,32.6c-2,2-4.6,3.1-7.4,3.1h0Z"/>
  <path d="M51.3,43.8c-1,0-1.9-.9-1.9-1.9,0-.5.2-1,.6-1.3l28.5-28.5c.7-.7,1.9-.7,2.7,0s.7,1.9,0,2.7l-28.5,28.5c-.4.4-.8.6-1.3.6Z"/>
  <path d="M58.1,50.6c-1,0-1.9-.9-1.9-1.9,0-.5.2-1,.6-1.3l28.5-28.5c.7-.7,1.9-.7,2.7,0s.7,1.9,0,2.7l-28.5,28.5c-.4.4-.8.6-1.3.6h0Z"/>
  <path d="M90,25.4c-.5,0-1-.2-1.3-.6l-3.3-3.3c-.7-.7-.7-1.9,0-2.7s1.9-.7,2.7,0l1.5,1.5,5.5-10.5-4.8-4.8-10.5,5.5,1.5,1.5c.7.7.7,1.9,0,2.7s-1.9.7-2.7,0l-3.3-3.3c-.7-.7-.7-1.9,0-2.7.1-.1.3-.2.5-.3l14-7.3c.7-.4,1.6-.2,2.2.3l6.8,6.8c.6.6.7,1.5.3,2.2l-7.3,14c-.3.5-.8.9-1.4,1,0,0-.2,0-.3,0Z"/>
  <path d="M6.7,95.2c-1,0-1.9-.9-1.9-1.9,0-.5.2-1,.6-1.3l38.7-38.7c.7-.7,1.9-.7,2.7,0s.7,1.9,0,2.7L8.1,94.6c-.4.4-.8.6-1.3.6h0Z"/>
</svg>