<svg width="200" height="200" viewBox="0 0 200 200" fill="none" xmlns="http://www.w3.org/2000/svg">
<g clip-path="url(#clip0_2499_10198)">
<path d="M186.564 102.092C183.884 83.3332 172.418 27.0594 161.127 21.4121C160.11 20.9035 158.546 20.0512 156.572 18.9785C132.885 6.10316 109.495 -4.84411 98.9177 2.21722C90.7173 7.68597 83.6786 20.4133 82.5474 31.8243C81.8907 38.4547 83.3142 43.7282 86.6626 47.0766C94.0013 54.4192 118.511 51.3743 131.431 49.1438C130.565 53.2301 128.701 60.1664 124.677 70.2215C118.219 86.366 121.7 111.639 123.568 122.33H115.178C108.656 108.724 99.6618 101.723 88.4204 99.4868C66.2337 95.0563 42.8774 113.583 37.3993 118.443H23.322C21.1731 118.443 19.4345 120.183 19.4345 122.33C19.4345 124.477 21.1731 126.218 23.322 126.218H38.8724C39.8481 126.218 40.7895 125.724 41.5071 125.063C41.7462 124.841 65.972 102.748 86.9208 106.928C96.2184 108.784 103.716 115.854 109.206 127.752C109.844 129.13 111.222 130.105 112.737 130.105H128.288C129.468 130.105 130.581 129.444 131.321 128.523C132.058 127.605 132.338 126.337 132.084 125.186C132.008 124.848 124.65 91.1289 131.898 73.0157C139.723 53.4465 139.95 45.2157 139.95 44.3426C139.95 43.1789 139.427 42.066 138.527 41.3278C137.631 40.5914 136.446 40.2914 135.3 40.5192C117.585 44.0555 96.0517 45.466 92.1599 41.5801C90.5614 39.9817 89.8782 36.7043 90.2845 32.5891C91.1919 23.4207 96.879 12.9192 103.231 8.68597C108.641 5.07933 125.341 10.8496 152.858 25.8094C154.935 26.9371 156.579 27.8309 157.611 28.3453C162.931 31.7071 174.449 72.2766 178.864 103.191C182.156 126.223 179.726 161.217 179.02 170.141C165.702 176.747 83.1352 214.602 17.6231 173.218C15.8048 172.077 13.4091 172.616 12.2587 174.429C11.1122 176.245 11.6552 178.647 13.4696 179.793C37.3192 194.854 63.2153 200 87.4825 199.998C139.453 199.997 183.918 176.388 184.567 176.037C185.709 175.416 186.469 174.266 186.586 172.969C186.746 171.207 190.47 129.442 186.564 102.092Z" fill="#2C2D65"/>
</g>
<defs>
<clipPath id="clip0_2499_10198">
<rect width="200" height="200" fill="white"/>
</clipPath>
</defs>
</svg>
