<svg width="200" height="200" viewBox="0 0 200 200" fill="none" xmlns="http://www.w3.org/2000/svg">
<g clip-path="url(#clip0_2471_1863)">
<path d="M78.9473 98.9472C91.1363 98.9472 101.052 108.864 101.052 121.052C101.052 122.797 102.466 124.21 104.21 124.21C105.954 124.21 107.368 122.797 107.368 121.052C107.368 105.381 94.6184 92.6312 78.9469 92.6312C77.2027 92.6312 75.7891 94.0445 75.7891 95.789C75.7895 97.534 77.2035 98.9472 78.9473 98.9472Z" fill="#2C2D65"/>
<path d="M15.7894 40H57.8945C59.6386 40 61.0523 38.5863 61.0523 36.8421C61.0523 35.098 59.6382 33.6843 57.8945 33.6843H15.7894C14.0453 33.6843 12.6316 35.098 12.6316 36.8421C12.6316 38.5863 14.0453 40 15.7894 40Z" fill="#2C2D65"/>
<path d="M141.053 121.053C141.053 86.8078 113.193 58.9476 78.9476 58.9476C63.9093 58.9476 49.3996 64.3922 38.0898 74.2785C26.8894 84.0699 19.5667 97.532 17.471 112.185C17.2242 113.911 18.4234 115.511 20.1499 115.758C21.8757 116 23.4761 114.805 23.723 113.078C27.6226 85.8195 51.364 65.2633 78.948 65.2633C109.71 65.2633 134.737 90.2902 134.737 121.053C134.737 151.815 109.71 176.842 78.948 176.842C49.7929 176.842 25.3488 154.089 23.2988 125.041C23.1761 123.301 21.6652 121.994 19.9265 122.113C18.1867 122.236 16.8761 123.746 16.9984 125.486C18.1023 141.127 25.0363 155.661 36.5226 166.409C48.0648 177.21 63.132 183.158 78.948 183.158C113.193 183.158 141.053 155.298 141.053 121.053Z" fill="#2C2D65"/>
<path d="M78.9473 149.474C80.6915 149.474 82.1051 148.06 82.1051 146.316C82.1051 144.572 80.6911 143.158 78.9473 143.158C66.7582 143.158 56.8422 133.241 56.8422 121.053C56.8422 119.309 55.4282 117.895 53.6844 117.895C51.9403 117.895 50.5266 119.309 50.5266 121.053C50.5262 136.724 63.2758 149.474 78.9473 149.474Z" fill="#2C2D65"/>
<path d="M136.842 32.6316C136.842 26.2473 131.648 21.0527 125.263 21.0527C118.878 21.0527 113.684 26.2473 113.684 32.6316C113.684 39.016 118.878 44.2105 125.263 44.2105C131.648 44.2105 136.842 39.016 136.842 32.6316ZM120 32.6316C120 29.7293 122.361 27.3684 125.263 27.3684C128.166 27.3684 130.527 29.7293 130.527 32.6316C130.527 35.534 128.166 37.8949 125.263 37.8949C122.361 37.8949 120 35.534 120 32.6316Z" fill="#2C2D65"/>
<path d="M107.368 32.6316C107.368 26.2473 102.174 21.0527 95.7894 21.0527C89.4046 21.0527 84.2104 26.2473 84.2104 32.6316C84.2104 39.016 89.4046 44.2105 95.7894 44.2105C102.174 44.2105 107.368 39.016 107.368 32.6316ZM90.5261 32.6316C90.5261 29.7293 92.887 27.3684 95.7894 27.3684C98.6917 27.3684 101.053 29.7293 101.053 32.6316C101.053 35.534 98.6917 37.8949 95.7894 37.8949C92.887 37.8949 90.5261 35.534 90.5261 32.6316Z" fill="#2C2D65"/>
<path d="M78.9472 166.316C103.905 166.316 124.211 146.01 124.211 121.052C124.211 96.0945 103.906 75.7891 78.9472 75.7891C53.9886 75.7891 33.6843 96.0949 33.6843 121.053C33.6843 146.011 53.989 166.316 78.9472 166.316ZM78.9472 82.1051C100.423 82.1051 117.894 99.5766 117.894 121.052C117.894 142.528 100.423 160 78.9472 160C57.4714 160 40 142.529 40 121.053C40 99.5769 57.4714 82.1051 78.9472 82.1051Z" fill="#2C2D65"/>
<path d="M196.842 193.684H187.914C188.537 192.458 188.952 191.1 189.107 189.655L199.934 88.6023C200.283 85.3398 199.226 82.0695 197.033 79.6293C194.84 77.1895 191.701 75.7898 188.42 75.7898H178.236C177.052 73.3027 174.513 71.5793 171.579 71.5793H157.895V11.5793C157.895 5.19453 152.701 0 146.316 0H11.5789C5.19414 0 0 5.19453 0 11.5789V180C0 185.289 2.06328 190.104 5.42695 193.684H3.15781C1.41406 193.684 0 195.098 0 196.842C0 198.587 1.41406 200 3.15781 200H28.4211C30.1652 200 31.5789 198.587 31.5789 196.842C31.5789 195.098 30.1648 193.684 28.4211 193.684H20C12.4547 193.684 6.31562 187.546 6.31562 180V52.6316H60C69.8672 52.6316 77.8945 44.6043 77.8945 34.7367C77.8945 24.8691 69.8672 16.8418 60 16.8418H6.31562V11.5789C6.31562 8.67656 8.67656 6.31562 11.5789 6.31562H146.316C149.218 6.31562 151.579 8.67656 151.579 11.5789V33.684H146.316C144.571 33.684 143.158 35.0977 143.158 36.8418C143.158 38.5859 144.572 39.9996 146.316 39.9996H151.579V87.368C151.579 89.1125 152.993 90.5258 154.737 90.5258C156.481 90.5258 157.895 89.1125 157.895 87.368V77.8941H171.579C172.159 77.8941 172.632 78.366 172.632 78.9469V104.21C172.632 113 166.261 120.33 157.895 121.826V100C157.895 98.2555 156.481 96.8422 154.737 96.8422C152.993 96.8422 151.579 98.2559 151.579 100V180C151.579 187.546 145.44 193.684 137.895 193.684H41.0527C39.3086 193.684 37.8949 195.098 37.8949 196.842C37.8949 198.587 39.309 200 41.0527 200H158.948C160.692 200 162.105 198.587 162.105 196.842C162.105 195.098 160.691 193.684 158.948 193.684H152.468C155.832 190.104 157.895 185.289 157.895 180V128.216C169.759 126.664 178.948 116.49 178.948 104.21V82.1051H188.42C189.934 82.1051 191.324 82.725 192.335 83.8508C193.346 84.9762 193.815 86.425 193.654 87.9297L182.827 188.982C182.539 191.663 180.289 193.685 177.593 193.685H171.579C169.835 193.685 168.421 195.098 168.421 196.843C168.421 198.587 169.835 200 171.579 200H196.842C198.586 200 200 198.587 200 196.843C200 195.098 198.586 193.684 196.842 193.684ZM60 23.1578C66.3848 23.1578 71.5789 28.3523 71.5789 34.7367C71.5789 41.1211 66.3848 46.3156 60 46.3156H6.31562V23.1578H60Z" fill="#2C2D65"/>
</g>
<defs>
<clipPath id="clip0_2471_1863">
<rect width="200" height="200" fill="white"/>
</clipPath>
</defs>
</svg>
