<svg width="256" height="256" viewBox="0 0 256 256" fill="none" xmlns="http://www.w3.org/2000/svg">
<path d="M202.002 153.827L212.221 153.063C211.205 169.929 185.31 184.684 143.858 183.504C135.403 159.298 131.018 124.209 132.584 98.787C143.254 93.729 162.438 94.49 170.775 95.117C171.486 97.45 172.626 98.971 173.915 98.971C176.072 98.971 177.823 94.729 177.823 89.495C177.823 84.261 176.072 80.019 173.915 80.019C172.595 80.019 171.43 81.612 170.722 84.044C163.171 84.895 146.742 86.069 134.854 82.083C136.275 76.099 138.301 71.507 140.996 68.929C150.597 63.699 157.126 53.514 157.126 41.833C157.126 24.832 143.294 11 126.293 11C109.292 11 95.4571 24.832 95.4571 41.833C95.4571 52.959 101.383 62.727 110.243 68.15C112.457 71.033 114.247 76.046 115.588 82.506C102.876 86.631 84.3921 84.874 78.8171 84.206C78.1151 81.681 76.9241 80.019 75.5751 80.019C73.4161 80.019 71.6681 84.262 71.6681 89.495C71.6681 94.728 73.4171 98.971 75.5751 98.971C76.9131 98.971 78.0931 97.338 78.7981 94.85C84.7221 94.361 105.409 93.114 117.743 98.161C119.914 124.047 117.335 159.666 109.063 183.562C67.0451 185.063 41.3881 170.102 40.3611 153.063L50.5791 153.827L26.7581 133.501C26.7581 152.303 35.4131 187.522 58.8281 198.763C86.4041 212.003 105.856 214.039 126.292 244.166C146.728 214.039 166.179 212.003 193.755 198.763C217.171 187.523 225.825 152.303 225.825 133.501L202.002 153.827ZM110.457 41.833C110.457 33.103 117.56 26 126.29 26C135.021 26 142.123 33.103 142.123 41.833C142.123 50.563 135.02 57.666 126.29 57.666C117.56 57.667 110.457 50.564 110.457 41.833Z" fill="#2C2D65"/>
</svg>
