<svg width="200" height="200" viewBox="0 0 200 200" fill="none" xmlns="http://www.w3.org/2000/svg">
<g clip-path="url(#clip0_2468_1721)">
<path d="M189.998 0.00164795H133.333C131.499 0.00164795 129.999 1.50162 129.999 3.33493C129.999 5.16823 131.499 6.6682 133.333 6.6682H189.998C191.832 6.6682 193.332 8.16818 193.332 10.0015V13.3348H143.333C141.499 13.3348 139.999 14.8347 139.999 16.668C139.999 18.5013 141.499 20.0013 143.333 20.0013H193.332V43.3343H149.999C148.166 43.3343 146.666 44.8342 146.666 46.6675C146.666 48.5008 148.166 50.0008 149.999 50.0008H193.332V53.3341C193.332 55.1674 191.832 56.6674 189.998 56.6674H146.666C144.832 56.6674 143.333 58.1673 143.333 60.0006C143.333 61.8339 144.832 63.3339 146.666 63.3339H187.582L192.04 76.667H189.998H115.958C130.083 70.5005 139.999 56.3757 139.999 40.001C139.999 17.9597 122.041 0.00164795 99.9999 0.00164795C77.9586 0.00164795 60.0006 17.9597 60.0006 40.001C60.0006 56.3757 69.9171 70.5005 84.0418 76.667H10.0014H7.95978L12.418 63.3339H56.6673C58.5006 63.3339 60.0006 61.8339 60.0006 60.0006C60.0006 58.1673 58.5006 56.6674 56.6673 56.6674H10.0014C8.16811 56.6674 6.66813 55.1674 6.66813 53.3341V50.0008H50.0007C51.834 50.0008 53.334 48.5008 53.334 46.6675C53.334 44.8342 51.834 43.3343 50.0007 43.3343H6.66813V20.0013H56.6673C58.5006 20.0013 60.0006 18.5013 60.0006 16.668C60.0006 14.8347 58.5006 13.3348 56.6673 13.3348H6.66813V10.0015C6.66813 8.16818 8.16811 6.6682 10.0014 6.6682H70.0004C71.8337 6.6682 73.3337 5.16823 73.3337 3.33493C73.3337 1.50162 71.8337 0.00164795 70.0004 0.00164795H10.0014C4.5015 0.00164795 0.00157626 4.50157 0.00157626 10.0015V16.668V46.6675V53.3341C0.00157626 57.2924 2.33487 60.709 5.70981 62.3339L0.16824 78.9587C-0.165088 79.9586 0.00157622 81.0836 0.626566 81.9586C1.25156 82.8336 2.25154 83.3336 3.33485 83.3336H6.66813V180.624C2.7932 181.999 0.00157626 185.665 0.00157626 189.998V196.665C0.00157626 198.498 1.50155 199.998 3.33485 199.998H196.665C198.498 199.998 199.998 198.498 199.998 196.665V189.998C199.998 185.665 197.207 181.999 193.332 180.624V83.3336H196.665C197.748 83.3336 198.748 82.8336 199.373 81.9586C199.998 81.0836 200.165 79.9586 199.832 78.9587L194.29 62.3339C197.665 60.709 199.998 57.2924 199.998 53.3341V46.6675V16.668V10.0015C199.998 4.50157 195.498 0.00164795 189.998 0.00164795ZM66.6671 40.001C66.6671 21.6263 81.6252 6.6682 99.9999 6.6682C118.375 6.6682 133.333 21.6263 133.333 40.001C133.333 58.3757 118.375 73.3338 99.9999 73.3338C81.6252 73.3338 66.6671 58.3757 66.6671 40.001ZM13.3347 83.3336H186.665V179.999H120V156.666V143.333V93.3334C120 91.5001 118.5 90.0001 116.666 90.0001H83.3335C81.5002 90.0001 80.0002 91.5001 80.0002 93.3334V143.333V156.666V179.999H13.3347V83.3336ZM86.6668 153.332V146.666H113.333V153.332H86.6668ZM113.333 159.999V179.999H86.6668V159.999H113.333ZM86.6668 139.999V96.6667H113.333V139.999H86.6668ZM193.332 193.332H6.66813V189.998C6.66813 188.165 8.16811 186.665 10.0014 186.665H83.3335H116.666H189.998C191.832 186.665 193.332 188.165 193.332 189.998V193.332Z" fill="#2C2D65"/>
<path d="M70.0004 90.0001H23.3345C21.5012 90.0001 20.0012 91.5001 20.0012 93.3334V153.332V166.666C20.0012 168.499 21.5012 169.999 23.3345 169.999H70.0004C71.8337 169.999 73.3337 168.499 73.3337 166.666V153.332V93.3334C73.3337 91.5001 71.8337 90.0001 70.0004 90.0001ZM66.6671 163.332H26.6678V156.666H66.6671V163.332ZM66.6671 149.999H26.6678V96.6667H43.3342V110.458C37.5843 111.958 33.3343 117.125 33.3343 123.333C33.3343 125.166 34.8343 126.666 36.6676 126.666H56.6673C58.5006 126.666 60.0006 125.166 60.0006 123.333C60.0006 117.125 55.7506 111.958 50.0007 110.458V96.6667H66.6671V149.999ZM46.6674 116.666C49.1257 116.666 51.2924 118 52.4173 120H40.8759C42.0425 118 44.2091 116.666 46.6674 116.666Z" fill="#2C2D65"/>
<path d="M176.665 90.0001H129.999C128.166 90.0001 126.666 91.5001 126.666 93.3334V153.332V166.666C126.666 168.499 128.166 169.999 129.999 169.999H176.665C178.498 169.999 179.998 168.499 179.998 166.666V153.332V93.3334C179.998 91.5001 178.498 90.0001 176.665 90.0001ZM173.332 163.332H133.333V156.666H173.332V163.332ZM173.332 149.999H133.333V96.6667H149.999V110.458C144.249 111.958 139.999 117.125 139.999 123.333C139.999 125.166 141.499 126.666 143.332 126.666H163.332C165.165 126.666 166.665 125.166 166.665 123.333C166.665 117.125 162.415 111.958 156.666 110.458V96.6667H173.332V149.999ZM153.332 116.666C155.791 116.666 157.957 118 159.082 120H147.541C148.707 118 150.874 116.666 153.332 116.666Z" fill="#2C2D65"/>
<path d="M116.416 27.0012C115 19.2513 108.166 13.3348 100 13.3348C91.8334 13.3348 85.0002 19.2513 83.5836 27.0012C77.7087 28.3762 73.3337 33.6678 73.3337 40.001C73.3337 46.2092 77.5837 51.4175 83.3336 52.9175V63.3339C83.3336 65.1672 84.8335 66.6672 86.6669 66.6672H113.333C115.166 66.6672 116.666 65.1672 116.666 63.3339V52.9175C122.416 51.4175 126.666 46.2092 126.666 40.001C126.666 33.7094 122.291 28.4179 116.416 27.0012ZM113.333 46.6676C111.5 46.6676 110 48.1675 110 50.0008V60.0007H90.0001V50.0008C90.0001 48.1675 88.5002 46.6676 86.6669 46.6676C83.0002 46.6676 80.0003 43.6676 80.0003 40.001C80.0003 36.5427 82.6253 33.7511 86.0002 33.4178C90.2918 35.6261 90.1668 38.7927 90.0835 39.4593C89.7501 41.251 90.9584 42.9593 92.7501 43.2926C92.9584 43.3343 93.1667 43.3343 93.3751 43.3343C94.9584 43.3343 96.3334 42.2093 96.625 40.626C97.1667 37.7927 96.3334 31.9178 90.2085 28.1262C91.0834 23.5013 95.125 20.0013 100 20.0013C105.5 20.0013 110 24.5013 110 30.0012C110 31.8345 111.5 33.3344 113.333 33.3344C117 33.3344 120 36.3344 120 40.001C120 43.6676 117 46.6676 113.333 46.6676Z" fill="#2C2D65"/>
</g>
<defs>
<clipPath id="clip0_2468_1721">
<rect width="200" height="200" fill="white"/>
</clipPath>
</defs>
</svg>
