<?xml version="1.0" encoding="UTF-8"?>
<svg id="Layer_1" xmlns="http://www.w3.org/2000/svg" viewBox="0 0 100 100">
  <path d="M90.4,51.6c-5.2,0-9.4-4.2-9.4-9.4s4.2-9.4,9.4-9.4,9.4,4.2,9.4,9.4-4.2,9.4-9.4,9.4ZM90.4,35.9c-3.5,0-6.3,2.8-6.3,6.3s2.8,6.3,6.3,6.3,6.3-2.8,6.3-6.3-2.8-6.3-6.3-6.3Z"/>
  <path d="M90.4,46.6c-2.4,0-4.4-2-4.4-4.4s2-4.4,4.4-4.4,4.4,2,4.4,4.4-2,4.4-4.4,4.4h0ZM90.4,41c-.7,0-1.3.6-1.3,1.3s.6,1.3,1.3,1.3,1.3-.6,1.3-1.3-.6-1.3-1.3-1.3Z"/>
  <g>
    <path d="M27.2,76.9c-2.5,0-4.6-2-4.6-4.6v-14.7c-2.1-.4-4.1-.9-6.1-1.8-3.2-1.4-6.1-3.3-8.6-5.8-2.5-2.5-4.4-5.4-5.8-8.6-.9-2.2-1.6-4.6-1.9-6.9-.2-1.3.2-2.6,1.1-3.6.9-1,2.1-1.6,3.4-1.6,2.3,0,4.2,1.7,4.5,3.9,1.2,8.9,8.8,15.6,17.8,15.6h0c4.7,0,9.2-1.9,12.6-5.3,2.9-2.9,4.7-6.5,5.2-10.5.3-2.3,2.2-4,4.5-4s4.6,2,4.6,4.6,0,.4,0,.6c-.3,2.4-1,4.8-1.9,7-1.4,3.3-3.4,6.2-5.9,8.7-2.5,2.5-5.4,4.4-8.6,5.8-1.9.8-3.9,1.4-5.9,1.7v14.7c0,2.5-2,4.6-4.6,4.6h0ZM4.8,32.5c-.4,0-.8.2-1.1.5-.3.3-.4.7-.3,1.1.3,2.1.8,4.2,1.7,6.1,1.2,2.9,2.9,5.4,5.1,7.6,2.2,2.2,4.8,3.9,7.6,5.1,2.1.9,4.3,1.5,6.6,1.7.8,0,1.4.8,1.4,1.5v16.1c0,.8.6,1.4,1.4,1.4s1.4-.6,1.4-1.4v-16.1c0-.8.6-1.5,1.4-1.5,2.2-.3,4.3-.8,6.4-1.7,2.8-1.2,5.4-2.9,7.6-5.1,2.2-2.2,4-4.8,5.2-7.7.9-2,1.4-4.1,1.7-6.2,0,0,0-.1,0-.2,0-.8-.6-1.4-1.4-1.4s-1.3.5-1.4,1.2c-.6,4.7-2.7,8.9-6.1,12.3-4,4-9.2,6.2-14.8,6.2h0c-5.1,0-10.1-1.9-13.9-5.3-3.8-3.4-6.3-8-6.9-13,0-.7-.7-1.2-1.4-1.2h0Z"/>
    <g>
      <g>
        <path d="M4.4,32.5c-.9,0-1.6-.7-1.6-1.6V11.4C2.9,6.6,6.7,2.8,11.4,2.8h3.2c.9,0,1.6.7,1.6,1.6s-.7,1.6-1.6,1.6h-3.2c-3,0-5.5,2.4-5.5,5.5v19.6c0,.9-.7,1.6-1.6,1.6h0Z"/>
        <path d="M19.9,8.4h-2.8c-2.2,0-4-1.8-4-4h0c0-2.2,1.8-4,4-4h2.8c2.2,0,4,1.8,4,4h0c0,2.2-1.8,4-4,4ZM17.1,3.5c-.5,0-.9.4-.9.9h0c0,.5.4.9.9.9h2.8c.5,0,.9-.4.9-.9h0c0-.5-.4-.9-.9-.9h-2.8Z"/>
      </g>
      <g>
        <path d="M49.9,32.3c-.9,0-1.6-.7-1.6-1.6V11.4c0-3-2.4-5.5-5.5-5.5h-3.2c-.9,0-1.6-.7-1.6-1.6s.7-1.6,1.6-1.6h3.2c4.7,0,8.6,3.8,8.6,8.6v19.4c0,.9-.7,1.6-1.6,1.6Z"/>
        <path d="M37.2,8.4h-2.8c-2.2,0-4-1.8-4-4h0c0-2.2,1.8-4,4-4h2.8c2.2,0,4,1.8,4,4h0c0,2.2-1.8,4-4,4ZM34.4,3.5c-.5,0-.9.4-.9.9h0c0,.5.4.9.9.9h2.8c.5,0,.9-.4.9-.9h0c0-.5-.4-.9-.9-.9h-2.8Z"/>
      </g>
    </g>
  </g>
  <path d="M47.6,100.1c-.3,0-.5,0-.8,0h0c-5.7-.2-11.1-2.6-15-6.7-4-4.1-6.2-9.5-6.2-15.3v-2.8c0-.9.7-1.6,1.6-1.6s1.6.7,1.6,1.6v2.8c0,10.2,8,18.5,18.2,18.8h0c5.2.2,10-1.7,13.7-5.3,3.7-3.6,5.8-8.4,5.8-13.6V22.9c0-3.4,1.3-6.6,3.8-9.1,2.4-2.4,5.6-3.8,9.1-3.8,7.1,0,12.8,5.7,12.8,12.8v11.5c0,.9-.7,1.6-1.6,1.6s-1.6-.7-1.6-1.6v-11.5c0-5.3-4.3-9.7-9.7-9.7s-5,1-6.9,2.8c-1.8,1.8-2.8,4.3-2.8,6.9v55.2c0,3-.6,6-1.8,8.7-1.2,2.7-2.8,5-4.9,7.1-2.1,2-4.5,3.6-7.2,4.6-2.6,1-5.2,1.5-8,1.5h0Z"/>
</svg>