<svg width="32" height="32" viewBox="0 0 32 32" fill="none" xmlns="http://www.w3.org/2000/svg">
<g clip-path="url(#clip0_126_1559)">
<mask id="mask0_126_1559" style="mask-type:luminance" maskUnits="userSpaceOnUse" x="0" y="0" width="32" height="32">
<path d="M32 0H0V32H32V0Z" fill="white"/>
</mask>
<g mask="url(#mask0_126_1559)">
<path d="M10.9903 4.04001C11.3334 4.12594 11.6282 4.34462 11.81 4.64793C11.9917 4.95124 12.0456 5.31433 11.9597 5.65734L6.62634 26.9907C6.58636 27.1631 6.51244 27.3259 6.40889 27.4695C6.30534 27.6131 6.17425 27.7345 6.02324 27.8269C5.87224 27.9193 5.70434 27.9807 5.52937 28.0075C5.35438 28.0343 5.17582 28.026 5.00409 27.9831C4.83236 27.9401 4.67089 27.8635 4.52912 27.7575C4.38733 27.6515 4.26808 27.5183 4.1783 27.3657C4.08854 27.2131 4.03005 27.0443 4.00625 26.8688C3.98245 26.6933 3.99381 26.5149 4.03968 26.344L9.37301 5.01068C9.41542 4.84072 9.4909 4.68077 9.59514 4.54C9.6994 4.39922 9.83036 4.28036 9.98056 4.19022C10.1307 4.10008 10.2972 4.04041 10.4705 4.01464C10.6438 3.98886 10.8204 3.99749 10.9903 4.04001ZM22.6264 5.00934L27.9597 26.3427C28.0056 26.5136 28.0169 26.692 27.9931 26.8675C27.9693 27.0429 27.9108 27.2117 27.8211 27.3644C27.7313 27.5169 27.612 27.6501 27.4703 27.7561C27.3285 27.8621 27.1671 27.9388 26.9953 27.9817C26.8236 28.0247 26.6449 28.0329 26.47 28.0061C26.2951 27.9793 26.1271 27.918 25.9761 27.8256C25.8251 27.7332 25.694 27.6117 25.5905 27.4681C25.4869 27.3245 25.4129 27.1617 25.3731 26.9893L20.0397 5.65601C19.9939 5.48504 19.9824 5.30664 20.0063 5.13122C20.03 4.95581 20.0885 4.7869 20.1783 4.63433C20.2681 4.48177 20.3873 4.3486 20.5291 4.24261C20.6709 4.13661 20.8324 4.05992 21.0041 4.01698C21.1759 3.97405 21.3544 3.96574 21.5293 3.99254C21.7044 4.01934 21.8723 4.08073 22.0232 4.1731C22.1743 4.26548 22.3053 4.387 22.4089 4.53057C22.5124 4.67414 22.5864 4.83689 22.6264 5.00934ZM15.9997 22.6667C16.3263 22.6667 16.6415 22.7867 16.8855 23.0036C17.1296 23.2207 17.2855 23.5197 17.3237 23.844L17.3331 24V26.6667C17.3327 27.0065 17.2025 27.3333 16.9692 27.5805C16.7359 27.8276 16.4171 27.9763 16.0779 27.9963C15.7385 28.0161 15.4045 27.9057 15.1439 27.6876C14.8833 27.4696 14.7159 27.1601 14.6757 26.8227L14.6664 26.6667V24C14.6664 23.6464 14.8068 23.3072 15.0569 23.0572C15.3069 22.8072 15.646 22.6667 15.9997 22.6667ZM15.9997 13.3333C16.3533 13.3333 16.6924 13.4739 16.9425 13.7239C17.1925 13.9739 17.3331 14.3131 17.3331 14.6667V17.3333C17.3331 17.6869 17.1925 18.0261 16.9425 18.2761C16.6924 18.5261 16.3533 18.6667 15.9997 18.6667C15.646 18.6667 15.3069 18.5261 15.0569 18.2761C14.8068 18.0261 14.6664 17.6869 14.6664 17.3333V14.6667C14.6664 14.3131 14.8068 13.9739 15.0569 13.7239C15.3069 13.4739 15.646 13.3333 15.9997 13.3333ZM15.9997 4.00001C16.3263 4.00005 16.6415 4.11994 16.8855 4.33696C17.1296 4.55397 17.2855 4.85301 17.3237 5.17734L17.3331 5.33334V8.00001C17.3327 8.33985 17.2025 8.66672 16.9692 8.91384C16.7359 9.16094 16.4171 9.30965 16.0779 9.32957C15.7385 9.34949 15.4045 9.2391 15.1439 9.02098C14.8833 8.80286 14.7159 8.49346 14.6757 8.15601L14.6664 8.00001V5.33334C14.6664 4.97972 14.8068 4.64058 15.0569 4.39053C15.3069 4.14048 15.646 4.00001 15.9997 4.00001Z" fill="#272A63"/>
</g>
</g>
<defs>
<clipPath id="clip0_126_1559">
<rect width="32" height="32" fill="white"/>
</clipPath>
</defs>
</svg>
