<svg width="48" height="48" viewBox="0 0 48 48" fill="none" xmlns="http://www.w3.org/2000/svg">
<path d="M32.9999 19.125C34.1124 19.125 35.1999 18.7951 36.125 18.177C37.05 17.5589 37.771 16.6804 38.1967 15.6526C38.6224 14.6248 38.7338 13.4938 38.5168 12.4026C38.2998 11.3115 37.764 10.3092 36.9774 9.52253C36.1907 8.73586 35.1884 8.20013 34.0973 7.98309C33.0061 7.76604 31.8751 7.87744 30.8473 8.30318C29.8195 8.72892 28.9409 9.44989 28.3229 10.3749C27.7048 11.2999 27.3749 12.3875 27.3749 13.5C27.3749 14.9918 27.9675 16.4226 29.0224 17.4775C30.0773 18.5324 31.508 19.125 32.9999 19.125ZM32.9999 10.125C33.6674 10.125 34.3199 10.3229 34.8749 10.6938C35.4299 11.0646 35.8625 11.5917 36.118 12.2084C36.3734 12.8251 36.4403 13.5037 36.31 14.1584C36.1798 14.8131 35.8584 15.4145 35.3864 15.8865C34.9144 16.3585 34.313 16.6799 33.6583 16.8102C33.0036 16.9404 32.325 16.8735 31.7083 16.6181C31.0916 16.3626 30.5645 15.9301 30.1937 15.3751C29.8228 14.82 29.6249 14.1675 29.6249 13.5C29.6249 12.6049 29.9805 11.7465 30.6134 11.1135C31.2463 10.4806 32.1048 10.125 32.9999 10.125ZM41.3661 34.9838C41.4605 35.0975 41.5315 35.2287 41.5751 35.3699C41.6187 35.5111 41.634 35.6595 41.6203 35.8066C41.6065 35.9538 41.5639 36.0967 41.4949 36.2274C41.4259 36.3581 41.3318 36.4738 41.218 36.5681C38.0549 39.1931 35.218 40.1306 32.6399 40.1306C29.2293 40.1306 26.2405 38.5088 23.4636 36.9994C18.5886 34.3538 14.3811 32.0663 8.21801 37.1869C8.10314 37.2812 7.97083 37.3519 7.82862 37.3951C7.6864 37.4383 7.53708 37.453 7.38918 37.4385C7.24127 37.4239 7.09768 37.3804 6.96659 37.3104C6.83551 37.2403 6.7195 37.1452 6.6252 37.0303C6.43474 36.7983 6.34423 36.5002 6.3736 36.2015C6.40296 35.9028 6.54978 35.628 6.78176 35.4375C14.1186 29.3531 19.6536 32.3606 24.5361 35.0119C29.4186 37.6631 33.6186 39.945 39.7818 34.8244C39.8962 34.7307 40.028 34.6605 40.1696 34.6178C40.3112 34.5751 40.4598 34.5607 40.607 34.5755C40.7542 34.5903 40.8969 34.634 41.0272 34.7041C41.1575 34.7741 41.2726 34.8691 41.3661 34.9838ZM6.78176 27.9375C6.55201 28.128 6.40734 28.4019 6.37956 28.699C6.35178 28.9961 6.44318 29.2921 6.63363 29.5219C6.82409 29.7516 7.09802 29.8963 7.39514 29.9241C7.69227 29.9519 7.98827 29.8605 8.21801 29.67C14.3811 24.5588 18.5905 26.8444 23.4636 29.4825C26.2499 31.0013 29.2293 32.625 32.6399 32.625C35.2255 32.625 38.0549 31.6875 41.218 29.0625C41.3318 28.9682 41.4258 28.8524 41.4948 28.7217C41.5639 28.5911 41.6065 28.4481 41.6202 28.301C41.634 28.1539 41.6186 28.0055 41.575 27.8643C41.5314 27.7231 41.4604 27.5919 41.3661 27.4781C41.2718 27.3644 41.156 27.2703 41.0254 27.2013C40.8947 27.1323 40.7517 27.0897 40.6046 27.0759C40.4575 27.0622 40.3091 27.0775 40.1679 27.1211C40.0267 27.1647 39.8955 27.2357 39.7818 27.33C38.3793 28.4925 37.0761 29.2725 35.8443 29.7525L25.5674 19.4738C23.7956 17.6927 21.6881 16.2808 19.367 15.3198C17.0458 14.3587 14.5571 13.8677 12.0449 13.875H7.49988C7.20151 13.875 6.91537 13.9935 6.70439 14.2045C6.49341 14.4155 6.37488 14.7016 6.37488 15C6.37488 15.2984 6.49341 15.5845 6.70439 15.7955C6.91537 16.0065 7.20151 16.125 7.49988 16.125H12.0449C15.0185 16.119 17.9403 16.9039 20.5105 18.3994L14.4918 24.4181C12.1443 24.6113 9.59613 25.6069 6.78176 27.9375ZM23.9774 21.0675L33.2661 30.3581C30.2099 30.5944 27.4949 29.1206 24.5361 27.5138C22.3555 26.3288 20.0361 25.0763 17.503 24.5888L22.4061 19.6875C22.9568 20.1166 23.4815 20.578 23.9774 21.0694V21.0675Z" fill="#2C2D65"/>
</svg>
