<?xml version="1.0" encoding="UTF-8"?>
<svg id="Line" xmlns="http://www.w3.org/2000/svg" viewBox="0 0 100 100">
  <path d="M99.3,46.5v-14c0-1.1-.9-1.9-1.9-1.9h-5.5v-.6c0,0-3.1-27.5-3.1-27.5-.1-1-.9-1.7-1.9-1.7H13.1c-1,0-1.8.7-1.9,1.7l-2.4,21.1c0,.5,0,1,.4,1.4.3.4.8.7,1.3.7,0,0,.2,0,.2,0,1,0,1.8-.7,1.9-1.7l2.1-18.7v-.6h5v.8s-1.9,24.6-1.9,24.6v.6H2.6c-1.1,0-1.9.9-1.9,1.9v14c0,1.1.9,1.9,1.9,1.9h3.5v.8c0,0-5.4,48-5.4,48,0,.5.1,1.1.5,1.5.4.4.9.6,1.4.6h94.8c.5,0,1.1-.2,1.4-.6.4-.4.5-1,.5-1.5l-4.5-40.4c-.1-1-.9-1.7-1.9-1.7s-.1,0-.2,0c-1.1.1-1.8,1.1-1.7,2.1l4.2,37.5v.8c0,0-8.2,0-8.2,0v-.6s-3.4-45.6-3.4-45.6v-.8s13.9,0,13.9,0c1.1,0,1.9-.9,1.9-1.9ZM85.1,4.5v.6c0,0,2.8,24.6,2.8,24.6v.8c0,0-5.8,0-5.8,0v-.6s-1.9-24.6-1.9-24.6v-.8c0,0,4.9,0,4.9,0ZM77.8,24.5l.4,5.3v.8c0,0-26.2,0-26.2,0v-6.7h25.8v.7ZM22.6,19.2l1-14v-.7h52.6v.7s1.1,14,1.1,14v.8c0,0-54.8,0-54.8,0v-.8ZM21.8,29.8l.4-5.3v-.7h25.8v6.7h-26.3v-.8ZM16.5,49.2l-3.4,45.6v.6H4.8v-.8c0,0,5.2-45.6,5.2-45.6v-.6h6.7v.8ZM17,95.5v-.8c0,0,1.8-22.8,1.8-22.8v-.6h62.5v.6s1.7,22.8,1.7,22.8v.8c0,0-66,0-66,0ZM19.1,67.4v-.8c0,0,1.4-17.5,1.4-17.5v-.7h27.7v19h-29ZM51.9,67.4v-19h27.6v.7s1.3,17.5,1.3,17.5v.8c0,0-29,0-29,0ZM95.5,44.6H4.5v-10.2h90.9v10.2Z"/>
</svg>