<svg width="200" height="200" viewBox="0 0 200 200" fill="none" xmlns="http://www.w3.org/2000/svg">
<path d="M179.54 105.612C186.728 105.612 192.576 99.7645 192.576 92.5766C192.576 85.3887 186.728 79.541 179.54 79.541C176.971 79.541 174.575 80.291 172.554 81.5801C170.736 69.5367 165.979 58.4453 159.041 49.0578C161.396 48.5441 163.635 47.3777 165.461 45.5512C170.544 40.4688 170.544 32.1984 165.461 27.116C160.379 22.0336 152.109 22.0332 147.026 27.116C145.199 28.943 144.033 31.182 143.52 33.5359C134.132 26.598 123.041 21.8414 110.997 20.0234C112.286 18.0023 113.036 15.6063 113.036 13.0367C113.036 5.84766 107.188 0 100 0C92.8122 0 86.9641 5.84766 86.9641 13.0355C86.9641 15.6051 87.7145 18.0012 89.0032 20.0223C76.9598 21.8398 65.8684 26.5973 56.4813 33.5348C55.9676 31.1805 54.8008 28.941 52.9747 27.1148C47.8926 22.0324 39.6223 22.032 34.5395 27.1148C29.4571 32.1973 29.4571 40.4676 34.5395 45.55C36.3665 47.377 38.6051 48.543 40.9594 49.057C34.0215 58.4445 29.2649 69.5359 27.4473 81.5789C25.4262 80.2902 23.0301 79.5398 20.4606 79.5398C13.2727 79.5398 7.42505 85.3875 7.42505 92.5754C7.42505 99.7633 13.2727 105.611 20.4606 105.611C23.0301 105.611 25.4262 104.861 27.4473 103.572C29.2649 115.615 34.0223 126.707 40.9594 136.094C38.6051 136.607 36.3665 137.774 34.5395 139.6C29.4571 144.683 29.4571 152.953 34.5395 158.036C37.0809 160.577 40.4188 161.847 43.7567 161.847C47.0954 161.847 50.4333 160.577 52.9747 158.036C54.8016 156.209 55.9676 153.97 56.4813 151.616C60.5829 154.647 65.0083 157.263 69.6981 159.398L56.2708 193.126H21.3059C19.4079 193.126 17.8692 194.664 17.8692 196.563C17.8692 198.461 19.4079 199.999 21.3059 199.999H178.694C180.592 199.999 182.131 198.461 182.131 196.563C182.131 194.664 180.592 193.126 178.694 193.126H143.73L130.302 159.398C134.992 157.264 139.418 154.647 143.519 151.616C144.033 153.97 145.199 156.209 147.026 158.036C149.567 160.577 152.905 161.847 156.243 161.847C159.582 161.847 162.92 160.577 165.461 158.036C170.543 152.953 170.543 144.683 165.461 139.6C163.634 137.773 161.395 136.607 159.041 136.094C165.979 126.706 170.736 115.615 172.553 103.572C174.575 104.861 176.97 105.612 179.54 105.612ZM179.54 86.4133C182.938 86.4133 185.703 89.1777 185.703 92.5758C185.703 95.9738 182.938 98.7383 179.54 98.7383C176.142 98.7383 173.378 95.9738 173.378 92.5758C173.378 89.1777 176.142 86.4133 179.54 86.4133ZM20.4594 98.7387C17.0614 98.7387 14.2969 95.9742 14.2969 92.5762C14.2969 89.1781 17.0614 86.4137 20.4594 86.4137C23.8575 86.4137 26.6219 89.1781 26.6219 92.5762C26.6219 95.9742 23.8575 98.7387 20.4594 98.7387ZM151.886 31.975C153.087 30.7734 154.665 30.173 156.243 30.173C157.821 30.173 159.399 30.7738 160.6 31.975C163.003 34.3777 163.003 38.2875 160.6 40.6906C158.198 43.093 154.289 43.0934 151.885 40.6906C149.483 38.2875 149.483 34.3777 151.886 31.975ZM144.51 43.207L138.671 49.0457C129.178 40.6031 116.917 35.2113 103.438 34.4227V26.1598C119.19 26.9656 133.511 33.2801 144.51 43.207ZM116.287 92.5762C116.287 98.198 113.424 103.163 109.079 106.091L103.193 91.3051C102.672 89.9973 101.407 89.1395 99.9997 89.1395C98.5922 89.1395 97.3274 89.9977 96.8067 91.3051L90.92 106.091C86.5758 103.163 83.7122 98.198 83.7122 92.5762C83.7122 83.5953 91.0188 76.2891 99.9993 76.2891C108.981 76.2891 116.287 83.5957 116.287 92.5762ZM103.438 69.6723V41.3094C115.024 42.0785 125.572 46.7035 133.806 53.9117L113.758 73.959C110.782 71.7531 107.262 70.2437 103.438 69.6723ZM115.771 141.481C111.843 142.75 107.712 143.559 103.438 143.843V115.48C104.06 115.387 104.672 115.264 105.277 115.123L115.771 141.481ZM102.695 108.637C101.818 108.783 100.918 108.864 100 108.864C99.0817 108.864 98.1825 108.784 97.3051 108.637L100 101.868L102.695 108.637ZM96.5649 115.48V143.843C92.2903 143.559 88.1571 142.751 84.2293 141.481L94.7227 115.123C95.3286 115.265 95.9418 115.387 96.5649 115.48ZM96.5653 69.6723H96.5649C92.7399 70.2437 89.218 71.7535 86.2411 73.9598L66.1942 53.9129C74.4286 46.7039 84.9778 42.0781 96.5653 41.3098V69.6723ZM81.3805 78.8203C79.1762 81.7961 77.6672 85.316 77.0958 89.1395H48.7329C49.5016 77.5539 54.1258 67.007 61.3333 58.7734L81.3805 78.8203ZM77.0958 96.0125C77.6672 99.8367 79.177 103.358 81.3825 106.335L61.3344 126.38C54.1262 118.146 49.502 107.598 48.7333 96.0125H77.0958ZM86.2426 111.194C86.9145 111.691 87.6153 112.15 88.3395 112.574L77.8454 138.933C73.6086 136.9 69.693 134.302 66.1946 131.239L86.2426 111.194ZM81.6817 147.88C86.4055 149.448 91.3954 150.427 96.5649 150.729V158.993C90.3208 158.673 84.3024 157.488 78.6254 155.557L81.6817 147.88ZM100 165.954C103.398 165.954 106.163 168.718 106.163 172.116C106.163 175.514 103.398 178.279 100 178.279C96.602 178.279 93.8372 175.514 93.8372 172.116C93.8372 168.718 96.602 165.954 100 165.954ZM103.438 158.993V150.729C108.606 150.427 113.595 149.448 118.318 147.88L121.375 155.557C115.699 157.488 109.681 158.673 103.438 158.993ZM111.661 112.575C112.384 112.151 113.085 111.692 113.756 111.195L133.805 131.241C130.306 134.304 126.391 136.901 122.154 138.934L111.661 112.575ZM118.617 106.335C120.823 103.358 122.332 99.8367 122.904 96.0121H151.266C150.498 107.598 145.873 118.146 138.665 126.38L118.617 106.335ZM122.904 89.1387C122.332 85.3152 120.823 81.7953 118.618 78.8188L138.666 58.7715C145.873 67.0055 150.498 77.5531 151.267 89.1387H122.904ZM100 6.87305C103.398 6.87305 106.163 9.6375 106.163 13.0355C106.163 16.4336 103.398 19.198 100 19.198C96.602 19.198 93.8372 16.4336 93.8372 13.0355C93.8372 9.6375 96.602 6.87305 100 6.87305ZM96.5649 26.1598V34.4227C83.0844 35.2102 70.8215 40.6027 61.3274 49.0465L55.4887 43.2078C66.4895 33.2801 80.8114 26.9652 96.5649 26.1598ZM39.3989 40.6906C36.9961 38.2875 36.9961 34.3777 39.3989 31.975C40.6004 30.7734 42.1786 30.173 43.7563 30.173C45.3344 30.173 46.9125 30.7738 48.1137 31.975C50.5165 34.3777 50.5165 38.2875 48.1137 40.6906C45.711 43.093 41.802 43.0934 39.3989 40.6906ZM50.629 48.068L56.4676 53.907C48.0254 63.4 42.6348 75.6605 41.8465 89.1395H33.5836C34.3895 73.3883 40.7028 59.068 50.629 48.068ZM48.1141 153.177C45.7114 155.579 41.8024 155.58 39.3989 153.177C36.9961 150.774 36.9961 146.864 39.3989 144.462C40.6004 143.26 42.1786 142.659 43.7563 142.659C45.3344 142.659 46.9125 143.26 48.1137 144.462C50.5168 146.865 50.5168 150.774 48.1141 153.177ZM50.6286 137.084C40.7024 126.084 34.3891 111.764 33.5836 96.0121H41.8465C42.6348 109.491 48.0254 121.752 56.4676 131.245L50.6286 137.084ZM55.4883 141.945L61.3274 136.106C65.495 139.813 70.1954 142.93 75.2989 145.33L72.2434 153.004C66.0977 150.17 60.4543 146.426 55.4883 141.945ZM136.332 193.127H63.668L76.0809 161.947C80.2336 163.383 84.5528 164.458 89.0028 165.13C87.7141 167.151 86.9637 169.547 86.9637 172.116C86.9637 179.304 92.8118 185.152 99.9997 185.152C107.188 185.152 113.035 179.304 113.035 172.116C113.035 169.547 112.285 167.151 110.996 165.13C115.446 164.458 119.765 163.384 123.918 161.947L136.332 193.127ZM127.756 153.004L124.701 145.329C129.804 142.93 134.504 139.813 138.671 136.106L144.511 141.945C139.545 146.426 133.902 150.17 127.756 153.004ZM160.601 144.462C163.004 146.865 163.004 150.775 160.601 153.177C158.198 155.58 154.289 155.58 151.886 153.177C149.483 150.775 149.483 146.865 151.886 144.462C153.087 143.261 154.665 142.66 156.243 142.66C157.821 142.66 159.4 143.261 160.601 144.462ZM149.37 137.085L143.531 131.246C151.973 121.753 157.365 109.491 158.153 96.0121H166.416C165.611 111.764 159.297 126.085 149.37 137.085ZM158.153 89.1398C157.365 75.6605 151.974 63.3988 143.531 53.9062L149.37 48.0676C159.297 59.068 165.61 73.3879 166.416 89.1398H158.153Z" fill="#2C2D65"/>
</svg>
