<svg width="200" height="200" viewBox="0 0 200 200" fill="none" xmlns="http://www.w3.org/2000/svg">
<path d="M184.897 20.1973C176.569 20.1973 169.794 26.9727 169.794 35.3004C169.794 42.2141 174.464 48.0527 180.815 49.8387V67.4973H19.1852V49.8387C25.5359 48.0531 30.2066 42.2141 30.2066 35.3004C30.2066 26.9723 23.4313 20.1973 15.1035 20.1973C6.77539 20.1973 0 26.9727 0 35.3008C0 42.2145 4.6707 48.0531 11.0215 49.8391V175.721C11.0215 177.975 12.8492 179.803 15.1035 179.803C17.3574 179.803 19.1855 177.975 19.1855 175.721V169.581H180.815V175.721C180.815 177.975 182.642 179.803 184.897 179.803C187.151 179.803 188.979 177.975 188.979 175.721V49.8391C195.329 48.0535 200 42.2145 200 35.3008C200 26.9727 193.225 20.1973 184.897 20.1973ZM15.1031 42.2402C11.2766 42.2402 8.16367 39.1277 8.16367 35.3008C8.16367 31.4742 11.2766 28.3613 15.1031 28.3613C18.9297 28.3613 22.0426 31.4742 22.0426 35.3008C22.0426 39.1273 18.9297 42.2402 15.1031 42.2402ZM19.1852 139.391H39.3199V150.821H19.1852V139.391ZM180.815 161.417H19.1852V158.985H180.814L180.815 161.417ZM47.484 150.821V139.391H67.6191V150.821H47.484ZM75.7832 150.821V139.391H95.918V150.821H75.7832ZM104.082 150.821V139.391H124.217V150.821H104.082ZM132.381 150.821V139.391H152.516V150.821H132.381ZM180.815 150.821H160.68V139.391H180.815V150.821ZM180.815 131.227H160.68V101.436C160.68 99.182 158.852 97.3543 156.598 97.3543C154.344 97.3543 152.516 99.1816 152.516 101.436V131.227H132.381V101.436C132.381 99.182 130.553 97.3543 128.299 97.3543C126.045 97.3543 124.217 99.1816 124.217 101.436V131.227H104.082V101.436C104.082 99.182 102.254 97.3543 100 97.3543C97.7457 97.3543 95.918 99.1816 95.918 101.436V131.227H75.7832V101.436C75.7832 99.182 73.9555 97.3543 71.7012 97.3543C69.4473 97.3543 67.6191 99.1816 67.6191 101.436V131.227H47.4844V101.436C47.4844 99.182 45.6566 97.3543 43.4023 97.3543C41.1484 97.3543 39.3203 99.1816 39.3203 101.436V131.227H19.1852V75.6617H180.814L180.815 131.227ZM184.897 42.2402C181.07 42.2402 177.957 39.1273 177.957 35.3008C177.957 31.4742 181.07 28.3613 184.897 28.3613C188.723 28.3613 191.836 31.4742 191.836 35.3008C191.836 39.1273 188.723 42.2402 184.897 42.2402Z" fill="#2C2D65"/>
<path d="M100 83.9719C97.7462 83.9719 95.9185 85.7992 95.9185 88.0539V88.2305C95.9185 90.4848 97.7458 92.3125 100 92.3125C102.254 92.3125 104.083 90.4851 104.083 88.2305V88.0539C104.082 85.7992 102.254 83.9719 100 83.9719Z" fill="#2C2D65"/>
<path d="M71.7012 83.9719C69.4473 83.9719 67.6191 85.7992 67.6191 88.0539V88.2305C67.6191 90.4848 69.4469 92.3125 71.7012 92.3125C73.9551 92.3125 75.7832 90.4851 75.7832 88.2305V88.0539C75.7832 85.7992 73.9551 83.9719 71.7012 83.9719Z" fill="#2C2D65"/>
<path d="M43.4019 83.9719C41.148 83.9719 39.3198 85.7992 39.3198 88.0539V88.2305C39.3198 90.4848 41.1476 92.3125 43.4019 92.3125C45.6558 92.3125 47.4839 90.4851 47.4839 88.2305V88.0539C47.4839 85.7992 45.6562 83.9719 43.4019 83.9719Z" fill="#2C2D65"/>
<path d="M156.598 83.9719C154.344 83.9719 152.516 85.7992 152.516 88.0539V88.2305C152.516 90.4848 154.343 92.3125 156.598 92.3125C158.852 92.3125 160.68 90.4851 160.68 88.2305V88.0539C160.68 85.7992 158.852 83.9719 156.598 83.9719Z" fill="#2C2D65"/>
<path d="M128.299 83.9719C126.045 83.9719 124.217 85.7992 124.217 88.0539V88.2305C124.217 90.4848 126.044 92.3125 128.299 92.3125C130.553 92.3125 132.381 90.4851 132.381 88.2305V88.0539C132.381 85.7992 130.553 83.9719 128.299 83.9719Z" fill="#2C2D65"/>
</svg>
