<svg width="200" height="200" viewBox="0 0 200 200" fill="none" xmlns="http://www.w3.org/2000/svg">
<g clip-path="url(#clip0_2464_1705)">
<path d="M100 46.4285C70.4605 46.4285 46.4285 70.4606 46.4285 100C46.4285 129.539 70.4605 153.572 100 153.572C129.539 153.572 153.571 129.539 153.571 100C153.571 70.4606 129.539 46.4285 100 46.4285ZM100 146.429C74.3992 146.429 53.5714 125.601 53.5714 100C53.5714 74.3992 74.3992 53.5715 100 53.5715C125.601 53.5715 146.428 74.3992 146.428 100C146.428 125.601 125.601 146.429 100 146.429Z" fill="#2C2D65"/>
<path d="M100 0C44.8602 0 0 44.8602 0 100C0 155.14 44.8602 200 100 200C155.14 200 200 155.14 200 100C200 44.8602 155.14 0 100 0ZM100 192.857C48.7984 192.857 7.14297 151.202 7.14297 100C7.14297 48.7984 48.7984 7.14297 100 7.14297C151.202 7.14297 192.857 48.7984 192.857 100C192.857 151.202 151.202 192.857 100 192.857Z" fill="#2C2D65"/>
<path d="M116.56 100C119.537 97.3797 121.428 93.5539 121.428 89.2855C121.428 81.4086 115.019 75 107.141 75H92.8578C84.9796 75 78.571 81.4086 78.571 89.2855C78.571 93.5535 80.4625 97.3797 83.439 100C80.4625 102.62 78.571 106.446 78.571 110.714C78.571 118.591 84.9796 125 92.8578 125H107.141C115.019 125 121.428 118.591 121.428 110.714C121.428 106.446 119.537 102.62 116.56 100ZM107.141 117.857H92.8578C88.9183 117.857 85.714 114.653 85.714 110.714C85.714 106.775 88.9183 103.571 92.8578 103.571H107.141C111.08 103.571 114.286 106.775 114.286 110.714C114.286 114.653 111.08 117.857 107.141 117.857ZM107.141 96.4285H92.8578C88.9183 96.4285 85.714 93.2242 85.714 89.2855C85.714 85.3469 88.9183 82.1426 92.8578 82.1426H107.141C111.08 82.1426 114.286 85.3469 114.286 89.2855C114.286 93.2242 111.08 96.4285 107.141 96.4285Z" fill="#2C2D65"/>
</g>
<defs>
<clipPath id="clip0_2464_1705">
<rect width="200" height="200" fill="white"/>
</clipPath>
</defs>
</svg>
