<svg width="200" height="200" viewBox="0 0 200 200" fill="none" xmlns="http://www.w3.org/2000/svg">
<g clip-path="url(#clip0_2471_1907)">
<path d="M192.348 104.346H8.52187C4.8697 104.346 0 105.215 0 112.607V191.172C0 193.346 1.56522 195.302 3.69579 195.607C6.3913 195.998 8.69592 193.911 8.69592 191.302V143.476H191.304V191.172C191.304 193.345 192.87 195.302 195 195.606C197.696 195.998 200 193.911 200 191.302V112.607C200 108.607 199.391 104.346 192.348 104.346ZM191.304 134.781H8.69551V113.042H191.304V134.781Z" fill="#2C2D65"/>
<path d="M104.348 86.9546C101.739 86.9546 99.6521 89.2588 100.043 91.9547C100.348 94.1285 102.304 95.6505 104.478 95.6505H152.043C154.217 95.6505 156.174 94.0853 156.478 91.9547C156.869 89.2592 154.782 86.9546 152.174 86.9546H104.348Z" fill="#2C2D65"/>
<path d="M69.5652 78.2587H186.956C189.348 78.2587 191.304 76.3022 191.304 73.9108V8.69342C191.304 6.30198 189.348 4.34546 186.956 4.34546H69.5652C67.1738 4.34546 65.2173 6.30198 65.2173 8.69342V73.9108C65.2173 76.3022 67.1738 78.2587 69.5652 78.2587ZM73.9128 13.0414H182.609V69.5632H73.9128V13.0414Z" fill="#2C2D65"/>
<path d="M13.0435 95.6501H52.1739C54.5654 95.6501 56.5219 93.6936 56.5219 91.3021V13.0413C56.5219 10.6499 54.5654 8.69336 52.1739 8.69336H13.0435C10.6521 8.69336 8.69556 10.6499 8.69556 13.0413V91.3021C8.69556 93.6936 10.6521 95.6501 13.0435 95.6501ZM17.3915 17.3893H47.8264V86.9546H17.3915V17.3893Z" fill="#2C2D65"/>
</g>
<defs>
<clipPath id="clip0_2471_1907">
<rect width="200" height="200" fill="white"/>
</clipPath>
</defs>
</svg>
