<?xml version="1.0" encoding="UTF-8"?>
<svg id="Layer_1" xmlns="http://www.w3.org/2000/svg" viewBox="0 0 100 100">
  <defs>
    <style>
      .cls-1 {
        fill-rule: evenodd;
      }
    </style>
  </defs>
  <path class="cls-1" d="M86.9,53.3c0,.8-.6,1.5-1.5,1.5h-3.7c-.8,0-1.4-.6-1.4-1.5s.6-1.5,1.4-1.5h3.7c.8,0,1.5.7,1.5,1.5ZM39.6,72.9c0,.8-.6,1.5-1.4,1.5h-11.5c-.8,0-1.4-.6-1.4-1.5s.6-1.5,1.4-1.5h11.5c.8,0,1.4.7,1.4,1.5h0ZM26.3,67.1c0-.8.6-1.5,1.5-1.5h9.2c.8,0,1.4.7,1.4,1.5s-.6,1.5-1.4,1.5h-9.2c-.8,0-1.5-.7-1.5-1.5ZM48.8,73.7c-2.1,0-3.7-1.7-3.7-3.7s1.7-3.7,3.7-3.7,3.7,1.7,3.7,3.7-1.7,3.7-3.7,3.7h0ZM48.8,63.4c-3.7,0-6.6,3-6.6,6.6s3,6.6,6.6,6.6,6.6-3,6.6-6.6-3-6.6-6.6-6.6h0ZM15.9,73.7c-2.1,0-3.7-1.7-3.7-3.7s1.7-3.7,3.7-3.7,3.7,1.7,3.7,3.7-1.7,3.7-3.7,3.7ZM15.9,63.4c-3.7,0-6.6,3-6.6,6.6s3,6.6,6.6,6.6,6.6-3,6.6-6.6-3-6.6-6.6-6.6h0ZM76.2,31.1c0-.8.6-1.5,1.4-1.5h3.7c.8,0,1.5.7,1.5,1.5s-.6,1.5-1.5,1.5h-3.7c-.8,0-1.4-.7-1.4-1.5ZM94.9,68.7c.2-.3.2-.7,0-1l-4.2-11.9-2.5-5.8c-2-1.1-3.9-1.8-5.9-2.2-.6-.1-1.1-.6-1.2-1.2l-.5-2.9c-.1-.6.2-1.3.8-1.6,1.8-.9,3-2.8,3.1-5-3.4.7-6.7.7-10.1,0,.1,2.2,1.3,4.2,3.1,5.1.6.3.9.9.8,1.6l-.5,2.9c0,.6-.6,1.1-1.2,1.2-2,.4-4,1.1-6,2.2l-3.8,6.8c-.5.8-1.6,1-2.3.3l-4.6-4.5c-.2-.2-.6-.4-.9-.4-1.2,0-1.7,1.4-.9,2.2l6.9,6.6c.6.6,1.5.5,2.1-.1l3.5-4.2c.9-1,2.6-.4,2.6.9v6.2h12.5v-4.5c0-1.6,2.3-2,2.8-.5l3.8,9.4c0,.3.3.7,1.9.8.2-.1.4-.3.5-.6h0ZM85.8,88.3c0,.7-.6,1.4-1.3,1.4-.7,0-1.4-.5-1.5-1.2l-2-16.5c-.2-1.7-2.7-1.7-2.9,0l-2,16.5c0,.7-.7,1.3-1.5,1.2-.7,0-1.3-.7-1.3-1.4v-21.3h12.5v21.3ZM58.2,79.4c.8,0,1.5-.8,1.5-1.8v-16.9H5v16.9c0,1,.7,1.8,1.5,1.8h51.7ZM54.6,88.9c0,.5-.4.9-.9.9h-5.8c-.5,0-.8-.4-.8-.9v-6.6h7.5v6.6ZM17.6,88.9c0,.5-.4.9-.8.9h-5.8c-.5,0-.9-.4-.9-.9v-6.6h7.5v6.6ZM12.7,24.2h18.2v33.6H5v-24.9c0-4.8,3.5-8.7,7.8-8.7ZM5,18.9v6c1.9-2.2,4.7-3.7,7.8-3.7h39.2c3.1,0,5.8,1.4,7.8,3.7v-6c0-4.8-3.5-8.7-7.8-8.7H12.7c-4.3,0-7.8,3.9-7.8,8.7ZM59.8,49.5c-4.1-.6-6.4,4.4-3.5,7.2l1.1,1h-23.5V24.2h18.2c4.3,0,7.8,3.9,7.8,8.7v16.7h0ZM79.6,27.6c-4.3,0-6.6,1.3-6.8,1.8,0,0,.2.3.7.6.4.2.7.6.7,1.1l.3,3c3.4.8,6.8.8,10.1,0l.3-3c0-.5.3-.9.7-1.1.5-.3.7-.5.7-.6-.2-.5-2.5-1.8-6.8-1.8h0ZM97.7,66.7l-4.2-12-2.7-6.3c-.1-.3-.3-.5-.6-.7-2-1.2-4.1-2-6.2-2.5l-.2-1c2.3-1.6,3.8-4.4,3.8-7.5s0-.9,0-1.4l.3-3.3c2.4-1.8,2-4.8-1.8-6.4-3.6-1.4-9.2-1.4-12.7,0-3.9,1.5-4.2,4.5-1.8,6.4l.3,3.1c0,.5-.1,1-.1,1.5,0,3.1,1.5,5.9,3.8,7.5l-.2,1c-2.1.5-4.2,1.3-6.3,2.5-.2.1-.4.3-.5.6l-3,5.5-2.7-2.6V18.9c0-6.4-4.8-11.6-10.7-11.6H12.7c-5.9,0-10.7,5.2-10.7,11.6v58.6c0,2.6,2,4.7,4.5,4.7h.7v6.6c0,2.1,1.7,3.8,3.8,3.8h5.8c2.1,0,3.8-1.7,3.8-3.8v-6.6h23.6v6.6c0,2.1,1.7,3.8,3.8,3.8h5.8c2.1,0,3.8-1.7,3.8-3.8v-6.6h.7c2.4,0,4.4-2.1,4.4-4.7v-14.6l.5.5c1.8,1.7,4.7,1.6,6.3-.3l1-1.2v26.5c0,2.3,1.8,4.2,4.1,4.3,2.3.1,4.3-1.5,4.5-3.8l.5-4.6.6,4.6c.3,2.3,2.3,3.9,4.5,3.8,2.3-.1,4-2,4-4.3v-21.5s1.1,2.8,1.1,2.8c1,2.6,3.9,2.6,4.8,2.6s.3,0,.5,0c2.2-.8,3.3-3.2,2.6-5.4h0Z"/>
</svg>