<svg width="200" height="200" viewBox="0 0 200 200" fill="none" xmlns="http://www.w3.org/2000/svg">
<g clip-path="url(#clip0_2468_1736)">
<path d="M189.141 162.98H147.996C147.962 162.98 147.928 162.981 147.894 162.981C147.125 162.981 146.451 162.464 146.252 161.715L139.092 134.998H139.775C148.459 134.998 155.525 127.932 155.525 119.247V105.62C155.525 96.9349 148.459 89.8692 139.775 89.8692H70.0464L65.3313 72.2728H114.677C117.313 72.2728 119.45 70.136 119.45 67.5C119.45 64.864 117.313 62.7272 114.677 62.7272H62.7736L50.4483 16.7287C47.8094 6.87906 38.8513 0 28.6642 0C26.6963 0 24.728 0.260118 22.8132 0.773196C10.7952 3.99341 3.63793 16.3908 6.85767 28.4087L30.937 118.274C33.5754 128.122 42.5335 135 52.7215 135C52.8256 135 52.9292 135 53.0332 134.998H91.6138V190.454H53.3139C50.6778 190.454 48.541 192.591 48.541 195.227C48.541 197.863 50.6778 200 53.3139 200H139.459C142.095 200 144.232 197.863 144.232 195.227C144.232 192.591 142.095 190.454 139.459 190.454H101.16V134.998H129.21L137.031 164.186C138.353 169.119 142.804 172.527 147.892 172.527C147.938 172.527 147.983 172.526 148.028 172.526H189.141C191.777 172.526 193.914 170.389 193.914 167.753C193.914 165.117 191.777 162.98 189.141 162.98ZM25.2836 9.99332C26.3928 9.69645 27.5302 9.54563 28.6642 9.54563C34.539 9.54563 39.7051 13.5152 41.2281 19.1996L52.8915 62.7277H25.9356L16.0783 25.9383C14.2202 19.0044 18.3496 11.8514 25.2836 9.99332ZM52.9988 125.452C52.974 125.452 52.9492 125.453 52.9239 125.453L52.7215 125.454C46.8467 125.454 41.6796 121.486 40.1571 115.803L28.4933 72.2728H55.4487L61.7737 95.8772C62.3326 97.9639 64.2236 99.4149 66.3837 99.4149H139.775C143.196 99.4149 145.979 102.198 145.979 105.62V119.247C145.979 122.669 143.196 125.452 139.775 125.452H52.9988V125.452Z" fill="#2C2D65"/>
</g>
<defs>
<clipPath id="clip0_2468_1736">
<rect width="200" height="200" fill="white"/>
</clipPath>
</defs>
</svg>
