<svg width="200" height="200" viewBox="0 0 200 200" fill="none" xmlns="http://www.w3.org/2000/svg">
<path d="M58.5814 139.729H45.354V145.664H58.5814V139.729Z" fill="#2C2D65"/>
<path d="M182.098 146.566V158.509C182.098 166.277 175.778 172.596 168.01 172.596H144.395V157.634H170.977V133.115C170.977 113.195 154.771 96.9896 134.851 96.9896H123.594C112.115 96.9896 102.777 87.6506 102.777 76.1712V9.50159H8.9758V157.634H35.5583V172.597H0V178.531H168.01C179.051 178.531 188.033 169.55 188.033 158.509V146.566H182.098V146.566ZM46.0821 172.576H41.4927V157.634H46.0821V172.576ZM81.747 172.596H52.0165V157.634H81.747V172.596ZM92.2713 172.576H87.6814V157.634H92.2713V172.576ZM127.936 172.596H98.2057V157.634H127.936V172.596ZM98.2061 151.7H81.747H52.0165H35.5583H14.9102V145.666H37.3735V139.731H14.9102V15.436H96.8428V39.5485H67.7349V45.4829H96.8428V51.5169H67.7349V57.4513H96.8428V63.4861H67.7349V69.4205H96.8428V75.4548H67.7349V81.3892H97.3572C99.7916 93.651 110.629 102.924 123.594 102.924H134.851C151.499 102.924 165.043 116.468 165.043 133.115V151.7H144.395H127.937L98.2061 151.7ZM138.46 172.576H133.871V157.634H138.46V172.576Z" fill="#2C2D65"/>
<path d="M194.066 146.566V158.509C194.066 172.875 182.377 184.564 168.01 184.564H0V190.498H168.01C185.649 190.498 200 176.148 200 158.509V146.566H194.066Z" fill="#2C2D65"/>
</svg>
