<svg width="100" height="100" viewBox="0 0 100 100" fill="none" xmlns="http://www.w3.org/2000/svg">
<path d="M65.3001 51.8C68.0001 52.6 70.8001 52.7 73.6001 51.9C76.3001 51.2 78.7001 49.6 80.6001 47.5L96.8001 31.3C99.5001 28.4 99.4001 23.8 96.5001 21.1C94.9001 19.6 92.8001 18.9 90.6001 19.2C90.6001 15.2 87.4001 11.8 83.3001 11.8C83.3001 11.8 83.2001 11.8 83.1001 11.8C83.5001 7.79997 80.7001 4.19997 76.7001 3.79997C74.6001 3.59997 72.5001 4.29997 70.9001 5.69997L54.8001 21.8C52.7001 23.7 51.1001 26.1 50.3001 28.8C49.6001 31.5 49.6001 34.4 50.4001 37.1C50.8001 38.6 50.5001 40.2 49.5001 41.3C49.2001 41.1 49.0001 40.8 48.7001 40.6C47.0001 39.1 46.2001 37 46.4001 34.8C47.1001 27.5 43.7001 19.3 37.4001 12.9C27.5001 2.99997 13.3001 0.99997 5.8001 8.49997C-1.6999 16 0.300103 30.2 10.3001 40.2C16.6001 46.5 24.8001 49.9 32.2001 49.2C34.4001 49 36.6001 49.8 38.0001 51.5C38.1001 51.6 38.3001 51.8 38.4001 51.9C28.5001 60.4 12.9001 74.2 8.8001 79.4C7.1001 81.3 6.1001 83.8 6.0001 86.3C6.0001 91.7 10.5001 96.1 15.9001 96.2C18.5001 96.2 21.0001 95.1 22.9001 93.4C26.3001 90.6 35.1001 81.1 49.8001 64.5C64.4001 80.5 76.4001 92.9 76.5001 93.1C80.2001 97.1 86.4001 97.3 90.4001 93.6C94.4001 89.9 94.6001 83.7 90.9001 79.7C90.7001 79.5 90.6001 79.4 90.4001 79.2C90.2001 79 77.6001 66.9 61.6001 52.3C62.7001 51.6 64.0001 51.5 65.3001 51.8ZM20.7001 90.7C19.4001 91.9 17.8001 92.6 16.1001 92.7C12.5001 92.7 9.6001 89.8 9.6001 86.2C9.7001 84.4 10.5001 82.8 11.7001 81.5C14.6001 77.8 25.1001 68 40.8001 54.5C43.1001 57 45.3001 59.5 47.5001 61.9C32.8001 78.6 24.0001 88 20.8001 90.7H20.7001ZM88.2001 90.9C85.6001 93.4 81.5001 93.3 79.0001 90.7C78.8001 90.5 59.9001 70.8 40.6001 49.2C38.4001 46.7 35.1001 45.4 31.8001 45.8C25.6001 46.4 18.3001 43.3 12.8001 37.8C4.3001 29.2 2.1001 17.1 8.3001 11C14.5001 4.89997 27.1001 7.49997 35.1001 15.5C40.6001 21 43.7001 28.3 43.1001 34.5C42.8001 37.8 44.1001 41.1 46.6001 43.3C67.9001 62.3 87.5001 81.1 88.1001 81.7C90.7001 84.2 90.8001 88.3 88.3001 90.9H88.2001ZM52.2001 43.8C54.0001 41.7 54.6001 38.9 53.8001 36.2C53.2001 34.1 53.1001 31.9 53.7001 29.9C54.3001 27.8 55.5001 25.9 57.2001 24.5L73.4001 8.29997C76.7001 4.99997 81.9001 10.3 78.7001 13.6L66.8001 25.5C66.1001 26.2 66.1001 27.3 66.8001 28C67.5001 28.7 68.6001 28.7 69.3001 28L69.5001 27.8L80.9001 16.4C81.6001 15.8 82.4001 15.4 83.4001 15.4C85.5001 15.4 87.1001 17.1 87.1001 19.2C87.1001 20.1 86.8001 20.9 86.2001 21.6L74.8001 33L74.6001 33.2C73.9001 33.9 73.9001 35 74.6001 35.7C75.3001 36.4 76.4001 36.4 77.1001 35.7L89.1001 23.7C92.4001 20.4 97.6001 25.7 94.4001 29L78.1001 45.3C76.7001 46.9 74.8001 48.1 72.8001 48.7C70.7001 49.3 68.5001 49.2 66.5001 48.6C64.0001 47.9 61.2001 48.4 59.2001 50C57.0001 48 54.8001 46 52.5001 43.9L52.2001 43.8Z" fill="#2C2D65"/>
</svg>
