<svg width="100" height="100" viewBox="0 0 100 100" fill="none" xmlns="http://www.w3.org/2000/svg">
<path d="M51.1999 87.1C42.3999 87.1 33.4999 87.1 24.6999 87.1C20.3999 87.1 16.8999 85.4 14.4999 81.7C13.3999 79.9 12.8999 77.9 12.8999 75.8C12.8999 67.9 12.8999 60.1 12.8999 52.2C12.8999 50.7 12.4999 49.6 11.3999 48.5C7.99988 45 4.79988 41.5 1.49988 38C-0.00011611 36.4 -0.00011611 34 1.39988 32.3C2.89988 30.5 5.69988 30.4 6.99988 31.5C9.79988 33.7 12.5999 35.8 15.2999 38C17.5999 39.8 19.9999 41.7 22.2999 43.5C22.4999 43.7 22.9999 43.8 23.0999 43.7C23.2999 43.5 23.4999 43.2 23.4999 42.9C23.4999 41.9 22.9999 41.1 22.1999 40.4C20.8999 39.4 19.6999 38.5 18.9999 37C17.8999 34.7 17.7999 32.3 18.9999 30C18.9999 30 18.9999 29.9 19.0999 29.8C19.0999 29.4 19.2999 28.9 19.2999 28.5C18.8999 28.6 18.3999 28.6 17.9999 28.9C13.8999 31.1 8.79988 29.9 6.49988 25.9C4.19988 21.9 5.29988 16.1 10.0999 14C14.8999 11.9 18.4999 13.7 20.7999 16.7C22.5999 19 22.6999 23.1 21.0999 26C20.8999 26.3 20.8999 26.8 20.7999 27.2C21.1999 27.2 21.6999 27.2 22.0999 27C24.3999 25.5 28.8999 25.9 31.2999 28.3C32.9999 30 34.8999 31.4 37.1999 32.3C39.0999 33 40.9999 33.5 43.0999 32.8C45.1999 32.2 47.3999 31.7 49.4999 31.2C51.4999 30.7 53.3999 31.2 55.1999 32.2C55.7999 32.5 56.5999 32.7 57.2999 32.6C59.7999 32.4 62.2999 32.2 64.6999 31.7C67.6999 31.1 69.8999 32.2 72.0999 34.1C76.7999 38.3 81.5999 42.3 86.3999 46.4C89.3999 49 89.1999 53.4 85.8999 55.6C85.3999 56 84.6999 56 84.0999 56.3C83.7999 56.4 83.3999 56.8 83.3999 57C83.3999 57.3 83.6999 57.7 83.9999 57.8C88.1999 59.7 92.3999 61.5 96.5999 63.3C98.6999 64.2 99.8999 66.5 99.3999 68.4C98.7999 70.7 96.6999 72 94.2999 71.7C93.1999 71.6 91.9999 71.5 90.8999 71.4C89.9999 71.4 89.4999 71.8 89.5999 72.7C89.5999 73.8 89.5999 74.9 89.5999 75.9C89.6999 82.2 84.6999 87.2 78.1999 87.2C69.0999 87.2 60.0999 87.2 50.9999 87.2L51.1999 87.1ZM51.1999 84.9C53.7999 84.9 56.3999 84.9 58.9999 84.9C65.4999 84.9 71.8999 84.9 78.3999 84.9C82.6999 84.9 86.2999 81.7 87.1999 78.4C87.7999 76.1 87.5999 73.7 87.5999 71.4C87.5999 71 87.0999 70.5 86.7999 70.3C85.2999 69.5 83.7999 68.9 82.2999 68.2C78.4999 66.5 74.6999 64.9 70.8999 63.2C67.0999 61.5 63.1999 60.5 58.9999 60.5C52.8999 60.5 46.6999 60.5 40.5999 60.5C37.5999 60.5 34.5999 60.2 31.6999 59.6C26.2999 58.5 21.1999 56.3 16.6999 53.1C16.3999 52.9 15.8999 52.7 15.5999 52.8C15.2999 52.9 15.1999 53.5 15.1999 53.9C15.1999 61.5 15.1999 69.1 15.1999 76.7C15.1999 78.2 15.6999 79.6 16.4999 80.8C18.3999 83.6 21.0999 85.1 24.5999 85.1C33.4999 85.1 42.3999 85.1 51.2999 85.1L51.1999 84.9ZM86.2999 50.7C86.2999 49.5 85.7999 48.6 84.9999 47.9C79.7999 43.4 74.5999 39 69.3999 34.5C68.4999 33.7 67.3999 33.4 66.1999 33.5C63.1999 33.9 60.0999 34.3 57.0999 34.7C56.0999 34.9 55.1999 34.7 54.3999 34.1C53.2999 33.2 51.8999 32.7 50.4999 33C48.2999 33.5 46.0999 34 43.8999 34.6C41.9999 35.1 40.0999 35.1 38.1999 34.6C34.9999 33.8 32.3999 32.1 29.9999 29.9C29.3999 29.4 28.7999 28.9 28.1999 28.6C26.1999 27.6 24.2999 27.7 22.4999 29C20.8999 30.2 20.0999 31.8 20.2999 33.9C20.5999 36.9 22.8999 38.6 25.1999 39.7C29.3999 41.8 33.8999 43.4 38.3999 45.1C39.7999 45.6 41.2999 45.9 42.7999 45.8C45.1999 45.6 47.5999 44.9 49.8999 44.4C51.2999 44.1 52.6999 43.5 53.9999 43C54.7999 42.7 55.4999 42 56.2999 41.9C59.1999 41.4 62.0999 41.1 64.9999 40.8C65.4999 40.8 66.1999 41 66.6999 41.4C68.4999 42.9 70.2999 44.4 72.0999 46C75.0999 48.5 77.9999 51 80.9999 53.5C82.0999 54.4 83.3999 54.4 84.5999 53.8C85.6999 53.2 86.3999 52.2 86.3999 50.8L86.2999 50.7ZM94.8999 69.6C96.1999 69.4 97.0999 68.9 97.2999 67.8C97.5999 66.8 96.9999 65.7 95.7999 65.1C92.7999 63.8 89.8999 62.4 86.8999 61.1C83.7999 59.7 80.6999 58.3 77.4999 57C74.9999 56 72.4999 54.9 69.8999 54.3C64.5999 53.2 59.0999 52.3 53.6999 51.4C53.1999 51.4 52.4999 51.5 52.0999 51.8C50.9999 52.6 49.7999 52.8 48.4999 52.8C41.8999 52.8 35.2999 53 28.5999 53C26.3999 53 26.1999 52.7 25.3999 50.7C24.8999 49.4 24.7999 48 23.4999 47C18.9999 43.5 14.5999 39.9 10.1999 36.4C8.69988 35.2 7.19988 34.1 5.69988 32.9C4.99988 32.4 4.29988 32.4 3.59988 33C2.39988 34 2.39988 35.3 3.59988 36.5C5.59988 38.6 7.59988 40.7 9.49988 42.8C11.3999 44.8 13.0999 47 15.1999 48.7C19.0999 52.1 23.5999 54.5 28.5999 56C32.7999 57.3 37.0999 58.1 41.4999 58C47.8999 58 54.2999 58 60.5999 58C62.7999 58 64.9999 58.4 66.9999 59.1C70.8999 60.4 74.5999 62 78.3999 63.6C81.5999 65 84.7999 66.7 88.0999 67.9C90.2999 68.7 92.6999 68.8 95.0999 69.2L94.8999 69.6ZM53.4999 46.2C53.4999 46.9 53.6999 47.4 53.6999 47.9C53.6999 48.8 54.0999 49.2 54.9999 49.4C58.7999 50.1 62.5999 50.8 66.2999 51.4C69.7999 52 73.3999 52.7 76.6999 54.2C76.9999 54.3 77.4999 54.2 77.8999 54.2C77.7999 53.9 77.6999 53.5 77.4999 53.3C76.1999 52.2 74.8999 51.1 73.5999 50C70.9999 47.8 68.3999 45.5 65.6999 43.3C65.2999 43 64.6999 42.9 64.1999 42.9C62.4999 43.1 60.7999 43.5 59.0999 43.6C57.1999 43.7 55.6999 44.7 54.1999 45.6C53.8999 45.8 53.7999 46.2 53.6999 46.3L53.4999 46.2ZM13.9999 15.1C10.5999 14.9 7.39988 18.3 7.59988 21.6C7.69988 25.1 10.6999 27.8 13.8999 27.8C17.2999 27.8 20.2999 24.9 20.2999 21.4C20.2999 18.2 16.9999 14.9 14.0999 15.2L13.9999 15.1ZM38.6999 50.9C41.6999 50.9 44.7999 50.9 47.7999 50.9C48.4999 50.9 49.0999 50.9 49.7999 50.7C50.9999 50.4 51.7999 48.8 51.4999 47.6C51.1999 46.6 50.3999 46.4 48.9999 46.7C47.5999 47.1 46.2999 47.5 44.8999 47.6C43.1999 47.8 41.2999 48.2 39.7999 47.6C35.5999 46.3 31.5999 44.5 27.4999 42.9C26.3999 42.5 25.7999 42.7 25.9999 43.9C26.1999 45.6 26.6999 47.2 27.0999 48.8C27.4999 50.5 28.5999 50.8 30.1999 50.7C33.0999 50.6 35.9999 50.7 38.7999 50.7L38.6999 50.9Z" fill="#2C2D65"/>
</svg>
