<svg width="200" height="200" viewBox="0 0 200 200" fill="none" xmlns="http://www.w3.org/2000/svg">
<g clip-path="url(#clip0_2499_10194)">
<path d="M153.186 164.142C155.606 164.142 157.568 162.18 157.568 159.76C157.568 157.34 155.606 155.379 153.186 155.379H149.114C148.21 151.154 144.448 147.976 139.957 147.976H128.286V145.772C128.286 138.956 122.74 133.41 115.923 133.41H104.382V128.289H116.057C122.8 128.289 128.286 122.803 128.286 116.061V65.9206C128.286 59.1784 122.8 53.6927 116.057 53.6927H113.978C114.15 53.2236 114.243 52.7176 114.243 52.1895C114.243 49.7695 112.282 47.8079 109.862 47.8079H90.1375C87.7175 47.8079 85.7559 49.7695 85.7559 52.1895C85.7559 52.7176 85.8495 53.2236 86.0206 53.6927H83.9414C77.1984 53.6927 71.7126 59.1784 71.7126 65.9206V116.061C71.7126 122.803 77.1984 128.289 83.9414 128.289H95.6186V133.41H84.0766C77.2593 133.41 71.7131 138.956 71.7131 145.773V147.977H60.0419C55.5509 147.977 51.7883 151.154 50.8848 155.379H46.8122C44.3921 155.379 42.4306 157.341 42.4306 159.761C42.4306 162.181 44.3921 164.142 46.8122 164.142H50.8848C51.7883 168.368 55.5509 171.545 60.0419 171.545H82.4503V191.236H76.0942C73.6742 191.236 71.7126 193.197 71.7126 195.617C71.7126 198.037 73.6742 199.999 76.0942 199.999H86.7226C86.795 200.001 86.8679 200.001 86.9408 199.999H113.058C113.095 200 113.131 200 113.167 200C113.204 200 113.24 200 113.276 199.999H123.904C126.324 199.999 128.285 198.037 128.285 195.617C128.285 193.197 126.324 191.236 123.904 191.236H117.549V171.545H139.956C144.448 171.545 148.21 168.368 149.114 164.142L153.186 164.142ZM83.9414 119.526C82.0306 119.526 80.4758 117.971 80.4758 116.061V65.9206C80.4758 64.0102 82.0306 62.4559 83.9414 62.4559H116.057C117.968 62.4559 119.522 64.0102 119.522 65.9206V116.061C119.522 117.972 117.968 119.526 116.057 119.526H83.9414V119.526ZM80.4758 145.772C80.4758 143.788 82.091 142.173 84.0761 142.173H115.923C117.908 142.173 119.522 143.788 119.522 145.772V147.976H110.792C106.302 147.976 102.54 151.154 101.636 155.379H98.3638C97.4598 151.154 93.6972 147.976 89.2067 147.976H80.4758V145.772ZM89.8073 162.181C89.8073 162.501 89.5268 162.782 89.2067 162.782H86.8319H60.0419C59.7218 162.782 59.4413 162.501 59.4413 162.181V157.34C59.4413 157.02 59.7218 156.739 60.0419 156.739H89.2067C89.5264 156.739 89.8073 157.02 89.8073 157.34V162.181ZM108.786 191.235H91.2135V171.328C94.7843 170.546 97.5987 167.719 98.3638 164.142H101.636C102.401 167.72 105.215 170.546 108.786 171.329V191.235ZM140.558 162.181C140.558 162.501 140.277 162.782 139.957 162.782H113.168H110.792C110.473 162.782 110.192 162.501 110.192 162.181V157.34C110.192 157.02 110.472 156.739 110.792 156.739H139.957C140.277 156.739 140.558 157.02 140.558 157.34V162.181ZM199.999 28.2844C199.999 30.7044 198.038 32.666 195.617 32.666H194.296V38.649C194.296 41.069 192.334 43.0306 189.914 43.0306C189.042 43.0306 188.23 42.776 187.547 42.3374V43.7593C187.547 46.1794 185.586 48.1409 183.166 48.1409C180.746 48.1409 178.784 46.1794 178.784 43.7593V32.666H172.043V191.235H183.136C185.556 191.235 187.518 193.197 187.518 195.617C187.518 198.037 185.556 199.999 183.136 199.999H167.77C167.734 200 167.698 200 167.661 200C167.625 200 167.589 200 167.553 199.999H152.187C149.767 199.999 147.805 198.037 147.805 195.617C147.805 193.197 149.767 191.235 152.187 191.235H163.28V32.666H36.7183V191.235H47.8116C50.2317 191.235 52.1933 193.197 52.1933 195.617C52.1933 198.037 50.2317 199.999 47.8116 199.999H32.446C32.3736 200 32.3008 200 32.2279 199.999H16.8623C14.4423 199.999 12.4807 198.037 12.4807 195.617C12.4807 193.197 14.4423 191.235 16.8623 191.235H27.9551V32.666H21.2148V43.7593C21.2148 46.1794 19.2533 48.1409 16.8332 48.1409C14.4132 48.1409 12.4516 46.1794 12.4516 43.7593V42.3374C11.769 42.776 10.9568 43.0306 10.0851 43.0306C7.66507 43.0306 5.70349 41.069 5.70349 38.649V32.666H4.38209C1.96206 32.666 0.000488281 30.7044 0.000488281 28.2844C0.000488281 25.8644 1.96206 23.9028 4.38209 23.9028H5.70303V17.9203C5.70303 15.5003 7.66461 13.5387 10.0846 13.5387C10.9563 13.5387 11.7686 13.7933 12.4512 14.2319V12.8104C12.4512 10.3904 14.4127 8.42883 16.8328 8.42883C19.2528 8.42883 21.2144 10.3904 21.2144 12.8104V23.9033H27.9551V4.38161C27.9551 1.96158 29.9167 0 32.3367 0C34.7568 0 36.7183 1.96158 36.7183 4.38161V23.9028H163.28V4.38161C163.28 1.96158 165.241 0 167.661 0C170.081 0 172.043 1.96158 172.043 4.38161V23.9028H178.784V12.81C178.784 10.3899 180.746 8.42836 183.166 8.42836C185.586 8.42836 187.547 10.3899 187.547 12.81V14.2315C188.23 13.7928 189.042 13.5382 189.914 13.5382C192.334 13.5382 194.296 15.4998 194.296 17.9198V23.9028H195.617C198.038 23.9028 199.999 25.8644 199.999 28.2844Z" fill="#2C2D65"/>
</g>
<defs>
<clipPath id="clip0_2499_10194">
<rect width="200" height="200" fill="white"/>
</clipPath>
</defs>
</svg>
