<svg width="200" height="200" viewBox="0 0 200 200" fill="none" xmlns="http://www.w3.org/2000/svg">
<g clip-path="url(#clip0_2464_1598)">
<path d="M194.418 78.2934H183.429C182.751 72.2728 179.543 67.0097 174.894 63.594V60.1436C174.894 49.4735 166.214 40.7926 155.543 40.7926H147.14C136.469 40.7926 127.789 49.4735 127.789 60.1436V74.9302C127.395 73.5342 126.862 72.1964 126.204 70.9324V60.1436C126.204 49.4735 117.524 40.7926 106.853 40.7926H98.4496C87.7795 40.7926 79.0986 49.4735 79.0986 60.1436V70.9324C78.4412 72.1964 77.9081 73.5337 77.5141 74.9302V60.1436C77.5141 49.4735 68.8332 40.7926 58.1631 40.7926H49.76C39.0894 40.7926 30.4084 49.4735 30.4084 60.1436V63.5945C25.7599 67.0102 22.5516 72.2734 21.8743 78.2934H5.58223C2.50392 78.2934 0 80.7973 0 83.8756V145.619C0 148.433 2.28223 150.715 5.09653 150.715C7.91083 150.715 10.1931 148.433 10.1931 145.619V101.084H21.7362V117.891C21.7362 120.706 24.0184 122.988 26.8327 122.988H30.4084V125.724C27.6344 125.771 25.3991 128.031 25.3991 130.816C25.3991 133.601 27.6344 135.861 30.4084 135.908V145.617V154.11C30.4084 156.925 32.6907 159.207 35.505 159.207C38.3193 159.207 40.6015 156.925 40.6015 154.11V145.618V135.913H54.7433V145.618V154.111C54.7433 156.926 57.0256 159.207 59.8399 159.207C62.6542 159.207 64.9364 156.926 64.9364 154.111V145.618V135.909C67.7104 135.862 69.9463 133.602 69.9463 130.817C69.9463 128.031 67.7104 125.771 64.9364 125.725V122.988H68.5126C71.3269 122.988 73.6092 120.707 73.6092 117.892V101.084H76.7155V117.892C76.7155 120.707 78.9977 122.988 81.812 122.988H85.3877V125.725C82.6137 125.772 80.3784 128.031 80.3784 130.817C80.3784 133.602 82.6137 135.862 85.3877 135.909V145.618V154.111C85.3877 156.926 87.67 159.207 90.4843 159.207C93.2986 159.207 95.5808 156.926 95.5808 154.111V145.618V135.913H109.723V145.618V154.111C109.723 156.926 112.005 159.207 114.819 159.207C117.633 159.207 119.916 156.926 119.916 154.111V145.618V135.909C122.69 135.862 124.925 133.602 124.925 130.817C124.925 128.031 122.69 125.772 119.916 125.725V122.988H123.492C126.306 122.988 128.588 120.707 128.588 117.892V101.084H131.695V117.892C131.695 120.707 133.977 122.988 136.791 122.988H140.367V125.725C137.593 125.772 135.358 128.031 135.358 130.817C135.358 133.602 137.593 135.862 140.367 135.909V145.618V154.111C140.367 156.926 142.649 159.207 145.464 159.207C148.278 159.207 150.56 156.926 150.56 154.111V145.618V135.913H164.702V145.618V154.111C164.702 156.926 166.984 159.207 169.798 159.207C172.613 159.207 174.895 156.926 174.895 154.111V145.618V135.909C177.669 135.862 179.904 133.602 179.904 130.817C179.904 128.031 177.669 125.772 174.895 125.725V122.988H178.471C181.286 122.988 183.568 120.707 183.568 117.892V101.084H189.808V145.619C189.808 148.434 192.09 150.716 194.904 150.716C197.719 150.716 200.001 148.434 200.001 145.619V83.8756C200 80.7973 197.496 78.2934 194.418 78.2934ZM164.701 122.988V125.72H150.559V122.988H164.701ZM173.374 112.795H141.887V80.678C141.887 74.6132 146.822 69.6792 152.886 69.6792H162.375C168.439 69.6792 173.374 74.6132 173.374 80.678V112.795ZM98.4496 50.9857H106.853C111.903 50.9857 116.011 55.094 116.011 60.1436V61.324C113.377 60.1467 110.463 59.4867 107.396 59.4867H97.9074C94.8403 59.4867 91.9266 60.1467 89.2922 61.324V60.1436C89.2917 55.0935 93.4 50.9857 98.4496 50.9857ZM155.543 50.9857C160.414 50.9857 164.397 54.8106 164.674 59.6136C163.918 59.5315 163.152 59.4867 162.374 59.4867H152.886C147.08 59.4867 141.813 61.8352 137.982 65.63V60.1436C137.982 55.094 142.09 50.9857 147.14 50.9857H155.543ZM73.6092 88.4864H76.7155V90.8905H73.6092V88.4864ZM128.588 88.4864H131.694V90.8905H128.588V88.4864ZM67.3211 60.1431V65.6295C63.4895 61.8346 58.2233 59.4862 52.4173 59.4862H42.9281C42.1508 59.4862 41.3838 59.531 40.628 59.6131C40.9047 54.8106 44.8887 50.9852 49.7594 50.9852H58.1626C63.2128 50.9857 67.3211 55.0935 67.3211 60.1431ZM10.1931 88.4864H21.7362V90.8905H10.1931V88.4864ZM54.7433 122.988V125.72H40.6015V122.988H54.7433ZM63.4161 112.795H31.9298V80.678C31.9298 74.6132 36.8642 69.6792 42.9286 69.6792H52.4173C58.4816 69.6792 63.4161 74.6132 63.4161 80.678V112.795ZM109.722 122.988V125.72H95.5803V122.988H109.722ZM118.395 112.795H86.9085V80.678C86.9085 74.6132 91.843 69.6792 97.9074 69.6792H107.396C113.46 69.6792 118.395 74.6132 118.395 80.678V112.795ZM183.567 88.4864H189.807V90.8905H183.567V88.4864Z" fill="#2C2D65"/>
</g>
<defs>
<clipPath id="clip0_2464_1598">
<rect width="200" height="200" fill="white"/>
</clipPath>
</defs>
</svg>
