<?xml version="1.0" encoding="UTF-8"?>
<svg id="Capa_1" xmlns="http://www.w3.org/2000/svg" viewBox="0 0 100 100">
  <path d="M69.5,41.4h-17.6v-9c0-2.2-1.8-3.9-3.9-3.9h-9.8c-1.1,0-2-.9-2-2v-7.8c0-1.1.9-2,2-2h21.5c2.2,0,3.9-1.8,3.9-3.9V2c0-1.1-.9-2-2-2s-2,.9-2,2v10.9h-21.5c-3.2,0-5.9,2.6-5.9,5.9v7.8c0,3.2,2.6,5.9,5.9,5.9h9.8v9h-17.6c-9.7,0-17.6,7.9-17.6,17.6v30.1c0,6,4.9,10.9,10.9,10.9s9-3.1,10.4-7.8l3.6-12.1c.7.2,1.5.4,2.3.4,3.7,0,6.8-2.6,7.6-6h4.3c.8,3.4,3.9,6,7.6,6s1.6-.1,2.3-.4l3.6,12.1c1.4,4.6,5.6,7.8,10.4,7.8s10.9-4.9,10.9-10.9v-30.1c0-9.7-7.9-17.6-17.6-17.6h0ZM30.5,45.3h39c7.5,0,13.7,6.1,13.7,13.7s-6.1,13.7-13.7,13.7-1.3,0-2-.1c0-4.2-3.5-7.7-7.8-7.7s-6.6,2.4-7.5,5.7h-4.5c-.9-3.3-3.9-5.7-7.5-5.7s-7.7,3.4-7.8,7.7c-.6,0-1.3.1-2,.1-7.5,0-13.7-6.1-13.7-13.7s6.1-13.7,13.7-13.7ZM30.5,91.1c-.9,3-3.6,5-6.7,5s-7-3.1-7-7v-19c3.2,4,8.1,6.5,13.7,6.5s1.9,0,2.9-.2c.3.6.7,1.1,1.1,1.6l-3.9,13.2ZM40.2,76.5c-2.2,0-3.9-1.8-3.9-3.9s1.8-3.9,3.9-3.9,3.9,1.8,3.9,3.9-1.8,3.9-3.9,3.9ZM55.9,72.6c0-2.2,1.8-3.9,3.9-3.9s3.9,1.8,3.9,3.9-1.8,3.9-3.9,3.9-3.9-1.8-3.9-3.9ZM83.2,89c0,3.9-3.1,7-7,7s-5.8-2-6.7-5l-3.9-13.2c.4-.5.8-1,1.1-1.6.9.2,1.9.2,2.9.2,5.5,0,10.4-2.6,13.7-6.5v19Z"/>
  <path d="M24.6,60.9h3.9v3.9c0,1.1.9,2,2,2s2-.9,2-2v-3.9h3.9c1.1,0,2-.9,2-2s-.9-2-2-2h-3.9v-3.9c0-1.1-.9-2-2-2s-2,.9-2,2v3.9h-3.9c-1.1,0-2,.9-2,2s.9,2,2,2Z"/>
  <path d="M42.2,55.1h3.9c1.1,0,2-.9,2-2s-.9-2-2-2h-3.9c-1.1,0-2,.9-2,2s.9,2,2,2Z"/>
  <path d="M53.9,55.1h3.9c1.1,0,2-.9,2-2s-.9-2-2-2h-3.9c-1.1,0-2,.9-2,2s.9,2,2,2Z"/>
  <path d="M63.7,60.9h3.9v3.9c0,1.1.9,2,2,2s2-.9,2-2v-3.9h3.9c1.1,0,2-.9,2-2s-.9-2-2-2h-3.9v-3.9c0-1.1-.9-2-2-2s-2,.9-2,2v3.9h-3.9c-1.1,0-2,.9-2,2s.9,2,2,2Z"/>
</svg>