<?xml version="1.0" encoding="UTF-8"?>
<svg id="Layer_1" xmlns="http://www.w3.org/2000/svg" viewBox="0 0 100 100">
  <g id="Playground">
    <path d="M36,59.6c5.6,0,10.1-4.5,10.1-10.1,0-5.6-4.5-10.1-10.1-10.1-5.6,0-10.1,4.5-10.1,10.1,0,5.6,4.5,10.1,10.1,10.1ZM36,42.5c3.8,0,7,3.1,7,7,0,3.8-3.1,7-7,7-3.8,0-7-3.1-7-7h0c0-3.8,3.1-7,7-7ZM95.3,81.6c-9,0-10.8-5.3-13.5-13.3-2.3-6.6-6.2-20.3-27-21.2,0-20.2,0-5,0-21.9h7.1c.9,0,1.6-.7,1.6-1.6,0-.5-.2-1-.6-1.3l-21-15.7c-3.4-2.5-8.1-2.5-11.5,0l-21,15.7c-.7.5-.8,1.5-.3,2.2.3.4.8.6,1.3.6h7.1c0,29,0,43.6,0,45h-5.6c-.9,0-1.6.7-1.6,1.6v5.7h-3.1c-.9,0-1.6.7-1.6,1.6v5.7h-3.1c-.9,0-1.6.7-1.6,1.6v7.3c0,.9.7,1.6,1.6,1.6h26c.9,0,1.6-.7,1.6-1.6v-10.9c0-8.1,12.2-8.1,12.2,0v10.9c0,.9.7,1.6,1.6,1.6h16.5c.9,0,1.6-.7,1.6-1.6v-12.2c0-5.9,9-5.9,9,0v12c0,0,0,.1,0,.2,0,.9.7,1.6,1.6,1.6h22.9c.9,0,1.6-.7,1.6-1.6v-4.4c4-1.7,2.7-7.7-1.6-7.7h0ZM78.7,69.4c2.7,7.9,5.3,15.4,16.6,15.4s1.1,1.6,0,1.6c-12.4,0-15.4-8.8-18.1-16.6-2.2-6.4-5.1-17-22.4-17.8v-1.6c18.5.9,21.7,12.6,24,19ZM44.6,25.2v8h-17.1v-8h17.1ZM51.6,36.4v26.1h-31.2v-26.1h31.2ZM51.6,33.2h-3.8v-8h3.8v8ZM32.2,9.2c2.3-1.7,5.4-1.7,7.7,0l17.2,12.8H15l17.2-12.8ZM24.3,25.2v8h-3.8v-8h3.8ZM3.9,88h3.1c.9,0,1.6-.7,1.6-1.6v-5.7h3.1c.9,0,1.6-.7,1.6-1.6v-5.7h4v18.6H3.9v-4.1ZM26.7,82.8v9.3h-6.3v-26.4h31.2v26.4h-6.3v-9.3c0-12.3-18.6-12.3-18.6,0ZM74,92v-10.6c0-10.1-15.3-10.1-15.3,0v10.6h-3.9c0-21.6,0-34.8,0-36.9,14.9.8,17.2,9.4,19.4,15.8,2.6,7.6,6.2,17.8,19.5,18.6v2.5h-19.7Z"/>
  </g>
</svg>