<svg width="200" height="200" viewBox="0 0 200 200" fill="none" xmlns="http://www.w3.org/2000/svg">
<g clip-path="url(#clip0_2471_1810)">
<path d="M196.015 172.684H195.064V48.5358V42.9252C195.064 29.9253 184.487 19.3484 171.487 19.3484H135.239C122.238 19.3484 111.662 29.9249 111.662 42.9252V44.5518H102.956C102.171 44.5518 101.404 44.7838 100.75 45.2182L98.2068 46.9092C80.6615 58.576 65.6018 74.2591 54.655 92.2633L49.8398 100.183C39.1835 117.709 27.1895 134.642 14.1911 150.509L2.15478 165.202C-0.185052 168.058 -0.656534 171.905 0.923147 175.242C2.50322 178.579 5.7786 180.652 9.47038 180.652C12.2614 180.652 14.895 179.429 16.6961 177.296L24.5742 167.966C30.4262 161.036 36.0781 153.905 41.5152 146.607V176.14C41.5152 178.34 43.2988 180.124 45.4991 180.124C47.6995 180.124 49.4831 178.34 49.4831 176.14V135.566C55.969 126.288 62.1077 116.773 67.8541 107.066L69.1498 104.877C72.3686 99.4403 75.9807 94.2215 79.9377 89.2696V176.491C79.9377 178.692 81.7213 180.475 83.9216 180.475C86.122 180.475 87.9056 178.692 87.9056 176.491V80.1521C94.6454 73.0853 102.129 66.7291 110.186 61.274L111.663 60.274V168.823C111.663 175.345 116.969 180.652 123.491 180.652H145.519C152.042 180.652 157.348 175.345 157.348 168.823V160.031H187.097V172.684H186.146C183.945 172.684 182.162 174.467 182.162 176.668C182.162 178.868 183.945 180.652 186.146 180.652H196.016C198.216 180.652 200 178.868 200 176.668C200 174.467 198.215 172.684 196.015 172.684ZM105.718 54.676C88.1295 66.5845 73.1135 82.5403 62.2924 100.818L60.9967 103.007C48.5499 124.032 34.2472 144.157 18.4848 162.825L10.6067 172.155C10.3231 172.491 9.90866 172.683 9.46921 172.683C8.64929 172.683 8.2739 172.15 8.1239 171.831C7.9739 171.513 7.79851 170.885 8.31804 170.251L20.3543 155.558C33.5879 139.403 45.7984 122.165 56.6471 104.321L61.4624 96.402C71.8069 79.3884 86.0384 64.5685 102.618 53.5436L104.159 52.519H108.902L105.718 54.676ZM149.379 168.823C149.379 170.952 147.647 172.684 145.518 172.684H123.49C121.361 172.684 119.629 170.952 119.629 168.823V52.5194H149.378V168.823H149.379ZM153.362 36.7968C151.162 36.7968 149.378 38.5803 149.378 40.7807V44.5514H119.629V42.9249C119.629 34.3179 126.632 27.3159 135.239 27.3159H171.487C180.094 27.3159 187.096 34.3183 187.096 42.9249V44.5514H157.347V40.7807C157.346 38.5803 155.563 36.7968 153.362 36.7968ZM187.096 152.063H157.347V142.053H187.096V152.063ZM187.096 134.085H157.347V124.076H187.096V134.085ZM187.096 116.108H157.347V106.099H187.096V116.108ZM187.096 98.1305H157.347V88.1212H187.096V98.1305ZM187.096 80.1532H157.347V70.1439H187.096V80.1532ZM187.096 62.1763H157.347V52.5194H187.096V62.1763Z" fill="#2C2D65"/>
<path d="M127.278 135.496C125.077 135.496 123.294 137.279 123.294 139.48V164.86C123.294 167.06 125.077 168.843 127.278 168.843C129.478 168.843 131.262 167.06 131.262 164.859V139.48C131.262 137.279 129.478 135.496 127.278 135.496Z" fill="#2C2D65"/>
<path d="M127.278 121.043C125.077 121.043 123.294 122.826 123.294 125.027V127.142C123.294 129.342 125.077 131.126 127.278 131.126C129.478 131.126 131.262 129.342 131.262 127.142V125.027C131.262 122.826 129.478 121.043 127.278 121.043Z" fill="#2C2D65"/>
</g>
<defs>
<clipPath id="clip0_2471_1810">
<rect width="200" height="200" fill="white"/>
</clipPath>
</defs>
</svg>
