<svg width="36" height="35" viewBox="0 0 36 35" fill="none" xmlns="http://www.w3.org/2000/svg">
<path d="M26.6145 25.1563H9.72904C9.47289 25.1563 9.2249 25.0663 9.02824 24.9023C8.83159 24.738 8.69873 24.5101 8.65294 24.2581L5.00222 4.17935C4.95639 3.92733 4.82359 3.69939 4.62693 3.53526C4.43028 3.37116 4.18226 3.28125 3.92612 3.28125H1.45825" stroke="#2C2D65" stroke-linecap="round" stroke-linejoin="round"/>
<path d="M10.2083 30.625C11.7184 30.625 12.9426 29.4009 12.9426 27.8906C12.9426 26.3804 11.7184 25.1562 10.2083 25.1562C8.69807 25.1562 7.47388 26.3804 7.47388 27.8906C7.47388 29.4009 8.69807 30.625 10.2083 30.625Z" stroke="#2C2D65" stroke-linecap="round" stroke-linejoin="round"/>
<path d="M26.6145 30.625C28.1248 30.625 29.3489 29.4009 29.3489 27.8906C29.3489 26.3804 28.1248 25.1562 26.6145 25.1562C25.1043 25.1562 23.8801 26.3804 23.8801 27.8906C23.8801 29.4009 25.1043 30.625 26.6145 30.625Z" stroke="#2C2D65" stroke-linecap="round" stroke-linejoin="round"/>
<path d="M5.83325 8.75H29.679C29.8391 8.75 29.9975 8.78522 30.1425 8.8531C30.2875 8.92099 30.4159 9.01994 30.5188 9.14295C30.6213 9.26589 30.6957 9.40997 30.7366 9.56492C30.7773 9.71979 30.7837 9.88181 30.755 10.0394L28.9652 19.8831C28.9195 20.1352 28.7867 20.3631 28.59 20.5272C28.3934 20.6913 28.1453 20.7813 27.8892 20.7813H8.02075" stroke="#2C2D65" stroke-linecap="round" stroke-linejoin="round"/>
</svg>
