<svg width="200" height="200" viewBox="0 0 200 200" fill="none" xmlns="http://www.w3.org/2000/svg">
<g clip-path="url(#clip0_2464_1607)">
<path d="M196.809 68.0852H153.191C151.429 68.0852 150 69.5137 150 71.2766C150 73.0395 151.429 74.468 153.191 74.468H193.617V93.6168H153.191C151.429 93.6168 150 95.0453 150 96.8082C150 98.5711 151.429 99.9996 153.191 99.9996H193.617V168.085H153.191C151.429 168.085 150 169.513 150 171.276C150 173.039 151.429 174.468 153.191 174.468H193.617V193.616H143.617V61.5172C143.968 61.6414 144.327 61.7031 144.68 61.7031C145.966 61.7031 147.179 60.9203 147.663 59.6469C148.291 57.9996 147.464 56.1559 145.817 55.5281L103.191 39.2898V10.6383H122.34V21.2766H112.766C111.003 21.2766 109.574 22.7051 109.574 24.468C109.574 26.2309 111.003 27.6594 112.766 27.6594H125.532C127.295 27.6594 128.723 26.2309 128.723 24.468V7.44687C128.723 5.68398 127.295 4.25547 125.532 4.25547H103.191V3.19141C103.191 1.42852 101.763 0 100 0C98.2371 0 96.8086 1.42852 96.8086 3.19141V39.2898L54.1832 55.5281C52.5359 56.1559 51.7098 57.9996 52.3367 59.6469C52.9551 61.2703 54.7543 62.0938 56.3832 61.5168V193.617H6.3832V174.468H46.8086C48.5715 174.468 50 173.04 50 171.277C50 169.514 48.5715 168.086 46.8086 168.086H6.38281V100H46.8086C48.5715 100 50 98.5715 50 96.8086C50 95.0457 48.5715 93.6172 46.8086 93.6172H6.38281V74.4684H46.8086C48.5715 74.4684 50 73.0398 50 71.277C50 69.5141 48.5715 68.0855 46.8086 68.0855H3.19141C1.42852 68.0855 0 69.5141 0 71.277V196.809C0 198.571 1.42852 200 3.19141 200H196.809C198.571 200 200 198.571 200 196.809V71.2766C200 69.5137 198.571 68.0852 196.809 68.0852ZM137.234 193.617H62.766V187.234H137.234V193.617ZM124.468 174.468V180.851H75.532V174.468H124.468ZM75.532 168.085V136.17H96.8086V168.085H75.532ZM103.191 168.085V136.17H124.468V168.085H103.191ZM137.234 180.851H130.851V132.979C130.851 131.216 129.423 129.788 127.66 129.788H72.3406C70.5777 129.788 69.1492 131.216 69.1492 132.979V180.851H62.7664V59.0891L100 44.9043L137.234 59.0891V180.851Z" fill="#2C2D65"/>
<path d="M21.8086 139.362C20.0457 139.362 18.6172 140.79 18.6172 142.553V155.319C18.6172 157.082 20.0457 158.511 21.8086 158.511C23.5715 158.511 25 157.082 25 155.319V142.553C25 140.79 23.5715 139.362 21.8086 139.362Z" fill="#2C2D65"/>
<path d="M40.9575 139.362C39.1946 139.362 37.7661 140.79 37.7661 142.553V155.319C37.7661 157.082 39.1946 158.511 40.9575 158.511C42.7204 158.511 44.1489 157.082 44.1489 155.319V142.553C44.1489 140.79 42.7204 139.362 40.9575 139.362Z" fill="#2C2D65"/>
<path d="M21.8086 109.575C20.0457 109.575 18.6172 111.003 18.6172 112.766V125.532C18.6172 127.295 20.0457 128.723 21.8086 128.723C23.5715 128.723 25 127.295 25 125.532V112.766C25 111.003 23.5715 109.575 21.8086 109.575Z" fill="#2C2D65"/>
<path d="M40.9575 109.575C39.1946 109.575 37.7661 111.003 37.7661 112.766V125.532C37.7661 127.295 39.1946 128.723 40.9575 128.723C42.7204 128.723 44.1489 127.295 44.1489 125.532V112.766C44.1489 111.003 42.7204 109.575 40.9575 109.575Z" fill="#2C2D65"/>
<path d="M178.191 139.362C176.429 139.362 175 140.79 175 142.553V155.319C175 157.082 176.429 158.511 178.191 158.511C179.954 158.511 181.383 157.082 181.383 155.319V142.553C181.383 140.79 179.954 139.362 178.191 139.362Z" fill="#2C2D65"/>
<path d="M159.042 139.362C157.28 139.362 155.851 140.79 155.851 142.553V155.319C155.851 157.082 157.28 158.511 159.042 158.511C160.805 158.511 162.234 157.082 162.234 155.319V142.553C162.234 140.79 160.805 139.362 159.042 139.362Z" fill="#2C2D65"/>
<path d="M178.191 109.575C176.429 109.575 175 111.003 175 112.766V125.532C175 127.295 176.429 128.723 178.191 128.723C179.954 128.723 181.383 127.295 181.383 125.532V112.766C181.383 111.003 179.954 109.575 178.191 109.575Z" fill="#2C2D65"/>
<path d="M159.042 109.575C157.28 109.575 155.851 111.003 155.851 112.766V125.532C155.851 127.295 157.28 128.723 159.042 128.723C160.805 128.723 162.234 127.295 162.234 125.532V112.766C162.234 111.003 160.805 109.575 159.042 109.575Z" fill="#2C2D65"/>
<path d="M99.9999 68.0851C91.2007 68.0851 84.0425 75.2433 84.0425 84.0426C84.0425 92.8418 91.2007 100 99.9999 100C108.799 100 115.957 92.8418 115.957 84.0426C115.957 75.2433 108.799 68.0851 99.9999 68.0851ZM99.9999 93.6172C94.7206 93.6172 90.4253 89.3219 90.4253 84.0426C90.4253 78.7633 94.7206 74.468 99.9999 74.468C105.279 74.468 109.575 78.7633 109.575 84.0426C109.575 89.3219 105.279 93.6172 99.9999 93.6172Z" fill="#2C2D65"/>
</g>
<defs>
<clipPath id="clip0_2464_1607">
<rect width="200" height="200" fill="white"/>
</clipPath>
</defs>
</svg>
