<?xml version="1.0" encoding="UTF-8"?>
<svg id="Capa_1" xmlns="http://www.w3.org/2000/svg" viewBox="0 0 100 100">
  <path d="M17,23.9h6.3c.8,0,1.4-.6,1.4-1.4s-.6-1.4-1.4-1.4h-6.3c-2.3,0-4.3-1.9-4.4-4.1,0,0,0-.1,0-.2,0-2.8,2.3-5.1,5.1-5.1s3,.7,4,1.9c.4.5,1.1.7,1.7.4.6-.3,1.1-.4,1.7-.4,1.5,0,2.8.8,3.6,2.1.2.3.5.6.9.7s.8,0,1.1-.2c.5-.3,1-.4,1.6-.4,1.5,0,2.8,1.1,3,2.5.1.7.7,1.2,1.4,1.2h4.6c.5,0,.9.4.9.8,0,.2,0,.4-.2.6-.2.2-.4.3-.6.3h-12.4c-.8,0-1.4.6-1.4,1.4s.6,1.4,1.4,1.4h12.4c1,0,1.9-.4,2.6-1.1s1.1-1.7,1.1-2.7c0-2-1.7-3.6-3.8-3.6h-3.6c-.9-2.2-3-3.7-5.5-3.7s-1.2,0-1.8.3c-1.3-1.5-3.3-2.4-5.3-2.4s-1.3,0-2,.3c-1.5-1.4-3.4-2.2-5.5-2.2-4.4,0-8,3.6-8,8s0,.2,0,.3c.2,3.9,3.3,6.9,7.3,6.9h0Z"/>
  <path d="M97.5,88.4h-.9c1.5-1.7,2.2-4.5,2.2-8.4s-1.1-11.1-2.8-16.1c-1.5-4.4-4.1-9.6-7.9-9.6s-3.7,1.3-5.3,3.9c-1.4-2.2-3.1-3.9-5.3-3.9s-4.4,1.9-6.3,5.6c-.4-.1-.8-.2-1.2-.2h-14.3c-.8,0-1.4.6-1.4,1.4s.6,1.4,1.4,1.4h14.3c.4,0,.7.3.7.7v1.6c0,.4-.3.7-.7.7H30c-.4,0-.7-.3-.7-.7v-1.6c0-.4.3-.7.7-.7h20c.8,0,1.4-.6,1.4-1.4s-.6-1.4-1.4-1.4h-11.9c1.1-2.4,1.7-5.1,1.7-7.8,0-10.5-8.6-19.1-19.1-19.1S1.6,41.4,1.6,51.9s7.7,18.2,17.5,19.1v8.2c-.3,0-.6,0-.9,0-.5,0-1.1,0-1.6.2-1.7-2.3-4.4-3.6-7.2-3.4-4.4.2-7.9,3.8-8.1,8.1,0,1.6.3,3.1,1.1,4.5-.7.1-1.2.7-1.2,1.4s.6,1.4,1.4,1.4h94.9c.8,0,1.4-.6,1.4-1.4s-.6-1.4-1.4-1.4h0ZM30,86.3c0-.4-.1-.8-.2-1.2h4.6v3.3h-4.6c.2-.7.3-1.4.2-2.1ZM61.1,74.5v2.1h-21.6v-2.1h21.6ZM67.2,74.5c0,.7-.2,1.4-.2,2.1h-3v-2.1h3.2ZM73.2,79.4c.2,0,.3.1.3.3v2.1c0,.2-.1.3-.3.3H26.8c-.2,0-.3-.1-.3-.3v-2.1c0-.2.1-.3.3-.3h46.4ZM37.3,85.1h26.1v3.3h-26.1v-3.3ZM66.2,85.1h1.1c.4,1.4.9,2.5,1.6,3.3h-2.8v-3.3h0ZM84.4,61.2c1.2-2.5,2.6-4,3.7-4s3.2,2,5.2,7.6c1.6,4.7,2.6,10.6,2.6,15.2,0,8.1-2.9,8.1-7.8,8.1s-1.2,0-1.8,0c1.3-1.8,1.9-4.4,1.9-8.1s-1.1-11.1-2.8-16.1c-.3-.9-.6-1.7-1-2.6,0,0,0,0,0,0h0ZM77.5,57.2c1.2,0,3.2,2,5.2,7.6,1.6,4.7,2.6,10.6,2.6,15.2,0,8.1-2.9,8.1-7.8,8.1s-6.1-.1-7.1-3h2.8c1.8,0,3.2-1.4,3.2-3.2v-2.1c0-1.8-1.4-3.2-3.2-3.2h-3.3c0-.7.1-1.4.2-2.1,1.9,0,3.5-1.6,3.5-3.6v-1.6c0-.8-.3-1.5-.7-2.1.5-.6.7-1.3.7-2.1v-1.6c0-.4,0-.9-.2-1.2,0,0,0-.1,0-.2,1.3-2.9,2.8-4.7,4-4.7h0ZM70,68.6c.4,0,.7.3.7.7v1.6c0,.4-.3.7-.7.7H30c-.4,0-.7-.3-.7-.7v-1.6c0-.4.3-.7.7-.7h40.1ZM4.4,51.9c0-9,7.3-16.3,16.3-16.3s16.3,7.3,16.3,16.3-.7,5.4-1.9,7.7c0,0,0,0,0,.1h-5c-2,0-3.6,1.6-3.6,3.6v1.6c0,.7.2,1.4.6,2,0,0-.1,0-.2,0-1.6.6-3.2,1-4.9,1.2v-11.3l5-5c.6-.6.6-1.5,0-2-.6-.6-1.5-.6-2,0l-2.9,2.9v-3.7c0-.8-.6-1.4-1.4-1.4s-1.4.6-1.4,1.4v8.6l-2.8-2.8c-.6-.6-1.5-.6-2,0-.6.6-.6,1.5,0,2l4.8,4.8v6.4c-8.2-.8-14.6-7.8-14.6-16.2h0ZM21.9,71c1.5,0,3-.4,4.5-.8v.7c0,2,1.6,3.6,3.6,3.6h6.7v2.1h-9.8c-1.8,0-3.2,1.4-3.2,3.2v.9c-.3,0-.6,0-.9.1-.2-.2-.5-.4-.8-.6v-9.2h0ZM5.8,88.4c-1.2-1.1-1.8-2.7-1.8-4.3.1-2.9,2.5-5.2,5.4-5.4,2.2-.1,4.2,1,5.2,3,.4.7,1.2.9,1.8.6.5-.2,1.1-.3,1.6-.3,1.2,0,2.3.5,3,1.4.4.5,1.1.6,1.6.4.4-.2.8-.2,1.3-.2.6.9,1.5,1.5,2.7,1.5.3.4.4.9.5,1.4,0,.7-.1,1.3-.5,1.9H5.8Z"/>
  <path d="M54.4,41.8h14.3c.8,0,1.4-.6,1.4-1.4s-.6-1.4-1.4-1.4h-14.3c-.9,0-1.7-.7-1.7-1.7,0,0,0,0,0,0,0-2,1.6-3.6,3.6-3.7.7,0,1.3-.5,1.4-1.2.6-3.5,3.6-6.1,7.2-6.1s6.6,2.6,7.2,6.1c.1.8.8,1.3,1.6,1.2.2,0,.3,0,.5,0,1.3,0,2.5.7,3.2,1.8.3.4.7.7,1.2.7h3.9c.8,0,1.4.6,1.4,1.4s-.6,1.4-1.4,1.4h-8c-.8,0-1.4.6-1.4,1.4s.6,1.4,1.4,1.4h8c2.4,0,4.3-1.9,4.3-4.3s-1.9-4.3-4.3-4.3h-3.2c-1.1-1.4-2.8-2.4-4.7-2.5-1.2-4.3-5.2-7.3-9.8-7.3s-8.6,3.1-9.8,7.4c-3,.6-5.2,3.3-5.2,6.4h0c0,2.5,2.1,4.6,4.6,4.6h0Z"/>
</svg>