<?xml version="1.0" encoding="UTF-8"?>
<svg id="Capa_1" xmlns="http://www.w3.org/2000/svg" viewBox="0 0 100 100">
  <path d="M60.2,13.8c-.3-.9-1.1-1.6-2-1.7l-4-.6-1.8-3.7c-.4-.9-1.3-1.4-2.3-1.4s-1.8.5-2.3,1.4l-1.8,3.7-4,.6c-1,.1-1.7.8-2,1.7-.3.9,0,1.9.6,2.6l2.9,2.9-.7,4c-.2,1,.2,1.9,1,2.5.4.3,1,.5,1.5.5s.8,0,1.2-.3l3.6-1.9,3.6,1.9c.9.4,1.9.4,2.7-.2.8-.6,1.2-1.5,1-2.5l-.7-4,2.9-2.9c.7-.7.9-1.7.6-2.6h0ZM54.4,17.3c-.6.6-.9,1.4-.7,2.2l.6,3.5-3.1-1.6c-.7-.4-1.6-.4-2.3,0l-3.1,1.6.6-3.5c.1-.8-.1-1.7-.7-2.2l-2.5-2.5,3.5-.5c.8-.1,1.5-.6,1.9-1.4l1.6-3.2,1.6,3.2c.4.7,1.1,1.3,1.9,1.4l3.5.5-2.5,2.5Z"/>
  <path d="M55.1,68.7c-.8,0-1.4.6-1.4,1.4v3.2c0,.8.6,1.4,1.4,1.4s1.4-.6,1.4-1.4v-3.2c0-.8-.6-1.4-1.4-1.4Z"/>
  <path d="M44.9,68.7c-.8,0-1.4.6-1.4,1.4v3.2c0,.8.6,1.4,1.4,1.4s1.4-.6,1.4-1.4v-3.2c0-.8-.6-1.4-1.4-1.4Z"/>
  <path d="M26.4,51h-10.4c-1.3,0-2.4,1.1-2.4,2.4v27.8c0,1.3,1.1,2.4,2.4,2.4h10.4c1.3,0,2.4-1.1,2.4-2.4v-27.8c0-1.3-1.1-2.4-2.4-2.4ZM25.9,53.9v4.5h-9.5v-4.5h9.5ZM16.4,80.8v-19.4h9.5v19.4h-9.5Z"/>
  <path d="M97,45.9c1.3,0,2.4-1.1,2.4-2.4v-5.8c0-1.3-1.1-2.4-2.4-2.4h-3.3v-11.1c0-2.4-1.9-4.3-4.3-4.3h-13.3C72.6,8.4,62,.6,50,.6s-22.6,7.9-26.1,19.2h-2.7c-.8,0-1.4.6-1.4,1.4s.6,1.4,1.4,1.4h3.8c.7,0,1.2-.4,1.4-1.1,2.8-10.7,12.5-18.2,23.6-18.2s20.8,7.5,23.6,18.2c.2.6.7,1.1,1.4,1.1h14.4c.8,0,1.4.6,1.4,1.4v5.1h-22.4c-.8,0-1.4.6-1.4,1.4s.6,1.4,1.4,1.4h22.4v3.1H9.1v-3.1h53c.8,0,1.4-.6,1.4-1.4s-.6-1.4-1.4-1.4H9.1v-5.1c0-.8.6-1.4,1.4-1.4h4.3c.8,0,1.4-.6,1.4-1.4s-.6-1.4-1.4-1.4h-4.3c-2.4,0-4.3,1.9-4.3,4.3v11.1h-3.3c-1.3,0-2.4,1.1-2.4,2.4v5.8c0,1.3,1.1,2.4,2.4,2.4h3.3v43h-3.3c-1.3,0-2.4,1.1-2.4,2.4v5.8c0,1.3,1.1,2.4,2.4,2.4h94c1.3,0,2.4-1.1,2.4-2.4v-5.8c0-1.3-1.1-2.4-2.4-2.4h-3.3v-43h3.3ZM3.5,38.1h93.1v4.8H3.5v-4.8ZM51.4,88.8v-37.3c7,.7,12.4,6.6,12.4,13.8v23.5h-12.4ZM36.1,65.3c0-7.2,5.5-13.1,12.4-13.8v37.3h-12.4v-23.5ZM50,48.6c-5.8,0-10.9,2.9-13.9,7.4v-10.1h27.8v10.1c-3-4.4-8.1-7.4-13.9-7.4h0ZM33.2,88.8H9.1v-43h24.1v43ZM96.5,96.5H3.5v-4.8h93.1v4.8ZM66.8,45.9h24.1v43h-24.1v-43Z"/>
  <path d="M73.6,83.6h10.4c1.3,0,2.4-1.1,2.4-2.4v-7.8c0-.8-.6-1.4-1.4-1.4s-1.4.6-1.4,1.4v7.4h-9.5v-19.4h9.5v5.7c0,.8.6,1.4,1.4,1.4s1.4-.6,1.4-1.4v-13.6c0-1.3-1.1-2.4-2.4-2.4h-10.4c-1.3,0-2.4,1.1-2.4,2.4v27.8c0,1.3,1.1,2.4,2.4,2.4ZM83.6,53.9v4.5h-9.5v-4.5h9.5Z"/>
</svg>