<svg width="200" height="200" viewBox="0 0 200 200" fill="none" xmlns="http://www.w3.org/2000/svg">
<path fill-rule="evenodd" clip-rule="evenodd" d="M154.167 22.9167C146.112 22.9167 139.583 29.4459 139.583 37.5C139.583 45.5542 146.112 52.0834 154.167 52.0834C162.221 52.0834 168.75 45.5542 168.75 37.5C168.75 29.4459 162.221 22.9167 154.167 22.9167ZM127.083 37.5C127.083 22.5423 139.209 10.4167 154.167 10.4167C169.124 10.4167 181.25 22.5423 181.25 37.5C181.25 52.4578 169.124 64.5834 154.167 64.5834C139.209 64.5834 127.083 52.4578 127.083 37.5ZM74.7692 48.4177C82.2905 45.0994 90.8233 44.9119 98.4833 47.8962C119.88 56.2328 125.052 84.1567 108.061 99.6034L99.3933 107.483C99.0608 107.785 98.9633 107.874 98.9 107.934C94.2883 112.299 94.6208 119.739 99.6042 123.675C99.6733 123.729 99.7792 123.81 100.137 124.081L100.165 124.103C100.653 124.473 100.937 124.687 101.207 124.897C116.814 136.982 126.037 155.54 126.247 175.278C126.25 175.627 126.25 175.99 126.25 176.625V183.333C126.25 186.785 123.452 189.583 120 189.583C116.548 189.583 113.75 186.785 113.75 183.333V176.625C113.75 175.963 113.75 175.678 113.747 175.41C113.579 159.493 106.141 144.526 93.5542 134.78C93.3433 134.616 93.1158 134.443 92.5883 134.044L92.535 134.003C92.2558 133.793 92.0392 133.628 91.8575 133.485C80.8943 124.827 80.1615 108.459 90.3067 98.8567C90.4758 98.6967 90.675 98.515 90.9358 98.2784L90.985 98.2334L99.6525 90.3542C109.777 81.1499 106.695 64.5109 93.945 59.5434C89.3808 57.7651 84.2967 57.8769 79.8147 59.8541L75.4673 61.7721C70.9236 63.7767 68.8252 64.7041 66.785 65.7168C63.345 67.4243 60.0042 69.3245 56.7783 71.4084C54.8651 72.6444 52.9955 73.974 48.9502 76.8548L36.9587 85.3942C34.1471 87.3967 30.2446 86.74 28.2423 83.9284C26.24 81.1168 26.8962 77.2143 29.7079 75.212L41.8412 66.5717C45.7094 63.8169 47.8172 62.316 49.9954 60.9089C53.6163 58.5697 57.3662 56.4368 61.2274 54.5202C63.5502 53.3672 65.9177 52.3228 70.2626 50.4059L74.7692 48.4177ZM127.27 98.4842C128.107 95.1359 131.501 93.0992 134.849 93.9367C144.797 96.4234 155.203 96.4234 165.151 93.9367C168.499 93.0992 171.892 95.1359 172.73 98.4842C173.567 101.833 171.531 105.226 168.182 106.063C156.244 109.048 143.756 109.048 131.817 106.063C128.469 105.226 126.432 101.833 127.27 98.4842ZM79.0012 136.865C81.6529 139.075 82.0112 143.016 79.8014 145.668L77.6401 148.262C64.6213 163.884 45.336 172.917 25 172.917C21.5482 172.917 18.75 170.118 18.75 166.667C18.75 163.215 21.5482 160.417 25 160.417C41.6262 160.417 57.3935 153.032 68.0373 140.259L70.1986 137.666C72.4084 135.014 76.3494 134.656 79.0012 136.865Z" fill="#2C2D65"/>
</svg>
