<svg width="30" height="33" viewBox="0 0 30 33" fill="none" xmlns="http://www.w3.org/2000/svg">
<g clip-path="url(#clip0_1660_1516)">
<path d="M8.82994 15.98C7.28994 15.98 5.87994 15.19 5.07994 13.87C4.65994 13.18 4.43994 12.39 4.43994 11.59C4.43994 10.66 4.72994 9.76996 5.26994 9.01996C5.31994 8.94996 5.42994 8.92996 5.49994 8.97996C5.56994 9.02996 5.58994 9.12996 5.53994 9.20996C5.03994 9.90996 4.76994 10.73 4.76994 11.59C4.76994 12.34 4.97994 13.07 5.35994 13.7C6.10994 14.92 7.39994 15.65 8.82994 15.65C10.1199 15.65 11.3499 15.02 12.1199 13.98C12.6299 13.28 12.8999 12.45 12.8999 11.59C12.8999 10.73 12.6299 9.89996 12.1299 9.20996C12.0599 9.10996 11.9899 9.01996 11.9099 8.93996C11.4199 8.36996 10.7799 7.94996 10.0699 7.72996C9.26994 7.47996 8.39994 7.47996 7.60994 7.72996C7.52994 7.75996 7.42994 7.70996 7.40994 7.61996C7.37994 7.52996 7.42994 7.43996 7.51994 7.41996C7.94994 7.27996 8.38994 7.20996 8.84994 7.20996C9.30994 7.20996 9.74994 7.27996 10.1799 7.41996C10.9499 7.65996 11.6299 8.10996 12.1599 8.71996C12.2399 8.81996 12.3199 8.91996 12.3999 9.02996C12.9399 9.77996 13.2299 10.67 13.2299 11.6C13.2299 12.53 12.9399 13.43 12.3899 14.19C11.5699 15.32 10.2399 16 8.83994 16" fill="#272963"/>
<path d="M8.82994 15.98C7.28994 15.98 5.87994 15.19 5.07994 13.87C4.65994 13.18 4.43994 12.39 4.43994 11.59C4.43994 10.66 4.72994 9.76996 5.26994 9.01996C5.31994 8.94996 5.42994 8.92996 5.49994 8.97996C5.56994 9.02996 5.58994 9.12996 5.53994 9.20996C5.03994 9.90996 4.76994 10.73 4.76994 11.59C4.76994 12.34 4.97994 13.07 5.35994 13.7C6.10994 14.92 7.39994 15.65 8.82994 15.65C10.1199 15.65 11.3499 15.02 12.1199 13.98C12.6299 13.28 12.8999 12.45 12.8999 11.59C12.8999 10.73 12.6299 9.89996 12.1299 9.20996C12.0599 9.10996 11.9899 9.01996 11.9099 8.93996C11.4199 8.36996 10.7799 7.94996 10.0699 7.72996C9.26994 7.47996 8.39994 7.47996 7.60994 7.72996C7.52994 7.75996 7.42994 7.70996 7.40994 7.61996C7.37994 7.52996 7.42994 7.43996 7.51994 7.41996C7.94994 7.27996 8.38994 7.20996 8.84994 7.20996C9.30994 7.20996 9.74994 7.27996 10.1799 7.41996C10.9499 7.65996 11.6299 8.10996 12.1599 8.71996C12.2399 8.81996 12.3199 8.91996 12.3999 9.02996C12.9399 9.77996 13.2299 10.67 13.2299 11.6C13.2299 12.53 12.9399 13.43 12.3899 14.19C11.5699 15.32 10.2399 16 8.83994 16L8.82994 15.98Z" fill="#272963"/>
<path d="M5.4001 9.26997C5.4001 9.26997 5.3701 9.26997 5.3601 9.26997C5.3001 9.24997 5.2501 9.19997 5.2401 9.12997L4.8501 6.15997C4.8501 6.09997 4.8701 6.03997 4.9201 5.99997C4.9701 5.95997 5.0401 5.95997 5.0901 5.99997L7.6401 7.40997C7.7001 7.43997 7.7301 7.49997 7.7201 7.56997C7.7201 7.62997 7.6701 7.68997 7.6101 7.70997C6.7901 7.96997 6.0501 8.49997 5.5401 9.19997C5.5101 9.23997 5.4601 9.26997 5.4101 9.26997M5.2101 6.43997L5.5101 8.70997C5.9601 8.19997 6.5301 7.78997 7.1601 7.52997L5.2101 6.44997V6.43997Z" fill="#272963"/>
<path d="M5.4001 9.26997C5.4001 9.26997 5.3701 9.26997 5.3601 9.26997C5.3001 9.24997 5.2501 9.19997 5.2401 9.12997L4.8501 6.15997C4.8501 6.09997 4.8701 6.03997 4.9201 5.99997C4.9701 5.95997 5.0401 5.95997 5.0901 5.99997L7.6401 7.40997C7.7001 7.43997 7.7301 7.49997 7.7201 7.56997C7.7201 7.62997 7.6701 7.68997 7.6101 7.70997C6.7901 7.96997 6.0501 8.49997 5.5401 9.19997C5.5101 9.23997 5.4601 9.26997 5.4101 9.26997H5.4001ZM5.2101 6.43997L5.5101 8.70997C5.9601 8.19997 6.5301 7.78997 7.1601 7.52997L5.2101 6.44997V6.43997Z" fill="#272963"/>
<path d="M12.26 9.27005C12.26 9.27005 12.25 9.27005 12.24 9.27005C12.15 9.26005 12.09 9.18005 12.1 9.09005L12.45 6.44005L10.19 7.70005C10.11 7.74005 10.01 7.72005 9.96995 7.64005C9.92995 7.56005 9.94995 7.46005 10.03 7.42005L12.57 6.01005C12.62 5.98005 12.69 5.98005 12.74 6.01005C12.79 6.05005 12.82 6.11005 12.81 6.17005L12.41 9.14005C12.4 9.22005 12.33 9.28005 12.25 9.28005" fill="#272963"/>
<path d="M12.26 9.27005C12.26 9.27005 12.25 9.27005 12.24 9.27005C12.15 9.26005 12.09 9.18005 12.1 9.09005L12.45 6.44005L10.19 7.70005C10.11 7.74005 10.01 7.72005 9.96995 7.64005C9.92995 7.56005 9.94995 7.46005 10.03 7.42005L12.57 6.01005C12.62 5.98005 12.69 5.98005 12.74 6.01005C12.79 6.05005 12.82 6.11005 12.81 6.17005L12.41 9.14005C12.4 9.22005 12.33 9.28005 12.25 9.28005L12.26 9.27005Z" fill="#272963"/>
<path d="M12.2501 30.68C12.1601 30.68 12.0901 30.61 12.0901 30.52V14.08C12.0901 13.99 12.1601 13.92 12.2501 13.92C12.3401 13.92 12.4101 13.99 12.4101 14.08V30.52C12.4101 30.61 12.3401 30.68 12.2501 30.68Z" fill="#272963"/>
<path d="M12.2501 30.68C12.1601 30.68 12.0901 30.61 12.0901 30.52V14.08C12.0901 13.99 12.1601 13.92 12.2501 13.92C12.3401 13.92 12.4101 13.99 12.4101 14.08V30.52C12.4101 30.61 12.3401 30.68 12.2501 30.68Z" fill="#272963"/>
<path d="M9.86996 31.5601C9.77996 31.5601 9.70996 31.4901 9.70996 31.4001V21.8401C9.70996 21.7501 9.77996 21.6801 9.86996 21.6801C9.95996 21.6801 10.03 21.7501 10.03 21.8401V31.4001C10.03 31.4901 9.95996 31.5601 9.86996 31.5601Z" fill="#272963"/>
<path d="M9.86996 31.5601C9.77996 31.5601 9.70996 31.4901 9.70996 31.4001V21.8401C9.70996 21.7501 9.77996 21.6801 9.86996 21.6801C9.95996 21.6801 10.03 21.7501 10.03 21.8401V31.4001C10.03 31.4901 9.95996 31.5601 9.86996 31.5601Z" fill="#272963"/>
<path d="M7.54989 30.6801C7.45989 30.6801 7.38989 30.6101 7.38989 30.5201V21.8401C7.38989 21.7501 7.45989 21.6801 7.54989 21.6801C7.63989 21.6801 7.70989 21.7501 7.70989 21.8401V30.5201C7.70989 30.6101 7.63989 30.6801 7.54989 30.6801Z" fill="#272963"/>
<path d="M7.54989 30.6801C7.45989 30.6801 7.38989 30.6101 7.38989 30.5201V21.8401C7.38989 21.7501 7.45989 21.6801 7.54989 21.6801C7.63989 21.6801 7.70989 21.7501 7.70989 21.8401V30.5201C7.70989 30.6101 7.63989 30.6801 7.54989 30.6801Z" fill="#272963"/>
<path d="M8.89995 32.83H7.32995C6.69995 32.83 6.19995 32.32 6.19995 31.7V31.5C6.19995 30.87 6.70995 30.37 7.32995 30.37H8.89995C9.52995 30.37 10.04 30.88 10.04 31.5V31.7C10.04 32.33 9.52995 32.83 8.89995 32.83ZM7.32995 30.68C6.87995 30.68 6.51995 31.04 6.51995 31.49V31.69C6.51995 32.14 6.87995 32.5 7.32995 32.5H8.89995C9.34995 32.5 9.70995 32.14 9.70995 31.69V31.49C9.70995 31.04 9.34995 30.68 8.89995 30.68H7.32995Z" fill="#272963"/>
<path d="M8.89995 32.83H7.32995C6.69995 32.83 6.19995 32.32 6.19995 31.7V31.5C6.19995 30.87 6.70995 30.37 7.32995 30.37H8.89995C9.52995 30.37 10.04 30.88 10.04 31.5V31.7C10.04 32.33 9.52995 32.83 8.89995 32.83ZM7.32995 30.68C6.87995 30.68 6.51995 31.04 6.51995 31.49V31.69C6.51995 32.14 6.87995 32.5 7.32995 32.5H8.89995C9.34995 32.5 9.70995 32.14 9.70995 31.69V31.49C9.70995 31.04 9.34995 30.68 8.89995 30.68H7.32995Z" fill="#272963"/>
<path d="M12.5 32.83H10.93C10.3 32.83 9.80005 32.32 9.80005 31.7V31.5C9.80005 30.87 10.31 30.37 10.93 30.37H12.5C13.13 30.37 13.64 30.88 13.64 31.5V31.7C13.64 32.33 13.13 32.83 12.5 32.83ZM10.93 30.68C10.48 30.68 10.12 31.04 10.12 31.49V31.69C10.12 32.14 10.48 32.5 10.93 32.5H12.5C12.95 32.5 13.31 32.14 13.31 31.69V31.49C13.31 31.04 12.95 30.68 12.5 30.68H10.93Z" fill="#272963"/>
<path d="M12.5 32.83H10.93C10.3 32.83 9.80005 32.32 9.80005 31.7V31.5C9.80005 30.87 10.31 30.37 10.93 30.37H12.5C13.13 30.37 13.64 30.88 13.64 31.5V31.7C13.64 32.33 13.13 32.83 12.5 32.83ZM10.93 30.68C10.48 30.68 10.12 31.04 10.12 31.49V31.69C10.12 32.14 10.48 32.5 10.93 32.5H12.5C12.95 32.5 13.31 32.14 13.31 31.69V31.49C13.31 31.04 12.95 30.68 12.5 30.68H10.93Z" fill="#272963"/>
<path d="M12.0201 8.98003C11.9301 8.98003 11.8601 8.91003 11.8601 8.82003C11.8601 8.73003 11.9301 8.66003 12.0201 8.66003C12.1101 8.66003 12.1801 8.73003 12.1801 8.82003C12.1801 8.91003 12.1101 8.98003 12.0201 8.98003Z" fill="#272963"/>
<path d="M12.0201 8.98003C11.9301 8.98003 11.8601 8.91003 11.8601 8.82003C11.8601 8.73003 11.9301 8.66003 12.0201 8.66003C12.1101 8.66003 12.1801 8.73003 12.1801 8.82003C12.1801 8.91003 12.1101 8.98003 12.0201 8.98003Z" fill="#272963"/>
<path d="M9.86996 31.55C9.77996 31.55 9.70996 31.48 9.70996 31.39C9.70996 31.32 9.75996 31.26 9.81996 31.24C9.89996 31.21 9.98996 31.24 10.03 31.32C10.07 31.4 10.03 31.4901 9.95996 31.5401C9.93996 31.5501 9.90996 31.56 9.87996 31.56" fill="#272963"/>
<path d="M9.86996 31.55C9.77996 31.55 9.70996 31.48 9.70996 31.39C9.70996 31.32 9.75996 31.26 9.81996 31.24C9.89996 31.21 9.98996 31.24 10.03 31.32C10.07 31.4 10.03 31.4901 9.95996 31.5401C9.93996 31.5501 9.90996 31.56 9.87996 31.56L9.86996 31.55Z" fill="#272963"/>
<path d="M6.4999 32.36C5.5399 32.33 4.6299 32.1 3.7699 31.68C3.0999 31.35 2.4899 30.92 1.9799 30.4C0.609895 29.04 -0.100105 27.15 0.00989513 25.23C0.0598951 24.35 0.289895 23.49 0.679895 22.7L5.0699 13.72C5.1099 13.64 5.2099 13.61 5.2899 13.64C5.3699 13.68 5.3999 13.78 5.3599 13.86L0.969895 22.84C0.599895 23.6 0.389895 24.41 0.339895 25.24C0.229895 27.08 0.909895 28.87 2.1999 30.17C2.6899 30.67 3.2699 31.0799 3.9099 31.3899C4.7299 31.7899 5.5999 32.0099 6.5099 32.0299C6.5999 32.0299 6.6699 32.11 6.6699 32.2C6.6699 32.29 6.5899 32.36 6.5099 32.36" fill="#272963"/>
<path d="M6.4999 32.36C5.5399 32.33 4.6299 32.1 3.7699 31.68C3.0999 31.35 2.4899 30.92 1.9799 30.4C0.609895 29.04 -0.100105 27.15 0.00989513 25.23C0.0598951 24.35 0.289895 23.49 0.679895 22.7L5.0699 13.72C5.1099 13.64 5.2099 13.61 5.2899 13.64C5.3699 13.68 5.3999 13.78 5.3599 13.86L0.969895 22.84C0.599895 23.6 0.389895 24.41 0.339895 25.24C0.229895 27.08 0.909895 28.87 2.1999 30.17C2.6899 30.67 3.2699 31.0799 3.9099 31.3899C4.7299 31.7899 5.5999 32.0099 6.5099 32.0299C6.5999 32.0299 6.6699 32.11 6.6699 32.2C6.6699 32.29 6.5899 32.36 6.5099 32.36H6.4999Z" fill="#272963"/>
<path d="M0.19999 26.52C0.12999 26.52 0.0599902 26.47 0.0399902 26.4C0.00999023 26.29 -0.0100098 26.18 -0.0100098 26.06V4.80999C-9.76585e-06 4.14999 0.53999 3.60999 1.20999 3.60999H1.61999C2.27999 3.60999 2.82999 4.14999 2.82999 4.80999V19.02C2.82999 19.11 2.75999 19.18 2.66999 19.18C2.57999 19.18 2.50999 19.11 2.50999 19.02V4.80999C2.50999 4.31999 2.10999 3.92999 1.62999 3.92999H1.21999C0.72999 3.92999 0.33999 4.31999 0.33999 4.80999V26.07C0.33999 26.15 0.33999 26.23 0.36999 26.31C0.39999 26.4 0.34999 26.49 0.25999 26.51C0.24999 26.51 0.22999 26.51 0.20999 26.51" fill="#272963"/>
<path d="M0.19999 26.52C0.12999 26.52 0.0599902 26.47 0.0399902 26.4C0.00999023 26.29 -0.0100098 26.18 -0.0100098 26.06V4.80999C-9.76585e-06 4.14999 0.53999 3.60999 1.20999 3.60999H1.61999C2.27999 3.60999 2.82999 4.14999 2.82999 4.80999V19.02C2.82999 19.11 2.75999 19.18 2.66999 19.18C2.57999 19.18 2.50999 19.11 2.50999 19.02V4.80999C2.50999 4.31999 2.10999 3.92999 1.62999 3.92999H1.21999C0.72999 3.92999 0.33999 4.31999 0.33999 4.80999V26.07C0.33999 26.15 0.33999 26.23 0.36999 26.31C0.39999 26.4 0.34999 26.49 0.25999 26.51C0.24999 26.51 0.22999 26.51 0.20999 26.51L0.19999 26.52Z" fill="#272963"/>
<path d="M2.65 6.30998H0.16C0.07 6.30998 0 6.22998 0 6.13998C0 6.04998 0.07 5.97998 0.16 5.97998H2.65C2.74 5.97998 2.81 6.04998 2.81 6.13998C2.81 6.22998 2.74 6.29998 2.65 6.29998" fill="#272963"/>
<path d="M2.65 6.30998H0.16C0.07 6.30998 0 6.22998 0 6.13998C0 6.04998 0.07 5.97998 0.16 5.97998H2.65C2.74 5.97998 2.81 6.04998 2.81 6.13998C2.81 6.22998 2.74 6.29998 2.65 6.29998V6.30998Z" fill="#272963"/>
<path d="M2.65 8.38995H0.16C0.07 8.38995 0 8.31995 0 8.22995C0 8.13995 0.07 8.06995 0.16 8.06995H2.65C2.74 8.06995 2.81 8.13995 2.81 8.22995C2.81 8.31995 2.74 8.38995 2.65 8.38995Z" fill="#272963"/>
<path d="M2.65 8.38995H0.16C0.07 8.38995 0 8.31995 0 8.22995C0 8.13995 0.07 8.06995 0.16 8.06995H2.65C2.74 8.06995 2.81 8.13995 2.81 8.22995C2.81 8.31995 2.74 8.38995 2.65 8.38995Z" fill="#272963"/>
<path d="M2.65 9.64996H0.16C0.07 9.64996 0 9.57996 0 9.48996C0 9.39996 0.07 9.32996 0.16 9.32996H2.65C2.74 9.32996 2.81 9.39996 2.81 9.48996C2.81 9.57996 2.74 9.64996 2.65 9.64996Z" fill="#272963"/>
<path d="M2.65 9.64996H0.16C0.07 9.64996 0 9.57996 0 9.48996C0 9.39996 0.07 9.32996 0.16 9.32996H2.65C2.74 9.32996 2.81 9.39996 2.81 9.48996C2.81 9.57996 2.74 9.64996 2.65 9.64996Z" fill="#272963"/>
<path d="M2.65 11.74H0.16C0.07 11.74 0 11.66 0 11.57C0 11.48 0.07 11.41 0.16 11.41H2.65C2.74 11.41 2.81 11.48 2.81 11.57C2.81 11.66 2.74 11.73 2.65 11.73" fill="#272963"/>
<path d="M2.65 11.74H0.16C0.07 11.74 0 11.66 0 11.57C0 11.48 0.07 11.41 0.16 11.41H2.65C2.74 11.41 2.81 11.48 2.81 11.57C2.81 11.66 2.74 11.73 2.65 11.73V11.74Z" fill="#272963"/>
<path d="M2.65 12.99H0.16C0.07 12.99 0 12.92 0 12.83C0 12.74 0.07 12.67 0.16 12.67H2.65C2.74 12.67 2.81 12.74 2.81 12.83C2.81 12.92 2.74 12.99 2.65 12.99Z" fill="#272963"/>
<path d="M2.65 12.99H0.16C0.07 12.99 0 12.92 0 12.83C0 12.74 0.07 12.67 0.16 12.67H2.65C2.74 12.67 2.81 12.74 2.81 12.83C2.81 12.92 2.74 12.99 2.65 12.99Z" fill="#272963"/>
<path d="M2.65 15.08H0.16C0.07 15.08 0 15 0 14.91C0 14.82 0.07 14.75 0.16 14.75H2.65C2.74 14.75 2.81 14.82 2.81 14.91C2.81 15 2.74 15.07 2.65 15.07" fill="#272963"/>
<path d="M2.65 15.08H0.16C0.07 15.08 0 15 0 14.91C0 14.82 0.07 14.75 0.16 14.75H2.65C2.74 14.75 2.81 14.82 2.81 14.91C2.81 15 2.74 15.07 2.65 15.07V15.08Z" fill="#272963"/>
<path d="M8.82999 13.39C8.82999 13.39 8.74999 13.38 8.71999 13.35C8.59999 13.24 7.98999 12.67 7.98999 12.25C7.98999 11.79 8.36999 11.41 8.82999 11.41C9.28999 11.41 9.66999 11.78 9.66999 12.25C9.66999 12.67 9.05999 13.24 8.93999 13.35C8.90999 13.38 8.86999 13.39 8.82999 13.39ZM8.82999 11.74C8.54999 11.74 8.31999 11.97 8.31999 12.25C8.31999 12.43 8.58999 12.76 8.82999 13C9.06999 12.76 9.33999 12.42 9.33999 12.25C9.33999 11.97 9.10999 11.74 8.82999 11.74Z" fill="#272963"/>
<path d="M8.82999 13.39C8.82999 13.39 8.74999 13.38 8.71999 13.35C8.59999 13.24 7.98999 12.67 7.98999 12.25C7.98999 11.79 8.36999 11.41 8.82999 11.41C9.28999 11.41 9.66999 11.78 9.66999 12.25C9.66999 12.67 9.05999 13.24 8.93999 13.35C8.90999 13.38 8.86999 13.39 8.82999 13.39ZM8.82999 11.74C8.54999 11.74 8.31999 11.97 8.31999 12.25C8.31999 12.43 8.58999 12.76 8.82999 13C9.06999 12.76 9.33999 12.42 9.33999 12.25C9.33999 11.97 9.10999 11.74 8.82999 11.74Z" fill="#272963"/>
<path d="M8.82992 15.9799C8.73992 15.9799 8.66992 15.9099 8.66992 15.8199V13.2299C8.66992 13.1399 8.73992 13.0699 8.82992 13.0699C8.91992 13.0699 8.98992 13.1399 8.98992 13.2299V15.8199C8.98992 15.9099 8.91992 15.9799 8.82992 15.9799Z" fill="#272963"/>
<path d="M8.82992 15.9799C8.73992 15.9799 8.66992 15.9099 8.66992 15.8199V13.2299C8.66992 13.1399 8.73992 13.0699 8.82992 13.0699C8.91992 13.0699 8.98992 13.1399 8.98992 13.2299V15.8199C8.98992 15.9099 8.91992 15.9799 8.82992 15.9799Z" fill="#272963"/>
<path d="M19.6501 8.18998C19.6501 8.18998 19.5501 8.16999 19.5201 8.12999C19.4501 8.03999 18.8101 7.23999 18.8101 6.68999C18.8101 6.08999 19.1901 5.60999 19.6501 5.60999C20.1101 5.60999 20.4901 6.09999 20.4901 6.68999C20.4901 7.23999 19.8501 8.03999 19.7801 8.12999C19.7501 8.16999 19.7001 8.18998 19.6501 8.18998ZM19.6501 5.92999C19.3701 5.92999 19.1401 6.27999 19.1401 6.68999C19.1401 6.98999 19.4401 7.46999 19.6501 7.75999C19.8601 7.46999 20.1601 6.98999 20.1601 6.68999C20.1601 6.27999 19.9301 5.92999 19.6501 5.92999Z" fill="#272963"/>
<path d="M19.6501 8.18998C19.6501 8.18998 19.5501 8.16999 19.5201 8.12999C19.4501 8.03999 18.8101 7.23999 18.8101 6.68999C18.8101 6.08999 19.1901 5.60999 19.6501 5.60999C20.1101 5.60999 20.4901 6.09999 20.4901 6.68999C20.4901 7.23999 19.8501 8.03999 19.7801 8.12999C19.7501 8.16999 19.7001 8.18998 19.6501 8.18998ZM19.6501 5.92999C19.3701 5.92999 19.1401 6.27999 19.1401 6.68999C19.1401 6.98999 19.4401 7.46999 19.6501 7.75999C19.8601 7.46999 20.1601 6.98999 20.1601 6.68999C20.1601 6.27999 19.9301 5.92999 19.6501 5.92999Z" fill="#272963"/>
<path d="M19.65 10.75C19.56 10.75 19.49 10.68 19.49 10.59V8.02999C19.49 7.93999 19.56 7.87 19.65 7.87C19.74 7.87 19.81 7.93999 19.81 8.02999V10.59C19.81 10.68 19.74 10.75 19.65 10.75Z" fill="#272963"/>
<path d="M19.65 10.75C19.56 10.75 19.49 10.68 19.49 10.59V8.02999C19.49 7.93999 19.56 7.87 19.65 7.87C19.74 7.87 19.81 7.93999 19.81 8.02999V10.59C19.81 10.68 19.74 10.75 19.65 10.75Z" fill="#272963"/>
<path d="M22.65 1.73001C22.58 1.73001 22.52 1.68001 22.49 1.62001C22.18 0.85001 21.42 0.33001 20.59 0.33001H18.71C17.88 0.33001 17.14 0.83001 16.82 1.60001C16.78 1.68001 16.69 1.72001 16.61 1.69001C16.53 1.66001 16.49 1.56001 16.52 1.48001C16.89 0.59001 17.75 0.0100098 18.71 0.0100098H20.59C21.56 0.0100098 22.44 0.62001 22.8 1.52001C22.8 1.54001 22.81 1.56001 22.81 1.58001C22.81 1.67001 22.74 1.74001 22.65 1.74001" fill="#272963"/>
<path d="M22.65 1.73001C22.58 1.73001 22.52 1.68001 22.49 1.62001C22.18 0.85001 21.42 0.33001 20.59 0.33001H18.71C17.88 0.33001 17.14 0.83001 16.82 1.60001C16.78 1.68001 16.69 1.72001 16.61 1.69001C16.53 1.66001 16.49 1.56001 16.52 1.48001C16.89 0.59001 17.75 0.0100098 18.71 0.0100098H20.59C21.56 0.0100098 22.44 0.62001 22.8 1.52001C22.8 1.54001 22.81 1.56001 22.81 1.58001C22.81 1.67001 22.74 1.74001 22.65 1.74001V1.73001Z" fill="#272963"/>
<path d="M20.5899 10.75H18.7099C17.9699 10.75 17.2899 10.41 16.8399 9.82998V9.81998C16.7799 9.74998 16.7899 9.64998 16.8599 9.58998C16.9299 9.52998 17.0299 9.53998 17.0899 9.60998C17.0899 9.60998 17.1099 9.62998 17.1099 9.63998C17.4999 10.14 18.0899 10.43 18.7299 10.43H20.6099C21.1599 10.43 21.6799 10.21 22.0699 9.81998C22.1399 9.74998 22.2099 9.66998 22.2699 9.57998C22.3199 9.50998 22.4199 9.48998 22.4999 9.53998C22.5699 9.58998 22.5899 9.69998 22.5399 9.76998C22.4699 9.86998 22.3899 9.95998 22.3099 10.04C21.8599 10.5 21.2599 10.75 20.6199 10.75" fill="#272963"/>
<path d="M20.5899 10.75H18.7099C17.9699 10.75 17.2899 10.41 16.8399 9.82998V9.81998C16.7799 9.74998 16.7899 9.64998 16.8599 9.58998C16.9299 9.52998 17.0299 9.53998 17.0899 9.60998C17.0899 9.60998 17.1099 9.62998 17.1099 9.63998C17.4999 10.14 18.0899 10.43 18.7299 10.43H20.6099C21.1599 10.43 21.6799 10.21 22.0699 9.81998C22.1399 9.74998 22.2099 9.66998 22.2699 9.57998C22.3199 9.50998 22.4199 9.48998 22.4999 9.53998C22.5699 9.58998 22.5899 9.69998 22.5399 9.76998C22.4699 9.86998 22.3899 9.95998 22.3099 10.04C21.8599 10.5 21.2599 10.75 20.6199 10.75H20.5899Z" fill="#272963"/>
<path d="M15.8999 12.27H15.1299C14.4499 12.27 13.8999 11.72 13.8999 11.04V2.27004C13.8999 1.59004 14.4499 1.04004 15.1299 1.04004H15.8999C16.5799 1.04004 17.1299 1.59004 17.1299 2.27004V11.04C17.1299 11.72 16.5799 12.27 15.8999 12.27ZM15.1399 1.37004C14.6399 1.37004 14.2399 1.78004 14.2399 2.27004V11.04C14.2399 11.54 14.6499 11.94 15.1399 11.94H15.9099C16.4099 11.94 16.8099 11.54 16.8099 11.04V2.27004C16.8099 1.77004 16.3999 1.37004 15.9099 1.37004H15.1399Z" fill="#272963"/>
<path d="M15.8999 12.27H15.1299C14.4499 12.27 13.8999 11.72 13.8999 11.04V2.27004C13.8999 1.59004 14.4499 1.04004 15.1299 1.04004H15.8999C16.5799 1.04004 17.1299 1.59004 17.1299 2.27004V11.04C17.1299 11.72 16.5799 12.27 15.8999 12.27ZM15.1399 1.37004C14.6399 1.37004 14.2399 1.78004 14.2399 2.27004V11.04C14.2399 11.54 14.6499 11.94 15.1399 11.94H15.9099C16.4099 11.94 16.8099 11.54 16.8099 11.04V2.27004C16.8099 1.77004 16.3999 1.37004 15.9099 1.37004H15.1399Z" fill="#272963"/>
<path d="M24.21 12.27H23.44C22.76 12.27 22.21 11.72 22.21 11.04V2.27004C22.21 1.59004 22.76 1.04004 23.44 1.04004H24.21C24.89 1.04004 25.44 1.59004 25.44 2.27004V11.04C25.44 11.72 24.89 12.27 24.21 12.27ZM23.45 1.37004C22.95 1.37004 22.55 1.78004 22.55 2.27004V11.04C22.55 11.54 22.96 11.94 23.45 11.94H24.22C24.72 11.94 25.12 11.54 25.12 11.04V2.27004C25.12 1.77004 24.71 1.37004 24.22 1.37004H23.45Z" fill="#272963"/>
<path d="M24.21 12.27H23.44C22.76 12.27 22.21 11.72 22.21 11.04V2.27004C22.21 1.59004 22.76 1.04004 23.44 1.04004H24.21C24.89 1.04004 25.44 1.59004 25.44 2.27004V11.04C25.44 11.72 24.89 12.27 24.21 12.27ZM23.45 1.37004C22.95 1.37004 22.55 1.78004 22.55 2.27004V11.04C22.55 11.54 22.96 11.94 23.45 11.94H24.22C24.72 11.94 25.12 11.54 25.12 11.04V2.27004C25.12 1.77004 24.71 1.37004 24.22 1.37004H23.45Z" fill="#272963"/>
<path d="M16.95 30.68C16.86 30.68 16.79 30.61 16.79 30.52V8.82003C16.79 8.73003 16.86 8.66003 16.95 8.66003C17.04 8.66003 17.11 8.73003 17.11 8.82003V30.53C17.11 30.62 17.04 30.69 16.95 30.69" fill="#272963"/>
<path d="M16.95 30.68C16.86 30.68 16.79 30.61 16.79 30.52V8.82003C16.79 8.73003 16.86 8.66003 16.95 8.66003C17.04 8.66003 17.11 8.73003 17.11 8.82003V30.53C17.11 30.62 17.04 30.69 16.95 30.69V30.68Z" fill="#272963"/>
<path d="M19.3299 31.5601C19.2399 31.5601 19.1699 31.4901 19.1699 31.4001V21.8401C19.1699 21.7501 19.2399 21.6801 19.3299 21.6801C19.4199 21.6801 19.4899 21.7501 19.4899 21.8401V31.4001C19.4899 31.4901 19.4199 31.5601 19.3299 31.5601Z" fill="#272963"/>
<path d="M19.3299 31.5601C19.2399 31.5601 19.1699 31.4901 19.1699 31.4001V21.8401C19.1699 21.7501 19.2399 21.6801 19.3299 21.6801C19.4199 21.6801 19.4899 21.7501 19.4899 21.8401V31.4001C19.4899 31.4901 19.4199 31.5601 19.3299 31.5601Z" fill="#272963"/>
<path d="M21.64 30.6801C21.55 30.6801 21.48 30.6101 21.48 30.5201V21.8401C21.48 21.7501 21.55 21.6801 21.64 21.6801C21.73 21.6801 21.8 21.7501 21.8 21.8401V30.5201C21.8 30.6101 21.73 30.6801 21.64 30.6801Z" fill="#272963"/>
<path d="M21.64 30.6801C21.55 30.6801 21.48 30.6101 21.48 30.5201V21.8401C21.48 21.7501 21.55 21.6801 21.64 21.6801C21.73 21.6801 21.8 21.7501 21.8 21.8401V30.5201C21.8 30.6101 21.73 30.6801 21.64 30.6801Z" fill="#272963"/>
<path d="M21.8599 32.83H20.2899C19.6599 32.83 19.1599 32.32 19.1599 31.7V31.5C19.1599 30.87 19.6699 30.37 20.2899 30.37H21.8599C22.4899 30.37 22.9999 30.88 22.9999 31.5V31.7C22.9999 32.33 22.4899 32.83 21.8599 32.83ZM20.2999 30.68C19.8499 30.68 19.4899 31.04 19.4899 31.49V31.69C19.4899 32.14 19.8499 32.5 20.2999 32.5H21.8699C22.3199 32.5 22.6799 32.14 22.6799 31.69V31.49C22.6799 31.04 22.3199 30.68 21.8699 30.68H20.2999Z" fill="#272963"/>
<path d="M21.8599 32.83H20.2899C19.6599 32.83 19.1599 32.32 19.1599 31.7V31.5C19.1599 30.87 19.6699 30.37 20.2899 30.37H21.8599C22.4899 30.37 22.9999 30.88 22.9999 31.5V31.7C22.9999 32.33 22.4899 32.83 21.8599 32.83ZM20.2999 30.68C19.8499 30.68 19.4899 31.04 19.4899 31.49V31.69C19.4899 32.14 19.8499 32.5 20.2999 32.5H21.8699C22.3199 32.5 22.6799 32.14 22.6799 31.69V31.49C22.6799 31.04 22.3199 30.68 21.8699 30.68H20.2999Z" fill="#272963"/>
<path d="M18.2701 32.83H16.7001C16.0701 32.83 15.5701 32.32 15.5701 31.7V31.5C15.5701 30.87 16.0801 30.37 16.7001 30.37H18.2701C18.9001 30.37 19.4101 30.88 19.4101 31.5V31.7C19.4101 32.33 18.9001 32.83 18.2701 32.83ZM16.7001 30.68C16.2501 30.68 15.8901 31.04 15.8901 31.49V31.69C15.8901 32.14 16.2501 32.5 16.7001 32.5H18.2701C18.7201 32.5 19.0801 32.14 19.0801 31.69V31.49C19.0801 31.04 18.7201 30.68 18.2701 30.68H16.7001Z" fill="#272963"/>
<path d="M18.2701 32.83H16.7001C16.0701 32.83 15.5701 32.32 15.5701 31.7V31.5C15.5701 30.87 16.0801 30.37 16.7001 30.37H18.2701C18.9001 30.37 19.4101 30.88 19.4101 31.5V31.7C19.4101 32.33 18.9001 32.83 18.2701 32.83ZM16.7001 30.68C16.2501 30.68 15.8901 31.04 15.8901 31.49V31.69C15.8901 32.14 16.2501 32.5 16.7001 32.5H18.2701C18.7201 32.5 19.0801 32.14 19.0801 31.69V31.49C19.0801 31.04 18.7201 30.68 18.2701 30.68H16.7001Z" fill="#272963"/>
<path d="M19.33 31.55C19.33 31.55 19.27 31.55 19.25 31.53C19.17 31.49 19.14 31.39 19.18 31.31C19.22 31.23 19.31 31.2 19.39 31.23C19.45 31.25 19.5 31.31 19.5 31.38C19.5 31.47 19.43 31.54 19.34 31.54" fill="#272963"/>
<path d="M19.33 31.55C19.33 31.55 19.27 31.55 19.25 31.53C19.17 31.49 19.14 31.39 19.18 31.31C19.22 31.23 19.31 31.2 19.39 31.23C19.45 31.25 19.5 31.31 19.5 31.38C19.5 31.47 19.43 31.54 19.34 31.54L19.33 31.55Z" fill="#272963"/>
<path d="M22.7 32.36C22.61 32.36 22.54 32.29 22.54 32.2C22.54 32.11 22.61 32.03 22.7 32.03C23.61 32 24.48 31.79 25.3 31.39C25.94 31.08 26.51 30.67 27.01 30.17C28.31 28.87 28.98 27.08 28.87 25.24C28.87 25.24 28.87 25.17 28.87 25.14C28.81 24.33 28.6 23.56 28.24 22.84L23.85 13.86L23.04 12.15C23 12.07 23.04 11.97 23.12 11.93C23.2 11.89 23.3 11.93 23.34 12.01L24.15 13.72L28.54 22.69C28.91 23.45 29.13 24.27 29.2 25.11C29.2 25.14 29.2 25.22 29.2 25.22C29.32 27.15 28.6 29.03 27.24 30.4C26.72 30.92 26.12 31.36 25.44 31.68C24.58 32.1 23.66 32.33 22.71 32.36" fill="#272963"/>
<path d="M22.7 32.36C22.61 32.36 22.54 32.29 22.54 32.2C22.54 32.11 22.61 32.03 22.7 32.03C23.61 32 24.48 31.79 25.3 31.39C25.94 31.08 26.51 30.67 27.01 30.17C28.31 28.87 28.98 27.08 28.87 25.24C28.87 25.24 28.87 25.17 28.87 25.14C28.81 24.33 28.6 23.56 28.24 22.84L23.85 13.86L23.04 12.15C23 12.07 23.04 11.97 23.12 11.93C23.2 11.89 23.3 11.93 23.34 12.01L24.15 13.72L28.54 22.69C28.91 23.45 29.13 24.27 29.2 25.11C29.2 25.14 29.2 25.22 29.2 25.22C29.32 27.15 28.6 29.03 27.24 30.4C26.72 30.92 26.12 31.36 25.44 31.68C24.58 32.1 23.66 32.33 22.71 32.36H22.7Z" fill="#272963"/>
<path d="M29.0199 25.21L28.9999 24.88V25.04H28.8399C28.8399 24.87 28.8399 7.05998 28.8399 6.87998C28.8399 6.34998 28.4499 5.92998 27.9599 5.92998H27.8699C27.3799 5.92998 26.9899 6.35998 26.9899 6.87998V19.63C26.9899 19.72 26.9199 19.79 26.8299 19.79C26.7399 19.79 26.6699 19.72 26.6699 19.63V6.87998C26.6699 6.17998 27.2099 5.59998 27.8799 5.59998H27.9699C28.6399 5.59998 29.1799 6.16998 29.1799 6.87998C29.1799 6.87998 29.1799 11.42 29.1799 15.96C29.1799 18.23 29.1799 20.5 29.1799 22.2V24.99C29.1799 25.04 29.1799 25.2 29.0199 25.2" fill="#272963"/>
<path d="M29.0199 25.21L28.9999 24.88V25.04H28.8399C28.8399 24.87 28.8399 7.05998 28.8399 6.87998C28.8399 6.34998 28.4499 5.92998 27.9599 5.92998H27.8699C27.3799 5.92998 26.9899 6.35998 26.9899 6.87998V19.63C26.9899 19.72 26.9199 19.79 26.8299 19.79C26.7399 19.79 26.6699 19.72 26.6699 19.63V6.87998C26.6699 6.17998 27.2099 5.59998 27.8799 5.59998H27.9699C28.6399 5.59998 29.1799 6.16998 29.1799 6.87998C29.1799 6.87998 29.1799 11.42 29.1799 15.96C29.1799 18.23 29.1799 20.5 29.1799 22.2V24.99C29.1799 25.04 29.1799 25.2 29.0199 25.2V25.21Z" fill="#272963"/>
</g>
<defs>
<clipPath id="clip0_1660_1516">
<rect width="29.2" height="32.83" fill="white"/>
</clipPath>
</defs>
</svg>
