<svg width="48" height="48" viewBox="0 0 48 48" fill="none" xmlns="http://www.w3.org/2000/svg">
<path d="M42.8493 5.15065C37.7587 0.0619033 28.5299 1.0069 22.2768 7.26003C16.3537 13.1832 15.1968 21.7744 19.4174 27L13.3743 33.0357L12.9806 32.64C12.7368 32.3962 12.4474 32.2029 12.1289 32.0709C11.8104 31.939 11.4691 31.8711 11.1243 31.8711C10.7796 31.8711 10.4382 31.939 10.1197 32.0709C9.80122 32.2029 9.51183 32.3962 9.26807 32.64L4.1437 37.7644C3.89991 38.0082 3.70653 38.2975 3.5746 38.616C3.44266 38.9345 3.37476 39.2759 3.37476 39.6207C3.37476 39.9654 3.44266 40.3068 3.5746 40.6253C3.70653 40.9438 3.89991 41.2331 4.1437 41.4769L6.52307 43.8582C6.76686 44.1022 7.05637 44.2958 7.37504 44.4279C7.69371 44.56 8.03529 44.628 8.38026 44.628C8.72522 44.628 9.06681 44.56 9.38548 44.4279C9.70415 44.2958 9.99365 44.1022 10.2374 43.8582L15.3599 38.7357C15.604 38.4919 15.7976 38.2024 15.9297 37.8837C16.0618 37.565 16.1298 37.2234 16.1298 36.8785C16.1298 36.5335 16.0618 36.1919 15.9297 35.8732C15.7976 35.5546 15.604 35.2651 15.3599 35.0213L14.9662 34.6275L20.9999 28.5863C23.0943 30.2738 25.7324 31.1082 28.5243 31.1082C32.6868 31.1082 37.1887 29.2688 40.7343 25.7232C46.9931 19.47 47.9381 10.2413 42.8493 5.15065ZM13.7681 37.1419L8.64557 42.2663C8.61074 42.3011 8.56938 42.3288 8.52386 42.3477C8.47834 42.3665 8.42954 42.3763 8.38026 42.3763C8.33098 42.3763 8.28218 42.3665 8.23666 42.3477C8.19113 42.3288 8.14977 42.3011 8.11495 42.2663L5.73557 39.8869C5.7007 39.8521 5.67304 39.8107 5.65417 39.7652C5.6353 39.7197 5.62559 39.6709 5.62559 39.6216C5.62559 39.5723 5.6353 39.5235 5.65417 39.478C5.67304 39.4325 5.7007 39.3911 5.73557 39.3563L10.8581 34.2319C10.8931 34.1971 10.9347 34.1696 10.9804 34.151C11.026 34.1323 11.075 34.1229 11.1243 34.1232C11.2233 34.1231 11.3184 34.1622 11.3887 34.2319L12.5793 35.4207L13.7681 36.6094C13.8029 36.6442 13.8306 36.6856 13.8495 36.7311C13.8683 36.7766 13.8781 36.8254 13.8781 36.8747C13.8781 36.924 13.8683 36.9728 13.8495 37.0183C13.8306 37.0638 13.8029 37.1052 13.7681 37.14V37.1419ZM43.5637 10.875H37.1362V4.43628C38.698 4.81045 40.1256 5.61029 41.2603 6.74693C42.3949 7.88357 43.1923 9.31252 43.5637 10.875ZM34.4812 4.12503C34.6162 4.12503 34.7512 4.12503 34.8843 4.12503V10.875H28.1249V5.7319C30.0858 4.69668 32.2641 4.14087 34.4812 4.11003V4.12503ZM34.8843 13.125V19.875H28.1249V13.125H34.8843ZM23.8687 8.8519C24.4928 8.22638 25.1635 7.6491 25.8749 7.12503V10.875H22.1249C22.6538 10.1572 23.2367 9.48086 23.8687 8.8519ZM20.7468 13.125H25.8749V19.875H19.1249C19.0612 17.6775 19.6087 15.3357 20.7468 13.125ZM19.4531 22.125H25.8749V28.5525C24.3155 28.1783 22.8902 27.3798 21.7567 26.2453C20.6232 25.1108 19.8259 23.6848 19.4531 22.125ZM28.1324 28.875V22.125H34.8824V27.2588C32.6643 28.3913 30.3224 28.9388 28.1249 28.8619L28.1324 28.875ZM39.1481 24.1444C38.5223 24.7709 37.8497 25.3488 37.1362 25.8732V22.125H40.8749C40.3504 22.8361 39.7731 23.5067 39.1481 24.1313V24.1444ZM42.2699 19.875H37.1362V13.125H43.8862C43.9556 15.3057 43.4081 17.6475 42.2699 19.875Z" fill="#2C2D65"/>
</svg>
