<?xml version="1.0" encoding="UTF-8"?>
<svg id="Capa_1" xmlns="http://www.w3.org/2000/svg" viewBox="0 0 100 100">
  <defs>
    <style>
      .cls-1 {
        fill: none;
        stroke: #000;
        stroke-linecap: round;
        stroke-linejoin: round;
        stroke-width: 2.9px;
      }
    </style>
  </defs>
  <path class="cls-1" d="M33.9,10.5c-1.5,2.7-2.9,5.8-4,9.1"/>
  <path class="cls-1" d="M50,10.5c0,4.4,0-2.1,0,9.1"/>
  <path class="cls-1" d="M66.1,10.5c1.5,2.7,2.9,5.8,4,9.2"/>
  <line class="cls-1" x1="50" y1="53.1" x2="50" y2="19.6"/>
  <path class="cls-1" d="M65.6,53.1h2.6c1.6,0,2.9,1.3,2.9,2.9v3.1H28.8v-3.1c0-1.6,1.3-2.9,2.9-2.9h27.1"/>
  <path class="cls-1" d="M56.1,59.2v17.2c0,2.6,1,5.1,2.9,6.9l.3.3c1.8,1.8,2.9,4.3,2.9,6.9v8.1"/>
  <path class="cls-1" d="M37.8,98.7v-8.1c0-2.6,1-5.1,2.9-6.9l.3-.3c1.8-1.8,2.9-4.3,2.9-6.9v-17.2"/>
  <line class="cls-1" x1="50" y1="59.2" x2="50" y2="98.7"/>
  <line class="cls-1" x1="40.9" y1="77.4" x2="59.1" y2="77.4"/>
  <line class="cls-1" x1="40.9" y1="65.3" x2="59.1" y2="65.3"/>
  <path class="cls-1" d="M98.7,45.8l-6.7,25.1c-1,3.9-4.5,6.5-8.5,6.5h-16.9v-3.1c0-1.6,1.3-2.9,2.9-2.9h12.3c2.2,0,4.2-1.5,4.7-3.6l5.5-20.7c.4-1.6,2-2.5,3.6-2.1l3,.8Z"/>
  <line class="cls-1" x1="68.3" y1="98.7" x2="74.3" y2="65.3"/>
  <line class="cls-1" x1="80.4" y1="65.3" x2="92.6" y2="98.7"/>
  <line class="cls-1" x1="68.3" y1="65.3" x2="86.5" y2="65.3"/>
  <path class="cls-1" d="M6.6,65.7l1.4,5.2c1,3.9,4.5,6.5,8.5,6.5h16.9v-3.1c0-1.6-1.3-2.9-2.9-2.9h-12.3c-2.2,0-4.2-1.5-4.7-3.6l-5.5-20.7c-.4-1.6-2-2.5-3.6-2.1l-3,.8,3.5,13.2"/>
  <line class="cls-1" x1="31.7" y1="98.7" x2="25.7" y2="65.3"/>
  <line class="cls-1" x1="19.6" y1="65.3" x2="7.4" y2="98.7"/>
  <line class="cls-1" x1="31.7" y1="65.3" x2="13.5" y2="65.3"/>
  <path class="cls-1" d="M35.1,4.4h-2.9c-4.3,0-8.5,1.4-11.9,4-4.6,3.5-8.5,7.9-11.6,12.8-1.2,2,.2,4.5,2.5,4.5h12.9c1,0,1.9-.5,2.4-1.3l3.3-4.8,1.2,4c.4,1.2,1.5,2.1,2.8,2.1h11.2c1.1,0,2.1-.6,2.6-1.6l2.2-4.5,2.2,4.5c.5,1,1.5,1.6,2.6,1.6h11.2c1.3,0,2.4-.8,2.8-2.1l1.2-4,3.3,4.8c.5.8,1.5,1.3,2.4,1.3h12.9c2.3,0,3.7-2.6,2.5-4.5-3.1-4.9-7-9.3-11.6-12.8-3.4-2.6-7.6-4-11.9-4h-25.9"/>
  <line class="cls-1" x1="50" y1="4.4" x2="50" y2="1.3"/>
</svg>