<svg width="40" height="34" viewBox="0 0 40 34" fill="none" xmlns="http://www.w3.org/2000/svg">
<g clip-path="url(#clip0_1660_1588)">
<path d="M31.4999 13.15C31.0999 13.15 30.7099 13.15 30.3099 13.15H29.7699C29.4499 13.15 29.2799 13.01 29.2799 12.74C29.2799 12.62 29.3099 12.52 29.3799 12.44C29.4699 12.35 29.5999 12.3 29.7799 12.3C30.1899 12.3 30.5899 12.3 30.9999 12.3H32.7799C32.8499 12.3 32.9099 12.3 32.9799 12.3C33.3999 12.26 33.6499 12 33.6599 11.59C33.6599 11.16 33.4099 10.88 32.9999 10.86C32.7399 10.85 32.4799 10.84 32.1999 10.84C32.0099 10.84 31.8199 10.84 31.6299 10.84H31.5799C31.2499 10.84 31.0499 10.74 30.8799 10.49C30.5799 10.05 30.1099 9.81 29.5299 9.81H29.3999C29.0299 9.81 28.9399 9.73 28.8499 9.33C28.5099 7.85 27.2899 6.85 25.8099 6.84C24.3099 6.84 23.0899 7.81 22.7499 9.26C22.6599 9.66 22.4899 9.81 22.1199 9.85C21.4099 9.93 20.9299 10.35 20.7299 11.08C20.6299 11.44 20.6699 11.75 20.8399 11.97C21.0099 12.19 21.2899 12.31 21.6599 12.31C22.4399 12.31 23.2099 12.31 23.9799 12.31H27.1999C27.2599 12.31 27.3299 12.31 27.3899 12.31C27.6499 12.34 27.7999 12.51 27.7899 12.75C27.7899 12.99 27.6199 13.14 27.3599 13.14C27.0899 13.14 26.8099 13.14 26.5299 13.14H25.6099H22.6899C22.3499 13.14 22.0199 13.14 21.6799 13.14C21.0099 13.14 20.4599 12.88 20.1299 12.43C19.7999 11.98 19.7299 11.37 19.9299 10.73C20.1899 9.93 20.7199 9.38 21.5599 9.07C21.7599 8.99 21.9599 8.8 22.0299 8.61C22.6399 7.02 24.0999 5.99 25.7599 5.98C27.4399 5.98 28.8899 6.98 29.4899 8.54C29.6099 8.85 29.8199 8.94 30.0299 9.02C30.3299 9.14 30.6099 9.3 30.8999 9.47C31.0499 9.56 31.2099 9.65 31.3699 9.73L31.4199 9.76C31.5899 9.85 31.7899 9.95 31.9899 9.98C32.1499 10 32.2999 10 32.4399 10H32.7499C32.8599 10 32.9699 10 33.0899 10C33.9099 10.07 34.5299 10.75 34.5199 11.59C34.5099 12.43 33.8599 13.1 33.0399 13.12C32.5299 13.13 32.0199 13.14 31.5099 13.14M7.13995 5.87C6.59995 5.87 6.14995 5.84 5.74995 5.78C4.78995 5.63 4.00995 4.99 3.66995 4.07C3.29995 3.07 3.50995 1.94 4.21995 1.1C4.80995 0.4 5.67995 0 6.57995 0C7.26995 0 7.91995 0.22 8.47995 0.64C8.62995 0.75 8.82995 0.83 8.99995 0.83C9.02995 0.83 9.05995 0.83 9.07995 0.83C9.25995 0.8 9.42995 0.78 9.59995 0.78C10.2799 0.78 10.8999 1.02 11.4699 1.51C11.5999 1.62 11.7999 1.69 11.9799 1.69C12.0099 1.69 12.0399 1.69 12.0599 1.69C12.2099 1.67 12.3499 1.66 12.4899 1.66C13.3399 1.66 14.0299 2.07 14.4999 2.84C14.5999 3 14.8299 3.14 15.0399 3.16C15.1999 3.17 15.3499 3.18 15.5099 3.18H15.9599C16.0599 3.18 16.1599 3.18 16.2499 3.18C17.0299 3.22 17.5899 3.79 17.5699 4.55C17.5599 5.29 16.9899 5.84 16.2199 5.85C15.9199 5.85 15.6199 5.85 15.3099 5.85C15.0499 5.85 14.0299 5.85 13.7699 5.85C13.7699 5.85 13.7499 5.85 13.7399 5.85H12.4099C12.0699 5.85 11.7299 5.85 11.3899 5.85C11.1299 5.85 10.9599 5.8 10.8599 5.7C10.7999 5.64 10.7699 5.54 10.7699 5.42C10.7699 5.23 10.8499 5.01 11.3799 5.01C12.1399 5.01 15.9299 5.01 15.9299 5.01C15.9599 5.01 15.9799 5.01 16.0099 5.01C16.0499 5.01 16.0799 5.01 16.1199 5.01C16.1799 5.01 16.2799 5.01 16.3599 4.95C16.3599 4.95 16.7799 4.66 16.6799 4.44C16.6099 4.29 16.4199 4.04 16.1999 4.03C15.9099 4.01 15.6199 4.01 15.3999 4.01H14.6299C14.0299 4.01 14.0199 4.01 13.8299 3.46C13.6199 2.88 13.1099 2.51 12.5099 2.51C12.3199 2.51 12.1299 2.55 11.9499 2.62C11.7499 2.7 11.5999 2.75 11.5099 2.75C11.3999 2.75 11.3099 2.68 11.0999 2.39C10.7299 1.91 10.1999 1.63 9.63995 1.63C9.41995 1.63 9.19995 1.67 8.97995 1.75C8.86995 1.79 8.76995 1.81 8.67995 1.81C8.50995 1.81 8.36995 1.73 8.18995 1.55C7.75995 1.09 7.18995 0.84 6.57995 0.84C6.19995 0.84 5.80995 0.94 5.46995 1.14C4.62995 1.62 4.16995 2.65 4.39995 3.53C4.61995 4.4 5.34995 4.97 6.24995 4.99C6.61995 4.99 6.99995 5 7.36995 5H8.73995C9.02995 5 9.17995 5.07 9.25995 5.27C9.30995 5.4 9.29995 5.56 9.22995 5.67C9.18995 5.73 9.10995 5.82 8.95995 5.82C8.69995 5.82 8.43995 5.83 8.17995 5.84C7.83995 5.85 7.49995 5.86 7.14995 5.86" fill="#2C2D65"/>
<path d="M0.68 33.2701C0.36 33.2701 0.14 33.2201 0 32.9901V32.68L0.3 32.0801C0.3 32.0801 0.32 32.0201 0.31 31.98C0.29 31.89 0.27 31.7801 0.24 31.66C0.17 31.33 0.07 30.92 0.07 30.51C0.06 29.19 0.9 27.99 2.17 27.53C2.59 27.37 3.01 27.3 3.4 27.3C4.23 27.3 4.99 27.64 5.68 28.31C5.86 28.49 6.09 28.68 6.4 28.68C6.48 28.68 6.57 28.67 6.66 28.64C6.69 28.64 6.73 28.63 6.79 28.63C6.83 28.63 6.88 28.63 6.93 28.63C6.99 28.63 7.05 28.63 7.11 28.63C7.2 28.63 7.27 28.56 7.27 28.47V25.19C7.27 25.11 7.21 25.04 7.13 25.03C4.34 24.67 2.28 23.28 1.02 20.88C0.07 19.07 -0.09 17.14 0.53 15.12C1.52 11.94 4.44 9.80005 7.8 9.80005C8.56 9.80005 9.32 9.91005 10.06 10.14C12.03 10.74 13.76 12.24 14.67 14.16C15.61 16.13 15.65 18.4 14.78 20.54C14.76 20.59 14.77 20.65 14.8 20.69C14.83 20.73 14.88 20.76 14.93 20.76H19.58C19.67 20.76 19.75 20.76 19.82 20.78C20.05 20.84 20.16 20.99 20.14 21.22C20.12 21.45 20 21.58 19.76 21.6C19.71 21.6 19.67 21.6 19.62 21.6H19.43H16.63C15.04 21.6 13.44 21.6 11.85 21.6C11.71 21.6 11.22 21.68 11.18 21.93C11.12 22.28 11.18 22.65 11.23 22.92C11.27 23.12 11.64 23.15 11.81 23.15C12.75 23.15 13.69 23.15 14.64 23.15H21.4C23.46 23.15 25.53 23.15 27.59 23.15C27.69 23.15 28.22 23.09 28.27 22.83C28.32 22.55 28.3 22.23 28.22 21.83C28.18 21.61 27.74 21.59 27.65 21.59C26.61 21.59 25.57 21.59 24.52 21.59H22.23H22.13C21.91 21.59 21.65 21.5 21.65 21.17C21.65 20.91 21.83 20.75 22.13 20.74C22.32 20.74 22.5 20.74 22.69 20.74H23.53C23.91 20.74 24.3 20.74 24.69 20.74C25.07 20.74 25.46 20.74 25.84 20.74C26.48 20.74 27 20.75 27.48 20.78C27.55 20.78 27.61 20.78 27.68 20.78C28.33 20.78 28.71 20.54 29 19.94C29.18 19.56 29.55 19.22 29.81 19C30.15 18.71 30.54 18.55 30.91 18.55C31.28 18.55 31.68 18.71 32.03 19.01C32.26 19.21 32.47 19.45 32.67 19.69C32.76 19.8 32.86 19.91 32.95 20.01C32.98 20.04 33.02 20.06 33.07 20.06C33.07 20.06 33.16 20.04 33.19 20C33.26 19.92 33.33 19.83 33.4 19.74C33.55 19.55 33.71 19.35 33.89 19.18C34.31 18.76 34.75 18.55 35.21 18.55C35.67 18.55 36.1 18.75 36.52 19.16C37.27 19.88 37.68 20.8 38.02 21.68C38.84 23.82 39.3 26.09 39.38 28.4501C39.43 29.8901 39.31 31.0601 38.57 32.1301C38.54 32.18 38.53 32.2401 38.56 32.2901C38.59 32.34 38.64 32.3801 38.7 32.3801C38.76 32.3801 38.81 32.3801 38.86 32.3801C38.95 32.3801 39.03 32.3801 39.1 32.4001C39.36 32.4501 39.48 32.6001 39.47 32.8301C39.46 33.0701 39.33 33.2 39.07 33.23C39.03 33.23 38.99 33.23 38.95 33.23H38.77H28.27C19.07 33.23 9.88 33.23 0.69 33.23H0.68V33.2701ZM8.18 32.41C8.74 32.41 9.3 32.41 9.87 32.43H9.91C10.46 32.43 10.57 32.09 10.61 31.75C10.67 31.21 10.5 30.85 10.09 30.71C9.89 30.64 9.65 30.54 9.49 30.38C9.34 30.22 9.18 30.14 9 30.14C8.92 30.14 8.83 30.16 8.74 30.19C8.65 30.22 8.57 30.24 8.5 30.24C8.34 30.24 8.2 30.17 8.04 30.01C7.7 29.66 7.29 29.48 6.82 29.48C6.66 29.48 6.49 29.5 6.32 29.55C6.07 29.61 5.92 29.65 5.82 29.65C5.69 29.65 5.63 29.58 5.36 29.2001C4.9 28.5501 4.15 28.16 3.36 28.16C2.85 28.16 2.36 28.32 1.94 28.62C1.4 29.01 1.05 29.59 0.95 30.24C0.85 30.9 1.01 31.5501 1.41 32.0801C1.59 32.3301 1.81 32.43 2.11 32.43C2.75 32.43 3.38 32.43 4 32.43H6.05C6.41 32.43 6.77 32.43 7.13 32.43C7.49 32.43 7.85 32.43 8.21 32.43M26.59 30.75C26.51 30.75 26.42 30.77 26.32 30.8C26.26 30.82 26.21 30.8801 26.21 30.9501V32.2401C26.21 32.3301 26.28 32.4001 26.37 32.4001H27.4C27.46 32.4001 27.51 32.37 27.54 32.32C27.57 32.2701 27.57 32.21 27.54 32.16C27.49 32.05 27.43 31.9401 27.37 31.84C27.25 31.6201 27.14 31.41 27.07 31.19C27.04 31.08 26.93 30.74 26.58 30.74M14.57 30.78C14.48 30.78 14.41 30.85 14.41 30.94V32.2401C14.41 32.3301 14.48 32.4001 14.57 32.4001H25.14C25.23 32.4001 25.3 32.3301 25.3 32.2401V30.94C25.3 30.85 25.23 30.78 25.14 30.78H14.57ZM11.6 30.78C11.51 30.78 11.44 30.85 11.44 30.94V32.2401C11.44 32.3301 11.51 32.4001 11.6 32.4001H13.36C13.45 32.4001 13.52 32.3301 13.52 32.2401V30.94C13.52 30.85 13.45 30.78 13.36 30.78H11.6ZM35.23 19.4C35.01 19.4 34.8 19.51 34.61 19.72C34.31 20.04 34.07 20.41 33.83 20.77C33.77 20.86 33.71 20.96 33.64 21.05C33.54 21.2 33.62 21.42 33.64 21.48C34.36 23.3 34.82 25.25 35 27.2701C35.15 29 35.21 30.5601 34.36 32.0401C34.33 32.09 34.33 32.1501 34.36 32.2001C34.39 32.25 34.44 32.28 34.5 32.28H35.27C35.45 32.28 35.87 32.28 35.87 32.28C36.08 32.28 36.31 32.2801 36.52 32.25C37.55 32.1201 38.12 31.61 38.37 30.6C38.41 30.44 38.44 30.26 38.47 30.05C38.65 28.65 38.49 27.27 38.3 26.1C37.98 24.06 37.54 22.56 36.88 21.23C36.64 20.75 36.29 20.25 35.85 19.74C35.65 19.52 35.44 19.41 35.22 19.41M28.08 30.76C28.03 30.76 27.98 30.78 27.95 30.82C27.92 30.8601 27.91 30.91 27.93 30.96C28.16 31.71 28.62 32.1 29.33 32.17C29.97 32.23 30.63 32.26 31.36 32.26C31.56 32.26 31.75 32.26 31.95 32.26C33.25 32.23 33.93 31.64 34.15 30.33C34.39 28.94 34.25 27.59 34.06 26.34C33.76 24.32 33.32 22.72 32.65 21.31C32.43 20.84 32.18 20.42 31.89 20.06C31.56 19.63 31.25 19.43 30.94 19.43C30.63 19.43 30.33 19.63 29.99 20.05C29.7 20.42 29.47 20.85 29.27 21.23C29.19 21.38 29.16 21.57 29.18 21.83V22C29.22 22.5 29.25 22.97 29.02 23.42C28.95 23.54 28.98 23.73 29.03 23.84C29.26 24.3 29.29 24.84 29.14 25.52C29.02 26.05 28.61 26.28 28.29 26.38C28.2 26.41 28.11 26.43 28.02 26.46L27.9 26.49C27.84 26.51 27.79 26.56 27.78 26.63L27.68 27.4501C27.68 27.4501 27.68 27.54 27.72 27.58C27.75 27.61 27.79 27.63 27.84 27.63C27.99 27.63 28.7 27.63 28.7 27.63C28.87 27.63 29.03 27.63 29.19 27.63C29.86 27.65 30.32 28.12 30.33 28.78C30.33 29.03 30.33 29.27 30.33 29.51C30.33 30.31 29.87 30.76 29.06 30.7701C28.95 30.7701 28.85 30.7701 28.74 30.7701H28.09L28.08 30.76ZM28.57 29.91C28.67 29.91 28.76 29.91 28.84 29.91H29C29.47 29.91 29.47 29.6901 29.48 29.2901C29.48 29.2001 29.48 29.1 29.48 28.98C29.48 28.86 29.48 28.6901 29.36 28.57C29.25 28.45 29.08 28.44 28.94 28.44C25.71 28.44 22.48 28.44 19.25 28.44C16.34 28.44 13.44 28.44 10.53 28.44C10.38 28.44 10.21 28.46 10.1 28.58C10.02 28.67 9.99 28.8 10.01 28.96C10.01 29.01 10.01 29.07 10.01 29.12V29.21C10.01 29.82 10.08 29.9 10.7 29.9C13.72 29.9 24.16 29.9 24.16 29.9C25.63 29.9 27.1 29.9 28.57 29.9H28.58L28.57 29.91ZM10.07 24.74L8.28 25.07C8.2 25.08 8.15 25.15 8.15 25.23C8.15 25.23 8.15 27.87 8.15 28.63C8.15 29.18 8.43 29.3 8.67 29.3C8.77 29.3 8.89 29.28 9.03 29.23C9.09 29.21 9.13 29.16 9.14 29.1101C9.15 29.0501 9.16 29.01 9.16 28.98C9.2 27.97 9.58 27.62 10.61 27.62H14.28C14.37 27.62 14.44 27.55 14.44 27.46V26.6C14.44 26.51 14.37 26.44 14.28 26.44H12.53C12.23 26.44 11.93 26.44 11.63 26.44C10.9 26.44 10.39 25.97 10.3 25.24L10.26 24.89C10.26 24.89 10.23 24.81 10.2 24.78C10.17 24.76 10.14 24.75 10.11 24.75C10.11 24.75 10.09 24.75 10.08 24.75M25.46 26.4501C25.37 26.4501 25.3 26.5201 25.3 26.6101V27.42C25.3 27.51 25.37 27.58 25.46 27.58H26.64C26.72 27.58 26.79 27.52 26.8 27.44L26.9 26.63C26.9 26.63 26.9 26.5401 26.86 26.5C26.83 26.47 26.79 26.4501 26.74 26.4501H25.46ZM15.48 26.46C15.39 26.46 15.32 26.53 15.32 26.62V27.42C15.32 27.51 15.39 27.58 15.48 27.58H24.24C24.33 27.58 24.4 27.51 24.4 27.42V26.62C24.4 26.53 24.33 26.46 24.24 26.46H15.48ZM22.6 24.02C19.03 24.02 15.47 24.02 11.9 24.02C11.51 24.02 11.29 24.1 11.25 24.25C11.16 24.6 11.14 24.94 11.19 25.25C11.23 25.5 11.73 25.57 11.86 25.57C13.5 25.57 15.14 25.57 16.79 25.57H27.43C27.83 25.57 28.07 25.57 28.21 25.41C28.36 25.26 28.35 25.02 28.34 24.61V24.53C28.33 24.2 28.13 24.01 27.79 24.01C27.68 24.01 27.58 24.01 27.48 24.01H26.88H22.59L22.6 24.02ZM9.94 16.58C10.04 16.58 10.13 16.62 10.21 16.72C10.4 16.92 10.36 17.15 10.1 17.41L9.83 17.69C9.4 18.13 8.96 18.58 8.51 19C8.25 19.24 8.14 19.5 8.15 19.86C8.16 20.78 8.15 21.7 8.15 22.62V24.08C8.15 24.08 8.17 24.18 8.21 24.21C8.24 24.23 8.27 24.24 8.31 24.24C8.32 24.24 8.34 24.24 8.35 24.24C8.35 24.24 9.79 23.89 10.3 23.77C10.38 23.75 10.43 23.68 10.42 23.6C10.4 23.42 10.39 23.25 10.37 23.09C10.33 22.76 10.3 22.45 10.3 22.15C10.3 21.31 10.83 20.79 11.69 20.78C11.97 20.78 12.25 20.78 12.52 20.78C12.79 20.78 13.05 20.78 13.31 20.79C13.61 20.79 13.78 20.68 13.9 20.42C14.5 19.15 14.71 17.82 14.51 16.47C14.03 13.16 11.16 10.66 7.84 10.66C7.43 10.66 7.02 10.7 6.62 10.78C4.73 11.15 3.12 12.22 2.11 13.8C1.11 15.36 0.8 17.22 1.23 19.05C1.89 21.82 4.43 24.02 7.14 24.17C7.14 24.17 7.22 24.15 7.25 24.13C7.28 24.1 7.3 24.06 7.3 24.01C7.3 23.81 7.3 23.6 7.3 23.4C7.3 22.93 7.3 22.44 7.3 21.96C7.32 21.53 7.19 21.23 6.89 20.96C6.51 20.62 6.15 20.25 5.8 19.89C5.68 19.76 5.55 19.64 5.43 19.52C5.15 19.24 5.1 19 5.29 18.8C5.37 18.72 5.46 18.68 5.56 18.68C5.7 18.68 5.85 18.76 6.01 18.92C6.11 19.02 6.22 19.13 6.32 19.23C6.41 19.32 6.82 19.73 6.82 19.73L7.01 19.91C7.01 19.91 7.08 19.96 7.12 19.96C7.14 19.96 7.16 19.96 7.18 19.95C7.24 19.93 7.28 19.87 7.28 19.8C7.28 19.8 7.28 17.21 7.28 16.51C7.28 15.89 7.58 15.89 7.7 15.89C7.9 15.89 8.12 15.96 8.13 16.49C8.13 16.79 8.13 17.09 8.13 17.45V17.85C8.13 17.91 8.17 17.97 8.23 18C8.25 18 8.27 18.01 8.29 18.01C8.33 18.01 8.37 17.99 8.4 17.96L8.75 17.6C9.01 17.33 9.24 17.1 9.47 16.87C9.63 16.71 9.78 16.63 9.91 16.63" fill="#2C2D65"/>
<path d="M30.96 12.3C30.57 12.3 30.18 12.3 29.79 12.3C29.61 12.3 29.48 12.35 29.39 12.44C29.32 12.51 29.28 12.61 29.29 12.74C29.29 13.01 29.46 13.14 29.78 13.14H30.32C30.72 13.14 31.11 13.14 31.51 13.14C32.02 13.14 32.53 13.14 33.04 13.12C33.86 13.1 34.51 12.43 34.52 11.59C34.53 10.75 33.92 10.07 33.09 9.99998C32.98 9.99998 32.88 9.99998 32.77 9.99998H32.61H32.44C32.31 9.99998 32.16 9.99998 32 9.97998C31.79 9.95998 31.6 9.84998 31.43 9.75998L31.38 9.72998C31.22 9.64998 31.07 9.55998 30.91 9.46998C30.62 9.29998 30.34 9.13998 30.04 9.01998C29.79 8.91998 29.61 8.82998 29.5 8.53998C28.9 6.98998 27.45 5.97998 25.79 5.97998C24.11 5.97998 22.65 7.01998 22.04 8.60998C21.97 8.79998 21.77 8.98998 21.57 9.06998C20.73 9.38998 20.2 9.92998 19.94 10.74C19.74 11.38 19.81 11.98 20.14 12.44C20.47 12.89 21.02 13.14 21.69 13.15C22.04 13.15 22.39 13.15 22.75 13.15H24.34H25.62H26.16H26.58C26.84 13.15 27.1 13.15 27.36 13.15C27.62 13.15 27.78 13 27.79 12.76C27.79 12.52 27.64 12.36 27.39 12.32C27.33 12.32 27.26 12.32 27.2 12.32H25.56H24.1C23.29 12.32 22.47 12.32 21.66 12.32C21.29 12.32 21.01 12.2 20.84 11.98C20.67 11.76 20.63 11.45 20.73 11.09C20.93 10.36 21.41 9.93998 22.12 9.85998C22.5 9.81998 22.66 9.66998 22.76 9.26998C23.1 7.82998 24.32 6.84998 25.8 6.84998C27.3 6.84998 28.52 7.85998 28.86 9.33998C28.95 9.74998 29.04 9.82998 29.41 9.82998H29.48H29.54C30.13 9.82998 30.6 10.06 30.89 10.51C31.06 10.76 31.26 10.86 31.59 10.86H31.64C31.83 10.86 32.01 10.85 32.2 10.85C32.48 10.85 32.75 10.85 33.01 10.87C33.43 10.89 33.68 11.17 33.67 11.6C33.67 12.01 33.41 12.27 32.99 12.31C32.92 12.31 32.84 12.31 32.77 12.31H32.62H32.39H30.96V12.3Z" fill="#2C2D65"/>
</g>
<defs>
<clipPath id="clip0_1660_1588">
<rect width="39.47" height="33.27" fill="white"/>
</clipPath>
</defs>
</svg>
