<svg width="200" height="200" viewBox="0 0 200 200" fill="none" xmlns="http://www.w3.org/2000/svg">
<g clip-path="url(#clip0_2464_1663)">
<path d="M195.763 189.877H4.23686C1.89705 189.877 0 187.98 0 185.64C0 183.3 1.89705 181.403 4.23686 181.403H195.763C198.103 181.403 200 183.3 200 185.64C200 187.98 198.103 189.877 195.763 189.877ZM187.993 170.565C185.653 170.565 183.756 168.668 183.756 166.329V72.7019H149.592C147.253 72.7019 145.356 70.8049 145.356 68.4651C145.356 66.1253 147.253 64.2282 149.592 64.2282H187.994C190.334 64.2282 192.231 66.1253 192.231 68.4651C192.231 68.4931 192.231 68.5212 192.231 68.5493V166.329C192.23 168.669 190.333 170.565 187.993 170.565ZM166.877 170.565H143.277C140.938 170.565 139.041 168.668 139.041 166.329V87.1163C139.041 84.7764 140.938 82.8794 143.277 82.8794H166.877C169.217 82.8794 171.114 84.7764 171.114 87.1163V166.329C171.114 168.669 169.217 170.565 166.877 170.565ZM147.514 162.092H162.64V144.161H147.514V162.092ZM147.514 135.687H162.64V117.758H147.514V135.687ZM147.514 109.284H162.64V91.3531H147.514V109.284ZM121.743 170.565C119.403 170.565 117.506 168.668 117.506 166.329V112.918H82.4933V166.329C82.4933 168.668 80.5962 170.565 78.2564 170.565C75.9166 170.565 74.0196 168.668 74.0196 166.329V108.681C74.0196 106.342 75.9166 104.444 78.2564 104.444C78.4953 104.444 78.7294 104.464 78.9571 104.502C79.1864 104.464 79.4221 104.444 79.6625 104.444H120.337C120.578 104.444 120.814 104.464 121.043 104.502C121.271 104.464 121.505 104.444 121.744 104.444C124.083 104.444 125.98 106.342 125.98 108.681V166.329C125.98 168.669 124.083 170.565 121.743 170.565ZM56.7226 170.565H33.1233C30.7834 170.565 28.8864 168.668 28.8864 166.329V87.1163C28.8864 84.7764 30.7834 82.8794 33.1233 82.8794H56.7226C59.0624 82.8794 60.9594 84.7764 60.9594 87.1163V166.329C60.9594 168.669 59.0624 170.565 56.7226 170.565ZM37.3601 162.092H52.4857V144.161H37.3601V162.092ZM37.3601 135.687H52.4857V117.758H37.3601V135.687ZM37.3601 109.284H52.4857V91.3531H37.3601V109.284ZM12.0062 170.565C9.6664 170.565 7.76935 168.668 7.76935 166.329V68.5583C7.76882 68.527 7.76829 68.4958 7.76829 68.4651C7.76829 66.1253 9.66534 64.2282 12.0051 64.2282H50.4075C52.7473 64.2282 54.6444 66.1253 54.6444 68.4651C54.6444 70.8049 52.7473 72.7019 50.4075 72.7019H16.2431V166.329C16.2431 168.669 14.3465 170.565 12.0062 170.565ZM100 148.119C97.6602 148.119 95.7631 146.222 95.7631 143.882V135.619C95.7631 133.28 97.6602 131.382 100 131.382C102.34 131.382 104.237 133.28 104.237 135.619V143.882C104.237 146.222 102.34 148.119 100 148.119ZM99.5154 91.5157C77.0754 91.5157 58.8193 73.2596 58.8193 50.8196V14.3603C58.8193 12.0205 60.7163 10.1235 63.0562 10.1235H135.975C138.315 10.1235 140.212 12.0205 140.212 14.3603V50.8196C140.212 73.2596 121.955 91.5157 99.5154 91.5157ZM67.293 18.5972V50.8196C67.293 68.5869 81.7481 83.042 99.5154 83.042C117.283 83.042 131.738 68.5874 131.738 50.8196V18.5972H67.293ZM100.002 68.4571C99.6356 68.4571 99.2686 68.41 98.9085 68.3136C98.9058 68.3131 98.9027 68.312 98.9 68.3115C98.8968 68.3109 98.8947 68.3099 98.891 68.3094C98.8878 68.3083 98.8852 68.3078 98.8825 68.3072C98.8799 68.3067 98.8772 68.3062 98.8746 68.3051H98.874C98.8248 68.2914 98.775 68.277 98.7263 68.2612L79.877 62.3725C78.1081 61.8201 76.9038 60.1815 76.9038 58.3284V30.8052C76.9038 29.4573 77.5452 28.19 78.6309 27.3919C79.7166 26.5937 81.1174 26.3586 82.4043 26.7616L100.002 32.2595L117.6 26.7616C118.886 26.3586 120.287 26.5937 121.373 27.3919C122.459 28.19 123.1 29.4573 123.1 30.8052V58.3278C123.1 60.1815 121.896 61.8195 120.127 62.3719L101.266 68.2643C100.851 68.3941 100.425 68.4571 100.002 68.4571ZM85.377 55.2127L95.7647 58.4576V39.8128L85.377 36.5678V55.2127ZM104.238 39.8128V58.4581L114.626 55.2132V36.5678L104.238 39.8128Z" fill="#2C2D65"/>
</g>
<defs>
<clipPath id="clip0_2464_1663">
<rect width="200" height="200" fill="white"/>
</clipPath>
</defs>
</svg>
